%TF.GenerationSoftware,KiCad,Pcbnew,(6.0.4)*%
%TF.CreationDate,2022-09-30T21:10:11-05:00*%
%TF.ProjectId,WiRSa,57695253-612e-46b6-9963-61645f706362,rev?*%
%TF.SameCoordinates,Original*%
%TF.FileFunction,Copper,L1,Top*%
%TF.FilePolarity,Positive*%
%FSLAX46Y46*%
G04 Gerber Fmt 4.6, Leading zero omitted, Abs format (unit mm)*
G04 Created by KiCad (PCBNEW (6.0.4)) date 2022-09-30 21:10:11*
%MOMM*%
%LPD*%
G01*
G04 APERTURE LIST*
%TA.AperFunction,ComponentPad*%
%ADD10R,1.700000X1.700000*%
%TD*%
%TA.AperFunction,ComponentPad*%
%ADD11O,1.700000X1.700000*%
%TD*%
%TA.AperFunction,ComponentPad*%
%ADD12R,2.000000X2.000000*%
%TD*%
%TA.AperFunction,ComponentPad*%
%ADD13O,1.600000X2.000000*%
%TD*%
%TA.AperFunction,ComponentPad*%
%ADD14C,1.600000*%
%TD*%
%TA.AperFunction,ComponentPad*%
%ADD15O,1.600000X1.600000*%
%TD*%
%TA.AperFunction,ComponentPad*%
%ADD16C,2.100000*%
%TD*%
%TA.AperFunction,ComponentPad*%
%ADD17C,1.750000*%
%TD*%
%TA.AperFunction,ComponentPad*%
%ADD18O,2.000000X1.600000*%
%TD*%
%TA.AperFunction,ComponentPad*%
%ADD19C,1.400000*%
%TD*%
%TA.AperFunction,ComponentPad*%
%ADD20R,1.524000X1.524000*%
%TD*%
%TA.AperFunction,ComponentPad*%
%ADD21C,1.524000*%
%TD*%
%TA.AperFunction,Conductor*%
%ADD22C,0.406400*%
%TD*%
%TA.AperFunction,Conductor*%
%ADD23C,0.762000*%
%TD*%
G04 APERTURE END LIST*
D10*
%TO.P,RS232,1,VCC*%
%TO.N,Net-(J1-Pad1)*%
X74295000Y-92065000D03*
D11*
%TO.P,RS232,2,RXD*%
%TO.N,Net-(J1-Pad2)*%
X74295000Y-89525000D03*
%TO.P,RS232,3,TXD*%
%TO.N,Net-(J1-Pad3)*%
X74295000Y-86985000D03*
%TO.P,RS232,4,GND*%
%TO.N,GND*%
X74295000Y-84445000D03*
%TD*%
D12*
%TO.P,U1,1,~{RST}*%
%TO.N,unconnected-(U1-Pad1)*%
X85090000Y-99845000D03*
D13*
%TO.P,U1,2,A0*%
%TO.N,Net-(R1-Pad2)*%
X87630000Y-99845000D03*
%TO.P,U1,3,D0*%
%TO.N,Net-(R2-Pad2)*%
X90170000Y-99845000D03*
%TO.P,U1,4,SCK/D5*%
%TO.N,Net-(A1-Pad4)*%
X92710000Y-99845000D03*
%TO.P,U1,5,MISO/D6*%
%TO.N,Net-(A1-Pad5)*%
X95250000Y-99845000D03*
%TO.P,U1,6,MOSI/D7*%
%TO.N,Net-(A1-Pad3)*%
X97790000Y-99845000D03*
%TO.P,U1,7,CS/D8*%
%TO.N,Net-(A1-Pad2)*%
X100330000Y-99845000D03*
%TO.P,U1,8,3V3*%
%TO.N,Net-(A1-Pad1)*%
X102870000Y-99845000D03*
%TO.P,U1,9,5V*%
%TO.N,Net-(J1-Pad1)*%
X102870000Y-76985000D03*
%TO.P,U1,10,GND*%
%TO.N,GND*%
X100330000Y-76985000D03*
%TO.P,U1,11,D4*%
%TO.N,Net-(R4-Pad2)*%
X97790000Y-76985000D03*
%TO.P,U1,12,D3*%
%TO.N,Net-(R3-Pad2)*%
X95250000Y-76985000D03*
%TO.P,U1,13,SDA/D2*%
%TO.N,Net-(Brd1-Pad4)*%
X92710000Y-76985000D03*
%TO.P,U1,14,SCL/D1*%
%TO.N,Net-(Brd1-Pad3)*%
X90170000Y-76985000D03*
%TO.P,U1,15,RX*%
%TO.N,Net-(JP1-Pad2)*%
X87630000Y-76985000D03*
%TO.P,U1,16,TX*%
%TO.N,Net-(JP2-Pad2)*%
X85090000Y-76985000D03*
%TD*%
D14*
%TO.P,R1,1*%
%TO.N,Net-(A1-Pad1)*%
X69342000Y-95250000D03*
D15*
%TO.P,R1,2*%
%TO.N,Net-(R1-Pad2)*%
X61722000Y-95250000D03*
%TD*%
D14*
%TO.P,R4,1*%
%TO.N,Net-(A1-Pad1)*%
X71628000Y-81534000D03*
D15*
%TO.P,R4,2*%
%TO.N,Net-(R4-Pad2)*%
X79248000Y-81534000D03*
%TD*%
D14*
%TO.P,R2,1*%
%TO.N,Net-(A1-Pad1)*%
X71628000Y-95250000D03*
D15*
%TO.P,R2,2*%
%TO.N,Net-(R2-Pad2)*%
X79248000Y-95250000D03*
%TD*%
D16*
%TO.P,SW1,*%
%TO.N,*%
X69006000Y-98856000D03*
X61996000Y-98856000D03*
D17*
%TO.P,SW1,1,1*%
%TO.N,GND*%
X63246000Y-101346000D03*
%TO.P,SW1,2,2*%
%TO.N,Net-(R1-Pad2)*%
X67746000Y-101346000D03*
%TD*%
D14*
%TO.P,R3,1*%
%TO.N,Net-(A1-Pad1)*%
X69342000Y-81534000D03*
D15*
%TO.P,R3,2*%
%TO.N,Net-(R3-Pad2)*%
X61722000Y-81534000D03*
%TD*%
D16*
%TO.P,SW4,*%
%TO.N,*%
X78963000Y-77878500D03*
X71953000Y-77878500D03*
D17*
%TO.P,SW4,1,1*%
%TO.N,GND*%
X77713000Y-75388500D03*
%TO.P,SW4,2,2*%
%TO.N,Net-(R4-Pad2)*%
X73213000Y-75388500D03*
%TD*%
D18*
%TO.P,Brd1,4,SDA*%
%TO.N,Net-(Brd1-Pad4)*%
X82364000Y-91884000D03*
%TO.P,Brd1,3,SCL*%
%TO.N,Net-(Brd1-Pad3)*%
X82364000Y-89344000D03*
%TO.P,Brd1,2,VCC*%
%TO.N,Net-(A1-Pad1)*%
X82364000Y-86804000D03*
%TO.P,Brd1,1,GND*%
%TO.N,GND*%
X82364000Y-84264000D03*
%TD*%
D19*
%TO.P,TX,1,A*%
%TO.N,Net-(J1-Pad3)*%
X69576000Y-86868000D03*
%TO.P,TX,2,B*%
%TO.N,Net-(JP2-Pad2)*%
X67036000Y-86868000D03*
%TD*%
D16*
%TO.P,SW3,*%
%TO.N,*%
X62047000Y-77878500D03*
X69057000Y-77878500D03*
D17*
%TO.P,SW3,1,1*%
%TO.N,GND*%
X67807000Y-75388500D03*
%TO.P,SW3,2,2*%
%TO.N,Net-(R3-Pad2)*%
X63307000Y-75388500D03*
%TD*%
D19*
%TO.P,RX,2,B*%
%TO.N,Net-(JP1-Pad2)*%
X67036000Y-89662000D03*
%TO.P,RX,1,A*%
%TO.N,Net-(J1-Pad2)*%
X69576000Y-89662000D03*
%TD*%
D16*
%TO.P,SW2,*%
%TO.N,*%
X71902000Y-98856000D03*
X78912000Y-98856000D03*
D17*
%TO.P,SW2,1,1*%
%TO.N,GND*%
X73152000Y-101346000D03*
%TO.P,SW2,2,2*%
%TO.N,Net-(R2-Pad2)*%
X77652000Y-101346000D03*
%TD*%
D20*
%TO.P,A1,1,3V3*%
%TO.N,Net-(A1-Pad1)*%
X92710000Y-94742000D03*
D21*
%TO.P,A1,2,CS*%
%TO.N,Net-(A1-Pad2)*%
X92710000Y-92202000D03*
%TO.P,A1,3,MOSI*%
%TO.N,Net-(A1-Pad3)*%
X92710000Y-89662000D03*
%TO.P,A1,4,CLK*%
%TO.N,Net-(A1-Pad4)*%
X92710000Y-87122000D03*
%TO.P,A1,5,MISO*%
%TO.N,Net-(A1-Pad5)*%
X92710000Y-84582000D03*
%TO.P,A1,6,GND*%
%TO.N,GND*%
X92710000Y-82042000D03*
%TD*%
D22*
%TO.N,Net-(JP2-Pad2)*%
X69830000Y-84074000D02*
X69850000Y-84074000D01*
X67036000Y-86868000D02*
X69830000Y-84074000D01*
X69850000Y-84074000D02*
X71882000Y-84074000D01*
X82319000Y-79756000D02*
X85090000Y-76985000D01*
X76200000Y-79756000D02*
X82319000Y-79756000D01*
X71882000Y-84074000D02*
X76200000Y-79756000D01*
%TO.N,Net-(JP1-Pad2)*%
X71120000Y-91948000D02*
X69322000Y-91948000D01*
X76454000Y-94488000D02*
X73660000Y-94488000D01*
X79248000Y-91694000D02*
X76454000Y-94488000D01*
X79248000Y-84074000D02*
X79248000Y-91694000D01*
X81534000Y-81788000D02*
X79248000Y-84074000D01*
X73660000Y-94488000D02*
X71120000Y-91948000D01*
X85090000Y-81788000D02*
X81534000Y-81788000D01*
X87630000Y-79248000D02*
X85090000Y-81788000D01*
X87630000Y-76985000D02*
X87630000Y-79248000D01*
X69322000Y-91948000D02*
X67036000Y-89662000D01*
%TO.N,Net-(R3-Pad2)*%
X93726000Y-73152000D02*
X95250000Y-74676000D01*
X64262000Y-73152000D02*
X93726000Y-73152000D01*
X95250000Y-74676000D02*
X95250000Y-76985000D01*
X63307000Y-75388500D02*
X63307000Y-74107000D01*
X63307000Y-74107000D02*
X64262000Y-73152000D01*
X64262000Y-80772000D02*
X64262000Y-76343500D01*
X63754000Y-81280000D02*
X64262000Y-80772000D01*
X61722000Y-81280000D02*
X63754000Y-81280000D01*
X64262000Y-76343500D02*
X63307000Y-75388500D01*
D23*
%TO.N,Net-(A1-Pad1)*%
X83756000Y-86804000D02*
X91694000Y-94742000D01*
X82364000Y-86804000D02*
X83756000Y-86804000D01*
X91694000Y-94742000D02*
X92710000Y-94742000D01*
X100584000Y-94742000D02*
X92710000Y-94742000D01*
X102870000Y-97028000D02*
X100584000Y-94742000D01*
X102870000Y-99845000D02*
X102870000Y-97028000D01*
%TD*%
%TA.AperFunction,Conductor*%
%TO.N,GND*%
G36*
X111193621Y-73172502D02*
G01*
X111240114Y-73226158D01*
X111251500Y-73278500D01*
X111251500Y-103505500D01*
X111231498Y-103573621D01*
X111177842Y-103620114D01*
X111125500Y-103631500D01*
X61086500Y-103631500D01*
X61018379Y-103611498D01*
X60971886Y-103557842D01*
X60960500Y-103505500D01*
X60960500Y-102489130D01*
X62467700Y-102489130D01*
X62472981Y-102496184D01*
X62641919Y-102594904D01*
X62651202Y-102599351D01*
X62854002Y-102676793D01*
X62863900Y-102679669D01*
X63076625Y-102722948D01*
X63086853Y-102724167D01*
X63303788Y-102732122D01*
X63314074Y-102731655D01*
X63529400Y-102704072D01*
X63539477Y-102701930D01*
X63747401Y-102639549D01*
X63756999Y-102635788D01*
X63951947Y-102540284D01*
X63960785Y-102535015D01*
X64013172Y-102497648D01*
X64021572Y-102486948D01*
X64014585Y-102473795D01*
X63258812Y-101718022D01*
X63244868Y-101710408D01*
X63243035Y-101710539D01*
X63236420Y-101714790D01*
X62474460Y-102476750D01*
X62467700Y-102489130D01*
X60960500Y-102489130D01*
X60960500Y-100274286D01*
X60980502Y-100206165D01*
X61034158Y-100159672D01*
X61104432Y-100149568D01*
X61152334Y-100166853D01*
X61216486Y-100206165D01*
X61286268Y-100248927D01*
X61421084Y-100304770D01*
X61508335Y-100340911D01*
X61508337Y-100340912D01*
X61512908Y-100342805D01*
X61588488Y-100360950D01*
X61746630Y-100398917D01*
X61746636Y-100398918D01*
X61751443Y-100400072D01*
X61847011Y-100407593D01*
X61976630Y-100417795D01*
X62042971Y-100443081D01*
X62085111Y-100500219D01*
X62089670Y-100571069D01*
X62070832Y-100614411D01*
X62042286Y-100656258D01*
X62037188Y-100665232D01*
X61945795Y-100862121D01*
X61942232Y-100871808D01*
X61884223Y-101080979D01*
X61882292Y-101091100D01*
X61859222Y-101306962D01*
X61858971Y-101317250D01*
X61871467Y-101533967D01*
X61872903Y-101544188D01*
X61920627Y-101755948D01*
X61923706Y-101765777D01*
X62005379Y-101966914D01*
X62010022Y-101976105D01*
X62094279Y-102113601D01*
X62104735Y-102123061D01*
X62113513Y-102119277D01*
X62885658Y-101347132D01*
X63610408Y-101347132D01*
X63610539Y-101348965D01*
X63614790Y-101355580D01*
X64374388Y-102115178D01*
X64386398Y-102121736D01*
X64398138Y-102112768D01*
X64432507Y-102064940D01*
X64437816Y-102056103D01*
X64533994Y-101861503D01*
X64537792Y-101851910D01*
X64600897Y-101644208D01*
X64603074Y-101634138D01*
X64631646Y-101417113D01*
X64632165Y-101410438D01*
X64633658Y-101349364D01*
X64633464Y-101342646D01*
X64630951Y-101312082D01*
X66358172Y-101312082D01*
X66358469Y-101317234D01*
X66358469Y-101317238D01*
X66360539Y-101353131D01*
X66371268Y-101539206D01*
X66372405Y-101544252D01*
X66372406Y-101544258D01*
X66392662Y-101634138D01*
X66421283Y-101761141D01*
X66506875Y-101971927D01*
X66625744Y-102165904D01*
X66774698Y-102337861D01*
X66949737Y-102483181D01*
X66954189Y-102485783D01*
X66954194Y-102485786D01*
X67048199Y-102540718D01*
X67146160Y-102597962D01*
X67358693Y-102679120D01*
X67363759Y-102680151D01*
X67363760Y-102680151D01*
X67462861Y-102700313D01*
X67581627Y-102724476D01*
X67709437Y-102729163D01*
X67803811Y-102732624D01*
X67803815Y-102732624D01*
X67808975Y-102732813D01*
X67814095Y-102732157D01*
X67814097Y-102732157D01*
X68029504Y-102704563D01*
X68029505Y-102704563D01*
X68034632Y-102703906D01*
X68039582Y-102702421D01*
X68247591Y-102640015D01*
X68247592Y-102640014D01*
X68252537Y-102638531D01*
X68456839Y-102538444D01*
X68461043Y-102535446D01*
X68461047Y-102535443D01*
X68525976Y-102489130D01*
X72373700Y-102489130D01*
X72378981Y-102496184D01*
X72547919Y-102594904D01*
X72557202Y-102599351D01*
X72760002Y-102676793D01*
X72769900Y-102679669D01*
X72982625Y-102722948D01*
X72992853Y-102724167D01*
X73209788Y-102732122D01*
X73220074Y-102731655D01*
X73435400Y-102704072D01*
X73445477Y-102701930D01*
X73653401Y-102639549D01*
X73662999Y-102635788D01*
X73857947Y-102540284D01*
X73866785Y-102535015D01*
X73919172Y-102497648D01*
X73927572Y-102486948D01*
X73920585Y-102473795D01*
X73164812Y-101718022D01*
X73150868Y-101710408D01*
X73149035Y-101710539D01*
X73142420Y-101714790D01*
X72380460Y-102476750D01*
X72373700Y-102489130D01*
X68525976Y-102489130D01*
X68637847Y-102409333D01*
X68637849Y-102409331D01*
X68642051Y-102406334D01*
X68803199Y-102245747D01*
X68857764Y-102169812D01*
X68932938Y-102065198D01*
X68932942Y-102065192D01*
X68935956Y-102060997D01*
X69036755Y-101857046D01*
X69102890Y-101639370D01*
X69116077Y-101539206D01*
X69132148Y-101417136D01*
X69132148Y-101417132D01*
X69132585Y-101413815D01*
X69133937Y-101358498D01*
X69134160Y-101349365D01*
X69134160Y-101349361D01*
X69134242Y-101346000D01*
X69115601Y-101119264D01*
X69060178Y-100898617D01*
X69006844Y-100775957D01*
X68971522Y-100694722D01*
X68971520Y-100694719D01*
X68969462Y-100689985D01*
X68919423Y-100612635D01*
X68899216Y-100544577D01*
X68919012Y-100476396D01*
X68972527Y-100429742D01*
X69015329Y-100418585D01*
X69106762Y-100411389D01*
X69250557Y-100400072D01*
X69255364Y-100398918D01*
X69255370Y-100398917D01*
X69413512Y-100360950D01*
X69489092Y-100342805D01*
X69493663Y-100340912D01*
X69493665Y-100340911D01*
X69580916Y-100304770D01*
X69715732Y-100248927D01*
X69877872Y-100149568D01*
X69920670Y-100123342D01*
X69920673Y-100123340D01*
X69924896Y-100120752D01*
X69969432Y-100082715D01*
X70107677Y-99964641D01*
X70111433Y-99961433D01*
X70215822Y-99839210D01*
X70267535Y-99778663D01*
X70267537Y-99778660D01*
X70270752Y-99774896D01*
X70346567Y-99651176D01*
X70399214Y-99603544D01*
X70469256Y-99591937D01*
X70534454Y-99620040D01*
X70561432Y-99651175D01*
X70637248Y-99774896D01*
X70640463Y-99778660D01*
X70640465Y-99778663D01*
X70692178Y-99839210D01*
X70796567Y-99961433D01*
X70800323Y-99964641D01*
X70938569Y-100082715D01*
X70983104Y-100120752D01*
X70987327Y-100123340D01*
X70987330Y-100123342D01*
X71030128Y-100149568D01*
X71192268Y-100248927D01*
X71327084Y-100304770D01*
X71414335Y-100340911D01*
X71414337Y-100340912D01*
X71418908Y-100342805D01*
X71494488Y-100360950D01*
X71652630Y-100398917D01*
X71652636Y-100398918D01*
X71657443Y-100400072D01*
X71753011Y-100407593D01*
X71882630Y-100417795D01*
X71948971Y-100443081D01*
X71991111Y-100500219D01*
X71995670Y-100571069D01*
X71976832Y-100614411D01*
X71948286Y-100656258D01*
X71943188Y-100665232D01*
X71851795Y-100862121D01*
X71848232Y-100871808D01*
X71790223Y-101080979D01*
X71788292Y-101091100D01*
X71765222Y-101306962D01*
X71764971Y-101317250D01*
X71777467Y-101533967D01*
X71778903Y-101544188D01*
X71826627Y-101755948D01*
X71829706Y-101765777D01*
X71911379Y-101966914D01*
X71916022Y-101976105D01*
X72000279Y-102113601D01*
X72010735Y-102123061D01*
X72019513Y-102119277D01*
X72791658Y-101347132D01*
X73516408Y-101347132D01*
X73516539Y-101348965D01*
X73520790Y-101355580D01*
X74280388Y-102115178D01*
X74292398Y-102121736D01*
X74304138Y-102112768D01*
X74338507Y-102064940D01*
X74343816Y-102056103D01*
X74439994Y-101861503D01*
X74443792Y-101851910D01*
X74506897Y-101644208D01*
X74509074Y-101634138D01*
X74537646Y-101417113D01*
X74538165Y-101410438D01*
X74539658Y-101349364D01*
X74539464Y-101342646D01*
X74536951Y-101312082D01*
X76264172Y-101312082D01*
X76264469Y-101317234D01*
X76264469Y-101317238D01*
X76266539Y-101353131D01*
X76277268Y-101539206D01*
X76278405Y-101544252D01*
X76278406Y-101544258D01*
X76298662Y-101634138D01*
X76327283Y-101761141D01*
X76412875Y-101971927D01*
X76531744Y-102165904D01*
X76680698Y-102337861D01*
X76855737Y-102483181D01*
X76860189Y-102485783D01*
X76860194Y-102485786D01*
X76954199Y-102540718D01*
X77052160Y-102597962D01*
X77264693Y-102679120D01*
X77269759Y-102680151D01*
X77269760Y-102680151D01*
X77368861Y-102700313D01*
X77487627Y-102724476D01*
X77615437Y-102729163D01*
X77709811Y-102732624D01*
X77709815Y-102732624D01*
X77714975Y-102732813D01*
X77720095Y-102732157D01*
X77720097Y-102732157D01*
X77935504Y-102704563D01*
X77935505Y-102704563D01*
X77940632Y-102703906D01*
X77945582Y-102702421D01*
X78153591Y-102640015D01*
X78153592Y-102640014D01*
X78158537Y-102638531D01*
X78362839Y-102538444D01*
X78367043Y-102535446D01*
X78367047Y-102535443D01*
X78543847Y-102409333D01*
X78543849Y-102409331D01*
X78548051Y-102406334D01*
X78709199Y-102245747D01*
X78763764Y-102169812D01*
X78838938Y-102065198D01*
X78838942Y-102065192D01*
X78841956Y-102060997D01*
X78942755Y-101857046D01*
X79008890Y-101639370D01*
X79022077Y-101539206D01*
X79038148Y-101417136D01*
X79038148Y-101417132D01*
X79038585Y-101413815D01*
X79039937Y-101358498D01*
X79040160Y-101349365D01*
X79040160Y-101349361D01*
X79040242Y-101346000D01*
X79021601Y-101119264D01*
X78966178Y-100898617D01*
X78912844Y-100775957D01*
X78877522Y-100694722D01*
X78877520Y-100694719D01*
X78875462Y-100689985D01*
X78825423Y-100612635D01*
X78805216Y-100544577D01*
X78825012Y-100476396D01*
X78878527Y-100429742D01*
X78921329Y-100418585D01*
X79012762Y-100411389D01*
X79156557Y-100400072D01*
X79161364Y-100398918D01*
X79161370Y-100398917D01*
X79319512Y-100360950D01*
X79395092Y-100342805D01*
X79399663Y-100340912D01*
X79399665Y-100340911D01*
X79486916Y-100304770D01*
X79621732Y-100248927D01*
X79783872Y-100149568D01*
X79826670Y-100123342D01*
X79826673Y-100123340D01*
X79830896Y-100120752D01*
X79875432Y-100082715D01*
X80013677Y-99964641D01*
X80017433Y-99961433D01*
X80121822Y-99839210D01*
X80173535Y-99778663D01*
X80173537Y-99778660D01*
X80176752Y-99774896D01*
X80304927Y-99565732D01*
X80398805Y-99339092D01*
X80456072Y-99100557D01*
X80475319Y-98856000D01*
X80456072Y-98611443D01*
X80452916Y-98598295D01*
X80418649Y-98455563D01*
X80398805Y-98372908D01*
X80390510Y-98352881D01*
X80306820Y-98150839D01*
X80304927Y-98146268D01*
X80176752Y-97937104D01*
X80017433Y-97750567D01*
X79830896Y-97591248D01*
X79826673Y-97588660D01*
X79826670Y-97588658D01*
X79750902Y-97542228D01*
X79621732Y-97463073D01*
X79460874Y-97396443D01*
X79399665Y-97371089D01*
X79399663Y-97371088D01*
X79395092Y-97369195D01*
X79312437Y-97349351D01*
X79161370Y-97313083D01*
X79161364Y-97313082D01*
X79156557Y-97311928D01*
X78912000Y-97292681D01*
X78667443Y-97311928D01*
X78662636Y-97313082D01*
X78662630Y-97313083D01*
X78511563Y-97349351D01*
X78428908Y-97369195D01*
X78424337Y-97371088D01*
X78424335Y-97371089D01*
X78363126Y-97396443D01*
X78202268Y-97463073D01*
X78073098Y-97542228D01*
X77997330Y-97588658D01*
X77997327Y-97588660D01*
X77993104Y-97591248D01*
X77806567Y-97750567D01*
X77647248Y-97937104D01*
X77519073Y-98146268D01*
X77517180Y-98150839D01*
X77433491Y-98352881D01*
X77425195Y-98372908D01*
X77405351Y-98455563D01*
X77371085Y-98598295D01*
X77367928Y-98611443D01*
X77348681Y-98856000D01*
X77367928Y-99100557D01*
X77425195Y-99339092D01*
X77519073Y-99565732D01*
X77644664Y-99770679D01*
X77663201Y-99839210D01*
X77641744Y-99906887D01*
X77587105Y-99952220D01*
X77554990Y-99960026D01*
X77555161Y-99961140D01*
X77330278Y-99995552D01*
X77114035Y-100066231D01*
X77109447Y-100068619D01*
X77109443Y-100068621D01*
X76934536Y-100159672D01*
X76912239Y-100171279D01*
X76908106Y-100174382D01*
X76908103Y-100174384D01*
X76808821Y-100248927D01*
X76730310Y-100307875D01*
X76573133Y-100472351D01*
X76444931Y-100660289D01*
X76442758Y-100664971D01*
X76442756Y-100664974D01*
X76428838Y-100694959D01*
X76349145Y-100866643D01*
X76324554Y-100955316D01*
X76293517Y-101067232D01*
X76288348Y-101085869D01*
X76287799Y-101091006D01*
X76265932Y-101295615D01*
X76264172Y-101312082D01*
X74536951Y-101312082D01*
X74521530Y-101124507D01*
X74519845Y-101114327D01*
X74466962Y-100903791D01*
X74463642Y-100894040D01*
X74377080Y-100694959D01*
X74372213Y-100685884D01*
X74303144Y-100579118D01*
X74292458Y-100569915D01*
X74282891Y-100574319D01*
X73524022Y-101333188D01*
X73516408Y-101347132D01*
X72791658Y-101347132D01*
X73923190Y-100215600D01*
X73930211Y-100202744D01*
X73922718Y-100192461D01*
X73915435Y-100187622D01*
X73725398Y-100082715D01*
X73715989Y-100078487D01*
X73511364Y-100006026D01*
X73501401Y-100003394D01*
X73287687Y-99965326D01*
X73277432Y-99964356D01*
X73274114Y-99964315D01*
X73272829Y-99963920D01*
X73272275Y-99963868D01*
X73272286Y-99963754D01*
X73206243Y-99943478D01*
X73160412Y-99889257D01*
X73151171Y-99818864D01*
X73168224Y-99772493D01*
X73294927Y-99565732D01*
X73388805Y-99339092D01*
X73446072Y-99100557D01*
X73465319Y-98856000D01*
X73446072Y-98611443D01*
X73442916Y-98598295D01*
X73408649Y-98455563D01*
X73388805Y-98372908D01*
X73380510Y-98352881D01*
X73296820Y-98150839D01*
X73294927Y-98146268D01*
X73166752Y-97937104D01*
X73007433Y-97750567D01*
X72820896Y-97591248D01*
X72816673Y-97588660D01*
X72816670Y-97588658D01*
X72740902Y-97542228D01*
X72611732Y-97463073D01*
X72450874Y-97396443D01*
X72389665Y-97371089D01*
X72389663Y-97371088D01*
X72385092Y-97369195D01*
X72302437Y-97349351D01*
X72151370Y-97313083D01*
X72151364Y-97313082D01*
X72146557Y-97311928D01*
X71902000Y-97292681D01*
X71657443Y-97311928D01*
X71652636Y-97313082D01*
X71652630Y-97313083D01*
X71501563Y-97349351D01*
X71418908Y-97369195D01*
X71414337Y-97371088D01*
X71414335Y-97371089D01*
X71353126Y-97396443D01*
X71192268Y-97463073D01*
X71063098Y-97542228D01*
X70987330Y-97588658D01*
X70987327Y-97588660D01*
X70983104Y-97591248D01*
X70796567Y-97750567D01*
X70637248Y-97937104D01*
X70634660Y-97941327D01*
X70634658Y-97941330D01*
X70561433Y-98060824D01*
X70508786Y-98108456D01*
X70438744Y-98120063D01*
X70373546Y-98091960D01*
X70346567Y-98060824D01*
X70273342Y-97941330D01*
X70273340Y-97941327D01*
X70270752Y-97937104D01*
X70111433Y-97750567D01*
X69924896Y-97591248D01*
X69920673Y-97588660D01*
X69920670Y-97588658D01*
X69844902Y-97542228D01*
X69715732Y-97463073D01*
X69554874Y-97396443D01*
X69493665Y-97371089D01*
X69493663Y-97371088D01*
X69489092Y-97369195D01*
X69406437Y-97349351D01*
X69255370Y-97313083D01*
X69255364Y-97313082D01*
X69250557Y-97311928D01*
X69006000Y-97292681D01*
X68761443Y-97311928D01*
X68756636Y-97313082D01*
X68756630Y-97313083D01*
X68605563Y-97349351D01*
X68522908Y-97369195D01*
X68518337Y-97371088D01*
X68518335Y-97371089D01*
X68457126Y-97396443D01*
X68296268Y-97463073D01*
X68167098Y-97542228D01*
X68091330Y-97588658D01*
X68091327Y-97588660D01*
X68087104Y-97591248D01*
X67900567Y-97750567D01*
X67741248Y-97937104D01*
X67613073Y-98146268D01*
X67611180Y-98150839D01*
X67527491Y-98352881D01*
X67519195Y-98372908D01*
X67499351Y-98455563D01*
X67465085Y-98598295D01*
X67461928Y-98611443D01*
X67442681Y-98856000D01*
X67461928Y-99100557D01*
X67519195Y-99339092D01*
X67613073Y-99565732D01*
X67738664Y-99770679D01*
X67757201Y-99839210D01*
X67735744Y-99906887D01*
X67681105Y-99952220D01*
X67648990Y-99960026D01*
X67649161Y-99961140D01*
X67424278Y-99995552D01*
X67208035Y-100066231D01*
X67203447Y-100068619D01*
X67203443Y-100068621D01*
X67028536Y-100159672D01*
X67006239Y-100171279D01*
X67002106Y-100174382D01*
X67002103Y-100174384D01*
X66902821Y-100248927D01*
X66824310Y-100307875D01*
X66667133Y-100472351D01*
X66538931Y-100660289D01*
X66536758Y-100664971D01*
X66536756Y-100664974D01*
X66522838Y-100694959D01*
X66443145Y-100866643D01*
X66418554Y-100955316D01*
X66387517Y-101067232D01*
X66382348Y-101085869D01*
X66381799Y-101091006D01*
X66359932Y-101295615D01*
X66358172Y-101312082D01*
X64630951Y-101312082D01*
X64615530Y-101124507D01*
X64613845Y-101114327D01*
X64560962Y-100903791D01*
X64557642Y-100894040D01*
X64471080Y-100694959D01*
X64466213Y-100685884D01*
X64397144Y-100579118D01*
X64386458Y-100569915D01*
X64376891Y-100574319D01*
X63618022Y-101333188D01*
X63610408Y-101347132D01*
X62885658Y-101347132D01*
X64017190Y-100215600D01*
X64024211Y-100202744D01*
X64016718Y-100192461D01*
X64009435Y-100187622D01*
X63819398Y-100082715D01*
X63809989Y-100078487D01*
X63605364Y-100006026D01*
X63595401Y-100003394D01*
X63381687Y-99965326D01*
X63371432Y-99964356D01*
X63368114Y-99964315D01*
X63366829Y-99963920D01*
X63366275Y-99963868D01*
X63366286Y-99963754D01*
X63300243Y-99943478D01*
X63254412Y-99889257D01*
X63245171Y-99818864D01*
X63262224Y-99772493D01*
X63388927Y-99565732D01*
X63482805Y-99339092D01*
X63540072Y-99100557D01*
X63559319Y-98856000D01*
X63540072Y-98611443D01*
X63536916Y-98598295D01*
X63502649Y-98455563D01*
X63482805Y-98372908D01*
X63474510Y-98352881D01*
X63390820Y-98150839D01*
X63388927Y-98146268D01*
X63260752Y-97937104D01*
X63101433Y-97750567D01*
X62914896Y-97591248D01*
X62910673Y-97588660D01*
X62910670Y-97588658D01*
X62834902Y-97542228D01*
X62705732Y-97463073D01*
X62544874Y-97396443D01*
X62483665Y-97371089D01*
X62483663Y-97371088D01*
X62479092Y-97369195D01*
X62396437Y-97349351D01*
X62245370Y-97313083D01*
X62245364Y-97313082D01*
X62240557Y-97311928D01*
X61996000Y-97292681D01*
X61751443Y-97311928D01*
X61746636Y-97313082D01*
X61746630Y-97313083D01*
X61595563Y-97349351D01*
X61512908Y-97369195D01*
X61508337Y-97371088D01*
X61508335Y-97371089D01*
X61447126Y-97396443D01*
X61286268Y-97463073D01*
X61282048Y-97465659D01*
X61152334Y-97545147D01*
X61083801Y-97563685D01*
X61016124Y-97542228D01*
X60970791Y-97487589D01*
X60960500Y-97437714D01*
X60960500Y-96536457D01*
X60980502Y-96468336D01*
X61034158Y-96421843D01*
X61104432Y-96411739D01*
X61139749Y-96422262D01*
X61272757Y-96484284D01*
X61278065Y-96485706D01*
X61278067Y-96485707D01*
X61488598Y-96542119D01*
X61488600Y-96542119D01*
X61493913Y-96543543D01*
X61722000Y-96563498D01*
X61950087Y-96543543D01*
X61955400Y-96542119D01*
X61955402Y-96542119D01*
X62165933Y-96485707D01*
X62165935Y-96485706D01*
X62171243Y-96484284D01*
X62244513Y-96450118D01*
X62373762Y-96389849D01*
X62373767Y-96389846D01*
X62378749Y-96387523D01*
X62483611Y-96314098D01*
X62561789Y-96259357D01*
X62561792Y-96259355D01*
X62566300Y-96256198D01*
X62728198Y-96094300D01*
X62859523Y-95906749D01*
X62861846Y-95901767D01*
X62861849Y-95901762D01*
X62953961Y-95704225D01*
X62953961Y-95704224D01*
X62956284Y-95699243D01*
X62983912Y-95596137D01*
X63014119Y-95483402D01*
X63014119Y-95483400D01*
X63015543Y-95478087D01*
X63035498Y-95250000D01*
X63015543Y-95021913D01*
X63002638Y-94973751D01*
X62957707Y-94806067D01*
X62957706Y-94806065D01*
X62956284Y-94800757D01*
X62953961Y-94795775D01*
X62861849Y-94598238D01*
X62861846Y-94598233D01*
X62859523Y-94593251D01*
X62728198Y-94405700D01*
X62566300Y-94243802D01*
X62561792Y-94240645D01*
X62561789Y-94240643D01*
X62483611Y-94185902D01*
X62378749Y-94112477D01*
X62373767Y-94110154D01*
X62373762Y-94110151D01*
X62176225Y-94018039D01*
X62176224Y-94018039D01*
X62171243Y-94015716D01*
X62165935Y-94014294D01*
X62165933Y-94014293D01*
X61955402Y-93957881D01*
X61955400Y-93957881D01*
X61950087Y-93956457D01*
X61722000Y-93936502D01*
X61493913Y-93956457D01*
X61488600Y-93957881D01*
X61488598Y-93957881D01*
X61278067Y-94014293D01*
X61278065Y-94014294D01*
X61272757Y-94015716D01*
X61161785Y-94067463D01*
X61139750Y-94077738D01*
X61069558Y-94088399D01*
X61004745Y-94059419D01*
X60965889Y-93999999D01*
X60960500Y-93963543D01*
X60960500Y-82820457D01*
X60980502Y-82752336D01*
X61034158Y-82705843D01*
X61104432Y-82695739D01*
X61139749Y-82706262D01*
X61272757Y-82768284D01*
X61278065Y-82769706D01*
X61278067Y-82769707D01*
X61488598Y-82826119D01*
X61488600Y-82826119D01*
X61493913Y-82827543D01*
X61722000Y-82847498D01*
X61950087Y-82827543D01*
X61955400Y-82826119D01*
X61955402Y-82826119D01*
X62165933Y-82769707D01*
X62165935Y-82769706D01*
X62171243Y-82768284D01*
X62205444Y-82752336D01*
X62373762Y-82673849D01*
X62373767Y-82673846D01*
X62378749Y-82671523D01*
X62483611Y-82598098D01*
X62561789Y-82543357D01*
X62561792Y-82543355D01*
X62566300Y-82540198D01*
X62728198Y-82378300D01*
X62736803Y-82366012D01*
X62856369Y-82195253D01*
X62859523Y-82190749D01*
X62918416Y-82064451D01*
X62965333Y-82011165D01*
X63032611Y-81991700D01*
X63724970Y-81991700D01*
X63733540Y-81991992D01*
X63783946Y-81995429D01*
X63783950Y-81995429D01*
X63791521Y-81995945D01*
X63798997Y-81994640D01*
X63799000Y-81994640D01*
X63854783Y-81984904D01*
X63861308Y-81983941D01*
X63917467Y-81977145D01*
X63917468Y-81977145D01*
X63925011Y-81976232D01*
X63932119Y-81973546D01*
X63934419Y-81972981D01*
X63951480Y-81968314D01*
X63953734Y-81967634D01*
X63961215Y-81966328D01*
X64020005Y-81940521D01*
X64026102Y-81938033D01*
X64079047Y-81918027D01*
X64079050Y-81918026D01*
X64086149Y-81915343D01*
X64092404Y-81911044D01*
X64094495Y-81909951D01*
X64109957Y-81901345D01*
X64111991Y-81900142D01*
X64118946Y-81897089D01*
X64124971Y-81892466D01*
X64124976Y-81892463D01*
X64169874Y-81858012D01*
X64175209Y-81854136D01*
X64221847Y-81822082D01*
X64221853Y-81822077D01*
X64228112Y-81817775D01*
X64269754Y-81771037D01*
X64274735Y-81765760D01*
X64744722Y-81295774D01*
X64750988Y-81289921D01*
X64789054Y-81256714D01*
X64794781Y-81251718D01*
X64831686Y-81199207D01*
X64835619Y-81193911D01*
X64870544Y-81149369D01*
X64870546Y-81149365D01*
X64875233Y-81143388D01*
X64878358Y-81136466D01*
X64879587Y-81134437D01*
X64888340Y-81119090D01*
X64889459Y-81117002D01*
X64893830Y-81110784D01*
X64899977Y-81095019D01*
X64917143Y-81050988D01*
X64919700Y-81044905D01*
X64942992Y-80993319D01*
X64942992Y-80993318D01*
X64946120Y-80986391D01*
X64947504Y-80978921D01*
X64948211Y-80976666D01*
X64953049Y-80959682D01*
X64953642Y-80957373D01*
X64956403Y-80950292D01*
X64958334Y-80935624D01*
X64964783Y-80886644D01*
X64965815Y-80880130D01*
X64976128Y-80824485D01*
X64976128Y-80824484D01*
X64977512Y-80817017D01*
X64975836Y-80787941D01*
X64973909Y-80754531D01*
X64973700Y-80747278D01*
X64973700Y-76372530D01*
X64973992Y-76363960D01*
X64977429Y-76313554D01*
X64977429Y-76313550D01*
X64977945Y-76305979D01*
X64975434Y-76291590D01*
X64966904Y-76242717D01*
X64965941Y-76236192D01*
X64959145Y-76180033D01*
X64959145Y-76180032D01*
X64958232Y-76172489D01*
X64955546Y-76165381D01*
X64954981Y-76163081D01*
X64950314Y-76146020D01*
X64949634Y-76143766D01*
X64948328Y-76136285D01*
X64922521Y-76077495D01*
X64920033Y-76071398D01*
X64900027Y-76018453D01*
X64900026Y-76018450D01*
X64897343Y-76011351D01*
X64893044Y-76005096D01*
X64891951Y-76003005D01*
X64883345Y-75987543D01*
X64882142Y-75985509D01*
X64879089Y-75978554D01*
X64874466Y-75972529D01*
X64874463Y-75972524D01*
X64840012Y-75927626D01*
X64836136Y-75922291D01*
X64804082Y-75875653D01*
X64804077Y-75875647D01*
X64799775Y-75869388D01*
X64753037Y-75827745D01*
X64747763Y-75822766D01*
X64701194Y-75776198D01*
X64667168Y-75713887D01*
X64665366Y-75670655D01*
X64668418Y-75647477D01*
X64693585Y-75456315D01*
X64695242Y-75388500D01*
X64692878Y-75359750D01*
X66419971Y-75359750D01*
X66432467Y-75576467D01*
X66433903Y-75586688D01*
X66481627Y-75798448D01*
X66484706Y-75808277D01*
X66566379Y-76009414D01*
X66571022Y-76018605D01*
X66655279Y-76156101D01*
X66665735Y-76165561D01*
X66674513Y-76161777D01*
X67434978Y-75401312D01*
X67442592Y-75387368D01*
X67442461Y-75385535D01*
X67438210Y-75378920D01*
X66678858Y-74619568D01*
X66667322Y-74613268D01*
X66655039Y-74622891D01*
X66603279Y-74698768D01*
X66598191Y-74707724D01*
X66506795Y-74904621D01*
X66503232Y-74914308D01*
X66445223Y-75123479D01*
X66443292Y-75133600D01*
X66420222Y-75349462D01*
X66419971Y-75359750D01*
X64692878Y-75359750D01*
X64676601Y-75161764D01*
X64621178Y-74941117D01*
X64530462Y-74732485D01*
X64450859Y-74609436D01*
X64409698Y-74545811D01*
X64409696Y-74545808D01*
X64406890Y-74541471D01*
X64253779Y-74373204D01*
X64249716Y-74369995D01*
X64249574Y-74369882D01*
X64249532Y-74369822D01*
X64245942Y-74366475D01*
X64246633Y-74365734D01*
X64208517Y-74311960D01*
X64205294Y-74241037D01*
X64238582Y-74181914D01*
X64519891Y-73900605D01*
X64582203Y-73866579D01*
X64608986Y-73863700D01*
X67229439Y-73863700D01*
X67297560Y-73883702D01*
X67344053Y-73937358D01*
X67354157Y-74007632D01*
X67324663Y-74072212D01*
X67278269Y-74105854D01*
X67264634Y-74111586D01*
X67072095Y-74211815D01*
X67063370Y-74217309D01*
X67038819Y-74235743D01*
X67030365Y-74247069D01*
X67037111Y-74259401D01*
X67794188Y-75016478D01*
X67808132Y-75024092D01*
X67809965Y-75023961D01*
X67816580Y-75019710D01*
X68578190Y-74258100D01*
X68585211Y-74245244D01*
X68577718Y-74234961D01*
X68570435Y-74230122D01*
X68380398Y-74125215D01*
X68370989Y-74120987D01*
X68335651Y-74108473D01*
X68278114Y-74066879D01*
X68252198Y-74000782D01*
X68266132Y-73931166D01*
X68315490Y-73880134D01*
X68377710Y-73863700D01*
X72634144Y-73863700D01*
X72702265Y-73883702D01*
X72748758Y-73937358D01*
X72758862Y-74007632D01*
X72729368Y-74072212D01*
X72682973Y-74105854D01*
X72679952Y-74107124D01*
X72675035Y-74108731D01*
X72670447Y-74111119D01*
X72670443Y-74111121D01*
X72496081Y-74201888D01*
X72473239Y-74213779D01*
X72469106Y-74216882D01*
X72469103Y-74216884D01*
X72311091Y-74335523D01*
X72291310Y-74350375D01*
X72134133Y-74514851D01*
X72005931Y-74702789D01*
X72003758Y-74707471D01*
X72003756Y-74707474D01*
X71989838Y-74737459D01*
X71910145Y-74909143D01*
X71849348Y-75128369D01*
X71825172Y-75354582D01*
X71825469Y-75359734D01*
X71825469Y-75359738D01*
X71827866Y-75401312D01*
X71838268Y-75581706D01*
X71839405Y-75586752D01*
X71839406Y-75586758D01*
X71857742Y-75668119D01*
X71888283Y-75803641D01*
X71973875Y-76014427D01*
X72031032Y-76107698D01*
X72041304Y-76124461D01*
X72059842Y-76192995D01*
X72038386Y-76260671D01*
X71983747Y-76306004D01*
X71943757Y-76315908D01*
X71809438Y-76326480D01*
X71708443Y-76334428D01*
X71703636Y-76335582D01*
X71703630Y-76335583D01*
X71585433Y-76363960D01*
X71469908Y-76391695D01*
X71465337Y-76393588D01*
X71465335Y-76393589D01*
X71387967Y-76425636D01*
X71243268Y-76485573D01*
X71152261Y-76541342D01*
X71038330Y-76611158D01*
X71038327Y-76611160D01*
X71034104Y-76613748D01*
X71030340Y-76616963D01*
X71030337Y-76616965D01*
X70871984Y-76752213D01*
X70847567Y-76773067D01*
X70844359Y-76776823D01*
X70743098Y-76895384D01*
X70688248Y-76959604D01*
X70685660Y-76963827D01*
X70685658Y-76963830D01*
X70612433Y-77083324D01*
X70559786Y-77130956D01*
X70489744Y-77142563D01*
X70424546Y-77114460D01*
X70397567Y-77083324D01*
X70324342Y-76963830D01*
X70324340Y-76963827D01*
X70321752Y-76959604D01*
X70266903Y-76895384D01*
X70165641Y-76776823D01*
X70162433Y-76773067D01*
X70138016Y-76752213D01*
X69979663Y-76616965D01*
X69979660Y-76616963D01*
X69975896Y-76613748D01*
X69971673Y-76611160D01*
X69971670Y-76611158D01*
X69857739Y-76541342D01*
X69766732Y-76485573D01*
X69622033Y-76425636D01*
X69544665Y-76393589D01*
X69544663Y-76393588D01*
X69540092Y-76391695D01*
X69424567Y-76363960D01*
X69306370Y-76335583D01*
X69306364Y-76335582D01*
X69301557Y-76334428D01*
X69208994Y-76327143D01*
X69078543Y-76316876D01*
X69012202Y-76291590D01*
X68970062Y-76234452D01*
X68965503Y-76163602D01*
X68986108Y-76117736D01*
X68993505Y-76107442D01*
X68998818Y-76098600D01*
X69094994Y-75904003D01*
X69098792Y-75894410D01*
X69161897Y-75686708D01*
X69164074Y-75676638D01*
X69192646Y-75459613D01*
X69193165Y-75452938D01*
X69194658Y-75391864D01*
X69194464Y-75385146D01*
X69176530Y-75167007D01*
X69174845Y-75156827D01*
X69121962Y-74946291D01*
X69118642Y-74936540D01*
X69032080Y-74737459D01*
X69027213Y-74728384D01*
X68958144Y-74621618D01*
X68947458Y-74612415D01*
X68937891Y-74616819D01*
X67035460Y-76519250D01*
X67028700Y-76531630D01*
X67033981Y-76538684D01*
X67202919Y-76637404D01*
X67212202Y-76641851D01*
X67415002Y-76719293D01*
X67424900Y-76722169D01*
X67637625Y-76765448D01*
X67647853Y-76766667D01*
X67689231Y-76768185D01*
X67756573Y-76790670D01*
X67801068Y-76845994D01*
X67808590Y-76916591D01*
X67792047Y-76959931D01*
X67664073Y-77168768D01*
X67570195Y-77395408D01*
X67565951Y-77413087D01*
X67514131Y-77628933D01*
X67512928Y-77633943D01*
X67493681Y-77878500D01*
X67512928Y-78123057D01*
X67514082Y-78127864D01*
X67514083Y-78127870D01*
X67542546Y-78246424D01*
X67570195Y-78361592D01*
X67664073Y-78588232D01*
X67697353Y-78642540D01*
X67750832Y-78729810D01*
X67792248Y-78797396D01*
X67795463Y-78801160D01*
X67795465Y-78801163D01*
X67841347Y-78854883D01*
X67951567Y-78983933D01*
X67955323Y-78987141D01*
X68133023Y-79138912D01*
X68138104Y-79143252D01*
X68142327Y-79145840D01*
X68142330Y-79145842D01*
X68198068Y-79179998D01*
X68347268Y-79271427D01*
X68399391Y-79293017D01*
X68569335Y-79363411D01*
X68569337Y-79363412D01*
X68573908Y-79365305D01*
X68656563Y-79385149D01*
X68807630Y-79421417D01*
X68807636Y-79421418D01*
X68812443Y-79422572D01*
X69057000Y-79441819D01*
X69301557Y-79422572D01*
X69306364Y-79421418D01*
X69306370Y-79421417D01*
X69457437Y-79385149D01*
X69540092Y-79365305D01*
X69544663Y-79363412D01*
X69544665Y-79363411D01*
X69714609Y-79293017D01*
X69766732Y-79271427D01*
X69915932Y-79179998D01*
X69971670Y-79145842D01*
X69971673Y-79145840D01*
X69975896Y-79143252D01*
X69980978Y-79138912D01*
X70158677Y-78987141D01*
X70162433Y-78983933D01*
X70272653Y-78854883D01*
X70318535Y-78801163D01*
X70318537Y-78801160D01*
X70321752Y-78797396D01*
X70363169Y-78729810D01*
X70397567Y-78673676D01*
X70450214Y-78626044D01*
X70520256Y-78614437D01*
X70585454Y-78642540D01*
X70612433Y-78673676D01*
X70646832Y-78729810D01*
X70688248Y-78797396D01*
X70691463Y-78801160D01*
X70691465Y-78801163D01*
X70737347Y-78854883D01*
X70847567Y-78983933D01*
X70851323Y-78987141D01*
X71029023Y-79138912D01*
X71034104Y-79143252D01*
X71038327Y-79145840D01*
X71038330Y-79145842D01*
X71094068Y-79179998D01*
X71243268Y-79271427D01*
X71295391Y-79293017D01*
X71465335Y-79363411D01*
X71465337Y-79363412D01*
X71469908Y-79365305D01*
X71552563Y-79385149D01*
X71703630Y-79421417D01*
X71703636Y-79421418D01*
X71708443Y-79422572D01*
X71953000Y-79441819D01*
X72197557Y-79422572D01*
X72202364Y-79421418D01*
X72202370Y-79421417D01*
X72353437Y-79385149D01*
X72436092Y-79365305D01*
X72440663Y-79363412D01*
X72440665Y-79363411D01*
X72610609Y-79293017D01*
X72662732Y-79271427D01*
X72811932Y-79179998D01*
X72867670Y-79145842D01*
X72867673Y-79145840D01*
X72871896Y-79143252D01*
X72876978Y-79138912D01*
X73054677Y-78987141D01*
X73058433Y-78983933D01*
X73168653Y-78854883D01*
X73214535Y-78801163D01*
X73214537Y-78801160D01*
X73217752Y-78797396D01*
X73259169Y-78729810D01*
X73312647Y-78642540D01*
X73345927Y-78588232D01*
X73439805Y-78361592D01*
X73467454Y-78246424D01*
X73495917Y-78127870D01*
X73495918Y-78127864D01*
X73497072Y-78123057D01*
X73516319Y-77878500D01*
X73497072Y-77633943D01*
X73495870Y-77628933D01*
X73444049Y-77413087D01*
X73439805Y-77395408D01*
X73345927Y-77168768D01*
X73219040Y-76961706D01*
X73200503Y-76893175D01*
X73221960Y-76825498D01*
X73276599Y-76780165D01*
X73310464Y-76770895D01*
X73496504Y-76747063D01*
X73496505Y-76747063D01*
X73501632Y-76746406D01*
X73554273Y-76730613D01*
X73714591Y-76682515D01*
X73714592Y-76682514D01*
X73719537Y-76681031D01*
X73923839Y-76580944D01*
X73928043Y-76577946D01*
X73928047Y-76577943D01*
X74104847Y-76451833D01*
X74104849Y-76451831D01*
X74109051Y-76448834D01*
X74270199Y-76288247D01*
X74276733Y-76279154D01*
X74399938Y-76107698D01*
X74399942Y-76107692D01*
X74402956Y-76103497D01*
X74481186Y-75945211D01*
X74501461Y-75904188D01*
X74501462Y-75904186D01*
X74503755Y-75899546D01*
X74557219Y-75723576D01*
X74568388Y-75686814D01*
X74568388Y-75686813D01*
X74569890Y-75681870D01*
X74570579Y-75676638D01*
X74599148Y-75459636D01*
X74599148Y-75459632D01*
X74599585Y-75456315D01*
X74601242Y-75388500D01*
X74598878Y-75359750D01*
X76325971Y-75359750D01*
X76338467Y-75576467D01*
X76339903Y-75586688D01*
X76387627Y-75798448D01*
X76390706Y-75808277D01*
X76472379Y-76009414D01*
X76477022Y-76018605D01*
X76561279Y-76156101D01*
X76571735Y-76165561D01*
X76580513Y-76161777D01*
X77340978Y-75401312D01*
X77348592Y-75387368D01*
X77348461Y-75385535D01*
X77344210Y-75378920D01*
X76584858Y-74619568D01*
X76573322Y-74613268D01*
X76561039Y-74622891D01*
X76509279Y-74698768D01*
X76504191Y-74707724D01*
X76412795Y-74904621D01*
X76409232Y-74914308D01*
X76351223Y-75123479D01*
X76349292Y-75133600D01*
X76326222Y-75349462D01*
X76325971Y-75359750D01*
X74598878Y-75359750D01*
X74582601Y-75161764D01*
X74527178Y-74941117D01*
X74436462Y-74732485D01*
X74356859Y-74609436D01*
X74315698Y-74545811D01*
X74315696Y-74545808D01*
X74312890Y-74541471D01*
X74159779Y-74373204D01*
X73981241Y-74232204D01*
X73943537Y-74211390D01*
X73907940Y-74191740D01*
X73782072Y-74122257D01*
X73777203Y-74120533D01*
X73777199Y-74120531D01*
X73743148Y-74108473D01*
X73685611Y-74066878D01*
X73659696Y-74000780D01*
X73673630Y-73931165D01*
X73722989Y-73880133D01*
X73785208Y-73863700D01*
X77135439Y-73863700D01*
X77203560Y-73883702D01*
X77250053Y-73937358D01*
X77260157Y-74007632D01*
X77230663Y-74072212D01*
X77184269Y-74105854D01*
X77170634Y-74111586D01*
X76978095Y-74211815D01*
X76969370Y-74217309D01*
X76944819Y-74235743D01*
X76936365Y-74247069D01*
X76943111Y-74259401D01*
X77700188Y-75016478D01*
X77714132Y-75024092D01*
X77715965Y-75023961D01*
X77722580Y-75019710D01*
X78484190Y-74258100D01*
X78491211Y-74245244D01*
X78483718Y-74234961D01*
X78476435Y-74230122D01*
X78286398Y-74125215D01*
X78276989Y-74120987D01*
X78241651Y-74108473D01*
X78184114Y-74066879D01*
X78158198Y-74000782D01*
X78172132Y-73931166D01*
X78221490Y-73880134D01*
X78283710Y-73863700D01*
X93379015Y-73863700D01*
X93447136Y-73883702D01*
X93468110Y-73900605D01*
X94501395Y-74933891D01*
X94535421Y-74996203D01*
X94538300Y-75022986D01*
X94538300Y-75620363D01*
X94518298Y-75688484D01*
X94484572Y-75723575D01*
X94405700Y-75778802D01*
X94243802Y-75940700D01*
X94240645Y-75945208D01*
X94240643Y-75945211D01*
X94200175Y-76003005D01*
X94112477Y-76128251D01*
X94110154Y-76133233D01*
X94110151Y-76133238D01*
X94094195Y-76167457D01*
X94047278Y-76220742D01*
X93979001Y-76240203D01*
X93911041Y-76219661D01*
X93865805Y-76167457D01*
X93849849Y-76133238D01*
X93849846Y-76133233D01*
X93847523Y-76128251D01*
X93759825Y-76003005D01*
X93719357Y-75945211D01*
X93719355Y-75945208D01*
X93716198Y-75940700D01*
X93554300Y-75778802D01*
X93549792Y-75775645D01*
X93549789Y-75775643D01*
X93422928Y-75686814D01*
X93366749Y-75647477D01*
X93361767Y-75645154D01*
X93361762Y-75645151D01*
X93164225Y-75553039D01*
X93164224Y-75553039D01*
X93159243Y-75550716D01*
X93153935Y-75549294D01*
X93153933Y-75549293D01*
X92943402Y-75492881D01*
X92943400Y-75492881D01*
X92938087Y-75491457D01*
X92710000Y-75471502D01*
X92481913Y-75491457D01*
X92476600Y-75492881D01*
X92476598Y-75492881D01*
X92266067Y-75549293D01*
X92266065Y-75549294D01*
X92260757Y-75550716D01*
X92255776Y-75553039D01*
X92255775Y-75553039D01*
X92058238Y-75645151D01*
X92058233Y-75645154D01*
X92053251Y-75647477D01*
X91997072Y-75686814D01*
X91870211Y-75775643D01*
X91870208Y-75775645D01*
X91865700Y-75778802D01*
X91703802Y-75940700D01*
X91700645Y-75945208D01*
X91700643Y-75945211D01*
X91660175Y-76003005D01*
X91572477Y-76128251D01*
X91570154Y-76133233D01*
X91570151Y-76133238D01*
X91554195Y-76167457D01*
X91507278Y-76220742D01*
X91439001Y-76240203D01*
X91371041Y-76219661D01*
X91325805Y-76167457D01*
X91309849Y-76133238D01*
X91309846Y-76133233D01*
X91307523Y-76128251D01*
X91219825Y-76003005D01*
X91179357Y-75945211D01*
X91179355Y-75945208D01*
X91176198Y-75940700D01*
X91014300Y-75778802D01*
X91009792Y-75775645D01*
X91009789Y-75775643D01*
X90882928Y-75686814D01*
X90826749Y-75647477D01*
X90821767Y-75645154D01*
X90821762Y-75645151D01*
X90624225Y-75553039D01*
X90624224Y-75553039D01*
X90619243Y-75550716D01*
X90613935Y-75549294D01*
X90613933Y-75549293D01*
X90403402Y-75492881D01*
X90403400Y-75492881D01*
X90398087Y-75491457D01*
X90170000Y-75471502D01*
X89941913Y-75491457D01*
X89936600Y-75492881D01*
X89936598Y-75492881D01*
X89726067Y-75549293D01*
X89726065Y-75549294D01*
X89720757Y-75550716D01*
X89715776Y-75553039D01*
X89715775Y-75553039D01*
X89518238Y-75645151D01*
X89518233Y-75645154D01*
X89513251Y-75647477D01*
X89457072Y-75686814D01*
X89330211Y-75775643D01*
X89330208Y-75775645D01*
X89325700Y-75778802D01*
X89163802Y-75940700D01*
X89160645Y-75945208D01*
X89160643Y-75945211D01*
X89120175Y-76003005D01*
X89032477Y-76128251D01*
X89030154Y-76133233D01*
X89030151Y-76133238D01*
X89014195Y-76167457D01*
X88967278Y-76220742D01*
X88899001Y-76240203D01*
X88831041Y-76219661D01*
X88785805Y-76167457D01*
X88769849Y-76133238D01*
X88769846Y-76133233D01*
X88767523Y-76128251D01*
X88679825Y-76003005D01*
X88639357Y-75945211D01*
X88639355Y-75945208D01*
X88636198Y-75940700D01*
X88474300Y-75778802D01*
X88469792Y-75775645D01*
X88469789Y-75775643D01*
X88342928Y-75686814D01*
X88286749Y-75647477D01*
X88281767Y-75645154D01*
X88281762Y-75645151D01*
X88084225Y-75553039D01*
X88084224Y-75553039D01*
X88079243Y-75550716D01*
X88073935Y-75549294D01*
X88073933Y-75549293D01*
X87863402Y-75492881D01*
X87863400Y-75492881D01*
X87858087Y-75491457D01*
X87630000Y-75471502D01*
X87401913Y-75491457D01*
X87396600Y-75492881D01*
X87396598Y-75492881D01*
X87186067Y-75549293D01*
X87186065Y-75549294D01*
X87180757Y-75550716D01*
X87175776Y-75553039D01*
X87175775Y-75553039D01*
X86978238Y-75645151D01*
X86978233Y-75645154D01*
X86973251Y-75647477D01*
X86917072Y-75686814D01*
X86790211Y-75775643D01*
X86790208Y-75775645D01*
X86785700Y-75778802D01*
X86623802Y-75940700D01*
X86620645Y-75945208D01*
X86620643Y-75945211D01*
X86580175Y-76003005D01*
X86492477Y-76128251D01*
X86490154Y-76133233D01*
X86490151Y-76133238D01*
X86474195Y-76167457D01*
X86427278Y-76220742D01*
X86359001Y-76240203D01*
X86291041Y-76219661D01*
X86245805Y-76167457D01*
X86229849Y-76133238D01*
X86229846Y-76133233D01*
X86227523Y-76128251D01*
X86139825Y-76003005D01*
X86099357Y-75945211D01*
X86099355Y-75945208D01*
X86096198Y-75940700D01*
X85934300Y-75778802D01*
X85929792Y-75775645D01*
X85929789Y-75775643D01*
X85802928Y-75686814D01*
X85746749Y-75647477D01*
X85741767Y-75645154D01*
X85741762Y-75645151D01*
X85544225Y-75553039D01*
X85544224Y-75553039D01*
X85539243Y-75550716D01*
X85533935Y-75549294D01*
X85533933Y-75549293D01*
X85323402Y-75492881D01*
X85323400Y-75492881D01*
X85318087Y-75491457D01*
X85090000Y-75471502D01*
X84861913Y-75491457D01*
X84856600Y-75492881D01*
X84856598Y-75492881D01*
X84646067Y-75549293D01*
X84646065Y-75549294D01*
X84640757Y-75550716D01*
X84635776Y-75553039D01*
X84635775Y-75553039D01*
X84438238Y-75645151D01*
X84438233Y-75645154D01*
X84433251Y-75647477D01*
X84377072Y-75686814D01*
X84250211Y-75775643D01*
X84250208Y-75775645D01*
X84245700Y-75778802D01*
X84083802Y-75940700D01*
X84080645Y-75945208D01*
X84080643Y-75945211D01*
X84040175Y-76003005D01*
X83952477Y-76128251D01*
X83950154Y-76133233D01*
X83950151Y-76133238D01*
X83869590Y-76306004D01*
X83855716Y-76335757D01*
X83854294Y-76341065D01*
X83854293Y-76341067D01*
X83801341Y-76538684D01*
X83796457Y-76556913D01*
X83795978Y-76562393D01*
X83782251Y-76719293D01*
X83781500Y-76727873D01*
X83781500Y-77234814D01*
X83761498Y-77302935D01*
X83744595Y-77323909D01*
X82061109Y-79007395D01*
X81998797Y-79041421D01*
X81972014Y-79044300D01*
X80290191Y-79044300D01*
X80222070Y-79024298D01*
X80175577Y-78970642D01*
X80165473Y-78900368D01*
X80194380Y-78836469D01*
X80224535Y-78801163D01*
X80224537Y-78801160D01*
X80227752Y-78797396D01*
X80269169Y-78729810D01*
X80322647Y-78642540D01*
X80355927Y-78588232D01*
X80449805Y-78361592D01*
X80477454Y-78246424D01*
X80505917Y-78127870D01*
X80505918Y-78127864D01*
X80507072Y-78123057D01*
X80526319Y-77878500D01*
X80507072Y-77633943D01*
X80505870Y-77628933D01*
X80454049Y-77413087D01*
X80449805Y-77395408D01*
X80355927Y-77168768D01*
X80250877Y-76997341D01*
X80230342Y-76963830D01*
X80230340Y-76963827D01*
X80227752Y-76959604D01*
X80172903Y-76895384D01*
X80071641Y-76776823D01*
X80068433Y-76773067D01*
X80044016Y-76752213D01*
X79885663Y-76616965D01*
X79885660Y-76616963D01*
X79881896Y-76613748D01*
X79877673Y-76611160D01*
X79877670Y-76611158D01*
X79763739Y-76541342D01*
X79672732Y-76485573D01*
X79528033Y-76425636D01*
X79450665Y-76393589D01*
X79450663Y-76393588D01*
X79446092Y-76391695D01*
X79330567Y-76363960D01*
X79212370Y-76335583D01*
X79212364Y-76335582D01*
X79207557Y-76334428D01*
X79114994Y-76327143D01*
X78984543Y-76316876D01*
X78918202Y-76291590D01*
X78876062Y-76234452D01*
X78871503Y-76163602D01*
X78892108Y-76117736D01*
X78899505Y-76107442D01*
X78904818Y-76098600D01*
X79000994Y-75904003D01*
X79004792Y-75894410D01*
X79067897Y-75686708D01*
X79070074Y-75676638D01*
X79098646Y-75459613D01*
X79099165Y-75452938D01*
X79100658Y-75391864D01*
X79100464Y-75385146D01*
X79082530Y-75167007D01*
X79080845Y-75156827D01*
X79027962Y-74946291D01*
X79024642Y-74936540D01*
X78938080Y-74737459D01*
X78933213Y-74728384D01*
X78864144Y-74621618D01*
X78853458Y-74612415D01*
X78843891Y-74616819D01*
X76941460Y-76519250D01*
X76934700Y-76531630D01*
X76939981Y-76538684D01*
X77108919Y-76637404D01*
X77118202Y-76641851D01*
X77321002Y-76719293D01*
X77330900Y-76722169D01*
X77543625Y-76765448D01*
X77553853Y-76766667D01*
X77595231Y-76768185D01*
X77662573Y-76790670D01*
X77707068Y-76845994D01*
X77714590Y-76916591D01*
X77698047Y-76959931D01*
X77570073Y-77168768D01*
X77476195Y-77395408D01*
X77471951Y-77413087D01*
X77420131Y-77628933D01*
X77418928Y-77633943D01*
X77399681Y-77878500D01*
X77418928Y-78123057D01*
X77420082Y-78127864D01*
X77420083Y-78127870D01*
X77448546Y-78246424D01*
X77476195Y-78361592D01*
X77570073Y-78588232D01*
X77603353Y-78642540D01*
X77656832Y-78729810D01*
X77698248Y-78797396D01*
X77701463Y-78801160D01*
X77701465Y-78801163D01*
X77731620Y-78836469D01*
X77760651Y-78901258D01*
X77750046Y-78971458D01*
X77703172Y-79024781D01*
X77635809Y-79044300D01*
X76229030Y-79044300D01*
X76220460Y-79044008D01*
X76170054Y-79040571D01*
X76170050Y-79040571D01*
X76162479Y-79040055D01*
X76155003Y-79041360D01*
X76155000Y-79041360D01*
X76099217Y-79051096D01*
X76092692Y-79052059D01*
X76036533Y-79058855D01*
X76036532Y-79058855D01*
X76028989Y-79059768D01*
X76021881Y-79062454D01*
X76019581Y-79063019D01*
X76002519Y-79067686D01*
X76000264Y-79068367D01*
X75992785Y-79069672D01*
X75985833Y-79072724D01*
X75985832Y-79072724D01*
X75934008Y-79095473D01*
X75927902Y-79097965D01*
X75867851Y-79120657D01*
X75861596Y-79124956D01*
X75859507Y-79126048D01*
X75844050Y-79134652D01*
X75842011Y-79135858D01*
X75835054Y-79138912D01*
X75784107Y-79178005D01*
X75778799Y-79181861D01*
X75732149Y-79213921D01*
X75732144Y-79213926D01*
X75725888Y-79218225D01*
X75720836Y-79223895D01*
X75720835Y-79223896D01*
X75684245Y-79264964D01*
X75679264Y-79270240D01*
X73140840Y-81808664D01*
X73078528Y-81842690D01*
X73007713Y-81837625D01*
X72950877Y-81795078D01*
X72926066Y-81728558D01*
X72926224Y-81708588D01*
X72941019Y-81539476D01*
X72941019Y-81539475D01*
X72941498Y-81534000D01*
X72921543Y-81305913D01*
X72908141Y-81255896D01*
X72863707Y-81090067D01*
X72863706Y-81090065D01*
X72862284Y-81084757D01*
X72859961Y-81079775D01*
X72767849Y-80882238D01*
X72767846Y-80882233D01*
X72765523Y-80877251D01*
X72634198Y-80689700D01*
X72472300Y-80527802D01*
X72467792Y-80524645D01*
X72467789Y-80524643D01*
X72389611Y-80469902D01*
X72284749Y-80396477D01*
X72279767Y-80394154D01*
X72279762Y-80394151D01*
X72082225Y-80302039D01*
X72082224Y-80302039D01*
X72077243Y-80299716D01*
X72071935Y-80298294D01*
X72071933Y-80298293D01*
X71861402Y-80241881D01*
X71861400Y-80241881D01*
X71856087Y-80240457D01*
X71628000Y-80220502D01*
X71399913Y-80240457D01*
X71394600Y-80241881D01*
X71394598Y-80241881D01*
X71184067Y-80298293D01*
X71184065Y-80298294D01*
X71178757Y-80299716D01*
X71173776Y-80302039D01*
X71173775Y-80302039D01*
X70976238Y-80394151D01*
X70976233Y-80394154D01*
X70971251Y-80396477D01*
X70866389Y-80469902D01*
X70788211Y-80524643D01*
X70788208Y-80524645D01*
X70783700Y-80527802D01*
X70621802Y-80689700D01*
X70618645Y-80694208D01*
X70618643Y-80694211D01*
X70588213Y-80737670D01*
X70532756Y-80781998D01*
X70462137Y-80789307D01*
X70398776Y-80757276D01*
X70381787Y-80737670D01*
X70351357Y-80694211D01*
X70351355Y-80694208D01*
X70348198Y-80689700D01*
X70186300Y-80527802D01*
X70181792Y-80524645D01*
X70181789Y-80524643D01*
X70103611Y-80469902D01*
X69998749Y-80396477D01*
X69993767Y-80394154D01*
X69993762Y-80394151D01*
X69796225Y-80302039D01*
X69796224Y-80302039D01*
X69791243Y-80299716D01*
X69785935Y-80298294D01*
X69785933Y-80298293D01*
X69575402Y-80241881D01*
X69575400Y-80241881D01*
X69570087Y-80240457D01*
X69342000Y-80220502D01*
X69113913Y-80240457D01*
X69108600Y-80241881D01*
X69108598Y-80241881D01*
X68898067Y-80298293D01*
X68898065Y-80298294D01*
X68892757Y-80299716D01*
X68887776Y-80302039D01*
X68887775Y-80302039D01*
X68690238Y-80394151D01*
X68690233Y-80394154D01*
X68685251Y-80396477D01*
X68580389Y-80469902D01*
X68502211Y-80524643D01*
X68502208Y-80524645D01*
X68497700Y-80527802D01*
X68335802Y-80689700D01*
X68204477Y-80877251D01*
X68202154Y-80882233D01*
X68202151Y-80882238D01*
X68110039Y-81079775D01*
X68107716Y-81084757D01*
X68106294Y-81090065D01*
X68106293Y-81090067D01*
X68061859Y-81255896D01*
X68048457Y-81305913D01*
X68028502Y-81534000D01*
X68048457Y-81762087D01*
X68049881Y-81767400D01*
X68049881Y-81767402D01*
X68103184Y-81966328D01*
X68107716Y-81983243D01*
X68110039Y-81988224D01*
X68110039Y-81988225D01*
X68202151Y-82185762D01*
X68202153Y-82185765D01*
X68204477Y-82190749D01*
X68207634Y-82195257D01*
X68295051Y-82320101D01*
X68335802Y-82378300D01*
X68497700Y-82540198D01*
X68502208Y-82543355D01*
X68502211Y-82543357D01*
X68580389Y-82598098D01*
X68685251Y-82671523D01*
X68690233Y-82673846D01*
X68690238Y-82673849D01*
X68858556Y-82752336D01*
X68892757Y-82768284D01*
X68898065Y-82769706D01*
X68898067Y-82769707D01*
X69108598Y-82826119D01*
X69108600Y-82826119D01*
X69113913Y-82827543D01*
X69342000Y-82847498D01*
X69570087Y-82827543D01*
X69575400Y-82826119D01*
X69575402Y-82826119D01*
X69785933Y-82769707D01*
X69785935Y-82769706D01*
X69791243Y-82768284D01*
X69825444Y-82752336D01*
X69993762Y-82673849D01*
X69993767Y-82673846D01*
X69998749Y-82671523D01*
X70103611Y-82598098D01*
X70181789Y-82543357D01*
X70181792Y-82543355D01*
X70186300Y-82540198D01*
X70348198Y-82378300D01*
X70381787Y-82330330D01*
X70437244Y-82286002D01*
X70507863Y-82278693D01*
X70571224Y-82310724D01*
X70588213Y-82330330D01*
X70621802Y-82378300D01*
X70783700Y-82540198D01*
X70788208Y-82543355D01*
X70788211Y-82543357D01*
X70866389Y-82598098D01*
X70971251Y-82671523D01*
X70976233Y-82673846D01*
X70976238Y-82673849D01*
X71144556Y-82752336D01*
X71178757Y-82768284D01*
X71184065Y-82769706D01*
X71184067Y-82769707D01*
X71394598Y-82826119D01*
X71394600Y-82826119D01*
X71399913Y-82827543D01*
X71628000Y-82847498D01*
X71633475Y-82847019D01*
X71633476Y-82847019D01*
X71802588Y-82832224D01*
X71872192Y-82846213D01*
X71923185Y-82895613D01*
X71939375Y-82964739D01*
X71915622Y-83031644D01*
X71902664Y-83046840D01*
X71624109Y-83325395D01*
X71561797Y-83359421D01*
X71535014Y-83362300D01*
X69859030Y-83362300D01*
X69850460Y-83362008D01*
X69800054Y-83358571D01*
X69800050Y-83358571D01*
X69792479Y-83358055D01*
X69785003Y-83359360D01*
X69785000Y-83359360D01*
X69729217Y-83369096D01*
X69722692Y-83370059D01*
X69666533Y-83376855D01*
X69666532Y-83376855D01*
X69658989Y-83377768D01*
X69651881Y-83380454D01*
X69649581Y-83381019D01*
X69632520Y-83385686D01*
X69630266Y-83386367D01*
X69622785Y-83387672D01*
X69615833Y-83390724D01*
X69615829Y-83390725D01*
X69564003Y-83413476D01*
X69557899Y-83415967D01*
X69497851Y-83438657D01*
X69491595Y-83442957D01*
X69489511Y-83444046D01*
X69474048Y-83452653D01*
X69472012Y-83453857D01*
X69465055Y-83456911D01*
X69414104Y-83496007D01*
X69408796Y-83499863D01*
X69362149Y-83531921D01*
X69362144Y-83531926D01*
X69355888Y-83536225D01*
X69350836Y-83541895D01*
X69350835Y-83541896D01*
X69314245Y-83582964D01*
X69309264Y-83588240D01*
X67267544Y-85629960D01*
X67205232Y-85663986D01*
X67167467Y-85666386D01*
X67041475Y-85655363D01*
X67036000Y-85654884D01*
X66825345Y-85673314D01*
X66820032Y-85674738D01*
X66820030Y-85674738D01*
X66626400Y-85726621D01*
X66626398Y-85726622D01*
X66621090Y-85728044D01*
X66616109Y-85730366D01*
X66616108Y-85730367D01*
X66434423Y-85815088D01*
X66434420Y-85815090D01*
X66429442Y-85817411D01*
X66256224Y-85938699D01*
X66106699Y-86088224D01*
X65985411Y-86261442D01*
X65983090Y-86266420D01*
X65983088Y-86266423D01*
X65941897Y-86354757D01*
X65896044Y-86453090D01*
X65894622Y-86458398D01*
X65894621Y-86458400D01*
X65861665Y-86581393D01*
X65841314Y-86657345D01*
X65822884Y-86868000D01*
X65841314Y-87078655D01*
X65842738Y-87083968D01*
X65842738Y-87083970D01*
X65892033Y-87267939D01*
X65896044Y-87282910D01*
X65898366Y-87287891D01*
X65898367Y-87287892D01*
X65978972Y-87460749D01*
X65985411Y-87474558D01*
X66106699Y-87647776D01*
X66256224Y-87797301D01*
X66429442Y-87918589D01*
X66434420Y-87920910D01*
X66434423Y-87920912D01*
X66616108Y-88005633D01*
X66621090Y-88007956D01*
X66626398Y-88009378D01*
X66626400Y-88009379D01*
X66820030Y-88061262D01*
X66820032Y-88061262D01*
X66825345Y-88062686D01*
X67036000Y-88081116D01*
X67246655Y-88062686D01*
X67251968Y-88061262D01*
X67251970Y-88061262D01*
X67445600Y-88009379D01*
X67445602Y-88009378D01*
X67450910Y-88007956D01*
X67455892Y-88005633D01*
X67637577Y-87920912D01*
X67637580Y-87920910D01*
X67642558Y-87918589D01*
X67815776Y-87797301D01*
X67965301Y-87647776D01*
X68086589Y-87474558D01*
X68093029Y-87460749D01*
X68173633Y-87287892D01*
X68173634Y-87287891D01*
X68175956Y-87282910D01*
X68179968Y-87267939D01*
X68184293Y-87251796D01*
X68221245Y-87191173D01*
X68285106Y-87160152D01*
X68355600Y-87168580D01*
X68410347Y-87213783D01*
X68427707Y-87251796D01*
X68432033Y-87267939D01*
X68436044Y-87282910D01*
X68438366Y-87287891D01*
X68438367Y-87287892D01*
X68518972Y-87460749D01*
X68525411Y-87474558D01*
X68646699Y-87647776D01*
X68796224Y-87797301D01*
X68969442Y-87918589D01*
X68974420Y-87920910D01*
X68974423Y-87920912D01*
X69156108Y-88005633D01*
X69161090Y-88007956D01*
X69166398Y-88009378D01*
X69166400Y-88009379D01*
X69360030Y-88061262D01*
X69360032Y-88061262D01*
X69365345Y-88062686D01*
X69576000Y-88081116D01*
X69786655Y-88062686D01*
X69791968Y-88061262D01*
X69791970Y-88061262D01*
X69985600Y-88009379D01*
X69985602Y-88009378D01*
X69990910Y-88007956D01*
X69995892Y-88005633D01*
X70177577Y-87920912D01*
X70177580Y-87920910D01*
X70182558Y-87918589D01*
X70355776Y-87797301D01*
X70505301Y-87647776D01*
X70626589Y-87474558D01*
X70633029Y-87460749D01*
X70713633Y-87287892D01*
X70713634Y-87287891D01*
X70715956Y-87282910D01*
X70719968Y-87267939D01*
X70769262Y-87083970D01*
X70769262Y-87083968D01*
X70770686Y-87078655D01*
X70789116Y-86868000D01*
X70770686Y-86657345D01*
X70750335Y-86581393D01*
X70717379Y-86458400D01*
X70717378Y-86458398D01*
X70715956Y-86453090D01*
X70670103Y-86354757D01*
X70628912Y-86266423D01*
X70628910Y-86266420D01*
X70626589Y-86261442D01*
X70505301Y-86088224D01*
X70355776Y-85938699D01*
X70182558Y-85817411D01*
X70177580Y-85815090D01*
X70177577Y-85815088D01*
X69995892Y-85730367D01*
X69995891Y-85730366D01*
X69990910Y-85728044D01*
X69985602Y-85726622D01*
X69985600Y-85726621D01*
X69791970Y-85674738D01*
X69791968Y-85674738D01*
X69786655Y-85673314D01*
X69576000Y-85654884D01*
X69570525Y-85655363D01*
X69570524Y-85655363D01*
X69569758Y-85655430D01*
X69569425Y-85655363D01*
X69565018Y-85655363D01*
X69565018Y-85654477D01*
X69500154Y-85641441D01*
X69449161Y-85592041D01*
X69432971Y-85522915D01*
X69456724Y-85456010D01*
X69469682Y-85440813D01*
X69665108Y-85245388D01*
X70087892Y-84822604D01*
X70150204Y-84788579D01*
X70176987Y-84785700D01*
X71852970Y-84785700D01*
X71861540Y-84785992D01*
X71911946Y-84789429D01*
X71911950Y-84789429D01*
X71919521Y-84789945D01*
X71926997Y-84788640D01*
X71927000Y-84788640D01*
X71982783Y-84778904D01*
X71989308Y-84777941D01*
X72045467Y-84771145D01*
X72045468Y-84771145D01*
X72053011Y-84770232D01*
X72060119Y-84767546D01*
X72062419Y-84766981D01*
X72079480Y-84762314D01*
X72081734Y-84761634D01*
X72089215Y-84760328D01*
X72148005Y-84734521D01*
X72154102Y-84732033D01*
X72207047Y-84712027D01*
X72207050Y-84712026D01*
X72214149Y-84709343D01*
X72220404Y-84705044D01*
X72222495Y-84703951D01*
X72237957Y-84695345D01*
X72239991Y-84694142D01*
X72246946Y-84691089D01*
X72252971Y-84686466D01*
X72252976Y-84686463D01*
X72297874Y-84652012D01*
X72303209Y-84648136D01*
X72349847Y-84616082D01*
X72349853Y-84616077D01*
X72356112Y-84611775D01*
X72397764Y-84565026D01*
X72402744Y-84559751D01*
X72778495Y-84184000D01*
X72840807Y-84149974D01*
X72911622Y-84155039D01*
X72959769Y-84187194D01*
X72959893Y-84187328D01*
X72973292Y-84191000D01*
X74022885Y-84191000D01*
X74038124Y-84186525D01*
X74039329Y-84185135D01*
X74041000Y-84177452D01*
X74041000Y-84172885D01*
X74549000Y-84172885D01*
X74553475Y-84188124D01*
X74554865Y-84189329D01*
X74562548Y-84191000D01*
X75613344Y-84191000D01*
X75626875Y-84187027D01*
X75628180Y-84177947D01*
X75586214Y-84010875D01*
X75582894Y-84001124D01*
X75497972Y-83805814D01*
X75493105Y-83796739D01*
X75377426Y-83617926D01*
X75371136Y-83609757D01*
X75227806Y-83452240D01*
X75220273Y-83445215D01*
X75053139Y-83313222D01*
X75044552Y-83307517D01*
X74858117Y-83204599D01*
X74848705Y-83200369D01*
X74647959Y-83129280D01*
X74637988Y-83126646D01*
X74566837Y-83113972D01*
X74553540Y-83115432D01*
X74549000Y-83129989D01*
X74549000Y-84172885D01*
X74041000Y-84172885D01*
X74041000Y-83128102D01*
X74035725Y-83110136D01*
X74000290Y-83054999D01*
X74000290Y-82984002D01*
X74032091Y-82930405D01*
X76457891Y-80504605D01*
X76520203Y-80470579D01*
X76546986Y-80467700D01*
X78159612Y-80467700D01*
X78227733Y-80487702D01*
X78274226Y-80541358D01*
X78284330Y-80611632D01*
X78254836Y-80676212D01*
X78248707Y-80682795D01*
X78241802Y-80689700D01*
X78110477Y-80877251D01*
X78108154Y-80882233D01*
X78108151Y-80882238D01*
X78016039Y-81079775D01*
X78013716Y-81084757D01*
X78012294Y-81090065D01*
X78012293Y-81090067D01*
X77967859Y-81255896D01*
X77954457Y-81305913D01*
X77934502Y-81534000D01*
X77954457Y-81762087D01*
X77955881Y-81767400D01*
X77955881Y-81767402D01*
X78009184Y-81966328D01*
X78013716Y-81983243D01*
X78016039Y-81988224D01*
X78016039Y-81988225D01*
X78108151Y-82185762D01*
X78108153Y-82185765D01*
X78110477Y-82190749D01*
X78113634Y-82195257D01*
X78201051Y-82320101D01*
X78241802Y-82378300D01*
X78403700Y-82540198D01*
X78408208Y-82543355D01*
X78408211Y-82543357D01*
X78486389Y-82598098D01*
X78591251Y-82671523D01*
X78596233Y-82673846D01*
X78596238Y-82673849D01*
X78764556Y-82752336D01*
X78798757Y-82768284D01*
X78804065Y-82769706D01*
X78804067Y-82769707D01*
X79014598Y-82826119D01*
X79014600Y-82826119D01*
X79019913Y-82827543D01*
X79025389Y-82828022D01*
X79025394Y-82828023D01*
X79112091Y-82835608D01*
X79181128Y-82841647D01*
X79247246Y-82867510D01*
X79288885Y-82925014D01*
X79292826Y-82995901D01*
X79259241Y-83056263D01*
X78765284Y-83550220D01*
X78759019Y-83556073D01*
X78715219Y-83594282D01*
X78698602Y-83617926D01*
X78678309Y-83646801D01*
X78674375Y-83652098D01*
X78639454Y-83696634D01*
X78639450Y-83696640D01*
X78634767Y-83702613D01*
X78631642Y-83709534D01*
X78630428Y-83711539D01*
X78621659Y-83726912D01*
X78620541Y-83728996D01*
X78616170Y-83735216D01*
X78613410Y-83742295D01*
X78613409Y-83742297D01*
X78592852Y-83795024D01*
X78590300Y-83801097D01*
X78563880Y-83859609D01*
X78562496Y-83867077D01*
X78561788Y-83869336D01*
X78556951Y-83886318D01*
X78556358Y-83888627D01*
X78553597Y-83895708D01*
X78552606Y-83903237D01*
X78552605Y-83903240D01*
X78545217Y-83959356D01*
X78544185Y-83965870D01*
X78536539Y-84007124D01*
X78532488Y-84028983D01*
X78532925Y-84036563D01*
X78532925Y-84036564D01*
X78536091Y-84091470D01*
X78536300Y-84098723D01*
X78536300Y-91347014D01*
X78516298Y-91415135D01*
X78499395Y-91436109D01*
X76196109Y-93739395D01*
X76133797Y-93773421D01*
X76107014Y-93776300D01*
X74006986Y-93776300D01*
X73938865Y-93756298D01*
X73917891Y-93739395D01*
X73817091Y-93638595D01*
X73783065Y-93576283D01*
X73788130Y-93505468D01*
X73830677Y-93448632D01*
X73897197Y-93423821D01*
X73906186Y-93423500D01*
X75193134Y-93423500D01*
X75255316Y-93416745D01*
X75391705Y-93365615D01*
X75508261Y-93278261D01*
X75595615Y-93161705D01*
X75646745Y-93025316D01*
X75653500Y-92963134D01*
X75653500Y-91166866D01*
X75646745Y-91104684D01*
X75595615Y-90968295D01*
X75508261Y-90851739D01*
X75391705Y-90764385D01*
X75337731Y-90744151D01*
X75273203Y-90719960D01*
X75216439Y-90677318D01*
X75191739Y-90610756D01*
X75206947Y-90541408D01*
X75228493Y-90512727D01*
X75329435Y-90412137D01*
X75333096Y-90408489D01*
X75392594Y-90325689D01*
X75460435Y-90231277D01*
X75463453Y-90227077D01*
X75524688Y-90103178D01*
X75560136Y-90031453D01*
X75560137Y-90031451D01*
X75562430Y-90026811D01*
X75627370Y-89813069D01*
X75656529Y-89591590D01*
X75657006Y-89572087D01*
X75658074Y-89528365D01*
X75658074Y-89528361D01*
X75658156Y-89525000D01*
X75639852Y-89302361D01*
X75585431Y-89085702D01*
X75496354Y-88880840D01*
X75375014Y-88693277D01*
X75224670Y-88528051D01*
X75220619Y-88524852D01*
X75220615Y-88524848D01*
X75053414Y-88392800D01*
X75053410Y-88392798D01*
X75049359Y-88389598D01*
X75008053Y-88366796D01*
X74958084Y-88316364D01*
X74943312Y-88246921D01*
X74968428Y-88180516D01*
X74995780Y-88153909D01*
X75057736Y-88109716D01*
X75174860Y-88026173D01*
X75333096Y-87868489D01*
X75363686Y-87825919D01*
X75460435Y-87691277D01*
X75463453Y-87687077D01*
X75524688Y-87563178D01*
X75560136Y-87491453D01*
X75560137Y-87491451D01*
X75562430Y-87486811D01*
X75607647Y-87337984D01*
X75625865Y-87278023D01*
X75625865Y-87278021D01*
X75627370Y-87273069D01*
X75656529Y-87051590D01*
X75657006Y-87032087D01*
X75658074Y-86988365D01*
X75658074Y-86988361D01*
X75658156Y-86985000D01*
X75639852Y-86762361D01*
X75585431Y-86545702D01*
X75496354Y-86340840D01*
X75415923Y-86216513D01*
X75377822Y-86157617D01*
X75377820Y-86157614D01*
X75375014Y-86153277D01*
X75224670Y-85988051D01*
X75220619Y-85984852D01*
X75220615Y-85984848D01*
X75053414Y-85852800D01*
X75053410Y-85852798D01*
X75049359Y-85849598D01*
X75007569Y-85826529D01*
X74957598Y-85776097D01*
X74942826Y-85706654D01*
X74967942Y-85640248D01*
X74995294Y-85613641D01*
X75170328Y-85488792D01*
X75178200Y-85482139D01*
X75329052Y-85331812D01*
X75335730Y-85323965D01*
X75460003Y-85151020D01*
X75465313Y-85142183D01*
X75559670Y-84951267D01*
X75563469Y-84941672D01*
X75625377Y-84737910D01*
X75627555Y-84727837D01*
X75628986Y-84716962D01*
X75626775Y-84702778D01*
X75613617Y-84699000D01*
X72978225Y-84699000D01*
X72964694Y-84702973D01*
X72963257Y-84712966D01*
X72993565Y-84847446D01*
X72996645Y-84857275D01*
X73076770Y-85054603D01*
X73081413Y-85063794D01*
X73192694Y-85245388D01*
X73198777Y-85253699D01*
X73338213Y-85414667D01*
X73345580Y-85421883D01*
X73509434Y-85557916D01*
X73517881Y-85563831D01*
X73586969Y-85604203D01*
X73635693Y-85655842D01*
X73648764Y-85725625D01*
X73622033Y-85791396D01*
X73581584Y-85824752D01*
X73568607Y-85831507D01*
X73564474Y-85834610D01*
X73564471Y-85834612D01*
X73394100Y-85962530D01*
X73389965Y-85965635D01*
X73386393Y-85969373D01*
X73276060Y-86084830D01*
X73235629Y-86127138D01*
X73232715Y-86131410D01*
X73232714Y-86131411D01*
X73169192Y-86224531D01*
X73109743Y-86311680D01*
X73087283Y-86360067D01*
X73029605Y-86484324D01*
X73015688Y-86514305D01*
X72955989Y-86729570D01*
X72932251Y-86951695D01*
X72932548Y-86956848D01*
X72932548Y-86956851D01*
X72942386Y-87127475D01*
X72945110Y-87174715D01*
X72946247Y-87179761D01*
X72946248Y-87179767D01*
X72962481Y-87251796D01*
X72994222Y-87392639D01*
X73078266Y-87599616D01*
X73110165Y-87651671D01*
X73179114Y-87764185D01*
X73194987Y-87790088D01*
X73341250Y-87958938D01*
X73513126Y-88101632D01*
X73580972Y-88141278D01*
X73586445Y-88144476D01*
X73635169Y-88196114D01*
X73648240Y-88265897D01*
X73621509Y-88331669D01*
X73581055Y-88365027D01*
X73568607Y-88371507D01*
X73564474Y-88374610D01*
X73564471Y-88374612D01*
X73394100Y-88502530D01*
X73389965Y-88505635D01*
X73235629Y-88667138D01*
X73232715Y-88671410D01*
X73232714Y-88671411D01*
X73224984Y-88682743D01*
X73109743Y-88851680D01*
X73087283Y-88900067D01*
X73029605Y-89024324D01*
X73015688Y-89054305D01*
X72955989Y-89269570D01*
X72932251Y-89491695D01*
X72932548Y-89496848D01*
X72932548Y-89496851D01*
X72942386Y-89667475D01*
X72945110Y-89714715D01*
X72946247Y-89719761D01*
X72946248Y-89719767D01*
X72962807Y-89793243D01*
X72994222Y-89932639D01*
X73078266Y-90139616D01*
X73110488Y-90192197D01*
X73179114Y-90304185D01*
X73194987Y-90330088D01*
X73341250Y-90498938D01*
X73345230Y-90502242D01*
X73349981Y-90506187D01*
X73389616Y-90565090D01*
X73391113Y-90636071D01*
X73353997Y-90696593D01*
X73313725Y-90721112D01*
X73252269Y-90744151D01*
X73198295Y-90764385D01*
X73081739Y-90851739D01*
X72994385Y-90968295D01*
X72943255Y-91104684D01*
X72936500Y-91166866D01*
X72936500Y-92453814D01*
X72916498Y-92521935D01*
X72862842Y-92568428D01*
X72792568Y-92578532D01*
X72727988Y-92549038D01*
X72721405Y-92542909D01*
X71643780Y-91465284D01*
X71637926Y-91459018D01*
X71604710Y-91420941D01*
X71604708Y-91420939D01*
X71599718Y-91415219D01*
X71547199Y-91378309D01*
X71541902Y-91374375D01*
X71497366Y-91339454D01*
X71497360Y-91339450D01*
X71491387Y-91334767D01*
X71484466Y-91331642D01*
X71482461Y-91330428D01*
X71467088Y-91321659D01*
X71465004Y-91320541D01*
X71458784Y-91316170D01*
X71451705Y-91313410D01*
X71451703Y-91313409D01*
X71398976Y-91292852D01*
X71392903Y-91290300D01*
X71334391Y-91263880D01*
X71326923Y-91262496D01*
X71324664Y-91261788D01*
X71307682Y-91256951D01*
X71305373Y-91256358D01*
X71298292Y-91253597D01*
X71290763Y-91252606D01*
X71290760Y-91252605D01*
X71234644Y-91245217D01*
X71228130Y-91244185D01*
X71172485Y-91233872D01*
X71172484Y-91233872D01*
X71165017Y-91232488D01*
X71157437Y-91232925D01*
X71157436Y-91232925D01*
X71102530Y-91236091D01*
X71095277Y-91236300D01*
X69668986Y-91236300D01*
X69600865Y-91216298D01*
X69579891Y-91199395D01*
X69469682Y-91089186D01*
X69435656Y-91026874D01*
X69440721Y-90956059D01*
X69483268Y-90899223D01*
X69549788Y-90874412D01*
X69569758Y-90874570D01*
X69570524Y-90874637D01*
X69570525Y-90874637D01*
X69576000Y-90875116D01*
X69786655Y-90856686D01*
X69791968Y-90855262D01*
X69791970Y-90855262D01*
X69985600Y-90803379D01*
X69985602Y-90803378D01*
X69990910Y-90801956D01*
X70059931Y-90769771D01*
X70177577Y-90714912D01*
X70177580Y-90714910D01*
X70182558Y-90712589D01*
X70355776Y-90591301D01*
X70505301Y-90441776D01*
X70626589Y-90268558D01*
X70643974Y-90231277D01*
X70713633Y-90081892D01*
X70713634Y-90081891D01*
X70715956Y-90076910D01*
X70730708Y-90021857D01*
X70769262Y-89877970D01*
X70769262Y-89877968D01*
X70770686Y-89872655D01*
X70789116Y-89662000D01*
X70770686Y-89451345D01*
X70767790Y-89440537D01*
X70717379Y-89252400D01*
X70717378Y-89252398D01*
X70715956Y-89247090D01*
X70703707Y-89220822D01*
X70628912Y-89060423D01*
X70628910Y-89060420D01*
X70626589Y-89055442D01*
X70505301Y-88882224D01*
X70355776Y-88732699D01*
X70182558Y-88611411D01*
X70177580Y-88609090D01*
X70177577Y-88609088D01*
X69995892Y-88524367D01*
X69995891Y-88524366D01*
X69990910Y-88522044D01*
X69985602Y-88520622D01*
X69985600Y-88520621D01*
X69791970Y-88468738D01*
X69791968Y-88468738D01*
X69786655Y-88467314D01*
X69576000Y-88448884D01*
X69365345Y-88467314D01*
X69360032Y-88468738D01*
X69360030Y-88468738D01*
X69166400Y-88520621D01*
X69166398Y-88520622D01*
X69161090Y-88522044D01*
X69156109Y-88524366D01*
X69156108Y-88524367D01*
X68974423Y-88609088D01*
X68974420Y-88609090D01*
X68969442Y-88611411D01*
X68796224Y-88732699D01*
X68646699Y-88882224D01*
X68525411Y-89055442D01*
X68523090Y-89060420D01*
X68523088Y-89060423D01*
X68448293Y-89220822D01*
X68436044Y-89247090D01*
X68434622Y-89252398D01*
X68434621Y-89252400D01*
X68427707Y-89278204D01*
X68390755Y-89338827D01*
X68326894Y-89369848D01*
X68256400Y-89361420D01*
X68201653Y-89316217D01*
X68184293Y-89278204D01*
X68177379Y-89252400D01*
X68177378Y-89252398D01*
X68175956Y-89247090D01*
X68163707Y-89220822D01*
X68088912Y-89060423D01*
X68088910Y-89060420D01*
X68086589Y-89055442D01*
X67965301Y-88882224D01*
X67815776Y-88732699D01*
X67642558Y-88611411D01*
X67637580Y-88609090D01*
X67637577Y-88609088D01*
X67455892Y-88524367D01*
X67455891Y-88524366D01*
X67450910Y-88522044D01*
X67445602Y-88520622D01*
X67445600Y-88520621D01*
X67251970Y-88468738D01*
X67251968Y-88468738D01*
X67246655Y-88467314D01*
X67036000Y-88448884D01*
X66825345Y-88467314D01*
X66820032Y-88468738D01*
X66820030Y-88468738D01*
X66626400Y-88520621D01*
X66626398Y-88520622D01*
X66621090Y-88522044D01*
X66616109Y-88524366D01*
X66616108Y-88524367D01*
X66434423Y-88609088D01*
X66434420Y-88609090D01*
X66429442Y-88611411D01*
X66256224Y-88732699D01*
X66106699Y-88882224D01*
X65985411Y-89055442D01*
X65983090Y-89060420D01*
X65983088Y-89060423D01*
X65908293Y-89220822D01*
X65896044Y-89247090D01*
X65894622Y-89252398D01*
X65894621Y-89252400D01*
X65844210Y-89440537D01*
X65841314Y-89451345D01*
X65822884Y-89662000D01*
X65841314Y-89872655D01*
X65842738Y-89877968D01*
X65842738Y-89877970D01*
X65881293Y-90021857D01*
X65896044Y-90076910D01*
X65898366Y-90081891D01*
X65898367Y-90081892D01*
X65968027Y-90231277D01*
X65985411Y-90268558D01*
X66106699Y-90441776D01*
X66256224Y-90591301D01*
X66429442Y-90712589D01*
X66434420Y-90714910D01*
X66434423Y-90714912D01*
X66552069Y-90769771D01*
X66621090Y-90801956D01*
X66626398Y-90803378D01*
X66626400Y-90803379D01*
X66820030Y-90855262D01*
X66820032Y-90855262D01*
X66825345Y-90856686D01*
X67036000Y-90875116D01*
X67041475Y-90874637D01*
X67167468Y-90863614D01*
X67237073Y-90877603D01*
X67267545Y-90900040D01*
X68036775Y-91669271D01*
X68798220Y-92430716D01*
X68804073Y-92436981D01*
X68842282Y-92480781D01*
X68882594Y-92509112D01*
X68894801Y-92517691D01*
X68900098Y-92521625D01*
X68944634Y-92556546D01*
X68944640Y-92556550D01*
X68950613Y-92561233D01*
X68957534Y-92564358D01*
X68959539Y-92565572D01*
X68974912Y-92574341D01*
X68976996Y-92575459D01*
X68983216Y-92579830D01*
X68990295Y-92582590D01*
X68990297Y-92582591D01*
X69043024Y-92603148D01*
X69049097Y-92605700D01*
X69107609Y-92632120D01*
X69115077Y-92633504D01*
X69117336Y-92634212D01*
X69134318Y-92639049D01*
X69136627Y-92639642D01*
X69143708Y-92642403D01*
X69151237Y-92643394D01*
X69151240Y-92643395D01*
X69207356Y-92650783D01*
X69213870Y-92651815D01*
X69269515Y-92662128D01*
X69269516Y-92662128D01*
X69276983Y-92663512D01*
X69284563Y-92663075D01*
X69284564Y-92663075D01*
X69339470Y-92659909D01*
X69346723Y-92659700D01*
X70773015Y-92659700D01*
X70841136Y-92679702D01*
X70862110Y-92696605D01*
X71902666Y-93737162D01*
X71936691Y-93799472D01*
X71931626Y-93870287D01*
X71889079Y-93927123D01*
X71822559Y-93951934D01*
X71802589Y-93951776D01*
X71633476Y-93936981D01*
X71633475Y-93936981D01*
X71628000Y-93936502D01*
X71399913Y-93956457D01*
X71394600Y-93957881D01*
X71394598Y-93957881D01*
X71184067Y-94014293D01*
X71184065Y-94014294D01*
X71178757Y-94015716D01*
X71173776Y-94018039D01*
X71173775Y-94018039D01*
X70976238Y-94110151D01*
X70976233Y-94110154D01*
X70971251Y-94112477D01*
X70866389Y-94185902D01*
X70788211Y-94240643D01*
X70788208Y-94240645D01*
X70783700Y-94243802D01*
X70621802Y-94405700D01*
X70618645Y-94410208D01*
X70618643Y-94410211D01*
X70588213Y-94453670D01*
X70532756Y-94497998D01*
X70462137Y-94505307D01*
X70398776Y-94473276D01*
X70381787Y-94453670D01*
X70351357Y-94410211D01*
X70351355Y-94410208D01*
X70348198Y-94405700D01*
X70186300Y-94243802D01*
X70181792Y-94240645D01*
X70181789Y-94240643D01*
X70103611Y-94185902D01*
X69998749Y-94112477D01*
X69993767Y-94110154D01*
X69993762Y-94110151D01*
X69796225Y-94018039D01*
X69796224Y-94018039D01*
X69791243Y-94015716D01*
X69785935Y-94014294D01*
X69785933Y-94014293D01*
X69575402Y-93957881D01*
X69575400Y-93957881D01*
X69570087Y-93956457D01*
X69342000Y-93936502D01*
X69113913Y-93956457D01*
X69108600Y-93957881D01*
X69108598Y-93957881D01*
X68898067Y-94014293D01*
X68898065Y-94014294D01*
X68892757Y-94015716D01*
X68887776Y-94018039D01*
X68887775Y-94018039D01*
X68690238Y-94110151D01*
X68690233Y-94110154D01*
X68685251Y-94112477D01*
X68580389Y-94185902D01*
X68502211Y-94240643D01*
X68502208Y-94240645D01*
X68497700Y-94243802D01*
X68335802Y-94405700D01*
X68204477Y-94593251D01*
X68202154Y-94598233D01*
X68202151Y-94598238D01*
X68110039Y-94795775D01*
X68107716Y-94800757D01*
X68106294Y-94806065D01*
X68106293Y-94806067D01*
X68061362Y-94973751D01*
X68048457Y-95021913D01*
X68028502Y-95250000D01*
X68048457Y-95478087D01*
X68049881Y-95483400D01*
X68049881Y-95483402D01*
X68080089Y-95596137D01*
X68107716Y-95699243D01*
X68110039Y-95704224D01*
X68110039Y-95704225D01*
X68202151Y-95901762D01*
X68202154Y-95901767D01*
X68204477Y-95906749D01*
X68335802Y-96094300D01*
X68497700Y-96256198D01*
X68502208Y-96259355D01*
X68502211Y-96259357D01*
X68580389Y-96314098D01*
X68685251Y-96387523D01*
X68690233Y-96389846D01*
X68690238Y-96389849D01*
X68819487Y-96450118D01*
X68892757Y-96484284D01*
X68898065Y-96485706D01*
X68898067Y-96485707D01*
X69108598Y-96542119D01*
X69108600Y-96542119D01*
X69113913Y-96543543D01*
X69342000Y-96563498D01*
X69570087Y-96543543D01*
X69575400Y-96542119D01*
X69575402Y-96542119D01*
X69785933Y-96485707D01*
X69785935Y-96485706D01*
X69791243Y-96484284D01*
X69864513Y-96450118D01*
X69993762Y-96389849D01*
X69993767Y-96389846D01*
X69998749Y-96387523D01*
X70103611Y-96314098D01*
X70181789Y-96259357D01*
X70181792Y-96259355D01*
X70186300Y-96256198D01*
X70348198Y-96094300D01*
X70381787Y-96046330D01*
X70437244Y-96002002D01*
X70507863Y-95994693D01*
X70571224Y-96026724D01*
X70588213Y-96046330D01*
X70621802Y-96094300D01*
X70783700Y-96256198D01*
X70788208Y-96259355D01*
X70788211Y-96259357D01*
X70866389Y-96314098D01*
X70971251Y-96387523D01*
X70976233Y-96389846D01*
X70976238Y-96389849D01*
X71105487Y-96450118D01*
X71178757Y-96484284D01*
X71184065Y-96485706D01*
X71184067Y-96485707D01*
X71394598Y-96542119D01*
X71394600Y-96542119D01*
X71399913Y-96543543D01*
X71628000Y-96563498D01*
X71856087Y-96543543D01*
X71861400Y-96542119D01*
X71861402Y-96542119D01*
X72071933Y-96485707D01*
X72071935Y-96485706D01*
X72077243Y-96484284D01*
X72150513Y-96450118D01*
X72279762Y-96389849D01*
X72279767Y-96389846D01*
X72284749Y-96387523D01*
X72389611Y-96314098D01*
X72467789Y-96259357D01*
X72467792Y-96259355D01*
X72472300Y-96256198D01*
X72634198Y-96094300D01*
X72765523Y-95906749D01*
X72767846Y-95901767D01*
X72767849Y-95901762D01*
X72859961Y-95704225D01*
X72859961Y-95704224D01*
X72862284Y-95699243D01*
X72889912Y-95596137D01*
X72920119Y-95483402D01*
X72920119Y-95483400D01*
X72921543Y-95478087D01*
X72941498Y-95250000D01*
X77934502Y-95250000D01*
X77954457Y-95478087D01*
X77955881Y-95483400D01*
X77955881Y-95483402D01*
X77986089Y-95596137D01*
X78013716Y-95699243D01*
X78016039Y-95704224D01*
X78016039Y-95704225D01*
X78108151Y-95901762D01*
X78108154Y-95901767D01*
X78110477Y-95906749D01*
X78241802Y-96094300D01*
X78403700Y-96256198D01*
X78408208Y-96259355D01*
X78408211Y-96259357D01*
X78486389Y-96314098D01*
X78591251Y-96387523D01*
X78596233Y-96389846D01*
X78596238Y-96389849D01*
X78725487Y-96450118D01*
X78798757Y-96484284D01*
X78804065Y-96485706D01*
X78804067Y-96485707D01*
X79014598Y-96542119D01*
X79014600Y-96542119D01*
X79019913Y-96543543D01*
X79248000Y-96563498D01*
X79476087Y-96543543D01*
X79481400Y-96542119D01*
X79481402Y-96542119D01*
X79691933Y-96485707D01*
X79691935Y-96485706D01*
X79697243Y-96484284D01*
X79770513Y-96450118D01*
X79899762Y-96389849D01*
X79899767Y-96389846D01*
X79904749Y-96387523D01*
X80009611Y-96314098D01*
X80087789Y-96259357D01*
X80087792Y-96259355D01*
X80092300Y-96256198D01*
X80254198Y-96094300D01*
X80385523Y-95906749D01*
X80387846Y-95901767D01*
X80387849Y-95901762D01*
X80479961Y-95704225D01*
X80479961Y-95704224D01*
X80482284Y-95699243D01*
X80509912Y-95596137D01*
X80540119Y-95483402D01*
X80540119Y-95483400D01*
X80541543Y-95478087D01*
X80561498Y-95250000D01*
X80541543Y-95021913D01*
X80528638Y-94973751D01*
X80483707Y-94806067D01*
X80483706Y-94806065D01*
X80482284Y-94800757D01*
X80479961Y-94795775D01*
X80387849Y-94598238D01*
X80387846Y-94598233D01*
X80385523Y-94593251D01*
X80254198Y-94405700D01*
X80092300Y-94243802D01*
X80087792Y-94240645D01*
X80087789Y-94240643D01*
X80009611Y-94185902D01*
X79904749Y-94112477D01*
X79899767Y-94110154D01*
X79899762Y-94110151D01*
X79702225Y-94018039D01*
X79702224Y-94018039D01*
X79697243Y-94015716D01*
X79691935Y-94014294D01*
X79691933Y-94014293D01*
X79481402Y-93957881D01*
X79481400Y-93957881D01*
X79476087Y-93956457D01*
X79248000Y-93936502D01*
X79019913Y-93956457D01*
X79014600Y-93957881D01*
X79014598Y-93957881D01*
X78804067Y-94014293D01*
X78804065Y-94014294D01*
X78798757Y-94015716D01*
X78793776Y-94018039D01*
X78793775Y-94018039D01*
X78596238Y-94110151D01*
X78596233Y-94110154D01*
X78591251Y-94112477D01*
X78486389Y-94185902D01*
X78408211Y-94240643D01*
X78408208Y-94240645D01*
X78403700Y-94243802D01*
X78241802Y-94405700D01*
X78110477Y-94593251D01*
X78108154Y-94598233D01*
X78108151Y-94598238D01*
X78016039Y-94795775D01*
X78013716Y-94800757D01*
X78012294Y-94806065D01*
X78012293Y-94806067D01*
X77967362Y-94973751D01*
X77954457Y-95021913D01*
X77934502Y-95250000D01*
X72941498Y-95250000D01*
X72926289Y-95076163D01*
X72940278Y-95006559D01*
X72989677Y-94955567D01*
X73058803Y-94939376D01*
X73125709Y-94963128D01*
X73146759Y-94982353D01*
X73180282Y-95020781D01*
X73186500Y-95025151D01*
X73232793Y-95057686D01*
X73238089Y-95061619D01*
X73282631Y-95096544D01*
X73282635Y-95096546D01*
X73288612Y-95101233D01*
X73295534Y-95104358D01*
X73297563Y-95105587D01*
X73312910Y-95114340D01*
X73314998Y-95115459D01*
X73321216Y-95119830D01*
X73328295Y-95122590D01*
X73328297Y-95122591D01*
X73356945Y-95133760D01*
X73381019Y-95143146D01*
X73387095Y-95145700D01*
X73393352Y-95148525D01*
X73445609Y-95172120D01*
X73453079Y-95173504D01*
X73455334Y-95174211D01*
X73472318Y-95179049D01*
X73474627Y-95179642D01*
X73481708Y-95182403D01*
X73489237Y-95183394D01*
X73489240Y-95183395D01*
X73545356Y-95190783D01*
X73551870Y-95191815D01*
X73607515Y-95202128D01*
X73607516Y-95202128D01*
X73614983Y-95203512D01*
X73622563Y-95203075D01*
X73622564Y-95203075D01*
X73677469Y-95199909D01*
X73684722Y-95199700D01*
X76424970Y-95199700D01*
X76433540Y-95199992D01*
X76483946Y-95203429D01*
X76483950Y-95203429D01*
X76491521Y-95203945D01*
X76498997Y-95202640D01*
X76499000Y-95202640D01*
X76554783Y-95192904D01*
X76561308Y-95191941D01*
X76617467Y-95185145D01*
X76617468Y-95185145D01*
X76625011Y-95184232D01*
X76632119Y-95181546D01*
X76634419Y-95180981D01*
X76651480Y-95176314D01*
X76653734Y-95175634D01*
X76661215Y-95174328D01*
X76720005Y-95148521D01*
X76726102Y-95146033D01*
X76779047Y-95126027D01*
X76779050Y-95126026D01*
X76786149Y-95123343D01*
X76792404Y-95119044D01*
X76794495Y-95117951D01*
X76809957Y-95109345D01*
X76811991Y-95108142D01*
X76818946Y-95105089D01*
X76824971Y-95100466D01*
X76824976Y-95100463D01*
X76869874Y-95066012D01*
X76875209Y-95062136D01*
X76921847Y-95030082D01*
X76921853Y-95030077D01*
X76928112Y-95025775D01*
X76969764Y-94979026D01*
X76974744Y-94973751D01*
X79730716Y-92217780D01*
X79736982Y-92211926D01*
X79775059Y-92178710D01*
X79775061Y-92178708D01*
X79780781Y-92173718D01*
X79817700Y-92121186D01*
X79821630Y-92115895D01*
X79856545Y-92071367D01*
X79861234Y-92065387D01*
X79864362Y-92058460D01*
X79865570Y-92056465D01*
X79874351Y-92041070D01*
X79875459Y-92039004D01*
X79879830Y-92032784D01*
X79882590Y-92025704D01*
X79882593Y-92025699D01*
X79903151Y-91972970D01*
X79905707Y-91966888D01*
X79928994Y-91915313D01*
X79932120Y-91908390D01*
X79933504Y-91900922D01*
X79934212Y-91898663D01*
X79938388Y-91884000D01*
X80850502Y-91884000D01*
X80870457Y-92112087D01*
X80871881Y-92117400D01*
X80871881Y-92117402D01*
X80898778Y-92217780D01*
X80929716Y-92333243D01*
X80932039Y-92338224D01*
X80932039Y-92338225D01*
X81024151Y-92535762D01*
X81024154Y-92535767D01*
X81026477Y-92540749D01*
X81157802Y-92728300D01*
X81319700Y-92890198D01*
X81324208Y-92893355D01*
X81324211Y-92893357D01*
X81402389Y-92948098D01*
X81507251Y-93021523D01*
X81512233Y-93023846D01*
X81512238Y-93023849D01*
X81709775Y-93115961D01*
X81714757Y-93118284D01*
X81720065Y-93119706D01*
X81720067Y-93119707D01*
X81930598Y-93176119D01*
X81930600Y-93176119D01*
X81935913Y-93177543D01*
X82035480Y-93186254D01*
X82104149Y-93192262D01*
X82104156Y-93192262D01*
X82106873Y-93192500D01*
X82621127Y-93192500D01*
X82623844Y-93192262D01*
X82623851Y-93192262D01*
X82692520Y-93186254D01*
X82792087Y-93177543D01*
X82797400Y-93176119D01*
X82797402Y-93176119D01*
X83007933Y-93119707D01*
X83007935Y-93119706D01*
X83013243Y-93118284D01*
X83018225Y-93115961D01*
X83215762Y-93023849D01*
X83215767Y-93023846D01*
X83220749Y-93021523D01*
X83325611Y-92948098D01*
X83403789Y-92893357D01*
X83403792Y-92893355D01*
X83408300Y-92890198D01*
X83570198Y-92728300D01*
X83701523Y-92540749D01*
X83703846Y-92535767D01*
X83703849Y-92535762D01*
X83795961Y-92338225D01*
X83795961Y-92338224D01*
X83798284Y-92333243D01*
X83829223Y-92217780D01*
X83856119Y-92117402D01*
X83856119Y-92117400D01*
X83857543Y-92112087D01*
X83877498Y-91884000D01*
X83857543Y-91655913D01*
X83833002Y-91564324D01*
X83799707Y-91440067D01*
X83799706Y-91440065D01*
X83798284Y-91434757D01*
X83791842Y-91420941D01*
X83703849Y-91232238D01*
X83703846Y-91232233D01*
X83701523Y-91227251D01*
X83570198Y-91039700D01*
X83408300Y-90877802D01*
X83403792Y-90874645D01*
X83403789Y-90874643D01*
X83252649Y-90768814D01*
X83220749Y-90746477D01*
X83215767Y-90744154D01*
X83215762Y-90744151D01*
X83181543Y-90728195D01*
X83128258Y-90681278D01*
X83108797Y-90613001D01*
X83129339Y-90545041D01*
X83181543Y-90499805D01*
X83215762Y-90483849D01*
X83215767Y-90483846D01*
X83220749Y-90481523D01*
X83331046Y-90404292D01*
X83403789Y-90353357D01*
X83403792Y-90353355D01*
X83408300Y-90350198D01*
X83570198Y-90188300D01*
X83701523Y-90000749D01*
X83703846Y-89995767D01*
X83703849Y-89995762D01*
X83795961Y-89798225D01*
X83795961Y-89798224D01*
X83798284Y-89793243D01*
X83820711Y-89709547D01*
X83856119Y-89577402D01*
X83856119Y-89577400D01*
X83857543Y-89572087D01*
X83877498Y-89344000D01*
X83857543Y-89115913D01*
X83848176Y-89080954D01*
X83799707Y-88900067D01*
X83799706Y-88900065D01*
X83798284Y-88894757D01*
X83794544Y-88886736D01*
X83703849Y-88692238D01*
X83703846Y-88692233D01*
X83701523Y-88687251D01*
X83587470Y-88524367D01*
X83573357Y-88504211D01*
X83573355Y-88504208D01*
X83570198Y-88499700D01*
X83408300Y-88337802D01*
X83403792Y-88334645D01*
X83403789Y-88334643D01*
X83322616Y-88277805D01*
X83220749Y-88206477D01*
X83215767Y-88204154D01*
X83215762Y-88204151D01*
X83181543Y-88188195D01*
X83128258Y-88141278D01*
X83108797Y-88073001D01*
X83129339Y-88005041D01*
X83181543Y-87959805D01*
X83215762Y-87943849D01*
X83215767Y-87943846D01*
X83220749Y-87941523D01*
X83378133Y-87831321D01*
X83445405Y-87808634D01*
X83514265Y-87825919D01*
X83539497Y-87845440D01*
X91008511Y-95314454D01*
X91021348Y-95329482D01*
X91029331Y-95340470D01*
X91034233Y-95344883D01*
X91034234Y-95344885D01*
X91079063Y-95385249D01*
X91083847Y-95389790D01*
X91097994Y-95403937D01*
X91100552Y-95406009D01*
X91100556Y-95406012D01*
X91113561Y-95416543D01*
X91118576Y-95420827D01*
X91168285Y-95465585D01*
X91180044Y-95472374D01*
X91196329Y-95483567D01*
X91201740Y-95487948D01*
X91206875Y-95492106D01*
X91212759Y-95495104D01*
X91212762Y-95495106D01*
X91266481Y-95522478D01*
X91272276Y-95525624D01*
X91330215Y-95559075D01*
X91336499Y-95561117D01*
X91336504Y-95561119D01*
X91343121Y-95563269D01*
X91361385Y-95570834D01*
X91367587Y-95573994D01*
X91373475Y-95576994D01*
X91379856Y-95578704D01*
X91386020Y-95581070D01*
X91385200Y-95583206D01*
X91436832Y-95614675D01*
X91461583Y-95655204D01*
X91497385Y-95750705D01*
X91584739Y-95867261D01*
X91701295Y-95954615D01*
X91837684Y-96005745D01*
X91899866Y-96012500D01*
X93520134Y-96012500D01*
X93582316Y-96005745D01*
X93718705Y-95954615D01*
X93835261Y-95867261D01*
X93922615Y-95750705D01*
X93936649Y-95713270D01*
X93979291Y-95656505D01*
X94045853Y-95631806D01*
X94054631Y-95631500D01*
X100163367Y-95631500D01*
X100231488Y-95651502D01*
X100252462Y-95668405D01*
X101943595Y-97359538D01*
X101977621Y-97421850D01*
X101980500Y-97448633D01*
X101980500Y-98631812D01*
X101960498Y-98699933D01*
X101943595Y-98720907D01*
X101863802Y-98800700D01*
X101732477Y-98988251D01*
X101730154Y-98993233D01*
X101730151Y-98993238D01*
X101714195Y-99027457D01*
X101667278Y-99080742D01*
X101599001Y-99100203D01*
X101531041Y-99079661D01*
X101485805Y-99027457D01*
X101469849Y-98993238D01*
X101469846Y-98993233D01*
X101467523Y-98988251D01*
X101336198Y-98800700D01*
X101174300Y-98638802D01*
X101169792Y-98635645D01*
X101169789Y-98635643D01*
X101091611Y-98580902D01*
X100986749Y-98507477D01*
X100981767Y-98505154D01*
X100981762Y-98505151D01*
X100784225Y-98413039D01*
X100784224Y-98413039D01*
X100779243Y-98410716D01*
X100773935Y-98409294D01*
X100773933Y-98409293D01*
X100563402Y-98352881D01*
X100563400Y-98352881D01*
X100558087Y-98351457D01*
X100330000Y-98331502D01*
X100101913Y-98351457D01*
X100096600Y-98352881D01*
X100096598Y-98352881D01*
X99886067Y-98409293D01*
X99886065Y-98409294D01*
X99880757Y-98410716D01*
X99875776Y-98413039D01*
X99875775Y-98413039D01*
X99678238Y-98505151D01*
X99678233Y-98505154D01*
X99673251Y-98507477D01*
X99568389Y-98580902D01*
X99490211Y-98635643D01*
X99490208Y-98635645D01*
X99485700Y-98638802D01*
X99323802Y-98800700D01*
X99192477Y-98988251D01*
X99190154Y-98993233D01*
X99190151Y-98993238D01*
X99174195Y-99027457D01*
X99127278Y-99080742D01*
X99059001Y-99100203D01*
X98991041Y-99079661D01*
X98945805Y-99027457D01*
X98929849Y-98993238D01*
X98929846Y-98993233D01*
X98927523Y-98988251D01*
X98796198Y-98800700D01*
X98634300Y-98638802D01*
X98629792Y-98635645D01*
X98629789Y-98635643D01*
X98551611Y-98580902D01*
X98446749Y-98507477D01*
X98441767Y-98505154D01*
X98441762Y-98505151D01*
X98244225Y-98413039D01*
X98244224Y-98413039D01*
X98239243Y-98410716D01*
X98233935Y-98409294D01*
X98233933Y-98409293D01*
X98023402Y-98352881D01*
X98023400Y-98352881D01*
X98018087Y-98351457D01*
X97790000Y-98331502D01*
X97561913Y-98351457D01*
X97556600Y-98352881D01*
X97556598Y-98352881D01*
X97346067Y-98409293D01*
X97346065Y-98409294D01*
X97340757Y-98410716D01*
X97335776Y-98413039D01*
X97335775Y-98413039D01*
X97138238Y-98505151D01*
X97138233Y-98505154D01*
X97133251Y-98507477D01*
X97028389Y-98580902D01*
X96950211Y-98635643D01*
X96950208Y-98635645D01*
X96945700Y-98638802D01*
X96783802Y-98800700D01*
X96652477Y-98988251D01*
X96650154Y-98993233D01*
X96650151Y-98993238D01*
X96634195Y-99027457D01*
X96587278Y-99080742D01*
X96519001Y-99100203D01*
X96451041Y-99079661D01*
X96405805Y-99027457D01*
X96389849Y-98993238D01*
X96389846Y-98993233D01*
X96387523Y-98988251D01*
X96256198Y-98800700D01*
X96094300Y-98638802D01*
X96089792Y-98635645D01*
X96089789Y-98635643D01*
X96011611Y-98580902D01*
X95906749Y-98507477D01*
X95901767Y-98505154D01*
X95901762Y-98505151D01*
X95704225Y-98413039D01*
X95704224Y-98413039D01*
X95699243Y-98410716D01*
X95693935Y-98409294D01*
X95693933Y-98409293D01*
X95483402Y-98352881D01*
X95483400Y-98352881D01*
X95478087Y-98351457D01*
X95250000Y-98331502D01*
X95021913Y-98351457D01*
X95016600Y-98352881D01*
X95016598Y-98352881D01*
X94806067Y-98409293D01*
X94806065Y-98409294D01*
X94800757Y-98410716D01*
X94795776Y-98413039D01*
X94795775Y-98413039D01*
X94598238Y-98505151D01*
X94598233Y-98505154D01*
X94593251Y-98507477D01*
X94488389Y-98580902D01*
X94410211Y-98635643D01*
X94410208Y-98635645D01*
X94405700Y-98638802D01*
X94243802Y-98800700D01*
X94112477Y-98988251D01*
X94110154Y-98993233D01*
X94110151Y-98993238D01*
X94094195Y-99027457D01*
X94047278Y-99080742D01*
X93979001Y-99100203D01*
X93911041Y-99079661D01*
X93865805Y-99027457D01*
X93849849Y-98993238D01*
X93849846Y-98993233D01*
X93847523Y-98988251D01*
X93716198Y-98800700D01*
X93554300Y-98638802D01*
X93549792Y-98635645D01*
X93549789Y-98635643D01*
X93471611Y-98580902D01*
X93366749Y-98507477D01*
X93361767Y-98505154D01*
X93361762Y-98505151D01*
X93164225Y-98413039D01*
X93164224Y-98413039D01*
X93159243Y-98410716D01*
X93153935Y-98409294D01*
X93153933Y-98409293D01*
X92943402Y-98352881D01*
X92943400Y-98352881D01*
X92938087Y-98351457D01*
X92710000Y-98331502D01*
X92481913Y-98351457D01*
X92476600Y-98352881D01*
X92476598Y-98352881D01*
X92266067Y-98409293D01*
X92266065Y-98409294D01*
X92260757Y-98410716D01*
X92255776Y-98413039D01*
X92255775Y-98413039D01*
X92058238Y-98505151D01*
X92058233Y-98505154D01*
X92053251Y-98507477D01*
X91948389Y-98580902D01*
X91870211Y-98635643D01*
X91870208Y-98635645D01*
X91865700Y-98638802D01*
X91703802Y-98800700D01*
X91572477Y-98988251D01*
X91570154Y-98993233D01*
X91570151Y-98993238D01*
X91554195Y-99027457D01*
X91507278Y-99080742D01*
X91439001Y-99100203D01*
X91371041Y-99079661D01*
X91325805Y-99027457D01*
X91309849Y-98993238D01*
X91309846Y-98993233D01*
X91307523Y-98988251D01*
X91176198Y-98800700D01*
X91014300Y-98638802D01*
X91009792Y-98635645D01*
X91009789Y-98635643D01*
X90931611Y-98580902D01*
X90826749Y-98507477D01*
X90821767Y-98505154D01*
X90821762Y-98505151D01*
X90624225Y-98413039D01*
X90624224Y-98413039D01*
X90619243Y-98410716D01*
X90613935Y-98409294D01*
X90613933Y-98409293D01*
X90403402Y-98352881D01*
X90403400Y-98352881D01*
X90398087Y-98351457D01*
X90170000Y-98331502D01*
X89941913Y-98351457D01*
X89936600Y-98352881D01*
X89936598Y-98352881D01*
X89726067Y-98409293D01*
X89726065Y-98409294D01*
X89720757Y-98410716D01*
X89715776Y-98413039D01*
X89715775Y-98413039D01*
X89518238Y-98505151D01*
X89518233Y-98505154D01*
X89513251Y-98507477D01*
X89408389Y-98580902D01*
X89330211Y-98635643D01*
X89330208Y-98635645D01*
X89325700Y-98638802D01*
X89163802Y-98800700D01*
X89032477Y-98988251D01*
X89030154Y-98993233D01*
X89030151Y-98993238D01*
X89014195Y-99027457D01*
X88967278Y-99080742D01*
X88899001Y-99100203D01*
X88831041Y-99079661D01*
X88785805Y-99027457D01*
X88769849Y-98993238D01*
X88769846Y-98993233D01*
X88767523Y-98988251D01*
X88636198Y-98800700D01*
X88474300Y-98638802D01*
X88469792Y-98635645D01*
X88469789Y-98635643D01*
X88391611Y-98580902D01*
X88286749Y-98507477D01*
X88281767Y-98505154D01*
X88281762Y-98505151D01*
X88084225Y-98413039D01*
X88084224Y-98413039D01*
X88079243Y-98410716D01*
X88073935Y-98409294D01*
X88073933Y-98409293D01*
X87863402Y-98352881D01*
X87863400Y-98352881D01*
X87858087Y-98351457D01*
X87630000Y-98331502D01*
X87401913Y-98351457D01*
X87396600Y-98352881D01*
X87396598Y-98352881D01*
X87186067Y-98409293D01*
X87186065Y-98409294D01*
X87180757Y-98410716D01*
X87175776Y-98413039D01*
X87175775Y-98413039D01*
X86978238Y-98505151D01*
X86978233Y-98505154D01*
X86973251Y-98507477D01*
X86868389Y-98580902D01*
X86790211Y-98635643D01*
X86790208Y-98635645D01*
X86785700Y-98638802D01*
X86756867Y-98667635D01*
X86694555Y-98701661D01*
X86623740Y-98696596D01*
X86566904Y-98654049D01*
X86549790Y-98622768D01*
X86543769Y-98606707D01*
X86543767Y-98606703D01*
X86540615Y-98598295D01*
X86453261Y-98481739D01*
X86336705Y-98394385D01*
X86200316Y-98343255D01*
X86138134Y-98336500D01*
X84041866Y-98336500D01*
X83979684Y-98343255D01*
X83843295Y-98394385D01*
X83726739Y-98481739D01*
X83639385Y-98598295D01*
X83588255Y-98734684D01*
X83581500Y-98796866D01*
X83581500Y-100893134D01*
X83588255Y-100955316D01*
X83639385Y-101091705D01*
X83726739Y-101208261D01*
X83843295Y-101295615D01*
X83979684Y-101346745D01*
X84041866Y-101353500D01*
X86138134Y-101353500D01*
X86200316Y-101346745D01*
X86336705Y-101295615D01*
X86453261Y-101208261D01*
X86540615Y-101091705D01*
X86544672Y-101080885D01*
X86549790Y-101067232D01*
X86592431Y-101010467D01*
X86658992Y-100985766D01*
X86728341Y-101000973D01*
X86756867Y-101022365D01*
X86785700Y-101051198D01*
X86790208Y-101054355D01*
X86790211Y-101054357D01*
X86842686Y-101091100D01*
X86973251Y-101182523D01*
X86978233Y-101184846D01*
X86978238Y-101184849D01*
X87175775Y-101276961D01*
X87180757Y-101279284D01*
X87186065Y-101280706D01*
X87186067Y-101280707D01*
X87396598Y-101337119D01*
X87396600Y-101337119D01*
X87401913Y-101338543D01*
X87630000Y-101358498D01*
X87858087Y-101338543D01*
X87863400Y-101337119D01*
X87863402Y-101337119D01*
X88073933Y-101280707D01*
X88073935Y-101280706D01*
X88079243Y-101279284D01*
X88084225Y-101276961D01*
X88281762Y-101184849D01*
X88281767Y-101184846D01*
X88286749Y-101182523D01*
X88417314Y-101091100D01*
X88469789Y-101054357D01*
X88469792Y-101054355D01*
X88474300Y-101051198D01*
X88636198Y-100889300D01*
X88767523Y-100701749D01*
X88769846Y-100696767D01*
X88769849Y-100696762D01*
X88785805Y-100662543D01*
X88832722Y-100609258D01*
X88900999Y-100589797D01*
X88968959Y-100610339D01*
X89014195Y-100662543D01*
X89030151Y-100696762D01*
X89030154Y-100696767D01*
X89032477Y-100701749D01*
X89163802Y-100889300D01*
X89325700Y-101051198D01*
X89330208Y-101054355D01*
X89330211Y-101054357D01*
X89382686Y-101091100D01*
X89513251Y-101182523D01*
X89518233Y-101184846D01*
X89518238Y-101184849D01*
X89715775Y-101276961D01*
X89720757Y-101279284D01*
X89726065Y-101280706D01*
X89726067Y-101280707D01*
X89936598Y-101337119D01*
X89936600Y-101337119D01*
X89941913Y-101338543D01*
X90170000Y-101358498D01*
X90398087Y-101338543D01*
X90403400Y-101337119D01*
X90403402Y-101337119D01*
X90613933Y-101280707D01*
X90613935Y-101280706D01*
X90619243Y-101279284D01*
X90624225Y-101276961D01*
X90821762Y-101184849D01*
X90821767Y-101184846D01*
X90826749Y-101182523D01*
X90957314Y-101091100D01*
X91009789Y-101054357D01*
X91009792Y-101054355D01*
X91014300Y-101051198D01*
X91176198Y-100889300D01*
X91307523Y-100701749D01*
X91309846Y-100696767D01*
X91309849Y-100696762D01*
X91325805Y-100662543D01*
X91372722Y-100609258D01*
X91440999Y-100589797D01*
X91508959Y-100610339D01*
X91554195Y-100662543D01*
X91570151Y-100696762D01*
X91570154Y-100696767D01*
X91572477Y-100701749D01*
X91703802Y-100889300D01*
X91865700Y-101051198D01*
X91870208Y-101054355D01*
X91870211Y-101054357D01*
X91922686Y-101091100D01*
X92053251Y-101182523D01*
X92058233Y-101184846D01*
X92058238Y-101184849D01*
X92255775Y-101276961D01*
X92260757Y-101279284D01*
X92266065Y-101280706D01*
X92266067Y-101280707D01*
X92476598Y-101337119D01*
X92476600Y-101337119D01*
X92481913Y-101338543D01*
X92710000Y-101358498D01*
X92938087Y-101338543D01*
X92943400Y-101337119D01*
X92943402Y-101337119D01*
X93153933Y-101280707D01*
X93153935Y-101280706D01*
X93159243Y-101279284D01*
X93164225Y-101276961D01*
X93361762Y-101184849D01*
X93361767Y-101184846D01*
X93366749Y-101182523D01*
X93497314Y-101091100D01*
X93549789Y-101054357D01*
X93549792Y-101054355D01*
X93554300Y-101051198D01*
X93716198Y-100889300D01*
X93847523Y-100701749D01*
X93849846Y-100696767D01*
X93849849Y-100696762D01*
X93865805Y-100662543D01*
X93912722Y-100609258D01*
X93980999Y-100589797D01*
X94048959Y-100610339D01*
X94094195Y-100662543D01*
X94110151Y-100696762D01*
X94110154Y-100696767D01*
X94112477Y-100701749D01*
X94243802Y-100889300D01*
X94405700Y-101051198D01*
X94410208Y-101054355D01*
X94410211Y-101054357D01*
X94462686Y-101091100D01*
X94593251Y-101182523D01*
X94598233Y-101184846D01*
X94598238Y-101184849D01*
X94795775Y-101276961D01*
X94800757Y-101279284D01*
X94806065Y-101280706D01*
X94806067Y-101280707D01*
X95016598Y-101337119D01*
X95016600Y-101337119D01*
X95021913Y-101338543D01*
X95250000Y-101358498D01*
X95478087Y-101338543D01*
X95483400Y-101337119D01*
X95483402Y-101337119D01*
X95693933Y-101280707D01*
X95693935Y-101280706D01*
X95699243Y-101279284D01*
X95704225Y-101276961D01*
X95901762Y-101184849D01*
X95901767Y-101184846D01*
X95906749Y-101182523D01*
X96037314Y-101091100D01*
X96089789Y-101054357D01*
X96089792Y-101054355D01*
X96094300Y-101051198D01*
X96256198Y-100889300D01*
X96387523Y-100701749D01*
X96389846Y-100696767D01*
X96389849Y-100696762D01*
X96405805Y-100662543D01*
X96452722Y-100609258D01*
X96520999Y-100589797D01*
X96588959Y-100610339D01*
X96634195Y-100662543D01*
X96650151Y-100696762D01*
X96650154Y-100696767D01*
X96652477Y-100701749D01*
X96783802Y-100889300D01*
X96945700Y-101051198D01*
X96950208Y-101054355D01*
X96950211Y-101054357D01*
X97002686Y-101091100D01*
X97133251Y-101182523D01*
X97138233Y-101184846D01*
X97138238Y-101184849D01*
X97335775Y-101276961D01*
X97340757Y-101279284D01*
X97346065Y-101280706D01*
X97346067Y-101280707D01*
X97556598Y-101337119D01*
X97556600Y-101337119D01*
X97561913Y-101338543D01*
X97790000Y-101358498D01*
X98018087Y-101338543D01*
X98023400Y-101337119D01*
X98023402Y-101337119D01*
X98233933Y-101280707D01*
X98233935Y-101280706D01*
X98239243Y-101279284D01*
X98244225Y-101276961D01*
X98441762Y-101184849D01*
X98441767Y-101184846D01*
X98446749Y-101182523D01*
X98577314Y-101091100D01*
X98629789Y-101054357D01*
X98629792Y-101054355D01*
X98634300Y-101051198D01*
X98796198Y-100889300D01*
X98927523Y-100701749D01*
X98929846Y-100696767D01*
X98929849Y-100696762D01*
X98945805Y-100662543D01*
X98992722Y-100609258D01*
X99060999Y-100589797D01*
X99128959Y-100610339D01*
X99174195Y-100662543D01*
X99190151Y-100696762D01*
X99190154Y-100696767D01*
X99192477Y-100701749D01*
X99323802Y-100889300D01*
X99485700Y-101051198D01*
X99490208Y-101054355D01*
X99490211Y-101054357D01*
X99542686Y-101091100D01*
X99673251Y-101182523D01*
X99678233Y-101184846D01*
X99678238Y-101184849D01*
X99875775Y-101276961D01*
X99880757Y-101279284D01*
X99886065Y-101280706D01*
X99886067Y-101280707D01*
X100096598Y-101337119D01*
X100096600Y-101337119D01*
X100101913Y-101338543D01*
X100330000Y-101358498D01*
X100558087Y-101338543D01*
X100563400Y-101337119D01*
X100563402Y-101337119D01*
X100773933Y-101280707D01*
X100773935Y-101280706D01*
X100779243Y-101279284D01*
X100784225Y-101276961D01*
X100981762Y-101184849D01*
X100981767Y-101184846D01*
X100986749Y-101182523D01*
X101117314Y-101091100D01*
X101169789Y-101054357D01*
X101169792Y-101054355D01*
X101174300Y-101051198D01*
X101336198Y-100889300D01*
X101467523Y-100701749D01*
X101469846Y-100696767D01*
X101469849Y-100696762D01*
X101485805Y-100662543D01*
X101532722Y-100609258D01*
X101600999Y-100589797D01*
X101668959Y-100610339D01*
X101714195Y-100662543D01*
X101730151Y-100696762D01*
X101730154Y-100696767D01*
X101732477Y-100701749D01*
X101863802Y-100889300D01*
X102025700Y-101051198D01*
X102030208Y-101054355D01*
X102030211Y-101054357D01*
X102082686Y-101091100D01*
X102213251Y-101182523D01*
X102218233Y-101184846D01*
X102218238Y-101184849D01*
X102415775Y-101276961D01*
X102420757Y-101279284D01*
X102426065Y-101280706D01*
X102426067Y-101280707D01*
X102636598Y-101337119D01*
X102636600Y-101337119D01*
X102641913Y-101338543D01*
X102870000Y-101358498D01*
X103098087Y-101338543D01*
X103103400Y-101337119D01*
X103103402Y-101337119D01*
X103313933Y-101280707D01*
X103313935Y-101280706D01*
X103319243Y-101279284D01*
X103324225Y-101276961D01*
X103521762Y-101184849D01*
X103521767Y-101184846D01*
X103526749Y-101182523D01*
X103657314Y-101091100D01*
X103709789Y-101054357D01*
X103709792Y-101054355D01*
X103714300Y-101051198D01*
X103876198Y-100889300D01*
X104007523Y-100701749D01*
X104009846Y-100696767D01*
X104009849Y-100696762D01*
X104101961Y-100499225D01*
X104101961Y-100499224D01*
X104104284Y-100494243D01*
X104124769Y-100417795D01*
X104162119Y-100278402D01*
X104162119Y-100278400D01*
X104163543Y-100273087D01*
X104172837Y-100166853D01*
X104178262Y-100104851D01*
X104178262Y-100104844D01*
X104178500Y-100102127D01*
X104178500Y-99587873D01*
X104163543Y-99416913D01*
X104142691Y-99339092D01*
X104105707Y-99201067D01*
X104105706Y-99201065D01*
X104104284Y-99195757D01*
X104025805Y-99027457D01*
X104009849Y-98993238D01*
X104009846Y-98993233D01*
X104007523Y-98988251D01*
X103876198Y-98800700D01*
X103796405Y-98720907D01*
X103762379Y-98658595D01*
X103759500Y-98631812D01*
X103759500Y-97107925D01*
X103761051Y-97088214D01*
X103762142Y-97081327D01*
X103762142Y-97081325D01*
X103763174Y-97074810D01*
X103759673Y-97008008D01*
X103759500Y-97001414D01*
X103759500Y-96981380D01*
X103757406Y-96961454D01*
X103756889Y-96954880D01*
X103753734Y-96894681D01*
X103753734Y-96894678D01*
X103753388Y-96888085D01*
X103749876Y-96874977D01*
X103746275Y-96855544D01*
X103745546Y-96848614D01*
X103745545Y-96848610D01*
X103744855Y-96842044D01*
X103724178Y-96778408D01*
X103722307Y-96772091D01*
X103706703Y-96713852D01*
X103706702Y-96713849D01*
X103704994Y-96707475D01*
X103701998Y-96701595D01*
X103701995Y-96701587D01*
X103698832Y-96695379D01*
X103691269Y-96677122D01*
X103689116Y-96670496D01*
X103689116Y-96670495D01*
X103687075Y-96664215D01*
X103653629Y-96606285D01*
X103650483Y-96600491D01*
X103631390Y-96563019D01*
X103620107Y-96540875D01*
X103611568Y-96530330D01*
X103600375Y-96514045D01*
X103596884Y-96507998D01*
X103596881Y-96507995D01*
X103593585Y-96502285D01*
X103589173Y-96497385D01*
X103589170Y-96497381D01*
X103548825Y-96452575D01*
X103544537Y-96447554D01*
X103534014Y-96434559D01*
X103531937Y-96431994D01*
X103517790Y-96417847D01*
X103513249Y-96413063D01*
X103472885Y-96368234D01*
X103472883Y-96368233D01*
X103468470Y-96363331D01*
X103457482Y-96355348D01*
X103442454Y-96342511D01*
X101269489Y-94169546D01*
X101256652Y-94154518D01*
X101248669Y-94143530D01*
X101217688Y-94115634D01*
X101198937Y-94098751D01*
X101194153Y-94094210D01*
X101180006Y-94080063D01*
X101164446Y-94067463D01*
X101159425Y-94063175D01*
X101114619Y-94022830D01*
X101114615Y-94022827D01*
X101109715Y-94018415D01*
X101104005Y-94015119D01*
X101104002Y-94015116D01*
X101097955Y-94011625D01*
X101081670Y-94000432D01*
X101081135Y-93999999D01*
X101071125Y-93991893D01*
X101011520Y-93961523D01*
X101005724Y-93958376D01*
X100994292Y-93951776D01*
X100947785Y-93924925D01*
X100934875Y-93920730D01*
X100916616Y-93913167D01*
X100904524Y-93907006D01*
X100839906Y-93889691D01*
X100833582Y-93887818D01*
X100779626Y-93870287D01*
X100769956Y-93867145D01*
X100763389Y-93866455D01*
X100763385Y-93866454D01*
X100757712Y-93865858D01*
X100756470Y-93865728D01*
X100737028Y-93862125D01*
X100723915Y-93858611D01*
X100717318Y-93858265D01*
X100717316Y-93858265D01*
X100657113Y-93855110D01*
X100650539Y-93854593D01*
X100633895Y-93852844D01*
X100633891Y-93852844D01*
X100630620Y-93852500D01*
X100610593Y-93852500D01*
X100603999Y-93852327D01*
X100543782Y-93849171D01*
X100543778Y-93849171D01*
X100537190Y-93848826D01*
X100530675Y-93849858D01*
X100530673Y-93849858D01*
X100523786Y-93850949D01*
X100504075Y-93852500D01*
X94054631Y-93852500D01*
X93986510Y-93832498D01*
X93940017Y-93778842D01*
X93936649Y-93770730D01*
X93925767Y-93741703D01*
X93922615Y-93733295D01*
X93835261Y-93616739D01*
X93718705Y-93529385D01*
X93582316Y-93478255D01*
X93520134Y-93471500D01*
X93511636Y-93471500D01*
X93443515Y-93451498D01*
X93397022Y-93397842D01*
X93386918Y-93327568D01*
X93416412Y-93262988D01*
X93439365Y-93242287D01*
X93525270Y-93182136D01*
X93525273Y-93182134D01*
X93529781Y-93178977D01*
X93686977Y-93021781D01*
X93725664Y-92966531D01*
X93811331Y-92844185D01*
X93811332Y-92844183D01*
X93814488Y-92839676D01*
X93816811Y-92834694D01*
X93816814Y-92834689D01*
X93906117Y-92643178D01*
X93906118Y-92643177D01*
X93908440Y-92638196D01*
X93965978Y-92423463D01*
X93985353Y-92202000D01*
X93965978Y-91980537D01*
X93908440Y-91765804D01*
X93895949Y-91739016D01*
X93816814Y-91569311D01*
X93816811Y-91569306D01*
X93814488Y-91564324D01*
X93745140Y-91465284D01*
X93690136Y-91386730D01*
X93690134Y-91386727D01*
X93686977Y-91382219D01*
X93529781Y-91225023D01*
X93525273Y-91221866D01*
X93525270Y-91221864D01*
X93369139Y-91112540D01*
X93347677Y-91097512D01*
X93342695Y-91095189D01*
X93342690Y-91095186D01*
X93237627Y-91046195D01*
X93184342Y-90999278D01*
X93164881Y-90931001D01*
X93185423Y-90863041D01*
X93237627Y-90817805D01*
X93342690Y-90768814D01*
X93342695Y-90768811D01*
X93347677Y-90766488D01*
X93449505Y-90695187D01*
X93525270Y-90642136D01*
X93525273Y-90642134D01*
X93529781Y-90638977D01*
X93686977Y-90481781D01*
X93712262Y-90445671D01*
X93811331Y-90304185D01*
X93811332Y-90304183D01*
X93814488Y-90299676D01*
X93816811Y-90294694D01*
X93816814Y-90294689D01*
X93906117Y-90103178D01*
X93906118Y-90103177D01*
X93908440Y-90098196D01*
X93915567Y-90071600D01*
X93952801Y-89932639D01*
X93965978Y-89883463D01*
X93985353Y-89662000D01*
X93965978Y-89440537D01*
X93918832Y-89264588D01*
X93909863Y-89231114D01*
X93909862Y-89231112D01*
X93908440Y-89225804D01*
X93906117Y-89220822D01*
X93816814Y-89029311D01*
X93816811Y-89029306D01*
X93814488Y-89024324D01*
X93727483Y-88900067D01*
X93690136Y-88846730D01*
X93690134Y-88846727D01*
X93686977Y-88842219D01*
X93529781Y-88685023D01*
X93525273Y-88681866D01*
X93525270Y-88681864D01*
X93429158Y-88614566D01*
X93347677Y-88557512D01*
X93342695Y-88555189D01*
X93342690Y-88555186D01*
X93237627Y-88506195D01*
X93184342Y-88459278D01*
X93164881Y-88391001D01*
X93185423Y-88323041D01*
X93237627Y-88277805D01*
X93342690Y-88228814D01*
X93342695Y-88228811D01*
X93347677Y-88226488D01*
X93464802Y-88144476D01*
X93525270Y-88102136D01*
X93525273Y-88102134D01*
X93529781Y-88098977D01*
X93686977Y-87941781D01*
X93703217Y-87918589D01*
X93811331Y-87764185D01*
X93811332Y-87764183D01*
X93814488Y-87759676D01*
X93816811Y-87754694D01*
X93816814Y-87754689D01*
X93906117Y-87563178D01*
X93906118Y-87563177D01*
X93908440Y-87558196D01*
X93965978Y-87343463D01*
X93985353Y-87122000D01*
X93965978Y-86900537D01*
X93908440Y-86685804D01*
X93897725Y-86662825D01*
X93816814Y-86489311D01*
X93816811Y-86489306D01*
X93814488Y-86484324D01*
X93792618Y-86453090D01*
X93690136Y-86306730D01*
X93690134Y-86306727D01*
X93686977Y-86302219D01*
X93529781Y-86145023D01*
X93525273Y-86141866D01*
X93525270Y-86141864D01*
X93443101Y-86084329D01*
X93347677Y-86017512D01*
X93342695Y-86015189D01*
X93342690Y-86015186D01*
X93237627Y-85966195D01*
X93184342Y-85919278D01*
X93164881Y-85851001D01*
X93185423Y-85783041D01*
X93237627Y-85737805D01*
X93342690Y-85688814D01*
X93342695Y-85688811D01*
X93347677Y-85686488D01*
X93482561Y-85592041D01*
X93525270Y-85562136D01*
X93525273Y-85562134D01*
X93529781Y-85558977D01*
X93686977Y-85401781D01*
X93741465Y-85323965D01*
X93811331Y-85224185D01*
X93811332Y-85224183D01*
X93814488Y-85219676D01*
X93816811Y-85214694D01*
X93816814Y-85214689D01*
X93906117Y-85023178D01*
X93906118Y-85023177D01*
X93908440Y-85018196D01*
X93965978Y-84803463D01*
X93985353Y-84582000D01*
X93965978Y-84360537D01*
X93916920Y-84177452D01*
X93909863Y-84151114D01*
X93909862Y-84151112D01*
X93908440Y-84145804D01*
X93883104Y-84091470D01*
X93816814Y-83949311D01*
X93816811Y-83949306D01*
X93814488Y-83944324D01*
X93727603Y-83820239D01*
X93690136Y-83766730D01*
X93690134Y-83766727D01*
X93686977Y-83762219D01*
X93529781Y-83605023D01*
X93525273Y-83601866D01*
X93525270Y-83601864D01*
X93436312Y-83539575D01*
X93347677Y-83477512D01*
X93342695Y-83475189D01*
X93342690Y-83475186D01*
X93237035Y-83425919D01*
X93183750Y-83379002D01*
X93164289Y-83310725D01*
X93184831Y-83242765D01*
X93237035Y-83197529D01*
X93342445Y-83148376D01*
X93351931Y-83142898D01*
X93395764Y-83112207D01*
X93404139Y-83101729D01*
X93397071Y-83088281D01*
X92722812Y-82414022D01*
X92708868Y-82406408D01*
X92707035Y-82406539D01*
X92700420Y-82410790D01*
X92022207Y-83089003D01*
X92015777Y-83100777D01*
X92025074Y-83112793D01*
X92068069Y-83142898D01*
X92077555Y-83148376D01*
X92182965Y-83197529D01*
X92236250Y-83244446D01*
X92255711Y-83312723D01*
X92235169Y-83380683D01*
X92182965Y-83425919D01*
X92077311Y-83475186D01*
X92077306Y-83475189D01*
X92072324Y-83477512D01*
X92067817Y-83480668D01*
X92067815Y-83480669D01*
X91894730Y-83601864D01*
X91894727Y-83601866D01*
X91890219Y-83605023D01*
X91733023Y-83762219D01*
X91729866Y-83766727D01*
X91729864Y-83766730D01*
X91692397Y-83820239D01*
X91605512Y-83944324D01*
X91603189Y-83949306D01*
X91603186Y-83949311D01*
X91536896Y-84091470D01*
X91511560Y-84145804D01*
X91510138Y-84151112D01*
X91510137Y-84151114D01*
X91503080Y-84177452D01*
X91454022Y-84360537D01*
X91434647Y-84582000D01*
X91454022Y-84803463D01*
X91511560Y-85018196D01*
X91513882Y-85023177D01*
X91513883Y-85023178D01*
X91603186Y-85214689D01*
X91603189Y-85214694D01*
X91605512Y-85219676D01*
X91608668Y-85224183D01*
X91608669Y-85224185D01*
X91678536Y-85323965D01*
X91733023Y-85401781D01*
X91890219Y-85558977D01*
X91894727Y-85562134D01*
X91894730Y-85562136D01*
X91937439Y-85592041D01*
X92072323Y-85686488D01*
X92077305Y-85688811D01*
X92077310Y-85688814D01*
X92182373Y-85737805D01*
X92235658Y-85784722D01*
X92255119Y-85852999D01*
X92234577Y-85920959D01*
X92182373Y-85966195D01*
X92077311Y-86015186D01*
X92077306Y-86015189D01*
X92072324Y-86017512D01*
X92067817Y-86020668D01*
X92067815Y-86020669D01*
X91894730Y-86141864D01*
X91894727Y-86141866D01*
X91890219Y-86145023D01*
X91733023Y-86302219D01*
X91729866Y-86306727D01*
X91729864Y-86306730D01*
X91627382Y-86453090D01*
X91605512Y-86484324D01*
X91603189Y-86489306D01*
X91603186Y-86489311D01*
X91522275Y-86662825D01*
X91511560Y-86685804D01*
X91454022Y-86900537D01*
X91434647Y-87122000D01*
X91454022Y-87343463D01*
X91511560Y-87558196D01*
X91513882Y-87563177D01*
X91513883Y-87563178D01*
X91603186Y-87754689D01*
X91603189Y-87754694D01*
X91605512Y-87759676D01*
X91608668Y-87764183D01*
X91608669Y-87764185D01*
X91716784Y-87918589D01*
X91733023Y-87941781D01*
X91890219Y-88098977D01*
X91894727Y-88102134D01*
X91894730Y-88102136D01*
X91955198Y-88144476D01*
X92072323Y-88226488D01*
X92077305Y-88228811D01*
X92077310Y-88228814D01*
X92182373Y-88277805D01*
X92235658Y-88324722D01*
X92255119Y-88392999D01*
X92234577Y-88460959D01*
X92182373Y-88506195D01*
X92077311Y-88555186D01*
X92077306Y-88555189D01*
X92072324Y-88557512D01*
X92067817Y-88560668D01*
X92067815Y-88560669D01*
X91894730Y-88681864D01*
X91894727Y-88681866D01*
X91890219Y-88685023D01*
X91733023Y-88842219D01*
X91729866Y-88846727D01*
X91729864Y-88846730D01*
X91692517Y-88900067D01*
X91605512Y-89024324D01*
X91603189Y-89029306D01*
X91603186Y-89029311D01*
X91513883Y-89220822D01*
X91511560Y-89225804D01*
X91510138Y-89231112D01*
X91510137Y-89231114D01*
X91501168Y-89264588D01*
X91454022Y-89440537D01*
X91434647Y-89662000D01*
X91454022Y-89883463D01*
X91467199Y-89932639D01*
X91504434Y-90071600D01*
X91511560Y-90098196D01*
X91513882Y-90103177D01*
X91513883Y-90103178D01*
X91603186Y-90294689D01*
X91603189Y-90294694D01*
X91605512Y-90299676D01*
X91608668Y-90304183D01*
X91608669Y-90304185D01*
X91707739Y-90445671D01*
X91733023Y-90481781D01*
X91890219Y-90638977D01*
X91894727Y-90642134D01*
X91894730Y-90642136D01*
X91970495Y-90695187D01*
X92072323Y-90766488D01*
X92077305Y-90768811D01*
X92077310Y-90768814D01*
X92182373Y-90817805D01*
X92235658Y-90864722D01*
X92255119Y-90932999D01*
X92234577Y-91000959D01*
X92182373Y-91046195D01*
X92077311Y-91095186D01*
X92077306Y-91095189D01*
X92072324Y-91097512D01*
X92067817Y-91100668D01*
X92067815Y-91100669D01*
X91894730Y-91221864D01*
X91894727Y-91221866D01*
X91890219Y-91225023D01*
X91733023Y-91382219D01*
X91729866Y-91386727D01*
X91729864Y-91386730D01*
X91674860Y-91465284D01*
X91605512Y-91564324D01*
X91603189Y-91569306D01*
X91603186Y-91569311D01*
X91524051Y-91739016D01*
X91511560Y-91765804D01*
X91454022Y-91980537D01*
X91434647Y-92202000D01*
X91454022Y-92423463D01*
X91511560Y-92638196D01*
X91513882Y-92643177D01*
X91513883Y-92643178D01*
X91603186Y-92834689D01*
X91603189Y-92834694D01*
X91605512Y-92839676D01*
X91608668Y-92844183D01*
X91608669Y-92844185D01*
X91694337Y-92966531D01*
X91733023Y-93021781D01*
X91890219Y-93178977D01*
X91894727Y-93182134D01*
X91894730Y-93182136D01*
X91980635Y-93242287D01*
X92024963Y-93297744D01*
X92032272Y-93368363D01*
X92000241Y-93431724D01*
X91939040Y-93467709D01*
X91908364Y-93471500D01*
X91899866Y-93471500D01*
X91837684Y-93478255D01*
X91830289Y-93481027D01*
X91830282Y-93481029D01*
X91804918Y-93490538D01*
X91734111Y-93495721D01*
X91671594Y-93461651D01*
X84441489Y-86231546D01*
X84428652Y-86216518D01*
X84420669Y-86205530D01*
X84370937Y-86160751D01*
X84366153Y-86156210D01*
X84352006Y-86142063D01*
X84348237Y-86139011D01*
X84336446Y-86129463D01*
X84331425Y-86125175D01*
X84286619Y-86084830D01*
X84286615Y-86084827D01*
X84281715Y-86080415D01*
X84276005Y-86077119D01*
X84276002Y-86077116D01*
X84269955Y-86073625D01*
X84253670Y-86062432D01*
X84243125Y-86053893D01*
X84183520Y-86023523D01*
X84177724Y-86020376D01*
X84171975Y-86017057D01*
X84119785Y-85986925D01*
X84106875Y-85982730D01*
X84088616Y-85975167D01*
X84076524Y-85969006D01*
X84011906Y-85951691D01*
X84005582Y-85949818D01*
X83983348Y-85942594D01*
X83941956Y-85929145D01*
X83935389Y-85928455D01*
X83935385Y-85928454D01*
X83929712Y-85927858D01*
X83928470Y-85927728D01*
X83909028Y-85924125D01*
X83895915Y-85920611D01*
X83889318Y-85920265D01*
X83889316Y-85920265D01*
X83829113Y-85917110D01*
X83822539Y-85916593D01*
X83805895Y-85914844D01*
X83805891Y-85914844D01*
X83802620Y-85914500D01*
X83782593Y-85914500D01*
X83775999Y-85914327D01*
X83715782Y-85911171D01*
X83715778Y-85911171D01*
X83709190Y-85910826D01*
X83702675Y-85911858D01*
X83702673Y-85911858D01*
X83695786Y-85912949D01*
X83676075Y-85914500D01*
X83577188Y-85914500D01*
X83509067Y-85894498D01*
X83488093Y-85877595D01*
X83408300Y-85797802D01*
X83403792Y-85794645D01*
X83403789Y-85794643D01*
X83311993Y-85730367D01*
X83220749Y-85666477D01*
X83215767Y-85664154D01*
X83215762Y-85664151D01*
X83180951Y-85647919D01*
X83127666Y-85601002D01*
X83108205Y-85532725D01*
X83128747Y-85464765D01*
X83180951Y-85419529D01*
X83215511Y-85403414D01*
X83225007Y-85397931D01*
X83403467Y-85272972D01*
X83411875Y-85265916D01*
X83565916Y-85111875D01*
X83572972Y-85103467D01*
X83697931Y-84925007D01*
X83703414Y-84915511D01*
X83795490Y-84718053D01*
X83799236Y-84707761D01*
X83845394Y-84535497D01*
X83845058Y-84521401D01*
X83837116Y-84518000D01*
X80896033Y-84518000D01*
X80882502Y-84521973D01*
X80881273Y-84530522D01*
X80928764Y-84707761D01*
X80932510Y-84718053D01*
X81024586Y-84915511D01*
X81030069Y-84925007D01*
X81155028Y-85103467D01*
X81162084Y-85111875D01*
X81316125Y-85265916D01*
X81324533Y-85272972D01*
X81502993Y-85397931D01*
X81512489Y-85403414D01*
X81547049Y-85419529D01*
X81600334Y-85466446D01*
X81619795Y-85534723D01*
X81599253Y-85602683D01*
X81547049Y-85647919D01*
X81512238Y-85664151D01*
X81512233Y-85664154D01*
X81507251Y-85666477D01*
X81416007Y-85730367D01*
X81324211Y-85794643D01*
X81324208Y-85794645D01*
X81319700Y-85797802D01*
X81157802Y-85959700D01*
X81154645Y-85964208D01*
X81154643Y-85964211D01*
X81099902Y-86042389D01*
X81026477Y-86147251D01*
X81024154Y-86152233D01*
X81024151Y-86152238D01*
X80932039Y-86349775D01*
X80929716Y-86354757D01*
X80928294Y-86360065D01*
X80928293Y-86360067D01*
X80895549Y-86482270D01*
X80870457Y-86575913D01*
X80850502Y-86804000D01*
X80870457Y-87032087D01*
X80871881Y-87037400D01*
X80871881Y-87037402D01*
X80919143Y-87213783D01*
X80929716Y-87253243D01*
X80932039Y-87258224D01*
X80932039Y-87258225D01*
X81024151Y-87455762D01*
X81024154Y-87455767D01*
X81026477Y-87460749D01*
X81090992Y-87552886D01*
X81154276Y-87643264D01*
X81157802Y-87648300D01*
X81319700Y-87810198D01*
X81324208Y-87813355D01*
X81324211Y-87813357D01*
X81396954Y-87864292D01*
X81507251Y-87941523D01*
X81512233Y-87943846D01*
X81512238Y-87943849D01*
X81546457Y-87959805D01*
X81599742Y-88006722D01*
X81619203Y-88074999D01*
X81598661Y-88142959D01*
X81546457Y-88188195D01*
X81512238Y-88204151D01*
X81512233Y-88204154D01*
X81507251Y-88206477D01*
X81405384Y-88277805D01*
X81324211Y-88334643D01*
X81324208Y-88334645D01*
X81319700Y-88337802D01*
X81157802Y-88499700D01*
X81154645Y-88504208D01*
X81154643Y-88504211D01*
X81140530Y-88524367D01*
X81026477Y-88687251D01*
X81024154Y-88692233D01*
X81024151Y-88692238D01*
X80933456Y-88886736D01*
X80929716Y-88894757D01*
X80928294Y-88900065D01*
X80928293Y-88900067D01*
X80879824Y-89080954D01*
X80870457Y-89115913D01*
X80850502Y-89344000D01*
X80870457Y-89572087D01*
X80871881Y-89577400D01*
X80871881Y-89577402D01*
X80907290Y-89709547D01*
X80929716Y-89793243D01*
X80932039Y-89798224D01*
X80932039Y-89798225D01*
X81024151Y-89995762D01*
X81024154Y-89995767D01*
X81026477Y-90000749D01*
X81157802Y-90188300D01*
X81319700Y-90350198D01*
X81324208Y-90353355D01*
X81324211Y-90353357D01*
X81396954Y-90404292D01*
X81507251Y-90481523D01*
X81512233Y-90483846D01*
X81512238Y-90483849D01*
X81546457Y-90499805D01*
X81599742Y-90546722D01*
X81619203Y-90614999D01*
X81598661Y-90682959D01*
X81546457Y-90728195D01*
X81512238Y-90744151D01*
X81512233Y-90744154D01*
X81507251Y-90746477D01*
X81475351Y-90768814D01*
X81324211Y-90874643D01*
X81324208Y-90874645D01*
X81319700Y-90877802D01*
X81157802Y-91039700D01*
X81026477Y-91227251D01*
X81024154Y-91232233D01*
X81024151Y-91232238D01*
X80936158Y-91420941D01*
X80929716Y-91434757D01*
X80928294Y-91440065D01*
X80928293Y-91440067D01*
X80894998Y-91564324D01*
X80870457Y-91655913D01*
X80850502Y-91884000D01*
X79938388Y-91884000D01*
X79939062Y-91881634D01*
X79939643Y-91879370D01*
X79942403Y-91872292D01*
X79950786Y-91808621D01*
X79951812Y-91802146D01*
X79963512Y-91739016D01*
X79959909Y-91676523D01*
X79959700Y-91669271D01*
X79959700Y-84420985D01*
X79979702Y-84352864D01*
X79996605Y-84331890D01*
X80788920Y-83539575D01*
X80851232Y-83505549D01*
X80922047Y-83510614D01*
X80978883Y-83553161D01*
X81003694Y-83619681D01*
X80992210Y-83681920D01*
X80932510Y-83809947D01*
X80928764Y-83820239D01*
X80882606Y-83992503D01*
X80882942Y-84006599D01*
X80890884Y-84010000D01*
X82091885Y-84010000D01*
X82107124Y-84005525D01*
X82108329Y-84004135D01*
X82110000Y-83996452D01*
X82110000Y-83991885D01*
X82618000Y-83991885D01*
X82622475Y-84007124D01*
X82623865Y-84008329D01*
X82631548Y-84010000D01*
X83831967Y-84010000D01*
X83845498Y-84006027D01*
X83846727Y-83997478D01*
X83799236Y-83820239D01*
X83795490Y-83809947D01*
X83703414Y-83612489D01*
X83697931Y-83602993D01*
X83572972Y-83424533D01*
X83565916Y-83416125D01*
X83411875Y-83262084D01*
X83403467Y-83255028D01*
X83225007Y-83130069D01*
X83215511Y-83124586D01*
X83018053Y-83032510D01*
X83007761Y-83028764D01*
X82797312Y-82972375D01*
X82786519Y-82970472D01*
X82632670Y-82957012D01*
X82620876Y-82960475D01*
X82619671Y-82961865D01*
X82618000Y-82969548D01*
X82618000Y-83991885D01*
X82110000Y-83991885D01*
X82110000Y-82974115D01*
X82105525Y-82958876D01*
X82104135Y-82957671D01*
X82099447Y-82956652D01*
X81941481Y-82970472D01*
X81930688Y-82972375D01*
X81720239Y-83028764D01*
X81709947Y-83032510D01*
X81581921Y-83092210D01*
X81511730Y-83102871D01*
X81446917Y-83073891D01*
X81408060Y-83014472D01*
X81407497Y-82943477D01*
X81439576Y-82888920D01*
X81791891Y-82536605D01*
X81854203Y-82502579D01*
X81880986Y-82499700D01*
X85060970Y-82499700D01*
X85069540Y-82499992D01*
X85119946Y-82503429D01*
X85119950Y-82503429D01*
X85127521Y-82503945D01*
X85134997Y-82502640D01*
X85135000Y-82502640D01*
X85190783Y-82492904D01*
X85197308Y-82491941D01*
X85253467Y-82485145D01*
X85253468Y-82485145D01*
X85261011Y-82484232D01*
X85268119Y-82481546D01*
X85270419Y-82480981D01*
X85287480Y-82476314D01*
X85289734Y-82475634D01*
X85297215Y-82474328D01*
X85356005Y-82448521D01*
X85362102Y-82446033D01*
X85415047Y-82426027D01*
X85415050Y-82426026D01*
X85422149Y-82423343D01*
X85428404Y-82419044D01*
X85430495Y-82417951D01*
X85445957Y-82409345D01*
X85447991Y-82408142D01*
X85454946Y-82405089D01*
X85460971Y-82400466D01*
X85460976Y-82400463D01*
X85505874Y-82366012D01*
X85511209Y-82362136D01*
X85557847Y-82330082D01*
X85557853Y-82330077D01*
X85564112Y-82325775D01*
X85605764Y-82279026D01*
X85610744Y-82273751D01*
X85837020Y-82047475D01*
X91435628Y-82047475D01*
X91454038Y-82257896D01*
X91455941Y-82268691D01*
X91510609Y-82472715D01*
X91514355Y-82483007D01*
X91603623Y-82674441D01*
X91609103Y-82683932D01*
X91639794Y-82727765D01*
X91650271Y-82736140D01*
X91663718Y-82729072D01*
X92337978Y-82054812D01*
X92344356Y-82043132D01*
X93074408Y-82043132D01*
X93074539Y-82044965D01*
X93078790Y-82051580D01*
X93757003Y-82729793D01*
X93768777Y-82736223D01*
X93780793Y-82726926D01*
X93810897Y-82683932D01*
X93816377Y-82674441D01*
X93905645Y-82483007D01*
X93909391Y-82472715D01*
X93964059Y-82268691D01*
X93965962Y-82257896D01*
X93984372Y-82047475D01*
X93984372Y-82036525D01*
X93965962Y-81826104D01*
X93964059Y-81815309D01*
X93909391Y-81611285D01*
X93905645Y-81600993D01*
X93816377Y-81409559D01*
X93810897Y-81400068D01*
X93780206Y-81356235D01*
X93769729Y-81347860D01*
X93756282Y-81354928D01*
X93082022Y-82029188D01*
X93074408Y-82043132D01*
X92344356Y-82043132D01*
X92345592Y-82040868D01*
X92345461Y-82039035D01*
X92341210Y-82032420D01*
X91662997Y-81354207D01*
X91651223Y-81347777D01*
X91639207Y-81357074D01*
X91609103Y-81400068D01*
X91603623Y-81409559D01*
X91514355Y-81600993D01*
X91510609Y-81611285D01*
X91455941Y-81815309D01*
X91454038Y-81826104D01*
X91435628Y-82036525D01*
X91435628Y-82047475D01*
X85837020Y-82047475D01*
X86902224Y-80982271D01*
X92015860Y-80982271D01*
X92022928Y-80995718D01*
X92697188Y-81669978D01*
X92711132Y-81677592D01*
X92712965Y-81677461D01*
X92719580Y-81673210D01*
X93397793Y-80994997D01*
X93404223Y-80983223D01*
X93394926Y-80971207D01*
X93351931Y-80941102D01*
X93342445Y-80935624D01*
X93151007Y-80846355D01*
X93140715Y-80842609D01*
X92936691Y-80787941D01*
X92925896Y-80786038D01*
X92715475Y-80767628D01*
X92704525Y-80767628D01*
X92494104Y-80786038D01*
X92483309Y-80787941D01*
X92279285Y-80842609D01*
X92268993Y-80846355D01*
X92077559Y-80935623D01*
X92068068Y-80941103D01*
X92024235Y-80971794D01*
X92015860Y-80982271D01*
X86902224Y-80982271D01*
X88112716Y-79771780D01*
X88118982Y-79765926D01*
X88157054Y-79732714D01*
X88162781Y-79727718D01*
X88199686Y-79675207D01*
X88203619Y-79669911D01*
X88238544Y-79625369D01*
X88238546Y-79625365D01*
X88243233Y-79619388D01*
X88246358Y-79612466D01*
X88247587Y-79610437D01*
X88256340Y-79595090D01*
X88257459Y-79593002D01*
X88261830Y-79586784D01*
X88285146Y-79526981D01*
X88287700Y-79520905D01*
X88310992Y-79469319D01*
X88310992Y-79469318D01*
X88314120Y-79462391D01*
X88315504Y-79454921D01*
X88316211Y-79452666D01*
X88321049Y-79435682D01*
X88321642Y-79433373D01*
X88324403Y-79426292D01*
X88325395Y-79418760D01*
X88332783Y-79362644D01*
X88333815Y-79356130D01*
X88344128Y-79300485D01*
X88344128Y-79300484D01*
X88345512Y-79293017D01*
X88344051Y-79267670D01*
X88341909Y-79230531D01*
X88341700Y-79223278D01*
X88341700Y-78349637D01*
X88361702Y-78281516D01*
X88395428Y-78246425D01*
X88474300Y-78191198D01*
X88636198Y-78029300D01*
X88767523Y-77841749D01*
X88769846Y-77836767D01*
X88769849Y-77836762D01*
X88785805Y-77802543D01*
X88832722Y-77749258D01*
X88900999Y-77729797D01*
X88968959Y-77750339D01*
X89014195Y-77802543D01*
X89030151Y-77836762D01*
X89030154Y-77836767D01*
X89032477Y-77841749D01*
X89163802Y-78029300D01*
X89325700Y-78191198D01*
X89330208Y-78194355D01*
X89330211Y-78194357D01*
X89404571Y-78246424D01*
X89513251Y-78322523D01*
X89518233Y-78324846D01*
X89518238Y-78324849D01*
X89714765Y-78416490D01*
X89720757Y-78419284D01*
X89726065Y-78420706D01*
X89726067Y-78420707D01*
X89936598Y-78477119D01*
X89936600Y-78477119D01*
X89941913Y-78478543D01*
X90170000Y-78498498D01*
X90398087Y-78478543D01*
X90403400Y-78477119D01*
X90403402Y-78477119D01*
X90613933Y-78420707D01*
X90613935Y-78420706D01*
X90619243Y-78419284D01*
X90625235Y-78416490D01*
X90821762Y-78324849D01*
X90821767Y-78324846D01*
X90826749Y-78322523D01*
X90935429Y-78246424D01*
X91009789Y-78194357D01*
X91009792Y-78194355D01*
X91014300Y-78191198D01*
X91176198Y-78029300D01*
X91307523Y-77841749D01*
X91309846Y-77836767D01*
X91309849Y-77836762D01*
X91325805Y-77802543D01*
X91372722Y-77749258D01*
X91440999Y-77729797D01*
X91508959Y-77750339D01*
X91554195Y-77802543D01*
X91570151Y-77836762D01*
X91570154Y-77836767D01*
X91572477Y-77841749D01*
X91703802Y-78029300D01*
X91865700Y-78191198D01*
X91870208Y-78194355D01*
X91870211Y-78194357D01*
X91944571Y-78246424D01*
X92053251Y-78322523D01*
X92058233Y-78324846D01*
X92058238Y-78324849D01*
X92254765Y-78416490D01*
X92260757Y-78419284D01*
X92266065Y-78420706D01*
X92266067Y-78420707D01*
X92476598Y-78477119D01*
X92476600Y-78477119D01*
X92481913Y-78478543D01*
X92710000Y-78498498D01*
X92938087Y-78478543D01*
X92943400Y-78477119D01*
X92943402Y-78477119D01*
X93153933Y-78420707D01*
X93153935Y-78420706D01*
X93159243Y-78419284D01*
X93165235Y-78416490D01*
X93361762Y-78324849D01*
X93361767Y-78324846D01*
X93366749Y-78322523D01*
X93475429Y-78246424D01*
X93549789Y-78194357D01*
X93549792Y-78194355D01*
X93554300Y-78191198D01*
X93716198Y-78029300D01*
X93847523Y-77841749D01*
X93849846Y-77836767D01*
X93849849Y-77836762D01*
X93865805Y-77802543D01*
X93912722Y-77749258D01*
X93980999Y-77729797D01*
X94048959Y-77750339D01*
X94094195Y-77802543D01*
X94110151Y-77836762D01*
X94110154Y-77836767D01*
X94112477Y-77841749D01*
X94243802Y-78029300D01*
X94405700Y-78191198D01*
X94410208Y-78194355D01*
X94410211Y-78194357D01*
X94484571Y-78246424D01*
X94593251Y-78322523D01*
X94598233Y-78324846D01*
X94598238Y-78324849D01*
X94794765Y-78416490D01*
X94800757Y-78419284D01*
X94806065Y-78420706D01*
X94806067Y-78420707D01*
X95016598Y-78477119D01*
X95016600Y-78477119D01*
X95021913Y-78478543D01*
X95250000Y-78498498D01*
X95478087Y-78478543D01*
X95483400Y-78477119D01*
X95483402Y-78477119D01*
X95693933Y-78420707D01*
X95693935Y-78420706D01*
X95699243Y-78419284D01*
X95705235Y-78416490D01*
X95901762Y-78324849D01*
X95901767Y-78324846D01*
X95906749Y-78322523D01*
X96015429Y-78246424D01*
X96089789Y-78194357D01*
X96089792Y-78194355D01*
X96094300Y-78191198D01*
X96256198Y-78029300D01*
X96387523Y-77841749D01*
X96389846Y-77836767D01*
X96389849Y-77836762D01*
X96405805Y-77802543D01*
X96452722Y-77749258D01*
X96520999Y-77729797D01*
X96588959Y-77750339D01*
X96634195Y-77802543D01*
X96650151Y-77836762D01*
X96650154Y-77836767D01*
X96652477Y-77841749D01*
X96783802Y-78029300D01*
X96945700Y-78191198D01*
X96950208Y-78194355D01*
X96950211Y-78194357D01*
X97024571Y-78246424D01*
X97133251Y-78322523D01*
X97138233Y-78324846D01*
X97138238Y-78324849D01*
X97334765Y-78416490D01*
X97340757Y-78419284D01*
X97346065Y-78420706D01*
X97346067Y-78420707D01*
X97556598Y-78477119D01*
X97556600Y-78477119D01*
X97561913Y-78478543D01*
X97790000Y-78498498D01*
X98018087Y-78478543D01*
X98023400Y-78477119D01*
X98023402Y-78477119D01*
X98233933Y-78420707D01*
X98233935Y-78420706D01*
X98239243Y-78419284D01*
X98245235Y-78416490D01*
X98441762Y-78324849D01*
X98441767Y-78324846D01*
X98446749Y-78322523D01*
X98555429Y-78246424D01*
X98629789Y-78194357D01*
X98629792Y-78194355D01*
X98634300Y-78191198D01*
X98796198Y-78029300D01*
X98927523Y-77841749D01*
X98929846Y-77836767D01*
X98929849Y-77836762D01*
X98946081Y-77801951D01*
X98992998Y-77748666D01*
X99061275Y-77729205D01*
X99129235Y-77749747D01*
X99174471Y-77801951D01*
X99190586Y-77836511D01*
X99196069Y-77846007D01*
X99321028Y-78024467D01*
X99328084Y-78032875D01*
X99482125Y-78186916D01*
X99490533Y-78193972D01*
X99668993Y-78318931D01*
X99678489Y-78324414D01*
X99875947Y-78416490D01*
X99886239Y-78420236D01*
X100058503Y-78466394D01*
X100072599Y-78466058D01*
X100076000Y-78458116D01*
X100076000Y-78452967D01*
X100584000Y-78452967D01*
X100587973Y-78466498D01*
X100596522Y-78467727D01*
X100773761Y-78420236D01*
X100784053Y-78416490D01*
X100981511Y-78324414D01*
X100991007Y-78318931D01*
X101169467Y-78193972D01*
X101177875Y-78186916D01*
X101331916Y-78032875D01*
X101338972Y-78024467D01*
X101463931Y-77846007D01*
X101469414Y-77836511D01*
X101485529Y-77801951D01*
X101532446Y-77748666D01*
X101600723Y-77729205D01*
X101668683Y-77749747D01*
X101713919Y-77801951D01*
X101730151Y-77836762D01*
X101730154Y-77836767D01*
X101732477Y-77841749D01*
X101863802Y-78029300D01*
X102025700Y-78191198D01*
X102030208Y-78194355D01*
X102030211Y-78194357D01*
X102104571Y-78246424D01*
X102213251Y-78322523D01*
X102218233Y-78324846D01*
X102218238Y-78324849D01*
X102414765Y-78416490D01*
X102420757Y-78419284D01*
X102426065Y-78420706D01*
X102426067Y-78420707D01*
X102636598Y-78477119D01*
X102636600Y-78477119D01*
X102641913Y-78478543D01*
X102870000Y-78498498D01*
X103098087Y-78478543D01*
X103103400Y-78477119D01*
X103103402Y-78477119D01*
X103313933Y-78420707D01*
X103313935Y-78420706D01*
X103319243Y-78419284D01*
X103325235Y-78416490D01*
X103521762Y-78324849D01*
X103521767Y-78324846D01*
X103526749Y-78322523D01*
X103635429Y-78246424D01*
X103709789Y-78194357D01*
X103709792Y-78194355D01*
X103714300Y-78191198D01*
X103876198Y-78029300D01*
X104007523Y-77841749D01*
X104009846Y-77836767D01*
X104009849Y-77836762D01*
X104101961Y-77639225D01*
X104101961Y-77639224D01*
X104104284Y-77634243D01*
X104163543Y-77413087D01*
X104178500Y-77242127D01*
X104178500Y-76727873D01*
X104177750Y-76719293D01*
X104164022Y-76562393D01*
X104163543Y-76556913D01*
X104158659Y-76538684D01*
X104105707Y-76341067D01*
X104105706Y-76341065D01*
X104104284Y-76335757D01*
X104090410Y-76306004D01*
X104009849Y-76133238D01*
X104009846Y-76133233D01*
X104007523Y-76128251D01*
X103919825Y-76003005D01*
X103879357Y-75945211D01*
X103879355Y-75945208D01*
X103876198Y-75940700D01*
X103714300Y-75778802D01*
X103709792Y-75775645D01*
X103709789Y-75775643D01*
X103582928Y-75686814D01*
X103526749Y-75647477D01*
X103521767Y-75645154D01*
X103521762Y-75645151D01*
X103324225Y-75553039D01*
X103324224Y-75553039D01*
X103319243Y-75550716D01*
X103313935Y-75549294D01*
X103313933Y-75549293D01*
X103103402Y-75492881D01*
X103103400Y-75492881D01*
X103098087Y-75491457D01*
X102870000Y-75471502D01*
X102641913Y-75491457D01*
X102636600Y-75492881D01*
X102636598Y-75492881D01*
X102426067Y-75549293D01*
X102426065Y-75549294D01*
X102420757Y-75550716D01*
X102415776Y-75553039D01*
X102415775Y-75553039D01*
X102218238Y-75645151D01*
X102218233Y-75645154D01*
X102213251Y-75647477D01*
X102157072Y-75686814D01*
X102030211Y-75775643D01*
X102030208Y-75775645D01*
X102025700Y-75778802D01*
X101863802Y-75940700D01*
X101860645Y-75945208D01*
X101860643Y-75945211D01*
X101820175Y-76003005D01*
X101732477Y-76128251D01*
X101730154Y-76133233D01*
X101730151Y-76133238D01*
X101713919Y-76168049D01*
X101667002Y-76221334D01*
X101598725Y-76240795D01*
X101530765Y-76220253D01*
X101485529Y-76168049D01*
X101469414Y-76133489D01*
X101463931Y-76123993D01*
X101338972Y-75945533D01*
X101331916Y-75937125D01*
X101177875Y-75783084D01*
X101169467Y-75776028D01*
X100991007Y-75651069D01*
X100981511Y-75645586D01*
X100784053Y-75553510D01*
X100773761Y-75549764D01*
X100601497Y-75503606D01*
X100587401Y-75503942D01*
X100584000Y-75511884D01*
X100584000Y-78452967D01*
X100076000Y-78452967D01*
X100076000Y-75517033D01*
X100072027Y-75503502D01*
X100063478Y-75502273D01*
X99886239Y-75549764D01*
X99875947Y-75553510D01*
X99678489Y-75645586D01*
X99668993Y-75651069D01*
X99490533Y-75776028D01*
X99482125Y-75783084D01*
X99328084Y-75937125D01*
X99321028Y-75945533D01*
X99196069Y-76123993D01*
X99190586Y-76133489D01*
X99174471Y-76168049D01*
X99127554Y-76221334D01*
X99059277Y-76240795D01*
X98991317Y-76220253D01*
X98946081Y-76168049D01*
X98929849Y-76133238D01*
X98929846Y-76133233D01*
X98927523Y-76128251D01*
X98839825Y-76003005D01*
X98799357Y-75945211D01*
X98799355Y-75945208D01*
X98796198Y-75940700D01*
X98634300Y-75778802D01*
X98629792Y-75775645D01*
X98629789Y-75775643D01*
X98502928Y-75686814D01*
X98446749Y-75647477D01*
X98441767Y-75645154D01*
X98441762Y-75645151D01*
X98244225Y-75553039D01*
X98244224Y-75553039D01*
X98239243Y-75550716D01*
X98233935Y-75549294D01*
X98233933Y-75549293D01*
X98023402Y-75492881D01*
X98023400Y-75492881D01*
X98018087Y-75491457D01*
X97790000Y-75471502D01*
X97561913Y-75491457D01*
X97556600Y-75492881D01*
X97556598Y-75492881D01*
X97346067Y-75549293D01*
X97346065Y-75549294D01*
X97340757Y-75550716D01*
X97335776Y-75553039D01*
X97335775Y-75553039D01*
X97138238Y-75645151D01*
X97138233Y-75645154D01*
X97133251Y-75647477D01*
X97077072Y-75686814D01*
X96950211Y-75775643D01*
X96950208Y-75775645D01*
X96945700Y-75778802D01*
X96783802Y-75940700D01*
X96780645Y-75945208D01*
X96780643Y-75945211D01*
X96740175Y-76003005D01*
X96652477Y-76128251D01*
X96650154Y-76133233D01*
X96650151Y-76133238D01*
X96634195Y-76167457D01*
X96587278Y-76220742D01*
X96519001Y-76240203D01*
X96451041Y-76219661D01*
X96405805Y-76167457D01*
X96389849Y-76133238D01*
X96389846Y-76133233D01*
X96387523Y-76128251D01*
X96299825Y-76003005D01*
X96259357Y-75945211D01*
X96259355Y-75945208D01*
X96256198Y-75940700D01*
X96094300Y-75778802D01*
X96015428Y-75723575D01*
X95971101Y-75668119D01*
X95961700Y-75620363D01*
X95961700Y-74705029D01*
X95961992Y-74696459D01*
X95965429Y-74646053D01*
X95965429Y-74646049D01*
X95965945Y-74638478D01*
X95963225Y-74622891D01*
X95954905Y-74575225D01*
X95953942Y-74568699D01*
X95947145Y-74512532D01*
X95947145Y-74512531D01*
X95946232Y-74504989D01*
X95943547Y-74497882D01*
X95942989Y-74495612D01*
X95938317Y-74478532D01*
X95937633Y-74476266D01*
X95936327Y-74468785D01*
X95910527Y-74410010D01*
X95908039Y-74403914D01*
X95888027Y-74350954D01*
X95885343Y-74343851D01*
X95881043Y-74337594D01*
X95879960Y-74335523D01*
X95871350Y-74320054D01*
X95870142Y-74318011D01*
X95867088Y-74311054D01*
X95827995Y-74260107D01*
X95824139Y-74254799D01*
X95792079Y-74208149D01*
X95792074Y-74208144D01*
X95787775Y-74201888D01*
X95741035Y-74160244D01*
X95735760Y-74155264D01*
X94948091Y-73367595D01*
X94914065Y-73305283D01*
X94919130Y-73234468D01*
X94961677Y-73177632D01*
X95028197Y-73152821D01*
X95037186Y-73152500D01*
X111125500Y-73152500D01*
X111193621Y-73172502D01*
G37*
%TD.AperFunction*%
%TD*%
M02*
