%TF.GenerationSoftware,KiCad,Pcbnew,(6.0.4)*%
%TF.CreationDate,2022-09-30T21:10:11-05:00*%
%TF.ProjectId,WiRSa,57695253-612e-46b6-9963-61645f706362,rev?*%
%TF.SameCoordinates,Original*%
%TF.FileFunction,Soldermask,Top*%
%TF.FilePolarity,Negative*%
%FSLAX46Y46*%
G04 Gerber Fmt 4.6, Leading zero omitted, Abs format (unit mm)*
G04 Created by KiCad (PCBNEW (6.0.4)) date 2022-09-30 21:10:11*
%MOMM*%
%LPD*%
G01*
G04 APERTURE LIST*
%ADD10R,1.700000X1.700000*%
%ADD11O,1.700000X1.700000*%
%ADD12R,2.000000X2.000000*%
%ADD13O,1.600000X2.000000*%
%ADD14C,1.600000*%
%ADD15O,1.600000X1.600000*%
%ADD16C,2.100000*%
%ADD17C,1.750000*%
%ADD18O,2.000000X1.600000*%
%ADD19C,1.400000*%
%ADD20R,1.524000X1.524000*%
%ADD21C,1.524000*%
G04 APERTURE END LIST*
D10*
%TO.C,RS232*%
X74295000Y-92065000D03*
D11*
X74295000Y-89525000D03*
X74295000Y-86985000D03*
X74295000Y-84445000D03*
%TD*%
D12*
%TO.C,U1*%
X85090000Y-99845000D03*
D13*
X87630000Y-99845000D03*
X90170000Y-99845000D03*
X92710000Y-99845000D03*
X95250000Y-99845000D03*
X97790000Y-99845000D03*
X100330000Y-99845000D03*
X102870000Y-99845000D03*
X102870000Y-76985000D03*
X100330000Y-76985000D03*
X97790000Y-76985000D03*
X95250000Y-76985000D03*
X92710000Y-76985000D03*
X90170000Y-76985000D03*
X87630000Y-76985000D03*
X85090000Y-76985000D03*
%TD*%
D14*
%TO.C,R1*%
X69342000Y-95250000D03*
D15*
X61722000Y-95250000D03*
%TD*%
D14*
%TO.C,R4*%
X71628000Y-81534000D03*
D15*
X79248000Y-81534000D03*
%TD*%
D14*
%TO.C,R2*%
X71628000Y-95250000D03*
D15*
X79248000Y-95250000D03*
%TD*%
D16*
%TO.C,SW1*%
X69006000Y-98856000D03*
X61996000Y-98856000D03*
D17*
X63246000Y-101346000D03*
X67746000Y-101346000D03*
%TD*%
D14*
%TO.C,R3*%
X69342000Y-81534000D03*
D15*
X61722000Y-81534000D03*
%TD*%
D16*
%TO.C,SW4*%
X78963000Y-77878500D03*
X71953000Y-77878500D03*
D17*
X77713000Y-75388500D03*
X73213000Y-75388500D03*
%TD*%
D18*
%TO.C,Brd1*%
X82364000Y-91884000D03*
X82364000Y-89344000D03*
X82364000Y-86804000D03*
X82364000Y-84264000D03*
%TD*%
D19*
%TO.C,TX*%
X69576000Y-86868000D03*
X67036000Y-86868000D03*
%TD*%
D16*
%TO.C,SW3*%
X62047000Y-77878500D03*
X69057000Y-77878500D03*
D17*
X67807000Y-75388500D03*
X63307000Y-75388500D03*
%TD*%
D19*
%TO.C,RX*%
X67036000Y-89662000D03*
X69576000Y-89662000D03*
%TD*%
D16*
%TO.C,SW2*%
X71902000Y-98856000D03*
X78912000Y-98856000D03*
D17*
X73152000Y-101346000D03*
X77652000Y-101346000D03*
%TD*%
D20*
%TO.C,A1*%
X92710000Y-94742000D03*
D21*
X92710000Y-92202000D03*
X92710000Y-89662000D03*
X92710000Y-87122000D03*
X92710000Y-84582000D03*
X92710000Y-82042000D03*
%TD*%
M02*
