M48
; DRILL file {KiCad (6.0.4)} date Fri Sep 30 21:10:18 2022
; FORMAT={-:-/ absolute / inch / decimal}
; #@! TF.CreationDate,2022-09-30T21:10:18-05:00
; #@! TF.GenerationSoftware,Kicad,Pcbnew,(6.0.4)
; #@! TF.FileFunction,Plated,1,2,PTH
FMAT,2
INCH
; #@! TA.AperFunction,Plated,PTH,ComponentDrill
T1C0.0300
; #@! TA.AperFunction,Plated,PTH,ComponentDrill
T2C0.0315
; #@! TA.AperFunction,Plated,PTH,ComponentDrill
T3C0.0390
; #@! TA.AperFunction,Plated,PTH,ComponentDrill
T4C0.0394
; #@! TA.AperFunction,Plated,PTH,ComponentDrill
T5C0.0512
%
G90
G05
T1
X3.65Y-3.23
X3.65Y-3.33
X3.65Y-3.43
X3.65Y-3.53
X3.65Y-3.63
X3.65Y-3.73
T2
X2.43Y-3.21
X2.43Y-3.75
X2.6392Y-3.42
X2.6392Y-3.53
X2.73Y-3.21
X2.73Y-3.75
X2.7392Y-3.42
X2.7392Y-3.53
X2.82Y-3.21
X2.82Y-3.75
X3.12Y-3.21
X3.12Y-3.75
T3
X2.49Y-3.99
X2.4924Y-2.9681
X2.6672Y-3.99
X2.6696Y-2.9681
X2.88Y-3.99
X2.8824Y-2.9681
X3.0572Y-3.99
X3.0596Y-2.9681
T4
X2.925Y-3.3246
X2.925Y-3.4246
X2.925Y-3.5246
X2.925Y-3.6246
X3.2427Y-3.3175
X3.2427Y-3.4175
X3.2427Y-3.5175
X3.2427Y-3.6175
X3.35Y-3.0309
X3.35Y-3.9309
X3.45Y-3.0309
X3.45Y-3.9309
X3.55Y-3.0309
X3.55Y-3.9309
X3.65Y-3.0309
X3.65Y-3.9309
X3.75Y-3.0309
X3.75Y-3.9309
X3.85Y-3.0309
X3.85Y-3.9309
X3.95Y-3.0309
X3.95Y-3.9309
X4.05Y-3.0309
X4.05Y-3.9309
T5
X2.4408Y-3.892
X2.4428Y-3.0661
X2.7168Y-3.892
X2.7188Y-3.0661
X2.8308Y-3.892
X2.8328Y-3.0661
X3.1068Y-3.892
X3.1088Y-3.0661
T0
M30
