%TF.GenerationSoftware,KiCad,Pcbnew,(6.0.4)*%
%TF.CreationDate,2022-09-30T21:10:11-05:00*%
%TF.ProjectId,WiRSa,57695253-612e-46b6-9963-61645f706362,rev?*%
%TF.SameCoordinates,Original*%
%TF.FileFunction,Copper,L2,Bot*%
%TF.FilePolarity,Positive*%
%FSLAX46Y46*%
G04 Gerber Fmt 4.6, Leading zero omitted, Abs format (unit mm)*
G04 Created by KiCad (PCBNEW (6.0.4)) date 2022-09-30 21:10:11*
%MOMM*%
%LPD*%
G01*
G04 APERTURE LIST*
%TA.AperFunction,ComponentPad*%
%ADD10R,1.700000X1.700000*%
%TD*%
%TA.AperFunction,ComponentPad*%
%ADD11O,1.700000X1.700000*%
%TD*%
%TA.AperFunction,ComponentPad*%
%ADD12R,2.000000X2.000000*%
%TD*%
%TA.AperFunction,ComponentPad*%
%ADD13O,1.600000X2.000000*%
%TD*%
%TA.AperFunction,ComponentPad*%
%ADD14C,1.600000*%
%TD*%
%TA.AperFunction,ComponentPad*%
%ADD15O,1.600000X1.600000*%
%TD*%
%TA.AperFunction,ComponentPad*%
%ADD16C,2.100000*%
%TD*%
%TA.AperFunction,ComponentPad*%
%ADD17C,1.750000*%
%TD*%
%TA.AperFunction,ComponentPad*%
%ADD18O,2.000000X1.600000*%
%TD*%
%TA.AperFunction,ComponentPad*%
%ADD19C,1.400000*%
%TD*%
%TA.AperFunction,ComponentPad*%
%ADD20R,1.524000X1.524000*%
%TD*%
%TA.AperFunction,ComponentPad*%
%ADD21C,1.524000*%
%TD*%
%TA.AperFunction,Conductor*%
%ADD22C,0.406400*%
%TD*%
%TA.AperFunction,Conductor*%
%ADD23C,0.762000*%
%TD*%
G04 APERTURE END LIST*
D10*
%TO.P,RS232,1,VCC*%
%TO.N,Net-(J1-Pad1)*%
X74295000Y-92065000D03*
D11*
%TO.P,RS232,2,RXD*%
%TO.N,Net-(J1-Pad2)*%
X74295000Y-89525000D03*
%TO.P,RS232,3,TXD*%
%TO.N,Net-(J1-Pad3)*%
X74295000Y-86985000D03*
%TO.P,RS232,4,GND*%
%TO.N,GND*%
X74295000Y-84445000D03*
%TD*%
D12*
%TO.P,U1,1,~{RST}*%
%TO.N,unconnected-(U1-Pad1)*%
X85090000Y-99845000D03*
D13*
%TO.P,U1,2,A0*%
%TO.N,Net-(R1-Pad2)*%
X87630000Y-99845000D03*
%TO.P,U1,3,D0*%
%TO.N,Net-(R2-Pad2)*%
X90170000Y-99845000D03*
%TO.P,U1,4,SCK/D5*%
%TO.N,Net-(A1-Pad4)*%
X92710000Y-99845000D03*
%TO.P,U1,5,MISO/D6*%
%TO.N,Net-(A1-Pad5)*%
X95250000Y-99845000D03*
%TO.P,U1,6,MOSI/D7*%
%TO.N,Net-(A1-Pad3)*%
X97790000Y-99845000D03*
%TO.P,U1,7,CS/D8*%
%TO.N,Net-(A1-Pad2)*%
X100330000Y-99845000D03*
%TO.P,U1,8,3V3*%
%TO.N,Net-(A1-Pad1)*%
X102870000Y-99845000D03*
%TO.P,U1,9,5V*%
%TO.N,Net-(J1-Pad1)*%
X102870000Y-76985000D03*
%TO.P,U1,10,GND*%
%TO.N,GND*%
X100330000Y-76985000D03*
%TO.P,U1,11,D4*%
%TO.N,Net-(R4-Pad2)*%
X97790000Y-76985000D03*
%TO.P,U1,12,D3*%
%TO.N,Net-(R3-Pad2)*%
X95250000Y-76985000D03*
%TO.P,U1,13,SDA/D2*%
%TO.N,Net-(Brd1-Pad4)*%
X92710000Y-76985000D03*
%TO.P,U1,14,SCL/D1*%
%TO.N,Net-(Brd1-Pad3)*%
X90170000Y-76985000D03*
%TO.P,U1,15,RX*%
%TO.N,Net-(JP1-Pad2)*%
X87630000Y-76985000D03*
%TO.P,U1,16,TX*%
%TO.N,Net-(JP2-Pad2)*%
X85090000Y-76985000D03*
%TD*%
D14*
%TO.P,R1,1*%
%TO.N,Net-(A1-Pad1)*%
X69342000Y-95250000D03*
D15*
%TO.P,R1,2*%
%TO.N,Net-(R1-Pad2)*%
X61722000Y-95250000D03*
%TD*%
D14*
%TO.P,R4,1*%
%TO.N,Net-(A1-Pad1)*%
X71628000Y-81534000D03*
D15*
%TO.P,R4,2*%
%TO.N,Net-(R4-Pad2)*%
X79248000Y-81534000D03*
%TD*%
D14*
%TO.P,R2,1*%
%TO.N,Net-(A1-Pad1)*%
X71628000Y-95250000D03*
D15*
%TO.P,R2,2*%
%TO.N,Net-(R2-Pad2)*%
X79248000Y-95250000D03*
%TD*%
D16*
%TO.P,SW1,*%
%TO.N,*%
X69006000Y-98856000D03*
X61996000Y-98856000D03*
D17*
%TO.P,SW1,1,1*%
%TO.N,GND*%
X63246000Y-101346000D03*
%TO.P,SW1,2,2*%
%TO.N,Net-(R1-Pad2)*%
X67746000Y-101346000D03*
%TD*%
D14*
%TO.P,R3,1*%
%TO.N,Net-(A1-Pad1)*%
X69342000Y-81534000D03*
D15*
%TO.P,R3,2*%
%TO.N,Net-(R3-Pad2)*%
X61722000Y-81534000D03*
%TD*%
D16*
%TO.P,SW4,*%
%TO.N,*%
X78963000Y-77878500D03*
X71953000Y-77878500D03*
D17*
%TO.P,SW4,1,1*%
%TO.N,GND*%
X77713000Y-75388500D03*
%TO.P,SW4,2,2*%
%TO.N,Net-(R4-Pad2)*%
X73213000Y-75388500D03*
%TD*%
D18*
%TO.P,Brd1,4,SDA*%
%TO.N,Net-(Brd1-Pad4)*%
X82364000Y-91884000D03*
%TO.P,Brd1,3,SCL*%
%TO.N,Net-(Brd1-Pad3)*%
X82364000Y-89344000D03*
%TO.P,Brd1,2,VCC*%
%TO.N,Net-(A1-Pad1)*%
X82364000Y-86804000D03*
%TO.P,Brd1,1,GND*%
%TO.N,GND*%
X82364000Y-84264000D03*
%TD*%
D19*
%TO.P,TX,1,A*%
%TO.N,Net-(J1-Pad3)*%
X69576000Y-86868000D03*
%TO.P,TX,2,B*%
%TO.N,Net-(JP2-Pad2)*%
X67036000Y-86868000D03*
%TD*%
D16*
%TO.P,SW3,*%
%TO.N,*%
X62047000Y-77878500D03*
X69057000Y-77878500D03*
D17*
%TO.P,SW3,1,1*%
%TO.N,GND*%
X67807000Y-75388500D03*
%TO.P,SW3,2,2*%
%TO.N,Net-(R3-Pad2)*%
X63307000Y-75388500D03*
%TD*%
D19*
%TO.P,RX,2,B*%
%TO.N,Net-(JP1-Pad2)*%
X67036000Y-89662000D03*
%TO.P,RX,1,A*%
%TO.N,Net-(J1-Pad2)*%
X69576000Y-89662000D03*
%TD*%
D16*
%TO.P,SW2,*%
%TO.N,*%
X71902000Y-98856000D03*
X78912000Y-98856000D03*
D17*
%TO.P,SW2,1,1*%
%TO.N,GND*%
X73152000Y-101346000D03*
%TO.P,SW2,2,2*%
%TO.N,Net-(R2-Pad2)*%
X77652000Y-101346000D03*
%TD*%
D20*
%TO.P,A1,1,3V3*%
%TO.N,Net-(A1-Pad1)*%
X92710000Y-94742000D03*
D21*
%TO.P,A1,2,CS*%
%TO.N,Net-(A1-Pad2)*%
X92710000Y-92202000D03*
%TO.P,A1,3,MOSI*%
%TO.N,Net-(A1-Pad3)*%
X92710000Y-89662000D03*
%TO.P,A1,4,CLK*%
%TO.N,Net-(A1-Pad4)*%
X92710000Y-87122000D03*
%TO.P,A1,5,MISO*%
%TO.N,Net-(A1-Pad5)*%
X92710000Y-84582000D03*
%TO.P,A1,6,GND*%
%TO.N,GND*%
X92710000Y-82042000D03*
%TD*%
D22*
%TO.N,Net-(R1-Pad2)*%
X86360000Y-103378000D02*
X87630000Y-102108000D01*
X67746000Y-101346000D02*
X69778000Y-103378000D01*
X69778000Y-103378000D02*
X86360000Y-103378000D01*
D23*
%TO.N,Net-(A1-Pad1)*%
X65024000Y-85852000D02*
X65024000Y-86360000D01*
X69342000Y-81534000D02*
X65024000Y-85852000D01*
X71628000Y-81534000D02*
X69342000Y-81534000D01*
X75692000Y-81534000D02*
X71628000Y-81534000D01*
X80962000Y-86804000D02*
X75692000Y-81534000D01*
%TO.N,Net-(J1-Pad1)*%
X102870000Y-77470000D02*
X102870000Y-76985000D01*
X89154000Y-91440000D02*
X89154000Y-82804000D01*
X101092000Y-79248000D02*
X102870000Y-77470000D01*
X86868000Y-93726000D02*
X89154000Y-91440000D01*
X80772000Y-93726000D02*
X86868000Y-93726000D01*
X89154000Y-82804000D02*
X92710000Y-79248000D01*
X92710000Y-79248000D02*
X101092000Y-79248000D01*
X79111000Y-92065000D02*
X80772000Y-93726000D01*
X74295000Y-92065000D02*
X79111000Y-92065000D01*
D22*
%TO.N,Net-(Brd1-Pad4)*%
X85154000Y-91884000D02*
X82364000Y-91884000D01*
X92687000Y-76985000D02*
X86868000Y-82804000D01*
X86868000Y-90170000D02*
X85154000Y-91884000D01*
X92710000Y-76985000D02*
X92687000Y-76985000D01*
X86868000Y-82804000D02*
X86868000Y-90170000D01*
%TO.N,Net-(Brd1-Pad3)*%
X84138000Y-89344000D02*
X82364000Y-89344000D01*
X85344000Y-81788000D02*
X85344000Y-88138000D01*
X85344000Y-88138000D02*
X84138000Y-89344000D01*
X90147000Y-76985000D02*
X85344000Y-81788000D01*
X90170000Y-76985000D02*
X90147000Y-76985000D01*
%TO.N,Net-(J1-Pad3)*%
X74178000Y-86868000D02*
X74295000Y-86985000D01*
X69576000Y-86868000D02*
X74178000Y-86868000D01*
%TO.N,Net-(J1-Pad2)*%
X74158000Y-89662000D02*
X74295000Y-89525000D01*
X69576000Y-89662000D02*
X74158000Y-89662000D01*
%TO.N,Net-(R4-Pad2)*%
X75195500Y-73406000D02*
X73213000Y-75388500D01*
X95758000Y-73406000D02*
X75195500Y-73406000D01*
X97790000Y-75438000D02*
X95758000Y-73406000D01*
X97790000Y-76985000D02*
X97790000Y-75438000D01*
X73356500Y-75388500D02*
X73213000Y-75388500D01*
X79248000Y-81280000D02*
X73356500Y-75388500D01*
%TO.N,Net-(R1-Pad2)*%
X61722000Y-95322000D02*
X61722000Y-95250000D01*
X67746000Y-101346000D02*
X61722000Y-95322000D01*
X87630000Y-102108000D02*
X87630000Y-99845000D01*
%TO.N,Net-(R2-Pad2)*%
X77978000Y-95250000D02*
X76962000Y-96266000D01*
X76962000Y-96266000D02*
X76962000Y-100656000D01*
X76962000Y-100656000D02*
X77652000Y-101346000D01*
X79248000Y-95250000D02*
X77978000Y-95250000D01*
X86614000Y-95250000D02*
X90170000Y-98806000D01*
X90170000Y-98806000D02*
X90170000Y-99845000D01*
X79248000Y-95250000D02*
X86614000Y-95250000D01*
%TO.N,Net-(A1-Pad5)*%
X96520000Y-84582000D02*
X92710000Y-84582000D01*
X106680000Y-102616000D02*
X106680000Y-94742000D01*
X105918000Y-103378000D02*
X106680000Y-102616000D01*
X97028000Y-103378000D02*
X105918000Y-103378000D01*
X95250000Y-101600000D02*
X97028000Y-103378000D01*
X106680000Y-94742000D02*
X96520000Y-84582000D01*
X95250000Y-99845000D02*
X95250000Y-101600000D01*
%TO.N,Net-(A1-Pad3)*%
X96520000Y-89662000D02*
X92710000Y-89662000D01*
X105156000Y-98298000D02*
X96520000Y-89662000D01*
X105156000Y-101346000D02*
X105156000Y-98298000D01*
X104394000Y-102108000D02*
X105156000Y-101346000D01*
X98806000Y-102108000D02*
X104394000Y-102108000D01*
X97790000Y-101092000D02*
X98806000Y-102108000D01*
X97790000Y-99845000D02*
X97790000Y-101092000D01*
%TO.N,Net-(A1-Pad4)*%
X90678000Y-87630000D02*
X90678000Y-89154000D01*
X90678000Y-91694000D02*
X90678000Y-89154000D01*
X91186000Y-87122000D02*
X90678000Y-87630000D01*
X92710000Y-87122000D02*
X91186000Y-87122000D01*
X90678000Y-89154000D02*
X90678000Y-88646000D01*
X90678000Y-97813000D02*
X90678000Y-91694000D01*
X92710000Y-99845000D02*
X90678000Y-97813000D01*
%TO.N,Net-(A1-Pad2)*%
X100330000Y-96520000D02*
X96012000Y-92202000D01*
X100330000Y-99845000D02*
X100330000Y-96520000D01*
X96012000Y-92202000D02*
X92710000Y-92202000D01*
D23*
%TO.N,Net-(A1-Pad1)*%
X69342000Y-95250000D02*
X71628000Y-95250000D01*
X69342000Y-95250000D02*
X65024000Y-90932000D01*
X65024000Y-86360000D02*
X65024000Y-90932000D01*
X82364000Y-86804000D02*
X80962000Y-86804000D01*
%TD*%
%TA.AperFunction,Conductor*%
%TO.N,GND*%
G36*
X111193621Y-73172502D02*
G01*
X111240114Y-73226158D01*
X111251500Y-73278500D01*
X111251500Y-103505500D01*
X111231498Y-103573621D01*
X111177842Y-103620114D01*
X111125500Y-103631500D01*
X106975186Y-103631500D01*
X106907065Y-103611498D01*
X106860572Y-103557842D01*
X106850468Y-103487568D01*
X106879962Y-103422988D01*
X106886091Y-103416404D01*
X107162723Y-103139773D01*
X107168989Y-103133920D01*
X107207059Y-103100710D01*
X107207061Y-103100708D01*
X107212781Y-103095718D01*
X107249700Y-103043186D01*
X107253630Y-103037895D01*
X107288545Y-102993367D01*
X107293234Y-102987387D01*
X107296362Y-102980460D01*
X107297570Y-102978465D01*
X107306351Y-102963070D01*
X107307459Y-102961004D01*
X107311830Y-102954784D01*
X107314590Y-102947704D01*
X107314593Y-102947699D01*
X107335151Y-102894970D01*
X107337707Y-102888888D01*
X107360994Y-102837313D01*
X107364120Y-102830390D01*
X107365504Y-102822922D01*
X107366212Y-102820663D01*
X107371062Y-102803634D01*
X107371643Y-102801370D01*
X107374403Y-102794292D01*
X107382786Y-102730621D01*
X107383812Y-102724146D01*
X107395512Y-102661016D01*
X107394664Y-102646298D01*
X107391909Y-102598523D01*
X107391700Y-102591271D01*
X107391700Y-94771030D01*
X107391992Y-94762460D01*
X107395429Y-94712054D01*
X107395429Y-94712050D01*
X107395945Y-94704479D01*
X107394640Y-94697000D01*
X107384904Y-94641217D01*
X107383941Y-94634692D01*
X107377145Y-94578533D01*
X107377145Y-94578532D01*
X107376232Y-94570989D01*
X107373546Y-94563881D01*
X107372981Y-94561581D01*
X107368314Y-94544520D01*
X107367633Y-94542266D01*
X107366328Y-94534785D01*
X107363276Y-94527833D01*
X107363275Y-94527829D01*
X107340524Y-94476003D01*
X107338031Y-94469894D01*
X107332923Y-94456375D01*
X107315343Y-94409851D01*
X107311043Y-94403595D01*
X107309954Y-94401511D01*
X107301347Y-94386048D01*
X107300143Y-94384012D01*
X107297089Y-94377055D01*
X107257993Y-94326104D01*
X107254137Y-94320796D01*
X107222079Y-94274149D01*
X107222074Y-94274144D01*
X107217775Y-94267888D01*
X107195116Y-94247699D01*
X107171036Y-94226245D01*
X107165760Y-94221264D01*
X97043780Y-84099284D01*
X97037926Y-84093018D01*
X97004710Y-84054941D01*
X97004708Y-84054939D01*
X96999718Y-84049219D01*
X96947199Y-84012309D01*
X96941902Y-84008375D01*
X96897366Y-83973454D01*
X96897360Y-83973450D01*
X96891387Y-83968767D01*
X96884466Y-83965642D01*
X96882461Y-83964428D01*
X96867088Y-83955659D01*
X96865004Y-83954541D01*
X96858784Y-83950170D01*
X96851705Y-83947410D01*
X96851703Y-83947409D01*
X96798976Y-83926852D01*
X96792903Y-83924300D01*
X96734391Y-83897880D01*
X96726923Y-83896496D01*
X96724664Y-83895788D01*
X96707682Y-83890951D01*
X96705373Y-83890358D01*
X96698292Y-83887597D01*
X96690763Y-83886606D01*
X96690760Y-83886605D01*
X96634644Y-83879217D01*
X96628130Y-83878185D01*
X96572485Y-83867872D01*
X96572484Y-83867872D01*
X96565017Y-83866488D01*
X96557437Y-83866925D01*
X96557436Y-83866925D01*
X96502530Y-83870091D01*
X96495277Y-83870300D01*
X93828248Y-83870300D01*
X93760127Y-83850298D01*
X93725035Y-83816571D01*
X93690136Y-83766730D01*
X93690134Y-83766727D01*
X93686977Y-83762219D01*
X93529781Y-83605023D01*
X93525273Y-83601866D01*
X93525270Y-83601864D01*
X93449505Y-83548813D01*
X93347677Y-83477512D01*
X93342695Y-83475189D01*
X93342690Y-83475186D01*
X93259052Y-83436185D01*
X93237035Y-83425919D01*
X93183750Y-83379002D01*
X93164289Y-83310725D01*
X93184831Y-83242765D01*
X93237035Y-83197529D01*
X93342445Y-83148376D01*
X93351931Y-83142898D01*
X93395764Y-83112207D01*
X93404139Y-83101729D01*
X93397071Y-83088281D01*
X92722812Y-82414022D01*
X92708868Y-82406408D01*
X92707035Y-82406539D01*
X92700420Y-82410790D01*
X92022207Y-83089003D01*
X92015777Y-83100777D01*
X92025074Y-83112793D01*
X92068069Y-83142898D01*
X92077555Y-83148376D01*
X92182965Y-83197529D01*
X92236250Y-83244446D01*
X92255711Y-83312723D01*
X92235169Y-83380683D01*
X92182965Y-83425919D01*
X92077311Y-83475186D01*
X92077306Y-83475189D01*
X92072324Y-83477512D01*
X92067817Y-83480668D01*
X92067815Y-83480669D01*
X91894730Y-83601864D01*
X91894727Y-83601866D01*
X91890219Y-83605023D01*
X91733023Y-83762219D01*
X91729866Y-83766727D01*
X91729864Y-83766730D01*
X91617746Y-83926852D01*
X91605512Y-83944324D01*
X91603189Y-83949306D01*
X91603186Y-83949311D01*
X91513883Y-84140822D01*
X91511560Y-84145804D01*
X91510138Y-84151112D01*
X91510137Y-84151114D01*
X91503080Y-84177452D01*
X91454022Y-84360537D01*
X91434647Y-84582000D01*
X91454022Y-84803463D01*
X91511560Y-85018196D01*
X91513882Y-85023177D01*
X91513883Y-85023178D01*
X91603186Y-85214689D01*
X91603189Y-85214694D01*
X91605512Y-85219676D01*
X91608668Y-85224183D01*
X91608669Y-85224185D01*
X91699798Y-85354330D01*
X91733023Y-85401781D01*
X91890219Y-85558977D01*
X91894727Y-85562134D01*
X91894730Y-85562136D01*
X91950237Y-85601002D01*
X92072323Y-85686488D01*
X92077305Y-85688811D01*
X92077310Y-85688814D01*
X92182373Y-85737805D01*
X92235658Y-85784722D01*
X92255119Y-85852999D01*
X92234577Y-85920959D01*
X92182373Y-85966195D01*
X92077311Y-86015186D01*
X92077306Y-86015189D01*
X92072324Y-86017512D01*
X92067817Y-86020668D01*
X92067815Y-86020669D01*
X91894730Y-86141864D01*
X91894727Y-86141866D01*
X91890219Y-86145023D01*
X91733023Y-86302219D01*
X91729866Y-86306727D01*
X91729864Y-86306730D01*
X91694965Y-86356571D01*
X91639508Y-86400899D01*
X91591752Y-86410300D01*
X91215029Y-86410300D01*
X91206459Y-86410008D01*
X91156053Y-86406571D01*
X91156049Y-86406571D01*
X91148478Y-86406055D01*
X91141002Y-86407360D01*
X91141000Y-86407360D01*
X91085225Y-86417095D01*
X91078699Y-86418058D01*
X91022532Y-86424855D01*
X91022531Y-86424855D01*
X91014989Y-86425768D01*
X91007882Y-86428453D01*
X91005612Y-86429011D01*
X90988532Y-86433683D01*
X90986266Y-86434367D01*
X90978785Y-86435673D01*
X90920010Y-86461473D01*
X90913914Y-86463961D01*
X90871958Y-86479815D01*
X90853851Y-86486657D01*
X90847594Y-86490957D01*
X90845523Y-86492040D01*
X90830054Y-86500650D01*
X90828011Y-86501858D01*
X90821054Y-86504912D01*
X90770107Y-86544005D01*
X90764799Y-86547861D01*
X90718149Y-86579921D01*
X90718144Y-86579926D01*
X90711888Y-86584225D01*
X90706836Y-86589895D01*
X90706835Y-86589896D01*
X90670245Y-86630964D01*
X90665264Y-86636240D01*
X90258595Y-87042909D01*
X90196283Y-87076935D01*
X90125468Y-87071870D01*
X90068632Y-87029323D01*
X90043821Y-86962803D01*
X90043500Y-86953814D01*
X90043500Y-83224633D01*
X90063502Y-83156512D01*
X90080405Y-83135538D01*
X90626334Y-82589609D01*
X91223070Y-81992872D01*
X91285381Y-81958848D01*
X91356196Y-81963912D01*
X91413032Y-82006459D01*
X91437685Y-82070986D01*
X91454038Y-82257896D01*
X91455941Y-82268691D01*
X91510609Y-82472715D01*
X91514355Y-82483007D01*
X91603623Y-82674441D01*
X91609103Y-82683932D01*
X91639794Y-82727765D01*
X91650271Y-82736140D01*
X91663718Y-82729072D01*
X92349658Y-82043132D01*
X93074408Y-82043132D01*
X93074539Y-82044965D01*
X93078790Y-82051580D01*
X93757003Y-82729793D01*
X93768777Y-82736223D01*
X93780793Y-82726926D01*
X93810897Y-82683932D01*
X93816377Y-82674441D01*
X93905645Y-82483007D01*
X93909391Y-82472715D01*
X93964059Y-82268691D01*
X93965962Y-82257896D01*
X93984372Y-82047475D01*
X93984372Y-82036525D01*
X93965962Y-81826104D01*
X93964059Y-81815309D01*
X93909391Y-81611285D01*
X93905645Y-81600993D01*
X93816377Y-81409559D01*
X93810897Y-81400068D01*
X93780206Y-81356235D01*
X93769729Y-81347860D01*
X93756282Y-81354928D01*
X93082022Y-82029188D01*
X93074408Y-82043132D01*
X92349658Y-82043132D01*
X93397793Y-80994997D01*
X93404223Y-80983223D01*
X93394926Y-80971207D01*
X93351931Y-80941102D01*
X93342445Y-80935624D01*
X93151007Y-80846355D01*
X93140715Y-80842609D01*
X92936691Y-80787941D01*
X92925896Y-80786038D01*
X92738986Y-80769685D01*
X92672868Y-80743821D01*
X92631229Y-80686318D01*
X92627288Y-80615431D01*
X92660873Y-80555069D01*
X93041537Y-80174405D01*
X93103849Y-80140379D01*
X93130632Y-80137500D01*
X101012075Y-80137500D01*
X101031786Y-80139051D01*
X101038673Y-80140142D01*
X101038675Y-80140142D01*
X101045190Y-80141174D01*
X101051778Y-80140829D01*
X101051782Y-80140829D01*
X101111999Y-80137673D01*
X101118593Y-80137500D01*
X101138620Y-80137500D01*
X101141891Y-80137156D01*
X101141895Y-80137156D01*
X101158539Y-80135407D01*
X101165113Y-80134890D01*
X101225316Y-80131735D01*
X101225318Y-80131735D01*
X101231915Y-80131389D01*
X101245028Y-80127875D01*
X101264470Y-80124272D01*
X101265712Y-80124142D01*
X101271385Y-80123546D01*
X101271389Y-80123545D01*
X101277956Y-80122855D01*
X101341581Y-80102182D01*
X101347906Y-80100309D01*
X101355359Y-80098312D01*
X101412524Y-80082994D01*
X101424616Y-80076833D01*
X101442875Y-80069270D01*
X101455785Y-80065075D01*
X101513724Y-80031624D01*
X101519520Y-80028477D01*
X101579125Y-79998107D01*
X101589670Y-79989568D01*
X101605955Y-79978375D01*
X101612002Y-79974884D01*
X101612005Y-79974881D01*
X101617715Y-79971585D01*
X101622615Y-79967173D01*
X101622619Y-79967170D01*
X101667425Y-79926825D01*
X101672446Y-79922537D01*
X101685441Y-79912014D01*
X101688006Y-79909937D01*
X101702153Y-79895790D01*
X101706937Y-79891249D01*
X101751766Y-79850885D01*
X101751767Y-79850883D01*
X101756669Y-79846470D01*
X101764652Y-79835482D01*
X101777489Y-79820454D01*
X103103327Y-78494616D01*
X103159811Y-78462004D01*
X103313933Y-78420707D01*
X103313935Y-78420706D01*
X103319243Y-78419284D01*
X103324225Y-78416961D01*
X103521762Y-78324849D01*
X103521767Y-78324846D01*
X103526749Y-78322523D01*
X103634480Y-78247089D01*
X103709789Y-78194357D01*
X103709792Y-78194355D01*
X103714300Y-78191198D01*
X103876198Y-78029300D01*
X104007523Y-77841749D01*
X104009846Y-77836767D01*
X104009849Y-77836762D01*
X104101961Y-77639225D01*
X104101961Y-77639224D01*
X104104284Y-77634243D01*
X104143993Y-77486050D01*
X104162119Y-77418402D01*
X104162119Y-77418400D01*
X104163543Y-77413087D01*
X104178500Y-77242127D01*
X104178500Y-76727873D01*
X104177813Y-76720012D01*
X104164022Y-76562393D01*
X104163543Y-76556913D01*
X104158659Y-76538684D01*
X104105707Y-76341067D01*
X104105706Y-76341065D01*
X104104284Y-76335757D01*
X104090410Y-76306004D01*
X104009849Y-76133238D01*
X104009846Y-76133233D01*
X104007523Y-76128251D01*
X103876198Y-75940700D01*
X103714300Y-75778802D01*
X103709792Y-75775645D01*
X103709789Y-75775643D01*
X103582928Y-75686814D01*
X103526749Y-75647477D01*
X103521767Y-75645154D01*
X103521762Y-75645151D01*
X103324225Y-75553039D01*
X103324224Y-75553039D01*
X103319243Y-75550716D01*
X103313935Y-75549294D01*
X103313933Y-75549293D01*
X103103402Y-75492881D01*
X103103400Y-75492881D01*
X103098087Y-75491457D01*
X102870000Y-75471502D01*
X102641913Y-75491457D01*
X102636600Y-75492881D01*
X102636598Y-75492881D01*
X102426067Y-75549293D01*
X102426065Y-75549294D01*
X102420757Y-75550716D01*
X102415776Y-75553039D01*
X102415775Y-75553039D01*
X102218238Y-75645151D01*
X102218233Y-75645154D01*
X102213251Y-75647477D01*
X102157072Y-75686814D01*
X102030211Y-75775643D01*
X102030208Y-75775645D01*
X102025700Y-75778802D01*
X101863802Y-75940700D01*
X101732477Y-76128251D01*
X101730154Y-76133233D01*
X101730151Y-76133238D01*
X101713919Y-76168049D01*
X101667002Y-76221334D01*
X101598725Y-76240795D01*
X101530765Y-76220253D01*
X101485529Y-76168049D01*
X101469414Y-76133489D01*
X101463931Y-76123993D01*
X101338972Y-75945533D01*
X101331916Y-75937125D01*
X101177875Y-75783084D01*
X101169467Y-75776028D01*
X100991007Y-75651069D01*
X100981511Y-75645586D01*
X100784053Y-75553510D01*
X100773761Y-75549764D01*
X100601497Y-75503606D01*
X100587401Y-75503942D01*
X100584000Y-75511884D01*
X100584000Y-77113000D01*
X100563998Y-77181121D01*
X100510342Y-77227614D01*
X100458000Y-77239000D01*
X100202000Y-77239000D01*
X100133879Y-77218998D01*
X100087386Y-77165342D01*
X100076000Y-77113000D01*
X100076000Y-75517033D01*
X100072027Y-75503502D01*
X100063478Y-75502273D01*
X99886239Y-75549764D01*
X99875947Y-75553510D01*
X99678489Y-75645586D01*
X99668993Y-75651069D01*
X99490533Y-75776028D01*
X99482125Y-75783084D01*
X99328084Y-75937125D01*
X99321028Y-75945533D01*
X99196069Y-76123993D01*
X99190586Y-76133489D01*
X99174471Y-76168049D01*
X99127554Y-76221334D01*
X99059277Y-76240795D01*
X98991317Y-76220253D01*
X98946081Y-76168049D01*
X98929849Y-76133238D01*
X98929846Y-76133233D01*
X98927523Y-76128251D01*
X98796198Y-75940700D01*
X98634300Y-75778802D01*
X98555428Y-75723575D01*
X98511101Y-75668119D01*
X98501700Y-75620363D01*
X98501700Y-75467030D01*
X98501992Y-75458460D01*
X98505429Y-75408054D01*
X98505429Y-75408050D01*
X98505945Y-75400479D01*
X98504442Y-75391865D01*
X98494904Y-75337217D01*
X98493941Y-75330692D01*
X98487145Y-75274533D01*
X98487145Y-75274532D01*
X98486232Y-75266989D01*
X98483546Y-75259881D01*
X98482981Y-75257581D01*
X98478314Y-75240520D01*
X98477634Y-75238266D01*
X98476328Y-75230785D01*
X98450521Y-75171995D01*
X98448033Y-75165898D01*
X98428027Y-75112953D01*
X98428026Y-75112950D01*
X98425343Y-75105851D01*
X98421044Y-75099596D01*
X98419951Y-75097505D01*
X98411345Y-75082043D01*
X98410142Y-75080009D01*
X98407089Y-75073054D01*
X98402466Y-75067029D01*
X98402463Y-75067024D01*
X98368012Y-75022126D01*
X98364136Y-75016791D01*
X98332082Y-74970153D01*
X98332077Y-74970147D01*
X98327775Y-74963888D01*
X98281026Y-74922236D01*
X98275751Y-74917256D01*
X96726091Y-73367595D01*
X96692065Y-73305283D01*
X96697130Y-73234467D01*
X96739677Y-73177632D01*
X96806197Y-73152821D01*
X96815186Y-73152500D01*
X111125500Y-73152500D01*
X111193621Y-73172502D01*
G37*
%TD.AperFunction*%
%TA.AperFunction,Conductor*%
G36*
X63678022Y-98292848D02*
G01*
X63709114Y-98315609D01*
X66351455Y-100957950D01*
X66385481Y-101020262D01*
X66383917Y-101075662D01*
X66384698Y-101075811D01*
X66383776Y-101080641D01*
X66383774Y-101080727D01*
X66382348Y-101085869D01*
X66381799Y-101091002D01*
X66381799Y-101091004D01*
X66359932Y-101295615D01*
X66358172Y-101312082D01*
X66358469Y-101317234D01*
X66358469Y-101317238D01*
X66366525Y-101456946D01*
X66371268Y-101539206D01*
X66372405Y-101544252D01*
X66372406Y-101544258D01*
X66420145Y-101756093D01*
X66421283Y-101761141D01*
X66506875Y-101971927D01*
X66625744Y-102165904D01*
X66774698Y-102337861D01*
X66949737Y-102483181D01*
X66954189Y-102485783D01*
X66954194Y-102485786D01*
X67134710Y-102591271D01*
X67146160Y-102597962D01*
X67358693Y-102679120D01*
X67363759Y-102680151D01*
X67363760Y-102680151D01*
X67462861Y-102700313D01*
X67581627Y-102724476D01*
X67709437Y-102729163D01*
X67803811Y-102732624D01*
X67803815Y-102732624D01*
X67808975Y-102732813D01*
X67814095Y-102732157D01*
X67814097Y-102732157D01*
X68028921Y-102704638D01*
X68099031Y-102715823D01*
X68134027Y-102740522D01*
X68809909Y-103416405D01*
X68843934Y-103478717D01*
X68838869Y-103549533D01*
X68796322Y-103606368D01*
X68729802Y-103631179D01*
X68720813Y-103631500D01*
X61086500Y-103631500D01*
X61018379Y-103611498D01*
X60971886Y-103557842D01*
X60960500Y-103505500D01*
X60960500Y-102489130D01*
X62467700Y-102489130D01*
X62472981Y-102496184D01*
X62641919Y-102594904D01*
X62651202Y-102599351D01*
X62854002Y-102676793D01*
X62863900Y-102679669D01*
X63076625Y-102722948D01*
X63086853Y-102724167D01*
X63303788Y-102732122D01*
X63314074Y-102731655D01*
X63529400Y-102704072D01*
X63539477Y-102701930D01*
X63747401Y-102639549D01*
X63756999Y-102635788D01*
X63951947Y-102540284D01*
X63960785Y-102535015D01*
X64013172Y-102497648D01*
X64021572Y-102486948D01*
X64014585Y-102473795D01*
X63258812Y-101718022D01*
X63244868Y-101710408D01*
X63243035Y-101710539D01*
X63236420Y-101714790D01*
X62474460Y-102476750D01*
X62467700Y-102489130D01*
X60960500Y-102489130D01*
X60960500Y-100274286D01*
X60980502Y-100206165D01*
X61034158Y-100159672D01*
X61104432Y-100149568D01*
X61152334Y-100166853D01*
X61216486Y-100206165D01*
X61286268Y-100248927D01*
X61430967Y-100308864D01*
X61508335Y-100340911D01*
X61508337Y-100340912D01*
X61512908Y-100342805D01*
X61588488Y-100360950D01*
X61746630Y-100398917D01*
X61746636Y-100398918D01*
X61751443Y-100400072D01*
X61847011Y-100407593D01*
X61976630Y-100417795D01*
X62042971Y-100443081D01*
X62085111Y-100500219D01*
X62089670Y-100571069D01*
X62070832Y-100614411D01*
X62042286Y-100656258D01*
X62037188Y-100665232D01*
X61945795Y-100862121D01*
X61942232Y-100871808D01*
X61884223Y-101080979D01*
X61882292Y-101091100D01*
X61859222Y-101306962D01*
X61858971Y-101317250D01*
X61871467Y-101533967D01*
X61872903Y-101544188D01*
X61920627Y-101755948D01*
X61923706Y-101765777D01*
X62005379Y-101966914D01*
X62010022Y-101976105D01*
X62094279Y-102113601D01*
X62104735Y-102123061D01*
X62113513Y-102119277D01*
X62885658Y-101347132D01*
X63610408Y-101347132D01*
X63610539Y-101348965D01*
X63614790Y-101355580D01*
X64374388Y-102115178D01*
X64386398Y-102121736D01*
X64398138Y-102112768D01*
X64432507Y-102064940D01*
X64437816Y-102056103D01*
X64533994Y-101861503D01*
X64537792Y-101851910D01*
X64600897Y-101644208D01*
X64603074Y-101634138D01*
X64631646Y-101417113D01*
X64632165Y-101410438D01*
X64633658Y-101349364D01*
X64633464Y-101342646D01*
X64615530Y-101124507D01*
X64613845Y-101114327D01*
X64560962Y-100903791D01*
X64557642Y-100894040D01*
X64471080Y-100694959D01*
X64466213Y-100685884D01*
X64397144Y-100579118D01*
X64386458Y-100569915D01*
X64376891Y-100574319D01*
X63618022Y-101333188D01*
X63610408Y-101347132D01*
X62885658Y-101347132D01*
X64017190Y-100215600D01*
X64024211Y-100202744D01*
X64016718Y-100192461D01*
X64009435Y-100187622D01*
X63819398Y-100082715D01*
X63809989Y-100078487D01*
X63605364Y-100006026D01*
X63595401Y-100003394D01*
X63381687Y-99965326D01*
X63371432Y-99964356D01*
X63368114Y-99964315D01*
X63366829Y-99963920D01*
X63366275Y-99963868D01*
X63366286Y-99963754D01*
X63300243Y-99943478D01*
X63254412Y-99889257D01*
X63245171Y-99818864D01*
X63262224Y-99772493D01*
X63388927Y-99565732D01*
X63482805Y-99339092D01*
X63540072Y-99100557D01*
X63559319Y-98856000D01*
X63540072Y-98611443D01*
X63536916Y-98598295D01*
X63497500Y-98434118D01*
X63501047Y-98363210D01*
X63542367Y-98305476D01*
X63608340Y-98279246D01*
X63678022Y-98292848D01*
G37*
%TD.AperFunction*%
%TA.AperFunction,Conductor*%
G36*
X74206435Y-73172502D02*
G01*
X74252928Y-73226158D01*
X74263032Y-73296432D01*
X74233538Y-73361012D01*
X74227409Y-73367595D01*
X73598030Y-73996974D01*
X73535718Y-74031000D01*
X73486839Y-74031926D01*
X73348733Y-74007325D01*
X73348729Y-74007325D01*
X73343645Y-74006419D01*
X73270196Y-74005522D01*
X73121331Y-74003703D01*
X73121329Y-74003703D01*
X73116161Y-74003640D01*
X72891278Y-74038052D01*
X72675035Y-74108731D01*
X72670447Y-74111119D01*
X72670443Y-74111121D01*
X72531762Y-74183314D01*
X72473239Y-74213779D01*
X72469106Y-74216882D01*
X72469103Y-74216884D01*
X72412476Y-74259401D01*
X72291310Y-74350375D01*
X72134133Y-74514851D01*
X72005931Y-74702789D01*
X72003758Y-74707471D01*
X72003756Y-74707474D01*
X71989838Y-74737459D01*
X71910145Y-74909143D01*
X71849348Y-75128369D01*
X71848799Y-75133506D01*
X71827028Y-75337217D01*
X71825172Y-75354582D01*
X71825469Y-75359734D01*
X71825469Y-75359738D01*
X71831656Y-75467030D01*
X71838268Y-75581706D01*
X71839405Y-75586752D01*
X71839406Y-75586758D01*
X71856528Y-75662734D01*
X71888283Y-75803641D01*
X71973875Y-76014427D01*
X72031032Y-76107698D01*
X72041304Y-76124461D01*
X72059842Y-76192995D01*
X72038386Y-76260671D01*
X71983747Y-76306004D01*
X71943757Y-76315908D01*
X71809438Y-76326480D01*
X71708443Y-76334428D01*
X71703636Y-76335582D01*
X71703630Y-76335583D01*
X71552563Y-76371851D01*
X71469908Y-76391695D01*
X71465337Y-76393588D01*
X71465335Y-76393589D01*
X71387967Y-76425636D01*
X71243268Y-76485573D01*
X71152261Y-76541342D01*
X71038330Y-76611158D01*
X71038327Y-76611160D01*
X71034104Y-76613748D01*
X71030340Y-76616963D01*
X71030337Y-76616965D01*
X70872211Y-76752019D01*
X70847567Y-76773067D01*
X70688248Y-76959604D01*
X70685660Y-76963827D01*
X70685658Y-76963830D01*
X70612433Y-77083324D01*
X70559786Y-77130956D01*
X70489744Y-77142563D01*
X70424546Y-77114460D01*
X70397567Y-77083324D01*
X70324342Y-76963830D01*
X70324340Y-76963827D01*
X70321752Y-76959604D01*
X70162433Y-76773067D01*
X70137789Y-76752019D01*
X69979663Y-76616965D01*
X69979660Y-76616963D01*
X69975896Y-76613748D01*
X69971673Y-76611160D01*
X69971670Y-76611158D01*
X69857739Y-76541342D01*
X69766732Y-76485573D01*
X69622033Y-76425636D01*
X69544665Y-76393589D01*
X69544663Y-76393588D01*
X69540092Y-76391695D01*
X69457437Y-76371851D01*
X69306370Y-76335583D01*
X69306364Y-76335582D01*
X69301557Y-76334428D01*
X69208994Y-76327143D01*
X69078543Y-76316876D01*
X69012202Y-76291590D01*
X68970062Y-76234452D01*
X68965503Y-76163602D01*
X68986108Y-76117736D01*
X68993505Y-76107442D01*
X68998818Y-76098600D01*
X69094994Y-75904003D01*
X69098792Y-75894410D01*
X69161897Y-75686708D01*
X69164074Y-75676638D01*
X69192646Y-75459613D01*
X69193165Y-75452938D01*
X69194658Y-75391864D01*
X69194464Y-75385146D01*
X69176530Y-75167007D01*
X69174845Y-75156827D01*
X69121962Y-74946291D01*
X69118642Y-74936540D01*
X69032080Y-74737459D01*
X69027213Y-74728384D01*
X68958144Y-74621618D01*
X68947458Y-74612415D01*
X68937891Y-74616819D01*
X67035460Y-76519250D01*
X67028700Y-76531630D01*
X67033981Y-76538684D01*
X67202919Y-76637404D01*
X67212202Y-76641851D01*
X67415002Y-76719293D01*
X67424900Y-76722169D01*
X67637625Y-76765448D01*
X67647853Y-76766667D01*
X67689231Y-76768185D01*
X67756573Y-76790670D01*
X67801068Y-76845994D01*
X67808590Y-76916591D01*
X67792047Y-76959931D01*
X67664073Y-77168768D01*
X67570195Y-77395408D01*
X67565951Y-77413087D01*
X67514131Y-77628933D01*
X67512928Y-77633943D01*
X67493681Y-77878500D01*
X67512928Y-78123057D01*
X67514082Y-78127864D01*
X67514083Y-78127870D01*
X67547741Y-78268064D01*
X67570195Y-78361592D01*
X67664073Y-78588232D01*
X67792248Y-78797396D01*
X67951567Y-78983933D01*
X68138104Y-79143252D01*
X68142327Y-79145840D01*
X68142330Y-79145842D01*
X68150615Y-79150919D01*
X68347268Y-79271427D01*
X68491967Y-79331364D01*
X68569335Y-79363411D01*
X68569337Y-79363412D01*
X68573908Y-79365305D01*
X68656563Y-79385149D01*
X68807630Y-79421417D01*
X68807636Y-79421418D01*
X68812443Y-79422572D01*
X69057000Y-79441819D01*
X69301557Y-79422572D01*
X69306364Y-79421418D01*
X69306370Y-79421417D01*
X69457437Y-79385149D01*
X69540092Y-79365305D01*
X69544663Y-79363412D01*
X69544665Y-79363411D01*
X69622033Y-79331364D01*
X69766732Y-79271427D01*
X69963385Y-79150919D01*
X69971670Y-79145842D01*
X69971673Y-79145840D01*
X69975896Y-79143252D01*
X70162433Y-78983933D01*
X70321752Y-78797396D01*
X70397567Y-78673676D01*
X70450214Y-78626044D01*
X70520256Y-78614437D01*
X70585454Y-78642540D01*
X70612432Y-78673675D01*
X70688248Y-78797396D01*
X70847567Y-78983933D01*
X71034104Y-79143252D01*
X71038327Y-79145840D01*
X71038330Y-79145842D01*
X71046615Y-79150919D01*
X71243268Y-79271427D01*
X71387967Y-79331364D01*
X71465335Y-79363411D01*
X71465337Y-79363412D01*
X71469908Y-79365305D01*
X71552563Y-79385149D01*
X71703630Y-79421417D01*
X71703636Y-79421418D01*
X71708443Y-79422572D01*
X71953000Y-79441819D01*
X72197557Y-79422572D01*
X72202364Y-79421418D01*
X72202370Y-79421417D01*
X72353437Y-79385149D01*
X72436092Y-79365305D01*
X72440663Y-79363412D01*
X72440665Y-79363411D01*
X72518033Y-79331364D01*
X72662732Y-79271427D01*
X72859385Y-79150919D01*
X72867670Y-79145842D01*
X72867673Y-79145840D01*
X72871896Y-79143252D01*
X73058433Y-78983933D01*
X73217752Y-78797396D01*
X73345927Y-78588232D01*
X73439805Y-78361592D01*
X73462259Y-78268064D01*
X73495917Y-78127870D01*
X73495918Y-78127864D01*
X73497072Y-78123057D01*
X73516319Y-77878500D01*
X73497072Y-77633943D01*
X73495870Y-77628933D01*
X73444049Y-77413087D01*
X73439805Y-77395408D01*
X73345927Y-77168768D01*
X73219040Y-76961706D01*
X73200503Y-76893175D01*
X73221960Y-76825498D01*
X73276599Y-76780165D01*
X73310464Y-76770895D01*
X73496504Y-76747063D01*
X73496505Y-76747063D01*
X73501632Y-76746406D01*
X73506583Y-76744921D01*
X73506586Y-76744920D01*
X73588222Y-76720428D01*
X73659217Y-76720012D01*
X73713524Y-76752019D01*
X77969154Y-81007650D01*
X78003180Y-81069962D01*
X78001766Y-81129354D01*
X77954457Y-81305913D01*
X77934502Y-81534000D01*
X77954457Y-81762087D01*
X77955881Y-81767400D01*
X77955881Y-81767402D01*
X77966082Y-81805470D01*
X78013716Y-81983243D01*
X78016039Y-81988224D01*
X78016039Y-81988225D01*
X78108151Y-82185762D01*
X78108154Y-82185767D01*
X78110477Y-82190749D01*
X78241802Y-82378300D01*
X78403700Y-82540198D01*
X78408208Y-82543355D01*
X78408211Y-82543357D01*
X78474266Y-82589609D01*
X78591251Y-82671523D01*
X78596233Y-82673846D01*
X78596238Y-82673849D01*
X78793775Y-82765961D01*
X78798757Y-82768284D01*
X78804065Y-82769706D01*
X78804067Y-82769707D01*
X79014598Y-82826119D01*
X79014600Y-82826119D01*
X79019913Y-82827543D01*
X79248000Y-82847498D01*
X79476087Y-82827543D01*
X79481400Y-82826119D01*
X79481402Y-82826119D01*
X79691933Y-82769707D01*
X79691935Y-82769706D01*
X79697243Y-82768284D01*
X79702225Y-82765961D01*
X79899762Y-82673849D01*
X79899767Y-82673846D01*
X79904749Y-82671523D01*
X80021734Y-82589609D01*
X80087789Y-82543357D01*
X80087792Y-82543355D01*
X80092300Y-82540198D01*
X80254198Y-82378300D01*
X80385523Y-82190749D01*
X80387846Y-82185767D01*
X80387849Y-82185762D01*
X80479961Y-81988225D01*
X80479961Y-81988224D01*
X80482284Y-81983243D01*
X80529919Y-81805470D01*
X80540119Y-81767402D01*
X80540119Y-81767400D01*
X80541543Y-81762087D01*
X80561498Y-81534000D01*
X80541543Y-81305913D01*
X80531940Y-81270074D01*
X80483707Y-81090067D01*
X80483706Y-81090065D01*
X80482284Y-81084757D01*
X80475385Y-81069962D01*
X80387849Y-80882238D01*
X80387846Y-80882233D01*
X80385523Y-80877251D01*
X80310204Y-80769685D01*
X80257357Y-80694211D01*
X80257355Y-80694208D01*
X80254198Y-80689700D01*
X80092300Y-80527802D01*
X80087792Y-80524645D01*
X80087789Y-80524643D01*
X80009611Y-80469902D01*
X79904749Y-80396477D01*
X79899767Y-80394154D01*
X79899762Y-80394151D01*
X79702225Y-80302039D01*
X79702224Y-80302039D01*
X79697243Y-80299716D01*
X79691935Y-80298294D01*
X79691933Y-80298293D01*
X79481402Y-80241881D01*
X79481400Y-80241881D01*
X79476087Y-80240457D01*
X79248000Y-80220502D01*
X79246487Y-80220634D01*
X79179546Y-80200979D01*
X79158572Y-80184076D01*
X78610328Y-79635832D01*
X78576302Y-79573520D01*
X78581367Y-79502705D01*
X78623914Y-79445869D01*
X78690434Y-79421058D01*
X78716857Y-79422191D01*
X78718443Y-79422572D01*
X78963000Y-79441819D01*
X79207557Y-79422572D01*
X79212364Y-79421418D01*
X79212370Y-79421417D01*
X79363437Y-79385149D01*
X79446092Y-79365305D01*
X79450663Y-79363412D01*
X79450665Y-79363411D01*
X79528033Y-79331364D01*
X79672732Y-79271427D01*
X79869385Y-79150919D01*
X79877670Y-79145842D01*
X79877673Y-79145840D01*
X79881896Y-79143252D01*
X80068433Y-78983933D01*
X80227752Y-78797396D01*
X80355927Y-78588232D01*
X80449805Y-78361592D01*
X80472259Y-78268064D01*
X80505917Y-78127870D01*
X80505918Y-78127864D01*
X80507072Y-78123057D01*
X80526319Y-77878500D01*
X80507072Y-77633943D01*
X80505870Y-77628933D01*
X80454049Y-77413087D01*
X80449805Y-77395408D01*
X80355927Y-77168768D01*
X80227752Y-76959604D01*
X80068433Y-76773067D01*
X80043789Y-76752019D01*
X79885663Y-76616965D01*
X79885660Y-76616963D01*
X79881896Y-76613748D01*
X79877673Y-76611160D01*
X79877670Y-76611158D01*
X79763739Y-76541342D01*
X79672732Y-76485573D01*
X79528033Y-76425636D01*
X79450665Y-76393589D01*
X79450663Y-76393588D01*
X79446092Y-76391695D01*
X79363437Y-76371851D01*
X79212370Y-76335583D01*
X79212364Y-76335582D01*
X79207557Y-76334428D01*
X79114994Y-76327143D01*
X78984543Y-76316876D01*
X78918202Y-76291590D01*
X78876062Y-76234452D01*
X78871503Y-76163602D01*
X78892108Y-76117736D01*
X78899505Y-76107442D01*
X78904818Y-76098600D01*
X79000994Y-75904003D01*
X79004792Y-75894410D01*
X79067897Y-75686708D01*
X79070074Y-75676638D01*
X79098646Y-75459613D01*
X79099165Y-75452938D01*
X79100658Y-75391864D01*
X79100464Y-75385146D01*
X79082530Y-75167007D01*
X79080845Y-75156827D01*
X79027962Y-74946291D01*
X79024642Y-74936540D01*
X78938080Y-74737459D01*
X78933213Y-74728384D01*
X78864144Y-74621618D01*
X78853458Y-74612415D01*
X78843891Y-74616819D01*
X76941460Y-76519250D01*
X76934700Y-76531630D01*
X76939981Y-76538684D01*
X77108919Y-76637404D01*
X77118202Y-76641851D01*
X77321002Y-76719293D01*
X77330900Y-76722169D01*
X77543625Y-76765448D01*
X77553853Y-76766667D01*
X77595231Y-76768185D01*
X77662573Y-76790670D01*
X77707068Y-76845994D01*
X77714590Y-76916591D01*
X77698047Y-76959931D01*
X77570073Y-77168768D01*
X77476195Y-77395408D01*
X77471951Y-77413087D01*
X77420131Y-77628933D01*
X77418928Y-77633943D01*
X77399681Y-77878500D01*
X77418928Y-78123057D01*
X77419054Y-78123580D01*
X77410114Y-78192773D01*
X77364394Y-78247089D01*
X77296566Y-78268064D01*
X77228166Y-78249039D01*
X77205668Y-78231172D01*
X74623888Y-75649392D01*
X74589862Y-75587080D01*
X74588061Y-75543851D01*
X74599148Y-75459636D01*
X74599148Y-75459632D01*
X74599585Y-75456315D01*
X74600929Y-75401312D01*
X74601160Y-75391865D01*
X74601160Y-75391861D01*
X74601242Y-75388500D01*
X74598878Y-75359750D01*
X76325971Y-75359750D01*
X76338467Y-75576467D01*
X76339903Y-75586688D01*
X76387627Y-75798448D01*
X76390706Y-75808277D01*
X76472379Y-76009414D01*
X76477022Y-76018605D01*
X76561279Y-76156101D01*
X76571735Y-76165561D01*
X76580513Y-76161777D01*
X77340978Y-75401312D01*
X77348592Y-75387368D01*
X77348461Y-75385535D01*
X77344210Y-75378920D01*
X76584858Y-74619568D01*
X76573322Y-74613268D01*
X76561039Y-74622891D01*
X76509279Y-74698768D01*
X76504191Y-74707724D01*
X76412795Y-74904621D01*
X76409232Y-74914308D01*
X76351223Y-75123479D01*
X76349292Y-75133600D01*
X76326222Y-75349462D01*
X76325971Y-75359750D01*
X74598878Y-75359750D01*
X74582601Y-75161764D01*
X74572626Y-75122052D01*
X74575430Y-75051110D01*
X74605735Y-75002261D01*
X75453391Y-74154605D01*
X75515703Y-74120579D01*
X75542486Y-74117700D01*
X76809343Y-74117700D01*
X76877464Y-74137702D01*
X76923957Y-74191358D01*
X76932903Y-74240739D01*
X76943111Y-74259401D01*
X77700188Y-75016478D01*
X77714132Y-75024092D01*
X77715965Y-75023961D01*
X77722580Y-75019710D01*
X78484190Y-74258100D01*
X78495905Y-74236647D01*
X78507507Y-74183314D01*
X78557709Y-74133112D01*
X78618094Y-74117700D01*
X95411015Y-74117700D01*
X95479136Y-74137702D01*
X95500110Y-74154605D01*
X96945926Y-75600422D01*
X96979952Y-75662734D01*
X96974887Y-75733550D01*
X96944096Y-75777198D01*
X96945700Y-75778802D01*
X96783802Y-75940700D01*
X96652477Y-76128251D01*
X96650154Y-76133233D01*
X96650151Y-76133238D01*
X96634195Y-76167457D01*
X96587278Y-76220742D01*
X96519001Y-76240203D01*
X96451041Y-76219661D01*
X96405805Y-76167457D01*
X96389849Y-76133238D01*
X96389846Y-76133233D01*
X96387523Y-76128251D01*
X96256198Y-75940700D01*
X96094300Y-75778802D01*
X96089792Y-75775645D01*
X96089789Y-75775643D01*
X95962928Y-75686814D01*
X95906749Y-75647477D01*
X95901767Y-75645154D01*
X95901762Y-75645151D01*
X95704225Y-75553039D01*
X95704224Y-75553039D01*
X95699243Y-75550716D01*
X95693935Y-75549294D01*
X95693933Y-75549293D01*
X95483402Y-75492881D01*
X95483400Y-75492881D01*
X95478087Y-75491457D01*
X95250000Y-75471502D01*
X95021913Y-75491457D01*
X95016600Y-75492881D01*
X95016598Y-75492881D01*
X94806067Y-75549293D01*
X94806065Y-75549294D01*
X94800757Y-75550716D01*
X94795776Y-75553039D01*
X94795775Y-75553039D01*
X94598238Y-75645151D01*
X94598233Y-75645154D01*
X94593251Y-75647477D01*
X94537072Y-75686814D01*
X94410211Y-75775643D01*
X94410208Y-75775645D01*
X94405700Y-75778802D01*
X94243802Y-75940700D01*
X94112477Y-76128251D01*
X94110154Y-76133233D01*
X94110151Y-76133238D01*
X94094195Y-76167457D01*
X94047278Y-76220742D01*
X93979001Y-76240203D01*
X93911041Y-76219661D01*
X93865805Y-76167457D01*
X93849849Y-76133238D01*
X93849846Y-76133233D01*
X93847523Y-76128251D01*
X93716198Y-75940700D01*
X93554300Y-75778802D01*
X93549792Y-75775645D01*
X93549789Y-75775643D01*
X93422928Y-75686814D01*
X93366749Y-75647477D01*
X93361767Y-75645154D01*
X93361762Y-75645151D01*
X93164225Y-75553039D01*
X93164224Y-75553039D01*
X93159243Y-75550716D01*
X93153935Y-75549294D01*
X93153933Y-75549293D01*
X92943402Y-75492881D01*
X92943400Y-75492881D01*
X92938087Y-75491457D01*
X92710000Y-75471502D01*
X92481913Y-75491457D01*
X92476600Y-75492881D01*
X92476598Y-75492881D01*
X92266067Y-75549293D01*
X92266065Y-75549294D01*
X92260757Y-75550716D01*
X92255776Y-75553039D01*
X92255775Y-75553039D01*
X92058238Y-75645151D01*
X92058233Y-75645154D01*
X92053251Y-75647477D01*
X91997072Y-75686814D01*
X91870211Y-75775643D01*
X91870208Y-75775645D01*
X91865700Y-75778802D01*
X91703802Y-75940700D01*
X91572477Y-76128251D01*
X91570154Y-76133233D01*
X91570151Y-76133238D01*
X91554195Y-76167457D01*
X91507278Y-76220742D01*
X91439001Y-76240203D01*
X91371041Y-76219661D01*
X91325805Y-76167457D01*
X91309849Y-76133238D01*
X91309846Y-76133233D01*
X91307523Y-76128251D01*
X91176198Y-75940700D01*
X91014300Y-75778802D01*
X91009792Y-75775645D01*
X91009789Y-75775643D01*
X90882928Y-75686814D01*
X90826749Y-75647477D01*
X90821767Y-75645154D01*
X90821762Y-75645151D01*
X90624225Y-75553039D01*
X90624224Y-75553039D01*
X90619243Y-75550716D01*
X90613935Y-75549294D01*
X90613933Y-75549293D01*
X90403402Y-75492881D01*
X90403400Y-75492881D01*
X90398087Y-75491457D01*
X90170000Y-75471502D01*
X89941913Y-75491457D01*
X89936600Y-75492881D01*
X89936598Y-75492881D01*
X89726067Y-75549293D01*
X89726065Y-75549294D01*
X89720757Y-75550716D01*
X89715776Y-75553039D01*
X89715775Y-75553039D01*
X89518238Y-75645151D01*
X89518233Y-75645154D01*
X89513251Y-75647477D01*
X89457072Y-75686814D01*
X89330211Y-75775643D01*
X89330208Y-75775645D01*
X89325700Y-75778802D01*
X89163802Y-75940700D01*
X89032477Y-76128251D01*
X89030154Y-76133233D01*
X89030151Y-76133238D01*
X89014195Y-76167457D01*
X88967278Y-76220742D01*
X88899001Y-76240203D01*
X88831041Y-76219661D01*
X88785805Y-76167457D01*
X88769849Y-76133238D01*
X88769846Y-76133233D01*
X88767523Y-76128251D01*
X88636198Y-75940700D01*
X88474300Y-75778802D01*
X88469792Y-75775645D01*
X88469789Y-75775643D01*
X88342928Y-75686814D01*
X88286749Y-75647477D01*
X88281767Y-75645154D01*
X88281762Y-75645151D01*
X88084225Y-75553039D01*
X88084224Y-75553039D01*
X88079243Y-75550716D01*
X88073935Y-75549294D01*
X88073933Y-75549293D01*
X87863402Y-75492881D01*
X87863400Y-75492881D01*
X87858087Y-75491457D01*
X87630000Y-75471502D01*
X87401913Y-75491457D01*
X87396600Y-75492881D01*
X87396598Y-75492881D01*
X87186067Y-75549293D01*
X87186065Y-75549294D01*
X87180757Y-75550716D01*
X87175776Y-75553039D01*
X87175775Y-75553039D01*
X86978238Y-75645151D01*
X86978233Y-75645154D01*
X86973251Y-75647477D01*
X86917072Y-75686814D01*
X86790211Y-75775643D01*
X86790208Y-75775645D01*
X86785700Y-75778802D01*
X86623802Y-75940700D01*
X86492477Y-76128251D01*
X86490154Y-76133233D01*
X86490151Y-76133238D01*
X86474195Y-76167457D01*
X86427278Y-76220742D01*
X86359001Y-76240203D01*
X86291041Y-76219661D01*
X86245805Y-76167457D01*
X86229849Y-76133238D01*
X86229846Y-76133233D01*
X86227523Y-76128251D01*
X86096198Y-75940700D01*
X85934300Y-75778802D01*
X85929792Y-75775645D01*
X85929789Y-75775643D01*
X85802928Y-75686814D01*
X85746749Y-75647477D01*
X85741767Y-75645154D01*
X85741762Y-75645151D01*
X85544225Y-75553039D01*
X85544224Y-75553039D01*
X85539243Y-75550716D01*
X85533935Y-75549294D01*
X85533933Y-75549293D01*
X85323402Y-75492881D01*
X85323400Y-75492881D01*
X85318087Y-75491457D01*
X85090000Y-75471502D01*
X84861913Y-75491457D01*
X84856600Y-75492881D01*
X84856598Y-75492881D01*
X84646067Y-75549293D01*
X84646065Y-75549294D01*
X84640757Y-75550716D01*
X84635776Y-75553039D01*
X84635775Y-75553039D01*
X84438238Y-75645151D01*
X84438233Y-75645154D01*
X84433251Y-75647477D01*
X84377072Y-75686814D01*
X84250211Y-75775643D01*
X84250208Y-75775645D01*
X84245700Y-75778802D01*
X84083802Y-75940700D01*
X83952477Y-76128251D01*
X83950154Y-76133233D01*
X83950151Y-76133238D01*
X83869590Y-76306004D01*
X83855716Y-76335757D01*
X83854294Y-76341065D01*
X83854293Y-76341067D01*
X83801341Y-76538684D01*
X83796457Y-76556913D01*
X83795978Y-76562393D01*
X83782188Y-76720012D01*
X83781500Y-76727873D01*
X83781500Y-77242127D01*
X83796457Y-77413087D01*
X83797881Y-77418400D01*
X83797881Y-77418402D01*
X83816008Y-77486050D01*
X83855716Y-77634243D01*
X83858039Y-77639224D01*
X83858039Y-77639225D01*
X83950151Y-77836762D01*
X83950154Y-77836767D01*
X83952477Y-77841749D01*
X84083802Y-78029300D01*
X84245700Y-78191198D01*
X84250208Y-78194355D01*
X84250211Y-78194357D01*
X84325520Y-78247089D01*
X84433251Y-78322523D01*
X84438233Y-78324846D01*
X84438238Y-78324849D01*
X84635775Y-78416961D01*
X84640757Y-78419284D01*
X84646065Y-78420706D01*
X84646067Y-78420707D01*
X84856598Y-78477119D01*
X84856600Y-78477119D01*
X84861913Y-78478543D01*
X85090000Y-78498498D01*
X85318087Y-78478543D01*
X85323400Y-78477119D01*
X85323402Y-78477119D01*
X85533933Y-78420707D01*
X85533935Y-78420706D01*
X85539243Y-78419284D01*
X85544225Y-78416961D01*
X85741762Y-78324849D01*
X85741767Y-78324846D01*
X85746749Y-78322523D01*
X85854480Y-78247089D01*
X85929789Y-78194357D01*
X85929792Y-78194355D01*
X85934300Y-78191198D01*
X86096198Y-78029300D01*
X86227523Y-77841749D01*
X86229846Y-77836767D01*
X86229849Y-77836762D01*
X86245805Y-77802543D01*
X86292722Y-77749258D01*
X86360999Y-77729797D01*
X86428959Y-77750339D01*
X86474195Y-77802543D01*
X86490151Y-77836762D01*
X86490154Y-77836767D01*
X86492477Y-77841749D01*
X86623802Y-78029300D01*
X86785700Y-78191198D01*
X86790208Y-78194355D01*
X86790211Y-78194357D01*
X86865520Y-78247089D01*
X86973251Y-78322523D01*
X86978233Y-78324846D01*
X86978238Y-78324849D01*
X87175775Y-78416961D01*
X87180757Y-78419284D01*
X87186064Y-78420706D01*
X87384375Y-78473844D01*
X87444997Y-78510796D01*
X87476019Y-78574657D01*
X87467590Y-78645151D01*
X87440858Y-78684646D01*
X84861284Y-81264220D01*
X84855019Y-81270073D01*
X84811219Y-81308282D01*
X84806853Y-81314495D01*
X84774309Y-81360801D01*
X84770375Y-81366098D01*
X84735454Y-81410634D01*
X84735450Y-81410640D01*
X84730767Y-81416613D01*
X84727642Y-81423534D01*
X84726428Y-81425539D01*
X84717659Y-81440912D01*
X84716541Y-81442996D01*
X84712170Y-81449216D01*
X84709410Y-81456295D01*
X84709409Y-81456297D01*
X84688852Y-81509024D01*
X84686300Y-81515097D01*
X84659880Y-81573609D01*
X84658496Y-81581077D01*
X84657788Y-81583336D01*
X84652951Y-81600318D01*
X84652358Y-81602627D01*
X84649597Y-81609708D01*
X84648606Y-81617237D01*
X84648605Y-81617240D01*
X84641217Y-81673356D01*
X84640185Y-81679870D01*
X84629872Y-81735515D01*
X84628488Y-81742983D01*
X84628925Y-81750563D01*
X84628925Y-81750564D01*
X84632091Y-81805470D01*
X84632300Y-81812723D01*
X84632300Y-87791014D01*
X84612298Y-87859135D01*
X84595395Y-87880109D01*
X83880109Y-88595395D01*
X83817797Y-88629421D01*
X83791014Y-88632300D01*
X83728637Y-88632300D01*
X83660516Y-88612298D01*
X83625424Y-88578571D01*
X83610679Y-88557512D01*
X83570198Y-88499700D01*
X83408300Y-88337802D01*
X83403792Y-88334645D01*
X83403789Y-88334643D01*
X83322616Y-88277805D01*
X83220749Y-88206477D01*
X83215767Y-88204154D01*
X83215762Y-88204151D01*
X83181543Y-88188195D01*
X83128258Y-88141278D01*
X83108797Y-88073001D01*
X83129339Y-88005041D01*
X83181543Y-87959805D01*
X83215762Y-87943849D01*
X83215767Y-87943846D01*
X83220749Y-87941523D01*
X83374736Y-87833700D01*
X83403789Y-87813357D01*
X83403792Y-87813355D01*
X83408300Y-87810198D01*
X83570198Y-87648300D01*
X83573725Y-87643264D01*
X83634053Y-87557106D01*
X83701523Y-87460749D01*
X83703846Y-87455767D01*
X83703849Y-87455762D01*
X83795961Y-87258225D01*
X83795961Y-87258224D01*
X83798284Y-87253243D01*
X83808858Y-87213783D01*
X83856119Y-87037402D01*
X83856119Y-87037400D01*
X83857543Y-87032087D01*
X83877498Y-86804000D01*
X83857543Y-86575913D01*
X83850793Y-86550720D01*
X83799707Y-86360067D01*
X83799706Y-86360065D01*
X83798284Y-86354757D01*
X83795961Y-86349775D01*
X83703849Y-86152238D01*
X83703846Y-86152233D01*
X83701523Y-86147251D01*
X83570198Y-85959700D01*
X83408300Y-85797802D01*
X83403792Y-85794645D01*
X83403789Y-85794643D01*
X83311993Y-85730367D01*
X83220749Y-85666477D01*
X83215767Y-85664154D01*
X83215762Y-85664151D01*
X83180951Y-85647919D01*
X83127666Y-85601002D01*
X83108205Y-85532725D01*
X83128747Y-85464765D01*
X83180951Y-85419529D01*
X83215511Y-85403414D01*
X83225007Y-85397931D01*
X83403467Y-85272972D01*
X83411875Y-85265916D01*
X83565916Y-85111875D01*
X83572972Y-85103467D01*
X83697931Y-84925007D01*
X83703414Y-84915511D01*
X83795490Y-84718053D01*
X83799236Y-84707761D01*
X83845394Y-84535497D01*
X83845058Y-84521401D01*
X83837116Y-84518000D01*
X80896033Y-84518000D01*
X80882502Y-84521973D01*
X80881273Y-84530522D01*
X80928764Y-84707761D01*
X80932510Y-84718053D01*
X81024586Y-84915511D01*
X81030069Y-84925007D01*
X81155028Y-85103467D01*
X81162084Y-85111875D01*
X81316125Y-85265916D01*
X81324533Y-85272972D01*
X81502993Y-85397931D01*
X81512489Y-85403414D01*
X81547049Y-85419529D01*
X81600334Y-85466446D01*
X81619795Y-85534723D01*
X81599253Y-85602683D01*
X81547049Y-85647919D01*
X81512238Y-85664151D01*
X81512233Y-85664154D01*
X81507251Y-85666477D01*
X81502743Y-85669633D01*
X81502737Y-85669637D01*
X81343985Y-85780796D01*
X81276711Y-85803484D01*
X81207851Y-85786199D01*
X81182620Y-85766678D01*
X79408446Y-83992503D01*
X80882606Y-83992503D01*
X80882942Y-84006599D01*
X80890884Y-84010000D01*
X82091885Y-84010000D01*
X82107124Y-84005525D01*
X82108329Y-84004135D01*
X82110000Y-83996452D01*
X82110000Y-83991885D01*
X82618000Y-83991885D01*
X82622475Y-84007124D01*
X82623865Y-84008329D01*
X82631548Y-84010000D01*
X83831967Y-84010000D01*
X83845498Y-84006027D01*
X83846727Y-83997478D01*
X83799236Y-83820239D01*
X83795490Y-83809947D01*
X83703414Y-83612489D01*
X83697931Y-83602993D01*
X83572972Y-83424533D01*
X83565916Y-83416125D01*
X83411875Y-83262084D01*
X83403467Y-83255028D01*
X83225007Y-83130069D01*
X83215511Y-83124586D01*
X83018053Y-83032510D01*
X83007761Y-83028764D01*
X82797312Y-82972375D01*
X82786519Y-82970472D01*
X82632670Y-82957012D01*
X82620876Y-82960475D01*
X82619671Y-82961865D01*
X82618000Y-82969548D01*
X82618000Y-83991885D01*
X82110000Y-83991885D01*
X82110000Y-82974115D01*
X82105525Y-82958876D01*
X82104135Y-82957671D01*
X82099447Y-82956652D01*
X81941481Y-82970472D01*
X81930688Y-82972375D01*
X81720239Y-83028764D01*
X81709947Y-83032510D01*
X81512489Y-83124586D01*
X81502993Y-83130069D01*
X81324533Y-83255028D01*
X81316125Y-83262084D01*
X81162084Y-83416125D01*
X81155028Y-83424533D01*
X81030069Y-83602993D01*
X81024586Y-83612489D01*
X80932510Y-83809947D01*
X80928764Y-83820239D01*
X80882606Y-83992503D01*
X79408446Y-83992503D01*
X78799503Y-83383560D01*
X76377489Y-80961546D01*
X76364652Y-80946518D01*
X76356669Y-80935530D01*
X76306937Y-80890751D01*
X76302153Y-80886210D01*
X76288006Y-80872063D01*
X76272446Y-80859463D01*
X76267425Y-80855175D01*
X76222619Y-80814830D01*
X76222615Y-80814827D01*
X76217715Y-80810415D01*
X76212005Y-80807119D01*
X76212002Y-80807116D01*
X76205955Y-80803625D01*
X76189670Y-80792432D01*
X76179125Y-80783893D01*
X76119520Y-80753523D01*
X76113724Y-80750376D01*
X76102370Y-80743821D01*
X76055785Y-80716925D01*
X76042875Y-80712730D01*
X76024616Y-80705167D01*
X76012524Y-80699006D01*
X75947906Y-80681691D01*
X75941582Y-80679818D01*
X75932981Y-80677023D01*
X75877956Y-80659145D01*
X75871389Y-80658455D01*
X75871385Y-80658454D01*
X75865712Y-80657858D01*
X75864470Y-80657728D01*
X75845028Y-80654125D01*
X75831915Y-80650611D01*
X75825318Y-80650265D01*
X75825316Y-80650265D01*
X75765113Y-80647110D01*
X75758539Y-80646593D01*
X75741895Y-80644844D01*
X75741891Y-80644844D01*
X75738620Y-80644500D01*
X75718593Y-80644500D01*
X75711999Y-80644327D01*
X75651782Y-80641171D01*
X75651778Y-80641171D01*
X75645190Y-80640826D01*
X75638675Y-80641858D01*
X75638673Y-80641858D01*
X75631786Y-80642949D01*
X75612075Y-80644500D01*
X72641188Y-80644500D01*
X72573067Y-80624498D01*
X72552093Y-80607595D01*
X72472300Y-80527802D01*
X72467792Y-80524645D01*
X72467789Y-80524643D01*
X72389611Y-80469902D01*
X72284749Y-80396477D01*
X72279767Y-80394154D01*
X72279762Y-80394151D01*
X72082225Y-80302039D01*
X72082224Y-80302039D01*
X72077243Y-80299716D01*
X72071935Y-80298294D01*
X72071933Y-80298293D01*
X71861402Y-80241881D01*
X71861400Y-80241881D01*
X71856087Y-80240457D01*
X71628000Y-80220502D01*
X71399913Y-80240457D01*
X71394600Y-80241881D01*
X71394598Y-80241881D01*
X71184067Y-80298293D01*
X71184065Y-80298294D01*
X71178757Y-80299716D01*
X71173776Y-80302039D01*
X71173775Y-80302039D01*
X70976238Y-80394151D01*
X70976233Y-80394154D01*
X70971251Y-80396477D01*
X70866389Y-80469902D01*
X70788211Y-80524643D01*
X70788208Y-80524645D01*
X70783700Y-80527802D01*
X70703907Y-80607595D01*
X70641595Y-80641621D01*
X70614812Y-80644500D01*
X70355188Y-80644500D01*
X70287067Y-80624498D01*
X70266093Y-80607595D01*
X70186300Y-80527802D01*
X70181792Y-80524645D01*
X70181789Y-80524643D01*
X70103611Y-80469902D01*
X69998749Y-80396477D01*
X69993767Y-80394154D01*
X69993762Y-80394151D01*
X69796225Y-80302039D01*
X69796224Y-80302039D01*
X69791243Y-80299716D01*
X69785935Y-80298294D01*
X69785933Y-80298293D01*
X69575402Y-80241881D01*
X69575400Y-80241881D01*
X69570087Y-80240457D01*
X69342000Y-80220502D01*
X69113913Y-80240457D01*
X69108600Y-80241881D01*
X69108598Y-80241881D01*
X68898067Y-80298293D01*
X68898065Y-80298294D01*
X68892757Y-80299716D01*
X68887776Y-80302039D01*
X68887775Y-80302039D01*
X68690238Y-80394151D01*
X68690233Y-80394154D01*
X68685251Y-80396477D01*
X68580389Y-80469902D01*
X68502211Y-80524643D01*
X68502208Y-80524645D01*
X68497700Y-80527802D01*
X68335802Y-80689700D01*
X68332645Y-80694208D01*
X68332643Y-80694211D01*
X68279796Y-80769685D01*
X68204477Y-80877251D01*
X68202154Y-80882233D01*
X68202151Y-80882238D01*
X68114615Y-81069962D01*
X68107716Y-81084757D01*
X68106294Y-81090065D01*
X68106293Y-81090067D01*
X68058060Y-81270074D01*
X68048457Y-81305913D01*
X68028502Y-81534000D01*
X68028806Y-81537480D01*
X68008979Y-81605007D01*
X67992076Y-81625981D01*
X64451546Y-85166511D01*
X64436518Y-85179348D01*
X64425530Y-85187331D01*
X64421117Y-85192233D01*
X64421115Y-85192234D01*
X64380751Y-85237063D01*
X64376210Y-85241847D01*
X64362063Y-85255994D01*
X64359986Y-85258559D01*
X64349463Y-85271554D01*
X64345175Y-85276575D01*
X64304830Y-85321381D01*
X64304827Y-85321385D01*
X64300415Y-85326285D01*
X64297119Y-85331995D01*
X64297116Y-85331998D01*
X64293625Y-85338045D01*
X64282432Y-85354330D01*
X64273893Y-85364875D01*
X64255089Y-85401781D01*
X64243523Y-85424480D01*
X64240376Y-85430276D01*
X64206925Y-85488215D01*
X64204884Y-85494497D01*
X64202731Y-85501123D01*
X64195167Y-85519384D01*
X64189006Y-85531476D01*
X64180336Y-85563831D01*
X64171691Y-85596094D01*
X64169818Y-85602418D01*
X64149145Y-85666044D01*
X64148455Y-85672611D01*
X64148454Y-85672615D01*
X64147728Y-85679529D01*
X64144125Y-85698972D01*
X64140611Y-85712085D01*
X64140265Y-85718682D01*
X64140265Y-85718684D01*
X64137110Y-85778887D01*
X64136593Y-85785461D01*
X64135628Y-85794643D01*
X64134500Y-85805380D01*
X64134500Y-85825407D01*
X64134327Y-85832001D01*
X64133227Y-85852999D01*
X64130826Y-85898810D01*
X64131858Y-85905325D01*
X64131858Y-85905327D01*
X64132949Y-85912214D01*
X64134500Y-85931925D01*
X64134500Y-90852075D01*
X64132949Y-90871786D01*
X64132422Y-90875116D01*
X64130826Y-90885190D01*
X64131171Y-90891778D01*
X64131171Y-90891782D01*
X64134327Y-90951999D01*
X64134500Y-90958593D01*
X64134500Y-90978620D01*
X64134844Y-90981891D01*
X64134844Y-90981895D01*
X64136593Y-90998539D01*
X64137110Y-91005113D01*
X64138923Y-91039700D01*
X64140611Y-91071915D01*
X64142320Y-91078292D01*
X64142320Y-91078293D01*
X64144124Y-91085023D01*
X64147728Y-91104470D01*
X64149145Y-91117956D01*
X64151187Y-91124240D01*
X64169818Y-91181582D01*
X64171691Y-91187906D01*
X64189006Y-91252524D01*
X64195167Y-91264616D01*
X64202730Y-91282875D01*
X64206925Y-91295785D01*
X64237057Y-91347975D01*
X64240376Y-91353724D01*
X64243523Y-91359520D01*
X64273893Y-91419125D01*
X64278050Y-91424258D01*
X64282432Y-91429670D01*
X64293625Y-91445955D01*
X64297116Y-91452002D01*
X64297119Y-91452005D01*
X64300415Y-91457715D01*
X64304827Y-91462615D01*
X64304830Y-91462619D01*
X64314100Y-91472914D01*
X64344437Y-91506605D01*
X64345175Y-91507425D01*
X64349463Y-91512446D01*
X64359011Y-91524237D01*
X64362063Y-91528006D01*
X64376210Y-91542153D01*
X64380751Y-91546937D01*
X64419087Y-91589513D01*
X64425530Y-91596669D01*
X64436518Y-91604652D01*
X64451546Y-91617489D01*
X67992076Y-95158019D01*
X68026102Y-95220331D01*
X68028856Y-95245952D01*
X68028502Y-95250000D01*
X68048457Y-95478087D01*
X68107716Y-95699243D01*
X68110039Y-95704224D01*
X68110039Y-95704225D01*
X68202151Y-95901762D01*
X68202154Y-95901767D01*
X68204477Y-95906749D01*
X68335802Y-96094300D01*
X68497700Y-96256198D01*
X68502208Y-96259355D01*
X68502211Y-96259357D01*
X68568584Y-96305832D01*
X68685251Y-96387523D01*
X68690233Y-96389846D01*
X68690238Y-96389849D01*
X68858556Y-96468336D01*
X68892757Y-96484284D01*
X68898065Y-96485706D01*
X68898067Y-96485707D01*
X69108598Y-96542119D01*
X69108600Y-96542119D01*
X69113913Y-96543543D01*
X69342000Y-96563498D01*
X69570087Y-96543543D01*
X69575400Y-96542119D01*
X69575402Y-96542119D01*
X69785933Y-96485707D01*
X69785935Y-96485706D01*
X69791243Y-96484284D01*
X69825444Y-96468336D01*
X69993762Y-96389849D01*
X69993767Y-96389846D01*
X69998749Y-96387523D01*
X70115416Y-96305832D01*
X70181789Y-96259357D01*
X70181792Y-96259355D01*
X70186300Y-96256198D01*
X70266093Y-96176405D01*
X70328405Y-96142379D01*
X70355188Y-96139500D01*
X70614812Y-96139500D01*
X70682933Y-96159502D01*
X70703907Y-96176405D01*
X70783700Y-96256198D01*
X70788208Y-96259355D01*
X70788211Y-96259357D01*
X70854584Y-96305832D01*
X70971251Y-96387523D01*
X70976233Y-96389846D01*
X70976238Y-96389849D01*
X71144556Y-96468336D01*
X71178757Y-96484284D01*
X71184065Y-96485706D01*
X71184067Y-96485707D01*
X71394598Y-96542119D01*
X71394600Y-96542119D01*
X71399913Y-96543543D01*
X71628000Y-96563498D01*
X71856087Y-96543543D01*
X71861400Y-96542119D01*
X71861402Y-96542119D01*
X72071933Y-96485707D01*
X72071935Y-96485706D01*
X72077243Y-96484284D01*
X72111444Y-96468336D01*
X72279762Y-96389849D01*
X72279767Y-96389846D01*
X72284749Y-96387523D01*
X72401416Y-96305832D01*
X72467789Y-96259357D01*
X72467792Y-96259355D01*
X72472300Y-96256198D01*
X72634198Y-96094300D01*
X72765523Y-95906749D01*
X72767846Y-95901767D01*
X72767849Y-95901762D01*
X72859961Y-95704225D01*
X72859961Y-95704224D01*
X72862284Y-95699243D01*
X72921543Y-95478087D01*
X72941498Y-95250000D01*
X72921543Y-95021913D01*
X72862284Y-94800757D01*
X72821001Y-94712225D01*
X72767849Y-94598238D01*
X72767846Y-94598233D01*
X72765523Y-94593251D01*
X72683425Y-94476003D01*
X72637357Y-94410211D01*
X72637355Y-94410208D01*
X72634198Y-94405700D01*
X72472300Y-94243802D01*
X72467792Y-94240645D01*
X72467789Y-94240643D01*
X72389611Y-94185902D01*
X72284749Y-94112477D01*
X72279767Y-94110154D01*
X72279762Y-94110151D01*
X72082225Y-94018039D01*
X72082224Y-94018039D01*
X72077243Y-94015716D01*
X72071935Y-94014294D01*
X72071933Y-94014293D01*
X71861402Y-93957881D01*
X71861400Y-93957881D01*
X71856087Y-93956457D01*
X71628000Y-93936502D01*
X71399913Y-93956457D01*
X71394600Y-93957881D01*
X71394598Y-93957881D01*
X71184067Y-94014293D01*
X71184065Y-94014294D01*
X71178757Y-94015716D01*
X71173776Y-94018039D01*
X71173775Y-94018039D01*
X70976238Y-94110151D01*
X70976233Y-94110154D01*
X70971251Y-94112477D01*
X70866389Y-94185902D01*
X70788211Y-94240643D01*
X70788208Y-94240645D01*
X70783700Y-94243802D01*
X70703907Y-94323595D01*
X70641595Y-94357621D01*
X70614812Y-94360500D01*
X70355188Y-94360500D01*
X70287067Y-94340498D01*
X70266093Y-94323595D01*
X70186300Y-94243802D01*
X70181792Y-94240645D01*
X70181789Y-94240643D01*
X70103611Y-94185902D01*
X69998749Y-94112477D01*
X69993767Y-94110154D01*
X69993762Y-94110151D01*
X69796225Y-94018039D01*
X69796224Y-94018039D01*
X69791243Y-94015716D01*
X69785935Y-94014294D01*
X69785933Y-94014293D01*
X69575402Y-93957881D01*
X69575400Y-93957881D01*
X69570087Y-93956457D01*
X69342000Y-93936502D01*
X69338520Y-93936806D01*
X69270993Y-93916979D01*
X69250019Y-93900076D01*
X66223924Y-90873981D01*
X66189898Y-90811669D01*
X66194963Y-90740854D01*
X66237510Y-90684018D01*
X66304030Y-90659207D01*
X66373404Y-90674298D01*
X66385289Y-90681673D01*
X66429442Y-90712589D01*
X66434420Y-90714910D01*
X66434423Y-90714912D01*
X66552069Y-90769771D01*
X66621090Y-90801956D01*
X66626398Y-90803378D01*
X66626400Y-90803379D01*
X66820030Y-90855262D01*
X66820032Y-90855262D01*
X66825345Y-90856686D01*
X67036000Y-90875116D01*
X67246655Y-90856686D01*
X67251968Y-90855262D01*
X67251970Y-90855262D01*
X67445600Y-90803379D01*
X67445602Y-90803378D01*
X67450910Y-90801956D01*
X67519931Y-90769771D01*
X67637577Y-90714912D01*
X67637580Y-90714910D01*
X67642558Y-90712589D01*
X67815776Y-90591301D01*
X67965301Y-90441776D01*
X68086589Y-90268558D01*
X68103974Y-90231277D01*
X68173633Y-90081892D01*
X68173634Y-90081891D01*
X68175956Y-90076910D01*
X68180852Y-90058640D01*
X68184293Y-90045796D01*
X68221245Y-89985173D01*
X68285106Y-89954152D01*
X68355600Y-89962580D01*
X68410347Y-90007783D01*
X68427707Y-90045796D01*
X68431149Y-90058640D01*
X68436044Y-90076910D01*
X68438366Y-90081891D01*
X68438367Y-90081892D01*
X68508027Y-90231277D01*
X68525411Y-90268558D01*
X68646699Y-90441776D01*
X68796224Y-90591301D01*
X68969442Y-90712589D01*
X68974420Y-90714910D01*
X68974423Y-90714912D01*
X69092069Y-90769771D01*
X69161090Y-90801956D01*
X69166398Y-90803378D01*
X69166400Y-90803379D01*
X69360030Y-90855262D01*
X69360032Y-90855262D01*
X69365345Y-90856686D01*
X69576000Y-90875116D01*
X69786655Y-90856686D01*
X69791968Y-90855262D01*
X69791970Y-90855262D01*
X69985600Y-90803379D01*
X69985602Y-90803378D01*
X69990910Y-90801956D01*
X70059931Y-90769771D01*
X70177577Y-90714912D01*
X70177580Y-90714910D01*
X70182558Y-90712589D01*
X70355776Y-90591301D01*
X70505301Y-90441776D01*
X70515348Y-90427428D01*
X70570802Y-90383101D01*
X70618559Y-90373700D01*
X73175211Y-90373700D01*
X73243332Y-90393702D01*
X73270448Y-90417202D01*
X73295307Y-90445900D01*
X73337866Y-90495032D01*
X73337869Y-90495035D01*
X73341250Y-90498938D01*
X73345230Y-90502242D01*
X73349981Y-90506187D01*
X73389616Y-90565090D01*
X73391113Y-90636071D01*
X73353997Y-90696593D01*
X73313725Y-90721112D01*
X73261064Y-90740854D01*
X73198295Y-90764385D01*
X73081739Y-90851739D01*
X72994385Y-90968295D01*
X72943255Y-91104684D01*
X72936500Y-91166866D01*
X72936500Y-92963134D01*
X72943255Y-93025316D01*
X72994385Y-93161705D01*
X73081739Y-93278261D01*
X73198295Y-93365615D01*
X73334684Y-93416745D01*
X73396866Y-93423500D01*
X75193134Y-93423500D01*
X75255316Y-93416745D01*
X75391705Y-93365615D01*
X75508261Y-93278261D01*
X75595615Y-93161705D01*
X75642639Y-93036270D01*
X75685281Y-92979506D01*
X75751843Y-92954806D01*
X75760621Y-92954500D01*
X78690367Y-92954500D01*
X78758488Y-92974502D01*
X78779462Y-92991405D01*
X79525462Y-93737405D01*
X79559488Y-93799717D01*
X79554423Y-93870532D01*
X79511876Y-93927368D01*
X79445356Y-93952179D01*
X79425386Y-93952021D01*
X79253476Y-93936981D01*
X79253475Y-93936981D01*
X79248000Y-93936502D01*
X79019913Y-93956457D01*
X79014600Y-93957881D01*
X79014598Y-93957881D01*
X78804067Y-94014293D01*
X78804065Y-94014294D01*
X78798757Y-94015716D01*
X78793776Y-94018039D01*
X78793775Y-94018039D01*
X78596238Y-94110151D01*
X78596233Y-94110154D01*
X78591251Y-94112477D01*
X78486389Y-94185902D01*
X78408211Y-94240643D01*
X78408208Y-94240645D01*
X78403700Y-94243802D01*
X78241802Y-94405700D01*
X78192503Y-94476107D01*
X78186576Y-94484571D01*
X78131119Y-94528899D01*
X78083363Y-94538300D01*
X78007030Y-94538300D01*
X77998460Y-94538008D01*
X77948054Y-94534571D01*
X77948050Y-94534571D01*
X77940479Y-94534055D01*
X77933003Y-94535360D01*
X77933000Y-94535360D01*
X77877217Y-94545096D01*
X77870692Y-94546059D01*
X77814533Y-94552855D01*
X77814532Y-94552855D01*
X77806989Y-94553768D01*
X77799881Y-94556454D01*
X77797581Y-94557019D01*
X77780520Y-94561686D01*
X77778266Y-94562366D01*
X77770785Y-94563672D01*
X77711995Y-94589479D01*
X77705898Y-94591967D01*
X77652953Y-94611973D01*
X77652950Y-94611974D01*
X77645851Y-94614657D01*
X77639596Y-94618956D01*
X77637505Y-94620049D01*
X77622043Y-94628655D01*
X77620009Y-94629858D01*
X77613054Y-94632911D01*
X77607029Y-94637534D01*
X77607024Y-94637537D01*
X77562126Y-94671988D01*
X77556791Y-94675864D01*
X77510153Y-94707918D01*
X77510147Y-94707923D01*
X77503888Y-94712225D01*
X77462220Y-94758992D01*
X77457258Y-94764246D01*
X76479284Y-95742220D01*
X76473019Y-95748073D01*
X76429219Y-95786282D01*
X76424853Y-95792495D01*
X76392309Y-95838801D01*
X76388375Y-95844098D01*
X76353454Y-95888634D01*
X76353450Y-95888640D01*
X76348767Y-95894613D01*
X76345642Y-95901534D01*
X76344428Y-95903539D01*
X76335659Y-95918912D01*
X76334541Y-95920996D01*
X76330170Y-95927216D01*
X76327410Y-95934295D01*
X76327409Y-95934297D01*
X76306852Y-95987024D01*
X76304300Y-95993097D01*
X76277880Y-96051609D01*
X76276496Y-96059077D01*
X76275788Y-96061336D01*
X76270951Y-96078318D01*
X76270358Y-96080627D01*
X76267597Y-96087708D01*
X76266606Y-96095237D01*
X76266605Y-96095240D01*
X76259217Y-96151356D01*
X76258185Y-96157870D01*
X76251313Y-96194951D01*
X76246488Y-96220983D01*
X76246925Y-96228563D01*
X76246925Y-96228564D01*
X76250091Y-96283470D01*
X76250300Y-96290723D01*
X76250300Y-100626970D01*
X76250008Y-100635540D01*
X76246576Y-100685884D01*
X76246055Y-100693521D01*
X76247360Y-100700997D01*
X76247360Y-100701000D01*
X76257096Y-100756783D01*
X76258059Y-100763308D01*
X76265768Y-100827011D01*
X76268454Y-100834119D01*
X76269019Y-100836419D01*
X76273686Y-100853480D01*
X76274366Y-100855734D01*
X76275672Y-100863215D01*
X76291213Y-100898617D01*
X76301475Y-100921995D01*
X76303964Y-100928094D01*
X76305633Y-100932510D01*
X76311006Y-101003303D01*
X76309190Y-101010716D01*
X76288348Y-101085869D01*
X76287799Y-101091002D01*
X76287799Y-101091004D01*
X76265932Y-101295615D01*
X76264172Y-101312082D01*
X76264469Y-101317234D01*
X76264469Y-101317238D01*
X76272525Y-101456946D01*
X76277268Y-101539206D01*
X76278405Y-101544252D01*
X76278406Y-101544258D01*
X76326145Y-101756093D01*
X76327283Y-101761141D01*
X76412875Y-101971927D01*
X76531744Y-102165904D01*
X76680698Y-102337861D01*
X76684673Y-102341161D01*
X76684677Y-102341165D01*
X76807767Y-102443356D01*
X76847402Y-102502259D01*
X76848900Y-102573240D01*
X76811785Y-102633762D01*
X76747841Y-102664611D01*
X76727282Y-102666300D01*
X74045879Y-102666300D01*
X73977758Y-102646298D01*
X73931265Y-102592642D01*
X73921161Y-102522368D01*
X73926676Y-102509475D01*
X73928622Y-102488924D01*
X73920585Y-102473795D01*
X73164812Y-101718022D01*
X73150868Y-101710408D01*
X73149035Y-101710539D01*
X73142420Y-101714790D01*
X72380460Y-102476750D01*
X72372846Y-102490694D01*
X72374673Y-102516250D01*
X72380291Y-102531312D01*
X72365199Y-102600686D01*
X72314997Y-102650888D01*
X72254612Y-102666300D01*
X70124985Y-102666300D01*
X70056864Y-102646298D01*
X70035894Y-102629399D01*
X69140191Y-101733695D01*
X69106167Y-101671385D01*
X69104366Y-101628155D01*
X69105190Y-101621902D01*
X69132585Y-101413815D01*
X69133937Y-101358498D01*
X69134160Y-101349365D01*
X69134160Y-101349361D01*
X69134242Y-101346000D01*
X69115601Y-101119264D01*
X69060178Y-100898617D01*
X68998507Y-100756783D01*
X68971522Y-100694722D01*
X68971520Y-100694719D01*
X68969462Y-100689985D01*
X68919423Y-100612635D01*
X68899216Y-100544577D01*
X68919012Y-100476396D01*
X68972527Y-100429742D01*
X69015329Y-100418585D01*
X69106762Y-100411389D01*
X69250557Y-100400072D01*
X69255364Y-100398918D01*
X69255370Y-100398917D01*
X69413512Y-100360950D01*
X69489092Y-100342805D01*
X69493663Y-100340912D01*
X69493665Y-100340911D01*
X69571033Y-100308864D01*
X69715732Y-100248927D01*
X69877872Y-100149568D01*
X69920670Y-100123342D01*
X69920673Y-100123340D01*
X69924896Y-100120752D01*
X69969432Y-100082715D01*
X70107677Y-99964641D01*
X70111433Y-99961433D01*
X70215822Y-99839210D01*
X70267535Y-99778663D01*
X70267537Y-99778660D01*
X70270752Y-99774896D01*
X70346567Y-99651176D01*
X70399214Y-99603544D01*
X70469256Y-99591937D01*
X70534454Y-99620040D01*
X70561432Y-99651175D01*
X70637248Y-99774896D01*
X70640463Y-99778660D01*
X70640465Y-99778663D01*
X70692178Y-99839210D01*
X70796567Y-99961433D01*
X70800323Y-99964641D01*
X70938569Y-100082715D01*
X70983104Y-100120752D01*
X70987327Y-100123340D01*
X70987330Y-100123342D01*
X71030128Y-100149568D01*
X71192268Y-100248927D01*
X71336967Y-100308864D01*
X71414335Y-100340911D01*
X71414337Y-100340912D01*
X71418908Y-100342805D01*
X71494488Y-100360950D01*
X71652630Y-100398917D01*
X71652636Y-100398918D01*
X71657443Y-100400072D01*
X71753011Y-100407593D01*
X71882630Y-100417795D01*
X71948971Y-100443081D01*
X71991111Y-100500219D01*
X71995670Y-100571069D01*
X71976832Y-100614411D01*
X71948286Y-100656258D01*
X71943188Y-100665232D01*
X71851795Y-100862121D01*
X71848232Y-100871808D01*
X71790223Y-101080979D01*
X71788292Y-101091100D01*
X71765222Y-101306962D01*
X71764971Y-101317250D01*
X71777467Y-101533967D01*
X71778903Y-101544188D01*
X71826627Y-101755948D01*
X71829706Y-101765777D01*
X71911379Y-101966914D01*
X71916022Y-101976105D01*
X72000279Y-102113601D01*
X72010735Y-102123061D01*
X72019513Y-102119277D01*
X72791658Y-101347132D01*
X73516408Y-101347132D01*
X73516539Y-101348965D01*
X73520790Y-101355580D01*
X74280388Y-102115178D01*
X74292398Y-102121736D01*
X74304138Y-102112768D01*
X74338507Y-102064940D01*
X74343816Y-102056103D01*
X74439994Y-101861503D01*
X74443792Y-101851910D01*
X74506897Y-101644208D01*
X74509074Y-101634138D01*
X74537646Y-101417113D01*
X74538165Y-101410438D01*
X74539658Y-101349364D01*
X74539464Y-101342646D01*
X74521530Y-101124507D01*
X74519845Y-101114327D01*
X74466962Y-100903791D01*
X74463642Y-100894040D01*
X74377080Y-100694959D01*
X74372213Y-100685884D01*
X74303144Y-100579118D01*
X74292458Y-100569915D01*
X74282891Y-100574319D01*
X73524022Y-101333188D01*
X73516408Y-101347132D01*
X72791658Y-101347132D01*
X73923190Y-100215600D01*
X73930211Y-100202744D01*
X73922718Y-100192461D01*
X73915435Y-100187622D01*
X73725398Y-100082715D01*
X73715989Y-100078487D01*
X73511364Y-100006026D01*
X73501401Y-100003394D01*
X73287687Y-99965326D01*
X73277432Y-99964356D01*
X73274114Y-99964315D01*
X73272829Y-99963920D01*
X73272275Y-99963868D01*
X73272286Y-99963754D01*
X73206243Y-99943478D01*
X73160412Y-99889257D01*
X73151171Y-99818864D01*
X73168224Y-99772493D01*
X73294927Y-99565732D01*
X73388805Y-99339092D01*
X73446072Y-99100557D01*
X73465319Y-98856000D01*
X73446072Y-98611443D01*
X73442916Y-98598295D01*
X73403500Y-98434118D01*
X73388805Y-98372908D01*
X73381281Y-98354742D01*
X73296820Y-98150839D01*
X73294927Y-98146268D01*
X73166752Y-97937104D01*
X73007433Y-97750567D01*
X73003677Y-97747359D01*
X72824663Y-97594465D01*
X72824660Y-97594463D01*
X72820896Y-97591248D01*
X72816673Y-97588660D01*
X72816670Y-97588658D01*
X72660237Y-97492797D01*
X72611732Y-97463073D01*
X72412889Y-97380709D01*
X72389665Y-97371089D01*
X72389663Y-97371088D01*
X72385092Y-97369195D01*
X72233700Y-97332849D01*
X72151370Y-97313083D01*
X72151364Y-97313082D01*
X72146557Y-97311928D01*
X71902000Y-97292681D01*
X71657443Y-97311928D01*
X71652636Y-97313082D01*
X71652630Y-97313083D01*
X71570300Y-97332849D01*
X71418908Y-97369195D01*
X71414337Y-97371088D01*
X71414335Y-97371089D01*
X71391111Y-97380709D01*
X71192268Y-97463073D01*
X71143763Y-97492797D01*
X70987330Y-97588658D01*
X70987327Y-97588660D01*
X70983104Y-97591248D01*
X70979340Y-97594463D01*
X70979337Y-97594465D01*
X70800323Y-97747359D01*
X70796567Y-97750567D01*
X70637248Y-97937104D01*
X70634660Y-97941327D01*
X70634658Y-97941330D01*
X70561433Y-98060824D01*
X70508786Y-98108456D01*
X70438744Y-98120063D01*
X70373546Y-98091960D01*
X70346567Y-98060824D01*
X70273342Y-97941330D01*
X70273340Y-97941327D01*
X70270752Y-97937104D01*
X70111433Y-97750567D01*
X70107677Y-97747359D01*
X69928663Y-97594465D01*
X69928660Y-97594463D01*
X69924896Y-97591248D01*
X69920673Y-97588660D01*
X69920670Y-97588658D01*
X69764237Y-97492797D01*
X69715732Y-97463073D01*
X69516889Y-97380709D01*
X69493665Y-97371089D01*
X69493663Y-97371088D01*
X69489092Y-97369195D01*
X69337700Y-97332849D01*
X69255370Y-97313083D01*
X69255364Y-97313082D01*
X69250557Y-97311928D01*
X69006000Y-97292681D01*
X68761443Y-97311928D01*
X68756636Y-97313082D01*
X68756630Y-97313083D01*
X68674300Y-97332849D01*
X68522908Y-97369195D01*
X68518337Y-97371088D01*
X68518335Y-97371089D01*
X68495111Y-97380709D01*
X68296268Y-97463073D01*
X68247763Y-97492797D01*
X68091330Y-97588658D01*
X68091327Y-97588660D01*
X68087104Y-97591248D01*
X68083340Y-97594463D01*
X68083337Y-97594465D01*
X67904323Y-97747359D01*
X67900567Y-97750567D01*
X67741248Y-97937104D01*
X67613073Y-98146268D01*
X67611180Y-98150839D01*
X67526720Y-98354742D01*
X67519195Y-98372908D01*
X67504500Y-98434118D01*
X67465085Y-98598295D01*
X67461928Y-98611443D01*
X67442681Y-98856000D01*
X67461928Y-99100557D01*
X67519195Y-99339092D01*
X67613073Y-99565732D01*
X67738664Y-99770679D01*
X67757201Y-99839210D01*
X67735744Y-99906887D01*
X67681105Y-99952220D01*
X67648990Y-99960026D01*
X67649161Y-99961140D01*
X67468049Y-99988854D01*
X67397686Y-99979386D01*
X67359895Y-99953399D01*
X63039308Y-95632812D01*
X63005282Y-95570500D01*
X63006696Y-95511107D01*
X63014118Y-95483405D01*
X63014119Y-95483402D01*
X63015543Y-95478087D01*
X63035498Y-95250000D01*
X63015543Y-95021913D01*
X62956284Y-94800757D01*
X62915001Y-94712225D01*
X62861849Y-94598238D01*
X62861846Y-94598233D01*
X62859523Y-94593251D01*
X62777425Y-94476003D01*
X62731357Y-94410211D01*
X62731355Y-94410208D01*
X62728198Y-94405700D01*
X62566300Y-94243802D01*
X62561792Y-94240645D01*
X62561789Y-94240643D01*
X62483611Y-94185902D01*
X62378749Y-94112477D01*
X62373767Y-94110154D01*
X62373762Y-94110151D01*
X62176225Y-94018039D01*
X62176224Y-94018039D01*
X62171243Y-94015716D01*
X62165935Y-94014294D01*
X62165933Y-94014293D01*
X61955402Y-93957881D01*
X61955400Y-93957881D01*
X61950087Y-93956457D01*
X61722000Y-93936502D01*
X61493913Y-93956457D01*
X61488600Y-93957881D01*
X61488598Y-93957881D01*
X61278067Y-94014293D01*
X61278065Y-94014294D01*
X61272757Y-94015716D01*
X61267776Y-94018039D01*
X61267775Y-94018039D01*
X61139750Y-94077738D01*
X61069558Y-94088399D01*
X61004745Y-94059419D01*
X60965889Y-93999999D01*
X60960500Y-93963543D01*
X60960500Y-82820457D01*
X60980502Y-82752336D01*
X61034158Y-82705843D01*
X61104432Y-82695739D01*
X61139749Y-82706262D01*
X61221090Y-82744191D01*
X61256429Y-82760670D01*
X61272757Y-82768284D01*
X61278065Y-82769706D01*
X61278067Y-82769707D01*
X61488598Y-82826119D01*
X61488600Y-82826119D01*
X61493913Y-82827543D01*
X61722000Y-82847498D01*
X61950087Y-82827543D01*
X61955400Y-82826119D01*
X61955402Y-82826119D01*
X62165933Y-82769707D01*
X62165935Y-82769706D01*
X62171243Y-82768284D01*
X62176225Y-82765961D01*
X62373762Y-82673849D01*
X62373767Y-82673846D01*
X62378749Y-82671523D01*
X62495734Y-82589609D01*
X62561789Y-82543357D01*
X62561792Y-82543355D01*
X62566300Y-82540198D01*
X62728198Y-82378300D01*
X62859523Y-82190749D01*
X62861846Y-82185767D01*
X62861849Y-82185762D01*
X62953961Y-81988225D01*
X62953961Y-81988224D01*
X62956284Y-81983243D01*
X63003919Y-81805470D01*
X63014119Y-81767402D01*
X63014119Y-81767400D01*
X63015543Y-81762087D01*
X63035498Y-81534000D01*
X63015543Y-81305913D01*
X63005940Y-81270074D01*
X62957707Y-81090067D01*
X62957706Y-81090065D01*
X62956284Y-81084757D01*
X62949385Y-81069962D01*
X62861849Y-80882238D01*
X62861846Y-80882233D01*
X62859523Y-80877251D01*
X62784204Y-80769685D01*
X62731357Y-80694211D01*
X62731355Y-80694208D01*
X62728198Y-80689700D01*
X62566300Y-80527802D01*
X62561792Y-80524645D01*
X62561789Y-80524643D01*
X62483611Y-80469902D01*
X62378749Y-80396477D01*
X62373767Y-80394154D01*
X62373762Y-80394151D01*
X62176225Y-80302039D01*
X62176224Y-80302039D01*
X62171243Y-80299716D01*
X62165935Y-80298294D01*
X62165933Y-80298293D01*
X61955402Y-80241881D01*
X61955400Y-80241881D01*
X61950087Y-80240457D01*
X61722000Y-80220502D01*
X61493913Y-80240457D01*
X61488600Y-80241881D01*
X61488598Y-80241881D01*
X61278067Y-80298293D01*
X61278065Y-80298294D01*
X61272757Y-80299716D01*
X61267776Y-80302039D01*
X61267775Y-80302039D01*
X61139750Y-80361738D01*
X61069558Y-80372399D01*
X61004745Y-80343419D01*
X60965889Y-80283999D01*
X60960500Y-80247543D01*
X60960500Y-79265533D01*
X60980502Y-79197412D01*
X61034158Y-79150919D01*
X61104432Y-79140815D01*
X61152332Y-79158099D01*
X61337268Y-79271427D01*
X61481967Y-79331364D01*
X61559335Y-79363411D01*
X61559337Y-79363412D01*
X61563908Y-79365305D01*
X61646563Y-79385149D01*
X61797630Y-79421417D01*
X61797636Y-79421418D01*
X61802443Y-79422572D01*
X62047000Y-79441819D01*
X62291557Y-79422572D01*
X62296364Y-79421418D01*
X62296370Y-79421417D01*
X62447437Y-79385149D01*
X62530092Y-79365305D01*
X62534663Y-79363412D01*
X62534665Y-79363411D01*
X62612033Y-79331364D01*
X62756732Y-79271427D01*
X62953385Y-79150919D01*
X62961670Y-79145842D01*
X62961673Y-79145840D01*
X62965896Y-79143252D01*
X63152433Y-78983933D01*
X63311752Y-78797396D01*
X63439927Y-78588232D01*
X63533805Y-78361592D01*
X63556259Y-78268064D01*
X63589917Y-78127870D01*
X63589918Y-78127864D01*
X63591072Y-78123057D01*
X63610319Y-77878500D01*
X63591072Y-77633943D01*
X63589870Y-77628933D01*
X63538049Y-77413087D01*
X63533805Y-77395408D01*
X63439927Y-77168768D01*
X63313040Y-76961706D01*
X63294503Y-76893175D01*
X63315960Y-76825498D01*
X63370599Y-76780165D01*
X63404464Y-76770895D01*
X63590504Y-76747063D01*
X63590505Y-76747063D01*
X63595632Y-76746406D01*
X63648273Y-76730613D01*
X63808591Y-76682515D01*
X63808592Y-76682514D01*
X63813537Y-76681031D01*
X64017839Y-76580944D01*
X64022043Y-76577946D01*
X64022047Y-76577943D01*
X64198847Y-76451833D01*
X64198849Y-76451831D01*
X64203051Y-76448834D01*
X64364199Y-76288247D01*
X64370733Y-76279154D01*
X64493938Y-76107698D01*
X64493942Y-76107692D01*
X64496956Y-76103497D01*
X64575186Y-75945211D01*
X64595461Y-75904188D01*
X64595462Y-75904186D01*
X64597755Y-75899546D01*
X64663890Y-75681870D01*
X64664579Y-75676638D01*
X64693148Y-75459636D01*
X64693148Y-75459632D01*
X64693585Y-75456315D01*
X64694929Y-75401312D01*
X64695160Y-75391865D01*
X64695160Y-75391861D01*
X64695242Y-75388500D01*
X64692878Y-75359750D01*
X66419971Y-75359750D01*
X66432467Y-75576467D01*
X66433903Y-75586688D01*
X66481627Y-75798448D01*
X66484706Y-75808277D01*
X66566379Y-76009414D01*
X66571022Y-76018605D01*
X66655279Y-76156101D01*
X66665735Y-76165561D01*
X66674513Y-76161777D01*
X67434978Y-75401312D01*
X67442592Y-75387368D01*
X67442461Y-75385535D01*
X67438210Y-75378920D01*
X66678858Y-74619568D01*
X66667322Y-74613268D01*
X66655039Y-74622891D01*
X66603279Y-74698768D01*
X66598191Y-74707724D01*
X66506795Y-74904621D01*
X66503232Y-74914308D01*
X66445223Y-75123479D01*
X66443292Y-75133600D01*
X66420222Y-75349462D01*
X66419971Y-75359750D01*
X64692878Y-75359750D01*
X64676601Y-75161764D01*
X64621178Y-74941117D01*
X64530462Y-74732485D01*
X64406890Y-74541471D01*
X64253779Y-74373204D01*
X64094063Y-74247069D01*
X67030365Y-74247069D01*
X67037111Y-74259401D01*
X67794188Y-75016478D01*
X67808132Y-75024092D01*
X67809965Y-75023961D01*
X67816580Y-75019710D01*
X68578190Y-74258100D01*
X68585211Y-74245244D01*
X68577718Y-74234961D01*
X68570435Y-74230122D01*
X68380398Y-74125215D01*
X68370989Y-74120987D01*
X68166364Y-74048526D01*
X68156401Y-74045894D01*
X67942687Y-74007826D01*
X67932434Y-74006856D01*
X67715366Y-74004203D01*
X67705082Y-74004923D01*
X67490507Y-74037758D01*
X67480479Y-74040147D01*
X67274147Y-74107587D01*
X67264637Y-74111584D01*
X67072095Y-74211815D01*
X67063370Y-74217309D01*
X67038819Y-74235743D01*
X67030365Y-74247069D01*
X64094063Y-74247069D01*
X64075241Y-74232204D01*
X64037537Y-74211390D01*
X63934670Y-74154605D01*
X63876072Y-74122257D01*
X63871203Y-74120533D01*
X63871199Y-74120531D01*
X63666496Y-74048041D01*
X63666492Y-74048040D01*
X63661621Y-74046315D01*
X63656528Y-74045408D01*
X63656525Y-74045407D01*
X63442734Y-74007325D01*
X63442728Y-74007324D01*
X63437645Y-74006419D01*
X63364196Y-74005522D01*
X63215331Y-74003703D01*
X63215329Y-74003703D01*
X63210161Y-74003640D01*
X62985278Y-74038052D01*
X62769035Y-74108731D01*
X62764447Y-74111119D01*
X62764443Y-74111121D01*
X62625762Y-74183314D01*
X62567239Y-74213779D01*
X62563106Y-74216882D01*
X62563103Y-74216884D01*
X62506476Y-74259401D01*
X62385310Y-74350375D01*
X62228133Y-74514851D01*
X62099931Y-74702789D01*
X62097758Y-74707471D01*
X62097756Y-74707474D01*
X62083838Y-74737459D01*
X62004145Y-74909143D01*
X61943348Y-75128369D01*
X61942799Y-75133506D01*
X61921028Y-75337217D01*
X61919172Y-75354582D01*
X61919469Y-75359734D01*
X61919469Y-75359738D01*
X61925656Y-75467030D01*
X61932268Y-75581706D01*
X61933405Y-75586752D01*
X61933406Y-75586758D01*
X61950528Y-75662734D01*
X61982283Y-75803641D01*
X62067875Y-76014427D01*
X62125032Y-76107698D01*
X62135304Y-76124461D01*
X62153842Y-76192995D01*
X62132386Y-76260671D01*
X62077747Y-76306004D01*
X62037757Y-76315908D01*
X61903438Y-76326480D01*
X61802443Y-76334428D01*
X61797636Y-76335582D01*
X61797630Y-76335583D01*
X61646563Y-76371851D01*
X61563908Y-76391695D01*
X61559337Y-76393588D01*
X61559335Y-76393589D01*
X61481967Y-76425636D01*
X61337268Y-76485573D01*
X61152333Y-76598901D01*
X61083801Y-76617438D01*
X61016124Y-76595981D01*
X60970791Y-76541342D01*
X60960500Y-76491467D01*
X60960500Y-73278500D01*
X60980502Y-73210379D01*
X61034158Y-73163886D01*
X61086500Y-73152500D01*
X74138314Y-73152500D01*
X74206435Y-73172502D01*
G37*
%TD.AperFunction*%
%TA.AperFunction,Conductor*%
G36*
X70682933Y-82443502D02*
G01*
X70703907Y-82460405D01*
X70783700Y-82540198D01*
X70788208Y-82543355D01*
X70788211Y-82543357D01*
X70854266Y-82589609D01*
X70971251Y-82671523D01*
X70976233Y-82673846D01*
X70976238Y-82673849D01*
X71173775Y-82765961D01*
X71178757Y-82768284D01*
X71184065Y-82769706D01*
X71184067Y-82769707D01*
X71394598Y-82826119D01*
X71394600Y-82826119D01*
X71399913Y-82827543D01*
X71628000Y-82847498D01*
X71856087Y-82827543D01*
X71861400Y-82826119D01*
X71861402Y-82826119D01*
X72071933Y-82769707D01*
X72071935Y-82769706D01*
X72077243Y-82768284D01*
X72082225Y-82765961D01*
X72279762Y-82673849D01*
X72279767Y-82673846D01*
X72284749Y-82671523D01*
X72401734Y-82589609D01*
X72467789Y-82543357D01*
X72467792Y-82543355D01*
X72472300Y-82540198D01*
X72552093Y-82460405D01*
X72614405Y-82426379D01*
X72641188Y-82423500D01*
X75271367Y-82423500D01*
X75339488Y-82443502D01*
X75360462Y-82460405D01*
X80276509Y-87376451D01*
X80289349Y-87391484D01*
X80297331Y-87402470D01*
X80302233Y-87406883D01*
X80302234Y-87406885D01*
X80347073Y-87447258D01*
X80351857Y-87451799D01*
X80365994Y-87465936D01*
X80381546Y-87478529D01*
X80386550Y-87482803D01*
X80436285Y-87527585D01*
X80448044Y-87534374D01*
X80464329Y-87545567D01*
X80469740Y-87549948D01*
X80474875Y-87554106D01*
X80480759Y-87557104D01*
X80480762Y-87557106D01*
X80534481Y-87584478D01*
X80540276Y-87587624D01*
X80598215Y-87621075D01*
X80604499Y-87623117D01*
X80604504Y-87623119D01*
X80611121Y-87625269D01*
X80629385Y-87632834D01*
X80635590Y-87635996D01*
X80635595Y-87635998D01*
X80641475Y-87638994D01*
X80706111Y-87656313D01*
X80712412Y-87658180D01*
X80776044Y-87678855D01*
X80782609Y-87679545D01*
X80782618Y-87679547D01*
X80789543Y-87680275D01*
X80808976Y-87683876D01*
X80813964Y-87685212D01*
X80822084Y-87687388D01*
X80828677Y-87687734D01*
X80828680Y-87687734D01*
X80888881Y-87690889D01*
X80895456Y-87691406D01*
X80915380Y-87693500D01*
X80935413Y-87693500D01*
X80942007Y-87693673D01*
X81002217Y-87696829D01*
X81002222Y-87696829D01*
X81008809Y-87697174D01*
X81015324Y-87696142D01*
X81015326Y-87696142D01*
X81022213Y-87695051D01*
X81041924Y-87693500D01*
X81150812Y-87693500D01*
X81218933Y-87713502D01*
X81239907Y-87730405D01*
X81319700Y-87810198D01*
X81324208Y-87813355D01*
X81324211Y-87813357D01*
X81353264Y-87833700D01*
X81507251Y-87941523D01*
X81512233Y-87943846D01*
X81512238Y-87943849D01*
X81546457Y-87959805D01*
X81599742Y-88006722D01*
X81619203Y-88074999D01*
X81598661Y-88142959D01*
X81546457Y-88188195D01*
X81512238Y-88204151D01*
X81512233Y-88204154D01*
X81507251Y-88206477D01*
X81405384Y-88277805D01*
X81324211Y-88334643D01*
X81324208Y-88334645D01*
X81319700Y-88337802D01*
X81157802Y-88499700D01*
X81154645Y-88504208D01*
X81154643Y-88504211D01*
X81140530Y-88524367D01*
X81026477Y-88687251D01*
X81024154Y-88692233D01*
X81024151Y-88692238D01*
X80933460Y-88886728D01*
X80929716Y-88894757D01*
X80928294Y-88900065D01*
X80928293Y-88900067D01*
X80877207Y-89090720D01*
X80870457Y-89115913D01*
X80850502Y-89344000D01*
X80870457Y-89572087D01*
X80929716Y-89793243D01*
X80932039Y-89798224D01*
X80932039Y-89798225D01*
X81024151Y-89995762D01*
X81024154Y-89995767D01*
X81026477Y-90000749D01*
X81067927Y-90059945D01*
X81132756Y-90152530D01*
X81157802Y-90188300D01*
X81319700Y-90350198D01*
X81324208Y-90353355D01*
X81324211Y-90353357D01*
X81381830Y-90393702D01*
X81507251Y-90481523D01*
X81512233Y-90483846D01*
X81512238Y-90483849D01*
X81546457Y-90499805D01*
X81599742Y-90546722D01*
X81619203Y-90614999D01*
X81598661Y-90682959D01*
X81546457Y-90728195D01*
X81512238Y-90744151D01*
X81512233Y-90744154D01*
X81507251Y-90746477D01*
X81405384Y-90817805D01*
X81324211Y-90874643D01*
X81324208Y-90874645D01*
X81319700Y-90877802D01*
X81157802Y-91039700D01*
X81154645Y-91044208D01*
X81154643Y-91044211D01*
X81112449Y-91104471D01*
X81026477Y-91227251D01*
X81024154Y-91232233D01*
X81024151Y-91232238D01*
X80944495Y-91403063D01*
X80929716Y-91434757D01*
X80928294Y-91440065D01*
X80928293Y-91440067D01*
X80876782Y-91632309D01*
X80870457Y-91655913D01*
X80850502Y-91884000D01*
X80870457Y-92112087D01*
X80871881Y-92117400D01*
X80871881Y-92117402D01*
X80915083Y-92278632D01*
X80913393Y-92349608D01*
X80873599Y-92408404D01*
X80808335Y-92436352D01*
X80738321Y-92424579D01*
X80704281Y-92400338D01*
X79796489Y-91492546D01*
X79783652Y-91477518D01*
X79775669Y-91466530D01*
X79725937Y-91421751D01*
X79721153Y-91417210D01*
X79707006Y-91403063D01*
X79691446Y-91390463D01*
X79686425Y-91386175D01*
X79641619Y-91345830D01*
X79641615Y-91345827D01*
X79636715Y-91341415D01*
X79631005Y-91338119D01*
X79631002Y-91338116D01*
X79624955Y-91334625D01*
X79608670Y-91323432D01*
X79598125Y-91314893D01*
X79538520Y-91284523D01*
X79532724Y-91281376D01*
X79518992Y-91273448D01*
X79474785Y-91247925D01*
X79461875Y-91243730D01*
X79443616Y-91236167D01*
X79431524Y-91230006D01*
X79366906Y-91212691D01*
X79360582Y-91210818D01*
X79351981Y-91208023D01*
X79296956Y-91190145D01*
X79290389Y-91189455D01*
X79290385Y-91189454D01*
X79284712Y-91188858D01*
X79283470Y-91188728D01*
X79264028Y-91185125D01*
X79250915Y-91181611D01*
X79244318Y-91181265D01*
X79244316Y-91181265D01*
X79184113Y-91178110D01*
X79177539Y-91177593D01*
X79160895Y-91175844D01*
X79160891Y-91175844D01*
X79157620Y-91175500D01*
X79137593Y-91175500D01*
X79130999Y-91175327D01*
X79070782Y-91172171D01*
X79070778Y-91172171D01*
X79064190Y-91171826D01*
X79057675Y-91172858D01*
X79057673Y-91172858D01*
X79050786Y-91173949D01*
X79031075Y-91175500D01*
X75760621Y-91175500D01*
X75692500Y-91155498D01*
X75646007Y-91101842D01*
X75642639Y-91093730D01*
X75598767Y-90976703D01*
X75595615Y-90968295D01*
X75508261Y-90851739D01*
X75391705Y-90764385D01*
X75337731Y-90744151D01*
X75273203Y-90719960D01*
X75216439Y-90677318D01*
X75191739Y-90610756D01*
X75206947Y-90541408D01*
X75228493Y-90512727D01*
X75295784Y-90445671D01*
X75333096Y-90408489D01*
X75343722Y-90393702D01*
X75460435Y-90231277D01*
X75463453Y-90227077D01*
X75469414Y-90215017D01*
X75560136Y-90031453D01*
X75560137Y-90031451D01*
X75562430Y-90026811D01*
X75605983Y-89883463D01*
X75625865Y-89818023D01*
X75625865Y-89818021D01*
X75627370Y-89813069D01*
X75656529Y-89591590D01*
X75657006Y-89572087D01*
X75658074Y-89528365D01*
X75658074Y-89528361D01*
X75658156Y-89525000D01*
X75639852Y-89302361D01*
X75585431Y-89085702D01*
X75496354Y-88880840D01*
X75375014Y-88693277D01*
X75224670Y-88528051D01*
X75220619Y-88524852D01*
X75220615Y-88524848D01*
X75053414Y-88392800D01*
X75053410Y-88392798D01*
X75049359Y-88389598D01*
X75008053Y-88366796D01*
X74958084Y-88316364D01*
X74943312Y-88246921D01*
X74968428Y-88180516D01*
X74995780Y-88153909D01*
X75057736Y-88109716D01*
X75174860Y-88026173D01*
X75333096Y-87868489D01*
X75339818Y-87859135D01*
X75460435Y-87691277D01*
X75463453Y-87687077D01*
X75478238Y-87657163D01*
X75560136Y-87491453D01*
X75560137Y-87491451D01*
X75562430Y-87486811D01*
X75621857Y-87291216D01*
X75625865Y-87278023D01*
X75625865Y-87278021D01*
X75627370Y-87273069D01*
X75656529Y-87051590D01*
X75657073Y-87029323D01*
X75658074Y-86988365D01*
X75658074Y-86988361D01*
X75658156Y-86985000D01*
X75639852Y-86762361D01*
X75585431Y-86545702D01*
X75496354Y-86340840D01*
X75375014Y-86153277D01*
X75224670Y-85988051D01*
X75220619Y-85984852D01*
X75220615Y-85984848D01*
X75053414Y-85852800D01*
X75053410Y-85852798D01*
X75049359Y-85849598D01*
X75007569Y-85826529D01*
X74957598Y-85776097D01*
X74942826Y-85706654D01*
X74967942Y-85640248D01*
X74995294Y-85613641D01*
X75170328Y-85488792D01*
X75178200Y-85482139D01*
X75329052Y-85331812D01*
X75335730Y-85323965D01*
X75460003Y-85151020D01*
X75465313Y-85142183D01*
X75559670Y-84951267D01*
X75563469Y-84941672D01*
X75625377Y-84737910D01*
X75627555Y-84727837D01*
X75628986Y-84716962D01*
X75626775Y-84702778D01*
X75613617Y-84699000D01*
X72978225Y-84699000D01*
X72964694Y-84702973D01*
X72963257Y-84712966D01*
X72993565Y-84847446D01*
X72996645Y-84857275D01*
X73076770Y-85054603D01*
X73081413Y-85063794D01*
X73192694Y-85245388D01*
X73198777Y-85253699D01*
X73338213Y-85414667D01*
X73345580Y-85421883D01*
X73509434Y-85557916D01*
X73517881Y-85563831D01*
X73586969Y-85604203D01*
X73635693Y-85655842D01*
X73648764Y-85725625D01*
X73622033Y-85791396D01*
X73581584Y-85824752D01*
X73568607Y-85831507D01*
X73564474Y-85834610D01*
X73564471Y-85834612D01*
X73394100Y-85962530D01*
X73389965Y-85965635D01*
X73268505Y-86092736D01*
X73244982Y-86117351D01*
X73183458Y-86152781D01*
X73153888Y-86156300D01*
X70618559Y-86156300D01*
X70550438Y-86136298D01*
X70515348Y-86102573D01*
X70505301Y-86088224D01*
X70355776Y-85938699D01*
X70182558Y-85817411D01*
X70177580Y-85815090D01*
X70177577Y-85815088D01*
X69995892Y-85730367D01*
X69995891Y-85730366D01*
X69990910Y-85728044D01*
X69985602Y-85726622D01*
X69985600Y-85726621D01*
X69791970Y-85674738D01*
X69791968Y-85674738D01*
X69786655Y-85673314D01*
X69576000Y-85654884D01*
X69365345Y-85673314D01*
X69360032Y-85674738D01*
X69360030Y-85674738D01*
X69166400Y-85726621D01*
X69166398Y-85726622D01*
X69161090Y-85728044D01*
X69156109Y-85730366D01*
X69156108Y-85730367D01*
X68974423Y-85815088D01*
X68974420Y-85815090D01*
X68969442Y-85817411D01*
X68796224Y-85938699D01*
X68646699Y-86088224D01*
X68525411Y-86261442D01*
X68523090Y-86266420D01*
X68523088Y-86266423D01*
X68438367Y-86448108D01*
X68436044Y-86453090D01*
X68434622Y-86458398D01*
X68434621Y-86458400D01*
X68427707Y-86484204D01*
X68390755Y-86544827D01*
X68326894Y-86575848D01*
X68256400Y-86567420D01*
X68201653Y-86522217D01*
X68184293Y-86484204D01*
X68177379Y-86458400D01*
X68177378Y-86458398D01*
X68175956Y-86453090D01*
X68173633Y-86448108D01*
X68088912Y-86266423D01*
X68088910Y-86266420D01*
X68086589Y-86261442D01*
X67965301Y-86088224D01*
X67815776Y-85938699D01*
X67642558Y-85817411D01*
X67637580Y-85815090D01*
X67637577Y-85815088D01*
X67455892Y-85730367D01*
X67455891Y-85730366D01*
X67450910Y-85728044D01*
X67445602Y-85726622D01*
X67445600Y-85726621D01*
X67251970Y-85674738D01*
X67251968Y-85674738D01*
X67246655Y-85673314D01*
X67036000Y-85654884D01*
X66825345Y-85673314D01*
X66820032Y-85674738D01*
X66820030Y-85674738D01*
X66781348Y-85685103D01*
X66710372Y-85683413D01*
X66651576Y-85643619D01*
X66623628Y-85578355D01*
X66635401Y-85508341D01*
X66659642Y-85474301D01*
X67954760Y-84179183D01*
X72959389Y-84179183D01*
X72960912Y-84187607D01*
X72973292Y-84191000D01*
X74022885Y-84191000D01*
X74038124Y-84186525D01*
X74039329Y-84185135D01*
X74041000Y-84177452D01*
X74041000Y-84172885D01*
X74549000Y-84172885D01*
X74553475Y-84188124D01*
X74554865Y-84189329D01*
X74562548Y-84191000D01*
X75613344Y-84191000D01*
X75626875Y-84187027D01*
X75628180Y-84177947D01*
X75586214Y-84010875D01*
X75582894Y-84001124D01*
X75497972Y-83805814D01*
X75493105Y-83796739D01*
X75377426Y-83617926D01*
X75371136Y-83609757D01*
X75227806Y-83452240D01*
X75220273Y-83445215D01*
X75053139Y-83313222D01*
X75044552Y-83307517D01*
X74858117Y-83204599D01*
X74848705Y-83200369D01*
X74647959Y-83129280D01*
X74637988Y-83126646D01*
X74566837Y-83113972D01*
X74553540Y-83115432D01*
X74549000Y-83129989D01*
X74549000Y-84172885D01*
X74041000Y-84172885D01*
X74041000Y-83128102D01*
X74037082Y-83114758D01*
X74022806Y-83112771D01*
X73984324Y-83118660D01*
X73974288Y-83121051D01*
X73771868Y-83187212D01*
X73762359Y-83191209D01*
X73573463Y-83289542D01*
X73564738Y-83295036D01*
X73394433Y-83422905D01*
X73386726Y-83429748D01*
X73239590Y-83583717D01*
X73233104Y-83591727D01*
X73113098Y-83767649D01*
X73108000Y-83776623D01*
X73018338Y-83969783D01*
X73014775Y-83979470D01*
X72959389Y-84179183D01*
X67954760Y-84179183D01*
X69250019Y-82883924D01*
X69312331Y-82849898D01*
X69337952Y-82847144D01*
X69342000Y-82847498D01*
X69570087Y-82827543D01*
X69575400Y-82826119D01*
X69575402Y-82826119D01*
X69785933Y-82769707D01*
X69785935Y-82769706D01*
X69791243Y-82768284D01*
X69796225Y-82765961D01*
X69993762Y-82673849D01*
X69993767Y-82673846D01*
X69998749Y-82671523D01*
X70115734Y-82589609D01*
X70181789Y-82543357D01*
X70181792Y-82543355D01*
X70186300Y-82540198D01*
X70266093Y-82460405D01*
X70328405Y-82426379D01*
X70355188Y-82423500D01*
X70614812Y-82423500D01*
X70682933Y-82443502D01*
G37*
%TD.AperFunction*%
%TD*%
M02*
