%TF.GenerationSoftware,KiCad,Pcbnew,7.0.11*%
%TF.CreationDate,2024-12-08T19:05:50-06:00*%
%TF.ProjectId,WiRSa,57695253-612e-46b6-9963-61645f706362,rev?*%
%TF.SameCoordinates,Original*%
%TF.FileFunction,Copper,L1,Top*%
%TF.FilePolarity,Positive*%
%FSLAX46Y46*%
G04 Gerber Fmt 4.6, Leading zero omitted, Abs format (unit mm)*
G04 Created by KiCad (PCBNEW 7.0.11) date 2024-12-08 19:05:50*
%MOMM*%
%LPD*%
G01*
G04 APERTURE LIST*
G04 Aperture macros list*
%AMRoundRect*
0 Rectangle with rounded corners*
0 $1 Rounding radius*
0 $2 $3 $4 $5 $6 $7 $8 $9 X,Y pos of 4 corners*
0 Add a 4 corners polygon primitive as box body*
4,1,4,$2,$3,$4,$5,$6,$7,$8,$9,$2,$3,0*
0 Add four circle primitives for the rounded corners*
1,1,$1+$1,$2,$3*
1,1,$1+$1,$4,$5*
1,1,$1+$1,$6,$7*
1,1,$1+$1,$8,$9*
0 Add four rect primitives between the rounded corners*
20,1,$1+$1,$2,$3,$4,$5,0*
20,1,$1+$1,$4,$5,$6,$7,0*
20,1,$1+$1,$6,$7,$8,$9,0*
20,1,$1+$1,$8,$9,$2,$3,0*%
G04 Aperture macros list end*
%TA.AperFunction,SMDPad,CuDef*%
%ADD10RoundRect,0.200000X-0.200000X-0.275000X0.200000X-0.275000X0.200000X0.275000X-0.200000X0.275000X0*%
%TD*%
%TA.AperFunction,SMDPad,CuDef*%
%ADD11RoundRect,0.200000X0.200000X0.275000X-0.200000X0.275000X-0.200000X-0.275000X0.200000X-0.275000X0*%
%TD*%
%TA.AperFunction,ComponentPad*%
%ADD12C,4.000000*%
%TD*%
%TA.AperFunction,ComponentPad*%
%ADD13R,1.600000X1.600000*%
%TD*%
%TA.AperFunction,ComponentPad*%
%ADD14C,1.600000*%
%TD*%
%TA.AperFunction,SMDPad,CuDef*%
%ADD15RoundRect,0.225000X-0.250000X0.225000X-0.250000X-0.225000X0.250000X-0.225000X0.250000X0.225000X0*%
%TD*%
%TA.AperFunction,ComponentPad*%
%ADD16R,1.200000X2.000000*%
%TD*%
%TA.AperFunction,ComponentPad*%
%ADD17O,1.200000X2.000000*%
%TD*%
%TA.AperFunction,SMDPad,CuDef*%
%ADD18R,1.000000X5.500000*%
%TD*%
%TA.AperFunction,SMDPad,CuDef*%
%ADD19R,1.600000X3.000000*%
%TD*%
%TA.AperFunction,ComponentPad*%
%ADD20R,1.700000X1.700000*%
%TD*%
%TA.AperFunction,ComponentPad*%
%ADD21O,1.700000X1.700000*%
%TD*%
%TA.AperFunction,SMDPad,CuDef*%
%ADD22R,0.700000X1.200000*%
%TD*%
%TA.AperFunction,SMDPad,CuDef*%
%ADD23RoundRect,0.200000X-0.275000X0.200000X-0.275000X-0.200000X0.275000X-0.200000X0.275000X0.200000X0*%
%TD*%
%TA.AperFunction,ComponentPad*%
%ADD24C,2.100000*%
%TD*%
%TA.AperFunction,ComponentPad*%
%ADD25C,1.750000*%
%TD*%
%TA.AperFunction,SMDPad,CuDef*%
%ADD26RoundRect,0.225000X0.225000X0.250000X-0.225000X0.250000X-0.225000X-0.250000X0.225000X-0.250000X0*%
%TD*%
%TA.AperFunction,SMDPad,CuDef*%
%ADD27RoundRect,0.225000X-0.225000X-0.250000X0.225000X-0.250000X0.225000X0.250000X-0.225000X0.250000X0*%
%TD*%
%TA.AperFunction,SMDPad,CuDef*%
%ADD28R,0.500000X1.000000*%
%TD*%
%TA.AperFunction,SMDPad,CuDef*%
%ADD29R,1.300000X1.400000*%
%TD*%
%TA.AperFunction,SMDPad,CuDef*%
%ADD30O,2.020000X0.360000*%
%TD*%
%TA.AperFunction,ViaPad*%
%ADD31C,0.800000*%
%TD*%
%TA.AperFunction,Conductor*%
%ADD32C,0.250000*%
%TD*%
G04 APERTURE END LIST*
D10*
%TO.P,R1,1*%
%TO.N,Net-(IC1-FORCEON)*%
X88663400Y-80595500D03*
%TO.P,R1,2*%
%TO.N,Net-(U2-D36{slash}SENS_VP)*%
X90313400Y-80595500D03*
%TD*%
D11*
%TO.P,R4,1*%
%TO.N,Net-(IC1-FORCEON)*%
X119868400Y-80595500D03*
%TO.P,R4,2*%
%TO.N,Net-(U2-D35)*%
X118218400Y-80595500D03*
%TD*%
D12*
%TO.P,J1,0,PAD*%
%TO.N,unconnected-(J1-PAD-Pad0)*%
X54356000Y-79013000D03*
X54356000Y-104013000D03*
D13*
%TO.P,J1,1,1*%
%TO.N,/DCD-RI*%
X54656000Y-97053000D03*
D14*
%TO.P,J1,2,2*%
%TO.N,/TX-RO*%
X54656000Y-94283000D03*
%TO.P,J1,3,3*%
%TO.N,/RX-RI*%
X54656000Y-91513000D03*
%TO.P,J1,4,4*%
%TO.N,/DTR-RO*%
X54656000Y-88743000D03*
%TO.P,J1,5,5*%
%TO.N,GND*%
X54656000Y-85973000D03*
%TO.P,J1,6,6*%
%TO.N,/DSR-RI*%
X51816000Y-95668000D03*
%TO.P,J1,7,7*%
%TO.N,/RTS-RO*%
X51816000Y-92898000D03*
%TO.P,J1,8,8*%
%TO.N,/CTS-RI*%
X51816000Y-90128000D03*
%TO.P,J1,9,9*%
%TO.N,/RI-RI*%
X51816000Y-87358000D03*
%TD*%
D15*
%TO.P,C4,1*%
%TO.N,Net-(IC1-FORCEON)*%
X87091000Y-94221000D03*
%TO.P,C4,2*%
%TO.N,GND*%
X87091000Y-95771000D03*
%TD*%
D16*
%TO.P,U2,1,3.3V*%
%TO.N,Net-(IC1-FORCEON)*%
X109389525Y-82663572D03*
D17*
%TO.P,U2,2,GND*%
%TO.N,GND*%
X106849525Y-82663572D03*
%TO.P,U2,3,D15/HCS*%
%TO.N,/RTS-TI*%
X104309525Y-82663572D03*
%TO.P,U2,4,D2/LED*%
%TO.N,unconnected-(U2-D2{slash}LED-Pad4)*%
X101769525Y-82663572D03*
%TO.P,U2,5,D4*%
%TO.N,/DTR-TI*%
X99229525Y-82663572D03*
%TO.P,U2,6,D16/RX2*%
%TO.N,/RX-TO*%
X96689525Y-82663572D03*
%TO.P,U2,7,D17/TX2*%
%TO.N,/TX-TI*%
X94149525Y-82663572D03*
%TO.P,U2,8,D5/VCS*%
%TO.N,Net-(U1-CD{slash}DAT3)*%
X91609525Y-82663572D03*
%TO.P,U2,9,D18/VCLK*%
%TO.N,Net-(U1-CLK)*%
X89069525Y-82663572D03*
%TO.P,U2,10,D19/VMISO*%
%TO.N,Net-(U1-DAT0)*%
X86529525Y-82663572D03*
%TO.P,U2,11,D21/OLED_SDA*%
%TO.N,unconnected-(U2-D21{slash}OLED_SDA-Pad11)*%
X83989525Y-82663572D03*
%TO.P,U2,12,D3/RX0_USB*%
%TO.N,unconnected-(U2-D3{slash}RX0_USB-Pad12)*%
X81449525Y-82663572D03*
%TO.P,U2,13,D1/TX0_USB*%
%TO.N,unconnected-(U2-D1{slash}TX0_USB-Pad13)*%
X78909525Y-82663572D03*
%TO.P,U2,14,D22/OLED_SCL*%
%TO.N,unconnected-(U2-D22{slash}OLED_SCL-Pad14)*%
X76369525Y-82663572D03*
%TO.P,U2,15,D23/VMOSI*%
%TO.N,Net-(U1-CMD)*%
X73829525Y-82663572D03*
%TO.P,U2,16,EN*%
%TO.N,unconnected-(U2-EN-Pad16)*%
X73870601Y-108257032D03*
%TO.P,U2,17,D36/SENS_VP*%
%TO.N,Net-(U2-D36{slash}SENS_VP)*%
X76410601Y-108257032D03*
%TO.P,U2,18,D39/SENS_VN*%
%TO.N,Net-(U2-D39{slash}SENS_VN)*%
X78950601Y-108257032D03*
%TO.P,U2,19,D34*%
%TO.N,Net-(U2-D34)*%
X81490601Y-108257032D03*
%TO.P,U2,20,D35*%
%TO.N,Net-(U2-D35)*%
X84030601Y-108257032D03*
%TO.P,U2,21,D32*%
%TO.N,/{slash}INVALID*%
X86570601Y-108257032D03*
%TO.P,U2,22,D33*%
%TO.N,/DCD-TO*%
X89110601Y-108257032D03*
%TO.P,U2,23,D25*%
%TO.N,/RI-TO*%
X91650601Y-108257032D03*
%TO.P,U2,24,D26*%
%TO.N,/DSR-TO*%
X94190601Y-108257032D03*
%TO.P,U2,25,D27*%
%TO.N,/CTS-TO*%
X96730601Y-108257032D03*
%TO.P,U2,26,D14/HCLK*%
%TO.N,Net-(U1-SWITCH)*%
X99270601Y-108257032D03*
%TO.P,U2,27,D12/HMISO*%
%TO.N,Net-(J2-Pin_1)*%
X101810601Y-108257032D03*
%TO.P,U2,28,D13/HMOSI*%
%TO.N,Net-(J2-Pin_2)*%
X104350601Y-108257032D03*
%TO.P,U2,29,GND*%
%TO.N,GND*%
X106890601Y-108257032D03*
%TO.P,U2,30,VIN*%
%TO.N,unconnected-(U2-VIN-Pad30)*%
X109430601Y-108257032D03*
%TD*%
D18*
%TO.P,J4,1,1*%
%TO.N,Net-(J4-Pad1)*%
X65659000Y-80010000D03*
%TO.P,J4,2,2*%
%TO.N,Net-(J4-Pad2)*%
X67659000Y-80020000D03*
D19*
%TO.P,J4,3,3*%
%TO.N,GND*%
X70059000Y-77770000D03*
%TO.P,J4,4,4*%
X63259000Y-77770000D03*
%TD*%
D20*
%TO.P,J2,1,Pin_1*%
%TO.N,Net-(J2-Pin_1)*%
X123825000Y-83058000D03*
D21*
%TO.P,J2,2,Pin_2*%
%TO.N,Net-(J2-Pin_2)*%
X123825000Y-85598000D03*
%TD*%
D10*
%TO.P,R2,1*%
%TO.N,Net-(IC1-FORCEON)*%
X98381400Y-80595500D03*
%TO.P,R2,2*%
%TO.N,Net-(U2-D39{slash}SENS_VN)*%
X100031400Y-80595500D03*
%TD*%
D22*
%TO.P,SW5,1,1*%
%TO.N,Net-(J3-Pin_1)*%
X74573000Y-74087000D03*
%TO.P,SW5,2,2*%
%TO.N,Net-(J4-Pad1)*%
X77073000Y-74087000D03*
%TO.P,SW5,3,3*%
%TO.N,unconnected-(SW5-Pad3)*%
X79573000Y-74087000D03*
%TO.P,SW5,4,4*%
%TO.N,Net-(J3-Pin_2)*%
X74573000Y-80587000D03*
%TO.P,SW5,5,5*%
%TO.N,Net-(J4-Pad2)*%
X77073000Y-80587000D03*
%TO.P,SW5,6,6*%
%TO.N,unconnected-(SW5-Pad6)*%
X79573000Y-80587000D03*
%TD*%
D23*
%TO.P,R6,1*%
%TO.N,Net-(IC1-FORCEON)*%
X61488000Y-98526000D03*
%TO.P,R6,2*%
%TO.N,Net-(U1-DAT0)*%
X61488000Y-100176000D03*
%TD*%
D24*
%TO.P,SW1,*%
%TO.N,*%
X85348000Y-78559500D03*
X92358000Y-78559500D03*
D25*
%TO.P,SW1,1,1*%
%TO.N,GND*%
X86598000Y-76069500D03*
%TO.P,SW1,2,2*%
%TO.N,Net-(U2-D36{slash}SENS_VP)*%
X91098000Y-76069500D03*
%TD*%
D10*
%TO.P,R3,1*%
%TO.N,Net-(IC1-FORCEON)*%
X108384400Y-80595500D03*
%TO.P,R3,2*%
%TO.N,Net-(U2-D34)*%
X110034400Y-80595500D03*
%TD*%
D23*
%TO.P,R9,1*%
%TO.N,Net-(IC1-FORCEON)*%
X69362000Y-98526000D03*
%TO.P,R9,2*%
%TO.N,Net-(U1-DAT2)*%
X69362000Y-100176000D03*
%TD*%
%TO.P,R8,1*%
%TO.N,Net-(IC1-FORCEON)*%
X66822000Y-98526000D03*
%TO.P,R8,2*%
%TO.N,Net-(U1-CD{slash}DAT3)*%
X66822000Y-100176000D03*
%TD*%
D26*
%TO.P,C5,1*%
%TO.N,Net-(IC1-V-)*%
X73515000Y-92456000D03*
%TO.P,C5,2*%
%TO.N,GND*%
X71965000Y-92456000D03*
%TD*%
%TO.P,C2,1*%
%TO.N,Net-(IC1-C2+)*%
X73515000Y-89916000D03*
%TO.P,C2,2*%
%TO.N,Net-(IC1-C2-)*%
X71965000Y-89916000D03*
%TD*%
D20*
%TO.P,J3,1,Pin_1*%
%TO.N,Net-(J3-Pin_1)*%
X60436000Y-76500000D03*
D21*
%TO.P,J3,2,Pin_2*%
%TO.N,Net-(J3-Pin_2)*%
X60436000Y-79040000D03*
%TD*%
D23*
%TO.P,R5,1*%
%TO.N,Net-(IC1-FORCEON)*%
X58948000Y-98526000D03*
%TO.P,R5,2*%
%TO.N,Net-(U1-DAT1)*%
X58948000Y-100176000D03*
%TD*%
D24*
%TO.P,SW4,*%
%TO.N,*%
X115066000Y-78559500D03*
X122076000Y-78559500D03*
D25*
%TO.P,SW4,1,1*%
%TO.N,GND*%
X116316000Y-76069500D03*
%TO.P,SW4,2,2*%
%TO.N,Net-(U2-D35)*%
X120816000Y-76069500D03*
%TD*%
D24*
%TO.P,SW3,*%
%TO.N,*%
X105160000Y-78559500D03*
X112170000Y-78559500D03*
D25*
%TO.P,SW3,1,1*%
%TO.N,GND*%
X106410000Y-76069500D03*
%TO.P,SW3,2,2*%
%TO.N,Net-(U2-D34)*%
X110910000Y-76069500D03*
%TD*%
D24*
%TO.P,SW2,*%
%TO.N,*%
X95254000Y-78559500D03*
X102264000Y-78559500D03*
D25*
%TO.P,SW2,1,1*%
%TO.N,GND*%
X96504000Y-76069500D03*
%TO.P,SW2,2,2*%
%TO.N,Net-(U2-D39{slash}SENS_VN)*%
X101004000Y-76069500D03*
%TD*%
D27*
%TO.P,C3,1*%
%TO.N,Net-(IC1-V+)*%
X82125000Y-88011000D03*
%TO.P,C3,2*%
%TO.N,GND*%
X83675000Y-88011000D03*
%TD*%
D28*
%TO.P,U1,1,DAT2*%
%TO.N,Net-(U1-DAT2)*%
X68005000Y-108918000D03*
%TO.P,U1,2,CD/DAT3*%
%TO.N,Net-(U1-CD{slash}DAT3)*%
X66905000Y-108918000D03*
%TO.P,U1,3,CMD*%
%TO.N,Net-(U1-CMD)*%
X65805000Y-108918000D03*
%TO.P,U1,4,VDD*%
%TO.N,Net-(IC1-FORCEON)*%
X65055000Y-108918000D03*
%TO.P,U1,5,CLK*%
%TO.N,Net-(U1-CLK)*%
X63605000Y-108918000D03*
%TO.P,U1,6,VSS*%
%TO.N,GND*%
X62505000Y-108918000D03*
%TO.P,U1,7,DAT0*%
%TO.N,Net-(U1-DAT0)*%
X61405000Y-108918000D03*
%TO.P,U1,8,DAT1*%
%TO.N,Net-(U1-DAT1)*%
X60305000Y-108918000D03*
%TO.P,U1,9,SWITCH*%
%TO.N,Net-(U1-SWITCH)*%
X64355000Y-108918000D03*
D29*
%TO.P,U1,10,10*%
%TO.N,GND*%
X59055000Y-107188000D03*
%TO.P,U1,11,11*%
X59055000Y-102738000D03*
%TO.P,U1,12,12*%
X69255000Y-102738000D03*
%TO.P,U1,13,13*%
X69255000Y-107188000D03*
%TD*%
D23*
%TO.P,R7,1*%
%TO.N,Net-(IC1-FORCEON)*%
X64028000Y-98526000D03*
%TO.P,R7,2*%
%TO.N,Net-(U1-CMD)*%
X64028000Y-100176000D03*
%TD*%
D30*
%TO.P,IC1,1,C2+*%
%TO.N,Net-(IC1-C2+)*%
X76519000Y-89877000D03*
%TO.P,IC1,2,C2-*%
%TO.N,Net-(IC1-C2-)*%
X76519000Y-90527000D03*
%TO.P,IC1,3,V-*%
%TO.N,Net-(IC1-V-)*%
X76519000Y-91177000D03*
%TO.P,IC1,4,R1IN*%
%TO.N,/DCD-RI*%
X76519000Y-91827000D03*
%TO.P,IC1,5,R2IN*%
%TO.N,/RI-RI*%
X76519000Y-92477000D03*
%TO.P,IC1,6,R3IN*%
%TO.N,/DSR-RI*%
X76519000Y-93127000D03*
%TO.P,IC1,7,R4IN*%
%TO.N,/CTS-RI*%
X76519000Y-93787000D03*
%TO.P,IC1,8,R5IN*%
%TO.N,/RX-RI*%
X76519000Y-94437000D03*
%TO.P,IC1,9,T1OUT*%
%TO.N,/TX-RO*%
X76519000Y-95087000D03*
%TO.P,IC1,10,T2OUT*%
%TO.N,/DTR-RO*%
X76519000Y-95737000D03*
%TO.P,IC1,11,T3OUT*%
%TO.N,/RTS-RO*%
X76519000Y-96387000D03*
%TO.P,IC1,12,T3IN*%
%TO.N,/RTS-TI*%
X76519000Y-97037000D03*
%TO.P,IC1,13,T2IN*%
%TO.N,/DTR-TI*%
X76519000Y-97687000D03*
%TO.P,IC1,14,T1IN*%
%TO.N,/TX-TI*%
X76519000Y-98337000D03*
%TO.P,IC1,15,R5OUT*%
%TO.N,/RX-TO*%
X83439000Y-98337000D03*
%TO.P,IC1,16,R4OUT*%
%TO.N,/CTS-TO*%
X83439000Y-97687000D03*
%TO.P,IC1,17,R3OUT*%
%TO.N,/DSR-TO*%
X83439000Y-97037000D03*
%TO.P,IC1,18,R2OUT*%
%TO.N,/RI-TO*%
X83439000Y-96387000D03*
%TO.P,IC1,19,R1OUT*%
%TO.N,/DCD-TO*%
X83439000Y-95737000D03*
%TO.P,IC1,20,R2OUTB*%
%TO.N,/RI in standby mode??*%
X83439000Y-95087000D03*
%TO.P,IC1,21,~{INVALID}*%
%TO.N,/{slash}INVALID*%
X83439000Y-94437000D03*
%TO.P,IC1,22,~{FORCEOFF}*%
%TO.N,Net-(IC1-FORCEON)*%
X83439000Y-93787000D03*
%TO.P,IC1,23,FORCEON*%
X83439000Y-93127000D03*
%TO.P,IC1,24,C1-*%
%TO.N,Net-(IC1-C1-)*%
X83439000Y-92477000D03*
%TO.P,IC1,25,GND*%
%TO.N,GND*%
X83439000Y-91827000D03*
%TO.P,IC1,26,VCC*%
%TO.N,Net-(IC1-FORCEON)*%
X83439000Y-91177000D03*
%TO.P,IC1,27,V+*%
%TO.N,Net-(IC1-V+)*%
X83439000Y-90527000D03*
%TO.P,IC1,28,C1+*%
%TO.N,Net-(IC1-C1+)*%
X83439000Y-89877000D03*
%TD*%
D15*
%TO.P,C1,1*%
%TO.N,Net-(IC1-C1+)*%
X87091000Y-90284000D03*
%TO.P,C1,2*%
%TO.N,Net-(IC1-C1-)*%
X87091000Y-91834000D03*
%TD*%
D31*
%TO.N,GND*%
X71628000Y-104902000D03*
X68326000Y-91186000D03*
%TO.N,Net-(U2-D39{slash}SENS_VN)*%
X100499500Y-82691800D03*
%TO.N,Net-(U1-DAT0)*%
X71765500Y-97620900D03*
%TO.N,Net-(U1-CMD)*%
X63714000Y-101561600D03*
%TO.N,/DCD-RI*%
X64987300Y-92042200D03*
%TO.N,/DSR-RI*%
X56590000Y-85772700D03*
%TO.N,/DTR-RO*%
X60547300Y-95660900D03*
%TO.N,/RTS-TI*%
X79276600Y-96413700D03*
%TO.N,/DTR-TI*%
X78229200Y-97634100D03*
%TO.N,/TX-TI*%
X74491800Y-97887500D03*
%TO.N,/RX-TO*%
X84268700Y-99568900D03*
%TO.N,/DSR-TO*%
X92610000Y-105148600D03*
%TO.N,Net-(U1-CD{slash}DAT3)*%
X72232700Y-99211800D03*
%TO.N,Net-(U1-SWITCH)*%
X88426800Y-103850400D03*
X71261200Y-102193100D03*
X83012100Y-106624100D03*
X64466200Y-107356900D03*
%TO.N,Net-(J3-Pin_1)*%
X72157600Y-74626900D03*
%TD*%
D32*
%TO.N,Net-(IC1-C1+)*%
X83439000Y-89877000D02*
X86684000Y-89877000D01*
X86684000Y-89877000D02*
X87091000Y-90284000D01*
%TO.N,Net-(IC1-C1-)*%
X83439000Y-92477000D02*
X86448000Y-92477000D01*
X86448000Y-92477000D02*
X87091000Y-91834000D01*
%TO.N,Net-(IC1-C2+)*%
X73554000Y-89877000D02*
X73515000Y-89916000D01*
X76519000Y-89877000D02*
X73554000Y-89877000D01*
%TO.N,Net-(IC1-C2-)*%
X74435900Y-90527000D02*
X74236300Y-90726600D01*
X74236300Y-90726600D02*
X72775600Y-90726600D01*
X76519000Y-90527000D02*
X74435900Y-90527000D01*
X72775600Y-90726600D02*
X71965000Y-89916000D01*
%TO.N,Net-(IC1-V+)*%
X83439000Y-90527000D02*
X82102100Y-90527000D01*
X82102100Y-88033900D02*
X82125000Y-88011000D01*
X82102100Y-90527000D02*
X82102100Y-88033900D01*
%TO.N,Net-(IC1-V-)*%
X74794000Y-91177000D02*
X73515000Y-92456000D01*
X76519000Y-91177000D02*
X74794000Y-91177000D01*
%TO.N,Net-(U2-D36{slash}SENS_VP)*%
X90313400Y-76854100D02*
X90313400Y-80595500D01*
X91098000Y-76069500D02*
X90313400Y-76854100D01*
%TO.N,Net-(U2-D39{slash}SENS_VN)*%
X100499500Y-82691800D02*
X100499500Y-81063600D01*
X100499500Y-81063600D02*
X100031400Y-80595500D01*
%TO.N,Net-(U2-D34)*%
X110910000Y-76069500D02*
X110034400Y-76945100D01*
X110034400Y-76945100D02*
X110034400Y-80595500D01*
%TO.N,Net-(U2-D35)*%
X118218400Y-78667100D02*
X118218400Y-80595500D01*
X120816000Y-76069500D02*
X118218400Y-78667100D01*
%TO.N,Net-(IC1-FORCEON)*%
X62938800Y-98526000D02*
X61488000Y-98526000D01*
X90008400Y-84038600D02*
X84822300Y-84038600D01*
X80060000Y-95829100D02*
X82102100Y-93787000D01*
X108384400Y-81658500D02*
X109389500Y-82663600D01*
X86657000Y-93787000D02*
X87091000Y-94221000D01*
X82770600Y-93787000D02*
X83439000Y-93787000D01*
X101614400Y-80595500D02*
X100769900Y-79751000D01*
X82770600Y-93127000D02*
X82102100Y-93127000D01*
X78108900Y-98853600D02*
X80060000Y-96902500D01*
X117800300Y-82663600D02*
X119868400Y-80595500D01*
X82102100Y-93577000D02*
X82102100Y-93787000D01*
X65193100Y-107953000D02*
X65193100Y-106689900D01*
X65055000Y-108091100D02*
X65193100Y-107953000D01*
X108384400Y-80595500D02*
X108384400Y-81658500D01*
X82770600Y-93787000D02*
X82102100Y-93787000D01*
X83439000Y-91177000D02*
X82102100Y-91177000D01*
X90008400Y-81848900D02*
X88755000Y-80595500D01*
X83439000Y-93127000D02*
X82779000Y-93127000D01*
X69403100Y-98484900D02*
X74061300Y-98484900D01*
X98381400Y-80595500D02*
X97041300Y-80595500D01*
X58948000Y-98526000D02*
X61488000Y-98526000D01*
X81327000Y-90401900D02*
X82102100Y-91177000D01*
X64028000Y-98526000D02*
X62938800Y-98526000D01*
X100769900Y-79751000D02*
X99225900Y-79751000D01*
X62938800Y-104435600D02*
X62938800Y-98526000D01*
X95419500Y-83168300D02*
X94549200Y-84038600D01*
X74061300Y-98484900D02*
X74430000Y-98853600D01*
X99225900Y-79751000D02*
X98381400Y-80595500D01*
X82770600Y-93127000D02*
X82779000Y-93127000D01*
X80060000Y-96902500D02*
X80060000Y-95829100D01*
X108384400Y-80595500D02*
X101614400Y-80595500D01*
X65055000Y-108918000D02*
X65055000Y-108091100D01*
X90008400Y-84038600D02*
X90008400Y-81848900D01*
X97041300Y-80595500D02*
X95419500Y-82217300D01*
X109389500Y-82663600D02*
X117800300Y-82663600D01*
X82552100Y-93127000D02*
X82102100Y-93577000D01*
X65193100Y-106689900D02*
X62938800Y-104435600D01*
X94549200Y-84038600D02*
X90008400Y-84038600D01*
X69362000Y-98526000D02*
X69403100Y-98484900D01*
X66822000Y-98526000D02*
X64028000Y-98526000D01*
X81327000Y-87533900D02*
X81327000Y-90401900D01*
X66822000Y-98526000D02*
X69362000Y-98526000D01*
X95419500Y-82217300D02*
X95419500Y-83168300D01*
X84822300Y-84038600D02*
X81327000Y-87533900D01*
X82102100Y-91177000D02*
X82102100Y-93127000D01*
X82770600Y-93127000D02*
X82552100Y-93127000D01*
X83439000Y-93787000D02*
X86657000Y-93787000D01*
X88755000Y-80595500D02*
X88663400Y-80595500D01*
X74430000Y-98853600D02*
X78108900Y-98853600D01*
%TO.N,Net-(U1-DAT1)*%
X60305000Y-108918000D02*
X60305000Y-101533000D01*
X60305000Y-101533000D02*
X58948000Y-100176000D01*
%TO.N,Net-(U1-DAT0)*%
X61488000Y-100176000D02*
X60663000Y-99351000D01*
X58121200Y-98954200D02*
X58121200Y-98131400D01*
X61405000Y-108918000D02*
X61405000Y-100259000D01*
X61405000Y-100259000D02*
X61488000Y-100176000D01*
X58121200Y-98131400D02*
X58631700Y-97620900D01*
X58518000Y-99351000D02*
X58121200Y-98954200D01*
X60663000Y-99351000D02*
X58518000Y-99351000D01*
X58631700Y-97620900D02*
X71765500Y-97620900D01*
%TO.N,Net-(U1-CMD)*%
X65805000Y-108091100D02*
X65805000Y-103652600D01*
X65805000Y-108918000D02*
X65805000Y-108091100D01*
X64028000Y-100176000D02*
X64028000Y-101247600D01*
X64028000Y-101247600D02*
X63714000Y-101561600D01*
X65805000Y-103652600D02*
X63714000Y-101561600D01*
%TO.N,/DCD-RI*%
X73947400Y-93281600D02*
X66226700Y-93281600D01*
X75182100Y-91827000D02*
X75182100Y-92046900D01*
X66226700Y-93281600D02*
X64987300Y-92042200D01*
X76519000Y-91827000D02*
X75182100Y-91827000D01*
X75182100Y-92046900D02*
X73947400Y-93281600D01*
%TO.N,/RI-RI*%
X75568000Y-87358000D02*
X77855900Y-89645900D01*
X76519000Y-92477000D02*
X77855900Y-92477000D01*
X51816000Y-87358000D02*
X75568000Y-87358000D01*
X77855900Y-89645900D02*
X77855900Y-92477000D01*
%TO.N,/DSR-RI*%
X78333300Y-89484200D02*
X74621800Y-85772700D01*
X76519000Y-93127000D02*
X77855900Y-93127000D01*
X77855900Y-93127000D02*
X78333300Y-92649600D01*
X74621800Y-85772700D02*
X56590000Y-85772700D01*
X78333300Y-92649600D02*
X78333300Y-89484200D01*
%TO.N,/CTS-RI*%
X51816000Y-90128000D02*
X60503500Y-90128000D01*
X60503500Y-90128000D02*
X64162500Y-93787000D01*
X64162500Y-93787000D02*
X76519000Y-93787000D01*
%TO.N,/RX-RI*%
X57580000Y-94437000D02*
X54656000Y-91513000D01*
X76519000Y-94437000D02*
X57580000Y-94437000D01*
%TO.N,/TX-RO*%
X55307000Y-94934000D02*
X54656000Y-94283000D01*
X61001400Y-95087000D02*
X60848400Y-94934000D01*
X76519000Y-95087000D02*
X61001400Y-95087000D01*
X60848400Y-94934000D02*
X55307000Y-94934000D01*
%TO.N,/DTR-RO*%
X76519000Y-95737000D02*
X60623400Y-95737000D01*
X60623400Y-95737000D02*
X60547300Y-95660900D01*
%TO.N,/RTS-RO*%
X53349800Y-97862600D02*
X53667100Y-98179900D01*
X75181300Y-96387800D02*
X75182100Y-96387000D01*
X58783700Y-96387800D02*
X75181300Y-96387800D01*
X51816000Y-92898000D02*
X53349800Y-94431800D01*
X53349800Y-94431800D02*
X53349800Y-97862600D01*
X76519000Y-96387000D02*
X75182100Y-96387000D01*
X53667100Y-98179900D02*
X56991600Y-98179900D01*
X56991600Y-98179900D02*
X58783700Y-96387800D01*
%TO.N,/RTS-TI*%
X76519000Y-97037000D02*
X77711100Y-97037000D01*
X77711100Y-97037000D02*
X78334300Y-96413800D01*
X78334300Y-96413800D02*
X79276600Y-96413800D01*
X79276600Y-96413800D02*
X79276600Y-96413700D01*
%TO.N,/DTR-TI*%
X77908800Y-97634100D02*
X77855900Y-97687000D01*
X76519000Y-97687000D02*
X77855900Y-97687000D01*
X78229200Y-97634100D02*
X77908800Y-97634100D01*
%TO.N,/TX-TI*%
X76519000Y-98337000D02*
X74941300Y-98337000D01*
X74941300Y-98337000D02*
X74491800Y-97887500D01*
%TO.N,/RX-TO*%
X84775900Y-98337000D02*
X84775900Y-99061700D01*
X84775900Y-99061700D02*
X84268700Y-99568900D01*
X83439000Y-98337000D02*
X84775900Y-98337000D01*
%TO.N,/CTS-TO*%
X83439000Y-97687000D02*
X82102100Y-97687000D01*
X82102100Y-98594600D02*
X90437600Y-106930100D01*
X90437600Y-106930100D02*
X96730600Y-106930100D01*
X82102100Y-97687000D02*
X82102100Y-98594600D01*
X96730600Y-108257000D02*
X96730600Y-106930100D01*
%TO.N,/DSR-TO*%
X84775900Y-97037000D02*
X84775900Y-97314500D01*
X84775900Y-97314500D02*
X92610000Y-105148600D01*
X83439000Y-97037000D02*
X84775900Y-97037000D01*
%TO.N,/RI-TO*%
X81646700Y-98832700D02*
X81646700Y-96842400D01*
X91071000Y-108257000D02*
X81646700Y-98832700D01*
X81646700Y-96842400D02*
X82102100Y-96387000D01*
X83439000Y-96387000D02*
X82102100Y-96387000D01*
X91650600Y-108257000D02*
X91071000Y-108257000D01*
%TO.N,/DCD-TO*%
X82100100Y-95737000D02*
X83439000Y-95737000D01*
X81189000Y-100335400D02*
X81189000Y-96648100D01*
X81189000Y-96648100D02*
X82100100Y-95737000D01*
X89110600Y-108257000D02*
X81189000Y-100335400D01*
%TO.N,/{slash}INVALID*%
X83439000Y-94437000D02*
X82102100Y-94437000D01*
X86570600Y-108257000D02*
X86570600Y-106930100D01*
X86570600Y-106930100D02*
X80690000Y-101049500D01*
X80690000Y-95849100D02*
X82102100Y-94437000D01*
X80690000Y-101049500D02*
X80690000Y-95849100D01*
%TO.N,Net-(U1-CD{slash}DAT3)*%
X67549700Y-99448300D02*
X71996200Y-99448300D01*
X66905000Y-100259000D02*
X66822000Y-100176000D01*
X66905000Y-108918000D02*
X66905000Y-100259000D01*
X66822000Y-100176000D02*
X67549700Y-99448300D01*
X71996200Y-99448300D02*
X72232700Y-99211800D01*
%TO.N,Net-(U1-DAT2)*%
X68005000Y-108918000D02*
X68005000Y-101533000D01*
X68005000Y-101533000D02*
X69362000Y-100176000D01*
%TO.N,Net-(U1-SWITCH)*%
X64355000Y-108091100D02*
X64466200Y-107979900D01*
X64466200Y-107979900D02*
X64466200Y-107356900D01*
X71261200Y-102193100D02*
X78581100Y-102193100D01*
X64355000Y-108918000D02*
X64355000Y-108091100D01*
X78581100Y-102193100D02*
X83012100Y-106624100D01*
X99270600Y-108257000D02*
X99270600Y-106930100D01*
X90509000Y-105932600D02*
X98273100Y-105932600D01*
X88426800Y-103850400D02*
X90509000Y-105932600D01*
X98273100Y-105932600D02*
X99270600Y-106930100D01*
%TO.N,Net-(J3-Pin_1)*%
X74573000Y-75013900D02*
X72544600Y-75013900D01*
X74573000Y-74087000D02*
X74573000Y-75013900D01*
X72544600Y-75013900D02*
X72157600Y-74626900D01*
%TO.N,Net-(J3-Pin_2)*%
X74573000Y-80587000D02*
X70804300Y-80587000D01*
X68260300Y-83131000D02*
X65043900Y-83131000D01*
X65043900Y-83131000D02*
X61612900Y-79700000D01*
X60436000Y-79040000D02*
X61612900Y-79040000D01*
X61612900Y-79700000D02*
X61612900Y-79040000D01*
X70804300Y-80587000D02*
X68260300Y-83131000D01*
%TO.N,Net-(J4-Pad1)*%
X76190100Y-75896800D02*
X66695300Y-75896800D01*
X77073000Y-75013900D02*
X76190100Y-75896800D01*
X65659000Y-80010000D02*
X65659000Y-76933100D01*
X77073000Y-74087000D02*
X77073000Y-75013900D01*
X66695300Y-75896800D02*
X65659000Y-76933100D01*
%TO.N,Net-(J4-Pad2)*%
X68382600Y-76943100D02*
X67659000Y-76943100D01*
X67659000Y-80020000D02*
X67659000Y-76943100D01*
X69165100Y-79660100D02*
X68485900Y-78980900D01*
X77073000Y-80587000D02*
X77073000Y-79660100D01*
X68485900Y-77046400D02*
X68382600Y-76943100D01*
X68485900Y-78980900D02*
X68485900Y-77046400D01*
X77073000Y-79660100D02*
X69165100Y-79660100D01*
%TD*%
%TA.AperFunction,Conductor*%
%TO.N,GND*%
G36*
X62543539Y-73679685D02*
G01*
X62589294Y-73732489D01*
X62600500Y-73784000D01*
X62600500Y-75101254D01*
X62599633Y-75105613D01*
X62599634Y-75127999D01*
X62600141Y-75129222D01*
X62600500Y-75130088D01*
X62602964Y-75136036D01*
X62611000Y-75139365D01*
X62633409Y-75139365D01*
X62637757Y-75138500D01*
X66279602Y-75138500D01*
X66346641Y-75158185D01*
X66392396Y-75210989D01*
X66402340Y-75280147D01*
X66373315Y-75343703D01*
X66352452Y-75362844D01*
X66351806Y-75363313D01*
X66342080Y-75369699D01*
X66303935Y-75392259D01*
X66289500Y-75406694D01*
X66274712Y-75419325D01*
X66258194Y-75431326D01*
X66258188Y-75431333D01*
X66229942Y-75465474D01*
X66222083Y-75474111D01*
X65270182Y-76426012D01*
X65257820Y-76435916D01*
X65257994Y-76436126D01*
X65251984Y-76441098D01*
X65205337Y-76490770D01*
X65202632Y-76493561D01*
X65182873Y-76513321D01*
X65182862Y-76513334D01*
X65180317Y-76516613D01*
X65172753Y-76525467D01*
X65142420Y-76557771D01*
X65142412Y-76557781D01*
X65132579Y-76575667D01*
X65121903Y-76591920D01*
X65109386Y-76608057D01*
X65109385Y-76608060D01*
X65091785Y-76648729D01*
X65086648Y-76659215D01*
X65065303Y-76698041D01*
X65062431Y-76705297D01*
X65060500Y-76704532D01*
X65030263Y-76755305D01*
X64989252Y-76780593D01*
X64912796Y-76809110D01*
X64912795Y-76809111D01*
X64859416Y-76849071D01*
X64795739Y-76896739D01*
X64795738Y-76896740D01*
X64795737Y-76896741D01*
X64782266Y-76914736D01*
X64726332Y-76956607D01*
X64656641Y-76961591D01*
X64595318Y-76928105D01*
X64561834Y-76866782D01*
X64559000Y-76840425D01*
X64559000Y-76222172D01*
X64558999Y-76222155D01*
X64552598Y-76162627D01*
X64552596Y-76162620D01*
X64502354Y-76027913D01*
X64502350Y-76027906D01*
X64416190Y-75912812D01*
X64416187Y-75912809D01*
X64301093Y-75826649D01*
X64301086Y-75826645D01*
X64166379Y-75776403D01*
X64166372Y-75776401D01*
X64106844Y-75770000D01*
X63509000Y-75770000D01*
X63509000Y-79770000D01*
X64106828Y-79770000D01*
X64106844Y-79769999D01*
X64166372Y-79763598D01*
X64166379Y-79763596D01*
X64301086Y-79713354D01*
X64301093Y-79713350D01*
X64416186Y-79627191D01*
X64427233Y-79612435D01*
X64483167Y-79570564D01*
X64552858Y-79565580D01*
X64614181Y-79599065D01*
X64647666Y-79660388D01*
X64650500Y-79686746D01*
X64650500Y-81542333D01*
X64630815Y-81609372D01*
X64578011Y-81655127D01*
X64508853Y-81665071D01*
X64445297Y-81636046D01*
X64438819Y-81630014D01*
X62790486Y-79981681D01*
X62757001Y-79920358D01*
X62761985Y-79850666D01*
X62803857Y-79794733D01*
X62869321Y-79770316D01*
X62878167Y-79770000D01*
X63009000Y-79770000D01*
X63009000Y-78020000D01*
X61959000Y-78020000D01*
X61959000Y-78311208D01*
X61939315Y-78378247D01*
X61886511Y-78424002D01*
X61817353Y-78433946D01*
X61811764Y-78433011D01*
X61755004Y-78422183D01*
X61747405Y-78420485D01*
X61685376Y-78404560D01*
X61686009Y-78402093D01*
X61633356Y-78379115D01*
X61609158Y-78351870D01*
X61511722Y-78202732D01*
X61511715Y-78202725D01*
X61511715Y-78202723D01*
X61366510Y-78044991D01*
X61335587Y-77982337D01*
X61343447Y-77912911D01*
X61387594Y-77858755D01*
X61414405Y-77844827D01*
X61497103Y-77813981D01*
X61532204Y-77800889D01*
X61649261Y-77713261D01*
X61736889Y-77596204D01*
X61750501Y-77559710D01*
X61792372Y-77503776D01*
X61857837Y-77479360D01*
X61926110Y-77494212D01*
X61954363Y-77515363D01*
X61959000Y-77520000D01*
X63009000Y-77520000D01*
X63009000Y-75770000D01*
X62411155Y-75770000D01*
X62351627Y-75776401D01*
X62351620Y-75776403D01*
X62216913Y-75826645D01*
X62216906Y-75826649D01*
X62101812Y-75912809D01*
X62101809Y-75912812D01*
X62017766Y-76025079D01*
X61961832Y-76066950D01*
X61892141Y-76071934D01*
X61830818Y-76038448D01*
X61797334Y-75977125D01*
X61794500Y-75950768D01*
X61794500Y-75601362D01*
X61794499Y-75601345D01*
X61791157Y-75570270D01*
X61787989Y-75540799D01*
X61780601Y-75520992D01*
X61759894Y-75465474D01*
X61736889Y-75403796D01*
X61649261Y-75286739D01*
X61532204Y-75199111D01*
X61509951Y-75190811D01*
X61395203Y-75148011D01*
X61334654Y-75141500D01*
X61334638Y-75141500D01*
X59537362Y-75141500D01*
X59537345Y-75141500D01*
X59476797Y-75148011D01*
X59476795Y-75148011D01*
X59339795Y-75199111D01*
X59222739Y-75286739D01*
X59135111Y-75403795D01*
X59084011Y-75540795D01*
X59084011Y-75540797D01*
X59077500Y-75601345D01*
X59077500Y-77398654D01*
X59084011Y-77459202D01*
X59084011Y-77459204D01*
X59112519Y-77535634D01*
X59135111Y-77596204D01*
X59222739Y-77713261D01*
X59339796Y-77800889D01*
X59374897Y-77813981D01*
X59457595Y-77844827D01*
X59513528Y-77886699D01*
X59537944Y-77952163D01*
X59523092Y-78020436D01*
X59505490Y-78044991D01*
X59360279Y-78202730D01*
X59360276Y-78202734D01*
X59237140Y-78391207D01*
X59146703Y-78597385D01*
X59091436Y-78815628D01*
X59091434Y-78815640D01*
X59072844Y-79039994D01*
X59072844Y-79040005D01*
X59091434Y-79264359D01*
X59091436Y-79264371D01*
X59146703Y-79482614D01*
X59237140Y-79688792D01*
X59360276Y-79877265D01*
X59360284Y-79877276D01*
X59512756Y-80042902D01*
X59512761Y-80042907D01*
X59541692Y-80065425D01*
X59690424Y-80181189D01*
X59690425Y-80181189D01*
X59690427Y-80181191D01*
X59800459Y-80240737D01*
X59888426Y-80288342D01*
X60101365Y-80361444D01*
X60323431Y-80398500D01*
X60548569Y-80398500D01*
X60770635Y-80361444D01*
X60983574Y-80288342D01*
X61111034Y-80219363D01*
X61179362Y-80204768D01*
X61244734Y-80229430D01*
X61257732Y-80240736D01*
X62923095Y-81906100D01*
X64536812Y-83519817D01*
X64546716Y-83532178D01*
X64546926Y-83532005D01*
X64551897Y-83538013D01*
X64551900Y-83538018D01*
X64601585Y-83584675D01*
X64604349Y-83587354D01*
X64624123Y-83607129D01*
X64624127Y-83607132D01*
X64624130Y-83607135D01*
X64627412Y-83609681D01*
X64636272Y-83617249D01*
X64668579Y-83647586D01*
X64668581Y-83647587D01*
X64686462Y-83657417D01*
X64702729Y-83668102D01*
X64718860Y-83680615D01*
X64739057Y-83689354D01*
X64759525Y-83698210D01*
X64770004Y-83703344D01*
X64808840Y-83724695D01*
X64828616Y-83729772D01*
X64847023Y-83736074D01*
X64865755Y-83744181D01*
X64909530Y-83751113D01*
X64920945Y-83753478D01*
X64963870Y-83764500D01*
X64984284Y-83764500D01*
X65003683Y-83766027D01*
X65023843Y-83769220D01*
X65067957Y-83765050D01*
X65079626Y-83764500D01*
X68176666Y-83764500D01*
X68192413Y-83766238D01*
X68192439Y-83765968D01*
X68200205Y-83766701D01*
X68200209Y-83766702D01*
X68268317Y-83764560D01*
X68272213Y-83764500D01*
X68300158Y-83764500D01*
X68300160Y-83764499D01*
X68301562Y-83764322D01*
X68304249Y-83763983D01*
X68315908Y-83763064D01*
X68360189Y-83761673D01*
X68379781Y-83755980D01*
X68398838Y-83752032D01*
X68419097Y-83749474D01*
X68460306Y-83733157D01*
X68471343Y-83729379D01*
X68513893Y-83717018D01*
X68531465Y-83706625D01*
X68548932Y-83698068D01*
X68567917Y-83690552D01*
X68603761Y-83664508D01*
X68613530Y-83658092D01*
X68651662Y-83635542D01*
X68666102Y-83621100D01*
X68680892Y-83608470D01*
X68697407Y-83596472D01*
X68725659Y-83562319D01*
X68733503Y-83553699D01*
X71030385Y-81256819D01*
X71091708Y-81223334D01*
X71118066Y-81220500D01*
X73002885Y-81220500D01*
X73069924Y-81240185D01*
X73115679Y-81292989D01*
X73125623Y-81362147D01*
X73096598Y-81425703D01*
X73092634Y-81430062D01*
X73086650Y-81436339D01*
X72954218Y-81575229D01*
X72839771Y-81753313D01*
X72761088Y-81949852D01*
X72726835Y-82127576D01*
X72721025Y-82157723D01*
X72721025Y-83116375D01*
X72736106Y-83274311D01*
X72795748Y-83477434D01*
X72892754Y-83665598D01*
X73023613Y-83831999D01*
X73023619Y-83832006D01*
X73183602Y-83970633D01*
X73183613Y-83970641D01*
X73280942Y-84026833D01*
X73366943Y-84076485D01*
X73566998Y-84145725D01*
X73776541Y-84175853D01*
X73987999Y-84165780D01*
X74193729Y-84115870D01*
X74386296Y-84027928D01*
X74486409Y-83956638D01*
X74558735Y-83905135D01*
X74558736Y-83905133D01*
X74558740Y-83905131D01*
X74704828Y-83751918D01*
X74706400Y-83749473D01*
X74797019Y-83608466D01*
X74819281Y-83573826D01*
X74897961Y-83377293D01*
X74938025Y-83169421D01*
X74938025Y-82210769D01*
X74922944Y-82052833D01*
X74864524Y-81853871D01*
X74864524Y-81784004D01*
X74902298Y-81725226D01*
X74965854Y-81696201D01*
X74970246Y-81695649D01*
X74971632Y-81695500D01*
X74971638Y-81695500D01*
X75032201Y-81688989D01*
X75032206Y-81688987D01*
X75032207Y-81688987D01*
X75087249Y-81668457D01*
X75169204Y-81637889D01*
X75182277Y-81628102D01*
X75247739Y-81603683D01*
X75316013Y-81618533D01*
X75365420Y-81667936D01*
X75380274Y-81736208D01*
X75371708Y-81773453D01*
X75301088Y-81949852D01*
X75266835Y-82127576D01*
X75261025Y-82157723D01*
X75261025Y-83116375D01*
X75276106Y-83274311D01*
X75335748Y-83477434D01*
X75432754Y-83665598D01*
X75563613Y-83831999D01*
X75563619Y-83832006D01*
X75723602Y-83970633D01*
X75723613Y-83970641D01*
X75820942Y-84026833D01*
X75906943Y-84076485D01*
X76106998Y-84145725D01*
X76316541Y-84175853D01*
X76527999Y-84165780D01*
X76733729Y-84115870D01*
X76926296Y-84027928D01*
X77026409Y-83956638D01*
X77098735Y-83905135D01*
X77098736Y-83905133D01*
X77098740Y-83905131D01*
X77244828Y-83751918D01*
X77246400Y-83749473D01*
X77337019Y-83608466D01*
X77359281Y-83573826D01*
X77437961Y-83377293D01*
X77478025Y-83169421D01*
X77478025Y-82210769D01*
X77462944Y-82052833D01*
X77403302Y-81849710D01*
X77403300Y-81849707D01*
X77403300Y-81849705D01*
X77403300Y-81779835D01*
X77441074Y-81721057D01*
X77504630Y-81692032D01*
X77508977Y-81691485D01*
X77532201Y-81688989D01*
X77669204Y-81637889D01*
X77744830Y-81581275D01*
X77810291Y-81556859D01*
X77878565Y-81571710D01*
X77927970Y-81621115D01*
X77942823Y-81689388D01*
X77923457Y-81747578D01*
X77919771Y-81753313D01*
X77841088Y-81949852D01*
X77806835Y-82127576D01*
X77801025Y-82157723D01*
X77801025Y-83116375D01*
X77816106Y-83274311D01*
X77875748Y-83477434D01*
X77972754Y-83665598D01*
X78103613Y-83831999D01*
X78103619Y-83832006D01*
X78263602Y-83970633D01*
X78263613Y-83970641D01*
X78360942Y-84026833D01*
X78446943Y-84076485D01*
X78646998Y-84145725D01*
X78856541Y-84175853D01*
X79067999Y-84165780D01*
X79273729Y-84115870D01*
X79466296Y-84027928D01*
X79566409Y-83956638D01*
X79638735Y-83905135D01*
X79638736Y-83905133D01*
X79638740Y-83905131D01*
X79784828Y-83751918D01*
X79786400Y-83749473D01*
X79877019Y-83608466D01*
X79899281Y-83573826D01*
X79977961Y-83377293D01*
X80018025Y-83169421D01*
X80018025Y-83116375D01*
X80341025Y-83116375D01*
X80356106Y-83274311D01*
X80415748Y-83477434D01*
X80512754Y-83665598D01*
X80643613Y-83831999D01*
X80643619Y-83832006D01*
X80803602Y-83970633D01*
X80803613Y-83970641D01*
X80900942Y-84026833D01*
X80986943Y-84076485D01*
X81186998Y-84145725D01*
X81396541Y-84175853D01*
X81607999Y-84165780D01*
X81813729Y-84115870D01*
X82006296Y-84027928D01*
X82106409Y-83956638D01*
X82178735Y-83905135D01*
X82178736Y-83905133D01*
X82178740Y-83905131D01*
X82324828Y-83751918D01*
X82326400Y-83749473D01*
X82417019Y-83608466D01*
X82439281Y-83573826D01*
X82517961Y-83377293D01*
X82558025Y-83169421D01*
X82558025Y-82210769D01*
X82542944Y-82052833D01*
X82483302Y-81849710D01*
X82386296Y-81661546D01*
X82255433Y-81495140D01*
X82240201Y-81481941D01*
X82095447Y-81356510D01*
X82095436Y-81356502D01*
X81912109Y-81250660D01*
X81912108Y-81250659D01*
X81912107Y-81250659D01*
X81798309Y-81211273D01*
X81712053Y-81181419D01*
X81634238Y-81170231D01*
X81502509Y-81151291D01*
X81502506Y-81151291D01*
X81472287Y-81152730D01*
X81291051Y-81161364D01*
X81231521Y-81175806D01*
X81085324Y-81211273D01*
X81085322Y-81211273D01*
X80892754Y-81299215D01*
X80892748Y-81299219D01*
X80720314Y-81422008D01*
X80720307Y-81422014D01*
X80573908Y-81575554D01*
X80568936Y-81578424D01*
X80557558Y-81601155D01*
X80459769Y-81753317D01*
X80381088Y-81949852D01*
X80346835Y-82127576D01*
X80341025Y-82157723D01*
X80341025Y-83116375D01*
X80018025Y-83116375D01*
X80018025Y-82210769D01*
X80002944Y-82052833D01*
X79943302Y-81849710D01*
X79943300Y-81849707D01*
X79941797Y-81844586D01*
X79941797Y-81774716D01*
X79979571Y-81715938D01*
X80025254Y-81692564D01*
X80024932Y-81691701D01*
X80105775Y-81661547D01*
X80169204Y-81637889D01*
X80286261Y-81550261D01*
X80353976Y-81459803D01*
X80371317Y-81446822D01*
X80372236Y-81442051D01*
X80370790Y-81441512D01*
X80424988Y-81296204D01*
X80424988Y-81296203D01*
X80424989Y-81296201D01*
X80429885Y-81250659D01*
X80431499Y-81235654D01*
X80431500Y-81235637D01*
X80431500Y-79938362D01*
X80431499Y-79938345D01*
X80426248Y-79889511D01*
X80424989Y-79877799D01*
X80416801Y-79855847D01*
X80396798Y-79802217D01*
X80373889Y-79740796D01*
X80286261Y-79623739D01*
X80169204Y-79536111D01*
X80127141Y-79520422D01*
X80032203Y-79485011D01*
X79971654Y-79478500D01*
X79971638Y-79478500D01*
X79174362Y-79478500D01*
X79174345Y-79478500D01*
X79113797Y-79485011D01*
X79113795Y-79485011D01*
X78976795Y-79536111D01*
X78859739Y-79623739D01*
X78772111Y-79740795D01*
X78721011Y-79877795D01*
X78721011Y-79877797D01*
X78714500Y-79938345D01*
X78714500Y-81072716D01*
X78694815Y-81139755D01*
X78642011Y-81185510D01*
X78619735Y-81193220D01*
X78545331Y-81211270D01*
X78545322Y-81211273D01*
X78352754Y-81299215D01*
X78352748Y-81299219D01*
X78180314Y-81422008D01*
X78180308Y-81422014D01*
X78101070Y-81505117D01*
X78040561Y-81540052D01*
X77970770Y-81536727D01*
X77913856Y-81496199D01*
X77887888Y-81431334D01*
X77895146Y-81376212D01*
X77924988Y-81296204D01*
X77924988Y-81296203D01*
X77924989Y-81296201D01*
X77929885Y-81250659D01*
X77931499Y-81235654D01*
X77931500Y-81235637D01*
X77931500Y-79938362D01*
X77931499Y-79938345D01*
X77926248Y-79889511D01*
X77924989Y-79877799D01*
X77916801Y-79855847D01*
X77896798Y-79802217D01*
X77873889Y-79740796D01*
X77786261Y-79623739D01*
X77786259Y-79623738D01*
X77786259Y-79623737D01*
X77740774Y-79589688D01*
X77698902Y-79533755D01*
X77692062Y-79505961D01*
X77691474Y-79501303D01*
X77670770Y-79449012D01*
X77668151Y-79441738D01*
X77650764Y-79388225D01*
X77646250Y-79381112D01*
X77635652Y-79360313D01*
X77635533Y-79360013D01*
X77632552Y-79352483D01*
X77599516Y-79307013D01*
X77595139Y-79300572D01*
X77565004Y-79253087D01*
X77564997Y-79253079D01*
X77558852Y-79247308D01*
X77543421Y-79229805D01*
X77539130Y-79223899D01*
X77538472Y-79222993D01*
X77535972Y-79220925D01*
X77495155Y-79187158D01*
X77489311Y-79182006D01*
X77448324Y-79143516D01*
X77448319Y-79143512D01*
X77440933Y-79139452D01*
X77421633Y-79126335D01*
X77415143Y-79120966D01*
X77382676Y-79105688D01*
X77364263Y-79097024D01*
X77357330Y-79093491D01*
X77308063Y-79066406D01*
X77308060Y-79066405D01*
X77299892Y-79064307D01*
X77277944Y-79056405D01*
X77270320Y-79052817D01*
X77270311Y-79052814D01*
X77215104Y-79042283D01*
X77207505Y-79040585D01*
X77153034Y-79026600D01*
X77153030Y-79026600D01*
X77144605Y-79026600D01*
X77121374Y-79024404D01*
X77113096Y-79022825D01*
X77113091Y-79022824D01*
X77056985Y-79026355D01*
X77049199Y-79026600D01*
X71483000Y-79026600D01*
X71415961Y-79006915D01*
X71370206Y-78954111D01*
X71359000Y-78902600D01*
X71359000Y-78559500D01*
X83784681Y-78559500D01*
X83803927Y-78804054D01*
X83861193Y-79042587D01*
X83955071Y-79269230D01*
X84083246Y-79478393D01*
X84083248Y-79478396D01*
X84242567Y-79664933D01*
X84429104Y-79824252D01*
X84429106Y-79824253D01*
X84638269Y-79952428D01*
X84745108Y-79996682D01*
X84864908Y-80046305D01*
X85103443Y-80103572D01*
X85348000Y-80122819D01*
X85592557Y-80103572D01*
X85831092Y-80046305D01*
X86033370Y-79962518D01*
X86057730Y-79952428D01*
X86080684Y-79938362D01*
X86266896Y-79824252D01*
X86453433Y-79664933D01*
X86612752Y-79478396D01*
X86740927Y-79269232D01*
X86742946Y-79264359D01*
X86760081Y-79222991D01*
X86834805Y-79042592D01*
X86892072Y-78804057D01*
X86911319Y-78559500D01*
X86892072Y-78314943D01*
X86834805Y-78076408D01*
X86767082Y-77912911D01*
X86740928Y-77849769D01*
X86610206Y-77636449D01*
X86611316Y-77635768D01*
X86589840Y-77575582D01*
X86605664Y-77507528D01*
X86655768Y-77458832D01*
X86706927Y-77446161D01*
X86706825Y-77444924D01*
X86711927Y-77444501D01*
X86936701Y-77406992D01*
X87152219Y-77333004D01*
X87152230Y-77332999D01*
X87352627Y-77224550D01*
X87352633Y-77224546D01*
X87378983Y-77204037D01*
X87378984Y-77204036D01*
X86726116Y-76551169D01*
X86738892Y-76549333D01*
X86868369Y-76490202D01*
X86975943Y-76396989D01*
X87052898Y-76277245D01*
X87077048Y-76194996D01*
X87731123Y-76849071D01*
X87811419Y-76726171D01*
X87902954Y-76517493D01*
X87958894Y-76296593D01*
X87958896Y-76296585D01*
X87977712Y-76069506D01*
X87977712Y-76069493D01*
X87958896Y-75842414D01*
X87958894Y-75842406D01*
X87902954Y-75621506D01*
X87811421Y-75412833D01*
X87731123Y-75289927D01*
X87077048Y-75944003D01*
X87052898Y-75861755D01*
X86975943Y-75742011D01*
X86868369Y-75648798D01*
X86738892Y-75589667D01*
X86726117Y-75587830D01*
X87378983Y-74934962D01*
X87352626Y-74914448D01*
X87152230Y-74806000D01*
X87152219Y-74805995D01*
X86936701Y-74732007D01*
X86711935Y-74694500D01*
X86484065Y-74694500D01*
X86259298Y-74732007D01*
X86043780Y-74805995D01*
X86043769Y-74806000D01*
X85843366Y-74914452D01*
X85817015Y-74934961D01*
X85817015Y-74934963D01*
X86469883Y-75587830D01*
X86457108Y-75589667D01*
X86327631Y-75648798D01*
X86220057Y-75742011D01*
X86143102Y-75861755D01*
X86118951Y-75944004D01*
X85464874Y-75289927D01*
X85384579Y-75412830D01*
X85293045Y-75621506D01*
X85237105Y-75842406D01*
X85237103Y-75842414D01*
X85218288Y-76069493D01*
X85218288Y-76069506D01*
X85237103Y-76296585D01*
X85237105Y-76296593D01*
X85293045Y-76517493D01*
X85384579Y-76726169D01*
X85436214Y-76805203D01*
X85456402Y-76872093D01*
X85437221Y-76939278D01*
X85384762Y-76985428D01*
X85342134Y-76996642D01*
X85103446Y-77015427D01*
X84864912Y-77072693D01*
X84638269Y-77166571D01*
X84429106Y-77294746D01*
X84242567Y-77454067D01*
X84083246Y-77640606D01*
X83955071Y-77849769D01*
X83861193Y-78076412D01*
X83803927Y-78314945D01*
X83784681Y-78559500D01*
X71359000Y-78559500D01*
X71359000Y-78020000D01*
X69933000Y-78020000D01*
X69865961Y-78000315D01*
X69820206Y-77947511D01*
X69809000Y-77896000D01*
X69809000Y-77644000D01*
X69828685Y-77576961D01*
X69881489Y-77531206D01*
X69933000Y-77520000D01*
X71359000Y-77520000D01*
X71359000Y-76654300D01*
X71378685Y-76587261D01*
X71431489Y-76541506D01*
X71483000Y-76530300D01*
X76106466Y-76530300D01*
X76122213Y-76532038D01*
X76122239Y-76531768D01*
X76130005Y-76532501D01*
X76130009Y-76532502D01*
X76198117Y-76530360D01*
X76202013Y-76530300D01*
X76229958Y-76530300D01*
X76229960Y-76530299D01*
X76231362Y-76530122D01*
X76234049Y-76529783D01*
X76245708Y-76528864D01*
X76289989Y-76527473D01*
X76309581Y-76521780D01*
X76328638Y-76517832D01*
X76348897Y-76515274D01*
X76390106Y-76498957D01*
X76401143Y-76495179D01*
X76443693Y-76482818D01*
X76461265Y-76472425D01*
X76478732Y-76463868D01*
X76497717Y-76456352D01*
X76533561Y-76430308D01*
X76543330Y-76423892D01*
X76544749Y-76423053D01*
X76581462Y-76401342D01*
X76595902Y-76386900D01*
X76610692Y-76374270D01*
X76627207Y-76362272D01*
X76655459Y-76328119D01*
X76663303Y-76319499D01*
X77461815Y-75520987D01*
X77474180Y-75511083D01*
X77474006Y-75510873D01*
X77480009Y-75505905D01*
X77480018Y-75505900D01*
X77526677Y-75456211D01*
X77529356Y-75453446D01*
X77549134Y-75433670D01*
X77551660Y-75430412D01*
X77559246Y-75421529D01*
X77589586Y-75389221D01*
X77599423Y-75371324D01*
X77610097Y-75355074D01*
X77622613Y-75338941D01*
X77640207Y-75298280D01*
X77645341Y-75287800D01*
X77666695Y-75248960D01*
X77671774Y-75229174D01*
X77678072Y-75210782D01*
X77686181Y-75192045D01*
X77690322Y-75165893D01*
X77720251Y-75102760D01*
X77738484Y-75086025D01*
X77786261Y-75050261D01*
X77873889Y-74933204D01*
X77924989Y-74796201D01*
X77928591Y-74762692D01*
X77931499Y-74735654D01*
X77931500Y-74735637D01*
X77931500Y-73784000D01*
X77951185Y-73716961D01*
X78003989Y-73671206D01*
X78055500Y-73660000D01*
X78590500Y-73660000D01*
X78657539Y-73679685D01*
X78703294Y-73732489D01*
X78714500Y-73784000D01*
X78714500Y-74735654D01*
X78721011Y-74796202D01*
X78721011Y-74796204D01*
X78762452Y-74907308D01*
X78772111Y-74933204D01*
X78859739Y-75050261D01*
X78976796Y-75137889D01*
X79113799Y-75188989D01*
X79141050Y-75191918D01*
X79174345Y-75195499D01*
X79174362Y-75195500D01*
X79971638Y-75195500D01*
X79971654Y-75195499D01*
X79998692Y-75192591D01*
X80032201Y-75188989D01*
X80169204Y-75137889D01*
X80286261Y-75050261D01*
X80373889Y-74933204D01*
X80424989Y-74796201D01*
X80428591Y-74762692D01*
X80431499Y-74735654D01*
X80431500Y-74735637D01*
X80431500Y-73784000D01*
X80451185Y-73716961D01*
X80503989Y-73671206D01*
X80555500Y-73660000D01*
X125224561Y-73660000D01*
X125291600Y-73679685D01*
X125337355Y-73732489D01*
X125348560Y-73784438D01*
X125320063Y-81849061D01*
X125300142Y-81916031D01*
X125247177Y-81961599D01*
X125177983Y-81971298D01*
X125114531Y-81942048D01*
X125096797Y-81922934D01*
X125038261Y-81844739D01*
X124921204Y-81757111D01*
X124899686Y-81749085D01*
X124784203Y-81706011D01*
X124723654Y-81699500D01*
X124723638Y-81699500D01*
X122926362Y-81699500D01*
X122926345Y-81699500D01*
X122865797Y-81706011D01*
X122865795Y-81706011D01*
X122728795Y-81757111D01*
X122611739Y-81844739D01*
X122524111Y-81961795D01*
X122473011Y-82098795D01*
X122473011Y-82098797D01*
X122466500Y-82159345D01*
X122466500Y-83956654D01*
X122473011Y-84017202D01*
X122473011Y-84017204D01*
X122520948Y-84145724D01*
X122524111Y-84154204D01*
X122611739Y-84271261D01*
X122728796Y-84358889D01*
X122780737Y-84378262D01*
X122846595Y-84402827D01*
X122902528Y-84444699D01*
X122926944Y-84510163D01*
X122912092Y-84578436D01*
X122894490Y-84602991D01*
X122749279Y-84760730D01*
X122749276Y-84760734D01*
X122626140Y-84949207D01*
X122535703Y-85155385D01*
X122480436Y-85373628D01*
X122480434Y-85373640D01*
X122461844Y-85597994D01*
X122461844Y-85598005D01*
X122480434Y-85822359D01*
X122480436Y-85822371D01*
X122535703Y-86040614D01*
X122626140Y-86246792D01*
X122749276Y-86435265D01*
X122749284Y-86435276D01*
X122901756Y-86600902D01*
X122901760Y-86600906D01*
X123079424Y-86739189D01*
X123079425Y-86739189D01*
X123079427Y-86739191D01*
X123206135Y-86807761D01*
X123277426Y-86846342D01*
X123490365Y-86919444D01*
X123712431Y-86956500D01*
X123937569Y-86956500D01*
X124159635Y-86919444D01*
X124372574Y-86846342D01*
X124570576Y-86739189D01*
X124748240Y-86600906D01*
X124880090Y-86457680D01*
X124900715Y-86435276D01*
X124900716Y-86435274D01*
X124900722Y-86435268D01*
X125023860Y-86246791D01*
X125067141Y-86148119D01*
X125112094Y-86094637D01*
X125178830Y-86073946D01*
X125246158Y-86092620D01*
X125292702Y-86144730D01*
X125304694Y-86198370D01*
X125222435Y-109477635D01*
X125202514Y-109544605D01*
X125149549Y-109590173D01*
X125098635Y-109601197D01*
X110329179Y-109624866D01*
X110262108Y-109605289D01*
X110216268Y-109552558D01*
X110206214Y-109483416D01*
X110235137Y-109419814D01*
X110239237Y-109415296D01*
X110305904Y-109345378D01*
X110305908Y-109345373D01*
X110420354Y-109167290D01*
X110420357Y-109167286D01*
X110499037Y-108970753D01*
X110539101Y-108762881D01*
X110539101Y-107804229D01*
X110524020Y-107646293D01*
X110464378Y-107443170D01*
X110367372Y-107255006D01*
X110236509Y-107088600D01*
X110236506Y-107088597D01*
X110076523Y-106949970D01*
X110076512Y-106949962D01*
X109893185Y-106844120D01*
X109893184Y-106844119D01*
X109893183Y-106844119D01*
X109769287Y-106801238D01*
X109693129Y-106774879D01*
X109640742Y-106767347D01*
X109483585Y-106744751D01*
X109483582Y-106744751D01*
X109455518Y-106746088D01*
X109272127Y-106754824D01*
X109204184Y-106771307D01*
X109066400Y-106804733D01*
X109066398Y-106804733D01*
X108873830Y-106892675D01*
X108873824Y-106892679D01*
X108701390Y-107015468D01*
X108701384Y-107015474D01*
X108555294Y-107168689D01*
X108440847Y-107346773D01*
X108362164Y-107543312D01*
X108322101Y-107751182D01*
X108322101Y-107751183D01*
X108322101Y-108709835D01*
X108337182Y-108867771D01*
X108396824Y-109070894D01*
X108493830Y-109259058D01*
X108623108Y-109423448D01*
X108625979Y-109427099D01*
X108651947Y-109491964D01*
X108638724Y-109560571D01*
X108590508Y-109611138D01*
X108528707Y-109627751D01*
X107773530Y-109628961D01*
X107706459Y-109609384D01*
X107660619Y-109556653D01*
X107650565Y-109487511D01*
X107679488Y-109423909D01*
X107683589Y-109419391D01*
X107759191Y-109340102D01*
X107872767Y-109163374D01*
X107950845Y-108968346D01*
X107990601Y-108762069D01*
X107990601Y-108507032D01*
X107206287Y-108507032D01*
X107218242Y-108495077D01*
X107275766Y-108382180D01*
X107295587Y-108257032D01*
X107275766Y-108131884D01*
X107218242Y-108018987D01*
X107206287Y-108007032D01*
X107990601Y-108007032D01*
X107990601Y-107804633D01*
X107975635Y-107647909D01*
X107975634Y-107647905D01*
X107916451Y-107446345D01*
X107820187Y-107259617D01*
X107690332Y-107094494D01*
X107690329Y-107094491D01*
X107531570Y-106956926D01*
X107531559Y-106956917D01*
X107349640Y-106851887D01*
X107349633Y-106851884D01*
X107151117Y-106783176D01*
X107140601Y-106781664D01*
X107140601Y-107941346D01*
X107128646Y-107929391D01*
X107015749Y-107871867D01*
X106922082Y-107857032D01*
X106859120Y-107857032D01*
X106765453Y-107871867D01*
X106652556Y-107929391D01*
X106640601Y-107941346D01*
X106640601Y-106785772D01*
X106640600Y-106785772D01*
X106529195Y-106812800D01*
X106529183Y-106812804D01*
X106338098Y-106900069D01*
X106338097Y-106900070D01*
X106166981Y-107021921D01*
X106166975Y-107021927D01*
X106022008Y-107173964D01*
X105908434Y-107350689D01*
X105830356Y-107545717D01*
X105790601Y-107751994D01*
X105790601Y-108007032D01*
X106574915Y-108007032D01*
X106562960Y-108018987D01*
X106505436Y-108131884D01*
X106485615Y-108257032D01*
X106505436Y-108382180D01*
X106562960Y-108495077D01*
X106574915Y-108507032D01*
X105790601Y-108507032D01*
X105790601Y-108709430D01*
X105805566Y-108866154D01*
X105805567Y-108866158D01*
X105864750Y-109067718D01*
X105961014Y-109254446D01*
X106090870Y-109419570D01*
X106093408Y-109422232D01*
X106094253Y-109423872D01*
X106094523Y-109424215D01*
X106094456Y-109424266D01*
X106125420Y-109484337D01*
X106118775Y-109553890D01*
X106075581Y-109608808D01*
X106009553Y-109631657D01*
X106003859Y-109631797D01*
X105241405Y-109633018D01*
X105174334Y-109613441D01*
X105128494Y-109560710D01*
X105118440Y-109491568D01*
X105147363Y-109427965D01*
X105151452Y-109423460D01*
X105225904Y-109345378D01*
X105225908Y-109345373D01*
X105340354Y-109167290D01*
X105340357Y-109167286D01*
X105419037Y-108970753D01*
X105459101Y-108762881D01*
X105459101Y-107804229D01*
X105444020Y-107646293D01*
X105384378Y-107443170D01*
X105287372Y-107255006D01*
X105156509Y-107088600D01*
X105156506Y-107088597D01*
X104996523Y-106949970D01*
X104996512Y-106949962D01*
X104813185Y-106844120D01*
X104813184Y-106844119D01*
X104813183Y-106844119D01*
X104689287Y-106801238D01*
X104613129Y-106774879D01*
X104560742Y-106767347D01*
X104403585Y-106744751D01*
X104403582Y-106744751D01*
X104375518Y-106746088D01*
X104192127Y-106754824D01*
X104124184Y-106771307D01*
X103986400Y-106804733D01*
X103986398Y-106804733D01*
X103793830Y-106892675D01*
X103793824Y-106892679D01*
X103621390Y-107015468D01*
X103621384Y-107015474D01*
X103475294Y-107168689D01*
X103360847Y-107346773D01*
X103282164Y-107543312D01*
X103242101Y-107751182D01*
X103242101Y-107751183D01*
X103242101Y-108709835D01*
X103257182Y-108867771D01*
X103316824Y-109070894D01*
X103413830Y-109259058D01*
X103477564Y-109340102D01*
X103544697Y-109425469D01*
X103545507Y-109426318D01*
X103545776Y-109426840D01*
X103548345Y-109430107D01*
X103547715Y-109430602D01*
X103577517Y-109488424D01*
X103570870Y-109557976D01*
X103527674Y-109612894D01*
X103461645Y-109635740D01*
X103455955Y-109635880D01*
X102697518Y-109637095D01*
X102630447Y-109617518D01*
X102584607Y-109564787D01*
X102574553Y-109495645D01*
X102603476Y-109432042D01*
X102607553Y-109427550D01*
X102685904Y-109345378D01*
X102800357Y-109167286D01*
X102879037Y-108970753D01*
X102919101Y-108762881D01*
X102919101Y-107804229D01*
X102904020Y-107646293D01*
X102844378Y-107443170D01*
X102747372Y-107255006D01*
X102616509Y-107088600D01*
X102616506Y-107088597D01*
X102456523Y-106949970D01*
X102456512Y-106949962D01*
X102273185Y-106844120D01*
X102273184Y-106844119D01*
X102273183Y-106844119D01*
X102149287Y-106801238D01*
X102073129Y-106774879D01*
X102020742Y-106767347D01*
X101863585Y-106744751D01*
X101863582Y-106744751D01*
X101835518Y-106746088D01*
X101652127Y-106754824D01*
X101584184Y-106771307D01*
X101446400Y-106804733D01*
X101446398Y-106804733D01*
X101253830Y-106892675D01*
X101253824Y-106892679D01*
X101081390Y-107015468D01*
X101081384Y-107015474D01*
X100935294Y-107168689D01*
X100820847Y-107346773D01*
X100742164Y-107543312D01*
X100702101Y-107751182D01*
X100702101Y-107751183D01*
X100702101Y-108709835D01*
X100717182Y-108867771D01*
X100776824Y-109070894D01*
X100873830Y-109259058D01*
X101004693Y-109425464D01*
X101004695Y-109425465D01*
X101004696Y-109425467D01*
X101008771Y-109429741D01*
X101006919Y-109431506D01*
X101038732Y-109480995D01*
X101038740Y-109550865D01*
X101000973Y-109609648D01*
X100937420Y-109638680D01*
X100919958Y-109639944D01*
X100153631Y-109641172D01*
X100086560Y-109621595D01*
X100040720Y-109568864D01*
X100030666Y-109499722D01*
X100059589Y-109436120D01*
X100063674Y-109431618D01*
X100145904Y-109345378D01*
X100145908Y-109345373D01*
X100260354Y-109167290D01*
X100260357Y-109167286D01*
X100339037Y-108970753D01*
X100379101Y-108762881D01*
X100379101Y-107804229D01*
X100364020Y-107646293D01*
X100304378Y-107443170D01*
X100207372Y-107255006D01*
X100076509Y-107088600D01*
X100040155Y-107057099D01*
X99946646Y-106976072D01*
X99908872Y-106917293D01*
X99904787Y-106894088D01*
X99904589Y-106894114D01*
X99903582Y-106886149D01*
X99902664Y-106874490D01*
X99902365Y-106864977D01*
X99901273Y-106830211D01*
X99895577Y-106810609D01*
X99891632Y-106791559D01*
X99889074Y-106771303D01*
X99872762Y-106730104D01*
X99868979Y-106719056D01*
X99856618Y-106676507D01*
X99846222Y-106658929D01*
X99837666Y-106641462D01*
X99834991Y-106634705D01*
X99830152Y-106622483D01*
X99804110Y-106586639D01*
X99797699Y-106576881D01*
X99791135Y-106565782D01*
X99775142Y-106538738D01*
X99760708Y-106524304D01*
X99748071Y-106509509D01*
X99736072Y-106492993D01*
X99736069Y-106492991D01*
X99736069Y-106492990D01*
X99701925Y-106464743D01*
X99693285Y-106456881D01*
X98780191Y-105543787D01*
X98770288Y-105531425D01*
X98770078Y-105531600D01*
X98765099Y-105525581D01*
X98715431Y-105478940D01*
X98712634Y-105476229D01*
X98692866Y-105456461D01*
X98689604Y-105453931D01*
X98680719Y-105446343D01*
X98648421Y-105416014D01*
X98648419Y-105416012D01*
X98630531Y-105406178D01*
X98614270Y-105395497D01*
X98598139Y-105382984D01*
X98557475Y-105365388D01*
X98546985Y-105360249D01*
X98508160Y-105338905D01*
X98508156Y-105338904D01*
X98488387Y-105333828D01*
X98469981Y-105327526D01*
X98451244Y-105319418D01*
X98451245Y-105319418D01*
X98407483Y-105312487D01*
X98396047Y-105310119D01*
X98381293Y-105306331D01*
X98353132Y-105299100D01*
X98353130Y-105299100D01*
X98332716Y-105299100D01*
X98313317Y-105297573D01*
X98293158Y-105294380D01*
X98293157Y-105294380D01*
X98249043Y-105298550D01*
X98237374Y-105299100D01*
X93645402Y-105299100D01*
X93578363Y-105279415D01*
X93532608Y-105226611D01*
X93522082Y-105162136D01*
X93523504Y-105148608D01*
X93523504Y-105148597D01*
X93520182Y-105116993D01*
X93503542Y-104958672D01*
X93444527Y-104777044D01*
X93349040Y-104611656D01*
X93221253Y-104469734D01*
X93066752Y-104357482D01*
X92892288Y-104279806D01*
X92892286Y-104279805D01*
X92705487Y-104240100D01*
X92648767Y-104240100D01*
X92581728Y-104220415D01*
X92561086Y-104203781D01*
X85445719Y-97088414D01*
X85412234Y-97027091D01*
X85409400Y-97000733D01*
X85409400Y-96997144D01*
X85409399Y-96997136D01*
X85407388Y-96981222D01*
X85406656Y-96973479D01*
X85403125Y-96917350D01*
X85400521Y-96909339D01*
X85395428Y-96886551D01*
X85394374Y-96878203D01*
X85373670Y-96825912D01*
X85371051Y-96818638D01*
X85353664Y-96765125D01*
X85349150Y-96758012D01*
X85338552Y-96737213D01*
X85338433Y-96736913D01*
X85335452Y-96729383D01*
X85302416Y-96683913D01*
X85298039Y-96677472D01*
X85267904Y-96629987D01*
X85267897Y-96629979D01*
X85261752Y-96624208D01*
X85246321Y-96606705D01*
X85241372Y-96599893D01*
X85203511Y-96568572D01*
X85198055Y-96564058D01*
X85192211Y-96558906D01*
X85151224Y-96520416D01*
X85151219Y-96520412D01*
X85143833Y-96516352D01*
X85124533Y-96503235D01*
X85118043Y-96497866D01*
X85085576Y-96482588D01*
X85067163Y-96473924D01*
X85060228Y-96470390D01*
X85021761Y-96449242D01*
X84972498Y-96399696D01*
X84957500Y-96340581D01*
X84957500Y-96303401D01*
X84917487Y-96141061D01*
X84906237Y-96119627D01*
X84892511Y-96051119D01*
X84901355Y-96021000D01*
X86116001Y-96021000D01*
X86116001Y-96044322D01*
X86126144Y-96143607D01*
X86179452Y-96304481D01*
X86179457Y-96304492D01*
X86268424Y-96448728D01*
X86268427Y-96448732D01*
X86388267Y-96568572D01*
X86388271Y-96568575D01*
X86532507Y-96657542D01*
X86532518Y-96657547D01*
X86693393Y-96710855D01*
X86792683Y-96720999D01*
X86840999Y-96720998D01*
X86841000Y-96720998D01*
X86841000Y-96021000D01*
X87341000Y-96021000D01*
X87341000Y-96720999D01*
X87389308Y-96720999D01*
X87389322Y-96720998D01*
X87488607Y-96710855D01*
X87649481Y-96657547D01*
X87649492Y-96657542D01*
X87793728Y-96568575D01*
X87793732Y-96568572D01*
X87913572Y-96448732D01*
X87913575Y-96448728D01*
X88002542Y-96304492D01*
X88002547Y-96304481D01*
X88055855Y-96143606D01*
X88065999Y-96044322D01*
X88066000Y-96044309D01*
X88066000Y-96021000D01*
X87341000Y-96021000D01*
X86841000Y-96021000D01*
X86116001Y-96021000D01*
X84901355Y-96021000D01*
X84906237Y-96004373D01*
X84917487Y-95982939D01*
X84957500Y-95820599D01*
X84957500Y-95653401D01*
X84917487Y-95491061D01*
X84906236Y-95469625D01*
X84892511Y-95401119D01*
X84906237Y-95354373D01*
X84915303Y-95337100D01*
X84917487Y-95332939D01*
X84957500Y-95170599D01*
X84957500Y-95003401D01*
X84917487Y-94841061D01*
X84906236Y-94819625D01*
X84892511Y-94751119D01*
X84906237Y-94704373D01*
X84917487Y-94682939D01*
X84957500Y-94520599D01*
X84957500Y-94520598D01*
X84958923Y-94514825D01*
X84994079Y-94454444D01*
X85056299Y-94422656D01*
X85079320Y-94420500D01*
X85987925Y-94420500D01*
X86054964Y-94440185D01*
X86100719Y-94492989D01*
X86111283Y-94531898D01*
X86117763Y-94595336D01*
X86171697Y-94758098D01*
X86171702Y-94758109D01*
X86261712Y-94904036D01*
X86261715Y-94904040D01*
X86272004Y-94914329D01*
X86305489Y-94975652D01*
X86300505Y-95045344D01*
X86272004Y-95089691D01*
X86268427Y-95093267D01*
X86268424Y-95093271D01*
X86179457Y-95237507D01*
X86179452Y-95237518D01*
X86126144Y-95398393D01*
X86116000Y-95497677D01*
X86116000Y-95521000D01*
X88065999Y-95521000D01*
X88065999Y-95497692D01*
X88065998Y-95497677D01*
X88055855Y-95398392D01*
X88002547Y-95237518D01*
X88002542Y-95237507D01*
X87913575Y-95093271D01*
X87913572Y-95093267D01*
X87909996Y-95089691D01*
X87876511Y-95028368D01*
X87881495Y-94958676D01*
X87909996Y-94914329D01*
X87920285Y-94904040D01*
X88010302Y-94758101D01*
X88064236Y-94595336D01*
X88074500Y-94494872D01*
X88074500Y-93947128D01*
X88064236Y-93846664D01*
X88010302Y-93683899D01*
X88010298Y-93683893D01*
X88010297Y-93683890D01*
X87920287Y-93537963D01*
X87920284Y-93537959D01*
X87799040Y-93416715D01*
X87799036Y-93416712D01*
X87653109Y-93326702D01*
X87653103Y-93326699D01*
X87653101Y-93326698D01*
X87490336Y-93272764D01*
X87389879Y-93262500D01*
X87389872Y-93262500D01*
X87056873Y-93262500D01*
X86989834Y-93242815D01*
X86982730Y-93237793D01*
X86982043Y-93237386D01*
X86941375Y-93219788D01*
X86930885Y-93214649D01*
X86892060Y-93193305D01*
X86884805Y-93190433D01*
X86885282Y-93189226D01*
X86832154Y-93157600D01*
X86800970Y-93095076D01*
X86808538Y-93025617D01*
X86835345Y-92985559D01*
X86839362Y-92981542D01*
X86853798Y-92967105D01*
X86868592Y-92954470D01*
X86885107Y-92942472D01*
X86913355Y-92908324D01*
X86921210Y-92899693D01*
X86992087Y-92828818D01*
X87053411Y-92795333D01*
X87079767Y-92792500D01*
X87389867Y-92792500D01*
X87389872Y-92792500D01*
X87490336Y-92782236D01*
X87653101Y-92728302D01*
X87799040Y-92638285D01*
X87920285Y-92517040D01*
X88010302Y-92371101D01*
X88064236Y-92208336D01*
X88074500Y-92107872D01*
X88074500Y-91560128D01*
X88064236Y-91459664D01*
X88010302Y-91296899D01*
X88010298Y-91296893D01*
X88010297Y-91296890D01*
X87920287Y-91150963D01*
X87920284Y-91150959D01*
X87916006Y-91146681D01*
X87882521Y-91085358D01*
X87887505Y-91015666D01*
X87916006Y-90971319D01*
X87920285Y-90967040D01*
X88010302Y-90821101D01*
X88064236Y-90658336D01*
X88074500Y-90557872D01*
X88074500Y-90010128D01*
X88064236Y-89909664D01*
X88010302Y-89746899D01*
X88010298Y-89746893D01*
X88010297Y-89746890D01*
X87920287Y-89600963D01*
X87920284Y-89600959D01*
X87799040Y-89479715D01*
X87799036Y-89479712D01*
X87653109Y-89389702D01*
X87653103Y-89389699D01*
X87653101Y-89389698D01*
X87490336Y-89335764D01*
X87389879Y-89325500D01*
X87389872Y-89325500D01*
X87030361Y-89325500D01*
X86981119Y-89315303D01*
X86968366Y-89309784D01*
X86957888Y-89304651D01*
X86919063Y-89283306D01*
X86919060Y-89283305D01*
X86901429Y-89278778D01*
X86899287Y-89278228D01*
X86880881Y-89271926D01*
X86862144Y-89263818D01*
X86862145Y-89263818D01*
X86818383Y-89256887D01*
X86806947Y-89254519D01*
X86792193Y-89250731D01*
X86764032Y-89243500D01*
X86764030Y-89243500D01*
X86743616Y-89243500D01*
X86724217Y-89241973D01*
X86704058Y-89238780D01*
X86704057Y-89238780D01*
X86659943Y-89242950D01*
X86648274Y-89243500D01*
X84562919Y-89243500D01*
X84518948Y-89235442D01*
X84434982Y-89203597D01*
X84434976Y-89203596D01*
X84310649Y-89188500D01*
X84310647Y-89188500D01*
X84174314Y-89188500D01*
X84107275Y-89168815D01*
X84061520Y-89116011D01*
X84051576Y-89046853D01*
X84080601Y-88983297D01*
X84135310Y-88946794D01*
X84208481Y-88922547D01*
X84208492Y-88922542D01*
X84352728Y-88833575D01*
X84352732Y-88833572D01*
X84472572Y-88713732D01*
X84472575Y-88713728D01*
X84561542Y-88569492D01*
X84561547Y-88569481D01*
X84614855Y-88408606D01*
X84624999Y-88309322D01*
X84625000Y-88309309D01*
X84625000Y-88261000D01*
X83549000Y-88261000D01*
X83481961Y-88241315D01*
X83436206Y-88188511D01*
X83425000Y-88137000D01*
X83425000Y-87036000D01*
X83925000Y-87036000D01*
X83925000Y-87761000D01*
X84624999Y-87761000D01*
X84624999Y-87712692D01*
X84624998Y-87712677D01*
X84614855Y-87613392D01*
X84561547Y-87452518D01*
X84561542Y-87452507D01*
X84472575Y-87308271D01*
X84472572Y-87308267D01*
X84352732Y-87188427D01*
X84352728Y-87188424D01*
X84208492Y-87099457D01*
X84208481Y-87099452D01*
X84047606Y-87046144D01*
X83948322Y-87036000D01*
X83925000Y-87036000D01*
X83425000Y-87036000D01*
X83425000Y-87035999D01*
X83401693Y-87036000D01*
X83401674Y-87036001D01*
X83302392Y-87046144D01*
X83141518Y-87099452D01*
X83141507Y-87099457D01*
X82997271Y-87188424D01*
X82997267Y-87188427D01*
X82993691Y-87192004D01*
X82932368Y-87225489D01*
X82862676Y-87220505D01*
X82818329Y-87192004D01*
X82808041Y-87181716D01*
X82808040Y-87181715D01*
X82797431Y-87175171D01*
X82750708Y-87123225D01*
X82739487Y-87054262D01*
X82767330Y-86990180D01*
X82774837Y-86981965D01*
X85048385Y-84708419D01*
X85109708Y-84674934D01*
X85136066Y-84672100D01*
X89928370Y-84672100D01*
X89936795Y-84672100D01*
X89960026Y-84674296D01*
X89964543Y-84675157D01*
X89968306Y-84675875D01*
X89968307Y-84675874D01*
X89968308Y-84675875D01*
X90024415Y-84672345D01*
X90032201Y-84672100D01*
X94465566Y-84672100D01*
X94481313Y-84673838D01*
X94481339Y-84673568D01*
X94489105Y-84674301D01*
X94489109Y-84674302D01*
X94557217Y-84672160D01*
X94561113Y-84672100D01*
X94589058Y-84672100D01*
X94589060Y-84672099D01*
X94590462Y-84671922D01*
X94593149Y-84671583D01*
X94604808Y-84670664D01*
X94649089Y-84669273D01*
X94668681Y-84663580D01*
X94687738Y-84659632D01*
X94707997Y-84657074D01*
X94749206Y-84640757D01*
X94760243Y-84636979D01*
X94802793Y-84624618D01*
X94820365Y-84614225D01*
X94837832Y-84605668D01*
X94856817Y-84598152D01*
X94892661Y-84572108D01*
X94902430Y-84565692D01*
X94940562Y-84543142D01*
X94955002Y-84528700D01*
X94969792Y-84516070D01*
X94986307Y-84504072D01*
X95014559Y-84469919D01*
X95022403Y-84461299D01*
X95682734Y-83800968D01*
X95744056Y-83767485D01*
X95813748Y-83772469D01*
X95867883Y-83811998D01*
X95883613Y-83831999D01*
X95883618Y-83832005D01*
X96043602Y-83970633D01*
X96043613Y-83970641D01*
X96140942Y-84026833D01*
X96226943Y-84076485D01*
X96426998Y-84145725D01*
X96636541Y-84175853D01*
X96847999Y-84165780D01*
X97053729Y-84115870D01*
X97246296Y-84027928D01*
X97346409Y-83956638D01*
X97418735Y-83905135D01*
X97418736Y-83905133D01*
X97418740Y-83905131D01*
X97564828Y-83751918D01*
X97566400Y-83749473D01*
X97657019Y-83608466D01*
X97679281Y-83573826D01*
X97757961Y-83377293D01*
X97798025Y-83169421D01*
X97798025Y-82210769D01*
X97782944Y-82052833D01*
X97723302Y-81849710D01*
X97626296Y-81661546D01*
X97620331Y-81653961D01*
X97598942Y-81626762D01*
X97572974Y-81561897D01*
X97586196Y-81493290D01*
X97634412Y-81442723D01*
X97702312Y-81426250D01*
X97760560Y-81443992D01*
X97888487Y-81521327D01*
X98052751Y-81572513D01*
X98124135Y-81579000D01*
X98126323Y-81578999D01*
X98126724Y-81579117D01*
X98126952Y-81579128D01*
X98126949Y-81579183D01*
X98193364Y-81598670D01*
X98239129Y-81651465D01*
X98249086Y-81720622D01*
X98241463Y-81749085D01*
X98161088Y-81949852D01*
X98126835Y-82127576D01*
X98121025Y-82157723D01*
X98121025Y-83116375D01*
X98136106Y-83274311D01*
X98195748Y-83477434D01*
X98292754Y-83665598D01*
X98423613Y-83831999D01*
X98423619Y-83832006D01*
X98583602Y-83970633D01*
X98583613Y-83970641D01*
X98680942Y-84026833D01*
X98766943Y-84076485D01*
X98966998Y-84145725D01*
X99176541Y-84175853D01*
X99387999Y-84165780D01*
X99593729Y-84115870D01*
X99786296Y-84027928D01*
X99886409Y-83956638D01*
X99958735Y-83905135D01*
X99958736Y-83905133D01*
X99958740Y-83905131D01*
X100104828Y-83751918D01*
X100180205Y-83634629D01*
X100233007Y-83588876D01*
X100302165Y-83578932D01*
X100310290Y-83580378D01*
X100404013Y-83600300D01*
X100404014Y-83600300D01*
X100594985Y-83600300D01*
X100594987Y-83600300D01*
X100686323Y-83580885D01*
X100755987Y-83586200D01*
X100811721Y-83628337D01*
X100822316Y-83645352D01*
X100832754Y-83665598D01*
X100958983Y-83826112D01*
X100963619Y-83832006D01*
X101123602Y-83970633D01*
X101123613Y-83970641D01*
X101220942Y-84026833D01*
X101306943Y-84076485D01*
X101506998Y-84145725D01*
X101716541Y-84175853D01*
X101927999Y-84165780D01*
X102133729Y-84115870D01*
X102326296Y-84027928D01*
X102426409Y-83956638D01*
X102498735Y-83905135D01*
X102498736Y-83905133D01*
X102498740Y-83905131D01*
X102644828Y-83751918D01*
X102646400Y-83749473D01*
X102737019Y-83608466D01*
X102759281Y-83573826D01*
X102837961Y-83377293D01*
X102878025Y-83169421D01*
X102878025Y-82210769D01*
X102862944Y-82052833D01*
X102803302Y-81849710D01*
X102706296Y-81661546D01*
X102575433Y-81495140D01*
X102560199Y-81481940D01*
X102519546Y-81446713D01*
X102481772Y-81387934D01*
X102481772Y-81318065D01*
X102519547Y-81259287D01*
X102583103Y-81230262D01*
X102600749Y-81229000D01*
X103474780Y-81229000D01*
X103541819Y-81248685D01*
X103587574Y-81301489D01*
X103597518Y-81370647D01*
X103568493Y-81434203D01*
X103564523Y-81438570D01*
X103434218Y-81575229D01*
X103319771Y-81753313D01*
X103241088Y-81949852D01*
X103206835Y-82127576D01*
X103201025Y-82157723D01*
X103201025Y-83116375D01*
X103216106Y-83274311D01*
X103275748Y-83477434D01*
X103372754Y-83665598D01*
X103503613Y-83831999D01*
X103503619Y-83832006D01*
X103663602Y-83970633D01*
X103663613Y-83970641D01*
X103760942Y-84026833D01*
X103846943Y-84076485D01*
X104046998Y-84145725D01*
X104256541Y-84175853D01*
X104467999Y-84165780D01*
X104673729Y-84115870D01*
X104866296Y-84027928D01*
X104966409Y-83956638D01*
X105038735Y-83905135D01*
X105038736Y-83905133D01*
X105038740Y-83905131D01*
X105184828Y-83751918D01*
X105186400Y-83749473D01*
X105277019Y-83608466D01*
X105299281Y-83573826D01*
X105377961Y-83377293D01*
X105418025Y-83169421D01*
X105418025Y-82210769D01*
X105402944Y-82052833D01*
X105343302Y-81849710D01*
X105246296Y-81661546D01*
X105115433Y-81495140D01*
X105100199Y-81481940D01*
X105059546Y-81446713D01*
X105021772Y-81387934D01*
X105021772Y-81318065D01*
X105059547Y-81259287D01*
X105123103Y-81230262D01*
X105140749Y-81229000D01*
X106026524Y-81229000D01*
X106093563Y-81248685D01*
X106139318Y-81301489D01*
X106149262Y-81370647D01*
X106120237Y-81434203D01*
X106116267Y-81438570D01*
X105980932Y-81580504D01*
X105867358Y-81757229D01*
X105789280Y-81952257D01*
X105749525Y-82158534D01*
X105749525Y-82413572D01*
X106533839Y-82413572D01*
X106521884Y-82425527D01*
X106464360Y-82538424D01*
X106444539Y-82663572D01*
X106464360Y-82788720D01*
X106521884Y-82901617D01*
X106533839Y-82913572D01*
X105749525Y-82913572D01*
X105749525Y-83115970D01*
X105764490Y-83272694D01*
X105764491Y-83272698D01*
X105823674Y-83474258D01*
X105919938Y-83660986D01*
X106049793Y-83826109D01*
X106049796Y-83826112D01*
X106208555Y-83963677D01*
X106208566Y-83963686D01*
X106390485Y-84068716D01*
X106390492Y-84068719D01*
X106589012Y-84137428D01*
X106599525Y-84138939D01*
X106599525Y-82979258D01*
X106611480Y-82991213D01*
X106724377Y-83048737D01*
X106818044Y-83063572D01*
X106881006Y-83063572D01*
X106974673Y-83048737D01*
X107087570Y-82991213D01*
X107099525Y-82979258D01*
X107099525Y-84134829D01*
X107210934Y-84107801D01*
X107402032Y-84020531D01*
X107573144Y-83898682D01*
X107573150Y-83898676D01*
X107718117Y-83746639D01*
X107831691Y-83569914D01*
X107909769Y-83374886D01*
X107949525Y-83168609D01*
X107949525Y-82913572D01*
X107165211Y-82913572D01*
X107177166Y-82901617D01*
X107234690Y-82788720D01*
X107254511Y-82663572D01*
X107234690Y-82538424D01*
X107177166Y-82425527D01*
X107165211Y-82413572D01*
X107949525Y-82413572D01*
X107951736Y-82411360D01*
X107969210Y-82351852D01*
X108022014Y-82306097D01*
X108091172Y-82296153D01*
X108154728Y-82325178D01*
X108161206Y-82331210D01*
X108244706Y-82414710D01*
X108278191Y-82476033D01*
X108281025Y-82502391D01*
X108281025Y-83712226D01*
X108287536Y-83772774D01*
X108287536Y-83772776D01*
X108334496Y-83898676D01*
X108338636Y-83909776D01*
X108426264Y-84026833D01*
X108543321Y-84114461D01*
X108649875Y-84154204D01*
X108672559Y-84162665D01*
X108680324Y-84165561D01*
X108707575Y-84168490D01*
X108740870Y-84172071D01*
X108740887Y-84172072D01*
X110038163Y-84172072D01*
X110038179Y-84172071D01*
X110065217Y-84169163D01*
X110098726Y-84165561D01*
X110106491Y-84162665D01*
X110129175Y-84154204D01*
X110235729Y-84114461D01*
X110352786Y-84026833D01*
X110440414Y-83909776D01*
X110491514Y-83772773D01*
X110495459Y-83736075D01*
X110498024Y-83712226D01*
X110498025Y-83712209D01*
X110498025Y-83421100D01*
X110517710Y-83354061D01*
X110570514Y-83308306D01*
X110622025Y-83297100D01*
X117716666Y-83297100D01*
X117732413Y-83298838D01*
X117732439Y-83298568D01*
X117740205Y-83299301D01*
X117740209Y-83299302D01*
X117808317Y-83297160D01*
X117812213Y-83297100D01*
X117840158Y-83297100D01*
X117840160Y-83297099D01*
X117841562Y-83296922D01*
X117844249Y-83296583D01*
X117855908Y-83295664D01*
X117900189Y-83294273D01*
X117919781Y-83288580D01*
X117938838Y-83284632D01*
X117959097Y-83282074D01*
X118000306Y-83265757D01*
X118011343Y-83261979D01*
X118053893Y-83249618D01*
X118071465Y-83239225D01*
X118088932Y-83230668D01*
X118107917Y-83223152D01*
X118143761Y-83197108D01*
X118153530Y-83190692D01*
X118190872Y-83168609D01*
X118191662Y-83168142D01*
X118206102Y-83153700D01*
X118220892Y-83141070D01*
X118237407Y-83129072D01*
X118265659Y-83094919D01*
X118273503Y-83086299D01*
X119744486Y-81615318D01*
X119805809Y-81581833D01*
X119832167Y-81578999D01*
X120125671Y-81578999D01*
X120197044Y-81572514D01*
X120197047Y-81572513D01*
X120197049Y-81572513D01*
X120361313Y-81521327D01*
X120508555Y-81432316D01*
X120630216Y-81310655D01*
X120719227Y-81163413D01*
X120770413Y-80999149D01*
X120776900Y-80927765D01*
X120776899Y-80263236D01*
X120776899Y-80263235D01*
X120776899Y-80263227D01*
X120770414Y-80191854D01*
X120770411Y-80191844D01*
X120719228Y-80027590D01*
X120719227Y-80027589D01*
X120719227Y-80027587D01*
X120630216Y-79880345D01*
X120630214Y-79880343D01*
X120630213Y-79880341D01*
X120508558Y-79758686D01*
X120505433Y-79756797D01*
X120361313Y-79669673D01*
X120197049Y-79618487D01*
X120197047Y-79618486D01*
X120197045Y-79618486D01*
X120147067Y-79613944D01*
X120125665Y-79612000D01*
X120125662Y-79612000D01*
X119611127Y-79612000D01*
X119539754Y-79618485D01*
X119539744Y-79618488D01*
X119375490Y-79669671D01*
X119228241Y-79758686D01*
X119228240Y-79758687D01*
X119131081Y-79855847D01*
X119069758Y-79889332D01*
X119000066Y-79884348D01*
X118955719Y-79855847D01*
X118888219Y-79788347D01*
X118854734Y-79727024D01*
X118851900Y-79700666D01*
X118851900Y-78980865D01*
X118871585Y-78913826D01*
X118888214Y-78893189D01*
X120339283Y-77442119D01*
X120400604Y-77408636D01*
X120467228Y-77412522D01*
X120475207Y-77415262D01*
X120475209Y-77415262D01*
X120475211Y-77415263D01*
X120701360Y-77453000D01*
X120704794Y-77453000D01*
X120706146Y-77453397D01*
X120706471Y-77453424D01*
X120706465Y-77453490D01*
X120771833Y-77472685D01*
X120817588Y-77525489D01*
X120827532Y-77594647D01*
X120810523Y-77641786D01*
X120766725Y-77713260D01*
X120683070Y-77849772D01*
X120589193Y-78076412D01*
X120531927Y-78314945D01*
X120512681Y-78559500D01*
X120531927Y-78804054D01*
X120589193Y-79042587D01*
X120683071Y-79269230D01*
X120811246Y-79478393D01*
X120811248Y-79478396D01*
X120970567Y-79664933D01*
X121157104Y-79824252D01*
X121157106Y-79824253D01*
X121366269Y-79952428D01*
X121473108Y-79996682D01*
X121592908Y-80046305D01*
X121831443Y-80103572D01*
X122076000Y-80122819D01*
X122320557Y-80103572D01*
X122559092Y-80046305D01*
X122761370Y-79962518D01*
X122785730Y-79952428D01*
X122808684Y-79938362D01*
X122994896Y-79824252D01*
X123181433Y-79664933D01*
X123340752Y-79478396D01*
X123468927Y-79269232D01*
X123470946Y-79264359D01*
X123488081Y-79222991D01*
X123562805Y-79042592D01*
X123620072Y-78804057D01*
X123639319Y-78559500D01*
X123620072Y-78314943D01*
X123562805Y-78076408D01*
X123495082Y-77912911D01*
X123468928Y-77849769D01*
X123340753Y-77640606D01*
X123340752Y-77640604D01*
X123181433Y-77454067D01*
X122994896Y-77294748D01*
X122991094Y-77292418D01*
X122785730Y-77166571D01*
X122559087Y-77072693D01*
X122320553Y-77015427D01*
X122320554Y-77015427D01*
X122082012Y-76996654D01*
X122016724Y-76971770D01*
X121975253Y-76915539D01*
X121970766Y-76845814D01*
X121987930Y-76805217D01*
X122036922Y-76730230D01*
X122129023Y-76520261D01*
X122185308Y-76297997D01*
X122185309Y-76297988D01*
X122204242Y-76069505D01*
X122204242Y-76069494D01*
X122185309Y-75841011D01*
X122185307Y-75840999D01*
X122129023Y-75618738D01*
X122036922Y-75408770D01*
X121911520Y-75216826D01*
X121885893Y-75188988D01*
X121756231Y-75048137D01*
X121756226Y-75048133D01*
X121756224Y-75048131D01*
X121575304Y-74907315D01*
X121575293Y-74907308D01*
X121373656Y-74798188D01*
X121373653Y-74798186D01*
X121373650Y-74798185D01*
X121373647Y-74798184D01*
X121373645Y-74798183D01*
X121156795Y-74723738D01*
X120930640Y-74686000D01*
X120701360Y-74686000D01*
X120475204Y-74723738D01*
X120258354Y-74798183D01*
X120258343Y-74798188D01*
X120056706Y-74907308D01*
X120056695Y-74907315D01*
X119875775Y-75048131D01*
X119875772Y-75048134D01*
X119875769Y-75048136D01*
X119875769Y-75048137D01*
X119873815Y-75050260D01*
X119720479Y-75216826D01*
X119595077Y-75408770D01*
X119502976Y-75618738D01*
X119446692Y-75840999D01*
X119446690Y-75841011D01*
X119427758Y-76069494D01*
X119427758Y-76069505D01*
X119446690Y-76297988D01*
X119446692Y-76298001D01*
X119478882Y-76425116D01*
X119476256Y-76494937D01*
X119446357Y-76543237D01*
X117829579Y-78160014D01*
X117817220Y-78169918D01*
X117817393Y-78170127D01*
X117811382Y-78175100D01*
X117764738Y-78224769D01*
X117762033Y-78227560D01*
X117742273Y-78247321D01*
X117742258Y-78247338D01*
X117739717Y-78250613D01*
X117732153Y-78259467D01*
X117701820Y-78291771D01*
X117701812Y-78291781D01*
X117691979Y-78309667D01*
X117681303Y-78325920D01*
X117668786Y-78342057D01*
X117668785Y-78342060D01*
X117651185Y-78382729D01*
X117646048Y-78393215D01*
X117624703Y-78432041D01*
X117624703Y-78432042D01*
X117619625Y-78451820D01*
X117613325Y-78470222D01*
X117605218Y-78488957D01*
X117598288Y-78532709D01*
X117595920Y-78544145D01*
X117584900Y-78587065D01*
X117584900Y-78607484D01*
X117583373Y-78626883D01*
X117580180Y-78647041D01*
X117580180Y-78647042D01*
X117584350Y-78691157D01*
X117584900Y-78702826D01*
X117584900Y-79700666D01*
X117565215Y-79767705D01*
X117548581Y-79788347D01*
X117456587Y-79880340D01*
X117456586Y-79880341D01*
X117367573Y-80027586D01*
X117316386Y-80191854D01*
X117309900Y-80263237D01*
X117309900Y-80927772D01*
X117316385Y-80999145D01*
X117316388Y-80999155D01*
X117367571Y-81163409D01*
X117367572Y-81163411D01*
X117367573Y-81163413D01*
X117442435Y-81287250D01*
X117456586Y-81310658D01*
X117578241Y-81432313D01*
X117578243Y-81432314D01*
X117578245Y-81432316D01*
X117725487Y-81521327D01*
X117774529Y-81536609D01*
X117832676Y-81575346D01*
X117860650Y-81639371D01*
X117849569Y-81708356D01*
X117825319Y-81742675D01*
X117574214Y-81993781D01*
X117512891Y-82027266D01*
X117486533Y-82030100D01*
X110622025Y-82030100D01*
X110554986Y-82010415D01*
X110509231Y-81957611D01*
X110498025Y-81906100D01*
X110498025Y-81611613D01*
X110499035Y-81611613D01*
X110514117Y-81547719D01*
X110557734Y-81502936D01*
X110674555Y-81432316D01*
X110796216Y-81310655D01*
X110885227Y-81163413D01*
X110936413Y-80999149D01*
X110942900Y-80927765D01*
X110942899Y-80263236D01*
X110942899Y-80263235D01*
X110942899Y-80263227D01*
X110936414Y-80191854D01*
X110936411Y-80191844D01*
X110885228Y-80027590D01*
X110885227Y-80027589D01*
X110885227Y-80027587D01*
X110796216Y-79880345D01*
X110796214Y-79880343D01*
X110796213Y-79880341D01*
X110704219Y-79788347D01*
X110670734Y-79727024D01*
X110667900Y-79700666D01*
X110667900Y-79530750D01*
X110687585Y-79463711D01*
X110740389Y-79417956D01*
X110809547Y-79408012D01*
X110873103Y-79437037D01*
X110897628Y-79465962D01*
X110905243Y-79478389D01*
X110905245Y-79478392D01*
X110905246Y-79478393D01*
X110905248Y-79478396D01*
X111064567Y-79664933D01*
X111251104Y-79824252D01*
X111251106Y-79824253D01*
X111460269Y-79952428D01*
X111567108Y-79996682D01*
X111686908Y-80046305D01*
X111925443Y-80103572D01*
X112170000Y-80122819D01*
X112414557Y-80103572D01*
X112653092Y-80046305D01*
X112855370Y-79962518D01*
X112879730Y-79952428D01*
X112902684Y-79938362D01*
X113088896Y-79824252D01*
X113275433Y-79664933D01*
X113434752Y-79478396D01*
X113512272Y-79351893D01*
X113564084Y-79305018D01*
X113633014Y-79293595D01*
X113697177Y-79321252D01*
X113723728Y-79351894D01*
X113801245Y-79478392D01*
X113801248Y-79478396D01*
X113960567Y-79664933D01*
X114147104Y-79824252D01*
X114147106Y-79824253D01*
X114356269Y-79952428D01*
X114463108Y-79996682D01*
X114582908Y-80046305D01*
X114821443Y-80103572D01*
X115066000Y-80122819D01*
X115310557Y-80103572D01*
X115549092Y-80046305D01*
X115751370Y-79962518D01*
X115775730Y-79952428D01*
X115798684Y-79938362D01*
X115984896Y-79824252D01*
X116171433Y-79664933D01*
X116330752Y-79478396D01*
X116458927Y-79269232D01*
X116460946Y-79264359D01*
X116478081Y-79222991D01*
X116552805Y-79042592D01*
X116610072Y-78804057D01*
X116629319Y-78559500D01*
X116610072Y-78314943D01*
X116552805Y-78076408D01*
X116485082Y-77912911D01*
X116458928Y-77849769D01*
X116328206Y-77636449D01*
X116329316Y-77635768D01*
X116307840Y-77575582D01*
X116323664Y-77507528D01*
X116373768Y-77458832D01*
X116424927Y-77446161D01*
X116424825Y-77444924D01*
X116429927Y-77444501D01*
X116654701Y-77406992D01*
X116870219Y-77333004D01*
X116870230Y-77332999D01*
X117070627Y-77224550D01*
X117070633Y-77224546D01*
X117096983Y-77204037D01*
X117096984Y-77204036D01*
X116444116Y-76551169D01*
X116456892Y-76549333D01*
X116586369Y-76490202D01*
X116693943Y-76396989D01*
X116770898Y-76277245D01*
X116795048Y-76194996D01*
X117449123Y-76849071D01*
X117529419Y-76726171D01*
X117620954Y-76517493D01*
X117676894Y-76296593D01*
X117676896Y-76296585D01*
X117695712Y-76069506D01*
X117695712Y-76069493D01*
X117676896Y-75842414D01*
X117676894Y-75842406D01*
X117620954Y-75621506D01*
X117529421Y-75412833D01*
X117449123Y-75289927D01*
X116795048Y-75944003D01*
X116770898Y-75861755D01*
X116693943Y-75742011D01*
X116586369Y-75648798D01*
X116456892Y-75589667D01*
X116444117Y-75587830D01*
X117096983Y-74934962D01*
X117070626Y-74914448D01*
X116870230Y-74806000D01*
X116870219Y-74805995D01*
X116654701Y-74732007D01*
X116429935Y-74694500D01*
X116202065Y-74694500D01*
X115977298Y-74732007D01*
X115761780Y-74805995D01*
X115761769Y-74806000D01*
X115561366Y-74914452D01*
X115535015Y-74934961D01*
X115535015Y-74934963D01*
X116187883Y-75587830D01*
X116175108Y-75589667D01*
X116045631Y-75648798D01*
X115938057Y-75742011D01*
X115861102Y-75861755D01*
X115836951Y-75944004D01*
X115182874Y-75289927D01*
X115102579Y-75412830D01*
X115011045Y-75621506D01*
X114955105Y-75842406D01*
X114955103Y-75842414D01*
X114936288Y-76069493D01*
X114936288Y-76069506D01*
X114955103Y-76296585D01*
X114955105Y-76296593D01*
X115011045Y-76517493D01*
X115102579Y-76726169D01*
X115154214Y-76805203D01*
X115174402Y-76872093D01*
X115155221Y-76939278D01*
X115102762Y-76985428D01*
X115060134Y-76996642D01*
X114821446Y-77015427D01*
X114582912Y-77072693D01*
X114356269Y-77166571D01*
X114147106Y-77294746D01*
X113960567Y-77454067D01*
X113801245Y-77640607D01*
X113801244Y-77640608D01*
X113723727Y-77767106D01*
X113671916Y-77813981D01*
X113602986Y-77825404D01*
X113538823Y-77797747D01*
X113512273Y-77767106D01*
X113434755Y-77640608D01*
X113434754Y-77640607D01*
X113434753Y-77640606D01*
X113434752Y-77640604D01*
X113275433Y-77454067D01*
X113088896Y-77294748D01*
X113085094Y-77292418D01*
X112879730Y-77166571D01*
X112653087Y-77072693D01*
X112414553Y-77015427D01*
X112414554Y-77015427D01*
X112176012Y-76996654D01*
X112110724Y-76971770D01*
X112069253Y-76915539D01*
X112064766Y-76845814D01*
X112081930Y-76805217D01*
X112130922Y-76730230D01*
X112223023Y-76520261D01*
X112279308Y-76297997D01*
X112279309Y-76297988D01*
X112298242Y-76069505D01*
X112298242Y-76069494D01*
X112279309Y-75841011D01*
X112279307Y-75840999D01*
X112223023Y-75618738D01*
X112130922Y-75408770D01*
X112005520Y-75216826D01*
X111979893Y-75188988D01*
X111850231Y-75048137D01*
X111850226Y-75048133D01*
X111850224Y-75048131D01*
X111669304Y-74907315D01*
X111669293Y-74907308D01*
X111467656Y-74798188D01*
X111467653Y-74798186D01*
X111467650Y-74798185D01*
X111467647Y-74798184D01*
X111467645Y-74798183D01*
X111250795Y-74723738D01*
X111024640Y-74686000D01*
X110795360Y-74686000D01*
X110569204Y-74723738D01*
X110352354Y-74798183D01*
X110352343Y-74798188D01*
X110150706Y-74907308D01*
X110150695Y-74907315D01*
X109969775Y-75048131D01*
X109969772Y-75048134D01*
X109969769Y-75048136D01*
X109969769Y-75048137D01*
X109967815Y-75050260D01*
X109814479Y-75216826D01*
X109689077Y-75408770D01*
X109596976Y-75618738D01*
X109540692Y-75840999D01*
X109540690Y-75841011D01*
X109521758Y-76069494D01*
X109521758Y-76069505D01*
X109540691Y-76297993D01*
X109573370Y-76427040D01*
X109570745Y-76496860D01*
X109543560Y-76542360D01*
X109517816Y-76569776D01*
X109517812Y-76569781D01*
X109507979Y-76587667D01*
X109497303Y-76603920D01*
X109484786Y-76620057D01*
X109484785Y-76620060D01*
X109467185Y-76660729D01*
X109462048Y-76671215D01*
X109440703Y-76710041D01*
X109440703Y-76710042D01*
X109435625Y-76729820D01*
X109429325Y-76748222D01*
X109421218Y-76766957D01*
X109414288Y-76810709D01*
X109411920Y-76822145D01*
X109400900Y-76865065D01*
X109400900Y-76885484D01*
X109399373Y-76904883D01*
X109396635Y-76922173D01*
X109396180Y-76925043D01*
X109397235Y-76936201D01*
X109400350Y-76969157D01*
X109400900Y-76980826D01*
X109400900Y-79700666D01*
X109381215Y-79767705D01*
X109364581Y-79788347D01*
X109297081Y-79855847D01*
X109235758Y-79889332D01*
X109166066Y-79884348D01*
X109121719Y-79855847D01*
X109024558Y-79758686D01*
X109021433Y-79756797D01*
X108877313Y-79669673D01*
X108713049Y-79618487D01*
X108713047Y-79618486D01*
X108713045Y-79618486D01*
X108663067Y-79613944D01*
X108641665Y-79612000D01*
X108641662Y-79612000D01*
X108127127Y-79612000D01*
X108055754Y-79618485D01*
X108055744Y-79618488D01*
X107891490Y-79669671D01*
X107744243Y-79758685D01*
X107622581Y-79880348D01*
X107609402Y-79902150D01*
X107557874Y-79949337D01*
X107503285Y-79962000D01*
X106253729Y-79962000D01*
X106186690Y-79942315D01*
X106140935Y-79889511D01*
X106130991Y-79820353D01*
X106160016Y-79756797D01*
X106173192Y-79743714D01*
X106265433Y-79664933D01*
X106424752Y-79478396D01*
X106552927Y-79269232D01*
X106554946Y-79264359D01*
X106572081Y-79222991D01*
X106646805Y-79042592D01*
X106704072Y-78804057D01*
X106723319Y-78559500D01*
X106704072Y-78314943D01*
X106646805Y-78076408D01*
X106579082Y-77912911D01*
X106552928Y-77849769D01*
X106422206Y-77636449D01*
X106423316Y-77635768D01*
X106401840Y-77575582D01*
X106417664Y-77507528D01*
X106467768Y-77458832D01*
X106518927Y-77446161D01*
X106518825Y-77444924D01*
X106523927Y-77444501D01*
X106748701Y-77406992D01*
X106964219Y-77333004D01*
X106964230Y-77332999D01*
X107164627Y-77224550D01*
X107164633Y-77224546D01*
X107190983Y-77204037D01*
X107190984Y-77204036D01*
X106538116Y-76551169D01*
X106550892Y-76549333D01*
X106680369Y-76490202D01*
X106787943Y-76396989D01*
X106864898Y-76277245D01*
X106889048Y-76194996D01*
X107543123Y-76849071D01*
X107623419Y-76726171D01*
X107714954Y-76517493D01*
X107770894Y-76296593D01*
X107770896Y-76296585D01*
X107789712Y-76069506D01*
X107789712Y-76069493D01*
X107770896Y-75842414D01*
X107770894Y-75842406D01*
X107714954Y-75621506D01*
X107623421Y-75412833D01*
X107543123Y-75289927D01*
X106889048Y-75944003D01*
X106864898Y-75861755D01*
X106787943Y-75742011D01*
X106680369Y-75648798D01*
X106550892Y-75589667D01*
X106538117Y-75587830D01*
X107190983Y-74934962D01*
X107164626Y-74914448D01*
X106964230Y-74806000D01*
X106964219Y-74805995D01*
X106748701Y-74732007D01*
X106523935Y-74694500D01*
X106296065Y-74694500D01*
X106071298Y-74732007D01*
X105855780Y-74805995D01*
X105855769Y-74806000D01*
X105655366Y-74914452D01*
X105629015Y-74934961D01*
X105629015Y-74934963D01*
X106281883Y-75587830D01*
X106269108Y-75589667D01*
X106139631Y-75648798D01*
X106032057Y-75742011D01*
X105955102Y-75861755D01*
X105930951Y-75944004D01*
X105276874Y-75289927D01*
X105196579Y-75412830D01*
X105105045Y-75621506D01*
X105049105Y-75842406D01*
X105049103Y-75842414D01*
X105030288Y-76069493D01*
X105030288Y-76069506D01*
X105049103Y-76296585D01*
X105049105Y-76296593D01*
X105105045Y-76517493D01*
X105196579Y-76726169D01*
X105248214Y-76805203D01*
X105268402Y-76872093D01*
X105249221Y-76939278D01*
X105196762Y-76985428D01*
X105154134Y-76996642D01*
X104915446Y-77015427D01*
X104676912Y-77072693D01*
X104450269Y-77166571D01*
X104241106Y-77294746D01*
X104054567Y-77454067D01*
X103895245Y-77640607D01*
X103895244Y-77640608D01*
X103817727Y-77767106D01*
X103765916Y-77813981D01*
X103696986Y-77825404D01*
X103632823Y-77797747D01*
X103606273Y-77767106D01*
X103528755Y-77640608D01*
X103528754Y-77640607D01*
X103528753Y-77640606D01*
X103528752Y-77640604D01*
X103369433Y-77454067D01*
X103182896Y-77294748D01*
X103179094Y-77292418D01*
X102973730Y-77166571D01*
X102747087Y-77072693D01*
X102508553Y-77015427D01*
X102508554Y-77015427D01*
X102270012Y-76996654D01*
X102204724Y-76971770D01*
X102163253Y-76915539D01*
X102158766Y-76845814D01*
X102175930Y-76805217D01*
X102224922Y-76730230D01*
X102317023Y-76520261D01*
X102373308Y-76297997D01*
X102373309Y-76297988D01*
X102392242Y-76069505D01*
X102392242Y-76069494D01*
X102373309Y-75841011D01*
X102373307Y-75840999D01*
X102317023Y-75618738D01*
X102224922Y-75408770D01*
X102099520Y-75216826D01*
X102073893Y-75188988D01*
X101944231Y-75048137D01*
X101944226Y-75048133D01*
X101944224Y-75048131D01*
X101763304Y-74907315D01*
X101763293Y-74907308D01*
X101561656Y-74798188D01*
X101561653Y-74798186D01*
X101561650Y-74798185D01*
X101561647Y-74798184D01*
X101561645Y-74798183D01*
X101344795Y-74723738D01*
X101118640Y-74686000D01*
X100889360Y-74686000D01*
X100663204Y-74723738D01*
X100446354Y-74798183D01*
X100446343Y-74798188D01*
X100244706Y-74907308D01*
X100244695Y-74907315D01*
X100063775Y-75048131D01*
X100063772Y-75048134D01*
X100063769Y-75048136D01*
X100063769Y-75048137D01*
X100061815Y-75050260D01*
X99908479Y-75216826D01*
X99783077Y-75408770D01*
X99690976Y-75618738D01*
X99634692Y-75840999D01*
X99634690Y-75841011D01*
X99615758Y-76069494D01*
X99615758Y-76069505D01*
X99634690Y-76297988D01*
X99634692Y-76298000D01*
X99690976Y-76520261D01*
X99783077Y-76730229D01*
X99908479Y-76922173D01*
X99908482Y-76922176D01*
X100063769Y-77090863D01*
X100063772Y-77090865D01*
X100063775Y-77090868D01*
X100244695Y-77231684D01*
X100244702Y-77231688D01*
X100244704Y-77231690D01*
X100446350Y-77340815D01*
X100663207Y-77415262D01*
X100889360Y-77453000D01*
X100892794Y-77453000D01*
X100894146Y-77453397D01*
X100894471Y-77453424D01*
X100894465Y-77453490D01*
X100959833Y-77472685D01*
X101005588Y-77525489D01*
X101015532Y-77594647D01*
X100998523Y-77641786D01*
X100954725Y-77713260D01*
X100871070Y-77849772D01*
X100777193Y-78076412D01*
X100719927Y-78314945D01*
X100700681Y-78559500D01*
X100719927Y-78804054D01*
X100758459Y-78964553D01*
X100754968Y-79034336D01*
X100714304Y-79091153D01*
X100649377Y-79116966D01*
X100637885Y-79117500D01*
X99309529Y-79117500D01*
X99293786Y-79115761D01*
X99293761Y-79116033D01*
X99285993Y-79115298D01*
X99217901Y-79117439D01*
X99214006Y-79117500D01*
X99186043Y-79117500D01*
X99181931Y-79118019D01*
X99170302Y-79118934D01*
X99126011Y-79120326D01*
X99126008Y-79120327D01*
X99106405Y-79126022D01*
X99087359Y-79129966D01*
X99067103Y-79132526D01*
X99067101Y-79132526D01*
X99067099Y-79132527D01*
X99025898Y-79148839D01*
X99014851Y-79152621D01*
X98972306Y-79164982D01*
X98954733Y-79175374D01*
X98937270Y-79183929D01*
X98918285Y-79191446D01*
X98918284Y-79191447D01*
X98882443Y-79217487D01*
X98872681Y-79223899D01*
X98834537Y-79246458D01*
X98820096Y-79260898D01*
X98805308Y-79273527D01*
X98788797Y-79285523D01*
X98788792Y-79285528D01*
X98760552Y-79319663D01*
X98752692Y-79328301D01*
X98505312Y-79575681D01*
X98443989Y-79609166D01*
X98417631Y-79612000D01*
X98124127Y-79612000D01*
X98052754Y-79618485D01*
X98052744Y-79618488D01*
X97888490Y-79669671D01*
X97741243Y-79758685D01*
X97619581Y-79880348D01*
X97606402Y-79902150D01*
X97554874Y-79949337D01*
X97500285Y-79962000D01*
X97124932Y-79962000D01*
X97109180Y-79960260D01*
X97109155Y-79960532D01*
X97101393Y-79959798D01*
X97101392Y-79959798D01*
X97078038Y-79960532D01*
X97033270Y-79961939D01*
X97029375Y-79962000D01*
X97001444Y-79962000D01*
X97001441Y-79962000D01*
X97001425Y-79962001D01*
X96997332Y-79962518D01*
X96985704Y-79963433D01*
X96941410Y-79964825D01*
X96941409Y-79964826D01*
X96921796Y-79970523D01*
X96902759Y-79974465D01*
X96882508Y-79977024D01*
X96882502Y-79977026D01*
X96841314Y-79993332D01*
X96830271Y-79997113D01*
X96787705Y-80009481D01*
X96787701Y-80009483D01*
X96770127Y-80019876D01*
X96752662Y-80028432D01*
X96733687Y-80035945D01*
X96733685Y-80035946D01*
X96697839Y-80061989D01*
X96688080Y-80068399D01*
X96649935Y-80090959D01*
X96635500Y-80105394D01*
X96620712Y-80118025D01*
X96604194Y-80130026D01*
X96604188Y-80130033D01*
X96575942Y-80164174D01*
X96568083Y-80172811D01*
X95182026Y-81558867D01*
X95120703Y-81592352D01*
X95051011Y-81587368D01*
X94996874Y-81547837D01*
X94988043Y-81536608D01*
X94955433Y-81495140D01*
X94940201Y-81481941D01*
X94795447Y-81356510D01*
X94795436Y-81356502D01*
X94612109Y-81250660D01*
X94612108Y-81250659D01*
X94612107Y-81250659D01*
X94498309Y-81211273D01*
X94412053Y-81181419D01*
X94334238Y-81170231D01*
X94202509Y-81151291D01*
X94202506Y-81151291D01*
X94172287Y-81152730D01*
X93991051Y-81161364D01*
X93931521Y-81175806D01*
X93785324Y-81211273D01*
X93785322Y-81211273D01*
X93592754Y-81299215D01*
X93592748Y-81299219D01*
X93420314Y-81422008D01*
X93420308Y-81422014D01*
X93274218Y-81575229D01*
X93159771Y-81753313D01*
X93081088Y-81949852D01*
X93046835Y-82127576D01*
X93041025Y-82157723D01*
X93041025Y-83116375D01*
X93055069Y-83263453D01*
X93055629Y-83269313D01*
X93042405Y-83337920D01*
X92994190Y-83388487D01*
X92932190Y-83405100D01*
X92822783Y-83405100D01*
X92755744Y-83385415D01*
X92709989Y-83332611D01*
X92700045Y-83263453D01*
X92701024Y-83257633D01*
X92718025Y-83169421D01*
X92718025Y-82210774D01*
X92713116Y-82159362D01*
X92702944Y-82052833D01*
X92643302Y-81849710D01*
X92546296Y-81661546D01*
X92415433Y-81495140D01*
X92400201Y-81481941D01*
X92255447Y-81356510D01*
X92255436Y-81356502D01*
X92072109Y-81250660D01*
X92072108Y-81250659D01*
X92072107Y-81250659D01*
X91958309Y-81211273D01*
X91872053Y-81181419D01*
X91794238Y-81170231D01*
X91662509Y-81151291D01*
X91662506Y-81151291D01*
X91632287Y-81152730D01*
X91451051Y-81161364D01*
X91354208Y-81184857D01*
X91284418Y-81181533D01*
X91227504Y-81141005D01*
X91201536Y-81076140D01*
X91206590Y-81027462D01*
X91215413Y-80999149D01*
X91221900Y-80927765D01*
X91221899Y-80263236D01*
X91221899Y-80263235D01*
X91221899Y-80263227D01*
X91215414Y-80191854D01*
X91215411Y-80191844D01*
X91164228Y-80027590D01*
X91164227Y-80027589D01*
X91164227Y-80027587D01*
X91075216Y-79880345D01*
X91075214Y-79880343D01*
X91075213Y-79880341D01*
X90983219Y-79788347D01*
X90949734Y-79727024D01*
X90946900Y-79700666D01*
X90946900Y-79643160D01*
X90966585Y-79576121D01*
X91019389Y-79530366D01*
X91088547Y-79520422D01*
X91152103Y-79549447D01*
X91165186Y-79562624D01*
X91252567Y-79664933D01*
X91439104Y-79824252D01*
X91439106Y-79824253D01*
X91648269Y-79952428D01*
X91755108Y-79996682D01*
X91874908Y-80046305D01*
X92113443Y-80103572D01*
X92358000Y-80122819D01*
X92602557Y-80103572D01*
X92841092Y-80046305D01*
X93043370Y-79962518D01*
X93067730Y-79952428D01*
X93090684Y-79938362D01*
X93276896Y-79824252D01*
X93463433Y-79664933D01*
X93622752Y-79478396D01*
X93700272Y-79351893D01*
X93752084Y-79305018D01*
X93821014Y-79293595D01*
X93885177Y-79321252D01*
X93911728Y-79351894D01*
X93989245Y-79478392D01*
X93989248Y-79478396D01*
X94148567Y-79664933D01*
X94335104Y-79824252D01*
X94335106Y-79824253D01*
X94544269Y-79952428D01*
X94651108Y-79996682D01*
X94770908Y-80046305D01*
X95009443Y-80103572D01*
X95254000Y-80122819D01*
X95498557Y-80103572D01*
X95737092Y-80046305D01*
X95939370Y-79962518D01*
X95963730Y-79952428D01*
X95986684Y-79938362D01*
X96172896Y-79824252D01*
X96359433Y-79664933D01*
X96518752Y-79478396D01*
X96646927Y-79269232D01*
X96648946Y-79264359D01*
X96666081Y-79222991D01*
X96740805Y-79042592D01*
X96798072Y-78804057D01*
X96817319Y-78559500D01*
X96798072Y-78314943D01*
X96740805Y-78076408D01*
X96673082Y-77912911D01*
X96646928Y-77849769D01*
X96516206Y-77636449D01*
X96517316Y-77635768D01*
X96495840Y-77575582D01*
X96511664Y-77507528D01*
X96561768Y-77458832D01*
X96612927Y-77446161D01*
X96612825Y-77444924D01*
X96617927Y-77444501D01*
X96842701Y-77406992D01*
X97058219Y-77333004D01*
X97058230Y-77332999D01*
X97258627Y-77224550D01*
X97258633Y-77224546D01*
X97284983Y-77204037D01*
X97284984Y-77204036D01*
X96632116Y-76551169D01*
X96644892Y-76549333D01*
X96774369Y-76490202D01*
X96881943Y-76396989D01*
X96958898Y-76277245D01*
X96983048Y-76194996D01*
X97637123Y-76849071D01*
X97717419Y-76726171D01*
X97808954Y-76517493D01*
X97864894Y-76296593D01*
X97864896Y-76296585D01*
X97883712Y-76069506D01*
X97883712Y-76069493D01*
X97864896Y-75842414D01*
X97864894Y-75842406D01*
X97808954Y-75621506D01*
X97717421Y-75412833D01*
X97637123Y-75289927D01*
X96983048Y-75944003D01*
X96958898Y-75861755D01*
X96881943Y-75742011D01*
X96774369Y-75648798D01*
X96644892Y-75589667D01*
X96632117Y-75587830D01*
X97284983Y-74934962D01*
X97258626Y-74914448D01*
X97058230Y-74806000D01*
X97058219Y-74805995D01*
X96842701Y-74732007D01*
X96617935Y-74694500D01*
X96390065Y-74694500D01*
X96165298Y-74732007D01*
X95949780Y-74805995D01*
X95949769Y-74806000D01*
X95749366Y-74914452D01*
X95723015Y-74934961D01*
X95723015Y-74934963D01*
X96375883Y-75587830D01*
X96363108Y-75589667D01*
X96233631Y-75648798D01*
X96126057Y-75742011D01*
X96049102Y-75861755D01*
X96024951Y-75944004D01*
X95370874Y-75289927D01*
X95290579Y-75412830D01*
X95199045Y-75621506D01*
X95143105Y-75842406D01*
X95143103Y-75842414D01*
X95124288Y-76069493D01*
X95124288Y-76069506D01*
X95143103Y-76296585D01*
X95143105Y-76296593D01*
X95199045Y-76517493D01*
X95290579Y-76726169D01*
X95342214Y-76805203D01*
X95362402Y-76872093D01*
X95343221Y-76939278D01*
X95290762Y-76985428D01*
X95248134Y-76996642D01*
X95009446Y-77015427D01*
X94770912Y-77072693D01*
X94544269Y-77166571D01*
X94335106Y-77294746D01*
X94148567Y-77454067D01*
X93989245Y-77640607D01*
X93989244Y-77640608D01*
X93911727Y-77767106D01*
X93859916Y-77813981D01*
X93790986Y-77825404D01*
X93726823Y-77797747D01*
X93700273Y-77767106D01*
X93622755Y-77640608D01*
X93622754Y-77640607D01*
X93622753Y-77640606D01*
X93622752Y-77640604D01*
X93463433Y-77454067D01*
X93276896Y-77294748D01*
X93273094Y-77292418D01*
X93067730Y-77166571D01*
X92841087Y-77072693D01*
X92602553Y-77015427D01*
X92602554Y-77015427D01*
X92364012Y-76996654D01*
X92298724Y-76971770D01*
X92257253Y-76915539D01*
X92252766Y-76845814D01*
X92269930Y-76805217D01*
X92318922Y-76730230D01*
X92411023Y-76520261D01*
X92467308Y-76297997D01*
X92467309Y-76297988D01*
X92486242Y-76069505D01*
X92486242Y-76069494D01*
X92467309Y-75841011D01*
X92467307Y-75840999D01*
X92411023Y-75618738D01*
X92318922Y-75408770D01*
X92193520Y-75216826D01*
X92167893Y-75188988D01*
X92038231Y-75048137D01*
X92038226Y-75048133D01*
X92038224Y-75048131D01*
X91857304Y-74907315D01*
X91857293Y-74907308D01*
X91655656Y-74798188D01*
X91655653Y-74798186D01*
X91655650Y-74798185D01*
X91655647Y-74798184D01*
X91655645Y-74798183D01*
X91438795Y-74723738D01*
X91212640Y-74686000D01*
X90983360Y-74686000D01*
X90757204Y-74723738D01*
X90540354Y-74798183D01*
X90540343Y-74798188D01*
X90338706Y-74907308D01*
X90338695Y-74907315D01*
X90157775Y-75048131D01*
X90157772Y-75048134D01*
X90157769Y-75048136D01*
X90157769Y-75048137D01*
X90155815Y-75050260D01*
X90002479Y-75216826D01*
X89877077Y-75408770D01*
X89784976Y-75618738D01*
X89728692Y-75840999D01*
X89728690Y-75841011D01*
X89709758Y-76069494D01*
X89709758Y-76069505D01*
X89728691Y-76297993D01*
X89768193Y-76453986D01*
X89765567Y-76523807D01*
X89761789Y-76533672D01*
X89746187Y-76569726D01*
X89741048Y-76580215D01*
X89719703Y-76619041D01*
X89719703Y-76619042D01*
X89714625Y-76638820D01*
X89708325Y-76657222D01*
X89700218Y-76675957D01*
X89693288Y-76719709D01*
X89690920Y-76731145D01*
X89679900Y-76774065D01*
X89679900Y-76794484D01*
X89678373Y-76813883D01*
X89675180Y-76834041D01*
X89675180Y-76834042D01*
X89679350Y-76878157D01*
X89679900Y-76889826D01*
X89679900Y-79700666D01*
X89660215Y-79767705D01*
X89643581Y-79788347D01*
X89576081Y-79855847D01*
X89514758Y-79889332D01*
X89445066Y-79884348D01*
X89400719Y-79855847D01*
X89303558Y-79758686D01*
X89300433Y-79756797D01*
X89156313Y-79669673D01*
X88992049Y-79618487D01*
X88992047Y-79618486D01*
X88992045Y-79618486D01*
X88942067Y-79613944D01*
X88920665Y-79612000D01*
X88920662Y-79612000D01*
X88406127Y-79612000D01*
X88334754Y-79618485D01*
X88334744Y-79618488D01*
X88170490Y-79669671D01*
X88023241Y-79758686D01*
X87901586Y-79880341D01*
X87812573Y-80027586D01*
X87761386Y-80191854D01*
X87754900Y-80263237D01*
X87754900Y-80927772D01*
X87761385Y-80999145D01*
X87761388Y-80999155D01*
X87812571Y-81163409D01*
X87812572Y-81163411D01*
X87812573Y-81163413D01*
X87887435Y-81287250D01*
X87901586Y-81310658D01*
X88023241Y-81432313D01*
X88023243Y-81432314D01*
X88023245Y-81432316D01*
X88081976Y-81467820D01*
X88103456Y-81480805D01*
X88150644Y-81532333D01*
X88162482Y-81601193D01*
X88143622Y-81653961D01*
X88079769Y-81753317D01*
X88001088Y-81949852D01*
X87966835Y-82127576D01*
X87961025Y-82157723D01*
X87961025Y-83116375D01*
X87975069Y-83263453D01*
X87975629Y-83269313D01*
X87962405Y-83337920D01*
X87914190Y-83388487D01*
X87852190Y-83405100D01*
X87742783Y-83405100D01*
X87675744Y-83385415D01*
X87629989Y-83332611D01*
X87620045Y-83263453D01*
X87621024Y-83257633D01*
X87638025Y-83169421D01*
X87638025Y-82210774D01*
X87633116Y-82159362D01*
X87622944Y-82052833D01*
X87563302Y-81849710D01*
X87466296Y-81661546D01*
X87335433Y-81495140D01*
X87320201Y-81481941D01*
X87175447Y-81356510D01*
X87175436Y-81356502D01*
X86992109Y-81250660D01*
X86992108Y-81250659D01*
X86992107Y-81250659D01*
X86878309Y-81211273D01*
X86792053Y-81181419D01*
X86714238Y-81170231D01*
X86582509Y-81151291D01*
X86582506Y-81151291D01*
X86552287Y-81152730D01*
X86371051Y-81161364D01*
X86311521Y-81175806D01*
X86165324Y-81211273D01*
X86165322Y-81211273D01*
X85972754Y-81299215D01*
X85972748Y-81299219D01*
X85800314Y-81422008D01*
X85800308Y-81422014D01*
X85654218Y-81575229D01*
X85539771Y-81753313D01*
X85461088Y-81949852D01*
X85426835Y-82127576D01*
X85421025Y-82157723D01*
X85421025Y-83116375D01*
X85435069Y-83263453D01*
X85435629Y-83269313D01*
X85422405Y-83337920D01*
X85374190Y-83388487D01*
X85312190Y-83405100D01*
X85202783Y-83405100D01*
X85135744Y-83385415D01*
X85089989Y-83332611D01*
X85080045Y-83263453D01*
X85081024Y-83257633D01*
X85098025Y-83169421D01*
X85098025Y-82210774D01*
X85093116Y-82159362D01*
X85082944Y-82052833D01*
X85023302Y-81849710D01*
X84926296Y-81661546D01*
X84795433Y-81495140D01*
X84780201Y-81481941D01*
X84635447Y-81356510D01*
X84635436Y-81356502D01*
X84452109Y-81250660D01*
X84452108Y-81250659D01*
X84452107Y-81250659D01*
X84338309Y-81211273D01*
X84252053Y-81181419D01*
X84174238Y-81170231D01*
X84042509Y-81151291D01*
X84042506Y-81151291D01*
X84012287Y-81152730D01*
X83831051Y-81161364D01*
X83771521Y-81175806D01*
X83625324Y-81211273D01*
X83625322Y-81211273D01*
X83432754Y-81299215D01*
X83432748Y-81299219D01*
X83260314Y-81422008D01*
X83260308Y-81422014D01*
X83114218Y-81575229D01*
X82999771Y-81753313D01*
X82921088Y-81949852D01*
X82886835Y-82127576D01*
X82881025Y-82157723D01*
X82881025Y-83116375D01*
X82896106Y-83274311D01*
X82955748Y-83477434D01*
X83052754Y-83665598D01*
X83183613Y-83831999D01*
X83183619Y-83832006D01*
X83343602Y-83970633D01*
X83343613Y-83970641D01*
X83440942Y-84026833D01*
X83526943Y-84076485D01*
X83608349Y-84104660D01*
X83665263Y-84145189D01*
X83691231Y-84210054D01*
X83678007Y-84278661D01*
X83655473Y-84309521D01*
X80938179Y-87026814D01*
X80925820Y-87036718D01*
X80925993Y-87036927D01*
X80919982Y-87041900D01*
X80873338Y-87091569D01*
X80870633Y-87094360D01*
X80850873Y-87114121D01*
X80850858Y-87114138D01*
X80848317Y-87117413D01*
X80840753Y-87126267D01*
X80810420Y-87158571D01*
X80810412Y-87158581D01*
X80800579Y-87176467D01*
X80789903Y-87192720D01*
X80777386Y-87208857D01*
X80777385Y-87208860D01*
X80759785Y-87249529D01*
X80754648Y-87260015D01*
X80733303Y-87298841D01*
X80733303Y-87298842D01*
X80728225Y-87318620D01*
X80721925Y-87337022D01*
X80713818Y-87355757D01*
X80706888Y-87399509D01*
X80704520Y-87410945D01*
X80693500Y-87453865D01*
X80693500Y-87474284D01*
X80691973Y-87493683D01*
X80688780Y-87513841D01*
X80688780Y-87513842D01*
X80692950Y-87557957D01*
X80693500Y-87569626D01*
X80693500Y-90318266D01*
X80691761Y-90334013D01*
X80692032Y-90334039D01*
X80691298Y-90341805D01*
X80693439Y-90409916D01*
X80693500Y-90413812D01*
X80693500Y-90441759D01*
X80694018Y-90445858D01*
X80694934Y-90457498D01*
X80696326Y-90501789D01*
X80696327Y-90501791D01*
X80702022Y-90521395D01*
X80705967Y-90540442D01*
X80708526Y-90560697D01*
X80708527Y-90560700D01*
X80708528Y-90560704D01*
X80724838Y-90601900D01*
X80728621Y-90612949D01*
X80740981Y-90655492D01*
X80751372Y-90673062D01*
X80759932Y-90690535D01*
X80767447Y-90709517D01*
X80793491Y-90745363D01*
X80799905Y-90755127D01*
X80810439Y-90772939D01*
X80822458Y-90793262D01*
X80822462Y-90793266D01*
X80836889Y-90807693D01*
X80849526Y-90822488D01*
X80861528Y-90839007D01*
X80894207Y-90866042D01*
X80895668Y-90867250D01*
X80904309Y-90875113D01*
X81432281Y-91403085D01*
X81465766Y-91464408D01*
X81468600Y-91490766D01*
X81468600Y-93055393D01*
X81466404Y-93078628D01*
X81464825Y-93086903D01*
X81464825Y-93086906D01*
X81468355Y-93143014D01*
X81468600Y-93150800D01*
X81468600Y-93166862D01*
X81470612Y-93182788D01*
X81471343Y-93190535D01*
X81474875Y-93246650D01*
X81475673Y-93249107D01*
X81477479Y-93254663D01*
X81482570Y-93277437D01*
X81483625Y-93285794D01*
X81483627Y-93285800D01*
X81490624Y-93303473D01*
X81496998Y-93373051D01*
X81489136Y-93398354D01*
X81488918Y-93398857D01*
X81481988Y-93442609D01*
X81479620Y-93454046D01*
X81467493Y-93501280D01*
X81435069Y-93558125D01*
X79671179Y-95322014D01*
X79658820Y-95331918D01*
X79658993Y-95332127D01*
X79652982Y-95337100D01*
X79606337Y-95386770D01*
X79603632Y-95389561D01*
X79583873Y-95409321D01*
X79583858Y-95409338D01*
X79581317Y-95412613D01*
X79573753Y-95421467D01*
X79543420Y-95453771D01*
X79538832Y-95460087D01*
X79537275Y-95458956D01*
X79494979Y-95501000D01*
X79426661Y-95515646D01*
X79410101Y-95513280D01*
X79403869Y-95511955D01*
X79372087Y-95505200D01*
X79181113Y-95505200D01*
X78994314Y-95544905D01*
X78819846Y-95622583D01*
X78665345Y-95734835D01*
X78661351Y-95739272D01*
X78601864Y-95775921D01*
X78569201Y-95780300D01*
X78417931Y-95780300D01*
X78402179Y-95778560D01*
X78402154Y-95778832D01*
X78394392Y-95778098D01*
X78394391Y-95778098D01*
X78371037Y-95778832D01*
X78326269Y-95780239D01*
X78322374Y-95780300D01*
X78294444Y-95780300D01*
X78294441Y-95780300D01*
X78294425Y-95780301D01*
X78290332Y-95780818D01*
X78278704Y-95781733D01*
X78234413Y-95783125D01*
X78234407Y-95783126D01*
X78214800Y-95788822D01*
X78195761Y-95792765D01*
X78177049Y-95795130D01*
X78108070Y-95784007D01*
X78056055Y-95737357D01*
X78037500Y-95672109D01*
X78037500Y-95653401D01*
X77997487Y-95491061D01*
X77986236Y-95469625D01*
X77972511Y-95401119D01*
X77986237Y-95354373D01*
X77995303Y-95337100D01*
X77997487Y-95332939D01*
X78037500Y-95170599D01*
X78037500Y-95003401D01*
X77997487Y-94841061D01*
X77986236Y-94819625D01*
X77972511Y-94751119D01*
X77986237Y-94704373D01*
X77997487Y-94682939D01*
X78037500Y-94520599D01*
X78037500Y-94353401D01*
X77997487Y-94191061D01*
X77986236Y-94169625D01*
X77972511Y-94101119D01*
X77986237Y-94054373D01*
X77996130Y-94035524D01*
X77997487Y-94032939D01*
X78037500Y-93870599D01*
X78037500Y-93825624D01*
X78057185Y-93758585D01*
X78103592Y-93718372D01*
X78102775Y-93716991D01*
X78109491Y-93713018D01*
X78109493Y-93713018D01*
X78127065Y-93702625D01*
X78144532Y-93694068D01*
X78163517Y-93686552D01*
X78199361Y-93660508D01*
X78209130Y-93654092D01*
X78247262Y-93631542D01*
X78261702Y-93617100D01*
X78276492Y-93604470D01*
X78293007Y-93592472D01*
X78321259Y-93558319D01*
X78329103Y-93549699D01*
X78722115Y-93156687D01*
X78734480Y-93146783D01*
X78734306Y-93146573D01*
X78740312Y-93141603D01*
X78740318Y-93141600D01*
X78787006Y-93091880D01*
X78789655Y-93089147D01*
X78809435Y-93069369D01*
X78811970Y-93066099D01*
X78819559Y-93057215D01*
X78838963Y-93036552D01*
X78849886Y-93024921D01*
X78859720Y-93007030D01*
X78870398Y-92990774D01*
X78882914Y-92974640D01*
X78900509Y-92933978D01*
X78905650Y-92923485D01*
X78913979Y-92908336D01*
X78926995Y-92884660D01*
X78932074Y-92864874D01*
X78938372Y-92846482D01*
X78946481Y-92827745D01*
X78953413Y-92783972D01*
X78955778Y-92772553D01*
X78966800Y-92729630D01*
X78966800Y-92709215D01*
X78968327Y-92689814D01*
X78971520Y-92669657D01*
X78967350Y-92625542D01*
X78966800Y-92613873D01*
X78966800Y-89567832D01*
X78968539Y-89552080D01*
X78968268Y-89552055D01*
X78969000Y-89544299D01*
X78969002Y-89544292D01*
X78966861Y-89476168D01*
X78966800Y-89472273D01*
X78966800Y-89444347D01*
X78966456Y-89441624D01*
X78966282Y-89440247D01*
X78965365Y-89428598D01*
X78963974Y-89384313D01*
X78963974Y-89384311D01*
X78958274Y-89364692D01*
X78954331Y-89345646D01*
X78951774Y-89325404D01*
X78951774Y-89325403D01*
X78935456Y-89284190D01*
X78931686Y-89273175D01*
X78919319Y-89230607D01*
X78908920Y-89213024D01*
X78900366Y-89195563D01*
X78892852Y-89176583D01*
X78866808Y-89140737D01*
X78860398Y-89130978D01*
X78837842Y-89092838D01*
X78823408Y-89078404D01*
X78810771Y-89063609D01*
X78798772Y-89047093D01*
X78798769Y-89047091D01*
X78798769Y-89047090D01*
X78764625Y-89018843D01*
X78755985Y-89010981D01*
X75128888Y-85383883D01*
X75118987Y-85371523D01*
X75118777Y-85371698D01*
X75113801Y-85365684D01*
X75113800Y-85365682D01*
X75064115Y-85319025D01*
X75061350Y-85316345D01*
X75041566Y-85296561D01*
X75038304Y-85294031D01*
X75029419Y-85286443D01*
X74997121Y-85256114D01*
X74997119Y-85256112D01*
X74979231Y-85246278D01*
X74962970Y-85235597D01*
X74946839Y-85223084D01*
X74906175Y-85205488D01*
X74895685Y-85200349D01*
X74856860Y-85179005D01*
X74856856Y-85179004D01*
X74837087Y-85173928D01*
X74818681Y-85167626D01*
X74799944Y-85159518D01*
X74799945Y-85159518D01*
X74756183Y-85152587D01*
X74744747Y-85150219D01*
X74729993Y-85146431D01*
X74701832Y-85139200D01*
X74701830Y-85139200D01*
X74681416Y-85139200D01*
X74662017Y-85137673D01*
X74641858Y-85134480D01*
X74641857Y-85134480D01*
X74597743Y-85138650D01*
X74586074Y-85139200D01*
X57297309Y-85139200D01*
X57230270Y-85119515D01*
X57205160Y-85098173D01*
X57201254Y-85093835D01*
X57151196Y-85057465D01*
X57046752Y-84981582D01*
X56872288Y-84903906D01*
X56872286Y-84903905D01*
X56685487Y-84864200D01*
X56494513Y-84864200D01*
X56307714Y-84903905D01*
X56133246Y-84981583D01*
X55978745Y-85093835D01*
X55874038Y-85210125D01*
X55814551Y-85246774D01*
X55771082Y-85250681D01*
X55735025Y-85247526D01*
X55139076Y-85843474D01*
X55115493Y-85763156D01*
X55037761Y-85642202D01*
X54929100Y-85548048D01*
X54798315Y-85488320D01*
X54788533Y-85486913D01*
X55381472Y-84893974D01*
X55308478Y-84842863D01*
X55102331Y-84746735D01*
X55102317Y-84746730D01*
X54882610Y-84687860D01*
X54882599Y-84687858D01*
X54656002Y-84668034D01*
X54655998Y-84668034D01*
X54429400Y-84687858D01*
X54429389Y-84687860D01*
X54209682Y-84746730D01*
X54209673Y-84746734D01*
X54003516Y-84842866D01*
X54003512Y-84842868D01*
X53930526Y-84893973D01*
X53930526Y-84893974D01*
X54523466Y-85486913D01*
X54513685Y-85488320D01*
X54382900Y-85548048D01*
X54274239Y-85642202D01*
X54196507Y-85763156D01*
X54172923Y-85843475D01*
X53576974Y-85247526D01*
X53576973Y-85247526D01*
X53525868Y-85320512D01*
X53525866Y-85320516D01*
X53429734Y-85526673D01*
X53429730Y-85526682D01*
X53370860Y-85746389D01*
X53370858Y-85746400D01*
X53351034Y-85972997D01*
X53351034Y-85973002D01*
X53370858Y-86199599D01*
X53370860Y-86199610D01*
X53429730Y-86419317D01*
X53429734Y-86419326D01*
X53489780Y-86548095D01*
X53500272Y-86617172D01*
X53471752Y-86680957D01*
X53413276Y-86719196D01*
X53377398Y-86724500D01*
X53034352Y-86724500D01*
X52967313Y-86704815D01*
X52932779Y-86671626D01*
X52822198Y-86513700D01*
X52660300Y-86351802D01*
X52472749Y-86220477D01*
X52472745Y-86220475D01*
X52265249Y-86123718D01*
X52265238Y-86123714D01*
X52044089Y-86064457D01*
X52044081Y-86064456D01*
X51816002Y-86044502D01*
X51815998Y-86044502D01*
X51587918Y-86064456D01*
X51587910Y-86064457D01*
X51366761Y-86123714D01*
X51366750Y-86123718D01*
X51159254Y-86220475D01*
X51159252Y-86220476D01*
X51121671Y-86246791D01*
X50971700Y-86351802D01*
X50971698Y-86351803D01*
X50971695Y-86351806D01*
X50809806Y-86513695D01*
X50809803Y-86513698D01*
X50809802Y-86513700D01*
X50748742Y-86600902D01*
X50678476Y-86701252D01*
X50678475Y-86701254D01*
X50581718Y-86908750D01*
X50581714Y-86908761D01*
X50522457Y-87129910D01*
X50522456Y-87129918D01*
X50502502Y-87357998D01*
X50502502Y-87358001D01*
X50522456Y-87586081D01*
X50522457Y-87586089D01*
X50581714Y-87807238D01*
X50581718Y-87807249D01*
X50676815Y-88011185D01*
X50678477Y-88014749D01*
X50809802Y-88202300D01*
X50971700Y-88364198D01*
X51159251Y-88495523D01*
X51284091Y-88553736D01*
X51366750Y-88592281D01*
X51366752Y-88592281D01*
X51366757Y-88592284D01*
X51366764Y-88592286D01*
X51482230Y-88623225D01*
X51541890Y-88659590D01*
X51572419Y-88722437D01*
X51564124Y-88791813D01*
X51519639Y-88845691D01*
X51482230Y-88862775D01*
X51366761Y-88893714D01*
X51366750Y-88893718D01*
X51159254Y-88990475D01*
X51159252Y-88990476D01*
X51129968Y-89010981D01*
X50971700Y-89121802D01*
X50971698Y-89121803D01*
X50971695Y-89121806D01*
X50809806Y-89283695D01*
X50809803Y-89283698D01*
X50809802Y-89283700D01*
X50760654Y-89353890D01*
X50678476Y-89471252D01*
X50678475Y-89471254D01*
X50581718Y-89678750D01*
X50581714Y-89678761D01*
X50522457Y-89899910D01*
X50522456Y-89899918D01*
X50502502Y-90127998D01*
X50502502Y-90128001D01*
X50522456Y-90356081D01*
X50522457Y-90356089D01*
X50581714Y-90577238D01*
X50581718Y-90577249D01*
X50672969Y-90772938D01*
X50678477Y-90784749D01*
X50809802Y-90972300D01*
X50971700Y-91134198D01*
X51159251Y-91265523D01*
X51226542Y-91296901D01*
X51366750Y-91362281D01*
X51366752Y-91362281D01*
X51366757Y-91362284D01*
X51432071Y-91379785D01*
X51482230Y-91393225D01*
X51541890Y-91429590D01*
X51572419Y-91492437D01*
X51564124Y-91561813D01*
X51519639Y-91615691D01*
X51482230Y-91632774D01*
X51468934Y-91636337D01*
X51366761Y-91663714D01*
X51366750Y-91663718D01*
X51159254Y-91760475D01*
X51159252Y-91760476D01*
X51159251Y-91760477D01*
X50971700Y-91891802D01*
X50971698Y-91891803D01*
X50971695Y-91891806D01*
X50809806Y-92053695D01*
X50809803Y-92053698D01*
X50809802Y-92053700D01*
X50737381Y-92157128D01*
X50678476Y-92241252D01*
X50678475Y-92241254D01*
X50581718Y-92448750D01*
X50581714Y-92448761D01*
X50522457Y-92669910D01*
X50522456Y-92669918D01*
X50502502Y-92897998D01*
X50502502Y-92898001D01*
X50522456Y-93126081D01*
X50522457Y-93126089D01*
X50581714Y-93347238D01*
X50581718Y-93347249D01*
X50676117Y-93549688D01*
X50678477Y-93554749D01*
X50809802Y-93742300D01*
X50971700Y-93904198D01*
X51159251Y-94035523D01*
X51273545Y-94088819D01*
X51366750Y-94132281D01*
X51366752Y-94132281D01*
X51366757Y-94132284D01*
X51433403Y-94150142D01*
X51482230Y-94163225D01*
X51541890Y-94199590D01*
X51572419Y-94262437D01*
X51564124Y-94331813D01*
X51519639Y-94385691D01*
X51482230Y-94402775D01*
X51366761Y-94433714D01*
X51366750Y-94433718D01*
X51159254Y-94530475D01*
X51159252Y-94530476D01*
X51088856Y-94579767D01*
X50971700Y-94661802D01*
X50971698Y-94661803D01*
X50971695Y-94661806D01*
X50809806Y-94823695D01*
X50678476Y-95011252D01*
X50678475Y-95011254D01*
X50581718Y-95218750D01*
X50581714Y-95218761D01*
X50522457Y-95439910D01*
X50522456Y-95439918D01*
X50502502Y-95667998D01*
X50502502Y-95668001D01*
X50522456Y-95896081D01*
X50522457Y-95896089D01*
X50581714Y-96117238D01*
X50581718Y-96117249D01*
X50668522Y-96303401D01*
X50678477Y-96324749D01*
X50809802Y-96512300D01*
X50971700Y-96674198D01*
X51159251Y-96805523D01*
X51284091Y-96863736D01*
X51366750Y-96902281D01*
X51366752Y-96902281D01*
X51366757Y-96902284D01*
X51587913Y-96961543D01*
X51750832Y-96975796D01*
X51815998Y-96981498D01*
X51816000Y-96981498D01*
X51816002Y-96981498D01*
X51873021Y-96976509D01*
X52044087Y-96961543D01*
X52265243Y-96902284D01*
X52472749Y-96805523D01*
X52521176Y-96771614D01*
X52587382Y-96749286D01*
X52655149Y-96766296D01*
X52702962Y-96817243D01*
X52716300Y-96873188D01*
X52716300Y-97778966D01*
X52714561Y-97794713D01*
X52714832Y-97794739D01*
X52714098Y-97802505D01*
X52716239Y-97870616D01*
X52716300Y-97874512D01*
X52716300Y-97902459D01*
X52716818Y-97906558D01*
X52717734Y-97918198D01*
X52719126Y-97962489D01*
X52719127Y-97962491D01*
X52724822Y-97982095D01*
X52728767Y-98001142D01*
X52731326Y-98021397D01*
X52731327Y-98021400D01*
X52731328Y-98021404D01*
X52747638Y-98062600D01*
X52751421Y-98073649D01*
X52763781Y-98116192D01*
X52774172Y-98133762D01*
X52782732Y-98151235D01*
X52790247Y-98170217D01*
X52816291Y-98206063D01*
X52822705Y-98215827D01*
X52845258Y-98253962D01*
X52845262Y-98253966D01*
X52859688Y-98268392D01*
X52872325Y-98283187D01*
X52884328Y-98299707D01*
X52918472Y-98327954D01*
X52927110Y-98335815D01*
X53160013Y-98568718D01*
X53169922Y-98581085D01*
X53170132Y-98580912D01*
X53175101Y-98586920D01*
X53199588Y-98609914D01*
X53224786Y-98633575D01*
X53227551Y-98636256D01*
X53247323Y-98656029D01*
X53247327Y-98656032D01*
X53247330Y-98656035D01*
X53250612Y-98658581D01*
X53259472Y-98666149D01*
X53291779Y-98696486D01*
X53291781Y-98696487D01*
X53309662Y-98706317D01*
X53325929Y-98717002D01*
X53342060Y-98729515D01*
X53359003Y-98736846D01*
X53382725Y-98747110D01*
X53393204Y-98752244D01*
X53432040Y-98773595D01*
X53451816Y-98778672D01*
X53470223Y-98784974D01*
X53488955Y-98793081D01*
X53532730Y-98800013D01*
X53544145Y-98802378D01*
X53587070Y-98813400D01*
X53607484Y-98813400D01*
X53626883Y-98814927D01*
X53647043Y-98818120D01*
X53691157Y-98813950D01*
X53702826Y-98813400D01*
X56907966Y-98813400D01*
X56923713Y-98815138D01*
X56923739Y-98814868D01*
X56931505Y-98815601D01*
X56931509Y-98815602D01*
X56999617Y-98813460D01*
X57003513Y-98813400D01*
X57031458Y-98813400D01*
X57031460Y-98813399D01*
X57032862Y-98813222D01*
X57035549Y-98812883D01*
X57047208Y-98811964D01*
X57091489Y-98810573D01*
X57111081Y-98804880D01*
X57130138Y-98800932D01*
X57150397Y-98798374D01*
X57191606Y-98782057D01*
X57202643Y-98778279D01*
X57245193Y-98765918D01*
X57262765Y-98755525D01*
X57280232Y-98746968D01*
X57299217Y-98739452D01*
X57299219Y-98739450D01*
X57303957Y-98736846D01*
X57372187Y-98721796D01*
X57437722Y-98746022D01*
X57479755Y-98801834D01*
X57487700Y-98845505D01*
X57487700Y-98870566D01*
X57485961Y-98886313D01*
X57486232Y-98886339D01*
X57485498Y-98894105D01*
X57487639Y-98962216D01*
X57487700Y-98966112D01*
X57487700Y-98994059D01*
X57488218Y-98998158D01*
X57489134Y-99009798D01*
X57490526Y-99054089D01*
X57490527Y-99054091D01*
X57496222Y-99073695D01*
X57500167Y-99092742D01*
X57502726Y-99112997D01*
X57502727Y-99113000D01*
X57502728Y-99113004D01*
X57519038Y-99154200D01*
X57522821Y-99165249D01*
X57535181Y-99207792D01*
X57545572Y-99225362D01*
X57554132Y-99242835D01*
X57561647Y-99261817D01*
X57587691Y-99297663D01*
X57594105Y-99307427D01*
X57615565Y-99343714D01*
X57616658Y-99345562D01*
X57616662Y-99345566D01*
X57631089Y-99359993D01*
X57643726Y-99374788D01*
X57655728Y-99391307D01*
X57669697Y-99402863D01*
X57689868Y-99419550D01*
X57698509Y-99427413D01*
X57953014Y-99681919D01*
X57986499Y-99743242D01*
X57983719Y-99806488D01*
X57970988Y-99847344D01*
X57970987Y-99847350D01*
X57964500Y-99918737D01*
X57964500Y-100433272D01*
X57970985Y-100504645D01*
X57970988Y-100504655D01*
X58022171Y-100668909D01*
X58022172Y-100668911D01*
X58022173Y-100668913D01*
X58111184Y-100816155D01*
X58111186Y-100816158D01*
X58232841Y-100937813D01*
X58232843Y-100937814D01*
X58232845Y-100937816D01*
X58380087Y-101026827D01*
X58544351Y-101078013D01*
X58615735Y-101084500D01*
X58909233Y-101084499D01*
X58976272Y-101104183D01*
X58996914Y-101120818D01*
X59271867Y-101395771D01*
X59305352Y-101457094D01*
X59303239Y-101486638D01*
X59305000Y-101486638D01*
X59305000Y-103938000D01*
X59547500Y-103938000D01*
X59614539Y-103957685D01*
X59660294Y-104010489D01*
X59671500Y-104062000D01*
X59671500Y-105864000D01*
X59651815Y-105931039D01*
X59599011Y-105976794D01*
X59547500Y-105988000D01*
X59305000Y-105988000D01*
X59305000Y-108388000D01*
X59422500Y-108388000D01*
X59489539Y-108407685D01*
X59535294Y-108460489D01*
X59546500Y-108512000D01*
X59546500Y-109466654D01*
X59553011Y-109527202D01*
X59553011Y-109527206D01*
X59557442Y-109539084D01*
X59562426Y-109608775D01*
X59528940Y-109670098D01*
X59467617Y-109703582D01*
X59441459Y-109706416D01*
X46098199Y-109727800D01*
X46031128Y-109708223D01*
X45985288Y-109655492D01*
X45974000Y-109603800D01*
X45974000Y-107438000D01*
X57905000Y-107438000D01*
X57905000Y-107935844D01*
X57911401Y-107995372D01*
X57911403Y-107995379D01*
X57961645Y-108130086D01*
X57961649Y-108130093D01*
X58047809Y-108245187D01*
X58047812Y-108245190D01*
X58162906Y-108331350D01*
X58162913Y-108331354D01*
X58297620Y-108381596D01*
X58297627Y-108381598D01*
X58357155Y-108387999D01*
X58357172Y-108388000D01*
X58805000Y-108388000D01*
X58805000Y-107438000D01*
X57905000Y-107438000D01*
X45974000Y-107438000D01*
X45974000Y-106938000D01*
X57905000Y-106938000D01*
X58805000Y-106938000D01*
X58805000Y-105988000D01*
X58357155Y-105988000D01*
X58297627Y-105994401D01*
X58297620Y-105994403D01*
X58162913Y-106044645D01*
X58162906Y-106044649D01*
X58047812Y-106130809D01*
X58047809Y-106130812D01*
X57961649Y-106245906D01*
X57961645Y-106245913D01*
X57911403Y-106380620D01*
X57911401Y-106380627D01*
X57905000Y-106440155D01*
X57905000Y-106938000D01*
X45974000Y-106938000D01*
X45974000Y-104013005D01*
X51842540Y-104013005D01*
X51862357Y-104328012D01*
X51862359Y-104328020D01*
X51921505Y-104638072D01*
X51949501Y-104724235D01*
X52019044Y-104938267D01*
X52019046Y-104938272D01*
X52153436Y-105223865D01*
X52153442Y-105223876D01*
X52322561Y-105490365D01*
X52322563Y-105490368D01*
X52322568Y-105490375D01*
X52478845Y-105679281D01*
X52523772Y-105733588D01*
X52753858Y-105949652D01*
X52753868Y-105949660D01*
X53009209Y-106135176D01*
X53009214Y-106135178D01*
X53009221Y-106135184D01*
X53285821Y-106287247D01*
X53285826Y-106287249D01*
X53285828Y-106287250D01*
X53285829Y-106287251D01*
X53579294Y-106403442D01*
X53579297Y-106403443D01*
X53782382Y-106455586D01*
X53885025Y-106481940D01*
X53950717Y-106490238D01*
X54198167Y-106521499D01*
X54198176Y-106521499D01*
X54198179Y-106521500D01*
X54198181Y-106521500D01*
X54513819Y-106521500D01*
X54513821Y-106521500D01*
X54513824Y-106521499D01*
X54513832Y-106521499D01*
X54739480Y-106492993D01*
X54826975Y-106481940D01*
X55132702Y-106403443D01*
X55132705Y-106403442D01*
X55426170Y-106287251D01*
X55426171Y-106287250D01*
X55426169Y-106287250D01*
X55426179Y-106287247D01*
X55702779Y-106135184D01*
X55958140Y-105949654D01*
X56129257Y-105788963D01*
X56188227Y-105733588D01*
X56188228Y-105733586D01*
X56188233Y-105733582D01*
X56389432Y-105490375D01*
X56558562Y-105223869D01*
X56692956Y-104938266D01*
X56790495Y-104638072D01*
X56849641Y-104328020D01*
X56852675Y-104279806D01*
X56869460Y-104013005D01*
X56869460Y-104012994D01*
X56849642Y-103697987D01*
X56849641Y-103697980D01*
X56790495Y-103387928D01*
X56692956Y-103087734D01*
X56646025Y-102988000D01*
X57905000Y-102988000D01*
X57905000Y-103485844D01*
X57911401Y-103545372D01*
X57911403Y-103545379D01*
X57961645Y-103680086D01*
X57961649Y-103680093D01*
X58047809Y-103795187D01*
X58047812Y-103795190D01*
X58162906Y-103881350D01*
X58162913Y-103881354D01*
X58297620Y-103931596D01*
X58297627Y-103931598D01*
X58357155Y-103937999D01*
X58357172Y-103938000D01*
X58805000Y-103938000D01*
X58805000Y-102988000D01*
X57905000Y-102988000D01*
X56646025Y-102988000D01*
X56558562Y-102802131D01*
X56512814Y-102730044D01*
X56389438Y-102535634D01*
X56389436Y-102535632D01*
X56389432Y-102535625D01*
X56350033Y-102488000D01*
X57905000Y-102488000D01*
X58805000Y-102488000D01*
X58805000Y-101538000D01*
X58357155Y-101538000D01*
X58297627Y-101544401D01*
X58297620Y-101544403D01*
X58162913Y-101594645D01*
X58162906Y-101594649D01*
X58047812Y-101680809D01*
X58047809Y-101680812D01*
X57961649Y-101795906D01*
X57961645Y-101795913D01*
X57911403Y-101930620D01*
X57911401Y-101930627D01*
X57905000Y-101990155D01*
X57905000Y-102488000D01*
X56350033Y-102488000D01*
X56188233Y-102292418D01*
X56188232Y-102292417D01*
X56188227Y-102292411D01*
X55958141Y-102076347D01*
X55958131Y-102076339D01*
X55702790Y-101890823D01*
X55702783Y-101890818D01*
X55702779Y-101890816D01*
X55426179Y-101738753D01*
X55426176Y-101738751D01*
X55426171Y-101738749D01*
X55426170Y-101738748D01*
X55132705Y-101622557D01*
X55132702Y-101622556D01*
X54826978Y-101544060D01*
X54826965Y-101544058D01*
X54513832Y-101504500D01*
X54513821Y-101504500D01*
X54198179Y-101504500D01*
X54198167Y-101504500D01*
X53885034Y-101544058D01*
X53885021Y-101544060D01*
X53579297Y-101622556D01*
X53579294Y-101622557D01*
X53285829Y-101738748D01*
X53285828Y-101738749D01*
X53009221Y-101890816D01*
X53009209Y-101890823D01*
X52753868Y-102076339D01*
X52753858Y-102076347D01*
X52523772Y-102292411D01*
X52395057Y-102448000D01*
X52334293Y-102521453D01*
X52322561Y-102535634D01*
X52153442Y-102802123D01*
X52153436Y-102802134D01*
X52019046Y-103087727D01*
X52019044Y-103087732D01*
X51950678Y-103298143D01*
X51921505Y-103387928D01*
X51891471Y-103545372D01*
X51862357Y-103697987D01*
X51842540Y-104012994D01*
X51842540Y-104013005D01*
X45974000Y-104013005D01*
X45974000Y-79013005D01*
X51842540Y-79013005D01*
X51862357Y-79328012D01*
X51868519Y-79360313D01*
X51921505Y-79638072D01*
X51945966Y-79713354D01*
X52019044Y-79938267D01*
X52019046Y-79938272D01*
X52153436Y-80223865D01*
X52153442Y-80223876D01*
X52322561Y-80490365D01*
X52322563Y-80490368D01*
X52322568Y-80490375D01*
X52523767Y-80733582D01*
X52523772Y-80733588D01*
X52753858Y-80949652D01*
X52753868Y-80949660D01*
X53009209Y-81135176D01*
X53009214Y-81135178D01*
X53009221Y-81135184D01*
X53285821Y-81287247D01*
X53285826Y-81287249D01*
X53285828Y-81287250D01*
X53285829Y-81287251D01*
X53579294Y-81403442D01*
X53579297Y-81403443D01*
X53798814Y-81459805D01*
X53885025Y-81481940D01*
X53950717Y-81490238D01*
X54198167Y-81521499D01*
X54198176Y-81521499D01*
X54198179Y-81521500D01*
X54198181Y-81521500D01*
X54513819Y-81521500D01*
X54513821Y-81521500D01*
X54513824Y-81521499D01*
X54513832Y-81521499D01*
X54714102Y-81496199D01*
X54826975Y-81481940D01*
X55132702Y-81403443D01*
X55132705Y-81403442D01*
X55426170Y-81287251D01*
X55426171Y-81287250D01*
X55426169Y-81287250D01*
X55426179Y-81287247D01*
X55702779Y-81135184D01*
X55958140Y-80949654D01*
X56188233Y-80733582D01*
X56389432Y-80490375D01*
X56558562Y-80223869D01*
X56692956Y-79938266D01*
X56790495Y-79638072D01*
X56849641Y-79328020D01*
X56849884Y-79324167D01*
X56869460Y-79013005D01*
X56869460Y-79012994D01*
X56849642Y-78697987D01*
X56848339Y-78691157D01*
X56790495Y-78387928D01*
X56692956Y-78087734D01*
X56687628Y-78076412D01*
X56601623Y-77893641D01*
X56558562Y-77802131D01*
X56555780Y-77797747D01*
X56389438Y-77535634D01*
X56389436Y-77535632D01*
X56389432Y-77535625D01*
X56188233Y-77292418D01*
X56188232Y-77292417D01*
X56188227Y-77292411D01*
X55958141Y-77076347D01*
X55958131Y-77076339D01*
X55702784Y-76890819D01*
X55702781Y-76890817D01*
X55702779Y-76890816D01*
X55426179Y-76738753D01*
X55426176Y-76738751D01*
X55426171Y-76738749D01*
X55426170Y-76738748D01*
X55132705Y-76622557D01*
X55132702Y-76622556D01*
X54826978Y-76544060D01*
X54826965Y-76544058D01*
X54513832Y-76504500D01*
X54513821Y-76504500D01*
X54198179Y-76504500D01*
X54198167Y-76504500D01*
X53885034Y-76544058D01*
X53885021Y-76544060D01*
X53579297Y-76622556D01*
X53579294Y-76622557D01*
X53285829Y-76738748D01*
X53285828Y-76738749D01*
X53009221Y-76890816D01*
X53009216Y-76890819D01*
X52753868Y-77076339D01*
X52753858Y-77076347D01*
X52523772Y-77292411D01*
X52428983Y-77406992D01*
X52330954Y-77525489D01*
X52322561Y-77535634D01*
X52153442Y-77802123D01*
X52153436Y-77802134D01*
X52019046Y-78087727D01*
X52019044Y-78087732D01*
X51946433Y-78311208D01*
X51921505Y-78387928D01*
X51893886Y-78532709D01*
X51862357Y-78697987D01*
X51842540Y-79012994D01*
X51842540Y-79013005D01*
X45974000Y-79013005D01*
X45974000Y-73784000D01*
X45993685Y-73716961D01*
X46046489Y-73671206D01*
X46098000Y-73660000D01*
X62476500Y-73660000D01*
X62543539Y-73679685D01*
G37*
%TD.AperFunction*%
%TA.AperFunction,Conductor*%
G36*
X79975834Y-97985083D02*
G01*
X80031767Y-98026955D01*
X80056184Y-98092419D01*
X80056500Y-98101265D01*
X80056500Y-100965866D01*
X80054761Y-100981613D01*
X80055032Y-100981639D01*
X80054298Y-100989405D01*
X80056439Y-101057516D01*
X80056500Y-101061412D01*
X80056500Y-101089359D01*
X80057018Y-101093458D01*
X80057934Y-101105098D01*
X80059326Y-101149389D01*
X80059327Y-101149391D01*
X80065022Y-101168995D01*
X80068967Y-101188042D01*
X80071526Y-101208297D01*
X80071527Y-101208300D01*
X80071528Y-101208304D01*
X80087838Y-101249500D01*
X80091621Y-101260549D01*
X80103981Y-101303092D01*
X80114372Y-101320662D01*
X80122932Y-101338135D01*
X80130447Y-101357117D01*
X80156491Y-101392963D01*
X80162905Y-101402727D01*
X80185458Y-101440862D01*
X80185462Y-101440866D01*
X80199889Y-101455293D01*
X80212526Y-101470088D01*
X80224528Y-101486607D01*
X80246157Y-101504500D01*
X80258668Y-101514850D01*
X80267309Y-101522713D01*
X85716076Y-106971480D01*
X85749561Y-107032803D01*
X85744577Y-107102495D01*
X85718142Y-107144727D01*
X85695292Y-107168692D01*
X85580847Y-107346773D01*
X85502164Y-107543312D01*
X85462101Y-107751182D01*
X85462101Y-107751183D01*
X85462101Y-108709835D01*
X85477182Y-108867771D01*
X85536824Y-109070894D01*
X85633830Y-109259058D01*
X85763108Y-109423448D01*
X85764694Y-109425465D01*
X85767579Y-109427965D01*
X85789095Y-109446609D01*
X85826870Y-109505386D01*
X85826870Y-109575256D01*
X85789096Y-109634034D01*
X85725541Y-109663060D01*
X85708092Y-109664322D01*
X84890308Y-109665633D01*
X84823237Y-109646056D01*
X84777397Y-109593325D01*
X84767343Y-109524183D01*
X84796266Y-109460581D01*
X84800366Y-109456063D01*
X84905904Y-109345378D01*
X84905908Y-109345373D01*
X85020354Y-109167290D01*
X85020357Y-109167286D01*
X85099037Y-108970753D01*
X85139101Y-108762881D01*
X85139101Y-107804229D01*
X85124020Y-107646293D01*
X85064378Y-107443170D01*
X84967372Y-107255006D01*
X84836509Y-107088600D01*
X84836506Y-107088597D01*
X84676523Y-106949970D01*
X84676512Y-106949962D01*
X84493185Y-106844120D01*
X84493184Y-106844119D01*
X84493183Y-106844119D01*
X84369287Y-106801238D01*
X84293129Y-106774879D01*
X84251219Y-106768853D01*
X84083585Y-106744751D01*
X84083581Y-106744751D01*
X84055502Y-106746088D01*
X83987602Y-106729614D01*
X83939387Y-106679046D01*
X83927592Y-106630426D01*
X83926283Y-106630564D01*
X83921667Y-106586646D01*
X83905642Y-106434172D01*
X83846627Y-106252544D01*
X83751140Y-106087156D01*
X83623353Y-105945234D01*
X83468852Y-105832982D01*
X83294388Y-105755306D01*
X83294386Y-105755305D01*
X83107587Y-105715600D01*
X83050867Y-105715600D01*
X82983828Y-105695915D01*
X82963186Y-105679281D01*
X79088188Y-101804283D01*
X79078287Y-101791923D01*
X79078077Y-101792098D01*
X79073101Y-101786084D01*
X79073100Y-101786082D01*
X79023415Y-101739425D01*
X79020650Y-101736745D01*
X79000866Y-101716961D01*
X78997604Y-101714431D01*
X78988719Y-101706843D01*
X78984984Y-101703336D01*
X78956421Y-101676514D01*
X78956419Y-101676512D01*
X78938531Y-101666678D01*
X78922270Y-101655997D01*
X78906139Y-101643484D01*
X78865475Y-101625888D01*
X78854985Y-101620749D01*
X78816160Y-101599405D01*
X78816156Y-101599404D01*
X78796387Y-101594328D01*
X78777981Y-101588026D01*
X78759244Y-101579918D01*
X78759245Y-101579918D01*
X78715483Y-101572987D01*
X78704047Y-101570619D01*
X78689293Y-101566831D01*
X78661132Y-101559600D01*
X78661130Y-101559600D01*
X78640716Y-101559600D01*
X78621317Y-101558073D01*
X78601158Y-101554880D01*
X78601157Y-101554880D01*
X78557043Y-101559050D01*
X78545374Y-101559600D01*
X71968509Y-101559600D01*
X71901470Y-101539915D01*
X71876360Y-101518573D01*
X71872454Y-101514235D01*
X71834471Y-101486638D01*
X71717952Y-101401982D01*
X71543488Y-101324306D01*
X71543486Y-101324305D01*
X71356687Y-101284600D01*
X71165713Y-101284600D01*
X70978914Y-101324305D01*
X70947851Y-101338135D01*
X70849365Y-101381984D01*
X70804446Y-101401983D01*
X70649945Y-101514235D01*
X70522158Y-101656157D01*
X70522156Y-101656160D01*
X70494919Y-101703336D01*
X70444352Y-101751551D01*
X70375745Y-101764773D01*
X70310880Y-101738805D01*
X70288267Y-101715646D01*
X70262190Y-101680812D01*
X70262187Y-101680809D01*
X70147093Y-101594649D01*
X70147086Y-101594645D01*
X70012379Y-101544403D01*
X70012372Y-101544401D01*
X69952844Y-101538000D01*
X69505000Y-101538000D01*
X69505000Y-103938000D01*
X69952828Y-103938000D01*
X69952844Y-103937999D01*
X70012372Y-103931598D01*
X70012379Y-103931596D01*
X70147086Y-103881354D01*
X70147093Y-103881350D01*
X70262187Y-103795190D01*
X70262190Y-103795187D01*
X70348350Y-103680093D01*
X70348354Y-103680086D01*
X70398596Y-103545379D01*
X70398598Y-103545372D01*
X70404999Y-103485844D01*
X70405000Y-103485827D01*
X70405000Y-102922955D01*
X70424685Y-102855916D01*
X70477489Y-102810161D01*
X70546647Y-102800217D01*
X70610203Y-102829242D01*
X70621145Y-102839978D01*
X70649947Y-102871966D01*
X70804448Y-102984218D01*
X70978912Y-103061894D01*
X71165713Y-103101600D01*
X71356687Y-103101600D01*
X71543488Y-103061894D01*
X71717952Y-102984218D01*
X71872453Y-102871966D01*
X71876360Y-102867627D01*
X71935846Y-102830979D01*
X71968509Y-102826600D01*
X78267334Y-102826600D01*
X78334373Y-102846285D01*
X78355015Y-102862919D01*
X82065478Y-106573382D01*
X82098963Y-106634705D01*
X82101118Y-106648100D01*
X82107702Y-106710737D01*
X82095133Y-106779467D01*
X82047401Y-106830491D01*
X81979661Y-106847610D01*
X81943825Y-106840880D01*
X81829287Y-106801238D01*
X81753129Y-106774879D01*
X81700742Y-106767347D01*
X81543585Y-106744751D01*
X81543582Y-106744751D01*
X81515518Y-106746088D01*
X81332127Y-106754824D01*
X81264184Y-106771307D01*
X81126400Y-106804733D01*
X81126398Y-106804733D01*
X80933830Y-106892675D01*
X80933824Y-106892679D01*
X80761390Y-107015468D01*
X80761384Y-107015474D01*
X80615294Y-107168689D01*
X80500847Y-107346773D01*
X80422164Y-107543312D01*
X80382101Y-107751182D01*
X80382101Y-107751183D01*
X80382101Y-108709835D01*
X80397182Y-108867771D01*
X80456824Y-109070894D01*
X80553830Y-109259058D01*
X80684693Y-109425464D01*
X80684695Y-109425465D01*
X80684696Y-109425467D01*
X80684699Y-109425470D01*
X80718473Y-109454736D01*
X80756247Y-109513514D01*
X80756247Y-109583384D01*
X80718472Y-109642161D01*
X80654916Y-109671186D01*
X80637469Y-109672448D01*
X79802533Y-109673786D01*
X79735462Y-109654209D01*
X79689622Y-109601478D01*
X79679568Y-109532336D01*
X79708491Y-109468734D01*
X79712562Y-109464247D01*
X79825904Y-109345378D01*
X79940357Y-109167286D01*
X80019037Y-108970753D01*
X80059101Y-108762881D01*
X80059101Y-107804229D01*
X80044020Y-107646293D01*
X79984378Y-107443170D01*
X79887372Y-107255006D01*
X79756509Y-107088600D01*
X79756506Y-107088597D01*
X79596523Y-106949970D01*
X79596512Y-106949962D01*
X79413185Y-106844120D01*
X79413184Y-106844119D01*
X79413183Y-106844119D01*
X79289287Y-106801238D01*
X79213129Y-106774879D01*
X79160742Y-106767347D01*
X79003585Y-106744751D01*
X79003582Y-106744751D01*
X78975518Y-106746088D01*
X78792127Y-106754824D01*
X78724184Y-106771307D01*
X78586400Y-106804733D01*
X78586398Y-106804733D01*
X78393830Y-106892675D01*
X78393824Y-106892679D01*
X78221390Y-107015468D01*
X78221384Y-107015474D01*
X78075294Y-107168689D01*
X77960847Y-107346773D01*
X77882164Y-107543312D01*
X77842101Y-107751182D01*
X77842101Y-107751183D01*
X77842101Y-108709835D01*
X77857182Y-108867771D01*
X77916824Y-109070894D01*
X78013830Y-109259058D01*
X78143108Y-109423448D01*
X78144694Y-109425465D01*
X78147579Y-109427965D01*
X78183163Y-109458798D01*
X78220937Y-109517575D01*
X78220937Y-109587445D01*
X78183163Y-109646223D01*
X78119608Y-109675249D01*
X78102159Y-109676511D01*
X77258646Y-109677863D01*
X77191575Y-109658286D01*
X77145735Y-109605555D01*
X77135681Y-109536413D01*
X77164604Y-109472811D01*
X77168683Y-109468315D01*
X77285904Y-109345378D01*
X77400357Y-109167286D01*
X77479037Y-108970753D01*
X77519101Y-108762881D01*
X77519101Y-107804229D01*
X77504020Y-107646293D01*
X77444378Y-107443170D01*
X77347372Y-107255006D01*
X77216509Y-107088600D01*
X77216506Y-107088597D01*
X77056523Y-106949970D01*
X77056512Y-106949962D01*
X76873185Y-106844120D01*
X76873184Y-106844119D01*
X76873183Y-106844119D01*
X76749287Y-106801238D01*
X76673129Y-106774879D01*
X76620742Y-106767347D01*
X76463585Y-106744751D01*
X76463582Y-106744751D01*
X76435518Y-106746088D01*
X76252127Y-106754824D01*
X76184184Y-106771307D01*
X76046400Y-106804733D01*
X76046398Y-106804733D01*
X75853830Y-106892675D01*
X75853824Y-106892679D01*
X75681390Y-107015468D01*
X75681384Y-107015474D01*
X75535294Y-107168689D01*
X75420847Y-107346773D01*
X75342164Y-107543312D01*
X75302101Y-107751182D01*
X75302101Y-107751183D01*
X75302101Y-108709835D01*
X75317182Y-108867771D01*
X75376824Y-109070894D01*
X75473830Y-109259058D01*
X75603711Y-109424215D01*
X75604695Y-109425466D01*
X75647852Y-109462862D01*
X75685626Y-109521641D01*
X75685626Y-109591510D01*
X75647851Y-109650288D01*
X75584295Y-109679313D01*
X75566848Y-109680575D01*
X74714759Y-109681940D01*
X74647688Y-109662363D01*
X74601848Y-109609632D01*
X74591794Y-109540490D01*
X74620717Y-109476887D01*
X74624804Y-109472383D01*
X74745904Y-109345378D01*
X74745908Y-109345373D01*
X74860354Y-109167290D01*
X74860357Y-109167286D01*
X74939037Y-108970753D01*
X74979101Y-108762881D01*
X74979101Y-107804229D01*
X74964020Y-107646293D01*
X74904378Y-107443170D01*
X74807372Y-107255006D01*
X74676509Y-107088600D01*
X74676506Y-107088597D01*
X74516523Y-106949970D01*
X74516512Y-106949962D01*
X74333185Y-106844120D01*
X74333184Y-106844119D01*
X74333183Y-106844119D01*
X74209287Y-106801238D01*
X74133129Y-106774879D01*
X74080742Y-106767347D01*
X73923585Y-106744751D01*
X73923582Y-106744751D01*
X73895518Y-106746088D01*
X73712127Y-106754824D01*
X73644184Y-106771307D01*
X73506400Y-106804733D01*
X73506398Y-106804733D01*
X73313830Y-106892675D01*
X73313824Y-106892679D01*
X73141390Y-107015468D01*
X73141384Y-107015474D01*
X72995294Y-107168689D01*
X72880847Y-107346773D01*
X72802164Y-107543312D01*
X72762101Y-107751182D01*
X72762101Y-107751183D01*
X72762101Y-108709835D01*
X72777182Y-108867771D01*
X72836824Y-109070894D01*
X72933830Y-109259058D01*
X73063711Y-109424215D01*
X73064695Y-109425466D01*
X73112540Y-109466924D01*
X73150314Y-109525703D01*
X73150314Y-109595572D01*
X73112539Y-109654350D01*
X73048984Y-109683375D01*
X73031536Y-109684637D01*
X68874576Y-109691299D01*
X68807505Y-109671722D01*
X68761665Y-109618991D01*
X68751611Y-109549849D01*
X68755437Y-109534813D01*
X68755204Y-109534758D01*
X68756986Y-109527206D01*
X68756989Y-109527201D01*
X68761256Y-109487511D01*
X68763499Y-109466654D01*
X68763500Y-109466637D01*
X68763500Y-108512000D01*
X68783185Y-108444961D01*
X68835989Y-108399206D01*
X68887500Y-108388000D01*
X69005000Y-108388000D01*
X69005000Y-107438000D01*
X69505000Y-107438000D01*
X69505000Y-108388000D01*
X69952828Y-108388000D01*
X69952844Y-108387999D01*
X70012372Y-108381598D01*
X70012379Y-108381596D01*
X70147086Y-108331354D01*
X70147093Y-108331350D01*
X70262187Y-108245190D01*
X70262190Y-108245187D01*
X70348350Y-108130093D01*
X70348354Y-108130086D01*
X70398596Y-107995379D01*
X70398598Y-107995372D01*
X70404999Y-107935844D01*
X70405000Y-107935827D01*
X70405000Y-107438000D01*
X69505000Y-107438000D01*
X69005000Y-107438000D01*
X69005000Y-105988000D01*
X69505000Y-105988000D01*
X69505000Y-106938000D01*
X70405000Y-106938000D01*
X70405000Y-106440172D01*
X70404999Y-106440155D01*
X70398598Y-106380627D01*
X70398596Y-106380620D01*
X70348354Y-106245913D01*
X70348350Y-106245906D01*
X70262190Y-106130812D01*
X70262187Y-106130809D01*
X70147093Y-106044649D01*
X70147086Y-106044645D01*
X70012379Y-105994403D01*
X70012372Y-105994401D01*
X69952844Y-105988000D01*
X69505000Y-105988000D01*
X69005000Y-105988000D01*
X68762500Y-105988000D01*
X68695461Y-105968315D01*
X68649706Y-105915511D01*
X68638500Y-105864000D01*
X68638500Y-104062000D01*
X68658185Y-103994961D01*
X68710989Y-103949206D01*
X68762500Y-103938000D01*
X69005000Y-103938000D01*
X69005000Y-101510454D01*
X69004648Y-101509810D01*
X69005000Y-101504887D01*
X69005000Y-101486638D01*
X69006305Y-101486638D01*
X69009632Y-101440118D01*
X69038133Y-101395771D01*
X69313086Y-101120818D01*
X69374409Y-101087333D01*
X69400767Y-101084499D01*
X69694271Y-101084499D01*
X69765644Y-101078014D01*
X69765647Y-101078013D01*
X69765649Y-101078013D01*
X69929913Y-101026827D01*
X70077155Y-100937816D01*
X70198816Y-100816155D01*
X70287827Y-100668913D01*
X70339013Y-100504649D01*
X70345500Y-100433265D01*
X70345499Y-100205799D01*
X70365183Y-100138761D01*
X70417987Y-100093006D01*
X70469499Y-100081800D01*
X71912566Y-100081800D01*
X71928313Y-100083538D01*
X71928339Y-100083268D01*
X71936103Y-100084001D01*
X71936104Y-100084000D01*
X71936109Y-100084002D01*
X71947540Y-100083642D01*
X71977213Y-100086290D01*
X72137213Y-100120300D01*
X72328187Y-100120300D01*
X72514988Y-100080594D01*
X72689452Y-100002918D01*
X72843953Y-99890666D01*
X72971740Y-99748744D01*
X73067227Y-99583356D01*
X73126242Y-99401728D01*
X73144350Y-99229437D01*
X73170935Y-99164824D01*
X73228232Y-99124839D01*
X73267671Y-99118400D01*
X73747534Y-99118400D01*
X73814573Y-99138085D01*
X73835215Y-99154719D01*
X73922910Y-99242414D01*
X73932816Y-99254778D01*
X73933026Y-99254605D01*
X73937997Y-99260613D01*
X73938000Y-99260618D01*
X73987702Y-99307290D01*
X73990466Y-99309970D01*
X74010224Y-99329729D01*
X74010228Y-99329732D01*
X74010231Y-99329735D01*
X74013499Y-99332270D01*
X74022376Y-99339852D01*
X74041856Y-99358144D01*
X74054679Y-99370186D01*
X74054683Y-99370189D01*
X74072563Y-99380018D01*
X74088827Y-99390701D01*
X74104960Y-99403214D01*
X74145619Y-99420809D01*
X74156110Y-99425948D01*
X74194940Y-99447295D01*
X74214718Y-99452373D01*
X74233119Y-99458673D01*
X74251855Y-99466781D01*
X74295630Y-99473713D01*
X74307045Y-99476078D01*
X74349970Y-99487100D01*
X74370384Y-99487100D01*
X74389783Y-99488627D01*
X74409943Y-99491820D01*
X74454057Y-99487650D01*
X74465726Y-99487100D01*
X78025266Y-99487100D01*
X78041013Y-99488838D01*
X78041039Y-99488568D01*
X78048805Y-99489301D01*
X78048809Y-99489302D01*
X78116917Y-99487160D01*
X78120813Y-99487100D01*
X78148758Y-99487100D01*
X78148760Y-99487099D01*
X78150162Y-99486922D01*
X78152849Y-99486583D01*
X78164508Y-99485664D01*
X78208789Y-99484273D01*
X78228381Y-99478580D01*
X78247438Y-99474632D01*
X78267697Y-99472074D01*
X78308906Y-99455757D01*
X78319943Y-99451979D01*
X78362493Y-99439618D01*
X78380065Y-99429225D01*
X78397532Y-99420668D01*
X78416517Y-99413152D01*
X78452361Y-99387108D01*
X78462130Y-99380692D01*
X78463270Y-99380018D01*
X78500262Y-99358142D01*
X78514702Y-99343700D01*
X78529492Y-99331070D01*
X78546007Y-99319072D01*
X78574259Y-99284919D01*
X78582103Y-99276299D01*
X79844820Y-98013582D01*
X79906142Y-97980099D01*
X79975834Y-97985083D01*
G37*
%TD.AperFunction*%
%TA.AperFunction,Conductor*%
G36*
X62251178Y-100993489D02*
G01*
X62295466Y-101047529D01*
X62305300Y-101095924D01*
X62305300Y-104351966D01*
X62303561Y-104367713D01*
X62303832Y-104367739D01*
X62303098Y-104375505D01*
X62305239Y-104443616D01*
X62305300Y-104447512D01*
X62305300Y-104475459D01*
X62305818Y-104479558D01*
X62306734Y-104491198D01*
X62308126Y-104535489D01*
X62308127Y-104535491D01*
X62313822Y-104555095D01*
X62317767Y-104574142D01*
X62320326Y-104594397D01*
X62320327Y-104594400D01*
X62320328Y-104594404D01*
X62336638Y-104635600D01*
X62340421Y-104646649D01*
X62352781Y-104689192D01*
X62363172Y-104706762D01*
X62371732Y-104724235D01*
X62379247Y-104743217D01*
X62405291Y-104779063D01*
X62411705Y-104788827D01*
X62434258Y-104826962D01*
X62434262Y-104826966D01*
X62448689Y-104841393D01*
X62461326Y-104856188D01*
X62473328Y-104872707D01*
X62506007Y-104899742D01*
X62507468Y-104900950D01*
X62516109Y-104908813D01*
X64001559Y-106394263D01*
X64035044Y-106455586D01*
X64030060Y-106525278D01*
X63988188Y-106581211D01*
X63986764Y-106582261D01*
X63854950Y-106678031D01*
X63854946Y-106678034D01*
X63727159Y-106819957D01*
X63631673Y-106985343D01*
X63631670Y-106985350D01*
X63579886Y-107144727D01*
X63572658Y-107166972D01*
X63552696Y-107356900D01*
X63572658Y-107546828D01*
X63572659Y-107546831D01*
X63631670Y-107728449D01*
X63634314Y-107734386D01*
X63631731Y-107735535D01*
X63645285Y-107791397D01*
X63622434Y-107857425D01*
X63567514Y-107900617D01*
X63521425Y-107909500D01*
X63306345Y-107909500D01*
X63245797Y-107916011D01*
X63245795Y-107916011D01*
X63108797Y-107967110D01*
X63104960Y-107969206D01*
X63100689Y-107970134D01*
X63100488Y-107970210D01*
X63100477Y-107970181D01*
X63036687Y-107984056D01*
X63002203Y-107976554D01*
X62862379Y-107924403D01*
X62862372Y-107924401D01*
X62802844Y-107918000D01*
X62755000Y-107918000D01*
X62755000Y-109044000D01*
X62735315Y-109111039D01*
X62682511Y-109156794D01*
X62631000Y-109168000D01*
X62379000Y-109168000D01*
X62311961Y-109148315D01*
X62266206Y-109095511D01*
X62255000Y-109044000D01*
X62255000Y-107918000D01*
X62207155Y-107918000D01*
X62175756Y-107921377D01*
X62106996Y-107908972D01*
X62055859Y-107861362D01*
X62038500Y-107798088D01*
X62038500Y-101107289D01*
X62058185Y-101040250D01*
X62098347Y-101001174D01*
X62117152Y-100989806D01*
X62184705Y-100971971D01*
X62251178Y-100993489D01*
G37*
%TD.AperFunction*%
%TA.AperFunction,Conductor*%
G36*
X75321273Y-88011185D02*
G01*
X75341915Y-88027819D01*
X76290915Y-88976819D01*
X76324400Y-89038142D01*
X76319416Y-89107834D01*
X76277544Y-89163767D01*
X76212080Y-89188184D01*
X76203234Y-89188500D01*
X75647351Y-89188500D01*
X75523023Y-89203596D01*
X75523017Y-89203597D01*
X75439052Y-89235442D01*
X75395081Y-89243500D01*
X74406188Y-89243500D01*
X74339149Y-89223815D01*
X74318507Y-89207182D01*
X74275092Y-89163767D01*
X74198040Y-89086715D01*
X74198037Y-89086713D01*
X74198036Y-89086712D01*
X74052109Y-88996702D01*
X74052103Y-88996699D01*
X74052101Y-88996698D01*
X73889336Y-88942764D01*
X73788879Y-88932500D01*
X73788872Y-88932500D01*
X73241128Y-88932500D01*
X73241120Y-88932500D01*
X73140663Y-88942764D01*
X72977901Y-88996697D01*
X72977890Y-88996702D01*
X72831963Y-89086712D01*
X72831959Y-89086715D01*
X72827681Y-89090994D01*
X72766358Y-89124479D01*
X72696666Y-89119495D01*
X72652319Y-89090994D01*
X72648040Y-89086715D01*
X72648036Y-89086712D01*
X72502109Y-88996702D01*
X72502103Y-88996699D01*
X72502101Y-88996698D01*
X72339336Y-88942764D01*
X72238879Y-88932500D01*
X72238872Y-88932500D01*
X71691128Y-88932500D01*
X71691120Y-88932500D01*
X71590663Y-88942764D01*
X71427901Y-88996697D01*
X71427890Y-88996702D01*
X71281963Y-89086712D01*
X71281959Y-89086715D01*
X71160715Y-89207959D01*
X71160712Y-89207963D01*
X71070702Y-89353890D01*
X71070697Y-89353901D01*
X71016764Y-89516663D01*
X71006500Y-89617120D01*
X71006500Y-90214879D01*
X71016764Y-90315336D01*
X71070697Y-90478098D01*
X71070702Y-90478109D01*
X71160712Y-90624036D01*
X71160715Y-90624040D01*
X71281959Y-90745284D01*
X71281963Y-90745287D01*
X71427890Y-90835297D01*
X71427893Y-90835298D01*
X71427899Y-90835302D01*
X71590664Y-90889236D01*
X71691128Y-90899500D01*
X72001234Y-90899500D01*
X72068273Y-90919185D01*
X72088915Y-90935819D01*
X72268510Y-91115414D01*
X72278416Y-91127778D01*
X72278626Y-91127605D01*
X72283597Y-91133613D01*
X72283600Y-91133618D01*
X72333302Y-91180290D01*
X72336066Y-91182970D01*
X72355824Y-91202729D01*
X72355828Y-91202732D01*
X72355831Y-91202735D01*
X72359099Y-91205270D01*
X72367979Y-91212854D01*
X72400279Y-91243186D01*
X72400283Y-91243189D01*
X72418163Y-91253018D01*
X72434424Y-91263698D01*
X72447326Y-91273705D01*
X72488234Y-91330345D01*
X72492027Y-91400111D01*
X72457499Y-91460853D01*
X72395613Y-91493286D01*
X72344738Y-91490171D01*
X72344227Y-91492561D01*
X72337608Y-91491144D01*
X72238322Y-91481000D01*
X72215000Y-91481000D01*
X72215000Y-92524100D01*
X72195315Y-92591139D01*
X72142511Y-92636894D01*
X72091000Y-92648100D01*
X66540467Y-92648100D01*
X66473428Y-92628415D01*
X66452786Y-92611781D01*
X66047005Y-92206000D01*
X71015000Y-92206000D01*
X71715000Y-92206000D01*
X71715000Y-91480999D01*
X71691693Y-91481000D01*
X71691674Y-91481001D01*
X71592392Y-91491144D01*
X71431518Y-91544452D01*
X71431507Y-91544457D01*
X71287271Y-91633424D01*
X71287267Y-91633427D01*
X71167427Y-91753267D01*
X71167424Y-91753271D01*
X71078457Y-91897507D01*
X71078452Y-91897518D01*
X71025144Y-92058393D01*
X71015000Y-92157677D01*
X71015000Y-92206000D01*
X66047005Y-92206000D01*
X65933920Y-92092915D01*
X65900435Y-92031592D01*
X65898282Y-92018212D01*
X65880842Y-91852272D01*
X65821827Y-91670644D01*
X65726340Y-91505256D01*
X65598553Y-91363334D01*
X65444052Y-91251082D01*
X65269588Y-91173406D01*
X65269586Y-91173405D01*
X65082787Y-91133700D01*
X64891813Y-91133700D01*
X64705014Y-91173405D01*
X64530546Y-91251083D01*
X64376045Y-91363335D01*
X64248259Y-91505257D01*
X64152773Y-91670643D01*
X64152770Y-91670650D01*
X64108905Y-91805654D01*
X64093758Y-91852272D01*
X64073796Y-92042200D01*
X64093758Y-92232128D01*
X64093759Y-92232131D01*
X64152770Y-92413749D01*
X64152773Y-92413756D01*
X64248260Y-92579144D01*
X64376047Y-92721066D01*
X64530548Y-92833318D01*
X64705012Y-92910994D01*
X64705015Y-92910994D01*
X64705016Y-92910995D01*
X64706781Y-92911569D01*
X64707671Y-92912177D01*
X64710949Y-92913637D01*
X64710682Y-92914236D01*
X64764457Y-92951005D01*
X64791656Y-93015364D01*
X64779742Y-93084210D01*
X64732499Y-93135686D01*
X64668464Y-93153500D01*
X64476267Y-93153500D01*
X64409228Y-93133815D01*
X64388586Y-93117181D01*
X61010588Y-89739183D01*
X61000687Y-89726823D01*
X61000477Y-89726998D01*
X60995501Y-89720984D01*
X60995500Y-89720982D01*
X60945815Y-89674325D01*
X60943050Y-89671645D01*
X60923266Y-89651861D01*
X60920004Y-89649331D01*
X60911119Y-89641743D01*
X60878821Y-89611414D01*
X60878819Y-89611412D01*
X60860931Y-89601578D01*
X60844670Y-89590897D01*
X60828539Y-89578384D01*
X60787875Y-89560788D01*
X60777385Y-89555649D01*
X60738560Y-89534305D01*
X60738556Y-89534304D01*
X60718787Y-89529228D01*
X60700381Y-89522926D01*
X60681644Y-89514818D01*
X60681645Y-89514818D01*
X60637883Y-89507887D01*
X60626447Y-89505519D01*
X60611693Y-89501731D01*
X60583532Y-89494500D01*
X60583530Y-89494500D01*
X60563116Y-89494500D01*
X60543717Y-89492973D01*
X60523558Y-89489780D01*
X60523557Y-89489780D01*
X60479443Y-89493950D01*
X60467774Y-89494500D01*
X55943980Y-89494500D01*
X55876941Y-89474815D01*
X55831186Y-89422011D01*
X55821242Y-89352853D01*
X55831596Y-89318098D01*
X55890284Y-89192243D01*
X55949543Y-88971087D01*
X55969498Y-88743000D01*
X55949543Y-88514913D01*
X55890284Y-88293757D01*
X55831597Y-88167902D01*
X55821106Y-88098827D01*
X55849626Y-88035043D01*
X55908102Y-87996804D01*
X55943980Y-87991500D01*
X75254234Y-87991500D01*
X75321273Y-88011185D01*
G37*
%TD.AperFunction*%
%TD*%
M02*
