M48
; DRILL file {KiCad 7.0.11} date Sun Dec  8 19:05:53 2024
; FORMAT={-:-/ absolute / metric / decimal}
; #@! TF.CreationDate,2024-12-08T19:05:53-06:00
; #@! TF.GenerationSoftware,Kicad,Pcbnew,7.0.11
; #@! TF.FileFunction,Plated,1,2,PTH
FMAT,2
METRIC
; #@! TA.AperFunction,Plated,PTH,ViaDrill
T1C0.400
; #@! TA.AperFunction,Plated,PTH,ComponentDrill
T2C0.800
; #@! TA.AperFunction,Plated,PTH,ComponentDrill
T3C0.990
; #@! TA.AperFunction,Plated,PTH,ComponentDrill
T4C1.000
; #@! TA.AperFunction,Plated,PTH,ComponentDrill
T5C1.300
; #@! TA.AperFunction,Plated,PTH,ComponentDrill
T6C3.200
%
G90
G05
T1
X56.59Y-85.773
X60.547Y-95.661
X63.714Y-101.562
X64.466Y-107.357
X64.987Y-92.042
X68.326Y-91.186
X71.261Y-102.193
X71.628Y-104.902
X71.766Y-97.621
X72.158Y-74.627
X72.233Y-99.212
X74.492Y-97.887
X78.229Y-97.634
X79.277Y-96.414
X83.012Y-106.624
X84.269Y-99.569
X88.427Y-103.85
X92.61Y-105.149
X100.499Y-82.692
T2
X73.83Y-82.664
X73.871Y-108.257
X76.37Y-82.664
X76.411Y-108.257
X78.91Y-82.664
X78.951Y-108.257
X81.45Y-82.664
X81.491Y-108.257
X83.99Y-82.664
X84.031Y-108.257
X86.53Y-82.664
X86.571Y-108.257
X89.07Y-82.664
X89.111Y-108.257
X91.61Y-82.664
X91.651Y-108.257
X94.15Y-82.664
X94.191Y-108.257
X96.69Y-82.664
X96.731Y-108.257
X99.23Y-82.664
X99.271Y-108.257
X101.77Y-82.664
X101.811Y-108.257
X104.31Y-82.664
X104.351Y-108.257
X106.85Y-82.664
X106.891Y-108.257
X109.39Y-82.664
X109.431Y-108.257
T3
X86.598Y-76.069
X91.098Y-76.069
X96.504Y-76.069
X101.004Y-76.069
X106.41Y-76.069
X110.91Y-76.069
X116.316Y-76.069
X120.816Y-76.069
T4
X51.816Y-87.358
X51.816Y-90.128
X51.816Y-92.898
X51.816Y-95.668
X54.656Y-85.973
X54.656Y-88.743
X54.656Y-91.513
X54.656Y-94.283
X54.656Y-97.053
X60.436Y-76.5
X60.436Y-79.04
X123.825Y-83.058
X123.825Y-85.598
T5
X85.348Y-78.559
X92.358Y-78.559
X95.254Y-78.559
X102.264Y-78.559
X105.16Y-78.559
X112.17Y-78.559
X115.066Y-78.559
X122.076Y-78.559
T6
X54.356Y-79.013
X54.356Y-104.013
M30
