%TF.GenerationSoftware,KiCad,Pcbnew,(6.0.4)*%
%TF.CreationDate,2022-04-21T20:48:54-05:00*%
%TF.ProjectId,WiRSa,57695253-612e-46b6-9963-61645f706362,rev?*%
%TF.SameCoordinates,Original*%
%TF.FileFunction,Copper,L1,Top*%
%TF.FilePolarity,Positive*%
%FSLAX46Y46*%
G04 Gerber Fmt 4.6, Leading zero omitted, Abs format (unit mm)*
G04 Created by KiCad (PCBNEW (6.0.4)) date 2022-04-21 20:48:54*
%MOMM*%
%LPD*%
G01*
G04 APERTURE LIST*
%TA.AperFunction,ComponentPad*%
%ADD10R,1.700000X1.700000*%
%TD*%
%TA.AperFunction,ComponentPad*%
%ADD11O,1.700000X1.700000*%
%TD*%
%TA.AperFunction,ComponentPad*%
%ADD12C,1.524000*%
%TD*%
%TA.AperFunction,ComponentPad*%
%ADD13R,1.524000X1.524000*%
%TD*%
%TA.AperFunction,ComponentPad*%
%ADD14O,1.600000X2.000000*%
%TD*%
%TA.AperFunction,ComponentPad*%
%ADD15R,2.000000X2.000000*%
%TD*%
%TA.AperFunction,ViaPad*%
%ADD16C,0.800000*%
%TD*%
%TA.AperFunction,Conductor*%
%ADD17C,0.406400*%
%TD*%
%TA.AperFunction,Conductor*%
%ADD18C,0.762000*%
%TD*%
G04 APERTURE END LIST*
D10*
%TO.P,J1,1,VCC*%
%TO.N,Net-(J1-Pad1)*%
X74295000Y-92700000D03*
D11*
%TO.P,J1,2,RXD*%
%TO.N,Net-(J1-Pad2)*%
X74295000Y-90160000D03*
%TO.P,J1,3,TXD*%
%TO.N,Net-(J1-Pad3)*%
X74295000Y-87620000D03*
%TO.P,J1,4,GND*%
%TO.N,GND*%
X74295000Y-85080000D03*
%TD*%
D12*
%TO.P,A1,6,GND*%
%TO.N,GND*%
X92710000Y-81280000D03*
%TO.P,A1,5,MISO*%
%TO.N,Net-(A1-Pad5)*%
X92710000Y-83820000D03*
%TO.P,A1,4,CLK*%
%TO.N,Net-(A1-Pad4)*%
X92710000Y-86360000D03*
%TO.P,A1,3,MOSI*%
%TO.N,Net-(A1-Pad3)*%
X92710000Y-88900000D03*
%TO.P,A1,2,CS*%
%TO.N,Net-(A1-Pad2)*%
X92710000Y-91440000D03*
D13*
%TO.P,A1,1,3V3*%
%TO.N,Net-(A1-Pad1)*%
X92710000Y-93980000D03*
%TD*%
D14*
%TO.P,U1,16,TX*%
%TO.N,Net-(J1-Pad3)*%
X85090000Y-76985000D03*
%TO.P,U1,15,RX*%
%TO.N,Net-(J1-Pad2)*%
X87630000Y-76985000D03*
%TO.P,U1,14,SCL/D1*%
%TO.N,unconnected-(U1-Pad14)*%
X90170000Y-76985000D03*
%TO.P,U1,13,SDA/D2*%
%TO.N,unconnected-(U1-Pad13)*%
X92710000Y-76985000D03*
%TO.P,U1,12,D3*%
%TO.N,unconnected-(U1-Pad12)*%
X95250000Y-76985000D03*
%TO.P,U1,11,D4*%
%TO.N,unconnected-(U1-Pad11)*%
X97790000Y-76985000D03*
%TO.P,U1,10,GND*%
%TO.N,GND*%
X100330000Y-76985000D03*
%TO.P,U1,9,5V*%
%TO.N,Net-(J1-Pad1)*%
X102870000Y-76985000D03*
%TO.P,U1,8,3V3*%
%TO.N,Net-(A1-Pad1)*%
X102870000Y-99845000D03*
%TO.P,U1,7,CS/D8*%
%TO.N,Net-(A1-Pad2)*%
X100330000Y-99845000D03*
%TO.P,U1,6,MOSI/D7*%
%TO.N,Net-(A1-Pad3)*%
X97790000Y-99845000D03*
%TO.P,U1,5,MISO/D6*%
%TO.N,Net-(A1-Pad5)*%
X95250000Y-99845000D03*
%TO.P,U1,4,SCK/D5*%
%TO.N,Net-(A1-Pad4)*%
X92710000Y-99845000D03*
%TO.P,U1,3,D0*%
%TO.N,unconnected-(U1-Pad3)*%
X90170000Y-99845000D03*
%TO.P,U1,2,A0*%
%TO.N,unconnected-(U1-Pad2)*%
X87630000Y-99845000D03*
D15*
%TO.P,U1,1,~{RST}*%
%TO.N,unconnected-(U1-Pad1)*%
X85090000Y-99845000D03*
%TD*%
D16*
%TO.N,Net-(A1-Pad2)*%
X100330000Y-91440000D03*
%TO.N,Net-(A1-Pad1)*%
X102870000Y-93980000D03*
%TO.N,Net-(A1-Pad2)*%
X100330000Y-91440000D03*
%TD*%
D17*
%TO.N,Net-(A1-Pad5)*%
X88265000Y-93980000D02*
X88265000Y-85725000D01*
X90805000Y-96520000D02*
X88265000Y-93980000D01*
X94615000Y-96520000D02*
X90805000Y-96520000D01*
X95250000Y-97155000D02*
X94615000Y-96520000D01*
X95250000Y-99845000D02*
X95250000Y-97155000D01*
X88265000Y-85725000D02*
X90170000Y-83820000D01*
X90170000Y-83820000D02*
X92710000Y-83820000D01*
%TO.N,Net-(A1-Pad1)*%
X102870000Y-93980000D02*
X102870000Y-99845000D01*
%TO.N,Net-(A1-Pad2)*%
X100330000Y-91440000D02*
X100330000Y-99845000D01*
%TO.N,Net-(A1-Pad3)*%
X94615000Y-88900000D02*
X92710000Y-88900000D01*
X97790000Y-92075000D02*
X94615000Y-88900000D01*
X97790000Y-99845000D02*
X97790000Y-92075000D01*
%TO.N,Net-(J1-Pad2)*%
X79365000Y-90160000D02*
X74295000Y-90160000D01*
X87630000Y-81915000D02*
X79375000Y-90170000D01*
X79375000Y-90170000D02*
X79365000Y-90160000D01*
X87630000Y-76985000D02*
X87630000Y-81915000D01*
%TO.N,Net-(J1-Pad3)*%
X77460000Y-87620000D02*
X74295000Y-87620000D01*
X77470000Y-87630000D02*
X77460000Y-87620000D01*
X85090000Y-80010000D02*
X77470000Y-87630000D01*
X85090000Y-76985000D02*
X85090000Y-80010000D01*
D18*
%TO.N,GND*%
X97790000Y-81280000D02*
X92710000Y-81280000D01*
X100330000Y-78740000D02*
X97790000Y-81280000D01*
X100330000Y-76985000D02*
X100330000Y-78740000D01*
%TD*%
%TA.AperFunction,Conductor*%
%TO.N,GND*%
G36*
X84400201Y-75458502D02*
G01*
X84446694Y-75512158D01*
X84456798Y-75582432D01*
X84427304Y-75647012D01*
X84404351Y-75667713D01*
X84250211Y-75775643D01*
X84250208Y-75775645D01*
X84245700Y-75778802D01*
X84083802Y-75940700D01*
X83952477Y-76128251D01*
X83950154Y-76133233D01*
X83950151Y-76133238D01*
X83950034Y-76133489D01*
X83855716Y-76335757D01*
X83796457Y-76556913D01*
X83781500Y-76727873D01*
X83781500Y-77242127D01*
X83796457Y-77413087D01*
X83855716Y-77634243D01*
X83858039Y-77639224D01*
X83858039Y-77639225D01*
X83950151Y-77836762D01*
X83950154Y-77836767D01*
X83952477Y-77841749D01*
X84083802Y-78029300D01*
X84245700Y-78191198D01*
X84324572Y-78246425D01*
X84368899Y-78301881D01*
X84378300Y-78349637D01*
X84378300Y-79663014D01*
X84358298Y-79731135D01*
X84341395Y-79752109D01*
X77222109Y-86871395D01*
X77159797Y-86905421D01*
X77133014Y-86908300D01*
X75521215Y-86908300D01*
X75453094Y-86888298D01*
X75415423Y-86850740D01*
X75377822Y-86792617D01*
X75377820Y-86792614D01*
X75375014Y-86788277D01*
X75224670Y-86623051D01*
X75220619Y-86619852D01*
X75220615Y-86619848D01*
X75053414Y-86487800D01*
X75053410Y-86487798D01*
X75049359Y-86484598D01*
X75007569Y-86461529D01*
X74957598Y-86411097D01*
X74942826Y-86341654D01*
X74967942Y-86275248D01*
X74995294Y-86248641D01*
X75170328Y-86123792D01*
X75178200Y-86117139D01*
X75329052Y-85966812D01*
X75335730Y-85958965D01*
X75460003Y-85786020D01*
X75465313Y-85777183D01*
X75559670Y-85586267D01*
X75563469Y-85576672D01*
X75625377Y-85372910D01*
X75627555Y-85362837D01*
X75628986Y-85351962D01*
X75626775Y-85337778D01*
X75613617Y-85334000D01*
X72978225Y-85334000D01*
X72964694Y-85337973D01*
X72963257Y-85347966D01*
X72993565Y-85482446D01*
X72996645Y-85492275D01*
X73076770Y-85689603D01*
X73081413Y-85698794D01*
X73192694Y-85880388D01*
X73198777Y-85888699D01*
X73338213Y-86049667D01*
X73345580Y-86056883D01*
X73509434Y-86192916D01*
X73517881Y-86198831D01*
X73586969Y-86239203D01*
X73635693Y-86290842D01*
X73648764Y-86360625D01*
X73622033Y-86426396D01*
X73581584Y-86459752D01*
X73568607Y-86466507D01*
X73564474Y-86469610D01*
X73564471Y-86469612D01*
X73408423Y-86586776D01*
X73389965Y-86600635D01*
X73235629Y-86762138D01*
X73109743Y-86946680D01*
X73015688Y-87149305D01*
X72955989Y-87364570D01*
X72932251Y-87586695D01*
X72932548Y-87591848D01*
X72932548Y-87591851D01*
X72935556Y-87644022D01*
X72945110Y-87809715D01*
X72946247Y-87814761D01*
X72946248Y-87814767D01*
X72970304Y-87921508D01*
X72994222Y-88027639D01*
X73051337Y-88168298D01*
X73067845Y-88208951D01*
X73078266Y-88234616D01*
X73098589Y-88267780D01*
X73190205Y-88417284D01*
X73194987Y-88425088D01*
X73341250Y-88593938D01*
X73513126Y-88736632D01*
X73583595Y-88777811D01*
X73586445Y-88779476D01*
X73635169Y-88831114D01*
X73648240Y-88900897D01*
X73621509Y-88966669D01*
X73581055Y-89000027D01*
X73568607Y-89006507D01*
X73564474Y-89009610D01*
X73564471Y-89009612D01*
X73408423Y-89126776D01*
X73389965Y-89140635D01*
X73235629Y-89302138D01*
X73109743Y-89486680D01*
X73015688Y-89689305D01*
X72955989Y-89904570D01*
X72932251Y-90126695D01*
X72932548Y-90131848D01*
X72932548Y-90131851D01*
X72935556Y-90184022D01*
X72945110Y-90349715D01*
X72946247Y-90354761D01*
X72946248Y-90354767D01*
X72970304Y-90461508D01*
X72994222Y-90567639D01*
X73055673Y-90718976D01*
X73072792Y-90761134D01*
X73078266Y-90774616D01*
X73098589Y-90807780D01*
X73145689Y-90884640D01*
X73194987Y-90965088D01*
X73341250Y-91133938D01*
X73345230Y-91137242D01*
X73349981Y-91141187D01*
X73389616Y-91200090D01*
X73391113Y-91271071D01*
X73353997Y-91331593D01*
X73313724Y-91356112D01*
X73198295Y-91399385D01*
X73081739Y-91486739D01*
X72994385Y-91603295D01*
X72943255Y-91739684D01*
X72936500Y-91801866D01*
X72936500Y-93598134D01*
X72943255Y-93660316D01*
X72994385Y-93796705D01*
X73081739Y-93913261D01*
X73198295Y-94000615D01*
X73334684Y-94051745D01*
X73396866Y-94058500D01*
X75193134Y-94058500D01*
X75255316Y-94051745D01*
X75391705Y-94000615D01*
X75508261Y-93913261D01*
X75595615Y-93796705D01*
X75646745Y-93660316D01*
X75653500Y-93598134D01*
X75653500Y-91801866D01*
X75646745Y-91739684D01*
X75595615Y-91603295D01*
X75508261Y-91486739D01*
X75391705Y-91399385D01*
X75379132Y-91394672D01*
X75273203Y-91354960D01*
X75216439Y-91312318D01*
X75191739Y-91245756D01*
X75206947Y-91176408D01*
X75228493Y-91147727D01*
X75246251Y-91130031D01*
X75333096Y-91043489D01*
X75361613Y-91003804D01*
X75418832Y-90924174D01*
X75474827Y-90880526D01*
X75521155Y-90871700D01*
X79220370Y-90871700D01*
X79237948Y-90873362D01*
X79240662Y-90874228D01*
X79248235Y-90874744D01*
X79248239Y-90874745D01*
X79278400Y-90876801D01*
X79292790Y-90878619D01*
X79322514Y-90884128D01*
X79322517Y-90884128D01*
X79329983Y-90885512D01*
X79337563Y-90885075D01*
X79340974Y-90884878D01*
X79363352Y-90883588D01*
X79379166Y-90883671D01*
X79412521Y-90885945D01*
X79419996Y-90884640D01*
X79420002Y-90884640D01*
X79449796Y-90879440D01*
X79464204Y-90877773D01*
X79478809Y-90876931D01*
X79501957Y-90875596D01*
X79533903Y-90865768D01*
X79549282Y-90862076D01*
X79553351Y-90861366D01*
X79582215Y-90856328D01*
X79589164Y-90853278D01*
X79589166Y-90853277D01*
X79616851Y-90841124D01*
X79630447Y-90836068D01*
X79666600Y-90824946D01*
X79695282Y-90807780D01*
X79709342Y-90800524D01*
X79732990Y-90790143D01*
X79732994Y-90790141D01*
X79739946Y-90787089D01*
X79750462Y-90779020D01*
X79769957Y-90764062D01*
X79781951Y-90755911D01*
X79807886Y-90740389D01*
X79807892Y-90740385D01*
X79814409Y-90736484D01*
X79843059Y-90708133D01*
X79844064Y-90707196D01*
X79845075Y-90706420D01*
X79871850Y-90679645D01*
X79872317Y-90679179D01*
X79933715Y-90618420D01*
X79936851Y-90615317D01*
X79937668Y-90613984D01*
X79938952Y-90612543D01*
X88112716Y-82438780D01*
X88118982Y-82432926D01*
X88157059Y-82399710D01*
X88157061Y-82399708D01*
X88162781Y-82394718D01*
X88199691Y-82342199D01*
X88203625Y-82336902D01*
X88238546Y-82292366D01*
X88238550Y-82292360D01*
X88243233Y-82286387D01*
X88246358Y-82279466D01*
X88247572Y-82277461D01*
X88256341Y-82262088D01*
X88257459Y-82260004D01*
X88261830Y-82253784D01*
X88285148Y-82193976D01*
X88287704Y-82187894D01*
X88314120Y-82129391D01*
X88315504Y-82121923D01*
X88316212Y-82119664D01*
X88321049Y-82102682D01*
X88321642Y-82100373D01*
X88324403Y-82093292D01*
X88332783Y-82029644D01*
X88333815Y-82023130D01*
X88344128Y-81967485D01*
X88344128Y-81967484D01*
X88345512Y-81960017D01*
X88341909Y-81897529D01*
X88341700Y-81890277D01*
X88341700Y-81285475D01*
X91435628Y-81285475D01*
X91454038Y-81495896D01*
X91455941Y-81506691D01*
X91510609Y-81710715D01*
X91514355Y-81721007D01*
X91603623Y-81912441D01*
X91609103Y-81921932D01*
X91639794Y-81965765D01*
X91650271Y-81974140D01*
X91663718Y-81967072D01*
X92337978Y-81292812D01*
X92344356Y-81281132D01*
X93074408Y-81281132D01*
X93074539Y-81282965D01*
X93078790Y-81289580D01*
X93757003Y-81967793D01*
X93768777Y-81974223D01*
X93780793Y-81964926D01*
X93810897Y-81921932D01*
X93816377Y-81912441D01*
X93905645Y-81721007D01*
X93909391Y-81710715D01*
X93964059Y-81506691D01*
X93965962Y-81495896D01*
X93984372Y-81285475D01*
X93984372Y-81274525D01*
X93965962Y-81064104D01*
X93964059Y-81053309D01*
X93909391Y-80849285D01*
X93905645Y-80838993D01*
X93816377Y-80647559D01*
X93810897Y-80638068D01*
X93780206Y-80594235D01*
X93769729Y-80585860D01*
X93756282Y-80592928D01*
X93082022Y-81267188D01*
X93074408Y-81281132D01*
X92344356Y-81281132D01*
X92345592Y-81278868D01*
X92345461Y-81277035D01*
X92341210Y-81270420D01*
X91662997Y-80592207D01*
X91651223Y-80585777D01*
X91639207Y-80595074D01*
X91609103Y-80638068D01*
X91603623Y-80647559D01*
X91514355Y-80838993D01*
X91510609Y-80849285D01*
X91455941Y-81053309D01*
X91454038Y-81064104D01*
X91435628Y-81274525D01*
X91435628Y-81285475D01*
X88341700Y-81285475D01*
X88341700Y-80220271D01*
X92015860Y-80220271D01*
X92022928Y-80233718D01*
X92697188Y-80907978D01*
X92711132Y-80915592D01*
X92712965Y-80915461D01*
X92719580Y-80911210D01*
X93397793Y-80232997D01*
X93404223Y-80221223D01*
X93394926Y-80209207D01*
X93351931Y-80179102D01*
X93342445Y-80173624D01*
X93151007Y-80084355D01*
X93140715Y-80080609D01*
X92936691Y-80025941D01*
X92925896Y-80024038D01*
X92715475Y-80005628D01*
X92704525Y-80005628D01*
X92494104Y-80024038D01*
X92483309Y-80025941D01*
X92279285Y-80080609D01*
X92268993Y-80084355D01*
X92077559Y-80173623D01*
X92068068Y-80179103D01*
X92024235Y-80209794D01*
X92015860Y-80220271D01*
X88341700Y-80220271D01*
X88341700Y-78349637D01*
X88361702Y-78281516D01*
X88395428Y-78246425D01*
X88474300Y-78191198D01*
X88636198Y-78029300D01*
X88767523Y-77841749D01*
X88769846Y-77836767D01*
X88769849Y-77836762D01*
X88785805Y-77802543D01*
X88832722Y-77749258D01*
X88900999Y-77729797D01*
X88968959Y-77750339D01*
X89014195Y-77802543D01*
X89030151Y-77836762D01*
X89030154Y-77836767D01*
X89032477Y-77841749D01*
X89163802Y-78029300D01*
X89325700Y-78191198D01*
X89330208Y-78194355D01*
X89330211Y-78194357D01*
X89404571Y-78246424D01*
X89513251Y-78322523D01*
X89518233Y-78324846D01*
X89518238Y-78324849D01*
X89714765Y-78416490D01*
X89720757Y-78419284D01*
X89726065Y-78420706D01*
X89726067Y-78420707D01*
X89936598Y-78477119D01*
X89936600Y-78477119D01*
X89941913Y-78478543D01*
X90170000Y-78498498D01*
X90398087Y-78478543D01*
X90403400Y-78477119D01*
X90403402Y-78477119D01*
X90613933Y-78420707D01*
X90613935Y-78420706D01*
X90619243Y-78419284D01*
X90625235Y-78416490D01*
X90821762Y-78324849D01*
X90821767Y-78324846D01*
X90826749Y-78322523D01*
X90935429Y-78246424D01*
X91009789Y-78194357D01*
X91009792Y-78194355D01*
X91014300Y-78191198D01*
X91176198Y-78029300D01*
X91307523Y-77841749D01*
X91309846Y-77836767D01*
X91309849Y-77836762D01*
X91325805Y-77802543D01*
X91372722Y-77749258D01*
X91440999Y-77729797D01*
X91508959Y-77750339D01*
X91554195Y-77802543D01*
X91570151Y-77836762D01*
X91570154Y-77836767D01*
X91572477Y-77841749D01*
X91703802Y-78029300D01*
X91865700Y-78191198D01*
X91870208Y-78194355D01*
X91870211Y-78194357D01*
X91944571Y-78246424D01*
X92053251Y-78322523D01*
X92058233Y-78324846D01*
X92058238Y-78324849D01*
X92254765Y-78416490D01*
X92260757Y-78419284D01*
X92266065Y-78420706D01*
X92266067Y-78420707D01*
X92476598Y-78477119D01*
X92476600Y-78477119D01*
X92481913Y-78478543D01*
X92710000Y-78498498D01*
X92938087Y-78478543D01*
X92943400Y-78477119D01*
X92943402Y-78477119D01*
X93153933Y-78420707D01*
X93153935Y-78420706D01*
X93159243Y-78419284D01*
X93165235Y-78416490D01*
X93361762Y-78324849D01*
X93361767Y-78324846D01*
X93366749Y-78322523D01*
X93475429Y-78246424D01*
X93549789Y-78194357D01*
X93549792Y-78194355D01*
X93554300Y-78191198D01*
X93716198Y-78029300D01*
X93847523Y-77841749D01*
X93849846Y-77836767D01*
X93849849Y-77836762D01*
X93865805Y-77802543D01*
X93912722Y-77749258D01*
X93980999Y-77729797D01*
X94048959Y-77750339D01*
X94094195Y-77802543D01*
X94110151Y-77836762D01*
X94110154Y-77836767D01*
X94112477Y-77841749D01*
X94243802Y-78029300D01*
X94405700Y-78191198D01*
X94410208Y-78194355D01*
X94410211Y-78194357D01*
X94484571Y-78246424D01*
X94593251Y-78322523D01*
X94598233Y-78324846D01*
X94598238Y-78324849D01*
X94794765Y-78416490D01*
X94800757Y-78419284D01*
X94806065Y-78420706D01*
X94806067Y-78420707D01*
X95016598Y-78477119D01*
X95016600Y-78477119D01*
X95021913Y-78478543D01*
X95250000Y-78498498D01*
X95478087Y-78478543D01*
X95483400Y-78477119D01*
X95483402Y-78477119D01*
X95693933Y-78420707D01*
X95693935Y-78420706D01*
X95699243Y-78419284D01*
X95705235Y-78416490D01*
X95901762Y-78324849D01*
X95901767Y-78324846D01*
X95906749Y-78322523D01*
X96015429Y-78246424D01*
X96089789Y-78194357D01*
X96089792Y-78194355D01*
X96094300Y-78191198D01*
X96256198Y-78029300D01*
X96387523Y-77841749D01*
X96389846Y-77836767D01*
X96389849Y-77836762D01*
X96405805Y-77802543D01*
X96452722Y-77749258D01*
X96520999Y-77729797D01*
X96588959Y-77750339D01*
X96634195Y-77802543D01*
X96650151Y-77836762D01*
X96650154Y-77836767D01*
X96652477Y-77841749D01*
X96783802Y-78029300D01*
X96945700Y-78191198D01*
X96950208Y-78194355D01*
X96950211Y-78194357D01*
X97024571Y-78246424D01*
X97133251Y-78322523D01*
X97138233Y-78324846D01*
X97138238Y-78324849D01*
X97334765Y-78416490D01*
X97340757Y-78419284D01*
X97346065Y-78420706D01*
X97346067Y-78420707D01*
X97556598Y-78477119D01*
X97556600Y-78477119D01*
X97561913Y-78478543D01*
X97790000Y-78498498D01*
X98018087Y-78478543D01*
X98023400Y-78477119D01*
X98023402Y-78477119D01*
X98233933Y-78420707D01*
X98233935Y-78420706D01*
X98239243Y-78419284D01*
X98245235Y-78416490D01*
X98441762Y-78324849D01*
X98441767Y-78324846D01*
X98446749Y-78322523D01*
X98555429Y-78246424D01*
X98629789Y-78194357D01*
X98629792Y-78194355D01*
X98634300Y-78191198D01*
X98796198Y-78029300D01*
X98927523Y-77841749D01*
X98929846Y-77836767D01*
X98929849Y-77836762D01*
X98946081Y-77801951D01*
X98992998Y-77748666D01*
X99061275Y-77729205D01*
X99129235Y-77749747D01*
X99174471Y-77801951D01*
X99190586Y-77836511D01*
X99196069Y-77846007D01*
X99321028Y-78024467D01*
X99328084Y-78032875D01*
X99482125Y-78186916D01*
X99490533Y-78193972D01*
X99668993Y-78318931D01*
X99678489Y-78324414D01*
X99875947Y-78416490D01*
X99886239Y-78420236D01*
X100058503Y-78466394D01*
X100072599Y-78466058D01*
X100076000Y-78458116D01*
X100076000Y-76857000D01*
X100096002Y-76788879D01*
X100149658Y-76742386D01*
X100202000Y-76731000D01*
X100458000Y-76731000D01*
X100526121Y-76751002D01*
X100572614Y-76804658D01*
X100584000Y-76857000D01*
X100584000Y-78452967D01*
X100587973Y-78466498D01*
X100596522Y-78467727D01*
X100773761Y-78420236D01*
X100784053Y-78416490D01*
X100981511Y-78324414D01*
X100991007Y-78318931D01*
X101169467Y-78193972D01*
X101177875Y-78186916D01*
X101331916Y-78032875D01*
X101338972Y-78024467D01*
X101463931Y-77846007D01*
X101469414Y-77836511D01*
X101485529Y-77801951D01*
X101532446Y-77748666D01*
X101600723Y-77729205D01*
X101668683Y-77749747D01*
X101713919Y-77801951D01*
X101730151Y-77836762D01*
X101730154Y-77836767D01*
X101732477Y-77841749D01*
X101863802Y-78029300D01*
X102025700Y-78191198D01*
X102030208Y-78194355D01*
X102030211Y-78194357D01*
X102104571Y-78246424D01*
X102213251Y-78322523D01*
X102218233Y-78324846D01*
X102218238Y-78324849D01*
X102414765Y-78416490D01*
X102420757Y-78419284D01*
X102426065Y-78420706D01*
X102426067Y-78420707D01*
X102636598Y-78477119D01*
X102636600Y-78477119D01*
X102641913Y-78478543D01*
X102870000Y-78498498D01*
X103098087Y-78478543D01*
X103103400Y-78477119D01*
X103103402Y-78477119D01*
X103313933Y-78420707D01*
X103313935Y-78420706D01*
X103319243Y-78419284D01*
X103325235Y-78416490D01*
X103521762Y-78324849D01*
X103521767Y-78324846D01*
X103526749Y-78322523D01*
X103635429Y-78246424D01*
X103709789Y-78194357D01*
X103709792Y-78194355D01*
X103714300Y-78191198D01*
X103876198Y-78029300D01*
X104007523Y-77841749D01*
X104009846Y-77836767D01*
X104009849Y-77836762D01*
X104101961Y-77639225D01*
X104101961Y-77639224D01*
X104104284Y-77634243D01*
X104163543Y-77413087D01*
X104178500Y-77242127D01*
X104178500Y-76727873D01*
X104163543Y-76556913D01*
X104104284Y-76335757D01*
X104009966Y-76133489D01*
X104009849Y-76133238D01*
X104009846Y-76133233D01*
X104007523Y-76128251D01*
X103876198Y-75940700D01*
X103714300Y-75778802D01*
X103709792Y-75775645D01*
X103709789Y-75775643D01*
X103555649Y-75667713D01*
X103511321Y-75612256D01*
X103504012Y-75541636D01*
X103536043Y-75478276D01*
X103597244Y-75442291D01*
X103627920Y-75438500D01*
X111125500Y-75438500D01*
X111193621Y-75458502D01*
X111240114Y-75512158D01*
X111251500Y-75564500D01*
X111251500Y-100965500D01*
X111231498Y-101033621D01*
X111177842Y-101080114D01*
X111125500Y-101091500D01*
X103976114Y-101091500D01*
X103907993Y-101071498D01*
X103861500Y-101017842D01*
X103851396Y-100947568D01*
X103877152Y-100889968D01*
X103876198Y-100889300D01*
X104004366Y-100706257D01*
X104007523Y-100701749D01*
X104009846Y-100696767D01*
X104009849Y-100696762D01*
X104101961Y-100499225D01*
X104101961Y-100499224D01*
X104104284Y-100494243D01*
X104163543Y-100273087D01*
X104178500Y-100102127D01*
X104178500Y-99587873D01*
X104163543Y-99416913D01*
X104104284Y-99195757D01*
X104025805Y-99027457D01*
X104009849Y-98993238D01*
X104009846Y-98993233D01*
X104007523Y-98988251D01*
X103876198Y-98800700D01*
X103714300Y-98638802D01*
X103635428Y-98583575D01*
X103591101Y-98528119D01*
X103581700Y-98480363D01*
X103581700Y-94594340D01*
X103605609Y-94520755D01*
X103609040Y-94516944D01*
X103612340Y-94511228D01*
X103612343Y-94511224D01*
X103701223Y-94357279D01*
X103701224Y-94357278D01*
X103704527Y-94351556D01*
X103763542Y-94169928D01*
X103764542Y-94160419D01*
X103782814Y-93986565D01*
X103783504Y-93980000D01*
X103775735Y-93906081D01*
X103764232Y-93796635D01*
X103764232Y-93796633D01*
X103763542Y-93790072D01*
X103704527Y-93608444D01*
X103609040Y-93443056D01*
X103481253Y-93301134D01*
X103326752Y-93188882D01*
X103320724Y-93186198D01*
X103320722Y-93186197D01*
X103158319Y-93113891D01*
X103158318Y-93113891D01*
X103152288Y-93111206D01*
X103058887Y-93091353D01*
X102971944Y-93072872D01*
X102971939Y-93072872D01*
X102965487Y-93071500D01*
X102774513Y-93071500D01*
X102768061Y-93072872D01*
X102768056Y-93072872D01*
X102681113Y-93091353D01*
X102587712Y-93111206D01*
X102581682Y-93113891D01*
X102581681Y-93113891D01*
X102419278Y-93186197D01*
X102419276Y-93186198D01*
X102413248Y-93188882D01*
X102258747Y-93301134D01*
X102130960Y-93443056D01*
X102035473Y-93608444D01*
X101976458Y-93790072D01*
X101975768Y-93796633D01*
X101975768Y-93796635D01*
X101964265Y-93906081D01*
X101956496Y-93980000D01*
X101957186Y-93986565D01*
X101975459Y-94160419D01*
X101976458Y-94169928D01*
X102035473Y-94351556D01*
X102038776Y-94357278D01*
X102038777Y-94357279D01*
X102127657Y-94511224D01*
X102127660Y-94511228D01*
X102130960Y-94516944D01*
X102134391Y-94520755D01*
X102158300Y-94594340D01*
X102158300Y-98480363D01*
X102138298Y-98548484D01*
X102104572Y-98583575D01*
X102025700Y-98638802D01*
X101863802Y-98800700D01*
X101732477Y-98988251D01*
X101730154Y-98993233D01*
X101730151Y-98993238D01*
X101714195Y-99027457D01*
X101667278Y-99080742D01*
X101599001Y-99100203D01*
X101531041Y-99079661D01*
X101485805Y-99027457D01*
X101469849Y-98993238D01*
X101469846Y-98993233D01*
X101467523Y-98988251D01*
X101336198Y-98800700D01*
X101174300Y-98638802D01*
X101095428Y-98583575D01*
X101051101Y-98528119D01*
X101041700Y-98480363D01*
X101041700Y-92054340D01*
X101065609Y-91980755D01*
X101069040Y-91976944D01*
X101072340Y-91971228D01*
X101072343Y-91971224D01*
X101161223Y-91817279D01*
X101161224Y-91817278D01*
X101164527Y-91811556D01*
X101223542Y-91629928D01*
X101227097Y-91596109D01*
X101242814Y-91446565D01*
X101243504Y-91440000D01*
X101223542Y-91250072D01*
X101164527Y-91068444D01*
X101152226Y-91047137D01*
X101102314Y-90960689D01*
X101069040Y-90903056D01*
X101053244Y-90885512D01*
X100945675Y-90766045D01*
X100945674Y-90766044D01*
X100941253Y-90761134D01*
X100842157Y-90689136D01*
X100792094Y-90652763D01*
X100792093Y-90652762D01*
X100786752Y-90648882D01*
X100780724Y-90646198D01*
X100780722Y-90646197D01*
X100618319Y-90573891D01*
X100618318Y-90573891D01*
X100612288Y-90571206D01*
X100518887Y-90551353D01*
X100431944Y-90532872D01*
X100431939Y-90532872D01*
X100425487Y-90531500D01*
X100234513Y-90531500D01*
X100228061Y-90532872D01*
X100228056Y-90532872D01*
X100141113Y-90551353D01*
X100047712Y-90571206D01*
X100041682Y-90573891D01*
X100041681Y-90573891D01*
X99879278Y-90646197D01*
X99879276Y-90646198D01*
X99873248Y-90648882D01*
X99867907Y-90652762D01*
X99867906Y-90652763D01*
X99817843Y-90689136D01*
X99718747Y-90761134D01*
X99714326Y-90766044D01*
X99714325Y-90766045D01*
X99606757Y-90885512D01*
X99590960Y-90903056D01*
X99557686Y-90960689D01*
X99507775Y-91047137D01*
X99495473Y-91068444D01*
X99436458Y-91250072D01*
X99416496Y-91440000D01*
X99417186Y-91446565D01*
X99432904Y-91596109D01*
X99436458Y-91629928D01*
X99495473Y-91811556D01*
X99498776Y-91817278D01*
X99498777Y-91817279D01*
X99587657Y-91971224D01*
X99587660Y-91971228D01*
X99590960Y-91976944D01*
X99594391Y-91980755D01*
X99618300Y-92054340D01*
X99618300Y-98480363D01*
X99598298Y-98548484D01*
X99564572Y-98583575D01*
X99485700Y-98638802D01*
X99323802Y-98800700D01*
X99192477Y-98988251D01*
X99190154Y-98993233D01*
X99190151Y-98993238D01*
X99174195Y-99027457D01*
X99127278Y-99080742D01*
X99059001Y-99100203D01*
X98991041Y-99079661D01*
X98945805Y-99027457D01*
X98929849Y-98993238D01*
X98929846Y-98993233D01*
X98927523Y-98988251D01*
X98796198Y-98800700D01*
X98634300Y-98638802D01*
X98555428Y-98583575D01*
X98511101Y-98528119D01*
X98501700Y-98480363D01*
X98501700Y-92104030D01*
X98501992Y-92095460D01*
X98505429Y-92045054D01*
X98505429Y-92045050D01*
X98505945Y-92037479D01*
X98495962Y-91980280D01*
X98494904Y-91974217D01*
X98493941Y-91967692D01*
X98487145Y-91911533D01*
X98487145Y-91911532D01*
X98486232Y-91903989D01*
X98483546Y-91896881D01*
X98482981Y-91894581D01*
X98478314Y-91877520D01*
X98477634Y-91875266D01*
X98476328Y-91867785D01*
X98450521Y-91808995D01*
X98448033Y-91802898D01*
X98428027Y-91749953D01*
X98428026Y-91749950D01*
X98425343Y-91742851D01*
X98421044Y-91736596D01*
X98419951Y-91734505D01*
X98411345Y-91719043D01*
X98410142Y-91717009D01*
X98407089Y-91710054D01*
X98402466Y-91704029D01*
X98402463Y-91704024D01*
X98368012Y-91659126D01*
X98364136Y-91653791D01*
X98332082Y-91607153D01*
X98332077Y-91607147D01*
X98327775Y-91600888D01*
X98281026Y-91559236D01*
X98275751Y-91554256D01*
X95138780Y-88417284D01*
X95132926Y-88411018D01*
X95099710Y-88372941D01*
X95099708Y-88372939D01*
X95094718Y-88367219D01*
X95051436Y-88336801D01*
X95042199Y-88330309D01*
X95036902Y-88326375D01*
X94992366Y-88291454D01*
X94992360Y-88291450D01*
X94986387Y-88286767D01*
X94979466Y-88283642D01*
X94977461Y-88282428D01*
X94962088Y-88273659D01*
X94960004Y-88272541D01*
X94953784Y-88268170D01*
X94946705Y-88265410D01*
X94946703Y-88265409D01*
X94893976Y-88244852D01*
X94887903Y-88242300D01*
X94829391Y-88215880D01*
X94821923Y-88214496D01*
X94819664Y-88213788D01*
X94802682Y-88208951D01*
X94800373Y-88208358D01*
X94793292Y-88205597D01*
X94785763Y-88204606D01*
X94785760Y-88204605D01*
X94729644Y-88197217D01*
X94723130Y-88196185D01*
X94667485Y-88185872D01*
X94667484Y-88185872D01*
X94660017Y-88184488D01*
X94652437Y-88184925D01*
X94652436Y-88184925D01*
X94597530Y-88188091D01*
X94590277Y-88188300D01*
X93828248Y-88188300D01*
X93760127Y-88168298D01*
X93725035Y-88134571D01*
X93690136Y-88084730D01*
X93690134Y-88084727D01*
X93686977Y-88080219D01*
X93529781Y-87923023D01*
X93525273Y-87919866D01*
X93525270Y-87919864D01*
X93449505Y-87866813D01*
X93347677Y-87795512D01*
X93342695Y-87793189D01*
X93342690Y-87793186D01*
X93237627Y-87744195D01*
X93184342Y-87697278D01*
X93164881Y-87629001D01*
X93185423Y-87561041D01*
X93237627Y-87515805D01*
X93342690Y-87466814D01*
X93342695Y-87466811D01*
X93347677Y-87464488D01*
X93483038Y-87369707D01*
X93525270Y-87340136D01*
X93525273Y-87340134D01*
X93529781Y-87336977D01*
X93686977Y-87179781D01*
X93708317Y-87149305D01*
X93811331Y-87002185D01*
X93811332Y-87002183D01*
X93814488Y-86997676D01*
X93816811Y-86992694D01*
X93816814Y-86992689D01*
X93906117Y-86801178D01*
X93906118Y-86801177D01*
X93908440Y-86796196D01*
X93911586Y-86784457D01*
X93954834Y-86623051D01*
X93965978Y-86581463D01*
X93985353Y-86360000D01*
X93965978Y-86138537D01*
X93919964Y-85966812D01*
X93909863Y-85929114D01*
X93909862Y-85929112D01*
X93908440Y-85923804D01*
X93844190Y-85786020D01*
X93816814Y-85727311D01*
X93816811Y-85727306D01*
X93814488Y-85722324D01*
X93784841Y-85679983D01*
X93690136Y-85544730D01*
X93690134Y-85544727D01*
X93686977Y-85540219D01*
X93529781Y-85383023D01*
X93525273Y-85379866D01*
X93525270Y-85379864D01*
X93449505Y-85326813D01*
X93347677Y-85255512D01*
X93342695Y-85253189D01*
X93342690Y-85253186D01*
X93237627Y-85204195D01*
X93184342Y-85157278D01*
X93164881Y-85089001D01*
X93185423Y-85021041D01*
X93237627Y-84975805D01*
X93342690Y-84926814D01*
X93342695Y-84926811D01*
X93347677Y-84924488D01*
X93488332Y-84826000D01*
X93525270Y-84800136D01*
X93525273Y-84800134D01*
X93529781Y-84796977D01*
X93686977Y-84639781D01*
X93748651Y-84551702D01*
X93811331Y-84462185D01*
X93811332Y-84462183D01*
X93814488Y-84457676D01*
X93816811Y-84452694D01*
X93816814Y-84452689D01*
X93906117Y-84261178D01*
X93906118Y-84261177D01*
X93908440Y-84256196D01*
X93965978Y-84041463D01*
X93985353Y-83820000D01*
X93965978Y-83598537D01*
X93908440Y-83383804D01*
X93885328Y-83334240D01*
X93816814Y-83187311D01*
X93816811Y-83187306D01*
X93814488Y-83182324D01*
X93811331Y-83177815D01*
X93690136Y-83004730D01*
X93690134Y-83004727D01*
X93686977Y-83000219D01*
X93529781Y-82843023D01*
X93525273Y-82839866D01*
X93525270Y-82839864D01*
X93449505Y-82786813D01*
X93347677Y-82715512D01*
X93342695Y-82713189D01*
X93342690Y-82713186D01*
X93237035Y-82663919D01*
X93183750Y-82617002D01*
X93164289Y-82548725D01*
X93184831Y-82480765D01*
X93237035Y-82435529D01*
X93342445Y-82386376D01*
X93351931Y-82380898D01*
X93395764Y-82350207D01*
X93404139Y-82339729D01*
X93397071Y-82326281D01*
X92722812Y-81652022D01*
X92708868Y-81644408D01*
X92707035Y-81644539D01*
X92700420Y-81648790D01*
X92022207Y-82327003D01*
X92015777Y-82338777D01*
X92025074Y-82350793D01*
X92068069Y-82380898D01*
X92077555Y-82386376D01*
X92182965Y-82435529D01*
X92236250Y-82482446D01*
X92255711Y-82550723D01*
X92235169Y-82618683D01*
X92182965Y-82663919D01*
X92077311Y-82713186D01*
X92077306Y-82713189D01*
X92072324Y-82715512D01*
X92067817Y-82718668D01*
X92067815Y-82718669D01*
X91894730Y-82839864D01*
X91894727Y-82839866D01*
X91890219Y-82843023D01*
X91733023Y-83000219D01*
X91729866Y-83004727D01*
X91729864Y-83004730D01*
X91694965Y-83054571D01*
X91639508Y-83098899D01*
X91591752Y-83108300D01*
X90199030Y-83108300D01*
X90190460Y-83108008D01*
X90140054Y-83104571D01*
X90140050Y-83104571D01*
X90132479Y-83104055D01*
X90125003Y-83105360D01*
X90125000Y-83105360D01*
X90069217Y-83115096D01*
X90062692Y-83116059D01*
X90006533Y-83122855D01*
X90006532Y-83122855D01*
X89998989Y-83123768D01*
X89991881Y-83126454D01*
X89989581Y-83127019D01*
X89972520Y-83131686D01*
X89970266Y-83132367D01*
X89962785Y-83133672D01*
X89955833Y-83136724D01*
X89955829Y-83136725D01*
X89904003Y-83159476D01*
X89897899Y-83161967D01*
X89837851Y-83184657D01*
X89831595Y-83188957D01*
X89829511Y-83190046D01*
X89814048Y-83198653D01*
X89812012Y-83199857D01*
X89805055Y-83202911D01*
X89754104Y-83242007D01*
X89748796Y-83245863D01*
X89702149Y-83277921D01*
X89702144Y-83277926D01*
X89695888Y-83282225D01*
X89690836Y-83287895D01*
X89690835Y-83287896D01*
X89654245Y-83328964D01*
X89649264Y-83334240D01*
X87782284Y-85201220D01*
X87776019Y-85207073D01*
X87732219Y-85245282D01*
X87722811Y-85258669D01*
X87695309Y-85297801D01*
X87691375Y-85303098D01*
X87656454Y-85347634D01*
X87656450Y-85347640D01*
X87651767Y-85353613D01*
X87648642Y-85360534D01*
X87647428Y-85362539D01*
X87638659Y-85377912D01*
X87637541Y-85379996D01*
X87633170Y-85386216D01*
X87630410Y-85393295D01*
X87630409Y-85393297D01*
X87609852Y-85446024D01*
X87607300Y-85452097D01*
X87580880Y-85510609D01*
X87579496Y-85518077D01*
X87578788Y-85520336D01*
X87573951Y-85537318D01*
X87573358Y-85539627D01*
X87570597Y-85546708D01*
X87569606Y-85554237D01*
X87569605Y-85554240D01*
X87562217Y-85610356D01*
X87561185Y-85616870D01*
X87550872Y-85672515D01*
X87549488Y-85679983D01*
X87549925Y-85687563D01*
X87549925Y-85687564D01*
X87553091Y-85742470D01*
X87553300Y-85749723D01*
X87553300Y-93950970D01*
X87553008Y-93959540D01*
X87549993Y-94003767D01*
X87549055Y-94017521D01*
X87550360Y-94024997D01*
X87550360Y-94025000D01*
X87560096Y-94080783D01*
X87561059Y-94087308D01*
X87568768Y-94151011D01*
X87571454Y-94158119D01*
X87572019Y-94160419D01*
X87576686Y-94177480D01*
X87577366Y-94179734D01*
X87578672Y-94187215D01*
X87581724Y-94194167D01*
X87604475Y-94245995D01*
X87606967Y-94252102D01*
X87629657Y-94312149D01*
X87633956Y-94318404D01*
X87635049Y-94320495D01*
X87643655Y-94335957D01*
X87644858Y-94337991D01*
X87647911Y-94344946D01*
X87652534Y-94350971D01*
X87652537Y-94350976D01*
X87686988Y-94395874D01*
X87690864Y-94401209D01*
X87722918Y-94447847D01*
X87722923Y-94447853D01*
X87727225Y-94454112D01*
X87732899Y-94459167D01*
X87773973Y-94495763D01*
X87779249Y-94500744D01*
X90281220Y-97002716D01*
X90287073Y-97008981D01*
X90325282Y-97052781D01*
X90331500Y-97057151D01*
X90377793Y-97089686D01*
X90383089Y-97093619D01*
X90427631Y-97128544D01*
X90427635Y-97128546D01*
X90433612Y-97133233D01*
X90440534Y-97136358D01*
X90442563Y-97137587D01*
X90457910Y-97146340D01*
X90459998Y-97147459D01*
X90466216Y-97151830D01*
X90473295Y-97154590D01*
X90473297Y-97154591D01*
X90501945Y-97165760D01*
X90526019Y-97175146D01*
X90532095Y-97177700D01*
X90583681Y-97200992D01*
X90590609Y-97204120D01*
X90598079Y-97205504D01*
X90600334Y-97206211D01*
X90617318Y-97211049D01*
X90619627Y-97211642D01*
X90626708Y-97214403D01*
X90634237Y-97215394D01*
X90634240Y-97215395D01*
X90690356Y-97222783D01*
X90696870Y-97223815D01*
X90752515Y-97234128D01*
X90752516Y-97234128D01*
X90759983Y-97235512D01*
X90767563Y-97235075D01*
X90767564Y-97235075D01*
X90822469Y-97231909D01*
X90829722Y-97231700D01*
X94268014Y-97231700D01*
X94336135Y-97251702D01*
X94357110Y-97268605D01*
X94501396Y-97412892D01*
X94535421Y-97475204D01*
X94538300Y-97501987D01*
X94538300Y-98480363D01*
X94518298Y-98548484D01*
X94484572Y-98583575D01*
X94405700Y-98638802D01*
X94243802Y-98800700D01*
X94112477Y-98988251D01*
X94110154Y-98993233D01*
X94110151Y-98993238D01*
X94094195Y-99027457D01*
X94047278Y-99080742D01*
X93979001Y-99100203D01*
X93911041Y-99079661D01*
X93865805Y-99027457D01*
X93849849Y-98993238D01*
X93849846Y-98993233D01*
X93847523Y-98988251D01*
X93716198Y-98800700D01*
X93554300Y-98638802D01*
X93549792Y-98635645D01*
X93549789Y-98635643D01*
X93425313Y-98548484D01*
X93366749Y-98507477D01*
X93361767Y-98505154D01*
X93361762Y-98505151D01*
X93164225Y-98413039D01*
X93164224Y-98413039D01*
X93159243Y-98410716D01*
X93153935Y-98409294D01*
X93153933Y-98409293D01*
X92943402Y-98352881D01*
X92943400Y-98352881D01*
X92938087Y-98351457D01*
X92710000Y-98331502D01*
X92481913Y-98351457D01*
X92476600Y-98352881D01*
X92476598Y-98352881D01*
X92266067Y-98409293D01*
X92266065Y-98409294D01*
X92260757Y-98410716D01*
X92255776Y-98413039D01*
X92255775Y-98413039D01*
X92058238Y-98505151D01*
X92058233Y-98505154D01*
X92053251Y-98507477D01*
X91994687Y-98548484D01*
X91870211Y-98635643D01*
X91870208Y-98635645D01*
X91865700Y-98638802D01*
X91703802Y-98800700D01*
X91572477Y-98988251D01*
X91570154Y-98993233D01*
X91570151Y-98993238D01*
X91554195Y-99027457D01*
X91507278Y-99080742D01*
X91439001Y-99100203D01*
X91371041Y-99079661D01*
X91325805Y-99027457D01*
X91309849Y-98993238D01*
X91309846Y-98993233D01*
X91307523Y-98988251D01*
X91176198Y-98800700D01*
X91014300Y-98638802D01*
X91009792Y-98635645D01*
X91009789Y-98635643D01*
X90885313Y-98548484D01*
X90826749Y-98507477D01*
X90821767Y-98505154D01*
X90821762Y-98505151D01*
X90624225Y-98413039D01*
X90624224Y-98413039D01*
X90619243Y-98410716D01*
X90613935Y-98409294D01*
X90613933Y-98409293D01*
X90403402Y-98352881D01*
X90403400Y-98352881D01*
X90398087Y-98351457D01*
X90170000Y-98331502D01*
X89941913Y-98351457D01*
X89936600Y-98352881D01*
X89936598Y-98352881D01*
X89726067Y-98409293D01*
X89726065Y-98409294D01*
X89720757Y-98410716D01*
X89715776Y-98413039D01*
X89715775Y-98413039D01*
X89518238Y-98505151D01*
X89518233Y-98505154D01*
X89513251Y-98507477D01*
X89454687Y-98548484D01*
X89330211Y-98635643D01*
X89330208Y-98635645D01*
X89325700Y-98638802D01*
X89163802Y-98800700D01*
X89032477Y-98988251D01*
X89030154Y-98993233D01*
X89030151Y-98993238D01*
X89014195Y-99027457D01*
X88967278Y-99080742D01*
X88899001Y-99100203D01*
X88831041Y-99079661D01*
X88785805Y-99027457D01*
X88769849Y-98993238D01*
X88769846Y-98993233D01*
X88767523Y-98988251D01*
X88636198Y-98800700D01*
X88474300Y-98638802D01*
X88469792Y-98635645D01*
X88469789Y-98635643D01*
X88345313Y-98548484D01*
X88286749Y-98507477D01*
X88281767Y-98505154D01*
X88281762Y-98505151D01*
X88084225Y-98413039D01*
X88084224Y-98413039D01*
X88079243Y-98410716D01*
X88073935Y-98409294D01*
X88073933Y-98409293D01*
X87863402Y-98352881D01*
X87863400Y-98352881D01*
X87858087Y-98351457D01*
X87630000Y-98331502D01*
X87401913Y-98351457D01*
X87396600Y-98352881D01*
X87396598Y-98352881D01*
X87186067Y-98409293D01*
X87186065Y-98409294D01*
X87180757Y-98410716D01*
X87175776Y-98413039D01*
X87175775Y-98413039D01*
X86978238Y-98505151D01*
X86978233Y-98505154D01*
X86973251Y-98507477D01*
X86914687Y-98548484D01*
X86790211Y-98635643D01*
X86790208Y-98635645D01*
X86785700Y-98638802D01*
X86756867Y-98667635D01*
X86694555Y-98701661D01*
X86623740Y-98696596D01*
X86566904Y-98654049D01*
X86549790Y-98622768D01*
X86543769Y-98606707D01*
X86543767Y-98606703D01*
X86540615Y-98598295D01*
X86453261Y-98481739D01*
X86336705Y-98394385D01*
X86200316Y-98343255D01*
X86138134Y-98336500D01*
X84041866Y-98336500D01*
X83979684Y-98343255D01*
X83843295Y-98394385D01*
X83726739Y-98481739D01*
X83639385Y-98598295D01*
X83588255Y-98734684D01*
X83581500Y-98796866D01*
X83581500Y-100893134D01*
X83581869Y-100896531D01*
X83587883Y-100951892D01*
X83575355Y-101021775D01*
X83527034Y-101073790D01*
X83462620Y-101091500D01*
X69214500Y-101091500D01*
X69146379Y-101071498D01*
X69099886Y-101017842D01*
X69088500Y-100965500D01*
X69088500Y-84814183D01*
X72959389Y-84814183D01*
X72960912Y-84822607D01*
X72973292Y-84826000D01*
X74022885Y-84826000D01*
X74038124Y-84821525D01*
X74039329Y-84820135D01*
X74041000Y-84812452D01*
X74041000Y-84807885D01*
X74549000Y-84807885D01*
X74553475Y-84823124D01*
X74554865Y-84824329D01*
X74562548Y-84826000D01*
X75613344Y-84826000D01*
X75626875Y-84822027D01*
X75628180Y-84812947D01*
X75586214Y-84645875D01*
X75582894Y-84636124D01*
X75497972Y-84440814D01*
X75493105Y-84431739D01*
X75377426Y-84252926D01*
X75371136Y-84244757D01*
X75227806Y-84087240D01*
X75220273Y-84080215D01*
X75053139Y-83948222D01*
X75044552Y-83942517D01*
X74858117Y-83839599D01*
X74848705Y-83835369D01*
X74647959Y-83764280D01*
X74637988Y-83761646D01*
X74566837Y-83748972D01*
X74553540Y-83750432D01*
X74549000Y-83764989D01*
X74549000Y-84807885D01*
X74041000Y-84807885D01*
X74041000Y-83763102D01*
X74037082Y-83749758D01*
X74022806Y-83747771D01*
X73984324Y-83753660D01*
X73974288Y-83756051D01*
X73771868Y-83822212D01*
X73762359Y-83826209D01*
X73573463Y-83924542D01*
X73564738Y-83930036D01*
X73394433Y-84057905D01*
X73386726Y-84064748D01*
X73239590Y-84218717D01*
X73233104Y-84226727D01*
X73113098Y-84402649D01*
X73108000Y-84411623D01*
X73018338Y-84604783D01*
X73014775Y-84614470D01*
X72959389Y-84814183D01*
X69088500Y-84814183D01*
X69088500Y-75564500D01*
X69108502Y-75496379D01*
X69162158Y-75449886D01*
X69214500Y-75438500D01*
X84332080Y-75438500D01*
X84400201Y-75458502D01*
G37*
%TD.AperFunction*%
%TD*%
M02*
