%TF.GenerationSoftware,KiCad,Pcbnew,7.0.11*%
%TF.CreationDate,2024-12-08T19:05:50-06:00*%
%TF.ProjectId,WiRSa,57695253-612e-46b6-9963-61645f706362,rev?*%
%TF.SameCoordinates,Original*%
%TF.FileFunction,Soldermask,Top*%
%TF.FilePolarity,Negative*%
%FSLAX46Y46*%
G04 Gerber Fmt 4.6, Leading zero omitted, Abs format (unit mm)*
G04 Created by KiCad (PCBNEW 7.0.11) date 2024-12-08 19:05:50*
%MOMM*%
%LPD*%
G01*
G04 APERTURE LIST*
G04 Aperture macros list*
%AMRoundRect*
0 Rectangle with rounded corners*
0 $1 Rounding radius*
0 $2 $3 $4 $5 $6 $7 $8 $9 X,Y pos of 4 corners*
0 Add a 4 corners polygon primitive as box body*
4,1,4,$2,$3,$4,$5,$6,$7,$8,$9,$2,$3,0*
0 Add four circle primitives for the rounded corners*
1,1,$1+$1,$2,$3*
1,1,$1+$1,$4,$5*
1,1,$1+$1,$6,$7*
1,1,$1+$1,$8,$9*
0 Add four rect primitives between the rounded corners*
20,1,$1+$1,$2,$3,$4,$5,0*
20,1,$1+$1,$4,$5,$6,$7,0*
20,1,$1+$1,$6,$7,$8,$9,0*
20,1,$1+$1,$8,$9,$2,$3,0*%
G04 Aperture macros list end*
%ADD10RoundRect,0.200000X-0.200000X-0.275000X0.200000X-0.275000X0.200000X0.275000X-0.200000X0.275000X0*%
%ADD11RoundRect,0.200000X0.200000X0.275000X-0.200000X0.275000X-0.200000X-0.275000X0.200000X-0.275000X0*%
%ADD12C,4.000000*%
%ADD13R,1.600000X1.600000*%
%ADD14C,1.600000*%
%ADD15RoundRect,0.225000X-0.250000X0.225000X-0.250000X-0.225000X0.250000X-0.225000X0.250000X0.225000X0*%
%ADD16R,1.200000X2.000000*%
%ADD17O,1.200000X2.000000*%
%ADD18R,1.000000X5.500000*%
%ADD19R,1.600000X3.000000*%
%ADD20R,1.700000X1.700000*%
%ADD21O,1.700000X1.700000*%
%ADD22R,0.700000X1.200000*%
%ADD23RoundRect,0.200000X-0.275000X0.200000X-0.275000X-0.200000X0.275000X-0.200000X0.275000X0.200000X0*%
%ADD24C,2.100000*%
%ADD25C,1.750000*%
%ADD26RoundRect,0.225000X0.225000X0.250000X-0.225000X0.250000X-0.225000X-0.250000X0.225000X-0.250000X0*%
%ADD27RoundRect,0.225000X-0.225000X-0.250000X0.225000X-0.250000X0.225000X0.250000X-0.225000X0.250000X0*%
%ADD28R,0.500000X1.000000*%
%ADD29R,1.300000X1.400000*%
%ADD30O,2.020000X0.360000*%
G04 APERTURE END LIST*
D10*
%TO.C,R1*%
X88663400Y-80595500D03*
X90313400Y-80595500D03*
%TD*%
D11*
%TO.C,R4*%
X119868400Y-80595500D03*
X118218400Y-80595500D03*
%TD*%
D12*
%TO.C,J1*%
X54356000Y-79013000D03*
X54356000Y-104013000D03*
D13*
X54656000Y-97053000D03*
D14*
X54656000Y-94283000D03*
X54656000Y-91513000D03*
X54656000Y-88743000D03*
X54656000Y-85973000D03*
X51816000Y-95668000D03*
X51816000Y-92898000D03*
X51816000Y-90128000D03*
X51816000Y-87358000D03*
%TD*%
D15*
%TO.C,C4*%
X87091000Y-94221000D03*
X87091000Y-95771000D03*
%TD*%
D16*
%TO.C,U2*%
X109389525Y-82663572D03*
D17*
X106849525Y-82663572D03*
X104309525Y-82663572D03*
X101769525Y-82663572D03*
X99229525Y-82663572D03*
X96689525Y-82663572D03*
X94149525Y-82663572D03*
X91609525Y-82663572D03*
X89069525Y-82663572D03*
X86529525Y-82663572D03*
X83989525Y-82663572D03*
X81449525Y-82663572D03*
X78909525Y-82663572D03*
X76369525Y-82663572D03*
X73829525Y-82663572D03*
X73870601Y-108257032D03*
X76410601Y-108257032D03*
X78950601Y-108257032D03*
X81490601Y-108257032D03*
X84030601Y-108257032D03*
X86570601Y-108257032D03*
X89110601Y-108257032D03*
X91650601Y-108257032D03*
X94190601Y-108257032D03*
X96730601Y-108257032D03*
X99270601Y-108257032D03*
X101810601Y-108257032D03*
X104350601Y-108257032D03*
X106890601Y-108257032D03*
X109430601Y-108257032D03*
%TD*%
D18*
%TO.C,J4*%
X65659000Y-80010000D03*
X67659000Y-80020000D03*
D19*
X70059000Y-77770000D03*
X63259000Y-77770000D03*
%TD*%
D20*
%TO.C,J2*%
X123825000Y-83058000D03*
D21*
X123825000Y-85598000D03*
%TD*%
D10*
%TO.C,R2*%
X98381400Y-80595500D03*
X100031400Y-80595500D03*
%TD*%
D22*
%TO.C,SW5*%
X74573000Y-74087000D03*
X77073000Y-74087000D03*
X79573000Y-74087000D03*
X74573000Y-80587000D03*
X77073000Y-80587000D03*
X79573000Y-80587000D03*
%TD*%
D23*
%TO.C,R6*%
X61488000Y-98526000D03*
X61488000Y-100176000D03*
%TD*%
D24*
%TO.C,SW1*%
X85348000Y-78559500D03*
X92358000Y-78559500D03*
D25*
X86598000Y-76069500D03*
X91098000Y-76069500D03*
%TD*%
D10*
%TO.C,R3*%
X108384400Y-80595500D03*
X110034400Y-80595500D03*
%TD*%
D23*
%TO.C,R9*%
X69362000Y-98526000D03*
X69362000Y-100176000D03*
%TD*%
%TO.C,R8*%
X66822000Y-98526000D03*
X66822000Y-100176000D03*
%TD*%
D26*
%TO.C,C5*%
X73515000Y-92456000D03*
X71965000Y-92456000D03*
%TD*%
%TO.C,C2*%
X73515000Y-89916000D03*
X71965000Y-89916000D03*
%TD*%
D20*
%TO.C,J3*%
X60436000Y-76500000D03*
D21*
X60436000Y-79040000D03*
%TD*%
D23*
%TO.C,R5*%
X58948000Y-98526000D03*
X58948000Y-100176000D03*
%TD*%
D24*
%TO.C,SW4*%
X115066000Y-78559500D03*
X122076000Y-78559500D03*
D25*
X116316000Y-76069500D03*
X120816000Y-76069500D03*
%TD*%
D24*
%TO.C,SW3*%
X105160000Y-78559500D03*
X112170000Y-78559500D03*
D25*
X106410000Y-76069500D03*
X110910000Y-76069500D03*
%TD*%
D24*
%TO.C,SW2*%
X95254000Y-78559500D03*
X102264000Y-78559500D03*
D25*
X96504000Y-76069500D03*
X101004000Y-76069500D03*
%TD*%
D27*
%TO.C,C3*%
X82125000Y-88011000D03*
X83675000Y-88011000D03*
%TD*%
D28*
%TO.C,U1*%
X68005000Y-108918000D03*
X66905000Y-108918000D03*
X65805000Y-108918000D03*
X65055000Y-108918000D03*
X63605000Y-108918000D03*
X62505000Y-108918000D03*
X61405000Y-108918000D03*
X60305000Y-108918000D03*
X64355000Y-108918000D03*
D29*
X59055000Y-107188000D03*
X59055000Y-102738000D03*
X69255000Y-102738000D03*
X69255000Y-107188000D03*
%TD*%
D23*
%TO.C,R7*%
X64028000Y-98526000D03*
X64028000Y-100176000D03*
%TD*%
D30*
%TO.C,IC1*%
X76519000Y-89877000D03*
X76519000Y-90527000D03*
X76519000Y-91177000D03*
X76519000Y-91827000D03*
X76519000Y-92477000D03*
X76519000Y-93127000D03*
X76519000Y-93787000D03*
X76519000Y-94437000D03*
X76519000Y-95087000D03*
X76519000Y-95737000D03*
X76519000Y-96387000D03*
X76519000Y-97037000D03*
X76519000Y-97687000D03*
X76519000Y-98337000D03*
X83439000Y-98337000D03*
X83439000Y-97687000D03*
X83439000Y-97037000D03*
X83439000Y-96387000D03*
X83439000Y-95737000D03*
X83439000Y-95087000D03*
X83439000Y-94437000D03*
X83439000Y-93787000D03*
X83439000Y-93127000D03*
X83439000Y-92477000D03*
X83439000Y-91827000D03*
X83439000Y-91177000D03*
X83439000Y-90527000D03*
X83439000Y-89877000D03*
%TD*%
D15*
%TO.C,C1*%
X87091000Y-90284000D03*
X87091000Y-91834000D03*
%TD*%
M02*
