%TF.GenerationSoftware,KiCad,Pcbnew,7.0.11*%
%TF.CreationDate,2024-12-08T19:05:50-06:00*%
%TF.ProjectId,WiRSa,57695253-612e-46b6-9963-61645f706362,rev?*%
%TF.SameCoordinates,Original*%
%TF.FileFunction,Legend,Top*%
%TF.FilePolarity,Positive*%
%FSLAX46Y46*%
G04 Gerber Fmt 4.6, Leading zero omitted, Abs format (unit mm)*
G04 Created by KiCad (PCBNEW 7.0.11) date 2024-12-08 19:05:50*
%MOMM*%
%LPD*%
G01*
G04 APERTURE LIST*
G04 Aperture macros list*
%AMRoundRect*
0 Rectangle with rounded corners*
0 $1 Rounding radius*
0 $2 $3 $4 $5 $6 $7 $8 $9 X,Y pos of 4 corners*
0 Add a 4 corners polygon primitive as box body*
4,1,4,$2,$3,$4,$5,$6,$7,$8,$9,$2,$3,0*
0 Add four circle primitives for the rounded corners*
1,1,$1+$1,$2,$3*
1,1,$1+$1,$4,$5*
1,1,$1+$1,$6,$7*
1,1,$1+$1,$8,$9*
0 Add four rect primitives between the rounded corners*
20,1,$1+$1,$2,$3,$4,$5,0*
20,1,$1+$1,$4,$5,$6,$7,0*
20,1,$1+$1,$6,$7,$8,$9,0*
20,1,$1+$1,$8,$9,$2,$3,0*%
G04 Aperture macros list end*
%ADD10C,0.200000*%
%ADD11C,0.125000*%
%ADD12C,0.150000*%
%ADD13C,0.120000*%
%ADD14C,0.100000*%
%ADD15C,0.250000*%
%ADD16RoundRect,0.200000X-0.200000X-0.275000X0.200000X-0.275000X0.200000X0.275000X-0.200000X0.275000X0*%
%ADD17RoundRect,0.200000X0.200000X0.275000X-0.200000X0.275000X-0.200000X-0.275000X0.200000X-0.275000X0*%
%ADD18C,4.000000*%
%ADD19R,1.600000X1.600000*%
%ADD20C,1.600000*%
%ADD21RoundRect,0.225000X-0.250000X0.225000X-0.250000X-0.225000X0.250000X-0.225000X0.250000X0.225000X0*%
%ADD22R,1.200000X2.000000*%
%ADD23O,1.200000X2.000000*%
%ADD24R,1.000000X5.500000*%
%ADD25R,1.600000X3.000000*%
%ADD26R,1.700000X1.700000*%
%ADD27O,1.700000X1.700000*%
%ADD28R,0.700000X1.200000*%
%ADD29RoundRect,0.200000X-0.275000X0.200000X-0.275000X-0.200000X0.275000X-0.200000X0.275000X0.200000X0*%
%ADD30C,2.100000*%
%ADD31C,1.750000*%
%ADD32RoundRect,0.225000X0.225000X0.250000X-0.225000X0.250000X-0.225000X-0.250000X0.225000X-0.250000X0*%
%ADD33RoundRect,0.225000X-0.225000X-0.250000X0.225000X-0.250000X0.225000X0.250000X-0.225000X0.250000X0*%
%ADD34R,0.500000X1.000000*%
%ADD35R,1.300000X1.400000*%
%ADD36O,2.020000X0.360000*%
G04 APERTURE END LIST*
D10*
X57785673Y-76115266D02*
X58547578Y-76115266D01*
D11*
X121144500Y-83281999D02*
X121115928Y-83367714D01*
X121115928Y-83367714D02*
X121115928Y-83510571D01*
X121115928Y-83510571D02*
X121144500Y-83567714D01*
X121144500Y-83567714D02*
X121173071Y-83596285D01*
X121173071Y-83596285D02*
X121230214Y-83624856D01*
X121230214Y-83624856D02*
X121287357Y-83624856D01*
X121287357Y-83624856D02*
X121344500Y-83596285D01*
X121344500Y-83596285D02*
X121373071Y-83567714D01*
X121373071Y-83567714D02*
X121401642Y-83510571D01*
X121401642Y-83510571D02*
X121430214Y-83396285D01*
X121430214Y-83396285D02*
X121458785Y-83339142D01*
X121458785Y-83339142D02*
X121487357Y-83310571D01*
X121487357Y-83310571D02*
X121544500Y-83281999D01*
X121544500Y-83281999D02*
X121601642Y-83281999D01*
X121601642Y-83281999D02*
X121658785Y-83310571D01*
X121658785Y-83310571D02*
X121687357Y-83339142D01*
X121687357Y-83339142D02*
X121715928Y-83396285D01*
X121715928Y-83396285D02*
X121715928Y-83539142D01*
X121715928Y-83539142D02*
X121687357Y-83624856D01*
X121115928Y-83882000D02*
X121715928Y-83882000D01*
X121715928Y-83882000D02*
X121715928Y-84110571D01*
X121715928Y-84110571D02*
X121687357Y-84167714D01*
X121687357Y-84167714D02*
X121658785Y-84196285D01*
X121658785Y-84196285D02*
X121601642Y-84224857D01*
X121601642Y-84224857D02*
X121515928Y-84224857D01*
X121515928Y-84224857D02*
X121458785Y-84196285D01*
X121458785Y-84196285D02*
X121430214Y-84167714D01*
X121430214Y-84167714D02*
X121401642Y-84110571D01*
X121401642Y-84110571D02*
X121401642Y-83882000D01*
X121287357Y-84453428D02*
X121287357Y-84739143D01*
X121115928Y-84396285D02*
X121715928Y-84596285D01*
X121715928Y-84596285D02*
X121115928Y-84796285D01*
X121115928Y-85339143D02*
X121401642Y-85139143D01*
X121115928Y-84996286D02*
X121715928Y-84996286D01*
X121715928Y-84996286D02*
X121715928Y-85224857D01*
X121715928Y-85224857D02*
X121687357Y-85282000D01*
X121687357Y-85282000D02*
X121658785Y-85310571D01*
X121658785Y-85310571D02*
X121601642Y-85339143D01*
X121601642Y-85339143D02*
X121515928Y-85339143D01*
X121515928Y-85339143D02*
X121458785Y-85310571D01*
X121458785Y-85310571D02*
X121430214Y-85282000D01*
X121430214Y-85282000D02*
X121401642Y-85224857D01*
X121401642Y-85224857D02*
X121401642Y-84996286D01*
X121430214Y-85596286D02*
X121430214Y-85796286D01*
X121115928Y-85882000D02*
X121115928Y-85596286D01*
X121115928Y-85596286D02*
X121715928Y-85596286D01*
X121715928Y-85596286D02*
X121715928Y-85882000D01*
X120149928Y-83953429D02*
X120749928Y-83953429D01*
X120778500Y-84667714D02*
X120007071Y-84153428D01*
X120749928Y-84981999D02*
X120749928Y-85096285D01*
X120749928Y-85096285D02*
X120721357Y-85153428D01*
X120721357Y-85153428D02*
X120664214Y-85210571D01*
X120664214Y-85210571D02*
X120549928Y-85239142D01*
X120549928Y-85239142D02*
X120349928Y-85239142D01*
X120349928Y-85239142D02*
X120235642Y-85210571D01*
X120235642Y-85210571D02*
X120178500Y-85153428D01*
X120178500Y-85153428D02*
X120149928Y-85096285D01*
X120149928Y-85096285D02*
X120149928Y-84981999D01*
X120149928Y-84981999D02*
X120178500Y-84924857D01*
X120178500Y-84924857D02*
X120235642Y-84867714D01*
X120235642Y-84867714D02*
X120349928Y-84839142D01*
X120349928Y-84839142D02*
X120549928Y-84839142D01*
X120549928Y-84839142D02*
X120664214Y-84867714D01*
X120664214Y-84867714D02*
X120721357Y-84924857D01*
X120721357Y-84924857D02*
X120749928Y-84981999D01*
D10*
X57773673Y-79115266D02*
X58535578Y-79115266D01*
X58154625Y-79496219D02*
X58154625Y-78734314D01*
X59758006Y-74140409D02*
X59900863Y-74188028D01*
X59900863Y-74188028D02*
X59948482Y-74235647D01*
X59948482Y-74235647D02*
X59996101Y-74330885D01*
X59996101Y-74330885D02*
X59996101Y-74473742D01*
X59996101Y-74473742D02*
X59948482Y-74568980D01*
X59948482Y-74568980D02*
X59900863Y-74616600D01*
X59900863Y-74616600D02*
X59805625Y-74664219D01*
X59805625Y-74664219D02*
X59424673Y-74664219D01*
X59424673Y-74664219D02*
X59424673Y-73664219D01*
X59424673Y-73664219D02*
X59758006Y-73664219D01*
X59758006Y-73664219D02*
X59853244Y-73711838D01*
X59853244Y-73711838D02*
X59900863Y-73759457D01*
X59900863Y-73759457D02*
X59948482Y-73854695D01*
X59948482Y-73854695D02*
X59948482Y-73949933D01*
X59948482Y-73949933D02*
X59900863Y-74045171D01*
X59900863Y-74045171D02*
X59853244Y-74092790D01*
X59853244Y-74092790D02*
X59758006Y-74140409D01*
X59758006Y-74140409D02*
X59424673Y-74140409D01*
X60377054Y-74378504D02*
X60853244Y-74378504D01*
X60281816Y-74664219D02*
X60615149Y-73664219D01*
X60615149Y-73664219D02*
X60948482Y-74664219D01*
X61138959Y-73664219D02*
X61710387Y-73664219D01*
X61424673Y-74664219D02*
X61424673Y-73664219D01*
X59621028Y-95864571D02*
X58906742Y-96364571D01*
X59621028Y-96721714D02*
X58121028Y-96721714D01*
X58121028Y-96721714D02*
X58121028Y-96150285D01*
X58121028Y-96150285D02*
X58192457Y-96007428D01*
X58192457Y-96007428D02*
X58263885Y-95935999D01*
X58263885Y-95935999D02*
X58406742Y-95864571D01*
X58406742Y-95864571D02*
X58621028Y-95864571D01*
X58621028Y-95864571D02*
X58763885Y-95935999D01*
X58763885Y-95935999D02*
X58835314Y-96007428D01*
X58835314Y-96007428D02*
X58906742Y-96150285D01*
X58906742Y-96150285D02*
X58906742Y-96721714D01*
X59549600Y-94650285D02*
X59621028Y-94793142D01*
X59621028Y-94793142D02*
X59621028Y-95078857D01*
X59621028Y-95078857D02*
X59549600Y-95221714D01*
X59549600Y-95221714D02*
X59406742Y-95293142D01*
X59406742Y-95293142D02*
X58835314Y-95293142D01*
X58835314Y-95293142D02*
X58692457Y-95221714D01*
X58692457Y-95221714D02*
X58621028Y-95078857D01*
X58621028Y-95078857D02*
X58621028Y-94793142D01*
X58621028Y-94793142D02*
X58692457Y-94650285D01*
X58692457Y-94650285D02*
X58835314Y-94578857D01*
X58835314Y-94578857D02*
X58978171Y-94578857D01*
X58978171Y-94578857D02*
X59121028Y-95293142D01*
X58621028Y-94150285D02*
X58621028Y-93578857D01*
X58121028Y-93936000D02*
X59406742Y-93936000D01*
X59406742Y-93936000D02*
X59549600Y-93864571D01*
X59549600Y-93864571D02*
X59621028Y-93721714D01*
X59621028Y-93721714D02*
X59621028Y-93578857D01*
X59621028Y-93078857D02*
X58621028Y-93078857D01*
X58906742Y-93078857D02*
X58763885Y-93007428D01*
X58763885Y-93007428D02*
X58692457Y-92936000D01*
X58692457Y-92936000D02*
X58621028Y-92793142D01*
X58621028Y-92793142D02*
X58621028Y-92650285D01*
X59621028Y-91936000D02*
X59549600Y-92078857D01*
X59549600Y-92078857D02*
X59478171Y-92150286D01*
X59478171Y-92150286D02*
X59335314Y-92221714D01*
X59335314Y-92221714D02*
X58906742Y-92221714D01*
X58906742Y-92221714D02*
X58763885Y-92150286D01*
X58763885Y-92150286D02*
X58692457Y-92078857D01*
X58692457Y-92078857D02*
X58621028Y-91936000D01*
X58621028Y-91936000D02*
X58621028Y-91721714D01*
X58621028Y-91721714D02*
X58692457Y-91578857D01*
X58692457Y-91578857D02*
X58763885Y-91507429D01*
X58763885Y-91507429D02*
X58906742Y-91436000D01*
X58906742Y-91436000D02*
X59335314Y-91436000D01*
X59335314Y-91436000D02*
X59478171Y-91507429D01*
X59478171Y-91507429D02*
X59549600Y-91578857D01*
X59549600Y-91578857D02*
X59621028Y-91721714D01*
X59621028Y-91721714D02*
X59621028Y-91936000D01*
X59621028Y-90793143D02*
X58121028Y-90793143D01*
X58121028Y-90793143D02*
X58121028Y-90436000D01*
X58121028Y-90436000D02*
X58192457Y-90221714D01*
X58192457Y-90221714D02*
X58335314Y-90078857D01*
X58335314Y-90078857D02*
X58478171Y-90007428D01*
X58478171Y-90007428D02*
X58763885Y-89936000D01*
X58763885Y-89936000D02*
X58978171Y-89936000D01*
X58978171Y-89936000D02*
X59263885Y-90007428D01*
X59263885Y-90007428D02*
X59406742Y-90078857D01*
X59406742Y-90078857D02*
X59549600Y-90221714D01*
X59549600Y-90221714D02*
X59621028Y-90436000D01*
X59621028Y-90436000D02*
X59621028Y-90793143D01*
X59621028Y-89293143D02*
X58621028Y-89293143D01*
X58121028Y-89293143D02*
X58192457Y-89364571D01*
X58192457Y-89364571D02*
X58263885Y-89293143D01*
X58263885Y-89293143D02*
X58192457Y-89221714D01*
X58192457Y-89221714D02*
X58121028Y-89293143D01*
X58121028Y-89293143D02*
X58263885Y-89293143D01*
X59549600Y-88650285D02*
X59621028Y-88507428D01*
X59621028Y-88507428D02*
X59621028Y-88221714D01*
X59621028Y-88221714D02*
X59549600Y-88078857D01*
X59549600Y-88078857D02*
X59406742Y-88007428D01*
X59406742Y-88007428D02*
X59335314Y-88007428D01*
X59335314Y-88007428D02*
X59192457Y-88078857D01*
X59192457Y-88078857D02*
X59121028Y-88221714D01*
X59121028Y-88221714D02*
X59121028Y-88436000D01*
X59121028Y-88436000D02*
X59049600Y-88578857D01*
X59049600Y-88578857D02*
X58906742Y-88650285D01*
X58906742Y-88650285D02*
X58835314Y-88650285D01*
X58835314Y-88650285D02*
X58692457Y-88578857D01*
X58692457Y-88578857D02*
X58621028Y-88436000D01*
X58621028Y-88436000D02*
X58621028Y-88221714D01*
X58621028Y-88221714D02*
X58692457Y-88078857D01*
X59621028Y-87364571D02*
X58121028Y-87364571D01*
X59049600Y-87221714D02*
X59621028Y-86793142D01*
X58621028Y-86793142D02*
X59192457Y-87364571D01*
X59549600Y-86221713D02*
X59621028Y-86078856D01*
X59621028Y-86078856D02*
X59621028Y-85793142D01*
X59621028Y-85793142D02*
X59549600Y-85650285D01*
X59549600Y-85650285D02*
X59406742Y-85578856D01*
X59406742Y-85578856D02*
X59335314Y-85578856D01*
X59335314Y-85578856D02*
X59192457Y-85650285D01*
X59192457Y-85650285D02*
X59121028Y-85793142D01*
X59121028Y-85793142D02*
X59121028Y-86007428D01*
X59121028Y-86007428D02*
X59049600Y-86150285D01*
X59049600Y-86150285D02*
X58906742Y-86221713D01*
X58906742Y-86221713D02*
X58835314Y-86221713D01*
X58835314Y-86221713D02*
X58692457Y-86150285D01*
X58692457Y-86150285D02*
X58621028Y-86007428D01*
X58621028Y-86007428D02*
X58621028Y-85793142D01*
X58621028Y-85793142D02*
X58692457Y-85650285D01*
X60536028Y-96257428D02*
X62036028Y-95900285D01*
X62036028Y-95900285D02*
X60964600Y-95614571D01*
X60964600Y-95614571D02*
X62036028Y-95328856D01*
X62036028Y-95328856D02*
X60536028Y-94971714D01*
X62036028Y-94400285D02*
X61036028Y-94400285D01*
X60536028Y-94400285D02*
X60607457Y-94471713D01*
X60607457Y-94471713D02*
X60678885Y-94400285D01*
X60678885Y-94400285D02*
X60607457Y-94328856D01*
X60607457Y-94328856D02*
X60536028Y-94400285D01*
X60536028Y-94400285D02*
X60678885Y-94400285D01*
X62036028Y-92828856D02*
X61321742Y-93328856D01*
X62036028Y-93685999D02*
X60536028Y-93685999D01*
X60536028Y-93685999D02*
X60536028Y-93114570D01*
X60536028Y-93114570D02*
X60607457Y-92971713D01*
X60607457Y-92971713D02*
X60678885Y-92900284D01*
X60678885Y-92900284D02*
X60821742Y-92828856D01*
X60821742Y-92828856D02*
X61036028Y-92828856D01*
X61036028Y-92828856D02*
X61178885Y-92900284D01*
X61178885Y-92900284D02*
X61250314Y-92971713D01*
X61250314Y-92971713D02*
X61321742Y-93114570D01*
X61321742Y-93114570D02*
X61321742Y-93685999D01*
X61964600Y-92257427D02*
X62036028Y-92043142D01*
X62036028Y-92043142D02*
X62036028Y-91685999D01*
X62036028Y-91685999D02*
X61964600Y-91543142D01*
X61964600Y-91543142D02*
X61893171Y-91471713D01*
X61893171Y-91471713D02*
X61750314Y-91400284D01*
X61750314Y-91400284D02*
X61607457Y-91400284D01*
X61607457Y-91400284D02*
X61464600Y-91471713D01*
X61464600Y-91471713D02*
X61393171Y-91543142D01*
X61393171Y-91543142D02*
X61321742Y-91685999D01*
X61321742Y-91685999D02*
X61250314Y-91971713D01*
X61250314Y-91971713D02*
X61178885Y-92114570D01*
X61178885Y-92114570D02*
X61107457Y-92185999D01*
X61107457Y-92185999D02*
X60964600Y-92257427D01*
X60964600Y-92257427D02*
X60821742Y-92257427D01*
X60821742Y-92257427D02*
X60678885Y-92185999D01*
X60678885Y-92185999D02*
X60607457Y-92114570D01*
X60607457Y-92114570D02*
X60536028Y-91971713D01*
X60536028Y-91971713D02*
X60536028Y-91614570D01*
X60536028Y-91614570D02*
X60607457Y-91400284D01*
X62036028Y-90114571D02*
X61250314Y-90114571D01*
X61250314Y-90114571D02*
X61107457Y-90185999D01*
X61107457Y-90185999D02*
X61036028Y-90328856D01*
X61036028Y-90328856D02*
X61036028Y-90614571D01*
X61036028Y-90614571D02*
X61107457Y-90757428D01*
X61964600Y-90114571D02*
X62036028Y-90257428D01*
X62036028Y-90257428D02*
X62036028Y-90614571D01*
X62036028Y-90614571D02*
X61964600Y-90757428D01*
X61964600Y-90757428D02*
X61821742Y-90828856D01*
X61821742Y-90828856D02*
X61678885Y-90828856D01*
X61678885Y-90828856D02*
X61536028Y-90757428D01*
X61536028Y-90757428D02*
X61464600Y-90614571D01*
X61464600Y-90614571D02*
X61464600Y-90257428D01*
X61464600Y-90257428D02*
X61393171Y-90114571D01*
X60536028Y-88471713D02*
X62036028Y-87971713D01*
X62036028Y-87971713D02*
X60536028Y-87471713D01*
X60536028Y-87114571D02*
X60536028Y-86185999D01*
X60536028Y-86185999D02*
X61107457Y-86685999D01*
X61107457Y-86685999D02*
X61107457Y-86471714D01*
X61107457Y-86471714D02*
X61178885Y-86328857D01*
X61178885Y-86328857D02*
X61250314Y-86257428D01*
X61250314Y-86257428D02*
X61393171Y-86185999D01*
X61393171Y-86185999D02*
X61750314Y-86185999D01*
X61750314Y-86185999D02*
X61893171Y-86257428D01*
X61893171Y-86257428D02*
X61964600Y-86328857D01*
X61964600Y-86328857D02*
X62036028Y-86471714D01*
X62036028Y-86471714D02*
X62036028Y-86900285D01*
X62036028Y-86900285D02*
X61964600Y-87043142D01*
X61964600Y-87043142D02*
X61893171Y-87114571D01*
D12*
X86756333Y-80923319D02*
X86423000Y-80447128D01*
X86184905Y-80923319D02*
X86184905Y-79923319D01*
X86184905Y-79923319D02*
X86565857Y-79923319D01*
X86565857Y-79923319D02*
X86661095Y-79970938D01*
X86661095Y-79970938D02*
X86708714Y-80018557D01*
X86708714Y-80018557D02*
X86756333Y-80113795D01*
X86756333Y-80113795D02*
X86756333Y-80256652D01*
X86756333Y-80256652D02*
X86708714Y-80351890D01*
X86708714Y-80351890D02*
X86661095Y-80399509D01*
X86661095Y-80399509D02*
X86565857Y-80447128D01*
X86565857Y-80447128D02*
X86184905Y-80447128D01*
X87708714Y-80923319D02*
X87137286Y-80923319D01*
X87423000Y-80923319D02*
X87423000Y-79923319D01*
X87423000Y-79923319D02*
X87327762Y-80066176D01*
X87327762Y-80066176D02*
X87232524Y-80161414D01*
X87232524Y-80161414D02*
X87137286Y-80209033D01*
X116347333Y-80923319D02*
X116014000Y-80447128D01*
X115775905Y-80923319D02*
X115775905Y-79923319D01*
X115775905Y-79923319D02*
X116156857Y-79923319D01*
X116156857Y-79923319D02*
X116252095Y-79970938D01*
X116252095Y-79970938D02*
X116299714Y-80018557D01*
X116299714Y-80018557D02*
X116347333Y-80113795D01*
X116347333Y-80113795D02*
X116347333Y-80256652D01*
X116347333Y-80256652D02*
X116299714Y-80351890D01*
X116299714Y-80351890D02*
X116252095Y-80399509D01*
X116252095Y-80399509D02*
X116156857Y-80447128D01*
X116156857Y-80447128D02*
X115775905Y-80447128D01*
X117204476Y-80256652D02*
X117204476Y-80923319D01*
X116966381Y-79875700D02*
X116728286Y-80589985D01*
X116728286Y-80589985D02*
X117347333Y-80589985D01*
X76824344Y-86698922D02*
X75824344Y-86698922D01*
X75824344Y-86698922D02*
X75824344Y-86460827D01*
X75824344Y-86460827D02*
X75871963Y-86317970D01*
X75871963Y-86317970D02*
X75967201Y-86222732D01*
X75967201Y-86222732D02*
X76062439Y-86175113D01*
X76062439Y-86175113D02*
X76252915Y-86127494D01*
X76252915Y-86127494D02*
X76395772Y-86127494D01*
X76395772Y-86127494D02*
X76586248Y-86175113D01*
X76586248Y-86175113D02*
X76681486Y-86222732D01*
X76681486Y-86222732D02*
X76776725Y-86317970D01*
X76776725Y-86317970D02*
X76824344Y-86460827D01*
X76824344Y-86460827D02*
X76824344Y-86698922D01*
X75919582Y-85746541D02*
X75871963Y-85698922D01*
X75871963Y-85698922D02*
X75824344Y-85603684D01*
X75824344Y-85603684D02*
X75824344Y-85365589D01*
X75824344Y-85365589D02*
X75871963Y-85270351D01*
X75871963Y-85270351D02*
X75919582Y-85222732D01*
X75919582Y-85222732D02*
X76014820Y-85175113D01*
X76014820Y-85175113D02*
X76110058Y-85175113D01*
X76110058Y-85175113D02*
X76252915Y-85222732D01*
X76252915Y-85222732D02*
X76824344Y-85794160D01*
X76824344Y-85794160D02*
X76824344Y-85175113D01*
X75919582Y-84794160D02*
X75871963Y-84746541D01*
X75871963Y-84746541D02*
X75824344Y-84651303D01*
X75824344Y-84651303D02*
X75824344Y-84413208D01*
X75824344Y-84413208D02*
X75871963Y-84317970D01*
X75871963Y-84317970D02*
X75919582Y-84270351D01*
X75919582Y-84270351D02*
X76014820Y-84222732D01*
X76014820Y-84222732D02*
X76110058Y-84222732D01*
X76110058Y-84222732D02*
X76252915Y-84270351D01*
X76252915Y-84270351D02*
X76824344Y-84841779D01*
X76824344Y-84841779D02*
X76824344Y-84222732D01*
X84444344Y-86698922D02*
X83444344Y-86698922D01*
X83444344Y-86698922D02*
X83444344Y-86460827D01*
X83444344Y-86460827D02*
X83491963Y-86317970D01*
X83491963Y-86317970D02*
X83587201Y-86222732D01*
X83587201Y-86222732D02*
X83682439Y-86175113D01*
X83682439Y-86175113D02*
X83872915Y-86127494D01*
X83872915Y-86127494D02*
X84015772Y-86127494D01*
X84015772Y-86127494D02*
X84206248Y-86175113D01*
X84206248Y-86175113D02*
X84301486Y-86222732D01*
X84301486Y-86222732D02*
X84396725Y-86317970D01*
X84396725Y-86317970D02*
X84444344Y-86460827D01*
X84444344Y-86460827D02*
X84444344Y-86698922D01*
X83539582Y-85746541D02*
X83491963Y-85698922D01*
X83491963Y-85698922D02*
X83444344Y-85603684D01*
X83444344Y-85603684D02*
X83444344Y-85365589D01*
X83444344Y-85365589D02*
X83491963Y-85270351D01*
X83491963Y-85270351D02*
X83539582Y-85222732D01*
X83539582Y-85222732D02*
X83634820Y-85175113D01*
X83634820Y-85175113D02*
X83730058Y-85175113D01*
X83730058Y-85175113D02*
X83872915Y-85222732D01*
X83872915Y-85222732D02*
X84444344Y-85794160D01*
X84444344Y-85794160D02*
X84444344Y-85175113D01*
X84444344Y-84222732D02*
X84444344Y-84794160D01*
X84444344Y-84508446D02*
X83444344Y-84508446D01*
X83444344Y-84508446D02*
X83587201Y-84603684D01*
X83587201Y-84603684D02*
X83682439Y-84698922D01*
X83682439Y-84698922D02*
X83730058Y-84794160D01*
X84611816Y-106317231D02*
X83611816Y-106317231D01*
X83611816Y-106317231D02*
X83611816Y-106079136D01*
X83611816Y-106079136D02*
X83659435Y-105936279D01*
X83659435Y-105936279D02*
X83754673Y-105841041D01*
X83754673Y-105841041D02*
X83849911Y-105793422D01*
X83849911Y-105793422D02*
X84040387Y-105745803D01*
X84040387Y-105745803D02*
X84183244Y-105745803D01*
X84183244Y-105745803D02*
X84373720Y-105793422D01*
X84373720Y-105793422D02*
X84468958Y-105841041D01*
X84468958Y-105841041D02*
X84564197Y-105936279D01*
X84564197Y-105936279D02*
X84611816Y-106079136D01*
X84611816Y-106079136D02*
X84611816Y-106317231D01*
X83611816Y-105412469D02*
X83611816Y-104793422D01*
X83611816Y-104793422D02*
X83992768Y-105126755D01*
X83992768Y-105126755D02*
X83992768Y-104983898D01*
X83992768Y-104983898D02*
X84040387Y-104888660D01*
X84040387Y-104888660D02*
X84088006Y-104841041D01*
X84088006Y-104841041D02*
X84183244Y-104793422D01*
X84183244Y-104793422D02*
X84421339Y-104793422D01*
X84421339Y-104793422D02*
X84516577Y-104841041D01*
X84516577Y-104841041D02*
X84564197Y-104888660D01*
X84564197Y-104888660D02*
X84611816Y-104983898D01*
X84611816Y-104983898D02*
X84611816Y-105269612D01*
X84611816Y-105269612D02*
X84564197Y-105364850D01*
X84564197Y-105364850D02*
X84516577Y-105412469D01*
X83611816Y-103888660D02*
X83611816Y-104364850D01*
X83611816Y-104364850D02*
X84088006Y-104412469D01*
X84088006Y-104412469D02*
X84040387Y-104364850D01*
X84040387Y-104364850D02*
X83992768Y-104269612D01*
X83992768Y-104269612D02*
X83992768Y-104031517D01*
X83992768Y-104031517D02*
X84040387Y-103936279D01*
X84040387Y-103936279D02*
X84088006Y-103888660D01*
X84088006Y-103888660D02*
X84183244Y-103841041D01*
X84183244Y-103841041D02*
X84421339Y-103841041D01*
X84421339Y-103841041D02*
X84516577Y-103888660D01*
X84516577Y-103888660D02*
X84564197Y-103936279D01*
X84564197Y-103936279D02*
X84611816Y-104031517D01*
X84611816Y-104031517D02*
X84611816Y-104269612D01*
X84611816Y-104269612D02*
X84564197Y-104364850D01*
X84564197Y-104364850D02*
X84516577Y-104412469D01*
X104764344Y-86698922D02*
X103764344Y-86698922D01*
X103764344Y-86698922D02*
X103764344Y-86460827D01*
X103764344Y-86460827D02*
X103811963Y-86317970D01*
X103811963Y-86317970D02*
X103907201Y-86222732D01*
X103907201Y-86222732D02*
X104002439Y-86175113D01*
X104002439Y-86175113D02*
X104192915Y-86127494D01*
X104192915Y-86127494D02*
X104335772Y-86127494D01*
X104335772Y-86127494D02*
X104526248Y-86175113D01*
X104526248Y-86175113D02*
X104621486Y-86222732D01*
X104621486Y-86222732D02*
X104716725Y-86317970D01*
X104716725Y-86317970D02*
X104764344Y-86460827D01*
X104764344Y-86460827D02*
X104764344Y-86698922D01*
X104764344Y-85175113D02*
X104764344Y-85746541D01*
X104764344Y-85460827D02*
X103764344Y-85460827D01*
X103764344Y-85460827D02*
X103907201Y-85556065D01*
X103907201Y-85556065D02*
X104002439Y-85651303D01*
X104002439Y-85651303D02*
X104050058Y-85746541D01*
X103764344Y-84270351D02*
X103764344Y-84746541D01*
X103764344Y-84746541D02*
X104240534Y-84794160D01*
X104240534Y-84794160D02*
X104192915Y-84746541D01*
X104192915Y-84746541D02*
X104145296Y-84651303D01*
X104145296Y-84651303D02*
X104145296Y-84413208D01*
X104145296Y-84413208D02*
X104192915Y-84317970D01*
X104192915Y-84317970D02*
X104240534Y-84270351D01*
X104240534Y-84270351D02*
X104335772Y-84222732D01*
X104335772Y-84222732D02*
X104573867Y-84222732D01*
X104573867Y-84222732D02*
X104669105Y-84270351D01*
X104669105Y-84270351D02*
X104716725Y-84317970D01*
X104716725Y-84317970D02*
X104764344Y-84413208D01*
X104764344Y-84413208D02*
X104764344Y-84651303D01*
X104764344Y-84651303D02*
X104716725Y-84746541D01*
X104716725Y-84746541D02*
X104669105Y-84794160D01*
X89691816Y-106317231D02*
X88691816Y-106317231D01*
X88691816Y-106317231D02*
X88691816Y-106079136D01*
X88691816Y-106079136D02*
X88739435Y-105936279D01*
X88739435Y-105936279D02*
X88834673Y-105841041D01*
X88834673Y-105841041D02*
X88929911Y-105793422D01*
X88929911Y-105793422D02*
X89120387Y-105745803D01*
X89120387Y-105745803D02*
X89263244Y-105745803D01*
X89263244Y-105745803D02*
X89453720Y-105793422D01*
X89453720Y-105793422D02*
X89548958Y-105841041D01*
X89548958Y-105841041D02*
X89644197Y-105936279D01*
X89644197Y-105936279D02*
X89691816Y-106079136D01*
X89691816Y-106079136D02*
X89691816Y-106317231D01*
X88691816Y-105412469D02*
X88691816Y-104793422D01*
X88691816Y-104793422D02*
X89072768Y-105126755D01*
X89072768Y-105126755D02*
X89072768Y-104983898D01*
X89072768Y-104983898D02*
X89120387Y-104888660D01*
X89120387Y-104888660D02*
X89168006Y-104841041D01*
X89168006Y-104841041D02*
X89263244Y-104793422D01*
X89263244Y-104793422D02*
X89501339Y-104793422D01*
X89501339Y-104793422D02*
X89596577Y-104841041D01*
X89596577Y-104841041D02*
X89644197Y-104888660D01*
X89644197Y-104888660D02*
X89691816Y-104983898D01*
X89691816Y-104983898D02*
X89691816Y-105269612D01*
X89691816Y-105269612D02*
X89644197Y-105364850D01*
X89644197Y-105364850D02*
X89596577Y-105412469D01*
X88691816Y-104460088D02*
X88691816Y-103841041D01*
X88691816Y-103841041D02*
X89072768Y-104174374D01*
X89072768Y-104174374D02*
X89072768Y-104031517D01*
X89072768Y-104031517D02*
X89120387Y-103936279D01*
X89120387Y-103936279D02*
X89168006Y-103888660D01*
X89168006Y-103888660D02*
X89263244Y-103841041D01*
X89263244Y-103841041D02*
X89501339Y-103841041D01*
X89501339Y-103841041D02*
X89596577Y-103888660D01*
X89596577Y-103888660D02*
X89644197Y-103936279D01*
X89644197Y-103936279D02*
X89691816Y-104031517D01*
X89691816Y-104031517D02*
X89691816Y-104317231D01*
X89691816Y-104317231D02*
X89644197Y-104412469D01*
X89644197Y-104412469D02*
X89596577Y-104460088D01*
X75991816Y-106430088D02*
X76991816Y-106096755D01*
X76991816Y-106096755D02*
X75991816Y-105763422D01*
X76991816Y-105430088D02*
X75991816Y-105430088D01*
X75991816Y-105430088D02*
X75991816Y-105049136D01*
X75991816Y-105049136D02*
X76039435Y-104953898D01*
X76039435Y-104953898D02*
X76087054Y-104906279D01*
X76087054Y-104906279D02*
X76182292Y-104858660D01*
X76182292Y-104858660D02*
X76325149Y-104858660D01*
X76325149Y-104858660D02*
X76420387Y-104906279D01*
X76420387Y-104906279D02*
X76468006Y-104953898D01*
X76468006Y-104953898D02*
X76515625Y-105049136D01*
X76515625Y-105049136D02*
X76515625Y-105430088D01*
X106351963Y-86317970D02*
X106304344Y-86413208D01*
X106304344Y-86413208D02*
X106304344Y-86556065D01*
X106304344Y-86556065D02*
X106351963Y-86698922D01*
X106351963Y-86698922D02*
X106447201Y-86794160D01*
X106447201Y-86794160D02*
X106542439Y-86841779D01*
X106542439Y-86841779D02*
X106732915Y-86889398D01*
X106732915Y-86889398D02*
X106875772Y-86889398D01*
X106875772Y-86889398D02*
X107066248Y-86841779D01*
X107066248Y-86841779D02*
X107161486Y-86794160D01*
X107161486Y-86794160D02*
X107256725Y-86698922D01*
X107256725Y-86698922D02*
X107304344Y-86556065D01*
X107304344Y-86556065D02*
X107304344Y-86460827D01*
X107304344Y-86460827D02*
X107256725Y-86317970D01*
X107256725Y-86317970D02*
X107209105Y-86270351D01*
X107209105Y-86270351D02*
X106875772Y-86270351D01*
X106875772Y-86270351D02*
X106875772Y-86460827D01*
X107304344Y-85841779D02*
X106304344Y-85841779D01*
X106304344Y-85841779D02*
X107304344Y-85270351D01*
X107304344Y-85270351D02*
X106304344Y-85270351D01*
X107304344Y-84794160D02*
X106304344Y-84794160D01*
X106304344Y-84794160D02*
X106304344Y-84556065D01*
X106304344Y-84556065D02*
X106351963Y-84413208D01*
X106351963Y-84413208D02*
X106447201Y-84317970D01*
X106447201Y-84317970D02*
X106542439Y-84270351D01*
X106542439Y-84270351D02*
X106732915Y-84222732D01*
X106732915Y-84222732D02*
X106875772Y-84222732D01*
X106875772Y-84222732D02*
X107066248Y-84270351D01*
X107066248Y-84270351D02*
X107161486Y-84317970D01*
X107161486Y-84317970D02*
X107256725Y-84413208D01*
X107256725Y-84413208D02*
X107304344Y-84556065D01*
X107304344Y-84556065D02*
X107304344Y-84794160D01*
X78364344Y-86603684D02*
X78364344Y-86032256D01*
X79364344Y-86317970D02*
X78364344Y-86317970D01*
X78364344Y-85794160D02*
X79364344Y-85127494D01*
X78364344Y-85127494D02*
X79364344Y-85794160D01*
X78364344Y-84556065D02*
X78364344Y-84460827D01*
X78364344Y-84460827D02*
X78411963Y-84365589D01*
X78411963Y-84365589D02*
X78459582Y-84317970D01*
X78459582Y-84317970D02*
X78554820Y-84270351D01*
X78554820Y-84270351D02*
X78745296Y-84222732D01*
X78745296Y-84222732D02*
X78983391Y-84222732D01*
X78983391Y-84222732D02*
X79173867Y-84270351D01*
X79173867Y-84270351D02*
X79269105Y-84317970D01*
X79269105Y-84317970D02*
X79316725Y-84365589D01*
X79316725Y-84365589D02*
X79364344Y-84460827D01*
X79364344Y-84460827D02*
X79364344Y-84556065D01*
X79364344Y-84556065D02*
X79316725Y-84651303D01*
X79316725Y-84651303D02*
X79269105Y-84698922D01*
X79269105Y-84698922D02*
X79173867Y-84746541D01*
X79173867Y-84746541D02*
X78983391Y-84794160D01*
X78983391Y-84794160D02*
X78745296Y-84794160D01*
X78745296Y-84794160D02*
X78554820Y-84746541D01*
X78554820Y-84746541D02*
X78459582Y-84698922D01*
X78459582Y-84698922D02*
X78411963Y-84651303D01*
X78411963Y-84651303D02*
X78364344Y-84556065D01*
X97311816Y-106317231D02*
X96311816Y-106317231D01*
X96311816Y-106317231D02*
X96311816Y-106079136D01*
X96311816Y-106079136D02*
X96359435Y-105936279D01*
X96359435Y-105936279D02*
X96454673Y-105841041D01*
X96454673Y-105841041D02*
X96549911Y-105793422D01*
X96549911Y-105793422D02*
X96740387Y-105745803D01*
X96740387Y-105745803D02*
X96883244Y-105745803D01*
X96883244Y-105745803D02*
X97073720Y-105793422D01*
X97073720Y-105793422D02*
X97168958Y-105841041D01*
X97168958Y-105841041D02*
X97264197Y-105936279D01*
X97264197Y-105936279D02*
X97311816Y-106079136D01*
X97311816Y-106079136D02*
X97311816Y-106317231D01*
X96407054Y-105364850D02*
X96359435Y-105317231D01*
X96359435Y-105317231D02*
X96311816Y-105221993D01*
X96311816Y-105221993D02*
X96311816Y-104983898D01*
X96311816Y-104983898D02*
X96359435Y-104888660D01*
X96359435Y-104888660D02*
X96407054Y-104841041D01*
X96407054Y-104841041D02*
X96502292Y-104793422D01*
X96502292Y-104793422D02*
X96597530Y-104793422D01*
X96597530Y-104793422D02*
X96740387Y-104841041D01*
X96740387Y-104841041D02*
X97311816Y-105412469D01*
X97311816Y-105412469D02*
X97311816Y-104793422D01*
X96311816Y-104460088D02*
X96311816Y-103793422D01*
X96311816Y-103793422D02*
X97311816Y-104221993D01*
X92231816Y-106317231D02*
X91231816Y-106317231D01*
X91231816Y-106317231D02*
X91231816Y-106079136D01*
X91231816Y-106079136D02*
X91279435Y-105936279D01*
X91279435Y-105936279D02*
X91374673Y-105841041D01*
X91374673Y-105841041D02*
X91469911Y-105793422D01*
X91469911Y-105793422D02*
X91660387Y-105745803D01*
X91660387Y-105745803D02*
X91803244Y-105745803D01*
X91803244Y-105745803D02*
X91993720Y-105793422D01*
X91993720Y-105793422D02*
X92088958Y-105841041D01*
X92088958Y-105841041D02*
X92184197Y-105936279D01*
X92184197Y-105936279D02*
X92231816Y-106079136D01*
X92231816Y-106079136D02*
X92231816Y-106317231D01*
X91327054Y-105364850D02*
X91279435Y-105317231D01*
X91279435Y-105317231D02*
X91231816Y-105221993D01*
X91231816Y-105221993D02*
X91231816Y-104983898D01*
X91231816Y-104983898D02*
X91279435Y-104888660D01*
X91279435Y-104888660D02*
X91327054Y-104841041D01*
X91327054Y-104841041D02*
X91422292Y-104793422D01*
X91422292Y-104793422D02*
X91517530Y-104793422D01*
X91517530Y-104793422D02*
X91660387Y-104841041D01*
X91660387Y-104841041D02*
X92231816Y-105412469D01*
X92231816Y-105412469D02*
X92231816Y-104793422D01*
X91231816Y-103888660D02*
X91231816Y-104364850D01*
X91231816Y-104364850D02*
X91708006Y-104412469D01*
X91708006Y-104412469D02*
X91660387Y-104364850D01*
X91660387Y-104364850D02*
X91612768Y-104269612D01*
X91612768Y-104269612D02*
X91612768Y-104031517D01*
X91612768Y-104031517D02*
X91660387Y-103936279D01*
X91660387Y-103936279D02*
X91708006Y-103888660D01*
X91708006Y-103888660D02*
X91803244Y-103841041D01*
X91803244Y-103841041D02*
X92041339Y-103841041D01*
X92041339Y-103841041D02*
X92136577Y-103888660D01*
X92136577Y-103888660D02*
X92184197Y-103936279D01*
X92184197Y-103936279D02*
X92231816Y-104031517D01*
X92231816Y-104031517D02*
X92231816Y-104269612D01*
X92231816Y-104269612D02*
X92184197Y-104364850D01*
X92184197Y-104364850D02*
X92136577Y-104412469D01*
X104931816Y-106317231D02*
X103931816Y-106317231D01*
X103931816Y-106317231D02*
X103931816Y-106079136D01*
X103931816Y-106079136D02*
X103979435Y-105936279D01*
X103979435Y-105936279D02*
X104074673Y-105841041D01*
X104074673Y-105841041D02*
X104169911Y-105793422D01*
X104169911Y-105793422D02*
X104360387Y-105745803D01*
X104360387Y-105745803D02*
X104503244Y-105745803D01*
X104503244Y-105745803D02*
X104693720Y-105793422D01*
X104693720Y-105793422D02*
X104788958Y-105841041D01*
X104788958Y-105841041D02*
X104884197Y-105936279D01*
X104884197Y-105936279D02*
X104931816Y-106079136D01*
X104931816Y-106079136D02*
X104931816Y-106317231D01*
X104931816Y-104793422D02*
X104931816Y-105364850D01*
X104931816Y-105079136D02*
X103931816Y-105079136D01*
X103931816Y-105079136D02*
X104074673Y-105174374D01*
X104074673Y-105174374D02*
X104169911Y-105269612D01*
X104169911Y-105269612D02*
X104217530Y-105364850D01*
X103931816Y-104460088D02*
X103931816Y-103841041D01*
X103931816Y-103841041D02*
X104312768Y-104174374D01*
X104312768Y-104174374D02*
X104312768Y-104031517D01*
X104312768Y-104031517D02*
X104360387Y-103936279D01*
X104360387Y-103936279D02*
X104408006Y-103888660D01*
X104408006Y-103888660D02*
X104503244Y-103841041D01*
X104503244Y-103841041D02*
X104741339Y-103841041D01*
X104741339Y-103841041D02*
X104836577Y-103888660D01*
X104836577Y-103888660D02*
X104884197Y-103936279D01*
X104884197Y-103936279D02*
X104931816Y-104031517D01*
X104931816Y-104031517D02*
X104931816Y-104317231D01*
X104931816Y-104317231D02*
X104884197Y-104412469D01*
X104884197Y-104412469D02*
X104836577Y-104460088D01*
X92064344Y-85746541D02*
X91064344Y-85746541D01*
X91064344Y-85746541D02*
X91064344Y-85508446D01*
X91064344Y-85508446D02*
X91111963Y-85365589D01*
X91111963Y-85365589D02*
X91207201Y-85270351D01*
X91207201Y-85270351D02*
X91302439Y-85222732D01*
X91302439Y-85222732D02*
X91492915Y-85175113D01*
X91492915Y-85175113D02*
X91635772Y-85175113D01*
X91635772Y-85175113D02*
X91826248Y-85222732D01*
X91826248Y-85222732D02*
X91921486Y-85270351D01*
X91921486Y-85270351D02*
X92016725Y-85365589D01*
X92016725Y-85365589D02*
X92064344Y-85508446D01*
X92064344Y-85508446D02*
X92064344Y-85746541D01*
X91064344Y-84270351D02*
X91064344Y-84746541D01*
X91064344Y-84746541D02*
X91540534Y-84794160D01*
X91540534Y-84794160D02*
X91492915Y-84746541D01*
X91492915Y-84746541D02*
X91445296Y-84651303D01*
X91445296Y-84651303D02*
X91445296Y-84413208D01*
X91445296Y-84413208D02*
X91492915Y-84317970D01*
X91492915Y-84317970D02*
X91540534Y-84270351D01*
X91540534Y-84270351D02*
X91635772Y-84222732D01*
X91635772Y-84222732D02*
X91873867Y-84222732D01*
X91873867Y-84222732D02*
X91969105Y-84270351D01*
X91969105Y-84270351D02*
X92016725Y-84317970D01*
X92016725Y-84317970D02*
X92064344Y-84413208D01*
X92064344Y-84413208D02*
X92064344Y-84651303D01*
X92064344Y-84651303D02*
X92016725Y-84746541D01*
X92016725Y-84746541D02*
X91969105Y-84794160D01*
X99851816Y-106317231D02*
X98851816Y-106317231D01*
X98851816Y-106317231D02*
X98851816Y-106079136D01*
X98851816Y-106079136D02*
X98899435Y-105936279D01*
X98899435Y-105936279D02*
X98994673Y-105841041D01*
X98994673Y-105841041D02*
X99089911Y-105793422D01*
X99089911Y-105793422D02*
X99280387Y-105745803D01*
X99280387Y-105745803D02*
X99423244Y-105745803D01*
X99423244Y-105745803D02*
X99613720Y-105793422D01*
X99613720Y-105793422D02*
X99708958Y-105841041D01*
X99708958Y-105841041D02*
X99804197Y-105936279D01*
X99804197Y-105936279D02*
X99851816Y-106079136D01*
X99851816Y-106079136D02*
X99851816Y-106317231D01*
X99851816Y-104793422D02*
X99851816Y-105364850D01*
X99851816Y-105079136D02*
X98851816Y-105079136D01*
X98851816Y-105079136D02*
X98994673Y-105174374D01*
X98994673Y-105174374D02*
X99089911Y-105269612D01*
X99089911Y-105269612D02*
X99137530Y-105364850D01*
X99185149Y-103936279D02*
X99851816Y-103936279D01*
X98804197Y-104174374D02*
X99518482Y-104412469D01*
X99518482Y-104412469D02*
X99518482Y-103793422D01*
X82071816Y-106317231D02*
X81071816Y-106317231D01*
X81071816Y-106317231D02*
X81071816Y-106079136D01*
X81071816Y-106079136D02*
X81119435Y-105936279D01*
X81119435Y-105936279D02*
X81214673Y-105841041D01*
X81214673Y-105841041D02*
X81309911Y-105793422D01*
X81309911Y-105793422D02*
X81500387Y-105745803D01*
X81500387Y-105745803D02*
X81643244Y-105745803D01*
X81643244Y-105745803D02*
X81833720Y-105793422D01*
X81833720Y-105793422D02*
X81928958Y-105841041D01*
X81928958Y-105841041D02*
X82024197Y-105936279D01*
X82024197Y-105936279D02*
X82071816Y-106079136D01*
X82071816Y-106079136D02*
X82071816Y-106317231D01*
X81071816Y-105412469D02*
X81071816Y-104793422D01*
X81071816Y-104793422D02*
X81452768Y-105126755D01*
X81452768Y-105126755D02*
X81452768Y-104983898D01*
X81452768Y-104983898D02*
X81500387Y-104888660D01*
X81500387Y-104888660D02*
X81548006Y-104841041D01*
X81548006Y-104841041D02*
X81643244Y-104793422D01*
X81643244Y-104793422D02*
X81881339Y-104793422D01*
X81881339Y-104793422D02*
X81976577Y-104841041D01*
X81976577Y-104841041D02*
X82024197Y-104888660D01*
X82024197Y-104888660D02*
X82071816Y-104983898D01*
X82071816Y-104983898D02*
X82071816Y-105269612D01*
X82071816Y-105269612D02*
X82024197Y-105364850D01*
X82024197Y-105364850D02*
X81976577Y-105412469D01*
X81405149Y-103936279D02*
X82071816Y-103936279D01*
X81024197Y-104174374D02*
X81738482Y-104412469D01*
X81738482Y-104412469D02*
X81738482Y-103793422D01*
X87151816Y-106317231D02*
X86151816Y-106317231D01*
X86151816Y-106317231D02*
X86151816Y-106079136D01*
X86151816Y-106079136D02*
X86199435Y-105936279D01*
X86199435Y-105936279D02*
X86294673Y-105841041D01*
X86294673Y-105841041D02*
X86389911Y-105793422D01*
X86389911Y-105793422D02*
X86580387Y-105745803D01*
X86580387Y-105745803D02*
X86723244Y-105745803D01*
X86723244Y-105745803D02*
X86913720Y-105793422D01*
X86913720Y-105793422D02*
X87008958Y-105841041D01*
X87008958Y-105841041D02*
X87104197Y-105936279D01*
X87104197Y-105936279D02*
X87151816Y-106079136D01*
X87151816Y-106079136D02*
X87151816Y-106317231D01*
X86151816Y-105412469D02*
X86151816Y-104793422D01*
X86151816Y-104793422D02*
X86532768Y-105126755D01*
X86532768Y-105126755D02*
X86532768Y-104983898D01*
X86532768Y-104983898D02*
X86580387Y-104888660D01*
X86580387Y-104888660D02*
X86628006Y-104841041D01*
X86628006Y-104841041D02*
X86723244Y-104793422D01*
X86723244Y-104793422D02*
X86961339Y-104793422D01*
X86961339Y-104793422D02*
X87056577Y-104841041D01*
X87056577Y-104841041D02*
X87104197Y-104888660D01*
X87104197Y-104888660D02*
X87151816Y-104983898D01*
X87151816Y-104983898D02*
X87151816Y-105269612D01*
X87151816Y-105269612D02*
X87104197Y-105364850D01*
X87104197Y-105364850D02*
X87056577Y-105412469D01*
X86247054Y-104412469D02*
X86199435Y-104364850D01*
X86199435Y-104364850D02*
X86151816Y-104269612D01*
X86151816Y-104269612D02*
X86151816Y-104031517D01*
X86151816Y-104031517D02*
X86199435Y-103936279D01*
X86199435Y-103936279D02*
X86247054Y-103888660D01*
X86247054Y-103888660D02*
X86342292Y-103841041D01*
X86342292Y-103841041D02*
X86437530Y-103841041D01*
X86437530Y-103841041D02*
X86580387Y-103888660D01*
X86580387Y-103888660D02*
X87151816Y-104460088D01*
X87151816Y-104460088D02*
X87151816Y-103841041D01*
X106519435Y-105793422D02*
X106471816Y-105888660D01*
X106471816Y-105888660D02*
X106471816Y-106031517D01*
X106471816Y-106031517D02*
X106519435Y-106174374D01*
X106519435Y-106174374D02*
X106614673Y-106269612D01*
X106614673Y-106269612D02*
X106709911Y-106317231D01*
X106709911Y-106317231D02*
X106900387Y-106364850D01*
X106900387Y-106364850D02*
X107043244Y-106364850D01*
X107043244Y-106364850D02*
X107233720Y-106317231D01*
X107233720Y-106317231D02*
X107328958Y-106269612D01*
X107328958Y-106269612D02*
X107424197Y-106174374D01*
X107424197Y-106174374D02*
X107471816Y-106031517D01*
X107471816Y-106031517D02*
X107471816Y-105936279D01*
X107471816Y-105936279D02*
X107424197Y-105793422D01*
X107424197Y-105793422D02*
X107376577Y-105745803D01*
X107376577Y-105745803D02*
X107043244Y-105745803D01*
X107043244Y-105745803D02*
X107043244Y-105936279D01*
X107471816Y-105317231D02*
X106471816Y-105317231D01*
X106471816Y-105317231D02*
X107471816Y-104745803D01*
X107471816Y-104745803D02*
X106471816Y-104745803D01*
X107471816Y-104269612D02*
X106471816Y-104269612D01*
X106471816Y-104269612D02*
X106471816Y-104031517D01*
X106471816Y-104031517D02*
X106519435Y-103888660D01*
X106519435Y-103888660D02*
X106614673Y-103793422D01*
X106614673Y-103793422D02*
X106709911Y-103745803D01*
X106709911Y-103745803D02*
X106900387Y-103698184D01*
X106900387Y-103698184D02*
X107043244Y-103698184D01*
X107043244Y-103698184D02*
X107233720Y-103745803D01*
X107233720Y-103745803D02*
X107328958Y-103793422D01*
X107328958Y-103793422D02*
X107424197Y-103888660D01*
X107424197Y-103888660D02*
X107471816Y-104031517D01*
X107471816Y-104031517D02*
X107471816Y-104269612D01*
X97144344Y-86127494D02*
X96668153Y-86460827D01*
X97144344Y-86698922D02*
X96144344Y-86698922D01*
X96144344Y-86698922D02*
X96144344Y-86317970D01*
X96144344Y-86317970D02*
X96191963Y-86222732D01*
X96191963Y-86222732D02*
X96239582Y-86175113D01*
X96239582Y-86175113D02*
X96334820Y-86127494D01*
X96334820Y-86127494D02*
X96477677Y-86127494D01*
X96477677Y-86127494D02*
X96572915Y-86175113D01*
X96572915Y-86175113D02*
X96620534Y-86222732D01*
X96620534Y-86222732D02*
X96668153Y-86317970D01*
X96668153Y-86317970D02*
X96668153Y-86698922D01*
X96144344Y-85794160D02*
X97144344Y-85127494D01*
X96144344Y-85127494D02*
X97144344Y-85794160D01*
X96239582Y-84794160D02*
X96191963Y-84746541D01*
X96191963Y-84746541D02*
X96144344Y-84651303D01*
X96144344Y-84651303D02*
X96144344Y-84413208D01*
X96144344Y-84413208D02*
X96191963Y-84317970D01*
X96191963Y-84317970D02*
X96239582Y-84270351D01*
X96239582Y-84270351D02*
X96334820Y-84222732D01*
X96334820Y-84222732D02*
X96430058Y-84222732D01*
X96430058Y-84222732D02*
X96572915Y-84270351D01*
X96572915Y-84270351D02*
X97144344Y-84841779D01*
X97144344Y-84841779D02*
X97144344Y-84222732D01*
X78531816Y-106460088D02*
X79531816Y-106126755D01*
X79531816Y-106126755D02*
X78531816Y-105793422D01*
X79531816Y-105460088D02*
X78531816Y-105460088D01*
X78531816Y-105460088D02*
X79531816Y-104888660D01*
X79531816Y-104888660D02*
X78531816Y-104888660D01*
X93604344Y-86603684D02*
X93604344Y-86032256D01*
X94604344Y-86317970D02*
X93604344Y-86317970D01*
X93604344Y-85794160D02*
X94604344Y-85127494D01*
X93604344Y-85127494D02*
X94604344Y-85794160D01*
X93699582Y-84794160D02*
X93651963Y-84746541D01*
X93651963Y-84746541D02*
X93604344Y-84651303D01*
X93604344Y-84651303D02*
X93604344Y-84413208D01*
X93604344Y-84413208D02*
X93651963Y-84317970D01*
X93651963Y-84317970D02*
X93699582Y-84270351D01*
X93699582Y-84270351D02*
X93794820Y-84222732D01*
X93794820Y-84222732D02*
X93890058Y-84222732D01*
X93890058Y-84222732D02*
X94032915Y-84270351D01*
X94032915Y-84270351D02*
X94604344Y-84841779D01*
X94604344Y-84841779D02*
X94604344Y-84222732D01*
X102224344Y-85746541D02*
X101224344Y-85746541D01*
X101224344Y-85746541D02*
X101224344Y-85508446D01*
X101224344Y-85508446D02*
X101271963Y-85365589D01*
X101271963Y-85365589D02*
X101367201Y-85270351D01*
X101367201Y-85270351D02*
X101462439Y-85222732D01*
X101462439Y-85222732D02*
X101652915Y-85175113D01*
X101652915Y-85175113D02*
X101795772Y-85175113D01*
X101795772Y-85175113D02*
X101986248Y-85222732D01*
X101986248Y-85222732D02*
X102081486Y-85270351D01*
X102081486Y-85270351D02*
X102176725Y-85365589D01*
X102176725Y-85365589D02*
X102224344Y-85508446D01*
X102224344Y-85508446D02*
X102224344Y-85746541D01*
X101319582Y-84794160D02*
X101271963Y-84746541D01*
X101271963Y-84746541D02*
X101224344Y-84651303D01*
X101224344Y-84651303D02*
X101224344Y-84413208D01*
X101224344Y-84413208D02*
X101271963Y-84317970D01*
X101271963Y-84317970D02*
X101319582Y-84270351D01*
X101319582Y-84270351D02*
X101414820Y-84222732D01*
X101414820Y-84222732D02*
X101510058Y-84222732D01*
X101510058Y-84222732D02*
X101652915Y-84270351D01*
X101652915Y-84270351D02*
X102224344Y-84841779D01*
X102224344Y-84841779D02*
X102224344Y-84222732D01*
X102391816Y-106317231D02*
X101391816Y-106317231D01*
X101391816Y-106317231D02*
X101391816Y-106079136D01*
X101391816Y-106079136D02*
X101439435Y-105936279D01*
X101439435Y-105936279D02*
X101534673Y-105841041D01*
X101534673Y-105841041D02*
X101629911Y-105793422D01*
X101629911Y-105793422D02*
X101820387Y-105745803D01*
X101820387Y-105745803D02*
X101963244Y-105745803D01*
X101963244Y-105745803D02*
X102153720Y-105793422D01*
X102153720Y-105793422D02*
X102248958Y-105841041D01*
X102248958Y-105841041D02*
X102344197Y-105936279D01*
X102344197Y-105936279D02*
X102391816Y-106079136D01*
X102391816Y-106079136D02*
X102391816Y-106317231D01*
X102391816Y-104793422D02*
X102391816Y-105364850D01*
X102391816Y-105079136D02*
X101391816Y-105079136D01*
X101391816Y-105079136D02*
X101534673Y-105174374D01*
X101534673Y-105174374D02*
X101629911Y-105269612D01*
X101629911Y-105269612D02*
X101677530Y-105364850D01*
X101487054Y-104412469D02*
X101439435Y-104364850D01*
X101439435Y-104364850D02*
X101391816Y-104269612D01*
X101391816Y-104269612D02*
X101391816Y-104031517D01*
X101391816Y-104031517D02*
X101439435Y-103936279D01*
X101439435Y-103936279D02*
X101487054Y-103888660D01*
X101487054Y-103888660D02*
X101582292Y-103841041D01*
X101582292Y-103841041D02*
X101677530Y-103841041D01*
X101677530Y-103841041D02*
X101820387Y-103888660D01*
X101820387Y-103888660D02*
X102391816Y-104460088D01*
X102391816Y-104460088D02*
X102391816Y-103841041D01*
X99684344Y-85746541D02*
X98684344Y-85746541D01*
X98684344Y-85746541D02*
X98684344Y-85508446D01*
X98684344Y-85508446D02*
X98731963Y-85365589D01*
X98731963Y-85365589D02*
X98827201Y-85270351D01*
X98827201Y-85270351D02*
X98922439Y-85222732D01*
X98922439Y-85222732D02*
X99112915Y-85175113D01*
X99112915Y-85175113D02*
X99255772Y-85175113D01*
X99255772Y-85175113D02*
X99446248Y-85222732D01*
X99446248Y-85222732D02*
X99541486Y-85270351D01*
X99541486Y-85270351D02*
X99636725Y-85365589D01*
X99636725Y-85365589D02*
X99684344Y-85508446D01*
X99684344Y-85508446D02*
X99684344Y-85746541D01*
X99017677Y-84317970D02*
X99684344Y-84317970D01*
X98636725Y-84556065D02*
X99351010Y-84794160D01*
X99351010Y-84794160D02*
X99351010Y-84175113D01*
X94771816Y-106317231D02*
X93771816Y-106317231D01*
X93771816Y-106317231D02*
X93771816Y-106079136D01*
X93771816Y-106079136D02*
X93819435Y-105936279D01*
X93819435Y-105936279D02*
X93914673Y-105841041D01*
X93914673Y-105841041D02*
X94009911Y-105793422D01*
X94009911Y-105793422D02*
X94200387Y-105745803D01*
X94200387Y-105745803D02*
X94343244Y-105745803D01*
X94343244Y-105745803D02*
X94533720Y-105793422D01*
X94533720Y-105793422D02*
X94628958Y-105841041D01*
X94628958Y-105841041D02*
X94724197Y-105936279D01*
X94724197Y-105936279D02*
X94771816Y-106079136D01*
X94771816Y-106079136D02*
X94771816Y-106317231D01*
X93867054Y-105364850D02*
X93819435Y-105317231D01*
X93819435Y-105317231D02*
X93771816Y-105221993D01*
X93771816Y-105221993D02*
X93771816Y-104983898D01*
X93771816Y-104983898D02*
X93819435Y-104888660D01*
X93819435Y-104888660D02*
X93867054Y-104841041D01*
X93867054Y-104841041D02*
X93962292Y-104793422D01*
X93962292Y-104793422D02*
X94057530Y-104793422D01*
X94057530Y-104793422D02*
X94200387Y-104841041D01*
X94200387Y-104841041D02*
X94771816Y-105412469D01*
X94771816Y-105412469D02*
X94771816Y-104793422D01*
X93771816Y-103936279D02*
X93771816Y-104126755D01*
X93771816Y-104126755D02*
X93819435Y-104221993D01*
X93819435Y-104221993D02*
X93867054Y-104269612D01*
X93867054Y-104269612D02*
X94009911Y-104364850D01*
X94009911Y-104364850D02*
X94200387Y-104412469D01*
X94200387Y-104412469D02*
X94581339Y-104412469D01*
X94581339Y-104412469D02*
X94676577Y-104364850D01*
X94676577Y-104364850D02*
X94724197Y-104317231D01*
X94724197Y-104317231D02*
X94771816Y-104221993D01*
X94771816Y-104221993D02*
X94771816Y-104031517D01*
X94771816Y-104031517D02*
X94724197Y-103936279D01*
X94724197Y-103936279D02*
X94676577Y-103888660D01*
X94676577Y-103888660D02*
X94581339Y-103841041D01*
X94581339Y-103841041D02*
X94343244Y-103841041D01*
X94343244Y-103841041D02*
X94248006Y-103888660D01*
X94248006Y-103888660D02*
X94200387Y-103936279D01*
X94200387Y-103936279D02*
X94152768Y-104031517D01*
X94152768Y-104031517D02*
X94152768Y-104221993D01*
X94152768Y-104221993D02*
X94200387Y-104317231D01*
X94200387Y-104317231D02*
X94248006Y-104364850D01*
X94248006Y-104364850D02*
X94343244Y-104412469D01*
X81904344Y-86127494D02*
X81428153Y-86460827D01*
X81904344Y-86698922D02*
X80904344Y-86698922D01*
X80904344Y-86698922D02*
X80904344Y-86317970D01*
X80904344Y-86317970D02*
X80951963Y-86222732D01*
X80951963Y-86222732D02*
X80999582Y-86175113D01*
X80999582Y-86175113D02*
X81094820Y-86127494D01*
X81094820Y-86127494D02*
X81237677Y-86127494D01*
X81237677Y-86127494D02*
X81332915Y-86175113D01*
X81332915Y-86175113D02*
X81380534Y-86222732D01*
X81380534Y-86222732D02*
X81428153Y-86317970D01*
X81428153Y-86317970D02*
X81428153Y-86698922D01*
X80904344Y-85794160D02*
X81904344Y-85127494D01*
X80904344Y-85127494D02*
X81904344Y-85794160D01*
X80904344Y-84556065D02*
X80904344Y-84460827D01*
X80904344Y-84460827D02*
X80951963Y-84365589D01*
X80951963Y-84365589D02*
X80999582Y-84317970D01*
X80999582Y-84317970D02*
X81094820Y-84270351D01*
X81094820Y-84270351D02*
X81285296Y-84222732D01*
X81285296Y-84222732D02*
X81523391Y-84222732D01*
X81523391Y-84222732D02*
X81713867Y-84270351D01*
X81713867Y-84270351D02*
X81809105Y-84317970D01*
X81809105Y-84317970D02*
X81856725Y-84365589D01*
X81856725Y-84365589D02*
X81904344Y-84460827D01*
X81904344Y-84460827D02*
X81904344Y-84556065D01*
X81904344Y-84556065D02*
X81856725Y-84651303D01*
X81856725Y-84651303D02*
X81809105Y-84698922D01*
X81809105Y-84698922D02*
X81713867Y-84746541D01*
X81713867Y-84746541D02*
X81523391Y-84794160D01*
X81523391Y-84794160D02*
X81285296Y-84794160D01*
X81285296Y-84794160D02*
X81094820Y-84746541D01*
X81094820Y-84746541D02*
X80999582Y-84698922D01*
X80999582Y-84698922D02*
X80951963Y-84651303D01*
X80951963Y-84651303D02*
X80904344Y-84556065D01*
X109011816Y-106460088D02*
X110011816Y-106126755D01*
X110011816Y-106126755D02*
X109011816Y-105793422D01*
X110011816Y-105460088D02*
X109011816Y-105460088D01*
X110011816Y-104983898D02*
X109011816Y-104983898D01*
X109011816Y-104983898D02*
X110011816Y-104412470D01*
X110011816Y-104412470D02*
X109011816Y-104412470D01*
X73928006Y-106317231D02*
X73928006Y-105983898D01*
X74451816Y-105841041D02*
X74451816Y-106317231D01*
X74451816Y-106317231D02*
X73451816Y-106317231D01*
X73451816Y-106317231D02*
X73451816Y-105841041D01*
X74451816Y-105412469D02*
X73451816Y-105412469D01*
X73451816Y-105412469D02*
X74451816Y-104841041D01*
X74451816Y-104841041D02*
X73451816Y-104841041D01*
X86984344Y-86698922D02*
X85984344Y-86698922D01*
X85984344Y-86698922D02*
X85984344Y-86460827D01*
X85984344Y-86460827D02*
X86031963Y-86317970D01*
X86031963Y-86317970D02*
X86127201Y-86222732D01*
X86127201Y-86222732D02*
X86222439Y-86175113D01*
X86222439Y-86175113D02*
X86412915Y-86127494D01*
X86412915Y-86127494D02*
X86555772Y-86127494D01*
X86555772Y-86127494D02*
X86746248Y-86175113D01*
X86746248Y-86175113D02*
X86841486Y-86222732D01*
X86841486Y-86222732D02*
X86936725Y-86317970D01*
X86936725Y-86317970D02*
X86984344Y-86460827D01*
X86984344Y-86460827D02*
X86984344Y-86698922D01*
X86984344Y-85175113D02*
X86984344Y-85746541D01*
X86984344Y-85460827D02*
X85984344Y-85460827D01*
X85984344Y-85460827D02*
X86127201Y-85556065D01*
X86127201Y-85556065D02*
X86222439Y-85651303D01*
X86222439Y-85651303D02*
X86270058Y-85746541D01*
X86984344Y-84698922D02*
X86984344Y-84508446D01*
X86984344Y-84508446D02*
X86936725Y-84413208D01*
X86936725Y-84413208D02*
X86889105Y-84365589D01*
X86889105Y-84365589D02*
X86746248Y-84270351D01*
X86746248Y-84270351D02*
X86555772Y-84222732D01*
X86555772Y-84222732D02*
X86174820Y-84222732D01*
X86174820Y-84222732D02*
X86079582Y-84270351D01*
X86079582Y-84270351D02*
X86031963Y-84317970D01*
X86031963Y-84317970D02*
X85984344Y-84413208D01*
X85984344Y-84413208D02*
X85984344Y-84603684D01*
X85984344Y-84603684D02*
X86031963Y-84698922D01*
X86031963Y-84698922D02*
X86079582Y-84746541D01*
X86079582Y-84746541D02*
X86174820Y-84794160D01*
X86174820Y-84794160D02*
X86412915Y-84794160D01*
X86412915Y-84794160D02*
X86508153Y-84746541D01*
X86508153Y-84746541D02*
X86555772Y-84698922D01*
X86555772Y-84698922D02*
X86603391Y-84603684D01*
X86603391Y-84603684D02*
X86603391Y-84413208D01*
X86603391Y-84413208D02*
X86555772Y-84317970D01*
X86555772Y-84317970D02*
X86508153Y-84270351D01*
X86508153Y-84270351D02*
X86412915Y-84222732D01*
X74284344Y-86698922D02*
X73284344Y-86698922D01*
X73284344Y-86698922D02*
X73284344Y-86460827D01*
X73284344Y-86460827D02*
X73331963Y-86317970D01*
X73331963Y-86317970D02*
X73427201Y-86222732D01*
X73427201Y-86222732D02*
X73522439Y-86175113D01*
X73522439Y-86175113D02*
X73712915Y-86127494D01*
X73712915Y-86127494D02*
X73855772Y-86127494D01*
X73855772Y-86127494D02*
X74046248Y-86175113D01*
X74046248Y-86175113D02*
X74141486Y-86222732D01*
X74141486Y-86222732D02*
X74236725Y-86317970D01*
X74236725Y-86317970D02*
X74284344Y-86460827D01*
X74284344Y-86460827D02*
X74284344Y-86698922D01*
X73379582Y-85746541D02*
X73331963Y-85698922D01*
X73331963Y-85698922D02*
X73284344Y-85603684D01*
X73284344Y-85603684D02*
X73284344Y-85365589D01*
X73284344Y-85365589D02*
X73331963Y-85270351D01*
X73331963Y-85270351D02*
X73379582Y-85222732D01*
X73379582Y-85222732D02*
X73474820Y-85175113D01*
X73474820Y-85175113D02*
X73570058Y-85175113D01*
X73570058Y-85175113D02*
X73712915Y-85222732D01*
X73712915Y-85222732D02*
X74284344Y-85794160D01*
X74284344Y-85794160D02*
X74284344Y-85175113D01*
X73284344Y-84841779D02*
X73284344Y-84222732D01*
X73284344Y-84222732D02*
X73665296Y-84556065D01*
X73665296Y-84556065D02*
X73665296Y-84413208D01*
X73665296Y-84413208D02*
X73712915Y-84317970D01*
X73712915Y-84317970D02*
X73760534Y-84270351D01*
X73760534Y-84270351D02*
X73855772Y-84222732D01*
X73855772Y-84222732D02*
X74093867Y-84222732D01*
X74093867Y-84222732D02*
X74189105Y-84270351D01*
X74189105Y-84270351D02*
X74236725Y-84317970D01*
X74236725Y-84317970D02*
X74284344Y-84413208D01*
X74284344Y-84413208D02*
X74284344Y-84698922D01*
X74284344Y-84698922D02*
X74236725Y-84794160D01*
X74236725Y-84794160D02*
X74189105Y-84841779D01*
X89524344Y-86698922D02*
X88524344Y-86698922D01*
X88524344Y-86698922D02*
X88524344Y-86460827D01*
X88524344Y-86460827D02*
X88571963Y-86317970D01*
X88571963Y-86317970D02*
X88667201Y-86222732D01*
X88667201Y-86222732D02*
X88762439Y-86175113D01*
X88762439Y-86175113D02*
X88952915Y-86127494D01*
X88952915Y-86127494D02*
X89095772Y-86127494D01*
X89095772Y-86127494D02*
X89286248Y-86175113D01*
X89286248Y-86175113D02*
X89381486Y-86222732D01*
X89381486Y-86222732D02*
X89476725Y-86317970D01*
X89476725Y-86317970D02*
X89524344Y-86460827D01*
X89524344Y-86460827D02*
X89524344Y-86698922D01*
X89524344Y-85175113D02*
X89524344Y-85746541D01*
X89524344Y-85460827D02*
X88524344Y-85460827D01*
X88524344Y-85460827D02*
X88667201Y-85556065D01*
X88667201Y-85556065D02*
X88762439Y-85651303D01*
X88762439Y-85651303D02*
X88810058Y-85746541D01*
X88952915Y-84603684D02*
X88905296Y-84698922D01*
X88905296Y-84698922D02*
X88857677Y-84746541D01*
X88857677Y-84746541D02*
X88762439Y-84794160D01*
X88762439Y-84794160D02*
X88714820Y-84794160D01*
X88714820Y-84794160D02*
X88619582Y-84746541D01*
X88619582Y-84746541D02*
X88571963Y-84698922D01*
X88571963Y-84698922D02*
X88524344Y-84603684D01*
X88524344Y-84603684D02*
X88524344Y-84413208D01*
X88524344Y-84413208D02*
X88571963Y-84317970D01*
X88571963Y-84317970D02*
X88619582Y-84270351D01*
X88619582Y-84270351D02*
X88714820Y-84222732D01*
X88714820Y-84222732D02*
X88762439Y-84222732D01*
X88762439Y-84222732D02*
X88857677Y-84270351D01*
X88857677Y-84270351D02*
X88905296Y-84317970D01*
X88905296Y-84317970D02*
X88952915Y-84413208D01*
X88952915Y-84413208D02*
X88952915Y-84603684D01*
X88952915Y-84603684D02*
X89000534Y-84698922D01*
X89000534Y-84698922D02*
X89048153Y-84746541D01*
X89048153Y-84746541D02*
X89143391Y-84794160D01*
X89143391Y-84794160D02*
X89333867Y-84794160D01*
X89333867Y-84794160D02*
X89429105Y-84746541D01*
X89429105Y-84746541D02*
X89476725Y-84698922D01*
X89476725Y-84698922D02*
X89524344Y-84603684D01*
X89524344Y-84603684D02*
X89524344Y-84413208D01*
X89524344Y-84413208D02*
X89476725Y-84317970D01*
X89476725Y-84317970D02*
X89429105Y-84270351D01*
X89429105Y-84270351D02*
X89333867Y-84222732D01*
X89333867Y-84222732D02*
X89143391Y-84222732D01*
X89143391Y-84222732D02*
X89048153Y-84270351D01*
X89048153Y-84270351D02*
X89000534Y-84317970D01*
X89000534Y-84317970D02*
X88952915Y-84413208D01*
X122943869Y-96686668D02*
X123753392Y-96686668D01*
X123753392Y-96686668D02*
X123848630Y-96639049D01*
X123848630Y-96639049D02*
X123896250Y-96591430D01*
X123896250Y-96591430D02*
X123943869Y-96496192D01*
X123943869Y-96496192D02*
X123943869Y-96305716D01*
X123943869Y-96305716D02*
X123896250Y-96210478D01*
X123896250Y-96210478D02*
X123848630Y-96162859D01*
X123848630Y-96162859D02*
X123753392Y-96115240D01*
X123753392Y-96115240D02*
X122943869Y-96115240D01*
X123896250Y-95686668D02*
X123943869Y-95543811D01*
X123943869Y-95543811D02*
X123943869Y-95305716D01*
X123943869Y-95305716D02*
X123896250Y-95210478D01*
X123896250Y-95210478D02*
X123848630Y-95162859D01*
X123848630Y-95162859D02*
X123753392Y-95115240D01*
X123753392Y-95115240D02*
X123658154Y-95115240D01*
X123658154Y-95115240D02*
X123562916Y-95162859D01*
X123562916Y-95162859D02*
X123515297Y-95210478D01*
X123515297Y-95210478D02*
X123467678Y-95305716D01*
X123467678Y-95305716D02*
X123420059Y-95496192D01*
X123420059Y-95496192D02*
X123372440Y-95591430D01*
X123372440Y-95591430D02*
X123324821Y-95639049D01*
X123324821Y-95639049D02*
X123229583Y-95686668D01*
X123229583Y-95686668D02*
X123134345Y-95686668D01*
X123134345Y-95686668D02*
X123039107Y-95639049D01*
X123039107Y-95639049D02*
X122991488Y-95591430D01*
X122991488Y-95591430D02*
X122943869Y-95496192D01*
X122943869Y-95496192D02*
X122943869Y-95258097D01*
X122943869Y-95258097D02*
X122991488Y-95115240D01*
X123420059Y-94353335D02*
X123467678Y-94210478D01*
X123467678Y-94210478D02*
X123515297Y-94162859D01*
X123515297Y-94162859D02*
X123610535Y-94115240D01*
X123610535Y-94115240D02*
X123753392Y-94115240D01*
X123753392Y-94115240D02*
X123848630Y-94162859D01*
X123848630Y-94162859D02*
X123896250Y-94210478D01*
X123896250Y-94210478D02*
X123943869Y-94305716D01*
X123943869Y-94305716D02*
X123943869Y-94686668D01*
X123943869Y-94686668D02*
X122943869Y-94686668D01*
X122943869Y-94686668D02*
X122943869Y-94353335D01*
X122943869Y-94353335D02*
X122991488Y-94258097D01*
X122991488Y-94258097D02*
X123039107Y-94210478D01*
X123039107Y-94210478D02*
X123134345Y-94162859D01*
X123134345Y-94162859D02*
X123229583Y-94162859D01*
X123229583Y-94162859D02*
X123324821Y-94210478D01*
X123324821Y-94210478D02*
X123372440Y-94258097D01*
X123372440Y-94258097D02*
X123420059Y-94353335D01*
X123420059Y-94353335D02*
X123420059Y-94686668D01*
X108844344Y-87127493D02*
X108844344Y-86508446D01*
X108844344Y-86508446D02*
X109225296Y-86841779D01*
X109225296Y-86841779D02*
X109225296Y-86698922D01*
X109225296Y-86698922D02*
X109272915Y-86603684D01*
X109272915Y-86603684D02*
X109320534Y-86556065D01*
X109320534Y-86556065D02*
X109415772Y-86508446D01*
X109415772Y-86508446D02*
X109653867Y-86508446D01*
X109653867Y-86508446D02*
X109749105Y-86556065D01*
X109749105Y-86556065D02*
X109796725Y-86603684D01*
X109796725Y-86603684D02*
X109844344Y-86698922D01*
X109844344Y-86698922D02*
X109844344Y-86984636D01*
X109844344Y-86984636D02*
X109796725Y-87079874D01*
X109796725Y-87079874D02*
X109749105Y-87127493D01*
X109749105Y-86079874D02*
X109796725Y-86032255D01*
X109796725Y-86032255D02*
X109844344Y-86079874D01*
X109844344Y-86079874D02*
X109796725Y-86127493D01*
X109796725Y-86127493D02*
X109749105Y-86079874D01*
X109749105Y-86079874D02*
X109844344Y-86079874D01*
X108844344Y-85698922D02*
X108844344Y-85079875D01*
X108844344Y-85079875D02*
X109225296Y-85413208D01*
X109225296Y-85413208D02*
X109225296Y-85270351D01*
X109225296Y-85270351D02*
X109272915Y-85175113D01*
X109272915Y-85175113D02*
X109320534Y-85127494D01*
X109320534Y-85127494D02*
X109415772Y-85079875D01*
X109415772Y-85079875D02*
X109653867Y-85079875D01*
X109653867Y-85079875D02*
X109749105Y-85127494D01*
X109749105Y-85127494D02*
X109796725Y-85175113D01*
X109796725Y-85175113D02*
X109844344Y-85270351D01*
X109844344Y-85270351D02*
X109844344Y-85556065D01*
X109844344Y-85556065D02*
X109796725Y-85651303D01*
X109796725Y-85651303D02*
X109749105Y-85698922D01*
X108844344Y-84794160D02*
X109844344Y-84460827D01*
X109844344Y-84460827D02*
X108844344Y-84127494D01*
X62642666Y-81138819D02*
X62642666Y-81853104D01*
X62642666Y-81853104D02*
X62595047Y-81995961D01*
X62595047Y-81995961D02*
X62499809Y-82091200D01*
X62499809Y-82091200D02*
X62356952Y-82138819D01*
X62356952Y-82138819D02*
X62261714Y-82138819D01*
X63547428Y-81472152D02*
X63547428Y-82138819D01*
X63309333Y-81091200D02*
X63071238Y-81805485D01*
X63071238Y-81805485D02*
X63690285Y-81805485D01*
X96408333Y-80923319D02*
X96075000Y-80447128D01*
X95836905Y-80923319D02*
X95836905Y-79923319D01*
X95836905Y-79923319D02*
X96217857Y-79923319D01*
X96217857Y-79923319D02*
X96313095Y-79970938D01*
X96313095Y-79970938D02*
X96360714Y-80018557D01*
X96360714Y-80018557D02*
X96408333Y-80113795D01*
X96408333Y-80113795D02*
X96408333Y-80256652D01*
X96408333Y-80256652D02*
X96360714Y-80351890D01*
X96360714Y-80351890D02*
X96313095Y-80399509D01*
X96313095Y-80399509D02*
X96217857Y-80447128D01*
X96217857Y-80447128D02*
X95836905Y-80447128D01*
X96789286Y-80018557D02*
X96836905Y-79970938D01*
X96836905Y-79970938D02*
X96932143Y-79923319D01*
X96932143Y-79923319D02*
X97170238Y-79923319D01*
X97170238Y-79923319D02*
X97265476Y-79970938D01*
X97265476Y-79970938D02*
X97313095Y-80018557D01*
X97313095Y-80018557D02*
X97360714Y-80113795D01*
X97360714Y-80113795D02*
X97360714Y-80209033D01*
X97360714Y-80209033D02*
X97313095Y-80351890D01*
X97313095Y-80351890D02*
X96741667Y-80923319D01*
X96741667Y-80923319D02*
X97360714Y-80923319D01*
X87611667Y-79320200D02*
X87754524Y-79367819D01*
X87754524Y-79367819D02*
X87992619Y-79367819D01*
X87992619Y-79367819D02*
X88087857Y-79320200D01*
X88087857Y-79320200D02*
X88135476Y-79272580D01*
X88135476Y-79272580D02*
X88183095Y-79177342D01*
X88183095Y-79177342D02*
X88183095Y-79082104D01*
X88183095Y-79082104D02*
X88135476Y-78986866D01*
X88135476Y-78986866D02*
X88087857Y-78939247D01*
X88087857Y-78939247D02*
X87992619Y-78891628D01*
X87992619Y-78891628D02*
X87802143Y-78844009D01*
X87802143Y-78844009D02*
X87706905Y-78796390D01*
X87706905Y-78796390D02*
X87659286Y-78748771D01*
X87659286Y-78748771D02*
X87611667Y-78653533D01*
X87611667Y-78653533D02*
X87611667Y-78558295D01*
X87611667Y-78558295D02*
X87659286Y-78463057D01*
X87659286Y-78463057D02*
X87706905Y-78415438D01*
X87706905Y-78415438D02*
X87802143Y-78367819D01*
X87802143Y-78367819D02*
X88040238Y-78367819D01*
X88040238Y-78367819D02*
X88183095Y-78415438D01*
X88516429Y-78367819D02*
X88754524Y-79367819D01*
X88754524Y-79367819D02*
X88945000Y-78653533D01*
X88945000Y-78653533D02*
X89135476Y-79367819D01*
X89135476Y-79367819D02*
X89373572Y-78367819D01*
X90278333Y-79367819D02*
X89706905Y-79367819D01*
X89992619Y-79367819D02*
X89992619Y-78367819D01*
X89992619Y-78367819D02*
X89897381Y-78510676D01*
X89897381Y-78510676D02*
X89802143Y-78605914D01*
X89802143Y-78605914D02*
X89706905Y-78653533D01*
X106441333Y-80923319D02*
X106108000Y-80447128D01*
X105869905Y-80923319D02*
X105869905Y-79923319D01*
X105869905Y-79923319D02*
X106250857Y-79923319D01*
X106250857Y-79923319D02*
X106346095Y-79970938D01*
X106346095Y-79970938D02*
X106393714Y-80018557D01*
X106393714Y-80018557D02*
X106441333Y-80113795D01*
X106441333Y-80113795D02*
X106441333Y-80256652D01*
X106441333Y-80256652D02*
X106393714Y-80351890D01*
X106393714Y-80351890D02*
X106346095Y-80399509D01*
X106346095Y-80399509D02*
X106250857Y-80447128D01*
X106250857Y-80447128D02*
X105869905Y-80447128D01*
X106774667Y-79923319D02*
X107393714Y-79923319D01*
X107393714Y-79923319D02*
X107060381Y-80304271D01*
X107060381Y-80304271D02*
X107203238Y-80304271D01*
X107203238Y-80304271D02*
X107298476Y-80351890D01*
X107298476Y-80351890D02*
X107346095Y-80399509D01*
X107346095Y-80399509D02*
X107393714Y-80494747D01*
X107393714Y-80494747D02*
X107393714Y-80732842D01*
X107393714Y-80732842D02*
X107346095Y-80828080D01*
X107346095Y-80828080D02*
X107298476Y-80875700D01*
X107298476Y-80875700D02*
X107203238Y-80923319D01*
X107203238Y-80923319D02*
X106917524Y-80923319D01*
X106917524Y-80923319D02*
X106822286Y-80875700D01*
X106822286Y-80875700D02*
X106774667Y-80828080D01*
X117257667Y-79320200D02*
X117400524Y-79367819D01*
X117400524Y-79367819D02*
X117638619Y-79367819D01*
X117638619Y-79367819D02*
X117733857Y-79320200D01*
X117733857Y-79320200D02*
X117781476Y-79272580D01*
X117781476Y-79272580D02*
X117829095Y-79177342D01*
X117829095Y-79177342D02*
X117829095Y-79082104D01*
X117829095Y-79082104D02*
X117781476Y-78986866D01*
X117781476Y-78986866D02*
X117733857Y-78939247D01*
X117733857Y-78939247D02*
X117638619Y-78891628D01*
X117638619Y-78891628D02*
X117448143Y-78844009D01*
X117448143Y-78844009D02*
X117352905Y-78796390D01*
X117352905Y-78796390D02*
X117305286Y-78748771D01*
X117305286Y-78748771D02*
X117257667Y-78653533D01*
X117257667Y-78653533D02*
X117257667Y-78558295D01*
X117257667Y-78558295D02*
X117305286Y-78463057D01*
X117305286Y-78463057D02*
X117352905Y-78415438D01*
X117352905Y-78415438D02*
X117448143Y-78367819D01*
X117448143Y-78367819D02*
X117686238Y-78367819D01*
X117686238Y-78367819D02*
X117829095Y-78415438D01*
X118162429Y-78367819D02*
X118400524Y-79367819D01*
X118400524Y-79367819D02*
X118591000Y-78653533D01*
X118591000Y-78653533D02*
X118781476Y-79367819D01*
X118781476Y-79367819D02*
X119019572Y-78367819D01*
X119829095Y-78701152D02*
X119829095Y-79367819D01*
X119591000Y-78320200D02*
X119352905Y-79034485D01*
X119352905Y-79034485D02*
X119971952Y-79034485D01*
X107326667Y-79320200D02*
X107469524Y-79367819D01*
X107469524Y-79367819D02*
X107707619Y-79367819D01*
X107707619Y-79367819D02*
X107802857Y-79320200D01*
X107802857Y-79320200D02*
X107850476Y-79272580D01*
X107850476Y-79272580D02*
X107898095Y-79177342D01*
X107898095Y-79177342D02*
X107898095Y-79082104D01*
X107898095Y-79082104D02*
X107850476Y-78986866D01*
X107850476Y-78986866D02*
X107802857Y-78939247D01*
X107802857Y-78939247D02*
X107707619Y-78891628D01*
X107707619Y-78891628D02*
X107517143Y-78844009D01*
X107517143Y-78844009D02*
X107421905Y-78796390D01*
X107421905Y-78796390D02*
X107374286Y-78748771D01*
X107374286Y-78748771D02*
X107326667Y-78653533D01*
X107326667Y-78653533D02*
X107326667Y-78558295D01*
X107326667Y-78558295D02*
X107374286Y-78463057D01*
X107374286Y-78463057D02*
X107421905Y-78415438D01*
X107421905Y-78415438D02*
X107517143Y-78367819D01*
X107517143Y-78367819D02*
X107755238Y-78367819D01*
X107755238Y-78367819D02*
X107898095Y-78415438D01*
X108231429Y-78367819D02*
X108469524Y-79367819D01*
X108469524Y-79367819D02*
X108660000Y-78653533D01*
X108660000Y-78653533D02*
X108850476Y-79367819D01*
X108850476Y-79367819D02*
X109088572Y-78367819D01*
X109374286Y-78367819D02*
X109993333Y-78367819D01*
X109993333Y-78367819D02*
X109660000Y-78748771D01*
X109660000Y-78748771D02*
X109802857Y-78748771D01*
X109802857Y-78748771D02*
X109898095Y-78796390D01*
X109898095Y-78796390D02*
X109945714Y-78844009D01*
X109945714Y-78844009D02*
X109993333Y-78939247D01*
X109993333Y-78939247D02*
X109993333Y-79177342D01*
X109993333Y-79177342D02*
X109945714Y-79272580D01*
X109945714Y-79272580D02*
X109898095Y-79320200D01*
X109898095Y-79320200D02*
X109802857Y-79367819D01*
X109802857Y-79367819D02*
X109517143Y-79367819D01*
X109517143Y-79367819D02*
X109421905Y-79320200D01*
X109421905Y-79320200D02*
X109374286Y-79272580D01*
X97420667Y-79320200D02*
X97563524Y-79367819D01*
X97563524Y-79367819D02*
X97801619Y-79367819D01*
X97801619Y-79367819D02*
X97896857Y-79320200D01*
X97896857Y-79320200D02*
X97944476Y-79272580D01*
X97944476Y-79272580D02*
X97992095Y-79177342D01*
X97992095Y-79177342D02*
X97992095Y-79082104D01*
X97992095Y-79082104D02*
X97944476Y-78986866D01*
X97944476Y-78986866D02*
X97896857Y-78939247D01*
X97896857Y-78939247D02*
X97801619Y-78891628D01*
X97801619Y-78891628D02*
X97611143Y-78844009D01*
X97611143Y-78844009D02*
X97515905Y-78796390D01*
X97515905Y-78796390D02*
X97468286Y-78748771D01*
X97468286Y-78748771D02*
X97420667Y-78653533D01*
X97420667Y-78653533D02*
X97420667Y-78558295D01*
X97420667Y-78558295D02*
X97468286Y-78463057D01*
X97468286Y-78463057D02*
X97515905Y-78415438D01*
X97515905Y-78415438D02*
X97611143Y-78367819D01*
X97611143Y-78367819D02*
X97849238Y-78367819D01*
X97849238Y-78367819D02*
X97992095Y-78415438D01*
X98325429Y-78367819D02*
X98563524Y-79367819D01*
X98563524Y-79367819D02*
X98754000Y-78653533D01*
X98754000Y-78653533D02*
X98944476Y-79367819D01*
X98944476Y-79367819D02*
X99182572Y-78367819D01*
X99515905Y-78463057D02*
X99563524Y-78415438D01*
X99563524Y-78415438D02*
X99658762Y-78367819D01*
X99658762Y-78367819D02*
X99896857Y-78367819D01*
X99896857Y-78367819D02*
X99992095Y-78415438D01*
X99992095Y-78415438D02*
X100039714Y-78463057D01*
X100039714Y-78463057D02*
X100087333Y-78558295D01*
X100087333Y-78558295D02*
X100087333Y-78653533D01*
X100087333Y-78653533D02*
X100039714Y-78796390D01*
X100039714Y-78796390D02*
X99468286Y-79367819D01*
X99468286Y-79367819D02*
X100087333Y-79367819D01*
X78971810Y-88377819D02*
X78971810Y-87377819D01*
X80019428Y-88282580D02*
X79971809Y-88330200D01*
X79971809Y-88330200D02*
X79828952Y-88377819D01*
X79828952Y-88377819D02*
X79733714Y-88377819D01*
X79733714Y-88377819D02*
X79590857Y-88330200D01*
X79590857Y-88330200D02*
X79495619Y-88234961D01*
X79495619Y-88234961D02*
X79448000Y-88139723D01*
X79448000Y-88139723D02*
X79400381Y-87949247D01*
X79400381Y-87949247D02*
X79400381Y-87806390D01*
X79400381Y-87806390D02*
X79448000Y-87615914D01*
X79448000Y-87615914D02*
X79495619Y-87520676D01*
X79495619Y-87520676D02*
X79590857Y-87425438D01*
X79590857Y-87425438D02*
X79733714Y-87377819D01*
X79733714Y-87377819D02*
X79828952Y-87377819D01*
X79828952Y-87377819D02*
X79971809Y-87425438D01*
X79971809Y-87425438D02*
X80019428Y-87473057D01*
X80971809Y-88377819D02*
X80400381Y-88377819D01*
X80686095Y-88377819D02*
X80686095Y-87377819D01*
X80686095Y-87377819D02*
X80590857Y-87520676D01*
X80590857Y-87520676D02*
X80495619Y-87615914D01*
X80495619Y-87615914D02*
X80400381Y-87663533D01*
D13*
%TO.C,R1*%
X89251142Y-80073000D02*
X89725658Y-80073000D01*
X89251142Y-81118000D02*
X89725658Y-81118000D01*
%TO.C,R4*%
X119280658Y-81118000D02*
X118806142Y-81118000D01*
X119280658Y-80073000D02*
X118806142Y-80073000D01*
%TO.C,J1*%
X57416000Y-76028000D02*
X57416000Y-106998000D01*
X46936000Y-76028000D02*
X57416000Y-76028000D01*
X58310338Y-96803000D02*
X58310338Y-97303000D01*
X57877325Y-97053000D02*
X58310338Y-96803000D01*
X58310338Y-97303000D02*
X57877325Y-97053000D01*
X57416000Y-106998000D02*
X46936000Y-106998000D01*
%TO.C,C4*%
X87601000Y-94855420D02*
X87601000Y-95136580D01*
X86581000Y-94855420D02*
X86581000Y-95136580D01*
%TO.C,U2*%
X62459200Y-109700000D02*
X125459200Y-109700000D01*
X125459200Y-109700000D02*
X125459200Y-99700000D01*
X62847901Y-104140894D02*
X62847901Y-86140894D01*
X68847901Y-104140894D02*
X62847901Y-104140894D01*
X62847901Y-86140894D02*
X68847901Y-86140894D01*
X62459200Y-81200000D02*
X62459200Y-109700000D01*
X125459200Y-81200000D02*
X125459200Y-91200000D01*
X125459200Y-81200000D02*
X62459200Y-81200000D01*
X121280050Y-99742764D02*
X126029850Y-99742764D01*
X126029850Y-99742764D02*
X126029850Y-91106764D01*
X126029850Y-91106764D02*
X121280050Y-91106764D01*
X121280050Y-91106764D02*
X121280050Y-99742764D01*
D14*
X90459200Y-97700000D02*
X91559200Y-97700000D01*
X91959200Y-97700000D02*
X93059200Y-97700000D01*
X93459200Y-97700000D02*
X94559200Y-97700000D01*
X94959200Y-97700000D02*
X96059200Y-97700000D01*
X96459200Y-97700000D02*
X97559200Y-97700000D01*
X97959200Y-97700000D02*
X99059200Y-97700000D01*
X99459200Y-97700000D02*
X100559200Y-97700000D01*
X100959200Y-97700000D02*
X102059200Y-97700000D01*
X102459200Y-97700000D02*
X103559200Y-97700000D01*
X103959200Y-97700000D02*
X105059200Y-97700000D01*
X105459200Y-97700000D02*
X106559200Y-97700000D01*
X106959200Y-97700000D02*
X108059200Y-97700000D01*
X108459200Y-97700000D02*
X109559200Y-97700000D01*
X109959200Y-97700000D02*
X111059200Y-97700000D01*
X111459200Y-97700000D02*
X112559200Y-97700000D01*
X112959200Y-97700000D02*
X114059200Y-97700000D01*
X114459200Y-97700000D02*
X114459200Y-97700000D01*
X114459200Y-97700000D02*
X114459200Y-96600000D01*
X114459200Y-96200000D02*
X114459200Y-95100000D01*
X114459200Y-94700000D02*
X114459200Y-93600000D01*
X114459200Y-93200000D02*
X114459200Y-92100000D01*
X114459200Y-91700000D02*
X114459200Y-90600000D01*
X114459200Y-90200000D02*
X114459200Y-89100000D01*
X114459200Y-88700000D02*
X114459200Y-87600000D01*
X114459200Y-87200000D02*
X114459200Y-86100000D01*
X114459200Y-85700000D02*
X114459200Y-84700000D01*
X114459200Y-84700000D02*
X113359200Y-84700000D01*
X112959200Y-84700000D02*
X111859200Y-84700000D01*
X111459200Y-84700000D02*
X110359200Y-84700000D01*
X109959200Y-84700000D02*
X108859200Y-84700000D01*
X108459200Y-84700000D02*
X107359200Y-84700000D01*
X106959200Y-84700000D02*
X105859200Y-84700000D01*
X105459200Y-84700000D02*
X104359200Y-84700000D01*
X103959200Y-84700000D02*
X102859200Y-84700000D01*
X102459200Y-84700000D02*
X101359200Y-84700000D01*
X100959200Y-84700000D02*
X99859200Y-84700000D01*
X99459200Y-84700000D02*
X98359200Y-84700000D01*
X97959200Y-84700000D02*
X96859200Y-84700000D01*
X96459200Y-84700000D02*
X95359200Y-84700000D01*
X94959200Y-84700000D02*
X93859200Y-84700000D01*
X93459200Y-84700000D02*
X92359200Y-84700000D01*
X91959200Y-84700000D02*
X90859200Y-84700000D01*
X90459200Y-84700000D02*
X90459200Y-84700000D01*
X90459200Y-84700000D02*
X90459200Y-85800000D01*
X90459200Y-86200000D02*
X90459200Y-87300000D01*
X90459200Y-87700000D02*
X90459200Y-88800000D01*
X90459200Y-89200000D02*
X90459200Y-90300000D01*
X90459200Y-90700000D02*
X90459200Y-91800000D01*
X90459200Y-92200000D02*
X90459200Y-93300000D01*
X90459200Y-93700000D02*
X90459200Y-94800000D01*
X90459200Y-95200000D02*
X90459200Y-96300000D01*
X90459200Y-96700000D02*
X90459200Y-97700000D01*
X62459200Y-96382834D02*
X62459200Y-96382834D01*
X62459200Y-96382834D02*
X62459200Y-95282834D01*
X62459200Y-94882834D02*
X62459200Y-93782834D01*
X62459200Y-93382834D02*
X62459200Y-92282834D01*
X62459200Y-91882834D02*
X62459200Y-90782834D01*
X62459200Y-90382834D02*
X62459200Y-89282834D01*
X62459200Y-88882834D02*
X62459200Y-87782834D01*
X62459200Y-87382834D02*
X62459200Y-86282834D01*
X62459200Y-85882834D02*
X62459200Y-84782834D01*
X62459200Y-84382834D02*
X62459200Y-83382834D01*
X62459200Y-83382834D02*
X62459200Y-83382834D01*
X62459200Y-83382834D02*
X62459200Y-84482834D01*
X62459200Y-84882834D02*
X62459200Y-85982834D01*
X62459200Y-86382834D02*
X62459200Y-87482834D01*
X62459200Y-87882834D02*
X62459200Y-88982834D01*
X62459200Y-89382834D02*
X62459200Y-90482834D01*
X62459200Y-90882834D02*
X62459200Y-91982834D01*
X62459200Y-92382834D02*
X62459200Y-93482834D01*
X62459200Y-93882834D02*
X62459200Y-94982834D01*
X62459200Y-95382834D02*
X62459200Y-96382834D01*
D15*
%TO.C,J4*%
X70659000Y-80560000D02*
X70659000Y-79490000D01*
X70659000Y-75990000D02*
X70659000Y-75100000D01*
X70629000Y-75090000D02*
X62659000Y-75100000D01*
X68929000Y-80560000D02*
X70659000Y-80560000D01*
X68389000Y-80560000D02*
X68929000Y-80560000D01*
X66389000Y-80560000D02*
X66929000Y-80560000D01*
X66389000Y-80560000D02*
X66929000Y-80560000D01*
X62659000Y-80560000D02*
X64929000Y-80560000D01*
X62659000Y-80560000D02*
X62659000Y-79490000D01*
X62659000Y-75980000D02*
X62659000Y-75100000D01*
D13*
%TO.C,J2*%
X122495000Y-81728000D02*
X123825000Y-81728000D01*
X122495000Y-83058000D02*
X122495000Y-81728000D01*
X122495000Y-84328000D02*
X122495000Y-86928000D01*
X122495000Y-84328000D02*
X125155000Y-84328000D01*
X122495000Y-86928000D02*
X125155000Y-86928000D01*
X125155000Y-84328000D02*
X125155000Y-86928000D01*
%TO.C,R2*%
X98969142Y-80073000D02*
X99443658Y-80073000D01*
X98969142Y-81118000D02*
X99443658Y-81118000D01*
D15*
%TO.C,SW5*%
X72523000Y-75537000D02*
X72523000Y-79137000D01*
X72523000Y-75537000D02*
X81513000Y-75537000D01*
X72523000Y-79137000D02*
X81623000Y-79137000D01*
X77713000Y-73527000D02*
X78723000Y-73527000D01*
X77713000Y-75537000D02*
X77713000Y-73527000D01*
X78723000Y-73527000D02*
X78723000Y-75537000D01*
X81623000Y-75537000D02*
X81623000Y-79137000D01*
D13*
%TO.C,R6*%
X62010500Y-99113742D02*
X62010500Y-99588258D01*
X60965500Y-99113742D02*
X60965500Y-99588258D01*
%TO.C,SW1*%
X84988000Y-73369500D02*
X84988000Y-77269500D01*
X84988000Y-73369500D02*
X92708000Y-73369500D01*
X84988000Y-79869500D02*
X84988000Y-80379500D01*
X84988000Y-80379500D02*
X85508000Y-80379500D01*
X85508000Y-77039500D02*
X85508000Y-77269500D01*
X85508000Y-77039500D02*
X86048000Y-77039500D01*
X85508000Y-79869500D02*
X85508000Y-80379500D01*
X87148000Y-77039500D02*
X90548000Y-77039500D01*
X91648000Y-77039500D02*
X92188000Y-77039500D01*
X92188000Y-77039500D02*
X92188000Y-77269500D01*
X92188000Y-79869500D02*
X92188000Y-80379500D01*
X92188000Y-80379500D02*
X92708000Y-80379500D01*
X92708000Y-73369500D02*
X92708000Y-77269500D01*
X92708000Y-79869500D02*
X92708000Y-80379500D01*
%TO.C,R3*%
X108972142Y-80073000D02*
X109446658Y-80073000D01*
X108972142Y-81118000D02*
X109446658Y-81118000D01*
%TO.C,R9*%
X69884500Y-99113742D02*
X69884500Y-99588258D01*
X68839500Y-99113742D02*
X68839500Y-99588258D01*
%TO.C,R8*%
X67344500Y-99113742D02*
X67344500Y-99588258D01*
X66299500Y-99113742D02*
X66299500Y-99588258D01*
%TO.C,C5*%
X72880580Y-92966000D02*
X72599420Y-92966000D01*
X72880580Y-91946000D02*
X72599420Y-91946000D01*
%TO.C,C2*%
X72880580Y-90426000D02*
X72599420Y-90426000D01*
X72880580Y-89406000D02*
X72599420Y-89406000D01*
%TO.C,J3*%
X59106000Y-75170000D02*
X60436000Y-75170000D01*
X59106000Y-76500000D02*
X59106000Y-75170000D01*
X59106000Y-77770000D02*
X59106000Y-80370000D01*
X59106000Y-77770000D02*
X61766000Y-77770000D01*
X59106000Y-80370000D02*
X61766000Y-80370000D01*
X61766000Y-77770000D02*
X61766000Y-80370000D01*
%TO.C,R5*%
X59470500Y-99113742D02*
X59470500Y-99588258D01*
X58425500Y-99113742D02*
X58425500Y-99588258D01*
%TO.C,SW4*%
X114706000Y-73369500D02*
X114706000Y-77269500D01*
X114706000Y-73369500D02*
X122426000Y-73369500D01*
X114706000Y-79869500D02*
X114706000Y-80379500D01*
X114706000Y-80379500D02*
X115226000Y-80379500D01*
X115226000Y-77039500D02*
X115226000Y-77269500D01*
X115226000Y-77039500D02*
X115766000Y-77039500D01*
X115226000Y-79869500D02*
X115226000Y-80379500D01*
X116866000Y-77039500D02*
X120266000Y-77039500D01*
X121366000Y-77039500D02*
X121906000Y-77039500D01*
X121906000Y-77039500D02*
X121906000Y-77269500D01*
X121906000Y-79869500D02*
X121906000Y-80379500D01*
X121906000Y-80379500D02*
X122426000Y-80379500D01*
X122426000Y-73369500D02*
X122426000Y-77269500D01*
X122426000Y-79869500D02*
X122426000Y-80379500D01*
%TO.C,SW3*%
X104800000Y-73369500D02*
X104800000Y-77269500D01*
X104800000Y-73369500D02*
X112520000Y-73369500D01*
X104800000Y-79869500D02*
X104800000Y-80379500D01*
X104800000Y-80379500D02*
X105320000Y-80379500D01*
X105320000Y-77039500D02*
X105320000Y-77269500D01*
X105320000Y-77039500D02*
X105860000Y-77039500D01*
X105320000Y-79869500D02*
X105320000Y-80379500D01*
X106960000Y-77039500D02*
X110360000Y-77039500D01*
X111460000Y-77039500D02*
X112000000Y-77039500D01*
X112000000Y-77039500D02*
X112000000Y-77269500D01*
X112000000Y-79869500D02*
X112000000Y-80379500D01*
X112000000Y-80379500D02*
X112520000Y-80379500D01*
X112520000Y-73369500D02*
X112520000Y-77269500D01*
X112520000Y-79869500D02*
X112520000Y-80379500D01*
%TO.C,SW2*%
X94894000Y-73369500D02*
X94894000Y-77269500D01*
X94894000Y-73369500D02*
X102614000Y-73369500D01*
X94894000Y-79869500D02*
X94894000Y-80379500D01*
X94894000Y-80379500D02*
X95414000Y-80379500D01*
X95414000Y-77039500D02*
X95414000Y-77269500D01*
X95414000Y-77039500D02*
X95954000Y-77039500D01*
X95414000Y-79869500D02*
X95414000Y-80379500D01*
X97054000Y-77039500D02*
X100454000Y-77039500D01*
X101554000Y-77039500D02*
X102094000Y-77039500D01*
X102094000Y-77039500D02*
X102094000Y-77269500D01*
X102094000Y-79869500D02*
X102094000Y-80379500D01*
X102094000Y-80379500D02*
X102614000Y-80379500D01*
X102614000Y-73369500D02*
X102614000Y-77269500D01*
X102614000Y-79869500D02*
X102614000Y-80379500D01*
%TO.C,C3*%
X82759420Y-87501000D02*
X83040580Y-87501000D01*
X82759420Y-88521000D02*
X83040580Y-88521000D01*
D15*
%TO.C,U1*%
X58525000Y-106258000D02*
X58525000Y-103668000D01*
X58525000Y-108138000D02*
X58525000Y-108118000D01*
X59935000Y-102138000D02*
X68375000Y-102138000D01*
X69775000Y-103668000D02*
X69775000Y-106258000D01*
X69775000Y-108118000D02*
X69775000Y-108138000D01*
X69775000Y-108138000D02*
X58525000Y-108138000D01*
X69095000Y-108858000D02*
G75*
G03*
X68595000Y-108858000I-250000J0D01*
G01*
X68595000Y-108858000D02*
G75*
G03*
X69095000Y-108858000I250000J0D01*
G01*
D13*
%TO.C,R7*%
X64550500Y-99113742D02*
X64550500Y-99588258D01*
X63505500Y-99113742D02*
X63505500Y-99588258D01*
D15*
%TO.C,IC1*%
X82179000Y-89027000D02*
X82179000Y-99187000D01*
X80609000Y-89027000D02*
X82179000Y-89027000D01*
X79339000Y-89027000D02*
X77779000Y-89027000D01*
X77779000Y-89027000D02*
X77779000Y-99187000D01*
X82179000Y-99187000D02*
X77819000Y-99187000D01*
X79348801Y-89025418D02*
G75*
G03*
X80609000Y-89027000I630199J78418D01*
G01*
D13*
%TO.C,C1*%
X87601000Y-90918420D02*
X87601000Y-91199580D01*
X86581000Y-90918420D02*
X86581000Y-91199580D01*
%TD*%
%LPC*%
D16*
%TO.C,R1*%
X88663400Y-80595500D03*
X90313400Y-80595500D03*
%TD*%
D17*
%TO.C,R4*%
X119868400Y-80595500D03*
X118218400Y-80595500D03*
%TD*%
D18*
%TO.C,J1*%
X54356000Y-79013000D03*
X54356000Y-104013000D03*
D19*
X54656000Y-97053000D03*
D20*
X54656000Y-94283000D03*
X54656000Y-91513000D03*
X54656000Y-88743000D03*
X54656000Y-85973000D03*
X51816000Y-95668000D03*
X51816000Y-92898000D03*
X51816000Y-90128000D03*
X51816000Y-87358000D03*
%TD*%
D21*
%TO.C,C4*%
X87091000Y-94221000D03*
X87091000Y-95771000D03*
%TD*%
D22*
%TO.C,U2*%
X109389525Y-82663572D03*
D23*
X106849525Y-82663572D03*
X104309525Y-82663572D03*
X101769525Y-82663572D03*
X99229525Y-82663572D03*
X96689525Y-82663572D03*
X94149525Y-82663572D03*
X91609525Y-82663572D03*
X89069525Y-82663572D03*
X86529525Y-82663572D03*
X83989525Y-82663572D03*
X81449525Y-82663572D03*
X78909525Y-82663572D03*
X76369525Y-82663572D03*
X73829525Y-82663572D03*
X73870601Y-108257032D03*
X76410601Y-108257032D03*
X78950601Y-108257032D03*
X81490601Y-108257032D03*
X84030601Y-108257032D03*
X86570601Y-108257032D03*
X89110601Y-108257032D03*
X91650601Y-108257032D03*
X94190601Y-108257032D03*
X96730601Y-108257032D03*
X99270601Y-108257032D03*
X101810601Y-108257032D03*
X104350601Y-108257032D03*
X106890601Y-108257032D03*
X109430601Y-108257032D03*
%TD*%
D24*
%TO.C,J4*%
X65659000Y-80010000D03*
X67659000Y-80020000D03*
D25*
X70059000Y-77770000D03*
X63259000Y-77770000D03*
%TD*%
D26*
%TO.C,J2*%
X123825000Y-83058000D03*
D27*
X123825000Y-85598000D03*
%TD*%
D16*
%TO.C,R2*%
X98381400Y-80595500D03*
X100031400Y-80595500D03*
%TD*%
D28*
%TO.C,SW5*%
X74573000Y-74087000D03*
X77073000Y-74087000D03*
X79573000Y-74087000D03*
X74573000Y-80587000D03*
X77073000Y-80587000D03*
X79573000Y-80587000D03*
%TD*%
D29*
%TO.C,R6*%
X61488000Y-98526000D03*
X61488000Y-100176000D03*
%TD*%
D30*
%TO.C,SW1*%
X85348000Y-78559500D03*
X92358000Y-78559500D03*
D31*
X86598000Y-76069500D03*
X91098000Y-76069500D03*
%TD*%
D16*
%TO.C,R3*%
X108384400Y-80595500D03*
X110034400Y-80595500D03*
%TD*%
D29*
%TO.C,R9*%
X69362000Y-98526000D03*
X69362000Y-100176000D03*
%TD*%
%TO.C,R8*%
X66822000Y-98526000D03*
X66822000Y-100176000D03*
%TD*%
D32*
%TO.C,C5*%
X73515000Y-92456000D03*
X71965000Y-92456000D03*
%TD*%
%TO.C,C2*%
X73515000Y-89916000D03*
X71965000Y-89916000D03*
%TD*%
D26*
%TO.C,J3*%
X60436000Y-76500000D03*
D27*
X60436000Y-79040000D03*
%TD*%
D29*
%TO.C,R5*%
X58948000Y-98526000D03*
X58948000Y-100176000D03*
%TD*%
D30*
%TO.C,SW4*%
X115066000Y-78559500D03*
X122076000Y-78559500D03*
D31*
X116316000Y-76069500D03*
X120816000Y-76069500D03*
%TD*%
D30*
%TO.C,SW3*%
X105160000Y-78559500D03*
X112170000Y-78559500D03*
D31*
X106410000Y-76069500D03*
X110910000Y-76069500D03*
%TD*%
D30*
%TO.C,SW2*%
X95254000Y-78559500D03*
X102264000Y-78559500D03*
D31*
X96504000Y-76069500D03*
X101004000Y-76069500D03*
%TD*%
D33*
%TO.C,C3*%
X82125000Y-88011000D03*
X83675000Y-88011000D03*
%TD*%
D34*
%TO.C,U1*%
X68005000Y-108918000D03*
X66905000Y-108918000D03*
X65805000Y-108918000D03*
X65055000Y-108918000D03*
X63605000Y-108918000D03*
X62505000Y-108918000D03*
X61405000Y-108918000D03*
X60305000Y-108918000D03*
X64355000Y-108918000D03*
D35*
X59055000Y-107188000D03*
X59055000Y-102738000D03*
X69255000Y-102738000D03*
X69255000Y-107188000D03*
%TD*%
D29*
%TO.C,R7*%
X64028000Y-98526000D03*
X64028000Y-100176000D03*
%TD*%
D36*
%TO.C,IC1*%
X76519000Y-89877000D03*
X76519000Y-90527000D03*
X76519000Y-91177000D03*
X76519000Y-91827000D03*
X76519000Y-92477000D03*
X76519000Y-93127000D03*
X76519000Y-93787000D03*
X76519000Y-94437000D03*
X76519000Y-95087000D03*
X76519000Y-95737000D03*
X76519000Y-96387000D03*
X76519000Y-97037000D03*
X76519000Y-97687000D03*
X76519000Y-98337000D03*
X83439000Y-98337000D03*
X83439000Y-97687000D03*
X83439000Y-97037000D03*
X83439000Y-96387000D03*
X83439000Y-95737000D03*
X83439000Y-95087000D03*
X83439000Y-94437000D03*
X83439000Y-93787000D03*
X83439000Y-93127000D03*
X83439000Y-92477000D03*
X83439000Y-91827000D03*
X83439000Y-91177000D03*
X83439000Y-90527000D03*
X83439000Y-89877000D03*
%TD*%
D21*
%TO.C,C1*%
X87091000Y-90284000D03*
X87091000Y-91834000D03*
%TD*%
%LPD*%
M02*
