%TF.GenerationSoftware,KiCad,Pcbnew,7.0.11*%
%TF.CreationDate,2024-12-08T19:05:50-06:00*%
%TF.ProjectId,WiRSa,57695253-612e-46b6-9963-61645f706362,rev?*%
%TF.SameCoordinates,Original*%
%TF.FileFunction,Soldermask,Bot*%
%TF.FilePolarity,Negative*%
%FSLAX46Y46*%
G04 Gerber Fmt 4.6, Leading zero omitted, Abs format (unit mm)*
G04 Created by KiCad (PCBNEW 7.0.11) date 2024-12-08 19:05:50*
%MOMM*%
%LPD*%
G01*
G04 APERTURE LIST*
%ADD10C,4.000000*%
%ADD11R,1.600000X1.600000*%
%ADD12C,1.600000*%
%ADD13R,1.200000X2.000000*%
%ADD14O,1.200000X2.000000*%
%ADD15R,1.700000X1.700000*%
%ADD16O,1.700000X1.700000*%
%ADD17C,2.100000*%
%ADD18C,1.750000*%
G04 APERTURE END LIST*
D10*
%TO.C,J1*%
X54356000Y-79013000D03*
X54356000Y-104013000D03*
D11*
X54656000Y-97053000D03*
D12*
X54656000Y-94283000D03*
X54656000Y-91513000D03*
X54656000Y-88743000D03*
X54656000Y-85973000D03*
X51816000Y-95668000D03*
X51816000Y-92898000D03*
X51816000Y-90128000D03*
X51816000Y-87358000D03*
%TD*%
D13*
%TO.C,U2*%
X109389525Y-82663572D03*
D14*
X106849525Y-82663572D03*
X104309525Y-82663572D03*
X101769525Y-82663572D03*
X99229525Y-82663572D03*
X96689525Y-82663572D03*
X94149525Y-82663572D03*
X91609525Y-82663572D03*
X89069525Y-82663572D03*
X86529525Y-82663572D03*
X83989525Y-82663572D03*
X81449525Y-82663572D03*
X78909525Y-82663572D03*
X76369525Y-82663572D03*
X73829525Y-82663572D03*
X73870601Y-108257032D03*
X76410601Y-108257032D03*
X78950601Y-108257032D03*
X81490601Y-108257032D03*
X84030601Y-108257032D03*
X86570601Y-108257032D03*
X89110601Y-108257032D03*
X91650601Y-108257032D03*
X94190601Y-108257032D03*
X96730601Y-108257032D03*
X99270601Y-108257032D03*
X101810601Y-108257032D03*
X104350601Y-108257032D03*
X106890601Y-108257032D03*
X109430601Y-108257032D03*
%TD*%
D15*
%TO.C,J2*%
X123825000Y-83058000D03*
D16*
X123825000Y-85598000D03*
%TD*%
D17*
%TO.C,SW1*%
X85348000Y-78559500D03*
X92358000Y-78559500D03*
D18*
X86598000Y-76069500D03*
X91098000Y-76069500D03*
%TD*%
D15*
%TO.C,J3*%
X60436000Y-76500000D03*
D16*
X60436000Y-79040000D03*
%TD*%
D17*
%TO.C,SW4*%
X115066000Y-78559500D03*
X122076000Y-78559500D03*
D18*
X116316000Y-76069500D03*
X120816000Y-76069500D03*
%TD*%
D17*
%TO.C,SW3*%
X105160000Y-78559500D03*
X112170000Y-78559500D03*
D18*
X106410000Y-76069500D03*
X110910000Y-76069500D03*
%TD*%
D17*
%TO.C,SW2*%
X95254000Y-78559500D03*
X102264000Y-78559500D03*
D18*
X96504000Y-76069500D03*
X101004000Y-76069500D03*
%TD*%
M02*
