%TF.GenerationSoftware,KiCad,Pcbnew,(6.0.4)*%
%TF.CreationDate,2022-09-30T21:10:11-05:00*%
%TF.ProjectId,WiRSa,57695253-612e-46b6-9963-61645f706362,rev?*%
%TF.SameCoordinates,Original*%
%TF.FileFunction,Legend,Top*%
%TF.FilePolarity,Positive*%
%FSLAX46Y46*%
G04 Gerber Fmt 4.6, Leading zero omitted, Abs format (unit mm)*
G04 Created by KiCad (PCBNEW (6.0.4)) date 2022-09-30 21:10:11*
%MOMM*%
%LPD*%
G01*
G04 APERTURE LIST*
%ADD10C,0.150000*%
%ADD11C,0.120000*%
G04 APERTURE END LIST*
D10*
%TO.C,RS232*%
X71683619Y-86796761D02*
X72159809Y-86463428D01*
X71683619Y-86225333D02*
X72683619Y-86225333D01*
X72683619Y-86606285D01*
X72636000Y-86701523D01*
X72588380Y-86749142D01*
X72493142Y-86796761D01*
X72350285Y-86796761D01*
X72255047Y-86749142D01*
X72207428Y-86701523D01*
X72159809Y-86606285D01*
X72159809Y-86225333D01*
X71731238Y-87177714D02*
X71683619Y-87320571D01*
X71683619Y-87558666D01*
X71731238Y-87653904D01*
X71778857Y-87701523D01*
X71874095Y-87749142D01*
X71969333Y-87749142D01*
X72064571Y-87701523D01*
X72112190Y-87653904D01*
X72159809Y-87558666D01*
X72207428Y-87368190D01*
X72255047Y-87272952D01*
X72302666Y-87225333D01*
X72397904Y-87177714D01*
X72493142Y-87177714D01*
X72588380Y-87225333D01*
X72636000Y-87272952D01*
X72683619Y-87368190D01*
X72683619Y-87606285D01*
X72636000Y-87749142D01*
X72588380Y-88130095D02*
X72636000Y-88177714D01*
X72683619Y-88272952D01*
X72683619Y-88511047D01*
X72636000Y-88606285D01*
X72588380Y-88653904D01*
X72493142Y-88701523D01*
X72397904Y-88701523D01*
X72255047Y-88653904D01*
X71683619Y-88082476D01*
X71683619Y-88701523D01*
X72683619Y-89034857D02*
X72683619Y-89653904D01*
X72302666Y-89320571D01*
X72302666Y-89463428D01*
X72255047Y-89558666D01*
X72207428Y-89606285D01*
X72112190Y-89653904D01*
X71874095Y-89653904D01*
X71778857Y-89606285D01*
X71731238Y-89558666D01*
X71683619Y-89463428D01*
X71683619Y-89177714D01*
X71731238Y-89082476D01*
X71778857Y-89034857D01*
X72588380Y-90034857D02*
X72636000Y-90082476D01*
X72683619Y-90177714D01*
X72683619Y-90415809D01*
X72636000Y-90511047D01*
X72588380Y-90558666D01*
X72493142Y-90606285D01*
X72397904Y-90606285D01*
X72255047Y-90558666D01*
X71683619Y-89987238D01*
X71683619Y-90606285D01*
D11*
X75625000Y-93395000D02*
X74295000Y-93395000D01*
X75625000Y-90795000D02*
X75625000Y-83115000D01*
X75625000Y-90795000D02*
X72965000Y-90795000D01*
X75625000Y-92065000D02*
X75625000Y-93395000D01*
X75625000Y-83115000D02*
X72965000Y-83115000D01*
X72965000Y-90795000D02*
X72965000Y-83115000D01*
%TO.C,U1*%
X111210000Y-75485000D02*
X78880000Y-75485000D01*
X76750000Y-77605000D02*
X76750000Y-99215000D01*
X104310000Y-101345000D02*
X104310000Y-98805000D01*
X111210000Y-98805000D02*
X111210000Y-75485000D01*
X104310000Y-101345000D02*
X78880000Y-101345000D01*
X104310000Y-98805000D02*
X111210000Y-98805000D01*
X76750000Y-99215000D02*
G75*
G03*
X78880000Y-101345000I2130002J2D01*
G01*
X78880000Y-75485000D02*
G75*
G03*
X76750000Y-77615000I0J-2130000D01*
G01*
G36*
X85725000Y-102385000D02*
G01*
X84455000Y-102385000D01*
X85090000Y-101750000D01*
X85725000Y-102385000D01*
G37*
D10*
X85725000Y-102385000D02*
X84455000Y-102385000D01*
X85090000Y-101750000D01*
X85725000Y-102385000D01*
%TD*%
M02*
