%TF.GenerationSoftware,KiCad,Pcbnew,7.0.11*%
%TF.CreationDate,2024-12-08T19:05:54-06:00*%
%TF.ProjectId,WiRSa,57695253-612e-46b6-9963-61645f706362,rev?*%
%TF.SameCoordinates,Original*%
%TF.FileFunction,Drillmap*%
%TF.FilePolarity,Positive*%
%FSLAX45Y45*%
G04 Gerber Fmt 4.5, Leading zero omitted, Abs format (unit mm)*
G04 Created by KiCad (PCBNEW 7.0.11) date 2024-12-08 19:05:54*
%MOMM*%
%LPD*%
G01*
G04 APERTURE LIST*
%ADD10C,0.050000*%
%ADD11C,0.200000*%
%ADD12C,0.100000*%
%ADD13C,0.130000*%
%ADD14C,0.320000*%
G04 APERTURE END LIST*
D10*
X12549200Y-7347200D02*
X12549200Y-10974000D01*
X7061200Y-7347200D02*
X12549200Y-7347200D01*
X6261100Y-7347200D02*
X6261100Y-7512800D01*
X12549200Y-10974000D02*
X4584700Y-10974000D01*
X4584700Y-7347200D02*
X6261100Y-7347200D01*
X7061200Y-7512800D02*
X7061200Y-7347200D01*
X6261100Y-7512800D02*
X7061200Y-7512800D01*
X4584700Y-10974000D02*
X4584700Y-7347200D01*
D11*
D12*
X5639000Y-8557270D02*
X5679000Y-8597270D01*
X5679000Y-8557270D02*
X5639000Y-8597270D01*
X6034730Y-9546090D02*
X6074730Y-9586090D01*
X6074730Y-9546090D02*
X6034730Y-9586090D01*
X6351400Y-10136160D02*
X6391400Y-10176160D01*
X6391400Y-10136160D02*
X6351400Y-10176160D01*
X6426620Y-10715690D02*
X6466620Y-10755690D01*
X6466620Y-10715690D02*
X6426620Y-10755690D01*
X6478730Y-9184220D02*
X6518730Y-9224220D01*
X6518730Y-9184220D02*
X6478730Y-9224220D01*
X6812600Y-9098600D02*
X6852600Y-9138600D01*
X6852600Y-9098600D02*
X6812600Y-9138600D01*
X7106120Y-10199310D02*
X7146120Y-10239310D01*
X7146120Y-10199310D02*
X7106120Y-10239310D01*
X7142800Y-10470200D02*
X7182800Y-10510200D01*
X7182800Y-10470200D02*
X7142800Y-10510200D01*
X7156550Y-9742090D02*
X7196550Y-9782090D01*
X7196550Y-9742090D02*
X7156550Y-9782090D01*
X7195760Y-7442690D02*
X7235760Y-7482690D01*
X7235760Y-7442690D02*
X7195760Y-7482690D01*
X7203270Y-9901180D02*
X7243270Y-9941180D01*
X7243270Y-9901180D02*
X7203270Y-9941180D01*
X7429180Y-9768750D02*
X7469180Y-9808750D01*
X7469180Y-9768750D02*
X7429180Y-9808750D01*
X7802920Y-9743410D02*
X7842920Y-9783410D01*
X7842920Y-9743410D02*
X7802920Y-9783410D01*
X7907660Y-9621370D02*
X7947660Y-9661370D01*
X7947660Y-9621370D02*
X7907660Y-9661370D01*
X8281210Y-10642410D02*
X8321210Y-10682410D01*
X8321210Y-10642410D02*
X8281210Y-10682410D01*
X8406870Y-9936890D02*
X8446870Y-9976890D01*
X8446870Y-9936890D02*
X8406870Y-9976890D01*
X8822680Y-10365040D02*
X8862680Y-10405040D01*
X8862680Y-10365040D02*
X8822680Y-10405040D01*
X9241000Y-10494860D02*
X9281000Y-10534860D01*
X9281000Y-10494860D02*
X9241000Y-10534860D01*
X10029950Y-8249180D02*
X10069950Y-8289180D01*
X10069950Y-8249180D02*
X10029950Y-8289180D01*
X7422952Y-8266357D02*
G75*
G03*
X7342952Y-8266357I-40000J0D01*
G01*
X7342952Y-8266357D02*
G75*
G03*
X7422952Y-8266357I40000J0D01*
G01*
X7427060Y-10825703D02*
G75*
G03*
X7347060Y-10825703I-40000J0D01*
G01*
X7347060Y-10825703D02*
G75*
G03*
X7427060Y-10825703I40000J0D01*
G01*
X7676952Y-8266357D02*
G75*
G03*
X7596952Y-8266357I-40000J0D01*
G01*
X7596952Y-8266357D02*
G75*
G03*
X7676952Y-8266357I40000J0D01*
G01*
X7681060Y-10825703D02*
G75*
G03*
X7601060Y-10825703I-40000J0D01*
G01*
X7601060Y-10825703D02*
G75*
G03*
X7681060Y-10825703I40000J0D01*
G01*
X7930952Y-8266357D02*
G75*
G03*
X7850952Y-8266357I-40000J0D01*
G01*
X7850952Y-8266357D02*
G75*
G03*
X7930952Y-8266357I40000J0D01*
G01*
X7935060Y-10825703D02*
G75*
G03*
X7855060Y-10825703I-40000J0D01*
G01*
X7855060Y-10825703D02*
G75*
G03*
X7935060Y-10825703I40000J0D01*
G01*
X8184952Y-8266357D02*
G75*
G03*
X8104952Y-8266357I-40000J0D01*
G01*
X8104952Y-8266357D02*
G75*
G03*
X8184952Y-8266357I40000J0D01*
G01*
X8189060Y-10825703D02*
G75*
G03*
X8109060Y-10825703I-40000J0D01*
G01*
X8109060Y-10825703D02*
G75*
G03*
X8189060Y-10825703I40000J0D01*
G01*
X8438953Y-8266357D02*
G75*
G03*
X8358952Y-8266357I-40000J0D01*
G01*
X8358952Y-8266357D02*
G75*
G03*
X8438953Y-8266357I40000J0D01*
G01*
X8443060Y-10825703D02*
G75*
G03*
X8363060Y-10825703I-40000J0D01*
G01*
X8363060Y-10825703D02*
G75*
G03*
X8443060Y-10825703I40000J0D01*
G01*
X8692953Y-8266357D02*
G75*
G03*
X8612953Y-8266357I-40000J0D01*
G01*
X8612953Y-8266357D02*
G75*
G03*
X8692953Y-8266357I40000J0D01*
G01*
X8697060Y-10825703D02*
G75*
G03*
X8617060Y-10825703I-40000J0D01*
G01*
X8617060Y-10825703D02*
G75*
G03*
X8697060Y-10825703I40000J0D01*
G01*
X8946953Y-8266357D02*
G75*
G03*
X8866953Y-8266357I-40000J0D01*
G01*
X8866953Y-8266357D02*
G75*
G03*
X8946953Y-8266357I40000J0D01*
G01*
X8951060Y-10825703D02*
G75*
G03*
X8871060Y-10825703I-40000J0D01*
G01*
X8871060Y-10825703D02*
G75*
G03*
X8951060Y-10825703I40000J0D01*
G01*
X9200953Y-8266357D02*
G75*
G03*
X9120953Y-8266357I-40000J0D01*
G01*
X9120953Y-8266357D02*
G75*
G03*
X9200953Y-8266357I40000J0D01*
G01*
X9205060Y-10825703D02*
G75*
G03*
X9125060Y-10825703I-40000J0D01*
G01*
X9125060Y-10825703D02*
G75*
G03*
X9205060Y-10825703I40000J0D01*
G01*
X9454953Y-8266357D02*
G75*
G03*
X9374953Y-8266357I-40000J0D01*
G01*
X9374953Y-8266357D02*
G75*
G03*
X9454953Y-8266357I40000J0D01*
G01*
X9459060Y-10825703D02*
G75*
G03*
X9379060Y-10825703I-40000J0D01*
G01*
X9379060Y-10825703D02*
G75*
G03*
X9459060Y-10825703I40000J0D01*
G01*
X9708953Y-8266357D02*
G75*
G03*
X9628953Y-8266357I-40000J0D01*
G01*
X9628953Y-8266357D02*
G75*
G03*
X9708953Y-8266357I40000J0D01*
G01*
X9713060Y-10825703D02*
G75*
G03*
X9633060Y-10825703I-40000J0D01*
G01*
X9633060Y-10825703D02*
G75*
G03*
X9713060Y-10825703I40000J0D01*
G01*
X9962953Y-8266357D02*
G75*
G03*
X9882953Y-8266357I-40000J0D01*
G01*
X9882953Y-8266357D02*
G75*
G03*
X9962953Y-8266357I40000J0D01*
G01*
X9967060Y-10825703D02*
G75*
G03*
X9887060Y-10825703I-40000J0D01*
G01*
X9887060Y-10825703D02*
G75*
G03*
X9967060Y-10825703I40000J0D01*
G01*
X10216953Y-8266357D02*
G75*
G03*
X10136953Y-8266357I-40000J0D01*
G01*
X10136953Y-8266357D02*
G75*
G03*
X10216953Y-8266357I40000J0D01*
G01*
X10221060Y-10825703D02*
G75*
G03*
X10141060Y-10825703I-40000J0D01*
G01*
X10141060Y-10825703D02*
G75*
G03*
X10221060Y-10825703I40000J0D01*
G01*
X10470953Y-8266357D02*
G75*
G03*
X10390953Y-8266357I-40000J0D01*
G01*
X10390953Y-8266357D02*
G75*
G03*
X10470953Y-8266357I40000J0D01*
G01*
X10475060Y-10825703D02*
G75*
G03*
X10395060Y-10825703I-40000J0D01*
G01*
X10395060Y-10825703D02*
G75*
G03*
X10475060Y-10825703I40000J0D01*
G01*
X10724953Y-8266357D02*
G75*
G03*
X10644953Y-8266357I-40000J0D01*
G01*
X10644953Y-8266357D02*
G75*
G03*
X10724953Y-8266357I40000J0D01*
G01*
X10729060Y-10825703D02*
G75*
G03*
X10649060Y-10825703I-40000J0D01*
G01*
X10649060Y-10825703D02*
G75*
G03*
X10729060Y-10825703I40000J0D01*
G01*
X10978953Y-8266357D02*
G75*
G03*
X10898953Y-8266357I-40000J0D01*
G01*
X10898953Y-8266357D02*
G75*
G03*
X10978953Y-8266357I40000J0D01*
G01*
X10983060Y-10825703D02*
G75*
G03*
X10903060Y-10825703I-40000J0D01*
G01*
X10903060Y-10825703D02*
G75*
G03*
X10983060Y-10825703I40000J0D01*
G01*
X8659800Y-7557450D02*
X8659800Y-7656450D01*
X8610300Y-7606950D02*
X8709300Y-7606950D01*
X9109800Y-7557450D02*
X9109800Y-7656450D01*
X9060300Y-7606950D02*
X9159300Y-7606950D01*
X9650400Y-7557450D02*
X9650400Y-7656450D01*
X9600900Y-7606950D02*
X9699900Y-7606950D01*
X10100400Y-7557450D02*
X10100400Y-7656450D01*
X10050900Y-7606950D02*
X10149900Y-7606950D01*
X10641000Y-7557450D02*
X10641000Y-7656450D01*
X10591500Y-7606950D02*
X10690500Y-7606950D01*
X11091000Y-7557450D02*
X11091000Y-7656450D01*
X11041500Y-7606950D02*
X11140500Y-7606950D01*
X11631600Y-7557450D02*
X11631600Y-7656450D01*
X11582100Y-7606950D02*
X11681100Y-7606950D01*
X12081600Y-7557450D02*
X12081600Y-7656450D01*
X12032100Y-7606950D02*
X12131100Y-7606950D01*
X5216956Y-8771156D02*
X5216956Y-8700444D01*
X5146244Y-8700444D01*
X5146244Y-8771156D01*
X5216956Y-8771156D01*
X5216956Y-9048156D02*
X5216956Y-8977444D01*
X5146244Y-8977444D01*
X5146244Y-9048156D01*
X5216956Y-9048156D01*
X5216956Y-9325156D02*
X5216956Y-9254444D01*
X5146244Y-9254444D01*
X5146244Y-9325156D01*
X5216956Y-9325156D01*
X5216956Y-9602156D02*
X5216956Y-9531444D01*
X5146244Y-9531444D01*
X5146244Y-9602156D01*
X5216956Y-9602156D01*
X5500956Y-8632656D02*
X5500956Y-8561944D01*
X5430244Y-8561944D01*
X5430244Y-8632656D01*
X5500956Y-8632656D01*
X5500956Y-8909656D02*
X5500956Y-8838944D01*
X5430244Y-8838944D01*
X5430244Y-8909656D01*
X5500956Y-8909656D01*
X5500956Y-9186656D02*
X5500956Y-9115944D01*
X5430244Y-9115944D01*
X5430244Y-9186656D01*
X5500956Y-9186656D01*
X5500956Y-9463656D02*
X5500956Y-9392944D01*
X5430244Y-9392944D01*
X5430244Y-9463656D01*
X5500956Y-9463656D01*
X5500956Y-9740656D02*
X5500956Y-9669944D01*
X5430244Y-9669944D01*
X5430244Y-9740656D01*
X5500956Y-9740656D01*
X6078956Y-7685356D02*
X6078956Y-7614644D01*
X6008244Y-7614644D01*
X6008244Y-7685356D01*
X6078956Y-7685356D01*
X6078956Y-7939356D02*
X6078956Y-7868644D01*
X6008244Y-7868644D01*
X6008244Y-7939356D01*
X6078956Y-7939356D01*
X12417856Y-8341156D02*
X12417856Y-8270444D01*
X12347144Y-8270444D01*
X12347144Y-8341156D01*
X12417856Y-8341156D01*
X12417856Y-8595156D02*
X12417856Y-8524444D01*
X12347144Y-8524444D01*
X12347144Y-8595156D01*
X12417856Y-8595156D01*
D13*
X8534800Y-7920950D02*
X8599800Y-7855950D01*
X8534800Y-7790950D01*
X8469800Y-7855950D01*
X8534800Y-7920950D01*
X9235800Y-7920950D02*
X9300800Y-7855950D01*
X9235800Y-7790950D01*
X9170800Y-7855950D01*
X9235800Y-7920950D01*
X9525400Y-7920950D02*
X9590400Y-7855950D01*
X9525400Y-7790950D01*
X9460400Y-7855950D01*
X9525400Y-7920950D01*
X10226400Y-7920950D02*
X10291400Y-7855950D01*
X10226400Y-7790950D01*
X10161400Y-7855950D01*
X10226400Y-7920950D01*
X10516000Y-7920950D02*
X10581000Y-7855950D01*
X10516000Y-7790950D01*
X10451000Y-7855950D01*
X10516000Y-7920950D01*
X11217000Y-7920950D02*
X11282000Y-7855950D01*
X11217000Y-7790950D01*
X11152000Y-7855950D01*
X11217000Y-7920950D01*
X11506600Y-7920950D02*
X11571600Y-7855950D01*
X11506600Y-7790950D01*
X11441600Y-7855950D01*
X11506600Y-7920950D01*
X12207600Y-7920950D02*
X12272600Y-7855950D01*
X12207600Y-7790950D01*
X12142600Y-7855950D01*
X12207600Y-7920950D01*
D14*
X5275600Y-7741300D02*
X5595600Y-8061300D01*
X5595600Y-7741300D02*
X5275600Y-8061300D01*
X5595600Y-7901300D02*
G75*
G03*
X5275600Y-7901300I-160000J0D01*
G01*
X5275600Y-7901300D02*
G75*
G03*
X5595600Y-7901300I160000J0D01*
G01*
X5275600Y-10241300D02*
X5595600Y-10561300D01*
X5595600Y-10241300D02*
X5275600Y-10561300D01*
X5595600Y-10401300D02*
G75*
G03*
X5275600Y-10401300I-160000J0D01*
G01*
X5275600Y-10401300D02*
G75*
G03*
X5595600Y-10401300I160000J0D01*
G01*
D11*
X4842977Y-11287984D02*
X4842977Y-11087984D01*
X4842977Y-11087984D02*
X4890596Y-11087984D01*
X4890596Y-11087984D02*
X4919167Y-11097508D01*
X4919167Y-11097508D02*
X4938215Y-11116555D01*
X4938215Y-11116555D02*
X4947739Y-11135603D01*
X4947739Y-11135603D02*
X4957263Y-11173698D01*
X4957263Y-11173698D02*
X4957263Y-11202269D01*
X4957263Y-11202269D02*
X4947739Y-11240365D01*
X4947739Y-11240365D02*
X4938215Y-11259412D01*
X4938215Y-11259412D02*
X4919167Y-11278460D01*
X4919167Y-11278460D02*
X4890596Y-11287984D01*
X4890596Y-11287984D02*
X4842977Y-11287984D01*
X5042977Y-11287984D02*
X5042977Y-11154650D01*
X5042977Y-11192746D02*
X5052501Y-11173698D01*
X5052501Y-11173698D02*
X5062024Y-11164174D01*
X5062024Y-11164174D02*
X5081072Y-11154650D01*
X5081072Y-11154650D02*
X5100120Y-11154650D01*
X5166786Y-11287984D02*
X5166786Y-11154650D01*
X5166786Y-11087984D02*
X5157263Y-11097508D01*
X5157263Y-11097508D02*
X5166786Y-11107031D01*
X5166786Y-11107031D02*
X5176310Y-11097508D01*
X5176310Y-11097508D02*
X5166786Y-11087984D01*
X5166786Y-11087984D02*
X5166786Y-11107031D01*
X5290596Y-11287984D02*
X5271548Y-11278460D01*
X5271548Y-11278460D02*
X5262024Y-11259412D01*
X5262024Y-11259412D02*
X5262024Y-11087984D01*
X5395358Y-11287984D02*
X5376310Y-11278460D01*
X5376310Y-11278460D02*
X5366786Y-11259412D01*
X5366786Y-11259412D02*
X5366786Y-11087984D01*
X5623929Y-11287984D02*
X5623929Y-11087984D01*
X5623929Y-11087984D02*
X5690596Y-11230841D01*
X5690596Y-11230841D02*
X5757262Y-11087984D01*
X5757262Y-11087984D02*
X5757262Y-11287984D01*
X5938215Y-11287984D02*
X5938215Y-11183222D01*
X5938215Y-11183222D02*
X5928691Y-11164174D01*
X5928691Y-11164174D02*
X5909643Y-11154650D01*
X5909643Y-11154650D02*
X5871548Y-11154650D01*
X5871548Y-11154650D02*
X5852501Y-11164174D01*
X5938215Y-11278460D02*
X5919167Y-11287984D01*
X5919167Y-11287984D02*
X5871548Y-11287984D01*
X5871548Y-11287984D02*
X5852501Y-11278460D01*
X5852501Y-11278460D02*
X5842977Y-11259412D01*
X5842977Y-11259412D02*
X5842977Y-11240365D01*
X5842977Y-11240365D02*
X5852501Y-11221317D01*
X5852501Y-11221317D02*
X5871548Y-11211793D01*
X5871548Y-11211793D02*
X5919167Y-11211793D01*
X5919167Y-11211793D02*
X5938215Y-11202269D01*
X6033453Y-11154650D02*
X6033453Y-11354650D01*
X6033453Y-11164174D02*
X6052501Y-11154650D01*
X6052501Y-11154650D02*
X6090596Y-11154650D01*
X6090596Y-11154650D02*
X6109643Y-11164174D01*
X6109643Y-11164174D02*
X6119167Y-11173698D01*
X6119167Y-11173698D02*
X6128691Y-11192746D01*
X6128691Y-11192746D02*
X6128691Y-11249888D01*
X6128691Y-11249888D02*
X6119167Y-11268936D01*
X6119167Y-11268936D02*
X6109643Y-11278460D01*
X6109643Y-11278460D02*
X6090596Y-11287984D01*
X6090596Y-11287984D02*
X6052501Y-11287984D01*
X6052501Y-11287984D02*
X6033453Y-11278460D01*
X6214405Y-11268936D02*
X6223929Y-11278460D01*
X6223929Y-11278460D02*
X6214405Y-11287984D01*
X6214405Y-11287984D02*
X6204882Y-11278460D01*
X6204882Y-11278460D02*
X6214405Y-11268936D01*
X6214405Y-11268936D02*
X6214405Y-11287984D01*
X6214405Y-11164174D02*
X6223929Y-11173698D01*
X6223929Y-11173698D02*
X6214405Y-11183222D01*
X6214405Y-11183222D02*
X6204882Y-11173698D01*
X6204882Y-11173698D02*
X6214405Y-11164174D01*
X6214405Y-11164174D02*
X6214405Y-11183222D01*
D12*
X4542200Y-11596500D02*
X4582200Y-11636500D01*
X4582200Y-11596500D02*
X4542200Y-11636500D01*
D11*
X4881072Y-11507984D02*
X4900120Y-11507984D01*
X4900120Y-11507984D02*
X4919167Y-11517508D01*
X4919167Y-11517508D02*
X4928691Y-11527031D01*
X4928691Y-11527031D02*
X4938215Y-11546079D01*
X4938215Y-11546079D02*
X4947739Y-11584174D01*
X4947739Y-11584174D02*
X4947739Y-11631793D01*
X4947739Y-11631793D02*
X4938215Y-11669888D01*
X4938215Y-11669888D02*
X4928691Y-11688936D01*
X4928691Y-11688936D02*
X4919167Y-11698460D01*
X4919167Y-11698460D02*
X4900120Y-11707984D01*
X4900120Y-11707984D02*
X4881072Y-11707984D01*
X4881072Y-11707984D02*
X4862024Y-11698460D01*
X4862024Y-11698460D02*
X4852501Y-11688936D01*
X4852501Y-11688936D02*
X4842977Y-11669888D01*
X4842977Y-11669888D02*
X4833453Y-11631793D01*
X4833453Y-11631793D02*
X4833453Y-11584174D01*
X4833453Y-11584174D02*
X4842977Y-11546079D01*
X4842977Y-11546079D02*
X4852501Y-11527031D01*
X4852501Y-11527031D02*
X4862024Y-11517508D01*
X4862024Y-11517508D02*
X4881072Y-11507984D01*
X5033453Y-11688936D02*
X5042977Y-11698460D01*
X5042977Y-11698460D02*
X5033453Y-11707984D01*
X5033453Y-11707984D02*
X5023929Y-11698460D01*
X5023929Y-11698460D02*
X5033453Y-11688936D01*
X5033453Y-11688936D02*
X5033453Y-11707984D01*
X5214405Y-11574650D02*
X5214405Y-11707984D01*
X5166786Y-11498460D02*
X5119167Y-11641317D01*
X5119167Y-11641317D02*
X5242977Y-11641317D01*
X5357263Y-11507984D02*
X5376310Y-11507984D01*
X5376310Y-11507984D02*
X5395358Y-11517508D01*
X5395358Y-11517508D02*
X5404882Y-11527031D01*
X5404882Y-11527031D02*
X5414405Y-11546079D01*
X5414405Y-11546079D02*
X5423929Y-11584174D01*
X5423929Y-11584174D02*
X5423929Y-11631793D01*
X5423929Y-11631793D02*
X5414405Y-11669888D01*
X5414405Y-11669888D02*
X5404882Y-11688936D01*
X5404882Y-11688936D02*
X5395358Y-11698460D01*
X5395358Y-11698460D02*
X5376310Y-11707984D01*
X5376310Y-11707984D02*
X5357263Y-11707984D01*
X5357263Y-11707984D02*
X5338215Y-11698460D01*
X5338215Y-11698460D02*
X5328691Y-11688936D01*
X5328691Y-11688936D02*
X5319167Y-11669888D01*
X5319167Y-11669888D02*
X5309644Y-11631793D01*
X5309644Y-11631793D02*
X5309644Y-11584174D01*
X5309644Y-11584174D02*
X5319167Y-11546079D01*
X5319167Y-11546079D02*
X5328691Y-11527031D01*
X5328691Y-11527031D02*
X5338215Y-11517508D01*
X5338215Y-11517508D02*
X5357263Y-11507984D01*
X5547739Y-11507984D02*
X5566786Y-11507984D01*
X5566786Y-11507984D02*
X5585834Y-11517508D01*
X5585834Y-11517508D02*
X5595358Y-11527031D01*
X5595358Y-11527031D02*
X5604882Y-11546079D01*
X5604882Y-11546079D02*
X5614405Y-11584174D01*
X5614405Y-11584174D02*
X5614405Y-11631793D01*
X5614405Y-11631793D02*
X5604882Y-11669888D01*
X5604882Y-11669888D02*
X5595358Y-11688936D01*
X5595358Y-11688936D02*
X5585834Y-11698460D01*
X5585834Y-11698460D02*
X5566786Y-11707984D01*
X5566786Y-11707984D02*
X5547739Y-11707984D01*
X5547739Y-11707984D02*
X5528691Y-11698460D01*
X5528691Y-11698460D02*
X5519167Y-11688936D01*
X5519167Y-11688936D02*
X5509644Y-11669888D01*
X5509644Y-11669888D02*
X5500120Y-11631793D01*
X5500120Y-11631793D02*
X5500120Y-11584174D01*
X5500120Y-11584174D02*
X5509644Y-11546079D01*
X5509644Y-11546079D02*
X5519167Y-11527031D01*
X5519167Y-11527031D02*
X5528691Y-11517508D01*
X5528691Y-11517508D02*
X5547739Y-11507984D01*
X5700120Y-11707984D02*
X5700120Y-11574650D01*
X5700120Y-11593698D02*
X5709643Y-11584174D01*
X5709643Y-11584174D02*
X5728691Y-11574650D01*
X5728691Y-11574650D02*
X5757263Y-11574650D01*
X5757263Y-11574650D02*
X5776310Y-11584174D01*
X5776310Y-11584174D02*
X5785834Y-11603222D01*
X5785834Y-11603222D02*
X5785834Y-11707984D01*
X5785834Y-11603222D02*
X5795358Y-11584174D01*
X5795358Y-11584174D02*
X5814405Y-11574650D01*
X5814405Y-11574650D02*
X5842977Y-11574650D01*
X5842977Y-11574650D02*
X5862024Y-11584174D01*
X5862024Y-11584174D02*
X5871548Y-11603222D01*
X5871548Y-11603222D02*
X5871548Y-11707984D01*
X5966786Y-11707984D02*
X5966786Y-11574650D01*
X5966786Y-11593698D02*
X5976310Y-11584174D01*
X5976310Y-11584174D02*
X5995358Y-11574650D01*
X5995358Y-11574650D02*
X6023929Y-11574650D01*
X6023929Y-11574650D02*
X6042977Y-11584174D01*
X6042977Y-11584174D02*
X6052501Y-11603222D01*
X6052501Y-11603222D02*
X6052501Y-11707984D01*
X6052501Y-11603222D02*
X6062024Y-11584174D01*
X6062024Y-11584174D02*
X6081072Y-11574650D01*
X6081072Y-11574650D02*
X6109643Y-11574650D01*
X6109643Y-11574650D02*
X6128691Y-11584174D01*
X6128691Y-11584174D02*
X6138215Y-11603222D01*
X6138215Y-11603222D02*
X6138215Y-11707984D01*
X6528691Y-11498460D02*
X6357263Y-11755603D01*
X6785834Y-11507984D02*
X6804882Y-11507984D01*
X6804882Y-11507984D02*
X6823929Y-11517508D01*
X6823929Y-11517508D02*
X6833453Y-11527031D01*
X6833453Y-11527031D02*
X6842977Y-11546079D01*
X6842977Y-11546079D02*
X6852501Y-11584174D01*
X6852501Y-11584174D02*
X6852501Y-11631793D01*
X6852501Y-11631793D02*
X6842977Y-11669888D01*
X6842977Y-11669888D02*
X6833453Y-11688936D01*
X6833453Y-11688936D02*
X6823929Y-11698460D01*
X6823929Y-11698460D02*
X6804882Y-11707984D01*
X6804882Y-11707984D02*
X6785834Y-11707984D01*
X6785834Y-11707984D02*
X6766786Y-11698460D01*
X6766786Y-11698460D02*
X6757263Y-11688936D01*
X6757263Y-11688936D02*
X6747739Y-11669888D01*
X6747739Y-11669888D02*
X6738215Y-11631793D01*
X6738215Y-11631793D02*
X6738215Y-11584174D01*
X6738215Y-11584174D02*
X6747739Y-11546079D01*
X6747739Y-11546079D02*
X6757263Y-11527031D01*
X6757263Y-11527031D02*
X6766786Y-11517508D01*
X6766786Y-11517508D02*
X6785834Y-11507984D01*
X6938215Y-11688936D02*
X6947739Y-11698460D01*
X6947739Y-11698460D02*
X6938215Y-11707984D01*
X6938215Y-11707984D02*
X6928691Y-11698460D01*
X6928691Y-11698460D02*
X6938215Y-11688936D01*
X6938215Y-11688936D02*
X6938215Y-11707984D01*
X7071548Y-11507984D02*
X7090596Y-11507984D01*
X7090596Y-11507984D02*
X7109644Y-11517508D01*
X7109644Y-11517508D02*
X7119167Y-11527031D01*
X7119167Y-11527031D02*
X7128691Y-11546079D01*
X7128691Y-11546079D02*
X7138215Y-11584174D01*
X7138215Y-11584174D02*
X7138215Y-11631793D01*
X7138215Y-11631793D02*
X7128691Y-11669888D01*
X7128691Y-11669888D02*
X7119167Y-11688936D01*
X7119167Y-11688936D02*
X7109644Y-11698460D01*
X7109644Y-11698460D02*
X7090596Y-11707984D01*
X7090596Y-11707984D02*
X7071548Y-11707984D01*
X7071548Y-11707984D02*
X7052501Y-11698460D01*
X7052501Y-11698460D02*
X7042977Y-11688936D01*
X7042977Y-11688936D02*
X7033453Y-11669888D01*
X7033453Y-11669888D02*
X7023929Y-11631793D01*
X7023929Y-11631793D02*
X7023929Y-11584174D01*
X7023929Y-11584174D02*
X7033453Y-11546079D01*
X7033453Y-11546079D02*
X7042977Y-11527031D01*
X7042977Y-11527031D02*
X7052501Y-11517508D01*
X7052501Y-11517508D02*
X7071548Y-11507984D01*
X7328691Y-11707984D02*
X7214406Y-11707984D01*
X7271548Y-11707984D02*
X7271548Y-11507984D01*
X7271548Y-11507984D02*
X7252501Y-11536555D01*
X7252501Y-11536555D02*
X7233453Y-11555603D01*
X7233453Y-11555603D02*
X7214406Y-11565127D01*
X7509644Y-11507984D02*
X7414406Y-11507984D01*
X7414406Y-11507984D02*
X7404882Y-11603222D01*
X7404882Y-11603222D02*
X7414406Y-11593698D01*
X7414406Y-11593698D02*
X7433453Y-11584174D01*
X7433453Y-11584174D02*
X7481072Y-11584174D01*
X7481072Y-11584174D02*
X7500120Y-11593698D01*
X7500120Y-11593698D02*
X7509644Y-11603222D01*
X7509644Y-11603222D02*
X7519167Y-11622269D01*
X7519167Y-11622269D02*
X7519167Y-11669888D01*
X7519167Y-11669888D02*
X7509644Y-11688936D01*
X7509644Y-11688936D02*
X7500120Y-11698460D01*
X7500120Y-11698460D02*
X7481072Y-11707984D01*
X7481072Y-11707984D02*
X7433453Y-11707984D01*
X7433453Y-11707984D02*
X7414406Y-11698460D01*
X7414406Y-11698460D02*
X7404882Y-11688936D01*
X7585834Y-11507984D02*
X7719167Y-11507984D01*
X7719167Y-11507984D02*
X7633453Y-11707984D01*
X7785834Y-11507984D02*
X7785834Y-11546079D01*
X7862025Y-11507984D02*
X7862025Y-11546079D01*
X8157263Y-11784174D02*
X8147739Y-11774650D01*
X8147739Y-11774650D02*
X8128691Y-11746079D01*
X8128691Y-11746079D02*
X8119168Y-11727031D01*
X8119168Y-11727031D02*
X8109644Y-11698460D01*
X8109644Y-11698460D02*
X8100120Y-11650841D01*
X8100120Y-11650841D02*
X8100120Y-11612746D01*
X8100120Y-11612746D02*
X8109644Y-11565127D01*
X8109644Y-11565127D02*
X8119168Y-11536555D01*
X8119168Y-11536555D02*
X8128691Y-11517508D01*
X8128691Y-11517508D02*
X8147739Y-11488936D01*
X8147739Y-11488936D02*
X8157263Y-11479412D01*
X8338215Y-11707984D02*
X8223929Y-11707984D01*
X8281072Y-11707984D02*
X8281072Y-11507984D01*
X8281072Y-11507984D02*
X8262025Y-11536555D01*
X8262025Y-11536555D02*
X8242977Y-11555603D01*
X8242977Y-11555603D02*
X8223929Y-11565127D01*
X8433453Y-11707984D02*
X8471549Y-11707984D01*
X8471549Y-11707984D02*
X8490596Y-11698460D01*
X8490596Y-11698460D02*
X8500120Y-11688936D01*
X8500120Y-11688936D02*
X8519168Y-11660365D01*
X8519168Y-11660365D02*
X8528691Y-11622269D01*
X8528691Y-11622269D02*
X8528691Y-11546079D01*
X8528691Y-11546079D02*
X8519168Y-11527031D01*
X8519168Y-11527031D02*
X8509644Y-11517508D01*
X8509644Y-11517508D02*
X8490596Y-11507984D01*
X8490596Y-11507984D02*
X8452501Y-11507984D01*
X8452501Y-11507984D02*
X8433453Y-11517508D01*
X8433453Y-11517508D02*
X8423930Y-11527031D01*
X8423930Y-11527031D02*
X8414406Y-11546079D01*
X8414406Y-11546079D02*
X8414406Y-11593698D01*
X8414406Y-11593698D02*
X8423930Y-11612746D01*
X8423930Y-11612746D02*
X8433453Y-11622269D01*
X8433453Y-11622269D02*
X8452501Y-11631793D01*
X8452501Y-11631793D02*
X8490596Y-11631793D01*
X8490596Y-11631793D02*
X8509644Y-11622269D01*
X8509644Y-11622269D02*
X8519168Y-11612746D01*
X8519168Y-11612746D02*
X8528691Y-11593698D01*
X8766787Y-11707984D02*
X8766787Y-11507984D01*
X8852501Y-11707984D02*
X8852501Y-11603222D01*
X8852501Y-11603222D02*
X8842977Y-11584174D01*
X8842977Y-11584174D02*
X8823930Y-11574650D01*
X8823930Y-11574650D02*
X8795358Y-11574650D01*
X8795358Y-11574650D02*
X8776311Y-11584174D01*
X8776311Y-11584174D02*
X8766787Y-11593698D01*
X8976311Y-11707984D02*
X8957263Y-11698460D01*
X8957263Y-11698460D02*
X8947739Y-11688936D01*
X8947739Y-11688936D02*
X8938215Y-11669888D01*
X8938215Y-11669888D02*
X8938215Y-11612746D01*
X8938215Y-11612746D02*
X8947739Y-11593698D01*
X8947739Y-11593698D02*
X8957263Y-11584174D01*
X8957263Y-11584174D02*
X8976311Y-11574650D01*
X8976311Y-11574650D02*
X9004882Y-11574650D01*
X9004882Y-11574650D02*
X9023930Y-11584174D01*
X9023930Y-11584174D02*
X9033453Y-11593698D01*
X9033453Y-11593698D02*
X9042977Y-11612746D01*
X9042977Y-11612746D02*
X9042977Y-11669888D01*
X9042977Y-11669888D02*
X9033453Y-11688936D01*
X9033453Y-11688936D02*
X9023930Y-11698460D01*
X9023930Y-11698460D02*
X9004882Y-11707984D01*
X9004882Y-11707984D02*
X8976311Y-11707984D01*
X9157263Y-11707984D02*
X9138215Y-11698460D01*
X9138215Y-11698460D02*
X9128692Y-11679412D01*
X9128692Y-11679412D02*
X9128692Y-11507984D01*
X9309644Y-11698460D02*
X9290596Y-11707984D01*
X9290596Y-11707984D02*
X9252501Y-11707984D01*
X9252501Y-11707984D02*
X9233453Y-11698460D01*
X9233453Y-11698460D02*
X9223930Y-11679412D01*
X9223930Y-11679412D02*
X9223930Y-11603222D01*
X9223930Y-11603222D02*
X9233453Y-11584174D01*
X9233453Y-11584174D02*
X9252501Y-11574650D01*
X9252501Y-11574650D02*
X9290596Y-11574650D01*
X9290596Y-11574650D02*
X9309644Y-11584174D01*
X9309644Y-11584174D02*
X9319168Y-11603222D01*
X9319168Y-11603222D02*
X9319168Y-11622269D01*
X9319168Y-11622269D02*
X9223930Y-11641317D01*
X9395358Y-11698460D02*
X9414406Y-11707984D01*
X9414406Y-11707984D02*
X9452501Y-11707984D01*
X9452501Y-11707984D02*
X9471549Y-11698460D01*
X9471549Y-11698460D02*
X9481073Y-11679412D01*
X9481073Y-11679412D02*
X9481073Y-11669888D01*
X9481073Y-11669888D02*
X9471549Y-11650841D01*
X9471549Y-11650841D02*
X9452501Y-11641317D01*
X9452501Y-11641317D02*
X9423930Y-11641317D01*
X9423930Y-11641317D02*
X9404882Y-11631793D01*
X9404882Y-11631793D02*
X9395358Y-11612746D01*
X9395358Y-11612746D02*
X9395358Y-11603222D01*
X9395358Y-11603222D02*
X9404882Y-11584174D01*
X9404882Y-11584174D02*
X9423930Y-11574650D01*
X9423930Y-11574650D02*
X9452501Y-11574650D01*
X9452501Y-11574650D02*
X9471549Y-11584174D01*
X9547739Y-11784174D02*
X9557263Y-11774650D01*
X9557263Y-11774650D02*
X9576311Y-11746079D01*
X9576311Y-11746079D02*
X9585834Y-11727031D01*
X9585834Y-11727031D02*
X9595358Y-11698460D01*
X9595358Y-11698460D02*
X9604882Y-11650841D01*
X9604882Y-11650841D02*
X9604882Y-11612746D01*
X9604882Y-11612746D02*
X9595358Y-11565127D01*
X9595358Y-11565127D02*
X9585834Y-11536555D01*
X9585834Y-11536555D02*
X9576311Y-11517508D01*
X9576311Y-11517508D02*
X9557263Y-11488936D01*
X9557263Y-11488936D02*
X9547739Y-11479412D01*
D12*
X4582200Y-11880500D02*
G75*
G03*
X4502200Y-11880500I-40000J0D01*
G01*
X4502200Y-11880500D02*
G75*
G03*
X4582200Y-11880500I40000J0D01*
G01*
D11*
X4881072Y-11771984D02*
X4900120Y-11771984D01*
X4900120Y-11771984D02*
X4919167Y-11781508D01*
X4919167Y-11781508D02*
X4928691Y-11791031D01*
X4928691Y-11791031D02*
X4938215Y-11810079D01*
X4938215Y-11810079D02*
X4947739Y-11848174D01*
X4947739Y-11848174D02*
X4947739Y-11895793D01*
X4947739Y-11895793D02*
X4938215Y-11933888D01*
X4938215Y-11933888D02*
X4928691Y-11952936D01*
X4928691Y-11952936D02*
X4919167Y-11962460D01*
X4919167Y-11962460D02*
X4900120Y-11971984D01*
X4900120Y-11971984D02*
X4881072Y-11971984D01*
X4881072Y-11971984D02*
X4862024Y-11962460D01*
X4862024Y-11962460D02*
X4852501Y-11952936D01*
X4852501Y-11952936D02*
X4842977Y-11933888D01*
X4842977Y-11933888D02*
X4833453Y-11895793D01*
X4833453Y-11895793D02*
X4833453Y-11848174D01*
X4833453Y-11848174D02*
X4842977Y-11810079D01*
X4842977Y-11810079D02*
X4852501Y-11791031D01*
X4852501Y-11791031D02*
X4862024Y-11781508D01*
X4862024Y-11781508D02*
X4881072Y-11771984D01*
X5033453Y-11952936D02*
X5042977Y-11962460D01*
X5042977Y-11962460D02*
X5033453Y-11971984D01*
X5033453Y-11971984D02*
X5023929Y-11962460D01*
X5023929Y-11962460D02*
X5033453Y-11952936D01*
X5033453Y-11952936D02*
X5033453Y-11971984D01*
X5157263Y-11857698D02*
X5138215Y-11848174D01*
X5138215Y-11848174D02*
X5128691Y-11838650D01*
X5128691Y-11838650D02*
X5119167Y-11819603D01*
X5119167Y-11819603D02*
X5119167Y-11810079D01*
X5119167Y-11810079D02*
X5128691Y-11791031D01*
X5128691Y-11791031D02*
X5138215Y-11781508D01*
X5138215Y-11781508D02*
X5157263Y-11771984D01*
X5157263Y-11771984D02*
X5195358Y-11771984D01*
X5195358Y-11771984D02*
X5214405Y-11781508D01*
X5214405Y-11781508D02*
X5223929Y-11791031D01*
X5223929Y-11791031D02*
X5233453Y-11810079D01*
X5233453Y-11810079D02*
X5233453Y-11819603D01*
X5233453Y-11819603D02*
X5223929Y-11838650D01*
X5223929Y-11838650D02*
X5214405Y-11848174D01*
X5214405Y-11848174D02*
X5195358Y-11857698D01*
X5195358Y-11857698D02*
X5157263Y-11857698D01*
X5157263Y-11857698D02*
X5138215Y-11867222D01*
X5138215Y-11867222D02*
X5128691Y-11876746D01*
X5128691Y-11876746D02*
X5119167Y-11895793D01*
X5119167Y-11895793D02*
X5119167Y-11933888D01*
X5119167Y-11933888D02*
X5128691Y-11952936D01*
X5128691Y-11952936D02*
X5138215Y-11962460D01*
X5138215Y-11962460D02*
X5157263Y-11971984D01*
X5157263Y-11971984D02*
X5195358Y-11971984D01*
X5195358Y-11971984D02*
X5214405Y-11962460D01*
X5214405Y-11962460D02*
X5223929Y-11952936D01*
X5223929Y-11952936D02*
X5233453Y-11933888D01*
X5233453Y-11933888D02*
X5233453Y-11895793D01*
X5233453Y-11895793D02*
X5223929Y-11876746D01*
X5223929Y-11876746D02*
X5214405Y-11867222D01*
X5214405Y-11867222D02*
X5195358Y-11857698D01*
X5357263Y-11771984D02*
X5376310Y-11771984D01*
X5376310Y-11771984D02*
X5395358Y-11781508D01*
X5395358Y-11781508D02*
X5404882Y-11791031D01*
X5404882Y-11791031D02*
X5414405Y-11810079D01*
X5414405Y-11810079D02*
X5423929Y-11848174D01*
X5423929Y-11848174D02*
X5423929Y-11895793D01*
X5423929Y-11895793D02*
X5414405Y-11933888D01*
X5414405Y-11933888D02*
X5404882Y-11952936D01*
X5404882Y-11952936D02*
X5395358Y-11962460D01*
X5395358Y-11962460D02*
X5376310Y-11971984D01*
X5376310Y-11971984D02*
X5357263Y-11971984D01*
X5357263Y-11971984D02*
X5338215Y-11962460D01*
X5338215Y-11962460D02*
X5328691Y-11952936D01*
X5328691Y-11952936D02*
X5319167Y-11933888D01*
X5319167Y-11933888D02*
X5309644Y-11895793D01*
X5309644Y-11895793D02*
X5309644Y-11848174D01*
X5309644Y-11848174D02*
X5319167Y-11810079D01*
X5319167Y-11810079D02*
X5328691Y-11791031D01*
X5328691Y-11791031D02*
X5338215Y-11781508D01*
X5338215Y-11781508D02*
X5357263Y-11771984D01*
X5547739Y-11771984D02*
X5566786Y-11771984D01*
X5566786Y-11771984D02*
X5585834Y-11781508D01*
X5585834Y-11781508D02*
X5595358Y-11791031D01*
X5595358Y-11791031D02*
X5604882Y-11810079D01*
X5604882Y-11810079D02*
X5614405Y-11848174D01*
X5614405Y-11848174D02*
X5614405Y-11895793D01*
X5614405Y-11895793D02*
X5604882Y-11933888D01*
X5604882Y-11933888D02*
X5595358Y-11952936D01*
X5595358Y-11952936D02*
X5585834Y-11962460D01*
X5585834Y-11962460D02*
X5566786Y-11971984D01*
X5566786Y-11971984D02*
X5547739Y-11971984D01*
X5547739Y-11971984D02*
X5528691Y-11962460D01*
X5528691Y-11962460D02*
X5519167Y-11952936D01*
X5519167Y-11952936D02*
X5509644Y-11933888D01*
X5509644Y-11933888D02*
X5500120Y-11895793D01*
X5500120Y-11895793D02*
X5500120Y-11848174D01*
X5500120Y-11848174D02*
X5509644Y-11810079D01*
X5509644Y-11810079D02*
X5519167Y-11791031D01*
X5519167Y-11791031D02*
X5528691Y-11781508D01*
X5528691Y-11781508D02*
X5547739Y-11771984D01*
X5700120Y-11971984D02*
X5700120Y-11838650D01*
X5700120Y-11857698D02*
X5709643Y-11848174D01*
X5709643Y-11848174D02*
X5728691Y-11838650D01*
X5728691Y-11838650D02*
X5757263Y-11838650D01*
X5757263Y-11838650D02*
X5776310Y-11848174D01*
X5776310Y-11848174D02*
X5785834Y-11867222D01*
X5785834Y-11867222D02*
X5785834Y-11971984D01*
X5785834Y-11867222D02*
X5795358Y-11848174D01*
X5795358Y-11848174D02*
X5814405Y-11838650D01*
X5814405Y-11838650D02*
X5842977Y-11838650D01*
X5842977Y-11838650D02*
X5862024Y-11848174D01*
X5862024Y-11848174D02*
X5871548Y-11867222D01*
X5871548Y-11867222D02*
X5871548Y-11971984D01*
X5966786Y-11971984D02*
X5966786Y-11838650D01*
X5966786Y-11857698D02*
X5976310Y-11848174D01*
X5976310Y-11848174D02*
X5995358Y-11838650D01*
X5995358Y-11838650D02*
X6023929Y-11838650D01*
X6023929Y-11838650D02*
X6042977Y-11848174D01*
X6042977Y-11848174D02*
X6052501Y-11867222D01*
X6052501Y-11867222D02*
X6052501Y-11971984D01*
X6052501Y-11867222D02*
X6062024Y-11848174D01*
X6062024Y-11848174D02*
X6081072Y-11838650D01*
X6081072Y-11838650D02*
X6109643Y-11838650D01*
X6109643Y-11838650D02*
X6128691Y-11848174D01*
X6128691Y-11848174D02*
X6138215Y-11867222D01*
X6138215Y-11867222D02*
X6138215Y-11971984D01*
X6528691Y-11762460D02*
X6357263Y-12019603D01*
X6785834Y-11771984D02*
X6804882Y-11771984D01*
X6804882Y-11771984D02*
X6823929Y-11781508D01*
X6823929Y-11781508D02*
X6833453Y-11791031D01*
X6833453Y-11791031D02*
X6842977Y-11810079D01*
X6842977Y-11810079D02*
X6852501Y-11848174D01*
X6852501Y-11848174D02*
X6852501Y-11895793D01*
X6852501Y-11895793D02*
X6842977Y-11933888D01*
X6842977Y-11933888D02*
X6833453Y-11952936D01*
X6833453Y-11952936D02*
X6823929Y-11962460D01*
X6823929Y-11962460D02*
X6804882Y-11971984D01*
X6804882Y-11971984D02*
X6785834Y-11971984D01*
X6785834Y-11971984D02*
X6766786Y-11962460D01*
X6766786Y-11962460D02*
X6757263Y-11952936D01*
X6757263Y-11952936D02*
X6747739Y-11933888D01*
X6747739Y-11933888D02*
X6738215Y-11895793D01*
X6738215Y-11895793D02*
X6738215Y-11848174D01*
X6738215Y-11848174D02*
X6747739Y-11810079D01*
X6747739Y-11810079D02*
X6757263Y-11791031D01*
X6757263Y-11791031D02*
X6766786Y-11781508D01*
X6766786Y-11781508D02*
X6785834Y-11771984D01*
X6938215Y-11952936D02*
X6947739Y-11962460D01*
X6947739Y-11962460D02*
X6938215Y-11971984D01*
X6938215Y-11971984D02*
X6928691Y-11962460D01*
X6928691Y-11962460D02*
X6938215Y-11952936D01*
X6938215Y-11952936D02*
X6938215Y-11971984D01*
X7071548Y-11771984D02*
X7090596Y-11771984D01*
X7090596Y-11771984D02*
X7109644Y-11781508D01*
X7109644Y-11781508D02*
X7119167Y-11791031D01*
X7119167Y-11791031D02*
X7128691Y-11810079D01*
X7128691Y-11810079D02*
X7138215Y-11848174D01*
X7138215Y-11848174D02*
X7138215Y-11895793D01*
X7138215Y-11895793D02*
X7128691Y-11933888D01*
X7128691Y-11933888D02*
X7119167Y-11952936D01*
X7119167Y-11952936D02*
X7109644Y-11962460D01*
X7109644Y-11962460D02*
X7090596Y-11971984D01*
X7090596Y-11971984D02*
X7071548Y-11971984D01*
X7071548Y-11971984D02*
X7052501Y-11962460D01*
X7052501Y-11962460D02*
X7042977Y-11952936D01*
X7042977Y-11952936D02*
X7033453Y-11933888D01*
X7033453Y-11933888D02*
X7023929Y-11895793D01*
X7023929Y-11895793D02*
X7023929Y-11848174D01*
X7023929Y-11848174D02*
X7033453Y-11810079D01*
X7033453Y-11810079D02*
X7042977Y-11791031D01*
X7042977Y-11791031D02*
X7052501Y-11781508D01*
X7052501Y-11781508D02*
X7071548Y-11771984D01*
X7204882Y-11771984D02*
X7328691Y-11771984D01*
X7328691Y-11771984D02*
X7262025Y-11848174D01*
X7262025Y-11848174D02*
X7290596Y-11848174D01*
X7290596Y-11848174D02*
X7309644Y-11857698D01*
X7309644Y-11857698D02*
X7319167Y-11867222D01*
X7319167Y-11867222D02*
X7328691Y-11886269D01*
X7328691Y-11886269D02*
X7328691Y-11933888D01*
X7328691Y-11933888D02*
X7319167Y-11952936D01*
X7319167Y-11952936D02*
X7309644Y-11962460D01*
X7309644Y-11962460D02*
X7290596Y-11971984D01*
X7290596Y-11971984D02*
X7233453Y-11971984D01*
X7233453Y-11971984D02*
X7214406Y-11962460D01*
X7214406Y-11962460D02*
X7204882Y-11952936D01*
X7519167Y-11971984D02*
X7404882Y-11971984D01*
X7462025Y-11971984D02*
X7462025Y-11771984D01*
X7462025Y-11771984D02*
X7442977Y-11800555D01*
X7442977Y-11800555D02*
X7423929Y-11819603D01*
X7423929Y-11819603D02*
X7404882Y-11829127D01*
X7700120Y-11771984D02*
X7604882Y-11771984D01*
X7604882Y-11771984D02*
X7595358Y-11867222D01*
X7595358Y-11867222D02*
X7604882Y-11857698D01*
X7604882Y-11857698D02*
X7623929Y-11848174D01*
X7623929Y-11848174D02*
X7671548Y-11848174D01*
X7671548Y-11848174D02*
X7690596Y-11857698D01*
X7690596Y-11857698D02*
X7700120Y-11867222D01*
X7700120Y-11867222D02*
X7709644Y-11886269D01*
X7709644Y-11886269D02*
X7709644Y-11933888D01*
X7709644Y-11933888D02*
X7700120Y-11952936D01*
X7700120Y-11952936D02*
X7690596Y-11962460D01*
X7690596Y-11962460D02*
X7671548Y-11971984D01*
X7671548Y-11971984D02*
X7623929Y-11971984D01*
X7623929Y-11971984D02*
X7604882Y-11962460D01*
X7604882Y-11962460D02*
X7595358Y-11952936D01*
X7785834Y-11771984D02*
X7785834Y-11810079D01*
X7862025Y-11771984D02*
X7862025Y-11810079D01*
X8157263Y-12048174D02*
X8147739Y-12038650D01*
X8147739Y-12038650D02*
X8128691Y-12010079D01*
X8128691Y-12010079D02*
X8119168Y-11991031D01*
X8119168Y-11991031D02*
X8109644Y-11962460D01*
X8109644Y-11962460D02*
X8100120Y-11914841D01*
X8100120Y-11914841D02*
X8100120Y-11876746D01*
X8100120Y-11876746D02*
X8109644Y-11829127D01*
X8109644Y-11829127D02*
X8119168Y-11800555D01*
X8119168Y-11800555D02*
X8128691Y-11781508D01*
X8128691Y-11781508D02*
X8147739Y-11752936D01*
X8147739Y-11752936D02*
X8157263Y-11743412D01*
X8214406Y-11771984D02*
X8338215Y-11771984D01*
X8338215Y-11771984D02*
X8271548Y-11848174D01*
X8271548Y-11848174D02*
X8300120Y-11848174D01*
X8300120Y-11848174D02*
X8319168Y-11857698D01*
X8319168Y-11857698D02*
X8328691Y-11867222D01*
X8328691Y-11867222D02*
X8338215Y-11886269D01*
X8338215Y-11886269D02*
X8338215Y-11933888D01*
X8338215Y-11933888D02*
X8328691Y-11952936D01*
X8328691Y-11952936D02*
X8319168Y-11962460D01*
X8319168Y-11962460D02*
X8300120Y-11971984D01*
X8300120Y-11971984D02*
X8242977Y-11971984D01*
X8242977Y-11971984D02*
X8223929Y-11962460D01*
X8223929Y-11962460D02*
X8214406Y-11952936D01*
X8462025Y-11771984D02*
X8481072Y-11771984D01*
X8481072Y-11771984D02*
X8500120Y-11781508D01*
X8500120Y-11781508D02*
X8509644Y-11791031D01*
X8509644Y-11791031D02*
X8519168Y-11810079D01*
X8519168Y-11810079D02*
X8528691Y-11848174D01*
X8528691Y-11848174D02*
X8528691Y-11895793D01*
X8528691Y-11895793D02*
X8519168Y-11933888D01*
X8519168Y-11933888D02*
X8509644Y-11952936D01*
X8509644Y-11952936D02*
X8500120Y-11962460D01*
X8500120Y-11962460D02*
X8481072Y-11971984D01*
X8481072Y-11971984D02*
X8462025Y-11971984D01*
X8462025Y-11971984D02*
X8442977Y-11962460D01*
X8442977Y-11962460D02*
X8433453Y-11952936D01*
X8433453Y-11952936D02*
X8423930Y-11933888D01*
X8423930Y-11933888D02*
X8414406Y-11895793D01*
X8414406Y-11895793D02*
X8414406Y-11848174D01*
X8414406Y-11848174D02*
X8423930Y-11810079D01*
X8423930Y-11810079D02*
X8433453Y-11791031D01*
X8433453Y-11791031D02*
X8442977Y-11781508D01*
X8442977Y-11781508D02*
X8462025Y-11771984D01*
X8766787Y-11971984D02*
X8766787Y-11771984D01*
X8852501Y-11971984D02*
X8852501Y-11867222D01*
X8852501Y-11867222D02*
X8842977Y-11848174D01*
X8842977Y-11848174D02*
X8823930Y-11838650D01*
X8823930Y-11838650D02*
X8795358Y-11838650D01*
X8795358Y-11838650D02*
X8776311Y-11848174D01*
X8776311Y-11848174D02*
X8766787Y-11857698D01*
X8976311Y-11971984D02*
X8957263Y-11962460D01*
X8957263Y-11962460D02*
X8947739Y-11952936D01*
X8947739Y-11952936D02*
X8938215Y-11933888D01*
X8938215Y-11933888D02*
X8938215Y-11876746D01*
X8938215Y-11876746D02*
X8947739Y-11857698D01*
X8947739Y-11857698D02*
X8957263Y-11848174D01*
X8957263Y-11848174D02*
X8976311Y-11838650D01*
X8976311Y-11838650D02*
X9004882Y-11838650D01*
X9004882Y-11838650D02*
X9023930Y-11848174D01*
X9023930Y-11848174D02*
X9033453Y-11857698D01*
X9033453Y-11857698D02*
X9042977Y-11876746D01*
X9042977Y-11876746D02*
X9042977Y-11933888D01*
X9042977Y-11933888D02*
X9033453Y-11952936D01*
X9033453Y-11952936D02*
X9023930Y-11962460D01*
X9023930Y-11962460D02*
X9004882Y-11971984D01*
X9004882Y-11971984D02*
X8976311Y-11971984D01*
X9157263Y-11971984D02*
X9138215Y-11962460D01*
X9138215Y-11962460D02*
X9128692Y-11943412D01*
X9128692Y-11943412D02*
X9128692Y-11771984D01*
X9309644Y-11962460D02*
X9290596Y-11971984D01*
X9290596Y-11971984D02*
X9252501Y-11971984D01*
X9252501Y-11971984D02*
X9233453Y-11962460D01*
X9233453Y-11962460D02*
X9223930Y-11943412D01*
X9223930Y-11943412D02*
X9223930Y-11867222D01*
X9223930Y-11867222D02*
X9233453Y-11848174D01*
X9233453Y-11848174D02*
X9252501Y-11838650D01*
X9252501Y-11838650D02*
X9290596Y-11838650D01*
X9290596Y-11838650D02*
X9309644Y-11848174D01*
X9309644Y-11848174D02*
X9319168Y-11867222D01*
X9319168Y-11867222D02*
X9319168Y-11886269D01*
X9319168Y-11886269D02*
X9223930Y-11905317D01*
X9395358Y-11962460D02*
X9414406Y-11971984D01*
X9414406Y-11971984D02*
X9452501Y-11971984D01*
X9452501Y-11971984D02*
X9471549Y-11962460D01*
X9471549Y-11962460D02*
X9481073Y-11943412D01*
X9481073Y-11943412D02*
X9481073Y-11933888D01*
X9481073Y-11933888D02*
X9471549Y-11914841D01*
X9471549Y-11914841D02*
X9452501Y-11905317D01*
X9452501Y-11905317D02*
X9423930Y-11905317D01*
X9423930Y-11905317D02*
X9404882Y-11895793D01*
X9404882Y-11895793D02*
X9395358Y-11876746D01*
X9395358Y-11876746D02*
X9395358Y-11867222D01*
X9395358Y-11867222D02*
X9404882Y-11848174D01*
X9404882Y-11848174D02*
X9423930Y-11838650D01*
X9423930Y-11838650D02*
X9452501Y-11838650D01*
X9452501Y-11838650D02*
X9471549Y-11848174D01*
X9547739Y-12048174D02*
X9557263Y-12038650D01*
X9557263Y-12038650D02*
X9576311Y-12010079D01*
X9576311Y-12010079D02*
X9585834Y-11991031D01*
X9585834Y-11991031D02*
X9595358Y-11962460D01*
X9595358Y-11962460D02*
X9604882Y-11914841D01*
X9604882Y-11914841D02*
X9604882Y-11876746D01*
X9604882Y-11876746D02*
X9595358Y-11829127D01*
X9595358Y-11829127D02*
X9585834Y-11800555D01*
X9585834Y-11800555D02*
X9576311Y-11781508D01*
X9576311Y-11781508D02*
X9557263Y-11752936D01*
X9557263Y-11752936D02*
X9547739Y-11743412D01*
D12*
X4532700Y-12095000D02*
X4532700Y-12194000D01*
X4483200Y-12144500D02*
X4582200Y-12144500D01*
D11*
X4881072Y-12035984D02*
X4900120Y-12035984D01*
X4900120Y-12035984D02*
X4919167Y-12045508D01*
X4919167Y-12045508D02*
X4928691Y-12055031D01*
X4928691Y-12055031D02*
X4938215Y-12074079D01*
X4938215Y-12074079D02*
X4947739Y-12112174D01*
X4947739Y-12112174D02*
X4947739Y-12159793D01*
X4947739Y-12159793D02*
X4938215Y-12197888D01*
X4938215Y-12197888D02*
X4928691Y-12216936D01*
X4928691Y-12216936D02*
X4919167Y-12226460D01*
X4919167Y-12226460D02*
X4900120Y-12235984D01*
X4900120Y-12235984D02*
X4881072Y-12235984D01*
X4881072Y-12235984D02*
X4862024Y-12226460D01*
X4862024Y-12226460D02*
X4852501Y-12216936D01*
X4852501Y-12216936D02*
X4842977Y-12197888D01*
X4842977Y-12197888D02*
X4833453Y-12159793D01*
X4833453Y-12159793D02*
X4833453Y-12112174D01*
X4833453Y-12112174D02*
X4842977Y-12074079D01*
X4842977Y-12074079D02*
X4852501Y-12055031D01*
X4852501Y-12055031D02*
X4862024Y-12045508D01*
X4862024Y-12045508D02*
X4881072Y-12035984D01*
X5033453Y-12216936D02*
X5042977Y-12226460D01*
X5042977Y-12226460D02*
X5033453Y-12235984D01*
X5033453Y-12235984D02*
X5023929Y-12226460D01*
X5023929Y-12226460D02*
X5033453Y-12216936D01*
X5033453Y-12216936D02*
X5033453Y-12235984D01*
X5138215Y-12235984D02*
X5176310Y-12235984D01*
X5176310Y-12235984D02*
X5195358Y-12226460D01*
X5195358Y-12226460D02*
X5204882Y-12216936D01*
X5204882Y-12216936D02*
X5223929Y-12188365D01*
X5223929Y-12188365D02*
X5233453Y-12150269D01*
X5233453Y-12150269D02*
X5233453Y-12074079D01*
X5233453Y-12074079D02*
X5223929Y-12055031D01*
X5223929Y-12055031D02*
X5214405Y-12045508D01*
X5214405Y-12045508D02*
X5195358Y-12035984D01*
X5195358Y-12035984D02*
X5157263Y-12035984D01*
X5157263Y-12035984D02*
X5138215Y-12045508D01*
X5138215Y-12045508D02*
X5128691Y-12055031D01*
X5128691Y-12055031D02*
X5119167Y-12074079D01*
X5119167Y-12074079D02*
X5119167Y-12121698D01*
X5119167Y-12121698D02*
X5128691Y-12140746D01*
X5128691Y-12140746D02*
X5138215Y-12150269D01*
X5138215Y-12150269D02*
X5157263Y-12159793D01*
X5157263Y-12159793D02*
X5195358Y-12159793D01*
X5195358Y-12159793D02*
X5214405Y-12150269D01*
X5214405Y-12150269D02*
X5223929Y-12140746D01*
X5223929Y-12140746D02*
X5233453Y-12121698D01*
X5328691Y-12235984D02*
X5366786Y-12235984D01*
X5366786Y-12235984D02*
X5385834Y-12226460D01*
X5385834Y-12226460D02*
X5395358Y-12216936D01*
X5395358Y-12216936D02*
X5414405Y-12188365D01*
X5414405Y-12188365D02*
X5423929Y-12150269D01*
X5423929Y-12150269D02*
X5423929Y-12074079D01*
X5423929Y-12074079D02*
X5414405Y-12055031D01*
X5414405Y-12055031D02*
X5404882Y-12045508D01*
X5404882Y-12045508D02*
X5385834Y-12035984D01*
X5385834Y-12035984D02*
X5347739Y-12035984D01*
X5347739Y-12035984D02*
X5328691Y-12045508D01*
X5328691Y-12045508D02*
X5319167Y-12055031D01*
X5319167Y-12055031D02*
X5309644Y-12074079D01*
X5309644Y-12074079D02*
X5309644Y-12121698D01*
X5309644Y-12121698D02*
X5319167Y-12140746D01*
X5319167Y-12140746D02*
X5328691Y-12150269D01*
X5328691Y-12150269D02*
X5347739Y-12159793D01*
X5347739Y-12159793D02*
X5385834Y-12159793D01*
X5385834Y-12159793D02*
X5404882Y-12150269D01*
X5404882Y-12150269D02*
X5414405Y-12140746D01*
X5414405Y-12140746D02*
X5423929Y-12121698D01*
X5547739Y-12035984D02*
X5566786Y-12035984D01*
X5566786Y-12035984D02*
X5585834Y-12045508D01*
X5585834Y-12045508D02*
X5595358Y-12055031D01*
X5595358Y-12055031D02*
X5604882Y-12074079D01*
X5604882Y-12074079D02*
X5614405Y-12112174D01*
X5614405Y-12112174D02*
X5614405Y-12159793D01*
X5614405Y-12159793D02*
X5604882Y-12197888D01*
X5604882Y-12197888D02*
X5595358Y-12216936D01*
X5595358Y-12216936D02*
X5585834Y-12226460D01*
X5585834Y-12226460D02*
X5566786Y-12235984D01*
X5566786Y-12235984D02*
X5547739Y-12235984D01*
X5547739Y-12235984D02*
X5528691Y-12226460D01*
X5528691Y-12226460D02*
X5519167Y-12216936D01*
X5519167Y-12216936D02*
X5509644Y-12197888D01*
X5509644Y-12197888D02*
X5500120Y-12159793D01*
X5500120Y-12159793D02*
X5500120Y-12112174D01*
X5500120Y-12112174D02*
X5509644Y-12074079D01*
X5509644Y-12074079D02*
X5519167Y-12055031D01*
X5519167Y-12055031D02*
X5528691Y-12045508D01*
X5528691Y-12045508D02*
X5547739Y-12035984D01*
X5700120Y-12235984D02*
X5700120Y-12102650D01*
X5700120Y-12121698D02*
X5709643Y-12112174D01*
X5709643Y-12112174D02*
X5728691Y-12102650D01*
X5728691Y-12102650D02*
X5757263Y-12102650D01*
X5757263Y-12102650D02*
X5776310Y-12112174D01*
X5776310Y-12112174D02*
X5785834Y-12131222D01*
X5785834Y-12131222D02*
X5785834Y-12235984D01*
X5785834Y-12131222D02*
X5795358Y-12112174D01*
X5795358Y-12112174D02*
X5814405Y-12102650D01*
X5814405Y-12102650D02*
X5842977Y-12102650D01*
X5842977Y-12102650D02*
X5862024Y-12112174D01*
X5862024Y-12112174D02*
X5871548Y-12131222D01*
X5871548Y-12131222D02*
X5871548Y-12235984D01*
X5966786Y-12235984D02*
X5966786Y-12102650D01*
X5966786Y-12121698D02*
X5976310Y-12112174D01*
X5976310Y-12112174D02*
X5995358Y-12102650D01*
X5995358Y-12102650D02*
X6023929Y-12102650D01*
X6023929Y-12102650D02*
X6042977Y-12112174D01*
X6042977Y-12112174D02*
X6052501Y-12131222D01*
X6052501Y-12131222D02*
X6052501Y-12235984D01*
X6052501Y-12131222D02*
X6062024Y-12112174D01*
X6062024Y-12112174D02*
X6081072Y-12102650D01*
X6081072Y-12102650D02*
X6109643Y-12102650D01*
X6109643Y-12102650D02*
X6128691Y-12112174D01*
X6128691Y-12112174D02*
X6138215Y-12131222D01*
X6138215Y-12131222D02*
X6138215Y-12235984D01*
X6528691Y-12026460D02*
X6357263Y-12283603D01*
X6785834Y-12035984D02*
X6804882Y-12035984D01*
X6804882Y-12035984D02*
X6823929Y-12045508D01*
X6823929Y-12045508D02*
X6833453Y-12055031D01*
X6833453Y-12055031D02*
X6842977Y-12074079D01*
X6842977Y-12074079D02*
X6852501Y-12112174D01*
X6852501Y-12112174D02*
X6852501Y-12159793D01*
X6852501Y-12159793D02*
X6842977Y-12197888D01*
X6842977Y-12197888D02*
X6833453Y-12216936D01*
X6833453Y-12216936D02*
X6823929Y-12226460D01*
X6823929Y-12226460D02*
X6804882Y-12235984D01*
X6804882Y-12235984D02*
X6785834Y-12235984D01*
X6785834Y-12235984D02*
X6766786Y-12226460D01*
X6766786Y-12226460D02*
X6757263Y-12216936D01*
X6757263Y-12216936D02*
X6747739Y-12197888D01*
X6747739Y-12197888D02*
X6738215Y-12159793D01*
X6738215Y-12159793D02*
X6738215Y-12112174D01*
X6738215Y-12112174D02*
X6747739Y-12074079D01*
X6747739Y-12074079D02*
X6757263Y-12055031D01*
X6757263Y-12055031D02*
X6766786Y-12045508D01*
X6766786Y-12045508D02*
X6785834Y-12035984D01*
X6938215Y-12216936D02*
X6947739Y-12226460D01*
X6947739Y-12226460D02*
X6938215Y-12235984D01*
X6938215Y-12235984D02*
X6928691Y-12226460D01*
X6928691Y-12226460D02*
X6938215Y-12216936D01*
X6938215Y-12216936D02*
X6938215Y-12235984D01*
X7071548Y-12035984D02*
X7090596Y-12035984D01*
X7090596Y-12035984D02*
X7109644Y-12045508D01*
X7109644Y-12045508D02*
X7119167Y-12055031D01*
X7119167Y-12055031D02*
X7128691Y-12074079D01*
X7128691Y-12074079D02*
X7138215Y-12112174D01*
X7138215Y-12112174D02*
X7138215Y-12159793D01*
X7138215Y-12159793D02*
X7128691Y-12197888D01*
X7128691Y-12197888D02*
X7119167Y-12216936D01*
X7119167Y-12216936D02*
X7109644Y-12226460D01*
X7109644Y-12226460D02*
X7090596Y-12235984D01*
X7090596Y-12235984D02*
X7071548Y-12235984D01*
X7071548Y-12235984D02*
X7052501Y-12226460D01*
X7052501Y-12226460D02*
X7042977Y-12216936D01*
X7042977Y-12216936D02*
X7033453Y-12197888D01*
X7033453Y-12197888D02*
X7023929Y-12159793D01*
X7023929Y-12159793D02*
X7023929Y-12112174D01*
X7023929Y-12112174D02*
X7033453Y-12074079D01*
X7033453Y-12074079D02*
X7042977Y-12055031D01*
X7042977Y-12055031D02*
X7052501Y-12045508D01*
X7052501Y-12045508D02*
X7071548Y-12035984D01*
X7204882Y-12035984D02*
X7328691Y-12035984D01*
X7328691Y-12035984D02*
X7262025Y-12112174D01*
X7262025Y-12112174D02*
X7290596Y-12112174D01*
X7290596Y-12112174D02*
X7309644Y-12121698D01*
X7309644Y-12121698D02*
X7319167Y-12131222D01*
X7319167Y-12131222D02*
X7328691Y-12150269D01*
X7328691Y-12150269D02*
X7328691Y-12197888D01*
X7328691Y-12197888D02*
X7319167Y-12216936D01*
X7319167Y-12216936D02*
X7309644Y-12226460D01*
X7309644Y-12226460D02*
X7290596Y-12235984D01*
X7290596Y-12235984D02*
X7233453Y-12235984D01*
X7233453Y-12235984D02*
X7214406Y-12226460D01*
X7214406Y-12226460D02*
X7204882Y-12216936D01*
X7423929Y-12235984D02*
X7462025Y-12235984D01*
X7462025Y-12235984D02*
X7481072Y-12226460D01*
X7481072Y-12226460D02*
X7490596Y-12216936D01*
X7490596Y-12216936D02*
X7509644Y-12188365D01*
X7509644Y-12188365D02*
X7519167Y-12150269D01*
X7519167Y-12150269D02*
X7519167Y-12074079D01*
X7519167Y-12074079D02*
X7509644Y-12055031D01*
X7509644Y-12055031D02*
X7500120Y-12045508D01*
X7500120Y-12045508D02*
X7481072Y-12035984D01*
X7481072Y-12035984D02*
X7442977Y-12035984D01*
X7442977Y-12035984D02*
X7423929Y-12045508D01*
X7423929Y-12045508D02*
X7414406Y-12055031D01*
X7414406Y-12055031D02*
X7404882Y-12074079D01*
X7404882Y-12074079D02*
X7404882Y-12121698D01*
X7404882Y-12121698D02*
X7414406Y-12140746D01*
X7414406Y-12140746D02*
X7423929Y-12150269D01*
X7423929Y-12150269D02*
X7442977Y-12159793D01*
X7442977Y-12159793D02*
X7481072Y-12159793D01*
X7481072Y-12159793D02*
X7500120Y-12150269D01*
X7500120Y-12150269D02*
X7509644Y-12140746D01*
X7509644Y-12140746D02*
X7519167Y-12121698D01*
X7642977Y-12035984D02*
X7662025Y-12035984D01*
X7662025Y-12035984D02*
X7681072Y-12045508D01*
X7681072Y-12045508D02*
X7690596Y-12055031D01*
X7690596Y-12055031D02*
X7700120Y-12074079D01*
X7700120Y-12074079D02*
X7709644Y-12112174D01*
X7709644Y-12112174D02*
X7709644Y-12159793D01*
X7709644Y-12159793D02*
X7700120Y-12197888D01*
X7700120Y-12197888D02*
X7690596Y-12216936D01*
X7690596Y-12216936D02*
X7681072Y-12226460D01*
X7681072Y-12226460D02*
X7662025Y-12235984D01*
X7662025Y-12235984D02*
X7642977Y-12235984D01*
X7642977Y-12235984D02*
X7623929Y-12226460D01*
X7623929Y-12226460D02*
X7614406Y-12216936D01*
X7614406Y-12216936D02*
X7604882Y-12197888D01*
X7604882Y-12197888D02*
X7595358Y-12159793D01*
X7595358Y-12159793D02*
X7595358Y-12112174D01*
X7595358Y-12112174D02*
X7604882Y-12074079D01*
X7604882Y-12074079D02*
X7614406Y-12055031D01*
X7614406Y-12055031D02*
X7623929Y-12045508D01*
X7623929Y-12045508D02*
X7642977Y-12035984D01*
X7785834Y-12035984D02*
X7785834Y-12074079D01*
X7862025Y-12035984D02*
X7862025Y-12074079D01*
X8157263Y-12312174D02*
X8147739Y-12302650D01*
X8147739Y-12302650D02*
X8128691Y-12274079D01*
X8128691Y-12274079D02*
X8119168Y-12255031D01*
X8119168Y-12255031D02*
X8109644Y-12226460D01*
X8109644Y-12226460D02*
X8100120Y-12178841D01*
X8100120Y-12178841D02*
X8100120Y-12140746D01*
X8100120Y-12140746D02*
X8109644Y-12093127D01*
X8109644Y-12093127D02*
X8119168Y-12064555D01*
X8119168Y-12064555D02*
X8128691Y-12045508D01*
X8128691Y-12045508D02*
X8147739Y-12016936D01*
X8147739Y-12016936D02*
X8157263Y-12007412D01*
X8262025Y-12121698D02*
X8242977Y-12112174D01*
X8242977Y-12112174D02*
X8233453Y-12102650D01*
X8233453Y-12102650D02*
X8223929Y-12083603D01*
X8223929Y-12083603D02*
X8223929Y-12074079D01*
X8223929Y-12074079D02*
X8233453Y-12055031D01*
X8233453Y-12055031D02*
X8242977Y-12045508D01*
X8242977Y-12045508D02*
X8262025Y-12035984D01*
X8262025Y-12035984D02*
X8300120Y-12035984D01*
X8300120Y-12035984D02*
X8319168Y-12045508D01*
X8319168Y-12045508D02*
X8328691Y-12055031D01*
X8328691Y-12055031D02*
X8338215Y-12074079D01*
X8338215Y-12074079D02*
X8338215Y-12083603D01*
X8338215Y-12083603D02*
X8328691Y-12102650D01*
X8328691Y-12102650D02*
X8319168Y-12112174D01*
X8319168Y-12112174D02*
X8300120Y-12121698D01*
X8300120Y-12121698D02*
X8262025Y-12121698D01*
X8262025Y-12121698D02*
X8242977Y-12131222D01*
X8242977Y-12131222D02*
X8233453Y-12140746D01*
X8233453Y-12140746D02*
X8223929Y-12159793D01*
X8223929Y-12159793D02*
X8223929Y-12197888D01*
X8223929Y-12197888D02*
X8233453Y-12216936D01*
X8233453Y-12216936D02*
X8242977Y-12226460D01*
X8242977Y-12226460D02*
X8262025Y-12235984D01*
X8262025Y-12235984D02*
X8300120Y-12235984D01*
X8300120Y-12235984D02*
X8319168Y-12226460D01*
X8319168Y-12226460D02*
X8328691Y-12216936D01*
X8328691Y-12216936D02*
X8338215Y-12197888D01*
X8338215Y-12197888D02*
X8338215Y-12159793D01*
X8338215Y-12159793D02*
X8328691Y-12140746D01*
X8328691Y-12140746D02*
X8319168Y-12131222D01*
X8319168Y-12131222D02*
X8300120Y-12121698D01*
X8576311Y-12235984D02*
X8576311Y-12035984D01*
X8662025Y-12235984D02*
X8662025Y-12131222D01*
X8662025Y-12131222D02*
X8652501Y-12112174D01*
X8652501Y-12112174D02*
X8633453Y-12102650D01*
X8633453Y-12102650D02*
X8604882Y-12102650D01*
X8604882Y-12102650D02*
X8585834Y-12112174D01*
X8585834Y-12112174D02*
X8576311Y-12121698D01*
X8785834Y-12235984D02*
X8766787Y-12226460D01*
X8766787Y-12226460D02*
X8757263Y-12216936D01*
X8757263Y-12216936D02*
X8747739Y-12197888D01*
X8747739Y-12197888D02*
X8747739Y-12140746D01*
X8747739Y-12140746D02*
X8757263Y-12121698D01*
X8757263Y-12121698D02*
X8766787Y-12112174D01*
X8766787Y-12112174D02*
X8785834Y-12102650D01*
X8785834Y-12102650D02*
X8814406Y-12102650D01*
X8814406Y-12102650D02*
X8833453Y-12112174D01*
X8833453Y-12112174D02*
X8842977Y-12121698D01*
X8842977Y-12121698D02*
X8852501Y-12140746D01*
X8852501Y-12140746D02*
X8852501Y-12197888D01*
X8852501Y-12197888D02*
X8842977Y-12216936D01*
X8842977Y-12216936D02*
X8833453Y-12226460D01*
X8833453Y-12226460D02*
X8814406Y-12235984D01*
X8814406Y-12235984D02*
X8785834Y-12235984D01*
X8966787Y-12235984D02*
X8947739Y-12226460D01*
X8947739Y-12226460D02*
X8938215Y-12207412D01*
X8938215Y-12207412D02*
X8938215Y-12035984D01*
X9119168Y-12226460D02*
X9100120Y-12235984D01*
X9100120Y-12235984D02*
X9062025Y-12235984D01*
X9062025Y-12235984D02*
X9042977Y-12226460D01*
X9042977Y-12226460D02*
X9033453Y-12207412D01*
X9033453Y-12207412D02*
X9033453Y-12131222D01*
X9033453Y-12131222D02*
X9042977Y-12112174D01*
X9042977Y-12112174D02*
X9062025Y-12102650D01*
X9062025Y-12102650D02*
X9100120Y-12102650D01*
X9100120Y-12102650D02*
X9119168Y-12112174D01*
X9119168Y-12112174D02*
X9128692Y-12131222D01*
X9128692Y-12131222D02*
X9128692Y-12150269D01*
X9128692Y-12150269D02*
X9033453Y-12169317D01*
X9204882Y-12226460D02*
X9223930Y-12235984D01*
X9223930Y-12235984D02*
X9262025Y-12235984D01*
X9262025Y-12235984D02*
X9281073Y-12226460D01*
X9281073Y-12226460D02*
X9290596Y-12207412D01*
X9290596Y-12207412D02*
X9290596Y-12197888D01*
X9290596Y-12197888D02*
X9281073Y-12178841D01*
X9281073Y-12178841D02*
X9262025Y-12169317D01*
X9262025Y-12169317D02*
X9233453Y-12169317D01*
X9233453Y-12169317D02*
X9214406Y-12159793D01*
X9214406Y-12159793D02*
X9204882Y-12140746D01*
X9204882Y-12140746D02*
X9204882Y-12131222D01*
X9204882Y-12131222D02*
X9214406Y-12112174D01*
X9214406Y-12112174D02*
X9233453Y-12102650D01*
X9233453Y-12102650D02*
X9262025Y-12102650D01*
X9262025Y-12102650D02*
X9281073Y-12112174D01*
X9357263Y-12312174D02*
X9366787Y-12302650D01*
X9366787Y-12302650D02*
X9385834Y-12274079D01*
X9385834Y-12274079D02*
X9395358Y-12255031D01*
X9395358Y-12255031D02*
X9404882Y-12226460D01*
X9404882Y-12226460D02*
X9414406Y-12178841D01*
X9414406Y-12178841D02*
X9414406Y-12140746D01*
X9414406Y-12140746D02*
X9404882Y-12093127D01*
X9404882Y-12093127D02*
X9395358Y-12064555D01*
X9395358Y-12064555D02*
X9385834Y-12045508D01*
X9385834Y-12045508D02*
X9366787Y-12016936D01*
X9366787Y-12016936D02*
X9357263Y-12007412D01*
D12*
X4567556Y-12443856D02*
X4567556Y-12373144D01*
X4496844Y-12373144D01*
X4496844Y-12443856D01*
X4567556Y-12443856D01*
D11*
X4947739Y-12499984D02*
X4833453Y-12499984D01*
X4890596Y-12499984D02*
X4890596Y-12299984D01*
X4890596Y-12299984D02*
X4871548Y-12328555D01*
X4871548Y-12328555D02*
X4852501Y-12347603D01*
X4852501Y-12347603D02*
X4833453Y-12357127D01*
X5033453Y-12480936D02*
X5042977Y-12490460D01*
X5042977Y-12490460D02*
X5033453Y-12499984D01*
X5033453Y-12499984D02*
X5023929Y-12490460D01*
X5023929Y-12490460D02*
X5033453Y-12480936D01*
X5033453Y-12480936D02*
X5033453Y-12499984D01*
X5166786Y-12299984D02*
X5185834Y-12299984D01*
X5185834Y-12299984D02*
X5204882Y-12309508D01*
X5204882Y-12309508D02*
X5214405Y-12319031D01*
X5214405Y-12319031D02*
X5223929Y-12338079D01*
X5223929Y-12338079D02*
X5233453Y-12376174D01*
X5233453Y-12376174D02*
X5233453Y-12423793D01*
X5233453Y-12423793D02*
X5223929Y-12461888D01*
X5223929Y-12461888D02*
X5214405Y-12480936D01*
X5214405Y-12480936D02*
X5204882Y-12490460D01*
X5204882Y-12490460D02*
X5185834Y-12499984D01*
X5185834Y-12499984D02*
X5166786Y-12499984D01*
X5166786Y-12499984D02*
X5147739Y-12490460D01*
X5147739Y-12490460D02*
X5138215Y-12480936D01*
X5138215Y-12480936D02*
X5128691Y-12461888D01*
X5128691Y-12461888D02*
X5119167Y-12423793D01*
X5119167Y-12423793D02*
X5119167Y-12376174D01*
X5119167Y-12376174D02*
X5128691Y-12338079D01*
X5128691Y-12338079D02*
X5138215Y-12319031D01*
X5138215Y-12319031D02*
X5147739Y-12309508D01*
X5147739Y-12309508D02*
X5166786Y-12299984D01*
X5357263Y-12299984D02*
X5376310Y-12299984D01*
X5376310Y-12299984D02*
X5395358Y-12309508D01*
X5395358Y-12309508D02*
X5404882Y-12319031D01*
X5404882Y-12319031D02*
X5414405Y-12338079D01*
X5414405Y-12338079D02*
X5423929Y-12376174D01*
X5423929Y-12376174D02*
X5423929Y-12423793D01*
X5423929Y-12423793D02*
X5414405Y-12461888D01*
X5414405Y-12461888D02*
X5404882Y-12480936D01*
X5404882Y-12480936D02*
X5395358Y-12490460D01*
X5395358Y-12490460D02*
X5376310Y-12499984D01*
X5376310Y-12499984D02*
X5357263Y-12499984D01*
X5357263Y-12499984D02*
X5338215Y-12490460D01*
X5338215Y-12490460D02*
X5328691Y-12480936D01*
X5328691Y-12480936D02*
X5319167Y-12461888D01*
X5319167Y-12461888D02*
X5309644Y-12423793D01*
X5309644Y-12423793D02*
X5309644Y-12376174D01*
X5309644Y-12376174D02*
X5319167Y-12338079D01*
X5319167Y-12338079D02*
X5328691Y-12319031D01*
X5328691Y-12319031D02*
X5338215Y-12309508D01*
X5338215Y-12309508D02*
X5357263Y-12299984D01*
X5547739Y-12299984D02*
X5566786Y-12299984D01*
X5566786Y-12299984D02*
X5585834Y-12309508D01*
X5585834Y-12309508D02*
X5595358Y-12319031D01*
X5595358Y-12319031D02*
X5604882Y-12338079D01*
X5604882Y-12338079D02*
X5614405Y-12376174D01*
X5614405Y-12376174D02*
X5614405Y-12423793D01*
X5614405Y-12423793D02*
X5604882Y-12461888D01*
X5604882Y-12461888D02*
X5595358Y-12480936D01*
X5595358Y-12480936D02*
X5585834Y-12490460D01*
X5585834Y-12490460D02*
X5566786Y-12499984D01*
X5566786Y-12499984D02*
X5547739Y-12499984D01*
X5547739Y-12499984D02*
X5528691Y-12490460D01*
X5528691Y-12490460D02*
X5519167Y-12480936D01*
X5519167Y-12480936D02*
X5509644Y-12461888D01*
X5509644Y-12461888D02*
X5500120Y-12423793D01*
X5500120Y-12423793D02*
X5500120Y-12376174D01*
X5500120Y-12376174D02*
X5509644Y-12338079D01*
X5509644Y-12338079D02*
X5519167Y-12319031D01*
X5519167Y-12319031D02*
X5528691Y-12309508D01*
X5528691Y-12309508D02*
X5547739Y-12299984D01*
X5700120Y-12499984D02*
X5700120Y-12366650D01*
X5700120Y-12385698D02*
X5709643Y-12376174D01*
X5709643Y-12376174D02*
X5728691Y-12366650D01*
X5728691Y-12366650D02*
X5757263Y-12366650D01*
X5757263Y-12366650D02*
X5776310Y-12376174D01*
X5776310Y-12376174D02*
X5785834Y-12395222D01*
X5785834Y-12395222D02*
X5785834Y-12499984D01*
X5785834Y-12395222D02*
X5795358Y-12376174D01*
X5795358Y-12376174D02*
X5814405Y-12366650D01*
X5814405Y-12366650D02*
X5842977Y-12366650D01*
X5842977Y-12366650D02*
X5862024Y-12376174D01*
X5862024Y-12376174D02*
X5871548Y-12395222D01*
X5871548Y-12395222D02*
X5871548Y-12499984D01*
X5966786Y-12499984D02*
X5966786Y-12366650D01*
X5966786Y-12385698D02*
X5976310Y-12376174D01*
X5976310Y-12376174D02*
X5995358Y-12366650D01*
X5995358Y-12366650D02*
X6023929Y-12366650D01*
X6023929Y-12366650D02*
X6042977Y-12376174D01*
X6042977Y-12376174D02*
X6052501Y-12395222D01*
X6052501Y-12395222D02*
X6052501Y-12499984D01*
X6052501Y-12395222D02*
X6062024Y-12376174D01*
X6062024Y-12376174D02*
X6081072Y-12366650D01*
X6081072Y-12366650D02*
X6109643Y-12366650D01*
X6109643Y-12366650D02*
X6128691Y-12376174D01*
X6128691Y-12376174D02*
X6138215Y-12395222D01*
X6138215Y-12395222D02*
X6138215Y-12499984D01*
X6528691Y-12290460D02*
X6357263Y-12547603D01*
X6785834Y-12299984D02*
X6804882Y-12299984D01*
X6804882Y-12299984D02*
X6823929Y-12309508D01*
X6823929Y-12309508D02*
X6833453Y-12319031D01*
X6833453Y-12319031D02*
X6842977Y-12338079D01*
X6842977Y-12338079D02*
X6852501Y-12376174D01*
X6852501Y-12376174D02*
X6852501Y-12423793D01*
X6852501Y-12423793D02*
X6842977Y-12461888D01*
X6842977Y-12461888D02*
X6833453Y-12480936D01*
X6833453Y-12480936D02*
X6823929Y-12490460D01*
X6823929Y-12490460D02*
X6804882Y-12499984D01*
X6804882Y-12499984D02*
X6785834Y-12499984D01*
X6785834Y-12499984D02*
X6766786Y-12490460D01*
X6766786Y-12490460D02*
X6757263Y-12480936D01*
X6757263Y-12480936D02*
X6747739Y-12461888D01*
X6747739Y-12461888D02*
X6738215Y-12423793D01*
X6738215Y-12423793D02*
X6738215Y-12376174D01*
X6738215Y-12376174D02*
X6747739Y-12338079D01*
X6747739Y-12338079D02*
X6757263Y-12319031D01*
X6757263Y-12319031D02*
X6766786Y-12309508D01*
X6766786Y-12309508D02*
X6785834Y-12299984D01*
X6938215Y-12480936D02*
X6947739Y-12490460D01*
X6947739Y-12490460D02*
X6938215Y-12499984D01*
X6938215Y-12499984D02*
X6928691Y-12490460D01*
X6928691Y-12490460D02*
X6938215Y-12480936D01*
X6938215Y-12480936D02*
X6938215Y-12499984D01*
X7071548Y-12299984D02*
X7090596Y-12299984D01*
X7090596Y-12299984D02*
X7109644Y-12309508D01*
X7109644Y-12309508D02*
X7119167Y-12319031D01*
X7119167Y-12319031D02*
X7128691Y-12338079D01*
X7128691Y-12338079D02*
X7138215Y-12376174D01*
X7138215Y-12376174D02*
X7138215Y-12423793D01*
X7138215Y-12423793D02*
X7128691Y-12461888D01*
X7128691Y-12461888D02*
X7119167Y-12480936D01*
X7119167Y-12480936D02*
X7109644Y-12490460D01*
X7109644Y-12490460D02*
X7090596Y-12499984D01*
X7090596Y-12499984D02*
X7071548Y-12499984D01*
X7071548Y-12499984D02*
X7052501Y-12490460D01*
X7052501Y-12490460D02*
X7042977Y-12480936D01*
X7042977Y-12480936D02*
X7033453Y-12461888D01*
X7033453Y-12461888D02*
X7023929Y-12423793D01*
X7023929Y-12423793D02*
X7023929Y-12376174D01*
X7023929Y-12376174D02*
X7033453Y-12338079D01*
X7033453Y-12338079D02*
X7042977Y-12319031D01*
X7042977Y-12319031D02*
X7052501Y-12309508D01*
X7052501Y-12309508D02*
X7071548Y-12299984D01*
X7204882Y-12299984D02*
X7328691Y-12299984D01*
X7328691Y-12299984D02*
X7262025Y-12376174D01*
X7262025Y-12376174D02*
X7290596Y-12376174D01*
X7290596Y-12376174D02*
X7309644Y-12385698D01*
X7309644Y-12385698D02*
X7319167Y-12395222D01*
X7319167Y-12395222D02*
X7328691Y-12414269D01*
X7328691Y-12414269D02*
X7328691Y-12461888D01*
X7328691Y-12461888D02*
X7319167Y-12480936D01*
X7319167Y-12480936D02*
X7309644Y-12490460D01*
X7309644Y-12490460D02*
X7290596Y-12499984D01*
X7290596Y-12499984D02*
X7233453Y-12499984D01*
X7233453Y-12499984D02*
X7214406Y-12490460D01*
X7214406Y-12490460D02*
X7204882Y-12480936D01*
X7423929Y-12499984D02*
X7462025Y-12499984D01*
X7462025Y-12499984D02*
X7481072Y-12490460D01*
X7481072Y-12490460D02*
X7490596Y-12480936D01*
X7490596Y-12480936D02*
X7509644Y-12452365D01*
X7509644Y-12452365D02*
X7519167Y-12414269D01*
X7519167Y-12414269D02*
X7519167Y-12338079D01*
X7519167Y-12338079D02*
X7509644Y-12319031D01*
X7509644Y-12319031D02*
X7500120Y-12309508D01*
X7500120Y-12309508D02*
X7481072Y-12299984D01*
X7481072Y-12299984D02*
X7442977Y-12299984D01*
X7442977Y-12299984D02*
X7423929Y-12309508D01*
X7423929Y-12309508D02*
X7414406Y-12319031D01*
X7414406Y-12319031D02*
X7404882Y-12338079D01*
X7404882Y-12338079D02*
X7404882Y-12385698D01*
X7404882Y-12385698D02*
X7414406Y-12404746D01*
X7414406Y-12404746D02*
X7423929Y-12414269D01*
X7423929Y-12414269D02*
X7442977Y-12423793D01*
X7442977Y-12423793D02*
X7481072Y-12423793D01*
X7481072Y-12423793D02*
X7500120Y-12414269D01*
X7500120Y-12414269D02*
X7509644Y-12404746D01*
X7509644Y-12404746D02*
X7519167Y-12385698D01*
X7690596Y-12366650D02*
X7690596Y-12499984D01*
X7642977Y-12290460D02*
X7595358Y-12433317D01*
X7595358Y-12433317D02*
X7719167Y-12433317D01*
X7785834Y-12299984D02*
X7785834Y-12338079D01*
X7862025Y-12299984D02*
X7862025Y-12338079D01*
X8157263Y-12576174D02*
X8147739Y-12566650D01*
X8147739Y-12566650D02*
X8128691Y-12538079D01*
X8128691Y-12538079D02*
X8119168Y-12519031D01*
X8119168Y-12519031D02*
X8109644Y-12490460D01*
X8109644Y-12490460D02*
X8100120Y-12442841D01*
X8100120Y-12442841D02*
X8100120Y-12404746D01*
X8100120Y-12404746D02*
X8109644Y-12357127D01*
X8109644Y-12357127D02*
X8119168Y-12328555D01*
X8119168Y-12328555D02*
X8128691Y-12309508D01*
X8128691Y-12309508D02*
X8147739Y-12280936D01*
X8147739Y-12280936D02*
X8157263Y-12271412D01*
X8338215Y-12499984D02*
X8223929Y-12499984D01*
X8281072Y-12499984D02*
X8281072Y-12299984D01*
X8281072Y-12299984D02*
X8262025Y-12328555D01*
X8262025Y-12328555D02*
X8242977Y-12347603D01*
X8242977Y-12347603D02*
X8223929Y-12357127D01*
X8404882Y-12299984D02*
X8528691Y-12299984D01*
X8528691Y-12299984D02*
X8462025Y-12376174D01*
X8462025Y-12376174D02*
X8490596Y-12376174D01*
X8490596Y-12376174D02*
X8509644Y-12385698D01*
X8509644Y-12385698D02*
X8519168Y-12395222D01*
X8519168Y-12395222D02*
X8528691Y-12414269D01*
X8528691Y-12414269D02*
X8528691Y-12461888D01*
X8528691Y-12461888D02*
X8519168Y-12480936D01*
X8519168Y-12480936D02*
X8509644Y-12490460D01*
X8509644Y-12490460D02*
X8490596Y-12499984D01*
X8490596Y-12499984D02*
X8433453Y-12499984D01*
X8433453Y-12499984D02*
X8414406Y-12490460D01*
X8414406Y-12490460D02*
X8404882Y-12480936D01*
X8766787Y-12499984D02*
X8766787Y-12299984D01*
X8852501Y-12499984D02*
X8852501Y-12395222D01*
X8852501Y-12395222D02*
X8842977Y-12376174D01*
X8842977Y-12376174D02*
X8823930Y-12366650D01*
X8823930Y-12366650D02*
X8795358Y-12366650D01*
X8795358Y-12366650D02*
X8776311Y-12376174D01*
X8776311Y-12376174D02*
X8766787Y-12385698D01*
X8976311Y-12499984D02*
X8957263Y-12490460D01*
X8957263Y-12490460D02*
X8947739Y-12480936D01*
X8947739Y-12480936D02*
X8938215Y-12461888D01*
X8938215Y-12461888D02*
X8938215Y-12404746D01*
X8938215Y-12404746D02*
X8947739Y-12385698D01*
X8947739Y-12385698D02*
X8957263Y-12376174D01*
X8957263Y-12376174D02*
X8976311Y-12366650D01*
X8976311Y-12366650D02*
X9004882Y-12366650D01*
X9004882Y-12366650D02*
X9023930Y-12376174D01*
X9023930Y-12376174D02*
X9033453Y-12385698D01*
X9033453Y-12385698D02*
X9042977Y-12404746D01*
X9042977Y-12404746D02*
X9042977Y-12461888D01*
X9042977Y-12461888D02*
X9033453Y-12480936D01*
X9033453Y-12480936D02*
X9023930Y-12490460D01*
X9023930Y-12490460D02*
X9004882Y-12499984D01*
X9004882Y-12499984D02*
X8976311Y-12499984D01*
X9157263Y-12499984D02*
X9138215Y-12490460D01*
X9138215Y-12490460D02*
X9128692Y-12471412D01*
X9128692Y-12471412D02*
X9128692Y-12299984D01*
X9309644Y-12490460D02*
X9290596Y-12499984D01*
X9290596Y-12499984D02*
X9252501Y-12499984D01*
X9252501Y-12499984D02*
X9233453Y-12490460D01*
X9233453Y-12490460D02*
X9223930Y-12471412D01*
X9223930Y-12471412D02*
X9223930Y-12395222D01*
X9223930Y-12395222D02*
X9233453Y-12376174D01*
X9233453Y-12376174D02*
X9252501Y-12366650D01*
X9252501Y-12366650D02*
X9290596Y-12366650D01*
X9290596Y-12366650D02*
X9309644Y-12376174D01*
X9309644Y-12376174D02*
X9319168Y-12395222D01*
X9319168Y-12395222D02*
X9319168Y-12414269D01*
X9319168Y-12414269D02*
X9223930Y-12433317D01*
X9395358Y-12490460D02*
X9414406Y-12499984D01*
X9414406Y-12499984D02*
X9452501Y-12499984D01*
X9452501Y-12499984D02*
X9471549Y-12490460D01*
X9471549Y-12490460D02*
X9481073Y-12471412D01*
X9481073Y-12471412D02*
X9481073Y-12461888D01*
X9481073Y-12461888D02*
X9471549Y-12442841D01*
X9471549Y-12442841D02*
X9452501Y-12433317D01*
X9452501Y-12433317D02*
X9423930Y-12433317D01*
X9423930Y-12433317D02*
X9404882Y-12423793D01*
X9404882Y-12423793D02*
X9395358Y-12404746D01*
X9395358Y-12404746D02*
X9395358Y-12395222D01*
X9395358Y-12395222D02*
X9404882Y-12376174D01*
X9404882Y-12376174D02*
X9423930Y-12366650D01*
X9423930Y-12366650D02*
X9452501Y-12366650D01*
X9452501Y-12366650D02*
X9471549Y-12376174D01*
X9547739Y-12576174D02*
X9557263Y-12566650D01*
X9557263Y-12566650D02*
X9576311Y-12538079D01*
X9576311Y-12538079D02*
X9585834Y-12519031D01*
X9585834Y-12519031D02*
X9595358Y-12490460D01*
X9595358Y-12490460D02*
X9604882Y-12442841D01*
X9604882Y-12442841D02*
X9604882Y-12404746D01*
X9604882Y-12404746D02*
X9595358Y-12357127D01*
X9595358Y-12357127D02*
X9585834Y-12328555D01*
X9585834Y-12328555D02*
X9576311Y-12309508D01*
X9576311Y-12309508D02*
X9557263Y-12280936D01*
X9557263Y-12280936D02*
X9547739Y-12271412D01*
D13*
X4517200Y-12737500D02*
X4582200Y-12672500D01*
X4517200Y-12607500D01*
X4452200Y-12672500D01*
X4517200Y-12737500D01*
D11*
X4947739Y-12763984D02*
X4833453Y-12763984D01*
X4890596Y-12763984D02*
X4890596Y-12563984D01*
X4890596Y-12563984D02*
X4871548Y-12592555D01*
X4871548Y-12592555D02*
X4852501Y-12611603D01*
X4852501Y-12611603D02*
X4833453Y-12621127D01*
X5033453Y-12744936D02*
X5042977Y-12754460D01*
X5042977Y-12754460D02*
X5033453Y-12763984D01*
X5033453Y-12763984D02*
X5023929Y-12754460D01*
X5023929Y-12754460D02*
X5033453Y-12744936D01*
X5033453Y-12744936D02*
X5033453Y-12763984D01*
X5109644Y-12563984D02*
X5233453Y-12563984D01*
X5233453Y-12563984D02*
X5166786Y-12640174D01*
X5166786Y-12640174D02*
X5195358Y-12640174D01*
X5195358Y-12640174D02*
X5214405Y-12649698D01*
X5214405Y-12649698D02*
X5223929Y-12659222D01*
X5223929Y-12659222D02*
X5233453Y-12678269D01*
X5233453Y-12678269D02*
X5233453Y-12725888D01*
X5233453Y-12725888D02*
X5223929Y-12744936D01*
X5223929Y-12744936D02*
X5214405Y-12754460D01*
X5214405Y-12754460D02*
X5195358Y-12763984D01*
X5195358Y-12763984D02*
X5138215Y-12763984D01*
X5138215Y-12763984D02*
X5119167Y-12754460D01*
X5119167Y-12754460D02*
X5109644Y-12744936D01*
X5357263Y-12563984D02*
X5376310Y-12563984D01*
X5376310Y-12563984D02*
X5395358Y-12573508D01*
X5395358Y-12573508D02*
X5404882Y-12583031D01*
X5404882Y-12583031D02*
X5414405Y-12602079D01*
X5414405Y-12602079D02*
X5423929Y-12640174D01*
X5423929Y-12640174D02*
X5423929Y-12687793D01*
X5423929Y-12687793D02*
X5414405Y-12725888D01*
X5414405Y-12725888D02*
X5404882Y-12744936D01*
X5404882Y-12744936D02*
X5395358Y-12754460D01*
X5395358Y-12754460D02*
X5376310Y-12763984D01*
X5376310Y-12763984D02*
X5357263Y-12763984D01*
X5357263Y-12763984D02*
X5338215Y-12754460D01*
X5338215Y-12754460D02*
X5328691Y-12744936D01*
X5328691Y-12744936D02*
X5319167Y-12725888D01*
X5319167Y-12725888D02*
X5309644Y-12687793D01*
X5309644Y-12687793D02*
X5309644Y-12640174D01*
X5309644Y-12640174D02*
X5319167Y-12602079D01*
X5319167Y-12602079D02*
X5328691Y-12583031D01*
X5328691Y-12583031D02*
X5338215Y-12573508D01*
X5338215Y-12573508D02*
X5357263Y-12563984D01*
X5547739Y-12563984D02*
X5566786Y-12563984D01*
X5566786Y-12563984D02*
X5585834Y-12573508D01*
X5585834Y-12573508D02*
X5595358Y-12583031D01*
X5595358Y-12583031D02*
X5604882Y-12602079D01*
X5604882Y-12602079D02*
X5614405Y-12640174D01*
X5614405Y-12640174D02*
X5614405Y-12687793D01*
X5614405Y-12687793D02*
X5604882Y-12725888D01*
X5604882Y-12725888D02*
X5595358Y-12744936D01*
X5595358Y-12744936D02*
X5585834Y-12754460D01*
X5585834Y-12754460D02*
X5566786Y-12763984D01*
X5566786Y-12763984D02*
X5547739Y-12763984D01*
X5547739Y-12763984D02*
X5528691Y-12754460D01*
X5528691Y-12754460D02*
X5519167Y-12744936D01*
X5519167Y-12744936D02*
X5509644Y-12725888D01*
X5509644Y-12725888D02*
X5500120Y-12687793D01*
X5500120Y-12687793D02*
X5500120Y-12640174D01*
X5500120Y-12640174D02*
X5509644Y-12602079D01*
X5509644Y-12602079D02*
X5519167Y-12583031D01*
X5519167Y-12583031D02*
X5528691Y-12573508D01*
X5528691Y-12573508D02*
X5547739Y-12563984D01*
X5700120Y-12763984D02*
X5700120Y-12630650D01*
X5700120Y-12649698D02*
X5709643Y-12640174D01*
X5709643Y-12640174D02*
X5728691Y-12630650D01*
X5728691Y-12630650D02*
X5757263Y-12630650D01*
X5757263Y-12630650D02*
X5776310Y-12640174D01*
X5776310Y-12640174D02*
X5785834Y-12659222D01*
X5785834Y-12659222D02*
X5785834Y-12763984D01*
X5785834Y-12659222D02*
X5795358Y-12640174D01*
X5795358Y-12640174D02*
X5814405Y-12630650D01*
X5814405Y-12630650D02*
X5842977Y-12630650D01*
X5842977Y-12630650D02*
X5862024Y-12640174D01*
X5862024Y-12640174D02*
X5871548Y-12659222D01*
X5871548Y-12659222D02*
X5871548Y-12763984D01*
X5966786Y-12763984D02*
X5966786Y-12630650D01*
X5966786Y-12649698D02*
X5976310Y-12640174D01*
X5976310Y-12640174D02*
X5995358Y-12630650D01*
X5995358Y-12630650D02*
X6023929Y-12630650D01*
X6023929Y-12630650D02*
X6042977Y-12640174D01*
X6042977Y-12640174D02*
X6052501Y-12659222D01*
X6052501Y-12659222D02*
X6052501Y-12763984D01*
X6052501Y-12659222D02*
X6062024Y-12640174D01*
X6062024Y-12640174D02*
X6081072Y-12630650D01*
X6081072Y-12630650D02*
X6109643Y-12630650D01*
X6109643Y-12630650D02*
X6128691Y-12640174D01*
X6128691Y-12640174D02*
X6138215Y-12659222D01*
X6138215Y-12659222D02*
X6138215Y-12763984D01*
X6528691Y-12554460D02*
X6357263Y-12811603D01*
X6785834Y-12563984D02*
X6804882Y-12563984D01*
X6804882Y-12563984D02*
X6823929Y-12573508D01*
X6823929Y-12573508D02*
X6833453Y-12583031D01*
X6833453Y-12583031D02*
X6842977Y-12602079D01*
X6842977Y-12602079D02*
X6852501Y-12640174D01*
X6852501Y-12640174D02*
X6852501Y-12687793D01*
X6852501Y-12687793D02*
X6842977Y-12725888D01*
X6842977Y-12725888D02*
X6833453Y-12744936D01*
X6833453Y-12744936D02*
X6823929Y-12754460D01*
X6823929Y-12754460D02*
X6804882Y-12763984D01*
X6804882Y-12763984D02*
X6785834Y-12763984D01*
X6785834Y-12763984D02*
X6766786Y-12754460D01*
X6766786Y-12754460D02*
X6757263Y-12744936D01*
X6757263Y-12744936D02*
X6747739Y-12725888D01*
X6747739Y-12725888D02*
X6738215Y-12687793D01*
X6738215Y-12687793D02*
X6738215Y-12640174D01*
X6738215Y-12640174D02*
X6747739Y-12602079D01*
X6747739Y-12602079D02*
X6757263Y-12583031D01*
X6757263Y-12583031D02*
X6766786Y-12573508D01*
X6766786Y-12573508D02*
X6785834Y-12563984D01*
X6938215Y-12744936D02*
X6947739Y-12754460D01*
X6947739Y-12754460D02*
X6938215Y-12763984D01*
X6938215Y-12763984D02*
X6928691Y-12754460D01*
X6928691Y-12754460D02*
X6938215Y-12744936D01*
X6938215Y-12744936D02*
X6938215Y-12763984D01*
X7071548Y-12563984D02*
X7090596Y-12563984D01*
X7090596Y-12563984D02*
X7109644Y-12573508D01*
X7109644Y-12573508D02*
X7119167Y-12583031D01*
X7119167Y-12583031D02*
X7128691Y-12602079D01*
X7128691Y-12602079D02*
X7138215Y-12640174D01*
X7138215Y-12640174D02*
X7138215Y-12687793D01*
X7138215Y-12687793D02*
X7128691Y-12725888D01*
X7128691Y-12725888D02*
X7119167Y-12744936D01*
X7119167Y-12744936D02*
X7109644Y-12754460D01*
X7109644Y-12754460D02*
X7090596Y-12763984D01*
X7090596Y-12763984D02*
X7071548Y-12763984D01*
X7071548Y-12763984D02*
X7052501Y-12754460D01*
X7052501Y-12754460D02*
X7042977Y-12744936D01*
X7042977Y-12744936D02*
X7033453Y-12725888D01*
X7033453Y-12725888D02*
X7023929Y-12687793D01*
X7023929Y-12687793D02*
X7023929Y-12640174D01*
X7023929Y-12640174D02*
X7033453Y-12602079D01*
X7033453Y-12602079D02*
X7042977Y-12583031D01*
X7042977Y-12583031D02*
X7052501Y-12573508D01*
X7052501Y-12573508D02*
X7071548Y-12563984D01*
X7319167Y-12563984D02*
X7223929Y-12563984D01*
X7223929Y-12563984D02*
X7214406Y-12659222D01*
X7214406Y-12659222D02*
X7223929Y-12649698D01*
X7223929Y-12649698D02*
X7242977Y-12640174D01*
X7242977Y-12640174D02*
X7290596Y-12640174D01*
X7290596Y-12640174D02*
X7309644Y-12649698D01*
X7309644Y-12649698D02*
X7319167Y-12659222D01*
X7319167Y-12659222D02*
X7328691Y-12678269D01*
X7328691Y-12678269D02*
X7328691Y-12725888D01*
X7328691Y-12725888D02*
X7319167Y-12744936D01*
X7319167Y-12744936D02*
X7309644Y-12754460D01*
X7309644Y-12754460D02*
X7290596Y-12763984D01*
X7290596Y-12763984D02*
X7242977Y-12763984D01*
X7242977Y-12763984D02*
X7223929Y-12754460D01*
X7223929Y-12754460D02*
X7214406Y-12744936D01*
X7519167Y-12763984D02*
X7404882Y-12763984D01*
X7462025Y-12763984D02*
X7462025Y-12563984D01*
X7462025Y-12563984D02*
X7442977Y-12592555D01*
X7442977Y-12592555D02*
X7423929Y-12611603D01*
X7423929Y-12611603D02*
X7404882Y-12621127D01*
X7595358Y-12583031D02*
X7604882Y-12573508D01*
X7604882Y-12573508D02*
X7623929Y-12563984D01*
X7623929Y-12563984D02*
X7671548Y-12563984D01*
X7671548Y-12563984D02*
X7690596Y-12573508D01*
X7690596Y-12573508D02*
X7700120Y-12583031D01*
X7700120Y-12583031D02*
X7709644Y-12602079D01*
X7709644Y-12602079D02*
X7709644Y-12621127D01*
X7709644Y-12621127D02*
X7700120Y-12649698D01*
X7700120Y-12649698D02*
X7585834Y-12763984D01*
X7585834Y-12763984D02*
X7709644Y-12763984D01*
X7785834Y-12563984D02*
X7785834Y-12602079D01*
X7862025Y-12563984D02*
X7862025Y-12602079D01*
X8157263Y-12840174D02*
X8147739Y-12830650D01*
X8147739Y-12830650D02*
X8128691Y-12802079D01*
X8128691Y-12802079D02*
X8119168Y-12783031D01*
X8119168Y-12783031D02*
X8109644Y-12754460D01*
X8109644Y-12754460D02*
X8100120Y-12706841D01*
X8100120Y-12706841D02*
X8100120Y-12668746D01*
X8100120Y-12668746D02*
X8109644Y-12621127D01*
X8109644Y-12621127D02*
X8119168Y-12592555D01*
X8119168Y-12592555D02*
X8128691Y-12573508D01*
X8128691Y-12573508D02*
X8147739Y-12544936D01*
X8147739Y-12544936D02*
X8157263Y-12535412D01*
X8262025Y-12649698D02*
X8242977Y-12640174D01*
X8242977Y-12640174D02*
X8233453Y-12630650D01*
X8233453Y-12630650D02*
X8223929Y-12611603D01*
X8223929Y-12611603D02*
X8223929Y-12602079D01*
X8223929Y-12602079D02*
X8233453Y-12583031D01*
X8233453Y-12583031D02*
X8242977Y-12573508D01*
X8242977Y-12573508D02*
X8262025Y-12563984D01*
X8262025Y-12563984D02*
X8300120Y-12563984D01*
X8300120Y-12563984D02*
X8319168Y-12573508D01*
X8319168Y-12573508D02*
X8328691Y-12583031D01*
X8328691Y-12583031D02*
X8338215Y-12602079D01*
X8338215Y-12602079D02*
X8338215Y-12611603D01*
X8338215Y-12611603D02*
X8328691Y-12630650D01*
X8328691Y-12630650D02*
X8319168Y-12640174D01*
X8319168Y-12640174D02*
X8300120Y-12649698D01*
X8300120Y-12649698D02*
X8262025Y-12649698D01*
X8262025Y-12649698D02*
X8242977Y-12659222D01*
X8242977Y-12659222D02*
X8233453Y-12668746D01*
X8233453Y-12668746D02*
X8223929Y-12687793D01*
X8223929Y-12687793D02*
X8223929Y-12725888D01*
X8223929Y-12725888D02*
X8233453Y-12744936D01*
X8233453Y-12744936D02*
X8242977Y-12754460D01*
X8242977Y-12754460D02*
X8262025Y-12763984D01*
X8262025Y-12763984D02*
X8300120Y-12763984D01*
X8300120Y-12763984D02*
X8319168Y-12754460D01*
X8319168Y-12754460D02*
X8328691Y-12744936D01*
X8328691Y-12744936D02*
X8338215Y-12725888D01*
X8338215Y-12725888D02*
X8338215Y-12687793D01*
X8338215Y-12687793D02*
X8328691Y-12668746D01*
X8328691Y-12668746D02*
X8319168Y-12659222D01*
X8319168Y-12659222D02*
X8300120Y-12649698D01*
X8576311Y-12763984D02*
X8576311Y-12563984D01*
X8662025Y-12763984D02*
X8662025Y-12659222D01*
X8662025Y-12659222D02*
X8652501Y-12640174D01*
X8652501Y-12640174D02*
X8633453Y-12630650D01*
X8633453Y-12630650D02*
X8604882Y-12630650D01*
X8604882Y-12630650D02*
X8585834Y-12640174D01*
X8585834Y-12640174D02*
X8576311Y-12649698D01*
X8785834Y-12763984D02*
X8766787Y-12754460D01*
X8766787Y-12754460D02*
X8757263Y-12744936D01*
X8757263Y-12744936D02*
X8747739Y-12725888D01*
X8747739Y-12725888D02*
X8747739Y-12668746D01*
X8747739Y-12668746D02*
X8757263Y-12649698D01*
X8757263Y-12649698D02*
X8766787Y-12640174D01*
X8766787Y-12640174D02*
X8785834Y-12630650D01*
X8785834Y-12630650D02*
X8814406Y-12630650D01*
X8814406Y-12630650D02*
X8833453Y-12640174D01*
X8833453Y-12640174D02*
X8842977Y-12649698D01*
X8842977Y-12649698D02*
X8852501Y-12668746D01*
X8852501Y-12668746D02*
X8852501Y-12725888D01*
X8852501Y-12725888D02*
X8842977Y-12744936D01*
X8842977Y-12744936D02*
X8833453Y-12754460D01*
X8833453Y-12754460D02*
X8814406Y-12763984D01*
X8814406Y-12763984D02*
X8785834Y-12763984D01*
X8966787Y-12763984D02*
X8947739Y-12754460D01*
X8947739Y-12754460D02*
X8938215Y-12735412D01*
X8938215Y-12735412D02*
X8938215Y-12563984D01*
X9119168Y-12754460D02*
X9100120Y-12763984D01*
X9100120Y-12763984D02*
X9062025Y-12763984D01*
X9062025Y-12763984D02*
X9042977Y-12754460D01*
X9042977Y-12754460D02*
X9033453Y-12735412D01*
X9033453Y-12735412D02*
X9033453Y-12659222D01*
X9033453Y-12659222D02*
X9042977Y-12640174D01*
X9042977Y-12640174D02*
X9062025Y-12630650D01*
X9062025Y-12630650D02*
X9100120Y-12630650D01*
X9100120Y-12630650D02*
X9119168Y-12640174D01*
X9119168Y-12640174D02*
X9128692Y-12659222D01*
X9128692Y-12659222D02*
X9128692Y-12678269D01*
X9128692Y-12678269D02*
X9033453Y-12697317D01*
X9204882Y-12754460D02*
X9223930Y-12763984D01*
X9223930Y-12763984D02*
X9262025Y-12763984D01*
X9262025Y-12763984D02*
X9281073Y-12754460D01*
X9281073Y-12754460D02*
X9290596Y-12735412D01*
X9290596Y-12735412D02*
X9290596Y-12725888D01*
X9290596Y-12725888D02*
X9281073Y-12706841D01*
X9281073Y-12706841D02*
X9262025Y-12697317D01*
X9262025Y-12697317D02*
X9233453Y-12697317D01*
X9233453Y-12697317D02*
X9214406Y-12687793D01*
X9214406Y-12687793D02*
X9204882Y-12668746D01*
X9204882Y-12668746D02*
X9204882Y-12659222D01*
X9204882Y-12659222D02*
X9214406Y-12640174D01*
X9214406Y-12640174D02*
X9233453Y-12630650D01*
X9233453Y-12630650D02*
X9262025Y-12630650D01*
X9262025Y-12630650D02*
X9281073Y-12640174D01*
X9357263Y-12840174D02*
X9366787Y-12830650D01*
X9366787Y-12830650D02*
X9385834Y-12802079D01*
X9385834Y-12802079D02*
X9395358Y-12783031D01*
X9395358Y-12783031D02*
X9404882Y-12754460D01*
X9404882Y-12754460D02*
X9414406Y-12706841D01*
X9414406Y-12706841D02*
X9414406Y-12668746D01*
X9414406Y-12668746D02*
X9404882Y-12621127D01*
X9404882Y-12621127D02*
X9395358Y-12592555D01*
X9395358Y-12592555D02*
X9385834Y-12573508D01*
X9385834Y-12573508D02*
X9366787Y-12544936D01*
X9366787Y-12544936D02*
X9357263Y-12535412D01*
X4382200Y-12836500D02*
X4582200Y-13036500D01*
X4582200Y-12836500D02*
X4382200Y-13036500D01*
X4582200Y-12936500D02*
G75*
G03*
X4382200Y-12936500I-100000J0D01*
G01*
X4382200Y-12936500D02*
G75*
G03*
X4582200Y-12936500I100000J0D01*
G01*
X4823929Y-12827984D02*
X4947739Y-12827984D01*
X4947739Y-12827984D02*
X4881072Y-12904174D01*
X4881072Y-12904174D02*
X4909644Y-12904174D01*
X4909644Y-12904174D02*
X4928691Y-12913698D01*
X4928691Y-12913698D02*
X4938215Y-12923222D01*
X4938215Y-12923222D02*
X4947739Y-12942269D01*
X4947739Y-12942269D02*
X4947739Y-12989888D01*
X4947739Y-12989888D02*
X4938215Y-13008936D01*
X4938215Y-13008936D02*
X4928691Y-13018460D01*
X4928691Y-13018460D02*
X4909644Y-13027984D01*
X4909644Y-13027984D02*
X4852501Y-13027984D01*
X4852501Y-13027984D02*
X4833453Y-13018460D01*
X4833453Y-13018460D02*
X4823929Y-13008936D01*
X5033453Y-13008936D02*
X5042977Y-13018460D01*
X5042977Y-13018460D02*
X5033453Y-13027984D01*
X5033453Y-13027984D02*
X5023929Y-13018460D01*
X5023929Y-13018460D02*
X5033453Y-13008936D01*
X5033453Y-13008936D02*
X5033453Y-13027984D01*
X5119167Y-12847031D02*
X5128691Y-12837508D01*
X5128691Y-12837508D02*
X5147739Y-12827984D01*
X5147739Y-12827984D02*
X5195358Y-12827984D01*
X5195358Y-12827984D02*
X5214405Y-12837508D01*
X5214405Y-12837508D02*
X5223929Y-12847031D01*
X5223929Y-12847031D02*
X5233453Y-12866079D01*
X5233453Y-12866079D02*
X5233453Y-12885127D01*
X5233453Y-12885127D02*
X5223929Y-12913698D01*
X5223929Y-12913698D02*
X5109644Y-13027984D01*
X5109644Y-13027984D02*
X5233453Y-13027984D01*
X5357263Y-12827984D02*
X5376310Y-12827984D01*
X5376310Y-12827984D02*
X5395358Y-12837508D01*
X5395358Y-12837508D02*
X5404882Y-12847031D01*
X5404882Y-12847031D02*
X5414405Y-12866079D01*
X5414405Y-12866079D02*
X5423929Y-12904174D01*
X5423929Y-12904174D02*
X5423929Y-12951793D01*
X5423929Y-12951793D02*
X5414405Y-12989888D01*
X5414405Y-12989888D02*
X5404882Y-13008936D01*
X5404882Y-13008936D02*
X5395358Y-13018460D01*
X5395358Y-13018460D02*
X5376310Y-13027984D01*
X5376310Y-13027984D02*
X5357263Y-13027984D01*
X5357263Y-13027984D02*
X5338215Y-13018460D01*
X5338215Y-13018460D02*
X5328691Y-13008936D01*
X5328691Y-13008936D02*
X5319167Y-12989888D01*
X5319167Y-12989888D02*
X5309644Y-12951793D01*
X5309644Y-12951793D02*
X5309644Y-12904174D01*
X5309644Y-12904174D02*
X5319167Y-12866079D01*
X5319167Y-12866079D02*
X5328691Y-12847031D01*
X5328691Y-12847031D02*
X5338215Y-12837508D01*
X5338215Y-12837508D02*
X5357263Y-12827984D01*
X5547739Y-12827984D02*
X5566786Y-12827984D01*
X5566786Y-12827984D02*
X5585834Y-12837508D01*
X5585834Y-12837508D02*
X5595358Y-12847031D01*
X5595358Y-12847031D02*
X5604882Y-12866079D01*
X5604882Y-12866079D02*
X5614405Y-12904174D01*
X5614405Y-12904174D02*
X5614405Y-12951793D01*
X5614405Y-12951793D02*
X5604882Y-12989888D01*
X5604882Y-12989888D02*
X5595358Y-13008936D01*
X5595358Y-13008936D02*
X5585834Y-13018460D01*
X5585834Y-13018460D02*
X5566786Y-13027984D01*
X5566786Y-13027984D02*
X5547739Y-13027984D01*
X5547739Y-13027984D02*
X5528691Y-13018460D01*
X5528691Y-13018460D02*
X5519167Y-13008936D01*
X5519167Y-13008936D02*
X5509644Y-12989888D01*
X5509644Y-12989888D02*
X5500120Y-12951793D01*
X5500120Y-12951793D02*
X5500120Y-12904174D01*
X5500120Y-12904174D02*
X5509644Y-12866079D01*
X5509644Y-12866079D02*
X5519167Y-12847031D01*
X5519167Y-12847031D02*
X5528691Y-12837508D01*
X5528691Y-12837508D02*
X5547739Y-12827984D01*
X5700120Y-13027984D02*
X5700120Y-12894650D01*
X5700120Y-12913698D02*
X5709643Y-12904174D01*
X5709643Y-12904174D02*
X5728691Y-12894650D01*
X5728691Y-12894650D02*
X5757263Y-12894650D01*
X5757263Y-12894650D02*
X5776310Y-12904174D01*
X5776310Y-12904174D02*
X5785834Y-12923222D01*
X5785834Y-12923222D02*
X5785834Y-13027984D01*
X5785834Y-12923222D02*
X5795358Y-12904174D01*
X5795358Y-12904174D02*
X5814405Y-12894650D01*
X5814405Y-12894650D02*
X5842977Y-12894650D01*
X5842977Y-12894650D02*
X5862024Y-12904174D01*
X5862024Y-12904174D02*
X5871548Y-12923222D01*
X5871548Y-12923222D02*
X5871548Y-13027984D01*
X5966786Y-13027984D02*
X5966786Y-12894650D01*
X5966786Y-12913698D02*
X5976310Y-12904174D01*
X5976310Y-12904174D02*
X5995358Y-12894650D01*
X5995358Y-12894650D02*
X6023929Y-12894650D01*
X6023929Y-12894650D02*
X6042977Y-12904174D01*
X6042977Y-12904174D02*
X6052501Y-12923222D01*
X6052501Y-12923222D02*
X6052501Y-13027984D01*
X6052501Y-12923222D02*
X6062024Y-12904174D01*
X6062024Y-12904174D02*
X6081072Y-12894650D01*
X6081072Y-12894650D02*
X6109643Y-12894650D01*
X6109643Y-12894650D02*
X6128691Y-12904174D01*
X6128691Y-12904174D02*
X6138215Y-12923222D01*
X6138215Y-12923222D02*
X6138215Y-13027984D01*
X6528691Y-12818460D02*
X6357263Y-13075603D01*
X6785834Y-12827984D02*
X6804882Y-12827984D01*
X6804882Y-12827984D02*
X6823929Y-12837508D01*
X6823929Y-12837508D02*
X6833453Y-12847031D01*
X6833453Y-12847031D02*
X6842977Y-12866079D01*
X6842977Y-12866079D02*
X6852501Y-12904174D01*
X6852501Y-12904174D02*
X6852501Y-12951793D01*
X6852501Y-12951793D02*
X6842977Y-12989888D01*
X6842977Y-12989888D02*
X6833453Y-13008936D01*
X6833453Y-13008936D02*
X6823929Y-13018460D01*
X6823929Y-13018460D02*
X6804882Y-13027984D01*
X6804882Y-13027984D02*
X6785834Y-13027984D01*
X6785834Y-13027984D02*
X6766786Y-13018460D01*
X6766786Y-13018460D02*
X6757263Y-13008936D01*
X6757263Y-13008936D02*
X6747739Y-12989888D01*
X6747739Y-12989888D02*
X6738215Y-12951793D01*
X6738215Y-12951793D02*
X6738215Y-12904174D01*
X6738215Y-12904174D02*
X6747739Y-12866079D01*
X6747739Y-12866079D02*
X6757263Y-12847031D01*
X6757263Y-12847031D02*
X6766786Y-12837508D01*
X6766786Y-12837508D02*
X6785834Y-12827984D01*
X6938215Y-13008936D02*
X6947739Y-13018460D01*
X6947739Y-13018460D02*
X6938215Y-13027984D01*
X6938215Y-13027984D02*
X6928691Y-13018460D01*
X6928691Y-13018460D02*
X6938215Y-13008936D01*
X6938215Y-13008936D02*
X6938215Y-13027984D01*
X7138215Y-13027984D02*
X7023929Y-13027984D01*
X7081072Y-13027984D02*
X7081072Y-12827984D01*
X7081072Y-12827984D02*
X7062025Y-12856555D01*
X7062025Y-12856555D02*
X7042977Y-12875603D01*
X7042977Y-12875603D02*
X7023929Y-12885127D01*
X7214406Y-12847031D02*
X7223929Y-12837508D01*
X7223929Y-12837508D02*
X7242977Y-12827984D01*
X7242977Y-12827984D02*
X7290596Y-12827984D01*
X7290596Y-12827984D02*
X7309644Y-12837508D01*
X7309644Y-12837508D02*
X7319167Y-12847031D01*
X7319167Y-12847031D02*
X7328691Y-12866079D01*
X7328691Y-12866079D02*
X7328691Y-12885127D01*
X7328691Y-12885127D02*
X7319167Y-12913698D01*
X7319167Y-12913698D02*
X7204882Y-13027984D01*
X7204882Y-13027984D02*
X7328691Y-13027984D01*
X7500120Y-12827984D02*
X7462025Y-12827984D01*
X7462025Y-12827984D02*
X7442977Y-12837508D01*
X7442977Y-12837508D02*
X7433453Y-12847031D01*
X7433453Y-12847031D02*
X7414406Y-12875603D01*
X7414406Y-12875603D02*
X7404882Y-12913698D01*
X7404882Y-12913698D02*
X7404882Y-12989888D01*
X7404882Y-12989888D02*
X7414406Y-13008936D01*
X7414406Y-13008936D02*
X7423929Y-13018460D01*
X7423929Y-13018460D02*
X7442977Y-13027984D01*
X7442977Y-13027984D02*
X7481072Y-13027984D01*
X7481072Y-13027984D02*
X7500120Y-13018460D01*
X7500120Y-13018460D02*
X7509644Y-13008936D01*
X7509644Y-13008936D02*
X7519167Y-12989888D01*
X7519167Y-12989888D02*
X7519167Y-12942269D01*
X7519167Y-12942269D02*
X7509644Y-12923222D01*
X7509644Y-12923222D02*
X7500120Y-12913698D01*
X7500120Y-12913698D02*
X7481072Y-12904174D01*
X7481072Y-12904174D02*
X7442977Y-12904174D01*
X7442977Y-12904174D02*
X7423929Y-12913698D01*
X7423929Y-12913698D02*
X7414406Y-12923222D01*
X7414406Y-12923222D02*
X7404882Y-12942269D01*
X7642977Y-12827984D02*
X7662025Y-12827984D01*
X7662025Y-12827984D02*
X7681072Y-12837508D01*
X7681072Y-12837508D02*
X7690596Y-12847031D01*
X7690596Y-12847031D02*
X7700120Y-12866079D01*
X7700120Y-12866079D02*
X7709644Y-12904174D01*
X7709644Y-12904174D02*
X7709644Y-12951793D01*
X7709644Y-12951793D02*
X7700120Y-12989888D01*
X7700120Y-12989888D02*
X7690596Y-13008936D01*
X7690596Y-13008936D02*
X7681072Y-13018460D01*
X7681072Y-13018460D02*
X7662025Y-13027984D01*
X7662025Y-13027984D02*
X7642977Y-13027984D01*
X7642977Y-13027984D02*
X7623929Y-13018460D01*
X7623929Y-13018460D02*
X7614406Y-13008936D01*
X7614406Y-13008936D02*
X7604882Y-12989888D01*
X7604882Y-12989888D02*
X7595358Y-12951793D01*
X7595358Y-12951793D02*
X7595358Y-12904174D01*
X7595358Y-12904174D02*
X7604882Y-12866079D01*
X7604882Y-12866079D02*
X7614406Y-12847031D01*
X7614406Y-12847031D02*
X7623929Y-12837508D01*
X7623929Y-12837508D02*
X7642977Y-12827984D01*
X7785834Y-12827984D02*
X7785834Y-12866079D01*
X7862025Y-12827984D02*
X7862025Y-12866079D01*
X8157263Y-13104174D02*
X8147739Y-13094650D01*
X8147739Y-13094650D02*
X8128691Y-13066079D01*
X8128691Y-13066079D02*
X8119168Y-13047031D01*
X8119168Y-13047031D02*
X8109644Y-13018460D01*
X8109644Y-13018460D02*
X8100120Y-12970841D01*
X8100120Y-12970841D02*
X8100120Y-12932746D01*
X8100120Y-12932746D02*
X8109644Y-12885127D01*
X8109644Y-12885127D02*
X8119168Y-12856555D01*
X8119168Y-12856555D02*
X8128691Y-12837508D01*
X8128691Y-12837508D02*
X8147739Y-12808936D01*
X8147739Y-12808936D02*
X8157263Y-12799412D01*
X8223929Y-12847031D02*
X8233453Y-12837508D01*
X8233453Y-12837508D02*
X8252501Y-12827984D01*
X8252501Y-12827984D02*
X8300120Y-12827984D01*
X8300120Y-12827984D02*
X8319168Y-12837508D01*
X8319168Y-12837508D02*
X8328691Y-12847031D01*
X8328691Y-12847031D02*
X8338215Y-12866079D01*
X8338215Y-12866079D02*
X8338215Y-12885127D01*
X8338215Y-12885127D02*
X8328691Y-12913698D01*
X8328691Y-12913698D02*
X8214406Y-13027984D01*
X8214406Y-13027984D02*
X8338215Y-13027984D01*
X8576311Y-13027984D02*
X8576311Y-12827984D01*
X8662025Y-13027984D02*
X8662025Y-12923222D01*
X8662025Y-12923222D02*
X8652501Y-12904174D01*
X8652501Y-12904174D02*
X8633453Y-12894650D01*
X8633453Y-12894650D02*
X8604882Y-12894650D01*
X8604882Y-12894650D02*
X8585834Y-12904174D01*
X8585834Y-12904174D02*
X8576311Y-12913698D01*
X8785834Y-13027984D02*
X8766787Y-13018460D01*
X8766787Y-13018460D02*
X8757263Y-13008936D01*
X8757263Y-13008936D02*
X8747739Y-12989888D01*
X8747739Y-12989888D02*
X8747739Y-12932746D01*
X8747739Y-12932746D02*
X8757263Y-12913698D01*
X8757263Y-12913698D02*
X8766787Y-12904174D01*
X8766787Y-12904174D02*
X8785834Y-12894650D01*
X8785834Y-12894650D02*
X8814406Y-12894650D01*
X8814406Y-12894650D02*
X8833453Y-12904174D01*
X8833453Y-12904174D02*
X8842977Y-12913698D01*
X8842977Y-12913698D02*
X8852501Y-12932746D01*
X8852501Y-12932746D02*
X8852501Y-12989888D01*
X8852501Y-12989888D02*
X8842977Y-13008936D01*
X8842977Y-13008936D02*
X8833453Y-13018460D01*
X8833453Y-13018460D02*
X8814406Y-13027984D01*
X8814406Y-13027984D02*
X8785834Y-13027984D01*
X8966787Y-13027984D02*
X8947739Y-13018460D01*
X8947739Y-13018460D02*
X8938215Y-12999412D01*
X8938215Y-12999412D02*
X8938215Y-12827984D01*
X9119168Y-13018460D02*
X9100120Y-13027984D01*
X9100120Y-13027984D02*
X9062025Y-13027984D01*
X9062025Y-13027984D02*
X9042977Y-13018460D01*
X9042977Y-13018460D02*
X9033453Y-12999412D01*
X9033453Y-12999412D02*
X9033453Y-12923222D01*
X9033453Y-12923222D02*
X9042977Y-12904174D01*
X9042977Y-12904174D02*
X9062025Y-12894650D01*
X9062025Y-12894650D02*
X9100120Y-12894650D01*
X9100120Y-12894650D02*
X9119168Y-12904174D01*
X9119168Y-12904174D02*
X9128692Y-12923222D01*
X9128692Y-12923222D02*
X9128692Y-12942269D01*
X9128692Y-12942269D02*
X9033453Y-12961317D01*
X9204882Y-13018460D02*
X9223930Y-13027984D01*
X9223930Y-13027984D02*
X9262025Y-13027984D01*
X9262025Y-13027984D02*
X9281073Y-13018460D01*
X9281073Y-13018460D02*
X9290596Y-12999412D01*
X9290596Y-12999412D02*
X9290596Y-12989888D01*
X9290596Y-12989888D02*
X9281073Y-12970841D01*
X9281073Y-12970841D02*
X9262025Y-12961317D01*
X9262025Y-12961317D02*
X9233453Y-12961317D01*
X9233453Y-12961317D02*
X9214406Y-12951793D01*
X9214406Y-12951793D02*
X9204882Y-12932746D01*
X9204882Y-12932746D02*
X9204882Y-12923222D01*
X9204882Y-12923222D02*
X9214406Y-12904174D01*
X9214406Y-12904174D02*
X9233453Y-12894650D01*
X9233453Y-12894650D02*
X9262025Y-12894650D01*
X9262025Y-12894650D02*
X9281073Y-12904174D01*
X9357263Y-13104174D02*
X9366787Y-13094650D01*
X9366787Y-13094650D02*
X9385834Y-13066079D01*
X9385834Y-13066079D02*
X9395358Y-13047031D01*
X9395358Y-13047031D02*
X9404882Y-13018460D01*
X9404882Y-13018460D02*
X9414406Y-12970841D01*
X9414406Y-12970841D02*
X9414406Y-12932746D01*
X9414406Y-12932746D02*
X9404882Y-12885127D01*
X9404882Y-12885127D02*
X9395358Y-12856555D01*
X9395358Y-12856555D02*
X9385834Y-12837508D01*
X9385834Y-12837508D02*
X9366787Y-12808936D01*
X9366787Y-12808936D02*
X9357263Y-12799412D01*
M02*
