%TF.GenerationSoftware,KiCad,Pcbnew,(6.0.4)*%
%TF.CreationDate,2022-04-21T20:48:54-05:00*%
%TF.ProjectId,WiRSa,57695253-612e-46b6-9963-61645f706362,rev?*%
%TF.SameCoordinates,Original*%
%TF.FileFunction,Legend,Top*%
%TF.FilePolarity,Positive*%
%FSLAX46Y46*%
G04 Gerber Fmt 4.6, Leading zero omitted, Abs format (unit mm)*
G04 Created by KiCad (PCBNEW (6.0.4)) date 2022-04-21 20:48:54*
%MOMM*%
%LPD*%
G01*
G04 APERTURE LIST*
%ADD10C,0.150000*%
%ADD11C,0.120000*%
G04 APERTURE END LIST*
D10*
X72207380Y-94138095D02*
X71540714Y-94138095D01*
X71731190Y-94138095D02*
X71635952Y-94090476D01*
X71588333Y-94042857D01*
X71540714Y-93947619D01*
X71540714Y-93852380D01*
X72159761Y-93138095D02*
X72207380Y-93233333D01*
X72207380Y-93423809D01*
X72159761Y-93519047D01*
X72064523Y-93566666D01*
X71683571Y-93566666D01*
X71588333Y-93519047D01*
X71540714Y-93423809D01*
X71540714Y-93233333D01*
X71588333Y-93138095D01*
X71683571Y-93090476D01*
X71778809Y-93090476D01*
X71874047Y-93566666D01*
X71540714Y-92804761D02*
X71540714Y-92423809D01*
X71207380Y-92661904D02*
X72064523Y-92661904D01*
X72159761Y-92614285D01*
X72207380Y-92519047D01*
X72207380Y-92423809D01*
X72207380Y-92090476D02*
X71540714Y-92090476D01*
X71731190Y-92090476D02*
X71635952Y-92042857D01*
X71588333Y-91995238D01*
X71540714Y-91900000D01*
X71540714Y-91804761D01*
X72207380Y-91328571D02*
X72159761Y-91423809D01*
X72112142Y-91471428D01*
X72016904Y-91519047D01*
X71731190Y-91519047D01*
X71635952Y-91471428D01*
X71588333Y-91423809D01*
X71540714Y-91328571D01*
X71540714Y-91185714D01*
X71588333Y-91090476D01*
X71635952Y-91042857D01*
X71731190Y-90995238D01*
X72016904Y-90995238D01*
X72112142Y-91042857D01*
X72159761Y-91090476D01*
X72207380Y-91185714D01*
X72207380Y-91328571D01*
X72207380Y-90138095D02*
X71207380Y-90138095D01*
X72159761Y-90138095D02*
X72207380Y-90233333D01*
X72207380Y-90423809D01*
X72159761Y-90519047D01*
X72112142Y-90566666D01*
X72016904Y-90614285D01*
X71731190Y-90614285D01*
X71635952Y-90566666D01*
X71588333Y-90519047D01*
X71540714Y-90423809D01*
X71540714Y-90233333D01*
X71588333Y-90138095D01*
X72207380Y-89661904D02*
X71540714Y-89661904D01*
X71207380Y-89661904D02*
X71255000Y-89709523D01*
X71302619Y-89661904D01*
X71255000Y-89614285D01*
X71207380Y-89661904D01*
X71302619Y-89661904D01*
X72159761Y-89233333D02*
X72207380Y-89138095D01*
X72207380Y-88947619D01*
X72159761Y-88852380D01*
X72064523Y-88804761D01*
X72016904Y-88804761D01*
X71921666Y-88852380D01*
X71874047Y-88947619D01*
X71874047Y-89090476D01*
X71826428Y-89185714D01*
X71731190Y-89233333D01*
X71683571Y-89233333D01*
X71588333Y-89185714D01*
X71540714Y-89090476D01*
X71540714Y-88947619D01*
X71588333Y-88852380D01*
X72207380Y-88376190D02*
X71207380Y-88376190D01*
X71826428Y-88280952D02*
X72207380Y-87995238D01*
X71540714Y-87995238D02*
X71921666Y-88376190D01*
X72159761Y-87614285D02*
X72207380Y-87519047D01*
X72207380Y-87328571D01*
X72159761Y-87233333D01*
X72064523Y-87185714D01*
X72016904Y-87185714D01*
X71921666Y-87233333D01*
X71874047Y-87328571D01*
X71874047Y-87471428D01*
X71826428Y-87566666D01*
X71731190Y-87614285D01*
X71683571Y-87614285D01*
X71588333Y-87566666D01*
X71540714Y-87471428D01*
X71540714Y-87328571D01*
X71588333Y-87233333D01*
X72112142Y-86757142D02*
X72159761Y-86709523D01*
X72207380Y-86757142D01*
X72159761Y-86804761D01*
X72112142Y-86757142D01*
X72207380Y-86757142D01*
X72159761Y-85852380D02*
X72207380Y-85947619D01*
X72207380Y-86138095D01*
X72159761Y-86233333D01*
X72112142Y-86280952D01*
X72016904Y-86328571D01*
X71731190Y-86328571D01*
X71635952Y-86280952D01*
X71588333Y-86233333D01*
X71540714Y-86138095D01*
X71540714Y-85947619D01*
X71588333Y-85852380D01*
X72207380Y-85280952D02*
X72159761Y-85376190D01*
X72112142Y-85423809D01*
X72016904Y-85471428D01*
X71731190Y-85471428D01*
X71635952Y-85423809D01*
X71588333Y-85376190D01*
X71540714Y-85280952D01*
X71540714Y-85138095D01*
X71588333Y-85042857D01*
X71635952Y-84995238D01*
X71731190Y-84947619D01*
X72016904Y-84947619D01*
X72112142Y-84995238D01*
X72159761Y-85042857D01*
X72207380Y-85138095D01*
X72207380Y-85280952D01*
X72207380Y-84519047D02*
X71540714Y-84519047D01*
X71635952Y-84519047D02*
X71588333Y-84471428D01*
X71540714Y-84376190D01*
X71540714Y-84233333D01*
X71588333Y-84138095D01*
X71683571Y-84090476D01*
X72207380Y-84090476D01*
X71683571Y-84090476D02*
X71588333Y-84042857D01*
X71540714Y-83947619D01*
X71540714Y-83804761D01*
X71588333Y-83709523D01*
X71683571Y-83661904D01*
X72207380Y-83661904D01*
X70415476Y-96072619D02*
X69820238Y-96489285D01*
X70415476Y-96786904D02*
X69165476Y-96786904D01*
X69165476Y-96310714D01*
X69225000Y-96191666D01*
X69284523Y-96132142D01*
X69403571Y-96072619D01*
X69582142Y-96072619D01*
X69701190Y-96132142D01*
X69760714Y-96191666D01*
X69820238Y-96310714D01*
X69820238Y-96786904D01*
X70355952Y-95060714D02*
X70415476Y-95179761D01*
X70415476Y-95417857D01*
X70355952Y-95536904D01*
X70236904Y-95596428D01*
X69760714Y-95596428D01*
X69641666Y-95536904D01*
X69582142Y-95417857D01*
X69582142Y-95179761D01*
X69641666Y-95060714D01*
X69760714Y-95001190D01*
X69879761Y-95001190D01*
X69998809Y-95596428D01*
X69582142Y-94644047D02*
X69582142Y-94167857D01*
X69165476Y-94465476D02*
X70236904Y-94465476D01*
X70355952Y-94405952D01*
X70415476Y-94286904D01*
X70415476Y-94167857D01*
X70415476Y-93751190D02*
X69582142Y-93751190D01*
X69820238Y-93751190D02*
X69701190Y-93691666D01*
X69641666Y-93632142D01*
X69582142Y-93513095D01*
X69582142Y-93394047D01*
X70415476Y-92798809D02*
X70355952Y-92917857D01*
X70296428Y-92977380D01*
X70177380Y-93036904D01*
X69820238Y-93036904D01*
X69701190Y-92977380D01*
X69641666Y-92917857D01*
X69582142Y-92798809D01*
X69582142Y-92620238D01*
X69641666Y-92501190D01*
X69701190Y-92441666D01*
X69820238Y-92382142D01*
X70177380Y-92382142D01*
X70296428Y-92441666D01*
X70355952Y-92501190D01*
X70415476Y-92620238D01*
X70415476Y-92798809D01*
X70415476Y-91846428D02*
X69165476Y-91846428D01*
X69165476Y-91548809D01*
X69225000Y-91370238D01*
X69344047Y-91251190D01*
X69463095Y-91191666D01*
X69701190Y-91132142D01*
X69879761Y-91132142D01*
X70117857Y-91191666D01*
X70236904Y-91251190D01*
X70355952Y-91370238D01*
X70415476Y-91548809D01*
X70415476Y-91846428D01*
X70415476Y-90596428D02*
X69582142Y-90596428D01*
X69165476Y-90596428D02*
X69225000Y-90655952D01*
X69284523Y-90596428D01*
X69225000Y-90536904D01*
X69165476Y-90596428D01*
X69284523Y-90596428D01*
X70355952Y-90060714D02*
X70415476Y-89941666D01*
X70415476Y-89703571D01*
X70355952Y-89584523D01*
X70236904Y-89525000D01*
X70177380Y-89525000D01*
X70058333Y-89584523D01*
X69998809Y-89703571D01*
X69998809Y-89882142D01*
X69939285Y-90001190D01*
X69820238Y-90060714D01*
X69760714Y-90060714D01*
X69641666Y-90001190D01*
X69582142Y-89882142D01*
X69582142Y-89703571D01*
X69641666Y-89584523D01*
X70415476Y-88989285D02*
X69165476Y-88989285D01*
X69939285Y-88870238D02*
X70415476Y-88513095D01*
X69582142Y-88513095D02*
X70058333Y-88989285D01*
X70355952Y-88036904D02*
X70415476Y-87917857D01*
X70415476Y-87679761D01*
X70355952Y-87560714D01*
X70236904Y-87501190D01*
X70177380Y-87501190D01*
X70058333Y-87560714D01*
X69998809Y-87679761D01*
X69998809Y-87858333D01*
X69939285Y-87977380D01*
X69820238Y-88036904D01*
X69760714Y-88036904D01*
X69641666Y-87977380D01*
X69582142Y-87858333D01*
X69582142Y-87679761D01*
X69641666Y-87560714D01*
X69165476Y-86132142D02*
X70415476Y-85834523D01*
X69522619Y-85596428D01*
X70415476Y-85358333D01*
X69165476Y-85060714D01*
X70415476Y-84584523D02*
X69582142Y-84584523D01*
X69165476Y-84584523D02*
X69225000Y-84644047D01*
X69284523Y-84584523D01*
X69225000Y-84525000D01*
X69165476Y-84584523D01*
X69284523Y-84584523D01*
X70415476Y-83275000D02*
X69820238Y-83691666D01*
X70415476Y-83989285D02*
X69165476Y-83989285D01*
X69165476Y-83513095D01*
X69225000Y-83394047D01*
X69284523Y-83334523D01*
X69403571Y-83275000D01*
X69582142Y-83275000D01*
X69701190Y-83334523D01*
X69760714Y-83394047D01*
X69820238Y-83513095D01*
X69820238Y-83989285D01*
X70355952Y-82798809D02*
X70415476Y-82620238D01*
X70415476Y-82322619D01*
X70355952Y-82203571D01*
X70296428Y-82144047D01*
X70177380Y-82084523D01*
X70058333Y-82084523D01*
X69939285Y-82144047D01*
X69879761Y-82203571D01*
X69820238Y-82322619D01*
X69760714Y-82560714D01*
X69701190Y-82679761D01*
X69641666Y-82739285D01*
X69522619Y-82798809D01*
X69403571Y-82798809D01*
X69284523Y-82739285D01*
X69225000Y-82679761D01*
X69165476Y-82560714D01*
X69165476Y-82263095D01*
X69225000Y-82084523D01*
X70415476Y-81013095D02*
X69760714Y-81013095D01*
X69641666Y-81072619D01*
X69582142Y-81191666D01*
X69582142Y-81429761D01*
X69641666Y-81548809D01*
X70355952Y-81013095D02*
X70415476Y-81132142D01*
X70415476Y-81429761D01*
X70355952Y-81548809D01*
X70236904Y-81608333D01*
X70117857Y-81608333D01*
X69998809Y-81548809D01*
X69939285Y-81429761D01*
X69939285Y-81132142D01*
X69879761Y-81013095D01*
%TO.C,J1*%
X73961666Y-94482380D02*
X73961666Y-95196666D01*
X73914047Y-95339523D01*
X73818809Y-95434761D01*
X73675952Y-95482380D01*
X73580714Y-95482380D01*
X74961666Y-95482380D02*
X74390238Y-95482380D01*
X74675952Y-95482380D02*
X74675952Y-94482380D01*
X74580714Y-94625238D01*
X74485476Y-94720476D01*
X74390238Y-94768095D01*
D11*
X72965000Y-91430000D02*
X72965000Y-83750000D01*
X75625000Y-92700000D02*
X75625000Y-94030000D01*
X75625000Y-83750000D02*
X72965000Y-83750000D01*
X75625000Y-91430000D02*
X72965000Y-91430000D01*
X75625000Y-94030000D02*
X74295000Y-94030000D01*
X75625000Y-91430000D02*
X75625000Y-83750000D01*
%TO.C,U1*%
G36*
X85725000Y-102385000D02*
G01*
X84455000Y-102385000D01*
X85090000Y-101750000D01*
X85725000Y-102385000D01*
G37*
D10*
X85725000Y-102385000D02*
X84455000Y-102385000D01*
X85090000Y-101750000D01*
X85725000Y-102385000D01*
D11*
X76750000Y-99215000D02*
G75*
G03*
X78880000Y-101345000I2130002J2D01*
G01*
X78880000Y-75485000D02*
G75*
G03*
X76750000Y-77615000I0J-2130000D01*
G01*
X111210000Y-75485000D02*
X78880000Y-75485000D01*
X76750000Y-77605000D02*
X76750000Y-99215000D01*
X104310000Y-101345000D02*
X78880000Y-101345000D01*
X111210000Y-98805000D02*
X111210000Y-75485000D01*
X104310000Y-98805000D02*
X111210000Y-98805000D01*
X104310000Y-101345000D02*
X104310000Y-98805000D01*
%TD*%
M02*
